<svg width="16" height="17" viewBox="0 0 16 17" fill="none" xmlns="http://www.w3.org/2000/svg">
<g clip-path="url(#clip0_11763_23999)">
<path d="M0 8.84766C0 4.42926 3.5816 0.847656 8 0.847656C12.4184 0.847656 16 4.42926 16 8.84766C16 13.2661 12.4184 16.8477 8 16.8477C3.5816 16.8477 0 13.2661 0 8.84766Z" fill="black"/>
<path d="M6.1502 5.59605L5.069 4.96805L8.01059 3.24805L10.9606 4.96805L9.879 5.59605L8.01059 4.51365L6.1506 5.59645L6.1502 5.59605ZM11.7306 6.67885V7.94445L12.8122 7.31605V6.05005L11.7306 5.41285L10.649 6.04165L11.7306 6.67885ZM6.929 6.05005L8.01059 6.67885L9.0918 6.05005L8.01059 5.41285L6.929 6.05005ZM10.9606 7.13285L9.879 6.50405L8.01059 7.58645L6.1506 6.50405L5.069 7.13285V8.39845L6.929 9.48085V11.6456L8.01059 12.2744L9.0918 11.6456V9.48085L10.9606 8.39845V7.13285ZM11.7306 11.0172L9.8706 12.0996V13.3656L12.8206 11.6456V8.21525L11.7306 8.85245V11.0172ZM9.8706 11.2008L10.9518 10.572V9.29765L9.8706 9.92605V11.2008ZM6.929 12.5536V13.8196L8.01059 14.448L9.0918 13.8196V12.5536L8.01059 13.1824L6.929 12.5536ZM3.2002 7.31605L4.2818 7.94445V6.67885L5.363 6.05005L4.2902 5.41285L3.209 6.04165V7.31605H3.2002ZM4.2902 8.85205L3.209 8.22405V11.6544L6.159 13.3744V12.108L4.2902 11.0168V8.85205ZM6.1502 9.93485L5.069 9.30645V10.572L6.1502 11.2008V9.93485Z" fill="#F1BA0D"/>
</g>
<defs>
<clipPath id="clip0_11763_23999">
<rect width="16" height="16" fill="white" transform="translate(0 0.847656)"/>
</clipPath>
</defs>
</svg>
