<svg width="32" height="32" viewBox="0 0 32 32" fill="none" xmlns="http://www.w3.org/2000/svg">
<path class='bg' d="M32 16C32 28.5479 28.6914 32 16.0804 32C3.46944 32 0 28.5479 0 16C0 3.45209 3.46944 0 16.0804 0C28.6914 0 32 3.45209 32 16Z" fill="url(#paint0_linear_11478_8236)"/>
<path d="M16.5984 15.2144V11.2393C16.4135 11.2393 16.1824 11.1931 16.0438 11.1931H15.9975C15.7664 11.2393 15.5353 11.2393 15.2118 11.2855V15.2144H7.07666V12.0713C7.07666 11.5628 7.49266 11.1931 7.95488 11.1931H11.6527C10.682 10.9619 9.94244 10.5459 9.89622 9.76016C9.84999 8.83572 10.9131 7.31039 12.4384 7.68016C14.01 8.04994 15.1193 9.25172 15.9513 10.3148C16.7833 9.25172 18.0313 7.86505 19.6491 7.63394C21.082 7.44905 22.1913 8.83572 22.0527 9.76016C21.914 10.5459 21.1744 11.0082 20.2038 11.1931H23.8553C24.3638 11.1931 24.7335 11.6091 24.7335 12.0713V15.2144H16.5984ZM12.6233 8.51216C11.8838 8.23483 11.4215 8.55839 11.098 9.06683C10.9131 9.34416 10.7282 9.76016 11.0055 10.0375C11.7451 10.7771 13.7327 10.7308 15.1193 10.5922C14.4722 9.80639 13.6864 8.92816 12.6233 8.51216ZM20.9433 10.0375C21.4518 9.34416 20.4349 7.9575 19.3255 8.46594C18.2624 8.97439 17.5229 9.76016 16.8295 10.5922C17.3842 10.6384 17.9851 10.6384 18.5398 10.6384C19.2793 10.5922 20.5735 10.5459 20.9433 10.0375ZM15.258 24.6899H8.64822C8.18599 24.6899 7.81622 24.3202 7.81622 23.8579V15.8615H15.258V24.6899ZM23.994 23.8579C23.994 24.3202 23.6242 24.6899 23.162 24.6899H16.5522V15.9077H23.994V23.8579Z" fill="white"/>
<defs>
<linearGradient id="paint0_linear_11478_8236" x1="30.2901" y1="27.7895" x2="0.640399" y2="27.3236" gradientUnits="userSpaceOnUse">
<stop stop-color="#7973FF"/>
<stop offset="1" stop-color="#B481FF"/>
</linearGradient>
</defs>
</svg>
