<svg width="48" height="48" viewBox="0 0 48 48" fill="none" xmlns="http://www.w3.org/2000/svg">
<circle opacity="0.2" cx="24" cy="24" r="24" fill="currentColor"/>
<path d="M33.6075 16.1337C27.1951 16.8092 24.8384 14.1171 24.1566 13.0231C24.0511 12.8543 23.7913 12.8543 23.6858 13.0231C23.004 14.1171 20.6473 16.8092 14.2349 16.1337C14.0157 16.111 13.8534 16.3152 13.9508 16.4992C14.5244 17.5629 15.9016 20.4465 15.6229 23.1613C15.6202 23.179 15.6175 23.1941 15.6121 23.2117C15.4795 23.6377 13.6369 30.1562 23.7832 35.437C23.8671 35.4824 23.9753 35.4824 24.0619 35.437C34.2082 30.1562 32.3656 23.6377 32.233 23.2117C32.2276 23.1941 32.2249 23.179 32.2222 23.1613C31.9435 20.444 33.318 17.5629 33.8943 16.4992C33.989 16.3152 33.8267 16.111 33.6075 16.1337Z" fill="currentColor"/>
<path d="M24.587 19.6226L25.4211 21.3105C25.5023 21.4769 25.6608 21.5918 25.8451 21.6175L27.7093 21.8889C28.1709 21.9563 28.3532 22.5229 28.0204 22.8478L26.6712 24.1632C26.5385 24.292 26.479 24.4782 26.5088 24.6605L26.8277 26.5167C26.907 26.9764 26.4255 27.325 26.0135 27.1091L24.3473 26.2334C24.1829 26.1483 23.9887 26.1483 23.8243 26.2334L22.1582 27.1091C21.7461 27.325 21.2647 26.9764 21.3439 26.5167L21.6629 24.6605C21.6946 24.4782 21.6332 24.292 21.5004 24.1632L20.1513 22.8478C19.8184 22.5229 20.0027 21.9563 20.4623 21.8889L22.3266 21.6175C22.5088 21.5918 22.6673 21.4769 22.7505 21.3105L23.5846 19.6226C23.7847 19.2065 24.381 19.2065 24.587 19.6226Z" fill="#DFF2FE"/>
</svg>
