<svg width="32" height="32" viewBox="0 0 32 32" fill="none" xmlns="http://www.w3.org/2000/svg">
<path class='bg' d="M32 16C32 28.5479 28.6914 32 16.0804 32C3.46944 32 0 28.5479 0 16C0 3.45209 3.46944 0 16.0804 0C28.6914 0 32 3.45209 32 16Z" fill="url(#paint0_linear_11479_8252)"/>
<g clip-path="url(#clip0_11479_8252)">
<path d="M16.188 16.4141C16.3508 16.4722 16.5041 16.5259 16.6566 16.5819C16.8848 16.6656 17.1129 16.7496 17.3402 16.8359C17.5119 16.9011 17.6831 16.9674 17.8527 17.0379C17.994 17.0966 18.1319 17.1634 18.2724 17.2242C18.4088 17.2831 18.5479 17.336 18.6831 17.3974C18.7455 17.4257 18.7989 17.4733 18.861 17.5027C18.9493 17.5444 19.0449 17.5712 19.1319 17.6151C19.344 17.7221 19.5528 17.8357 19.7634 17.9459C19.9011 18.0179 20.0427 18.0829 20.1767 18.1609C20.4078 18.2956 20.6365 18.4347 20.8623 18.578C21.1023 18.7303 21.3068 18.923 21.4877 19.1425C21.7098 19.412 21.8881 19.7049 22.0214 20.0292C22.1972 20.4567 22.2724 20.9018 22.2778 21.3587C22.2799 21.5331 22.2407 21.7084 22.2155 21.8826C22.1595 22.2696 22.0085 22.6226 21.813 22.9568C21.6357 23.2597 21.4113 23.5251 21.1309 23.7386C21.0093 23.8311 20.8847 23.9226 20.751 23.9956C20.6148 24.0698 20.4694 24.1312 20.322 24.1796C19.972 24.2942 19.6154 24.3275 19.2492 24.2558C18.9905 24.205 18.7582 24.0999 18.5398 23.959C18.4727 23.9157 18.4145 23.8587 18.3513 23.8092C18.2831 23.756 18.2772 23.7581 18.2356 23.8311C17.9701 24.2976 17.6278 24.6971 17.1967 25.0186C16.8205 25.2992 16.4073 25.5019 15.9414 25.5766C15.2972 25.6797 14.7184 25.5401 14.246 25.0695C13.9571 24.7817 13.7644 24.4322 13.6429 24.0439C13.4527 23.4362 13.4614 22.8223 13.6049 22.209C13.7064 21.7753 13.8862 21.3727 14.1216 20.9929C14.5163 20.356 14.8661 19.6941 15.166 19.0077C15.3927 18.4887 15.6057 17.9634 15.8152 17.4372C15.9364 17.1326 16.0385 16.8205 16.1495 16.5119C16.1603 16.4819 16.1729 16.4525 16.1883 16.4141H16.188Z" fill="white"/>
<path d="M15.6006 16.1955C15.5449 16.3331 15.4901 16.4598 15.4424 16.589C15.3827 16.7512 15.3333 16.9171 15.2715 17.0784C15.174 17.3327 15.0696 17.5845 14.9685 17.8375C14.9164 17.9679 14.8669 18.0993 14.8127 18.2289C14.7484 18.3827 14.6823 18.5358 14.6132 18.6875C14.5324 18.8651 14.4488 19.0415 14.3638 19.2172C14.3073 19.334 14.2493 19.4501 14.1864 19.5635C14.043 19.822 13.8998 20.0807 13.7497 20.3353C13.6126 20.568 13.4737 20.8005 13.3216 21.0235C13.2398 21.1433 13.1408 21.2583 13.0274 21.3476C12.9184 21.4335 12.8375 21.5493 12.7143 21.6195C12.5918 21.6893 12.4799 21.7778 12.357 21.8467C12.0409 22.0235 11.7064 22.1564 11.3477 22.2139C11.1302 22.2487 10.9086 22.2863 10.69 22.28C10.4339 22.2726 10.1791 22.2195 9.92408 22.1842C9.90164 22.181 9.8812 22.163 9.85259 22.1481C9.81527 22.1418 9.7638 22.1401 9.71715 22.1243C9.26923 21.9734 8.86366 21.7478 8.52287 21.4179C8.4018 21.3007 8.29089 21.1699 8.19267 21.0329C8.09246 20.8932 7.99759 20.7452 7.92809 20.5886C7.7155 20.1101 7.6373 19.613 7.79066 19.1004C7.83511 18.952 7.9066 18.8114 7.97096 18.6696C7.9849 18.639 8.02442 18.621 8.04612 18.5925C8.05933 18.5752 8.05566 18.545 8.06887 18.5276C8.11195 18.4704 8.15692 18.4142 8.20577 18.362C8.2476 18.3174 8.24781 18.2798 8.19466 18.2504C7.82127 18.044 7.49096 17.7829 7.20657 17.4652C6.7641 16.9709 6.4555 16.4087 6.40633 15.7372C6.35696 15.0621 6.59114 14.497 7.13602 14.0777C7.55051 13.7587 8.02338 13.5857 8.54163 13.5283C9.26441 13.4482 9.94913 13.5849 10.5979 13.8997C10.8565 14.0252 11.0957 14.1898 11.3495 14.3259C11.798 14.5666 12.2473 14.8065 12.7029 15.0334C13.3084 15.3349 13.9371 15.5835 14.57 15.8211C14.8792 15.9372 15.1914 16.0454 15.5022 16.1572C15.5298 16.1672 15.557 16.1785 15.6005 16.1954L15.6006 16.1955Z" fill="white"/>
<path d="M15.8108 15.5983C15.6624 15.5469 15.5216 15.5014 15.3833 15.4494C15.0213 15.3135 14.6584 15.1796 14.2997 15.0357C13.9567 14.898 13.6183 14.7486 13.278 14.6043C13.2665 14.5995 13.2538 14.5963 13.244 14.5891C13.1181 14.4983 12.9659 14.4616 12.8313 14.388C12.694 14.3129 12.552 14.2463 12.4126 14.1753C12.3684 14.1527 12.3242 14.1295 12.2825 14.1026C12.2684 14.0935 12.2619 14.0724 12.2513 14.056C12.2159 14.0469 12.1687 14.0441 12.1312 14.0236C11.9483 13.9237 11.7673 13.8204 11.5874 13.7154C11.4873 13.6569 11.3902 13.5934 11.2927 13.5307C11.1865 13.4625 11.0792 13.3955 10.9767 13.3221C10.9365 13.2933 10.91 13.2459 10.8726 13.2121C10.8464 13.1885 10.8088 13.1776 10.7826 13.1541C10.7181 13.096 10.6534 13.0372 10.5959 12.9724C10.5221 12.8893 10.4527 12.8021 10.386 12.7131C10.2334 12.5092 10.1053 12.29 10.0056 12.0559C9.8925 11.7905 9.8057 11.5149 9.76849 11.2288C9.73463 10.9685 9.69742 10.7062 9.73935 10.4422C9.76618 10.2734 9.78348 10.1024 9.82426 9.93706C9.85193 9.825 9.89323 9.71409 9.93611 9.60497C9.98789 9.47341 10.0373 9.33997 10.1027 9.21502C10.3524 8.73806 10.6978 8.34979 11.164 8.07053C11.4454 7.90197 11.7439 7.79316 12.0674 7.74347C12.4591 7.6833 12.8338 7.72932 13.1892 7.90679C13.2954 7.95983 13.3982 8.02032 13.498 8.08468C13.5528 8.12011 13.5985 8.17001 13.6474 8.21446C13.6893 8.25261 13.7231 8.24444 13.7599 8.19129C13.9054 7.98101 14.0374 7.75899 14.2016 7.56422C14.6357 7.04932 15.1672 6.66723 15.8232 6.48734C16.3915 6.33157 16.9435 6.3756 17.4531 6.69679C17.7962 6.91304 18.03 7.22836 18.2052 7.58561C18.4687 8.12294 18.5393 8.6954 18.481 9.28661C18.4184 9.92175 18.2031 10.5021 17.8658 11.0426C17.5511 11.5469 17.275 12.0729 17.0174 12.6087C16.7179 13.2317 16.4504 13.8683 16.21 14.5164C16.0866 14.8494 15.9675 15.1841 15.8461 15.518C15.8369 15.5433 15.8244 15.5674 15.8108 15.5981V15.5983Z" fill="white"/>
<path d="M16.4038 15.8167C16.5304 15.4735 16.6519 15.1338 16.781 14.7971C16.9118 14.456 17.0384 14.1125 17.1884 13.7796C17.3357 13.4529 17.4714 13.1206 17.6396 12.8028C17.809 12.4826 17.9545 12.1496 18.1652 11.8553C18.172 11.8283 18.1731 11.798 18.1866 11.775C18.2857 11.6063 18.3875 11.4392 18.4882 11.2714C18.4996 11.2523 18.5088 11.232 18.5185 11.2134C18.5306 11.2222 18.5426 11.2308 18.5545 11.2395C18.5603 11.2267 18.5678 11.2145 18.5714 11.2011C18.5803 11.1673 18.5768 11.1241 18.597 11.1001C18.7356 10.9349 18.8774 10.7724 19.0216 10.6121C19.064 10.565 19.1141 10.5226 19.167 10.4879C19.1966 10.4685 19.2393 10.4692 19.2791 10.4602C19.2873 10.3707 19.3219 10.343 19.4135 10.3648C19.4165 10.2617 19.5114 10.2386 19.5748 10.2037C19.8226 10.0672 20.0775 9.94501 20.3527 9.86933C20.6172 9.79668 20.8833 9.74259 21.1592 9.747C21.2854 9.74899 21.412 9.74259 21.5378 9.74909C21.8288 9.76408 22.1133 9.81723 22.3837 9.92772C22.5466 9.99428 22.7095 10.0639 22.864 10.1476C23.1456 10.3003 23.398 10.4933 23.6138 10.7324C23.8542 10.9986 24.0382 11.2998 24.1578 11.6368C24.2651 11.9395 24.3171 12.2552 24.2794 12.5757C24.2543 12.7893 24.2102 13.0024 24.1003 13.1943C24.0672 13.2522 24.0445 13.316 24.0118 13.3743C23.9981 13.3986 23.971 13.4153 23.9413 13.4438C23.9396 13.5239 23.8672 13.5772 23.8107 13.6365C23.7478 13.7025 23.7447 13.7282 23.8246 13.7733C24.1918 13.9803 24.5186 14.2386 24.7984 14.5534C25.2332 15.0425 25.5396 15.5972 25.5923 16.2607C25.6442 16.9142 25.4347 17.4719 24.9166 17.8932C24.3513 18.3531 23.692 18.5263 22.9751 18.506C22.2866 18.4866 21.648 18.2899 21.0618 17.932C20.5522 17.6208 20.0329 17.3273 19.493 17.0729C19.0325 16.8559 18.5671 16.6476 18.0951 16.4574C17.5559 16.2402 17.0071 16.0473 16.4625 15.8437C16.4447 15.837 16.4278 15.8279 16.404 15.8169L16.4038 15.8167Z" fill="white"/>
</g>
<defs>
<linearGradient id="paint0_linear_11479_8252" x1="1.32846e-08" y1="11.2" x2="28.1044" y2="4.31926" gradientUnits="userSpaceOnUse">
<stop stop-color="#98F289"/>
<stop offset="1" stop-color="#42D9D9"/>
</linearGradient>
<clipPath id="clip0_11479_8252">
<rect width="19.2" height="19.2082" fill="white" transform="translate(6.3999 6.40039)"/>
</clipPath>
</defs>
</svg>
