<svg width="215" height="135" viewBox="0 0 215 135" fill="none" xmlns="http://www.w3.org/2000/svg">
<path d="M200 115.001C200 101.869 197.413 88.8651 192.388 76.7325C187.362 64.6 179.997 53.576 170.711 44.2902C161.425 35.0043 150.401 27.6384 138.268 22.6129C126.136 17.5874 113.132 15.0009 100 15.0009C86.8678 15.0009 73.8642 17.5874 61.7317 22.6129C49.5991 27.6384 38.5752 35.0043 29.2893 44.2902C20.0035 53.576 12.6375 64.6 7.61204 76.7325C2.58657 88.8651 -1.14805e-06 101.869 0 115.001H40C40 107.122 41.5519 99.3194 44.5672 92.0399C47.5825 84.7603 52.0021 78.146 57.5736 72.5745C63.1451 67.0029 69.7595 62.5834 77.039 59.5681C84.3185 56.5528 92.1207 55.0009 100 55.0009C107.879 55.0009 115.681 56.5528 122.961 59.5681C130.241 62.5834 136.855 67.0029 142.426 72.5744C147.998 78.146 152.417 84.7603 155.433 92.0399C158.448 99.3194 160 107.122 160 115.001H200Z" fill="#1F9898"/>
<path d="M200 115.001C200 101.869 197.413 88.8651 192.388 76.7325C187.362 64.6 179.997 53.576 170.711 44.2902C161.425 35.0043 150.401 27.6384 138.268 22.6129C126.136 17.5874 113.132 15.0009 100 15.0009L100 55.0009C107.879 55.0009 115.681 56.5528 122.961 59.5681C130.241 62.5834 136.855 67.0029 142.426 72.5744C147.998 78.146 152.417 84.7603 155.433 92.0399C158.448 99.3194 160 107.122 160 115.001H200Z" fill="#56D0D0"/>
<path d="M200 115.001C200 99.1843 196.248 83.5932 189.053 69.5081C181.857 55.423 171.424 43.2455 158.608 33.9757L135.165 66.3858C142.854 71.9477 149.114 79.2541 153.432 87.7052C157.749 96.1563 160 105.511 160 115.001H200Z" fill="#6FEBCD"/>
<path d="M200 115.001C200 104.578 198.371 94.2199 195.171 84.3007L157.103 96.5807C159.022 102.532 160 108.747 160 115.001H200Z" fill="#CFFFE9"/>
<path fill-rule="evenodd" clip-rule="evenodd" d="M157.103 96.5807L195.171 84.3007C191.922 74.2292 187.075 64.675 180.755 56.0223L148.453 79.6139C152.245 84.8055 155.153 90.5379 157.103 96.5807Z" fill="#A7F3D0"/>
<path d="M208.095 108.292H207.415V104.452H208.095V105.987H212.98C213.127 105.987 213.275 105.992 213.425 106.002L212.33 104.727C212.293 104.684 212.27 104.64 212.26 104.597C212.253 104.554 212.253 104.514 212.26 104.477C212.267 104.44 212.28 104.405 212.3 104.372C212.32 104.342 212.342 104.319 212.365 104.302L212.75 104.022L214.595 106.157V106.882H208.095V108.292Z" fill="#EEF0F1"/>
<path d="M210.995 114.503C210.368 114.503 209.825 114.434 209.365 114.298C208.908 114.164 208.53 113.981 208.23 113.748C207.93 113.514 207.707 113.238 207.56 112.918C207.413 112.601 207.34 112.261 207.34 111.898C207.34 111.531 207.413 111.189 207.56 110.873C207.707 110.559 207.93 110.286 208.23 110.053C208.53 109.819 208.908 109.636 209.365 109.503C209.825 109.369 210.368 109.303 210.995 109.303C211.622 109.303 212.165 109.369 212.625 109.503C213.085 109.636 213.465 109.819 213.765 110.053C214.068 110.286 214.293 110.559 214.44 110.873C214.587 111.189 214.66 111.531 214.66 111.898C214.66 112.261 214.587 112.601 214.44 112.918C214.293 113.238 214.068 113.514 213.765 113.748C213.465 113.981 213.085 114.164 212.625 114.298C212.165 114.434 211.622 114.503 210.995 114.503ZM210.995 113.578C211.542 113.578 212 113.531 212.37 113.438C212.743 113.348 213.043 113.224 213.27 113.068C213.497 112.914 213.658 112.736 213.755 112.533C213.855 112.329 213.905 112.118 213.905 111.898C213.905 111.678 213.855 111.466 213.755 111.263C213.658 111.059 213.497 110.881 213.27 110.728C213.043 110.574 212.743 110.451 212.37 110.358C212 110.268 211.542 110.223 210.995 110.223C210.448 110.223 209.99 110.268 209.62 110.358C209.25 110.451 208.952 110.574 208.725 110.728C208.498 110.881 208.335 111.059 208.235 111.263C208.138 111.466 208.09 111.678 208.09 111.898C208.09 112.118 208.138 112.329 208.235 112.533C208.335 112.736 208.498 112.914 208.725 113.068C208.952 113.224 209.25 113.348 209.62 113.438C209.99 113.531 210.448 113.578 210.995 113.578Z" fill="#EEF0F1"/>
<path d="M210.995 120.304C210.368 120.304 209.825 120.235 209.365 120.099C208.908 119.965 208.53 119.782 208.23 119.549C207.93 119.315 207.707 119.039 207.56 118.719C207.413 118.402 207.34 118.062 207.34 117.699C207.34 117.332 207.413 116.99 207.56 116.674C207.707 116.36 207.93 116.087 208.23 115.854C208.53 115.62 208.908 115.437 209.365 115.304C209.825 115.17 210.368 115.104 210.995 115.104C211.622 115.104 212.165 115.17 212.625 115.304C213.085 115.437 213.465 115.62 213.765 115.854C214.068 116.087 214.293 116.36 214.44 116.674C214.587 116.99 214.66 117.332 214.66 117.699C214.66 118.062 214.587 118.402 214.44 118.719C214.293 119.039 214.068 119.315 213.765 119.549C213.465 119.782 213.085 119.965 212.625 120.099C212.165 120.235 211.622 120.304 210.995 120.304ZM210.995 119.379C211.542 119.379 212 119.332 212.37 119.239C212.743 119.149 213.043 119.025 213.27 118.869C213.497 118.715 213.658 118.537 213.755 118.334C213.855 118.13 213.905 117.919 213.905 117.699C213.905 117.479 213.855 117.267 213.755 117.064C213.658 116.86 213.497 116.682 213.27 116.529C213.043 116.375 212.743 116.252 212.37 116.159C212 116.069 211.542 116.024 210.995 116.024C210.448 116.024 209.99 116.069 209.62 116.159C209.25 116.252 208.952 116.375 208.725 116.529C208.498 116.682 208.335 116.86 208.235 117.064C208.138 117.267 208.09 117.479 208.09 117.699C208.09 117.919 208.138 118.13 208.235 118.334C208.335 118.537 208.498 118.715 208.725 118.869C208.952 119.025 209.25 119.149 209.62 119.239C209.99 119.332 210.448 119.379 210.995 119.379Z" fill="#EEF0F1"/>
<path d="M210.995 126.104C210.368 126.104 209.825 126.036 209.365 125.899C208.908 125.766 208.53 125.583 208.23 125.349C207.93 125.116 207.707 124.839 207.56 124.519C207.413 124.203 207.34 123.863 207.34 123.499C207.34 123.133 207.413 122.791 207.56 122.474C207.707 122.161 207.93 121.888 208.23 121.654C208.53 121.421 208.908 121.238 209.365 121.104C209.825 120.971 210.368 120.904 210.995 120.904C211.622 120.904 212.165 120.971 212.625 121.104C213.085 121.238 213.465 121.421 213.765 121.654C214.068 121.888 214.293 122.161 214.44 122.474C214.587 122.791 214.66 123.133 214.66 123.499C214.66 123.863 214.587 124.203 214.44 124.519C214.293 124.839 214.068 125.116 213.765 125.349C213.465 125.583 213.085 125.766 212.625 125.899C212.165 126.036 211.622 126.104 210.995 126.104ZM210.995 125.179C211.542 125.179 212 125.133 212.37 125.039C212.743 124.949 213.043 124.826 213.27 124.669C213.497 124.516 213.658 124.338 213.755 124.134C213.855 123.931 213.905 123.719 213.905 123.499C213.905 123.279 213.855 123.068 213.755 122.864C213.658 122.661 213.497 122.483 213.27 122.329C213.043 122.176 212.743 122.053 212.37 121.959C212 121.869 211.542 121.824 210.995 121.824C210.448 121.824 209.99 121.869 209.62 121.959C209.25 122.053 208.952 122.176 208.725 122.329C208.498 122.483 208.335 122.661 208.235 122.864C208.138 123.068 208.09 123.279 208.09 123.499C208.09 123.719 208.138 123.931 208.235 124.134C208.335 124.338 208.498 124.516 208.725 124.669C208.952 124.826 209.25 124.949 209.62 125.039C209.99 125.133 210.448 125.179 210.995 125.179Z" fill="#EEF0F1"/>
<path d="M204.152 73.8731C203.937 73.9432 203.753 74.0361 203.601 74.152C203.454 74.27 203.34 74.4051 203.26 74.5574C203.181 74.7128 203.138 74.8827 203.131 75.0671C203.125 75.2547 203.156 75.4515 203.223 75.6576C203.297 75.8858 203.399 76.0753 203.529 76.226C203.662 76.3788 203.811 76.4953 203.973 76.5756C204.136 76.6559 204.309 76.7015 204.491 76.7124C204.673 76.7232 204.852 76.7003 205.026 76.6437C205.238 76.5747 205.419 76.4775 205.567 76.3521C205.72 76.2289 205.837 76.0875 205.919 75.9279C206 75.7683 206.045 75.5941 206.054 75.4055C206.067 75.219 206.041 75.0259 205.976 74.8262C205.908 74.617 205.811 74.4381 205.686 74.2896C205.564 74.14 205.422 74.023 205.262 73.9385C205.101 73.854 204.926 73.8058 204.736 73.7938C204.547 73.7818 204.352 73.8083 204.152 73.8731ZM202.698 76.5327C202.812 76.5726 202.921 76.6093 203.023 76.6427C203.125 76.6762 203.226 76.7064 203.326 76.7336C203.129 76.6045 202.959 76.4425 202.815 76.2474C202.671 76.0524 202.56 75.8328 202.48 75.5887C202.397 75.3319 202.36 75.0739 202.371 74.8147C202.382 74.5586 202.442 74.3166 202.55 74.0887C202.662 73.8597 202.821 73.6538 203.028 73.4709C203.239 73.2901 203.501 73.1488 203.815 73.0468C204.113 72.95 204.41 72.9148 204.706 72.9413C205.002 72.9678 205.279 73.0495 205.538 73.1864C205.796 73.3233 206.025 73.5116 206.226 73.7513C206.427 73.9911 206.58 74.2758 206.688 74.6055C206.794 74.932 206.836 75.246 206.815 75.5473C206.794 75.8486 206.717 76.1258 206.586 76.3788C206.454 76.6319 206.27 76.8529 206.033 77.0419C205.798 77.2341 205.517 77.3832 205.19 77.4893C204.994 77.5532 204.801 77.5949 204.611 77.6145C204.425 77.6363 204.235 77.6402 204.041 77.626C203.852 77.6141 203.657 77.5862 203.457 77.5425C203.26 77.4978 203.055 77.442 202.84 77.375L199.904 76.4941C199.831 76.4725 199.762 76.4298 199.7 76.3661C199.64 76.3013 199.594 76.2198 199.562 76.1215L199.309 75.3417L202.698 76.5327Z" fill="#EEF0F1"/>
<path d="M205.799 83.7324C205.203 83.9261 204.666 84.029 204.186 84.0412C203.71 84.0555 203.294 83.998 202.936 83.8688C202.579 83.7396 202.281 83.5455 202.043 83.2865C201.805 83.0306 201.631 82.7299 201.518 82.3844C201.405 82.0357 201.369 81.6881 201.411 81.3416C201.453 80.9982 201.581 80.6693 201.795 80.3547C202.008 80.04 202.311 79.7488 202.704 79.4808C203.1 79.2119 203.597 78.9806 204.193 78.7869C204.789 78.5933 205.326 78.4888 205.805 78.4734C206.283 78.4581 206.701 78.515 207.059 78.6442C207.419 78.7724 207.718 78.9629 207.954 79.2155C208.191 79.4714 208.367 79.7737 208.48 80.1224C208.592 80.4679 208.628 80.814 208.586 81.1604C208.545 81.5101 208.417 81.8428 208.201 82.1584C207.987 82.473 207.683 82.7648 207.286 83.0338C206.891 83.3059 206.395 83.5388 205.799 83.7324ZM205.514 82.8527C206.034 82.6838 206.455 82.4978 206.778 82.2947C207.105 82.0937 207.352 81.8837 207.52 81.6646C207.688 81.4488 207.786 81.2292 207.816 81.006C207.848 80.7817 207.83 80.5649 207.762 80.3557C207.694 80.1465 207.581 79.9606 207.423 79.7981C207.268 79.6346 207.06 79.515 206.797 79.4392C206.534 79.3634 206.21 79.3388 205.826 79.3654C205.447 79.3941 204.997 79.493 204.477 79.6619C203.957 79.8308 203.535 80.0153 203.211 80.2152C202.888 80.4183 202.642 80.6278 202.474 80.8437C202.306 81.0595 202.206 81.2796 202.173 81.5039C202.144 81.7271 202.164 81.9434 202.232 82.1526C202.3 82.3619 202.411 82.5482 202.566 82.7117C202.724 82.8742 202.934 82.9933 203.197 83.0691C203.461 83.1481 203.783 83.1732 204.163 83.1445C204.543 83.1189 204.994 83.0216 205.514 82.8527Z" fill="#EEF0F1"/>
<path d="M207.592 89.2493C206.996 89.4429 206.458 89.5459 205.978 89.558C205.503 89.5723 205.086 89.5149 204.729 89.3857C204.372 89.2565 204.074 89.0624 203.835 88.8034C203.598 88.5475 203.423 88.2468 203.311 87.9013C203.198 87.5525 203.162 87.2049 203.203 86.8584C203.246 86.5151 203.374 86.1861 203.587 85.8715C203.8 85.5569 204.104 85.2656 204.497 84.9977C204.893 84.7288 205.389 84.4975 205.985 84.3038C206.581 84.1102 207.118 84.0057 207.597 83.9903C208.076 83.975 208.494 84.0319 208.851 84.1611C209.212 84.2893 209.51 84.4797 209.747 84.7324C209.984 84.9882 210.159 85.2905 210.273 85.6393C210.385 85.9848 210.42 86.3308 210.379 86.6773C210.338 87.027 210.209 87.3596 209.993 87.6753C209.78 87.9899 209.475 88.2817 209.079 88.5506C208.684 88.8228 208.188 89.0556 207.592 89.2493ZM207.306 88.3696C207.826 88.2006 208.248 88.0146 208.571 87.8115C208.898 87.6106 209.145 87.4006 209.312 87.1815C209.48 86.9656 209.579 86.7461 209.608 86.5228C209.64 86.2986 209.623 86.0818 209.555 85.8726C209.487 85.6633 209.374 85.4775 209.216 85.315C209.061 85.1515 208.852 85.0318 208.589 84.956C208.326 84.8803 208.003 84.8557 207.619 84.8823C207.239 84.911 206.789 85.0099 206.269 85.1788C205.749 85.3477 205.327 85.5321 205.003 85.7321C204.68 85.9352 204.435 86.1447 204.267 86.3605C204.098 86.5764 203.998 86.7965 203.966 87.0208C203.937 87.244 203.956 87.4603 204.024 87.6695C204.092 87.8787 204.204 88.0651 204.358 88.2286C204.516 88.3911 204.727 88.5102 204.99 88.586C205.254 88.665 205.575 88.6901 205.955 88.6613C206.336 88.6358 206.786 88.5385 207.306 88.3696Z" fill="#EEF0F1"/>
<path d="M184.133 47.549C184.263 47.7424 184.406 47.8975 184.561 48.014C184.721 48.1315 184.884 48.2101 185.052 48.2499C185.224 48.2906 185.397 48.2929 185.569 48.2568C185.747 48.2216 185.918 48.1481 186.084 48.0363C186.288 47.8984 186.439 47.7464 186.536 47.5804C186.638 47.4153 186.695 47.2439 186.708 47.0663C186.723 46.8915 186.701 46.7155 186.642 46.5383C186.585 46.3593 186.502 46.1882 186.392 46.0252C186.282 45.8622 186.155 45.7209 186.01 45.6015C185.868 45.4803 185.712 45.3924 185.542 45.3378C185.375 45.286 185.194 45.275 185.001 45.3047C184.813 45.3353 184.616 45.4195 184.412 45.5575C184.246 45.6693 184.113 45.7995 184.012 45.9479C183.916 46.0973 183.853 46.258 183.825 46.4302C183.8 46.6032 183.812 46.7843 183.859 46.9736C183.911 47.1638 184.002 47.3556 184.133 47.549ZM189.045 44.2358C188.926 44.0589 188.794 43.9205 188.65 43.8205C188.508 43.7233 188.361 43.6598 188.208 43.6301C188.057 43.6032 187.905 43.6073 187.752 43.6423C187.601 43.6801 187.456 43.7456 187.318 43.8388C187.182 43.9301 187.064 44.038 186.963 44.1625C186.862 44.2869 186.791 44.4255 186.749 44.5783C186.71 44.7292 186.706 44.8928 186.736 45.0692C186.771 45.2466 186.854 45.4319 186.985 45.6254C187.115 45.8188 187.255 45.9637 187.405 46.0599C187.559 46.1571 187.713 46.2159 187.867 46.2363C188.025 46.2549 188.18 46.2407 188.333 46.1936C188.486 46.1465 188.631 46.0773 188.766 45.986C188.904 45.8928 189.018 45.7817 189.108 45.6527C189.2 45.5265 189.261 45.387 189.29 45.2343C189.322 45.0844 189.318 44.924 189.279 44.7532C189.242 44.5851 189.164 44.4126 189.045 44.2358ZM187.28 46.6625C187.425 47.1036 187.441 47.5066 187.33 47.8715C187.218 48.2363 186.97 48.5483 186.586 48.8074C186.326 48.9826 186.058 49.0913 185.781 49.1335C185.508 49.1766 185.239 49.1591 184.973 49.081C184.709 49.0057 184.454 48.8721 184.208 48.6802C183.965 48.4864 183.744 48.2417 183.544 47.946C183.345 47.6503 183.201 47.3534 183.112 47.0553C183.027 46.7553 182.997 46.4675 183.024 46.1918C183.052 45.9162 183.136 45.6601 183.278 45.4235C183.423 45.1852 183.625 44.9784 183.885 44.8032C184.269 44.5441 184.651 44.431 185.031 44.4641C185.412 44.4972 185.779 44.6635 186.134 44.9629C186.039 44.5724 186.053 44.2196 186.174 43.9046C186.3 43.5905 186.523 43.3254 186.844 43.1092C187.062 42.9619 187.295 42.8668 187.544 42.8239C187.792 42.7809 188.04 42.7907 188.287 42.8531C188.534 42.9156 188.772 43.0289 188.999 43.1932C189.228 43.3602 189.434 43.5791 189.617 43.8499C189.798 44.118 189.923 44.3896 189.992 44.6647C190.061 44.9399 190.078 45.2037 190.043 45.4563C190.008 45.7089 189.925 45.9423 189.792 46.1566C189.659 46.3709 189.483 46.5516 189.265 46.6989C188.944 46.9151 188.614 47.0214 188.274 47.0177C187.938 47.0149 187.607 46.8965 187.28 46.6625Z" fill="#EEF0F1"/>
<path d="M191.276 52.8639C190.757 53.2144 190.268 53.4615 189.81 53.6055C189.357 53.7503 188.941 53.8099 188.562 53.7842C188.183 53.7585 187.843 53.654 187.542 53.4707C187.243 53.2902 186.993 53.0494 186.789 52.7482C186.584 52.4442 186.454 52.1199 186.399 51.7754C186.345 51.4336 186.377 51.0821 186.495 50.7209C186.614 50.3597 186.825 49.9961 187.129 49.6302C187.436 49.2625 187.849 48.9034 188.368 48.553C188.888 48.2025 189.376 47.954 189.832 47.8073C190.287 47.6606 190.705 47.6001 191.084 47.6258C191.466 47.6496 191.806 47.7504 192.102 47.9281C192.401 48.1086 192.653 48.3509 192.858 48.6549C193.061 48.9561 193.19 49.279 193.246 49.6235C193.303 49.9708 193.271 50.326 193.15 50.6891C193.032 51.0503 192.82 51.4147 192.513 51.7825C192.208 52.153 191.796 52.5135 191.276 52.8639ZM190.759 52.0971C191.212 51.7914 191.566 51.4964 191.821 51.2121C192.08 50.9288 192.26 50.6587 192.36 50.4021C192.462 50.1482 192.496 49.91 192.463 49.6874C192.432 49.4629 192.355 49.2594 192.232 49.0771C192.109 48.8947 191.949 48.7471 191.753 48.6345C191.559 48.52 191.325 48.4625 191.051 48.4622C190.778 48.4618 190.46 48.5273 190.098 48.6587C189.741 48.791 189.336 49.01 188.883 49.3157C188.43 49.6214 188.075 49.915 187.818 50.1965C187.564 50.4808 187.385 50.7498 187.283 51.0037C187.181 51.2576 187.145 51.4967 187.176 51.7212C187.21 51.9439 187.288 52.1464 187.411 52.3288C187.534 52.5111 187.693 52.6596 187.886 52.7741C188.083 52.8868 188.318 52.9433 188.592 52.9436C188.867 52.9468 189.184 52.8822 189.541 52.7499C189.9 52.6204 190.306 52.4028 190.759 52.0971Z" fill="#EEF0F1"/>
<path d="M194.52 57.673C194 58.0234 193.512 58.2706 193.054 58.4145C192.601 58.5594 192.185 58.6189 191.805 58.5933C191.426 58.5676 191.086 58.4631 190.786 58.2798C190.487 58.0993 190.236 57.8584 190.033 57.5572C189.828 57.2532 189.698 56.929 189.642 56.5844C189.589 56.2427 189.621 55.8912 189.739 55.53C189.857 55.1688 190.069 54.8052 190.373 54.4393C190.679 54.0715 191.093 53.7124 191.612 53.362C192.132 53.0116 192.619 52.763 193.075 52.6163C193.531 52.4697 193.949 52.4091 194.328 52.4348C194.71 52.4587 195.049 52.5594 195.346 52.7372C195.645 52.9177 195.897 53.1599 196.102 53.4639C196.305 53.7651 196.434 54.088 196.49 54.4326C196.547 54.7799 196.515 55.1351 196.394 55.4981C196.276 55.8593 196.063 56.2238 195.757 56.5916C195.452 56.9621 195.039 57.3226 194.52 57.673ZM194.003 56.9062C194.456 56.6005 194.81 56.3055 195.064 56.0212C195.324 55.7378 195.503 55.4678 195.604 55.2112C195.706 54.9573 195.74 54.7191 195.706 54.4964C195.676 54.2719 195.599 54.0685 195.476 53.8861C195.353 53.7037 195.193 53.5562 194.996 53.4436C194.802 53.329 194.569 53.2716 194.295 53.2712C194.021 53.2709 193.704 53.3364 193.342 53.4678C192.985 53.6 192.58 53.819 192.127 54.1247C191.673 54.4304 191.319 54.724 191.062 55.0055C190.808 55.2898 190.629 55.5589 190.527 55.8128C190.425 56.0666 190.389 56.3058 190.42 56.5303C190.454 56.7529 190.532 56.9554 190.655 57.1378C190.778 57.3202 190.936 57.4687 191.13 57.5832C191.327 57.6958 191.562 57.7523 191.836 57.7527C192.111 57.7558 192.427 57.6913 192.784 57.559C193.143 57.4295 193.549 57.2118 194.003 56.9062Z" fill="#EEF0F1"/>
<path d="M168.032 20.6469L167.775 20.9533C167.702 21.0401 167.632 21.103 167.564 21.1421C167.499 21.1832 167.442 21.2155 167.392 21.2388L161.27 23.9145C161.181 23.953 161.086 23.9719 160.987 23.9711C160.89 23.9678 160.793 23.9255 160.696 23.844L160.205 23.4326L166.31 20.8401C166.397 20.8041 166.48 20.7743 166.561 20.7507C166.642 20.7271 166.723 20.7081 166.805 20.6939L163.94 18.2899C163.896 18.2535 163.872 18.2047 163.867 18.1437C163.863 18.0801 163.88 18.0266 163.916 17.9832L164.305 17.5197L168.032 20.6469Z" fill="#EEF0F1"/>
<path d="M170.244 27.1829C169.841 27.6629 169.44 28.0352 169.039 28.2997C168.644 28.5639 168.26 28.7358 167.888 28.8157C167.517 28.8955 167.161 28.8887 166.822 28.7954C166.485 28.7042 166.177 28.5418 165.899 28.3083C165.618 28.0726 165.404 27.7968 165.255 27.4809C165.11 27.1671 165.044 26.8204 165.058 26.4406C165.072 26.0608 165.175 25.6531 165.366 25.2176C165.56 24.7795 165.858 24.3204 166.261 23.8404C166.663 23.3603 167.064 22.987 167.462 22.7203C167.859 22.4536 168.244 22.2803 168.616 22.2005C168.989 22.1181 169.343 22.1215 169.678 22.2105C170.015 22.3017 170.323 22.4652 170.604 22.7009C170.883 22.9344 171.096 23.2091 171.244 23.525C171.395 23.8431 171.462 24.1933 171.446 24.5756C171.432 24.9554 171.328 25.3644 171.135 25.8024C170.944 26.2427 170.647 26.7028 170.244 27.1829ZM169.535 26.5883C169.887 26.1695 170.146 25.7884 170.312 25.445C170.483 25.1011 170.581 24.7921 170.607 24.5177C170.635 24.2455 170.603 24.007 170.509 23.8023C170.418 23.595 170.288 23.4206 170.119 23.2792C169.951 23.1378 169.756 23.04 169.536 22.986C169.318 22.9293 169.078 22.9385 168.815 23.0136C168.551 23.0887 168.264 23.2392 167.953 23.4652C167.646 23.6908 167.317 24.013 166.965 24.4317C166.614 24.8505 166.354 25.2305 166.185 25.5718C166.019 25.9153 165.921 26.2231 165.893 26.4953C165.865 26.7675 165.897 27.0072 165.988 27.2145C166.082 27.4193 166.213 27.5923 166.381 27.7338C166.55 27.8752 166.743 27.9742 166.961 28.0309C167.181 28.085 167.423 28.0745 167.686 27.9994C167.951 27.9265 168.238 27.7772 168.544 27.5516C168.854 27.3282 169.184 27.0071 169.535 26.5883Z" fill="#EEF0F1"/>
<path d="M174.688 30.9115C174.285 31.3916 173.883 31.7639 173.483 32.0284C173.087 32.2925 172.704 32.4645 172.332 32.5443C171.96 32.6242 171.605 32.6174 171.266 32.5241C170.929 32.4329 170.621 32.2705 170.343 32.037C170.062 31.8013 169.847 31.5255 169.699 31.2096C169.553 30.8958 169.487 30.549 169.502 30.1692C169.516 29.7894 169.618 29.3818 169.81 28.9463C170.003 28.5082 170.301 28.0491 170.704 27.569C171.107 27.089 171.507 26.7156 171.905 26.4489C172.303 26.1823 172.688 26.009 173.059 25.9292C173.433 25.8468 173.787 25.8501 174.121 25.9392C174.458 26.0304 174.767 26.1938 175.048 26.4295C175.326 26.6631 175.54 26.9378 175.688 27.2537C175.839 27.5717 175.906 27.9219 175.89 28.3043C175.876 28.6841 175.772 29.093 175.578 29.5311C175.387 29.9713 175.091 30.4315 174.688 30.9115ZM173.979 30.317C174.331 29.8982 174.589 29.5171 174.756 29.1737C174.927 28.8298 175.025 28.5207 175.051 28.2464C175.079 27.9742 175.046 27.7357 174.953 27.531C174.861 27.3237 174.731 27.1493 174.563 27.0079C174.394 26.8665 174.2 26.7687 173.98 26.7146C173.762 26.658 173.521 26.6672 173.258 26.7423C172.995 26.8173 172.708 26.9679 172.396 27.1939C172.09 27.4195 171.76 27.7416 171.409 28.1604C171.058 28.5792 170.798 28.9592 170.629 29.3005C170.462 29.6439 170.365 29.9517 170.337 30.2239C170.309 30.4961 170.34 30.7359 170.432 30.9432C170.525 31.1479 170.656 31.321 170.825 31.4624C170.993 31.6038 171.187 31.7029 171.405 31.7595C171.625 31.8136 171.866 31.8031 172.129 31.7281C172.395 31.6551 172.681 31.5059 172.988 31.2803C173.297 31.0568 173.628 30.7357 173.979 30.317Z" fill="#EEF0F1"/>
<path d="M91.81 3.54086C92.1833 3.46086 92.5267 3.42086 92.84 3.42086C93.2133 3.42086 93.5433 3.47586 93.83 3.58586C94.1167 3.69586 94.355 3.84753 94.545 4.04086C94.7383 4.23419 94.8833 4.46253 94.98 4.72586C95.08 4.98919 95.13 5.27586 95.13 5.58586C95.13 5.96586 95.0633 6.30919 94.93 6.61586C94.8 6.92253 94.6183 7.18586 94.385 7.40586C94.155 7.62253 93.8833 7.78919 93.57 7.90586C93.2567 8.02253 92.9183 8.08086 92.555 8.08086C92.345 8.08086 92.1433 8.05919 91.95 8.01586C91.7567 7.97586 91.575 7.92086 91.405 7.85086C91.2383 7.78086 91.0833 7.70086 90.94 7.61086C90.7967 7.52086 90.67 7.42586 90.56 7.32586L90.835 6.94586C90.895 6.85919 90.9733 6.81586 91.07 6.81586C91.1367 6.81586 91.2117 6.84253 91.295 6.89586C91.3783 6.94586 91.48 7.00253 91.6 7.06586C91.72 7.12919 91.86 7.18753 92.02 7.24086C92.1833 7.29086 92.3767 7.31586 92.6 7.31586C92.85 7.31586 93.075 7.27586 93.275 7.19586C93.475 7.11586 93.6467 7.00253 93.79 6.85586C93.9333 6.70586 94.0433 6.52753 94.12 6.32086C94.1967 6.11419 94.235 5.88253 94.235 5.62586C94.235 5.40253 94.2017 5.20086 94.135 5.02086C94.0717 4.84086 93.9733 4.68753 93.84 4.56086C93.71 4.43419 93.5467 4.33586 93.35 4.26586C93.1533 4.19586 92.9233 4.16086 92.66 4.16086C92.48 4.16086 92.2917 4.17586 92.095 4.20586C91.9017 4.23586 91.7033 4.28419 91.5 4.35086L90.94 4.18586L91.515 0.83586H94.91V1.22586C94.91 1.35253 94.87 1.45753 94.79 1.54086C94.7133 1.62086 94.58 1.66086 94.39 1.66086H92.14L91.81 3.54086Z" fill="#EEF0F1"/>
<path d="M101.301 4.42086C101.301 5.04753 101.232 5.59086 101.096 6.05086C100.962 6.50753 100.779 6.88586 100.546 7.18586C100.312 7.48586 100.036 7.70919 99.7158 7.85586C99.3991 8.00253 99.0591 8.07586 98.6958 8.07586C98.3291 8.07586 97.9875 8.00253 97.6708 7.85586C97.3575 7.70919 97.0841 7.48586 96.8508 7.18586C96.6175 6.88586 96.4341 6.50753 96.3008 6.05086C96.1674 5.59086 96.1008 5.04753 96.1008 4.42086C96.1008 3.79419 96.1674 3.25086 96.3008 2.79086C96.4341 2.33086 96.6175 1.95086 96.8508 1.65086C97.0841 1.34753 97.3575 1.12253 97.6708 0.97586C97.9875 0.829193 98.3291 0.755859 98.6958 0.755859C99.0591 0.755859 99.3991 0.829193 99.7158 0.97586C100.036 1.12253 100.312 1.34753 100.546 1.65086C100.779 1.95086 100.962 2.33086 101.096 2.79086C101.232 3.25086 101.301 3.79419 101.301 4.42086ZM100.376 4.42086C100.376 3.87419 100.329 3.41586 100.236 3.04586C100.146 2.67253 100.022 2.37253 99.8658 2.14586C99.7125 1.91919 99.5341 1.75753 99.3308 1.66086C99.1274 1.56086 98.9158 1.51086 98.6958 1.51086C98.4758 1.51086 98.2641 1.56086 98.0608 1.66086C97.8575 1.75753 97.6791 1.91919 97.5258 2.14586C97.3724 2.37253 97.2491 2.67253 97.1558 3.04586C97.0658 3.41586 97.0208 3.87419 97.0208 4.42086C97.0208 4.96753 97.0658 5.42586 97.1558 5.79586C97.2491 6.16586 97.3724 6.46419 97.5258 6.69086C97.6791 6.91753 97.8575 7.08086 98.0608 7.18086C98.2641 7.27753 98.4758 7.32586 98.6958 7.32586C98.9158 7.32586 99.1274 7.27753 99.3308 7.18086C99.5341 7.08086 99.7125 6.91753 99.8658 6.69086C100.022 6.46419 100.146 6.16586 100.236 5.79586C100.329 5.42586 100.376 4.96753 100.376 4.42086Z" fill="#EEF0F1"/>
<path d="M107.102 4.42086C107.102 5.04753 107.033 5.59086 106.897 6.05086C106.763 6.50753 106.58 6.88586 106.347 7.18586C106.113 7.48586 105.837 7.70919 105.517 7.85586C105.2 8.00253 104.86 8.07586 104.497 8.07586C104.13 8.07586 103.788 8.00253 103.472 7.85586C103.158 7.70919 102.885 7.48586 102.652 7.18586C102.418 6.88586 102.235 6.50753 102.102 6.05086C101.968 5.59086 101.902 5.04753 101.902 4.42086C101.902 3.79419 101.968 3.25086 102.102 2.79086C102.235 2.33086 102.418 1.95086 102.652 1.65086C102.885 1.34753 103.158 1.12253 103.472 0.97586C103.788 0.829193 104.13 0.755859 104.497 0.755859C104.86 0.755859 105.2 0.829193 105.517 0.97586C105.837 1.12253 106.113 1.34753 106.347 1.65086C106.58 1.95086 106.763 2.33086 106.897 2.79086C107.033 3.25086 107.102 3.79419 107.102 4.42086ZM106.177 4.42086C106.177 3.87419 106.13 3.41586 106.037 3.04586C105.947 2.67253 105.823 2.37253 105.667 2.14586C105.513 1.91919 105.335 1.75753 105.132 1.66086C104.928 1.56086 104.717 1.51086 104.497 1.51086C104.277 1.51086 104.065 1.56086 103.862 1.66086C103.658 1.75753 103.48 1.91919 103.327 2.14586C103.173 2.37253 103.05 2.67253 102.957 3.04586C102.867 3.41586 102.822 3.87419 102.822 4.42086C102.822 4.96753 102.867 5.42586 102.957 5.79586C103.05 6.16586 103.173 6.46419 103.327 6.69086C103.48 6.91753 103.658 7.08086 103.862 7.18086C104.065 7.27753 104.277 7.32586 104.497 7.32586C104.717 7.32586 104.928 7.27753 105.132 7.18086C105.335 7.08086 105.513 6.91753 105.667 6.69086C105.823 6.46419 105.947 6.16586 106.037 5.79586C106.13 5.42586 106.177 4.96753 106.177 4.42086Z" fill="#EEF0F1"/>
<path d="M93.888 132.521C94.0587 132.521 94.192 132.572 94.288 132.673C94.384 132.769 94.432 132.897 94.432 133.057V134.001H86.72V133.465C86.72 133.358 86.7413 133.246 86.784 133.129C86.8267 133.006 86.8987 132.897 87 132.801L90.632 129.161C90.936 128.857 91.2107 128.564 91.456 128.281C91.7013 127.998 91.9093 127.718 92.08 127.441C92.2507 127.158 92.3813 126.87 92.472 126.577C92.568 126.284 92.616 125.974 92.616 125.649C92.616 125.329 92.5653 125.049 92.464 124.809C92.3627 124.564 92.224 124.361 92.048 124.201C91.872 124.041 91.664 123.921 91.424 123.841C91.184 123.761 90.9253 123.721 90.648 123.721C90.3707 123.721 90.1147 123.761 89.88 123.841C89.6507 123.921 89.4453 124.033 89.264 124.177C89.0827 124.321 88.9307 124.492 88.808 124.689C88.6853 124.886 88.5973 125.1 88.544 125.329C88.4693 125.532 88.3733 125.668 88.256 125.737C88.144 125.806 87.9787 125.822 87.76 125.785L86.944 125.641C87.0187 125.108 87.1653 124.638 87.384 124.233C87.6027 123.828 87.8773 123.489 88.208 123.217C88.5387 122.94 88.9173 122.732 89.344 122.593C89.776 122.454 90.24 122.385 90.736 122.385C91.2373 122.385 91.6987 122.46 92.12 122.609C92.5467 122.753 92.9147 122.964 93.224 123.241C93.5333 123.518 93.776 123.857 93.952 124.257C94.128 124.652 94.216 125.1 94.216 125.601C94.216 126.028 94.152 126.425 94.024 126.793C93.9013 127.156 93.7307 127.502 93.512 127.833C93.2987 128.164 93.048 128.486 92.76 128.801C92.4773 129.11 92.176 129.425 91.856 129.745L88.944 132.721C89.168 132.662 89.392 132.614 89.616 132.577C89.8453 132.54 90.0613 132.521 90.264 132.521H93.888Z" fill="#EEF0F1"/>
<path d="M98.2653 126.801C98.8519 126.678 99.3826 126.617 99.8572 126.617C100.455 126.617 100.983 126.708 101.441 126.889C101.9 127.065 102.284 127.31 102.593 127.625C102.908 127.934 103.143 128.302 103.297 128.729C103.457 129.15 103.537 129.609 103.537 130.105C103.537 130.713 103.431 131.265 103.217 131.761C103.004 132.257 102.711 132.681 102.337 133.033C101.964 133.385 101.521 133.657 101.009 133.849C100.503 134.036 99.9559 134.129 99.3692 134.129C99.0226 134.129 98.6919 134.094 98.3773 134.025C98.0679 133.956 97.7772 133.865 97.5052 133.753C97.2332 133.636 96.9799 133.502 96.7452 133.353C96.5159 133.204 96.3106 133.046 96.1292 132.881L96.6093 132.209C96.7106 132.06 96.8466 131.985 97.0173 131.985C97.1293 131.985 97.2519 132.028 97.3852 132.113C97.5239 132.193 97.6866 132.284 97.8733 132.385C98.0599 132.486 98.2812 132.58 98.5372 132.665C98.7932 132.745 99.0972 132.785 99.4492 132.785C99.8386 132.785 100.188 132.724 100.497 132.601C100.812 132.473 101.076 132.294 101.289 132.065C101.508 131.836 101.673 131.561 101.785 131.241C101.903 130.921 101.961 130.566 101.961 130.177C101.961 129.83 101.911 129.518 101.809 129.241C101.708 128.964 101.556 128.726 101.353 128.529C101.151 128.332 100.897 128.182 100.593 128.081C100.289 127.974 99.9346 127.921 99.5293 127.921C98.9639 127.921 98.3613 128.022 97.7213 128.225L96.7373 127.937L97.6732 122.513H103.177V123.193C103.177 123.417 103.105 123.601 102.961 123.745C102.823 123.884 102.588 123.953 102.257 123.953H98.7612L98.2653 126.801Z" fill="#EEF0F1"/>
<path d="M113.379 128.257C113.379 129.26 113.269 130.129 113.05 130.865C112.837 131.601 112.541 132.212 112.162 132.697C111.789 133.177 111.346 133.534 110.834 133.769C110.328 134.004 109.781 134.121 109.194 134.121C108.608 134.121 108.059 134.004 107.547 133.769C107.04 133.534 106.6 133.177 106.227 132.697C105.853 132.212 105.56 131.601 105.346 130.865C105.133 130.129 105.026 129.26 105.026 128.257C105.026 127.254 105.133 126.385 105.346 125.649C105.56 124.908 105.853 124.297 106.227 123.817C106.6 123.332 107.04 122.972 107.547 122.737C108.059 122.502 108.608 122.385 109.194 122.385C109.781 122.385 110.328 122.502 110.834 122.737C111.346 122.972 111.789 123.332 112.162 123.817C112.541 124.297 112.837 124.908 113.05 125.649C113.269 126.385 113.379 127.254 113.379 128.257ZM111.762 128.257C111.762 127.393 111.691 126.67 111.547 126.089C111.408 125.508 111.219 125.041 110.979 124.689C110.744 124.332 110.472 124.078 110.162 123.929C109.853 123.78 109.53 123.705 109.194 123.705C108.858 123.705 108.536 123.78 108.227 123.929C107.917 124.078 107.642 124.332 107.402 124.689C107.168 125.041 106.981 125.508 106.842 126.089C106.704 126.67 106.634 127.393 106.634 128.257C106.634 129.121 106.704 129.844 106.842 130.425C106.981 131.006 107.168 131.473 107.402 131.825C107.642 132.177 107.917 132.428 108.227 132.577C108.536 132.726 108.858 132.801 109.194 132.801C109.53 132.801 109.853 132.726 110.162 132.577C110.472 132.428 110.744 132.177 110.979 131.825C111.219 131.473 111.408 131.006 111.547 130.425C111.691 129.844 111.762 129.121 111.762 128.257Z" fill="#EEF0F1"/>
<path d="M39.1762 48.0288L96.2951 114.938L103.981 107.523L39.1762 48.0288Z" fill="#272525"/>
<path d="M94.6189 113.867C96.8437 116.174 100.517 116.24 102.824 114.015C105.13 111.79 105.196 108.116 102.972 105.81C100.747 103.503 97.0734 103.437 94.7669 105.662C92.4604 107.887 92.3941 111.561 94.6189 113.867Z" fill="#272525"/>
</svg>
