<svg width="249" height="121" viewBox="0 0 249 121" fill="none" xmlns="http://www.w3.org/2000/svg">
<path d="M220.937 117C220.937 103.868 218.348 90.8642 213.32 78.7317C208.291 66.5991 200.919 55.5752 191.627 46.2893C182.335 37.0035 171.303 29.6375 159.162 24.612C147.021 19.5866 134.009 17 120.867 17C107.726 17 94.7134 19.5866 82.5724 24.612C70.4314 29.6375 59.3998 37.0035 50.1075 46.2893C40.8152 55.5752 33.4441 66.5991 28.4152 78.7317C23.3862 90.8642 20.7979 103.868 20.7979 117H60.8256C60.8256 109.121 62.3787 101.319 65.396 94.039C68.4134 86.7595 72.8361 80.1451 78.4115 74.5736C83.9868 69.0021 90.6058 64.5825 97.8904 61.5672C105.175 58.5519 112.983 57 120.867 57C128.752 57 136.56 58.5519 143.844 61.5672C151.129 64.5825 157.748 69.0021 163.323 74.5736C168.899 80.1451 173.321 86.7595 176.339 94.039C179.356 101.319 180.909 109.121 180.909 117H220.937Z" fill="url(#paint0_linear_11601_6483)"/>
<g id="needle">
  <path d="M60.0005 50.0288L117.159 116.938L124.85 109.523L60.0005 50.0288Z" fill="#272525"/>
  <path d="M115.482 115.867C117.708 118.174 121.384 118.24 123.692 116.015C126 113.79 126.066 110.116 123.84 107.81C121.614 105.503 117.938 105.437 115.63 107.662C113.322 109.887 113.255 113.561 115.482 115.867Z" fill="#272525"/>
</g>
<path d="M112.948 9.32V10H109.108V9.32H110.643V4.435C110.643 4.28833 110.648 4.14 110.658 3.99L109.383 5.085C109.34 5.12167 109.297 5.145 109.253 5.155C109.21 5.16167 109.17 5.16167 109.133 5.155C109.097 5.14833 109.062 5.135 109.028 5.115C108.998 5.095 108.975 5.07333 108.958 5.05L108.678 4.665L110.813 2.82H111.538V9.32H112.948ZM115.469 5.54C115.843 5.46 116.186 5.42 116.499 5.42C116.873 5.42 117.203 5.475 117.489 5.585C117.776 5.695 118.014 5.84667 118.204 6.04C118.398 6.23333 118.543 6.46167 118.639 6.725C118.739 6.98833 118.789 7.275 118.789 7.585C118.789 7.965 118.723 8.30833 118.589 8.615C118.459 8.92167 118.278 9.185 118.044 9.405C117.814 9.62167 117.543 9.78833 117.229 9.905C116.916 10.0217 116.578 10.08 116.214 10.08C116.004 10.08 115.803 10.0583 115.609 10.015C115.416 9.975 115.234 9.92 115.064 9.85C114.898 9.78 114.743 9.7 114.599 9.61C114.456 9.52 114.329 9.425 114.219 9.325L114.494 8.945C114.554 8.85833 114.633 8.815 114.729 8.815C114.796 8.815 114.871 8.84167 114.954 8.895C115.038 8.945 115.139 9.00167 115.259 9.065C115.379 9.12833 115.519 9.18667 115.679 9.24C115.843 9.29 116.036 9.315 116.259 9.315C116.509 9.315 116.734 9.275 116.934 9.195C117.134 9.115 117.306 9.00167 117.449 8.855C117.593 8.705 117.703 8.52667 117.779 8.32C117.856 8.11333 117.894 7.88167 117.894 7.625C117.894 7.40167 117.861 7.2 117.794 7.02C117.731 6.84 117.633 6.68667 117.499 6.56C117.369 6.43333 117.206 6.335 117.009 6.265C116.813 6.195 116.583 6.16 116.319 6.16C116.139 6.16 115.951 6.175 115.754 6.205C115.561 6.235 115.363 6.28333 115.159 6.35L114.599 6.185L115.174 2.835H118.569V3.225C118.569 3.35167 118.529 3.45667 118.449 3.54C118.373 3.62 118.239 3.66 118.049 3.66H115.799L115.469 5.54ZM124.96 6.42C124.96 7.04667 124.892 7.59 124.755 8.05C124.622 8.50667 124.438 8.885 124.205 9.185C123.972 9.485 123.695 9.70833 123.375 9.855C123.058 10.0017 122.718 10.075 122.355 10.075C121.988 10.075 121.647 10.0017 121.33 9.855C121.017 9.70833 120.743 9.485 120.51 9.185C120.277 8.885 120.093 8.50667 119.96 8.05C119.827 7.59 119.76 7.04667 119.76 6.42C119.76 5.79333 119.827 5.25 119.96 4.79C120.093 4.33 120.277 3.95 120.51 3.65C120.743 3.34667 121.017 3.12167 121.33 2.975C121.647 2.82833 121.988 2.755 122.355 2.755C122.718 2.755 123.058 2.82833 123.375 2.975C123.695 3.12167 123.972 3.34667 124.205 3.65C124.438 3.95 124.622 4.33 124.755 4.79C124.892 5.25 124.96 5.79333 124.96 6.42ZM124.035 6.42C124.035 5.87333 123.988 5.415 123.895 5.045C123.805 4.67167 123.682 4.37167 123.525 4.145C123.372 3.91833 123.193 3.75667 122.99 3.66C122.787 3.56 122.575 3.51 122.355 3.51C122.135 3.51 121.923 3.56 121.72 3.66C121.517 3.75667 121.338 3.91833 121.185 4.145C121.032 4.37167 120.908 4.67167 120.815 5.045C120.725 5.415 120.68 5.87333 120.68 6.42C120.68 6.96667 120.725 7.425 120.815 7.795C120.908 8.165 121.032 8.46333 121.185 8.69C121.338 8.91667 121.517 9.08 121.72 9.18C121.923 9.27667 122.135 9.325 122.355 9.325C122.575 9.325 122.787 9.27667 122.99 9.18C123.193 9.08 123.372 8.91667 123.525 8.69C123.682 8.46333 123.805 8.165 123.895 7.795C123.988 7.425 124.035 6.96667 124.035 6.42ZM128.871 4.565C128.871 4.845 128.827 5.09667 128.741 5.32C128.654 5.54 128.537 5.72667 128.391 5.88C128.247 6.03 128.079 6.145 127.886 6.225C127.696 6.305 127.494 6.345 127.281 6.345C127.057 6.345 126.849 6.305 126.656 6.225C126.462 6.145 126.294 6.03 126.151 5.88C126.011 5.72667 125.901 5.54 125.821 5.32C125.741 5.09667 125.701 4.845 125.701 4.565C125.701 4.27833 125.741 4.02333 125.821 3.8C125.901 3.57667 126.011 3.38833 126.151 3.235C126.294 3.08167 126.462 2.965 126.656 2.885C126.849 2.805 127.057 2.765 127.281 2.765C127.507 2.765 127.717 2.805 127.911 2.885C128.104 2.965 128.272 3.08167 128.416 3.235C128.559 3.38833 128.671 3.57667 128.751 3.8C128.831 4.02333 128.871 4.27833 128.871 4.565ZM128.181 4.565C128.181 4.345 128.157 4.15833 128.111 4.005C128.064 3.85167 127.999 3.72667 127.916 3.63C127.836 3.53 127.741 3.45833 127.631 3.415C127.521 3.37167 127.404 3.35 127.281 3.35C127.157 3.35 127.042 3.37167 126.936 3.415C126.829 3.45833 126.736 3.53 126.656 3.63C126.576 3.72667 126.512 3.85167 126.466 4.005C126.419 4.15833 126.396 4.345 126.396 4.565C126.396 4.78167 126.419 4.96667 126.466 5.12C126.512 5.27 126.576 5.39333 126.656 5.49C126.736 5.58333 126.829 5.65167 126.936 5.695C127.042 5.735 127.157 5.755 127.281 5.755C127.404 5.755 127.521 5.735 127.631 5.695C127.741 5.65167 127.836 5.58333 127.916 5.49C127.999 5.39333 128.064 5.27 128.111 5.12C128.157 4.96667 128.181 4.78167 128.181 4.565ZM131.406 2.985C131.439 2.945 131.477 2.91 131.521 2.88C131.567 2.85 131.629 2.835 131.706 2.835H132.351L127.111 9.855C127.081 9.89833 127.042 9.93333 126.996 9.96C126.949 9.98667 126.892 10 126.826 10H126.171L131.406 2.985ZM132.836 8.31C132.836 8.59 132.792 8.84 132.706 9.06C132.619 9.28 132.502 9.46667 132.356 9.62C132.212 9.77 132.044 9.885 131.851 9.965C131.661 10.045 131.459 10.085 131.246 10.085C131.019 10.085 130.809 10.045 130.616 9.965C130.426 9.885 130.259 9.77 130.116 9.62C129.976 9.46667 129.866 9.28 129.786 9.06C129.706 8.84 129.666 8.59 129.666 8.31C129.666 8.02333 129.706 7.76833 129.786 7.545C129.866 7.31833 129.976 7.12833 130.116 6.975C130.259 6.82167 130.426 6.705 130.616 6.625C130.809 6.545 131.019 6.505 131.246 6.505C131.469 6.505 131.677 6.545 131.871 6.625C132.067 6.705 132.236 6.82167 132.376 6.975C132.519 7.12833 132.631 7.31833 132.711 7.545C132.794 7.76833 132.836 8.02333 132.836 8.31ZM132.146 8.31C132.146 8.09 132.122 7.90333 132.076 7.75C132.029 7.59333 131.964 7.46667 131.881 7.37C131.801 7.27333 131.706 7.20333 131.596 7.16C131.486 7.11667 131.369 7.095 131.246 7.095C131.122 7.095 131.006 7.11667 130.896 7.16C130.789 7.20333 130.696 7.27333 130.616 7.37C130.536 7.46667 130.472 7.59333 130.426 7.75C130.382 7.90333 130.361 8.09 130.361 8.31C130.361 8.52667 130.382 8.71 130.426 8.86C130.472 9.01 130.536 9.13333 130.616 9.23C130.696 9.32333 130.789 9.39167 130.896 9.435C131.006 9.475 131.122 9.495 131.246 9.495C131.369 9.495 131.486 9.475 131.596 9.435C131.706 9.39167 131.801 9.32333 131.881 9.23C131.964 9.13333 132.029 9.01 132.076 8.86C132.122 8.71 132.146 8.52667 132.146 8.31Z" fill="currentColor"/>
<path d="M223.588 111.775C223.635 111.448 223.725 111.16 223.858 110.91C223.992 110.657 224.16 110.445 224.363 110.275C224.57 110.105 224.805 109.977 225.068 109.89C225.335 109.8 225.622 109.755 225.928 109.755C226.232 109.755 226.512 109.798 226.768 109.885C227.025 109.972 227.245 110.095 227.428 110.255C227.615 110.415 227.76 110.608 227.863 110.835C227.967 111.062 228.018 111.313 228.018 111.59C228.018 111.817 227.988 112.02 227.928 112.2C227.872 112.377 227.788 112.532 227.678 112.665C227.572 112.798 227.442 112.912 227.288 113.005C227.135 113.098 226.963 113.175 226.773 113.235C227.24 113.355 227.59 113.562 227.823 113.855C228.06 114.145 228.178 114.508 228.178 114.945C228.178 115.275 228.115 115.572 227.988 115.835C227.865 116.098 227.695 116.323 227.478 116.51C227.262 116.693 227.008 116.835 226.718 116.935C226.432 117.032 226.123 117.08 225.793 117.08C225.413 117.08 225.088 117.033 224.818 116.94C224.548 116.843 224.32 116.712 224.133 116.545C223.947 116.378 223.793 116.182 223.673 115.955C223.553 115.725 223.452 115.477 223.368 115.21L223.753 115.05C223.853 115.007 223.95 114.995 224.043 115.015C224.14 115.035 224.21 115.09 224.253 115.18C224.297 115.273 224.35 115.385 224.413 115.515C224.48 115.645 224.57 115.77 224.683 115.89C224.797 116.01 224.94 116.112 225.113 116.195C225.29 116.278 225.513 116.32 225.783 116.32C226.033 116.32 226.252 116.28 226.438 116.2C226.628 116.117 226.785 116.01 226.908 115.88C227.035 115.75 227.13 115.605 227.193 115.445C227.257 115.285 227.288 115.127 227.288 114.97C227.288 114.777 227.263 114.6 227.213 114.44C227.163 114.28 227.07 114.142 226.933 114.025C226.797 113.908 226.608 113.817 226.368 113.75C226.132 113.683 225.827 113.65 225.453 113.65V113.005C225.76 113.002 226.02 112.968 226.233 112.905C226.45 112.842 226.625 112.755 226.758 112.645C226.895 112.535 226.993 112.403 227.053 112.25C227.117 112.097 227.148 111.927 227.148 111.74C227.148 111.533 227.115 111.353 227.048 111.2C226.985 111.047 226.897 110.92 226.783 110.82C226.67 110.72 226.535 110.645 226.378 110.595C226.225 110.545 226.058 110.52 225.878 110.52C225.698 110.52 225.53 110.547 225.373 110.6C225.22 110.653 225.083 110.728 224.963 110.825C224.847 110.918 224.748 111.03 224.668 111.16C224.588 111.29 224.532 111.433 224.498 111.59C224.455 111.707 224.4 111.785 224.333 111.825C224.27 111.862 224.177 111.872 224.053 111.855L223.588 111.775ZM234.239 113.42C234.239 114.047 234.171 114.59 234.034 115.05C233.901 115.507 233.718 115.885 233.484 116.185C233.251 116.485 232.974 116.708 232.654 116.855C232.338 117.002 231.998 117.075 231.634 117.075C231.268 117.075 230.926 117.002 230.609 116.855C230.296 116.708 230.023 116.485 229.789 116.185C229.556 115.885 229.373 115.507 229.239 115.05C229.106 114.59 229.039 114.047 229.039 113.42C229.039 112.793 229.106 112.25 229.239 111.79C229.373 111.33 229.556 110.95 229.789 110.65C230.023 110.347 230.296 110.122 230.609 109.975C230.926 109.828 231.268 109.755 231.634 109.755C231.998 109.755 232.338 109.828 232.654 109.975C232.974 110.122 233.251 110.347 233.484 110.65C233.718 110.95 233.901 111.33 234.034 111.79C234.171 112.25 234.239 112.793 234.239 113.42ZM233.314 113.42C233.314 112.873 233.268 112.415 233.174 112.045C233.084 111.672 232.961 111.372 232.804 111.145C232.651 110.918 232.473 110.757 232.269 110.66C232.066 110.56 231.854 110.51 231.634 110.51C231.414 110.51 231.203 110.56 230.999 110.66C230.796 110.757 230.618 110.918 230.464 111.145C230.311 111.372 230.188 111.672 230.094 112.045C230.004 112.415 229.959 112.873 229.959 113.42C229.959 113.967 230.004 114.425 230.094 114.795C230.188 115.165 230.311 115.463 230.464 115.69C230.618 115.917 230.796 116.08 230.999 116.18C231.203 116.277 231.414 116.325 231.634 116.325C231.854 116.325 232.066 116.277 232.269 116.18C232.473 116.08 232.651 115.917 232.804 115.69C232.961 115.463 233.084 115.165 233.174 114.795C233.268 114.425 233.314 113.967 233.314 113.42ZM240.04 113.42C240.04 114.047 239.972 114.59 239.835 115.05C239.702 115.507 239.518 115.885 239.285 116.185C239.052 116.485 238.775 116.708 238.455 116.855C238.138 117.002 237.798 117.075 237.435 117.075C237.068 117.075 236.727 117.002 236.41 116.855C236.097 116.708 235.823 116.485 235.59 116.185C235.357 115.885 235.173 115.507 235.04 115.05C234.907 114.59 234.84 114.047 234.84 113.42C234.84 112.793 234.907 112.25 235.04 111.79C235.173 111.33 235.357 110.95 235.59 110.65C235.823 110.347 236.097 110.122 236.41 109.975C236.727 109.828 237.068 109.755 237.435 109.755C237.798 109.755 238.138 109.828 238.455 109.975C238.775 110.122 239.052 110.347 239.285 110.65C239.518 110.95 239.702 111.33 239.835 111.79C239.972 112.25 240.04 112.793 240.04 113.42ZM239.115 113.42C239.115 112.873 239.068 112.415 238.975 112.045C238.885 111.672 238.762 111.372 238.605 111.145C238.452 110.918 238.273 110.757 238.07 110.66C237.867 110.56 237.655 110.51 237.435 110.51C237.215 110.51 237.003 110.56 236.8 110.66C236.597 110.757 236.418 110.918 236.265 111.145C236.112 111.372 235.988 111.672 235.895 112.045C235.805 112.415 235.76 112.873 235.76 113.42C235.76 113.967 235.805 114.425 235.895 114.795C235.988 115.165 236.112 115.463 236.265 115.69C236.418 115.917 236.597 116.08 236.8 116.18C237.003 116.277 237.215 116.325 237.435 116.325C237.655 116.325 237.867 116.277 238.07 116.18C238.273 116.08 238.452 115.917 238.605 115.69C238.762 115.463 238.885 115.165 238.975 114.795C239.068 114.425 239.115 113.967 239.115 113.42ZM243.951 111.565C243.951 111.845 243.907 112.097 243.821 112.32C243.734 112.54 243.617 112.727 243.471 112.88C243.327 113.03 243.159 113.145 242.966 113.225C242.776 113.305 242.574 113.345 242.361 113.345C242.137 113.345 241.929 113.305 241.736 113.225C241.542 113.145 241.374 113.03 241.231 112.88C241.091 112.727 240.981 112.54 240.901 112.32C240.821 112.097 240.781 111.845 240.781 111.565C240.781 111.278 240.821 111.023 240.901 110.8C240.981 110.577 241.091 110.388 241.231 110.235C241.374 110.082 241.542 109.965 241.736 109.885C241.929 109.805 242.137 109.765 242.361 109.765C242.587 109.765 242.797 109.805 242.991 109.885C243.184 109.965 243.352 110.082 243.496 110.235C243.639 110.388 243.751 110.577 243.831 110.8C243.911 111.023 243.951 111.278 243.951 111.565ZM243.261 111.565C243.261 111.345 243.237 111.158 243.191 111.005C243.144 110.852 243.079 110.727 242.996 110.63C242.916 110.53 242.821 110.458 242.711 110.415C242.601 110.372 242.484 110.35 242.361 110.35C242.237 110.35 242.122 110.372 242.016 110.415C241.909 110.458 241.816 110.53 241.736 110.63C241.656 110.727 241.592 110.852 241.546 111.005C241.499 111.158 241.476 111.345 241.476 111.565C241.476 111.782 241.499 111.967 241.546 112.12C241.592 112.27 241.656 112.393 241.736 112.49C241.816 112.583 241.909 112.652 242.016 112.695C242.122 112.735 242.237 112.755 242.361 112.755C242.484 112.755 242.601 112.735 242.711 112.695C242.821 112.652 242.916 112.583 242.996 112.49C243.079 112.393 243.144 112.27 243.191 112.12C243.237 111.967 243.261 111.782 243.261 111.565ZM246.486 109.985C246.519 109.945 246.557 109.91 246.601 109.88C246.647 109.85 246.709 109.835 246.786 109.835H247.431L242.191 116.855C242.161 116.898 242.122 116.933 242.076 116.96C242.029 116.987 241.972 117 241.906 117H241.251L246.486 109.985ZM247.916 115.31C247.916 115.59 247.872 115.84 247.786 116.06C247.699 116.28 247.582 116.467 247.436 116.62C247.292 116.77 247.124 116.885 246.931 116.965C246.741 117.045 246.539 117.085 246.326 117.085C246.099 117.085 245.889 117.045 245.696 116.965C245.506 116.885 245.339 116.77 245.196 116.62C245.056 116.467 244.946 116.28 244.866 116.06C244.786 115.84 244.746 115.59 244.746 115.31C244.746 115.023 244.786 114.768 244.866 114.545C244.946 114.318 245.056 114.128 245.196 113.975C245.339 113.822 245.506 113.705 245.696 113.625C245.889 113.545 246.099 113.505 246.326 113.505C246.549 113.505 246.757 113.545 246.951 113.625C247.147 113.705 247.316 113.822 247.456 113.975C247.599 114.128 247.711 114.318 247.791 114.545C247.874 114.768 247.916 115.023 247.916 115.31ZM247.226 115.31C247.226 115.09 247.202 114.903 247.156 114.75C247.109 114.593 247.044 114.467 246.961 114.37C246.881 114.273 246.786 114.203 246.676 114.16C246.566 114.117 246.449 114.095 246.326 114.095C246.202 114.095 246.086 114.117 245.976 114.16C245.869 114.203 245.776 114.273 245.696 114.37C245.616 114.467 245.552 114.593 245.506 114.75C245.462 114.903 245.441 115.09 245.441 115.31C245.441 115.527 245.462 115.71 245.506 115.86C245.552 116.01 245.616 116.133 245.696 116.23C245.776 116.323 245.869 116.392 245.976 116.435C246.086 116.475 246.202 116.495 246.326 116.495C246.449 116.495 246.566 116.475 246.676 116.435C246.786 116.392 246.881 116.323 246.961 116.23C247.044 116.133 247.109 116.01 247.156 115.86C247.202 115.71 247.226 115.527 247.226 115.31Z" fill="currentColor"/>
<path d="M6.47555 111.42C6.47555 112.047 6.40722 112.59 6.27055 113.05C6.13722 113.507 5.95388 113.885 5.72055 114.185C5.48722 114.485 5.21055 114.708 4.89055 114.855C4.57388 115.002 4.23388 115.075 3.87055 115.075C3.50388 115.075 3.16222 115.002 2.84555 114.855C2.53222 114.708 2.25888 114.485 2.02555 114.185C1.79222 113.885 1.60888 113.507 1.47555 113.05C1.34222 112.59 1.27555 112.047 1.27555 111.42C1.27555 110.793 1.34222 110.25 1.47555 109.79C1.60888 109.33 1.79222 108.95 2.02555 108.65C2.25888 108.347 2.53222 108.122 2.84555 107.975C3.16222 107.828 3.50388 107.755 3.87055 107.755C4.23388 107.755 4.57388 107.828 4.89055 107.975C5.21055 108.122 5.48722 108.347 5.72055 108.65C5.95388 108.95 6.13722 109.33 6.27055 109.79C6.40722 110.25 6.47555 110.793 6.47555 111.42ZM5.55055 111.42C5.55055 110.873 5.50388 110.415 5.41055 110.045C5.32055 109.672 5.19722 109.372 5.04055 109.145C4.88722 108.918 4.70888 108.757 4.50555 108.66C4.30222 108.56 4.09055 108.51 3.87055 108.51C3.65055 108.51 3.43888 108.56 3.23555 108.66C3.03222 108.757 2.85388 108.918 2.70055 109.145C2.54722 109.372 2.42388 109.672 2.33055 110.045C2.24055 110.415 2.19555 110.873 2.19555 111.42C2.19555 111.967 2.24055 112.425 2.33055 112.795C2.42388 113.165 2.54722 113.463 2.70055 113.69C2.85388 113.917 3.03222 114.08 3.23555 114.18C3.43888 114.277 3.65055 114.325 3.87055 114.325C4.09055 114.325 4.30222 114.277 4.50555 114.18C4.70888 114.08 4.88722 113.917 5.04055 113.69C5.19722 113.463 5.32055 113.165 5.41055 112.795C5.50388 112.425 5.55055 111.967 5.55055 111.42ZM10.3863 109.565C10.3863 109.845 10.343 110.097 10.2563 110.32C10.1697 110.54 10.053 110.727 9.90633 110.88C9.763 111.03 9.59466 111.145 9.40133 111.225C9.21133 111.305 9.00966 111.345 8.79633 111.345C8.573 111.345 8.36466 111.305 8.17133 111.225C7.978 111.145 7.80966 111.03 7.66633 110.88C7.52633 110.727 7.41633 110.54 7.33633 110.32C7.25633 110.097 7.21633 109.845 7.21633 109.565C7.21633 109.278 7.25633 109.023 7.33633 108.8C7.41633 108.577 7.52633 108.388 7.66633 108.235C7.80966 108.082 7.978 107.965 8.17133 107.885C8.36466 107.805 8.573 107.765 8.79633 107.765C9.023 107.765 9.233 107.805 9.42633 107.885C9.61966 107.965 9.788 108.082 9.93133 108.235C10.0747 108.388 10.1863 108.577 10.2663 108.8C10.3463 109.023 10.3863 109.278 10.3863 109.565ZM9.69633 109.565C9.69633 109.345 9.673 109.158 9.62633 109.005C9.57966 108.852 9.51466 108.727 9.43133 108.63C9.35133 108.53 9.25633 108.458 9.14633 108.415C9.03633 108.372 8.91966 108.35 8.79633 108.35C8.673 108.35 8.558 108.372 8.45133 108.415C8.34466 108.458 8.25133 108.53 8.17133 108.63C8.09133 108.727 8.028 108.852 7.98133 109.005C7.93466 109.158 7.91133 109.345 7.91133 109.565C7.91133 109.782 7.93466 109.967 7.98133 110.12C8.028 110.27 8.09133 110.393 8.17133 110.49C8.25133 110.583 8.34466 110.652 8.45133 110.695C8.558 110.735 8.673 110.755 8.79633 110.755C8.91966 110.755 9.03633 110.735 9.14633 110.695C9.25633 110.652 9.35133 110.583 9.43133 110.49C9.51466 110.393 9.57966 110.27 9.62633 110.12C9.673 109.967 9.69633 109.782 9.69633 109.565ZM12.9213 107.985C12.9547 107.945 12.993 107.91 13.0363 107.88C13.083 107.85 13.1447 107.835 13.2213 107.835H13.8663L8.62633 114.855C8.59633 114.898 8.558 114.933 8.51133 114.96C8.46466 114.987 8.408 115 8.34133 115H7.68633L12.9213 107.985ZM14.3513 113.31C14.3513 113.59 14.308 113.84 14.2213 114.06C14.1347 114.28 14.018 114.467 13.8713 114.62C13.728 114.77 13.5597 114.885 13.3663 114.965C13.1763 115.045 12.9747 115.085 12.7613 115.085C12.5347 115.085 12.3247 115.045 12.1313 114.965C11.9413 114.885 11.7747 114.77 11.6313 114.62C11.4913 114.467 11.3813 114.28 11.3013 114.06C11.2213 113.84 11.1813 113.59 11.1813 113.31C11.1813 113.023 11.2213 112.768 11.3013 112.545C11.3813 112.318 11.4913 112.128 11.6313 111.975C11.7747 111.822 11.9413 111.705 12.1313 111.625C12.3247 111.545 12.5347 111.505 12.7613 111.505C12.9847 111.505 13.193 111.545 13.3863 111.625C13.583 111.705 13.7513 111.822 13.8913 111.975C14.0347 112.128 14.1463 112.318 14.2263 112.545C14.3097 112.768 14.3513 113.023 14.3513 113.31ZM13.6613 113.31C13.6613 113.09 13.638 112.903 13.5913 112.75C13.5447 112.593 13.4797 112.467 13.3963 112.37C13.3163 112.273 13.2213 112.203 13.1113 112.16C13.0013 112.117 12.8847 112.095 12.7613 112.095C12.638 112.095 12.5213 112.117 12.4113 112.16C12.3047 112.203 12.2113 112.273 12.1313 112.37C12.0513 112.467 11.988 112.593 11.9413 112.75C11.898 112.903 11.8763 113.09 11.8763 113.31C11.8763 113.527 11.898 113.71 11.9413 113.86C11.988 114.01 12.0513 114.133 12.1313 114.23C12.2113 114.323 12.3047 114.392 12.4113 114.435C12.5213 114.475 12.638 114.495 12.7613 114.495C12.8847 114.495 13.0013 114.475 13.1113 114.435C13.2213 114.392 13.3163 114.323 13.3963 114.23C13.4797 114.133 13.5447 114.01 13.5913 113.86C13.638 113.71 13.6613 113.527 13.6613 113.31Z" fill="currentColor"/>
<defs>
<linearGradient id="paint0_linear_11601_6483" x1="43.8138" y1="117" x2="203.925" y2="117" gradientUnits="userSpaceOnUse">
<stop stop-color="#9AF3DE"/>
<stop offset="1" stop-color="#10BDBD"/>
</linearGradient>
</defs>
</svg>
