<svg width="40" height="41" viewBox="0 0 40 41" fill="none" xmlns="http://www.w3.org/2000/svg">
<circle opacity="0.2" cx="20" cy="20.668" r="20" fill="currentColor"/>
<path d="M18.1852 12.9426C17.1993 11.9566 15.5993 11.9566 14.6134 12.9426L9.74336 17.8125C8.75742 18.7984 8.75742 20.3983 9.74336 21.3842L14.6134 26.2542C15.5993 27.2401 17.1993 27.2401 18.1852 26.2542L23.0553 21.3842C24.0412 20.3983 24.0412 18.7984 23.0553 17.8125L18.1852 12.9426ZM15.5572 19.5984C15.5572 19.375 15.646 19.1609 15.8039 19.0029C15.9618 18.845 16.176 18.7563 16.3993 18.7563C16.6227 18.7563 16.8368 18.845 16.9948 19.0029C17.1527 19.1609 17.2414 19.375 17.2414 19.5984C17.2414 19.8217 17.1527 20.0359 16.9948 20.1938C16.8368 20.3517 16.6227 20.4404 16.3993 20.4404C16.176 20.4404 15.9618 20.3517 15.8039 20.1938C15.646 20.0359 15.5572 19.8217 15.5572 19.5984ZM11.9082 18.7563C12.1315 18.7563 12.3457 18.845 12.5037 19.0029C12.6616 19.1609 12.7503 19.375 12.7503 19.5984C12.7503 19.8217 12.6616 20.0359 12.5037 20.1938C12.3457 20.3517 12.1315 20.4404 11.9082 20.4404C11.6849 20.4404 11.4707 20.3517 11.3128 20.1938C11.1549 20.0359 11.0661 19.8217 11.0661 19.5984C11.0661 19.375 11.1549 19.1609 11.3128 19.0029C11.4707 18.845 11.6849 18.7563 11.9082 18.7563ZM16.3993 24.9314C16.176 24.9314 15.9618 24.8427 15.8039 24.6848C15.646 24.5269 15.5572 24.3127 15.5572 24.0894C15.5572 23.866 15.646 23.6519 15.8039 23.4939C15.9618 23.336 16.176 23.2473 16.3993 23.2473C16.6227 23.2473 16.8368 23.336 16.9948 23.4939C17.1527 23.6519 17.2414 23.866 17.2414 24.0894C17.2414 24.3127 17.1527 24.5269 16.9948 24.6848C16.8368 24.8427 16.6227 24.9314 16.3993 24.9314ZM20.8904 18.7563C21.1138 18.7563 21.328 18.845 21.4859 19.0029C21.6438 19.1609 21.7325 19.375 21.7325 19.5984C21.7325 19.8217 21.6438 20.0359 21.4859 20.1938C21.328 20.3517 21.1138 20.4404 20.8904 20.4404C20.6671 20.4404 20.4529 20.3517 20.295 20.1938C20.1371 20.0359 20.0483 19.8217 20.0483 19.5984C20.0483 19.375 20.1371 19.1609 20.295 19.0029C20.4529 18.845 20.6671 18.7563 20.8904 18.7563ZM16.3993 15.9494C16.176 15.9494 15.9618 15.8607 15.8039 15.7028C15.646 15.5449 15.5572 15.3307 15.5572 15.1074C15.5572 14.884 15.646 14.6699 15.8039 14.5119C15.9618 14.354 16.176 14.2653 16.3993 14.2653C16.6227 14.2653 16.8368 14.354 16.9948 14.5119C17.1527 14.6699 17.2414 14.884 17.2414 15.1074C17.2414 15.3307 17.1527 15.5449 16.9948 15.7028C16.8368 15.8607 16.6227 15.9494 16.3993 15.9494ZM19.7677 27.4576C19.7677 28.6962 20.7746 29.7031 22.0132 29.7031H28.7499C29.9884 29.7031 30.9954 28.6962 30.9954 27.4576V20.7211C30.9954 19.4826 29.9884 18.4756 28.7499 18.4756H24.7395C25.1465 19.7387 24.8482 21.1772 23.8482 22.1772L19.7677 26.2577V27.4576ZM25.3815 23.2473C25.6049 23.2473 25.8191 23.336 25.977 23.4939C26.1349 23.6519 26.2236 23.866 26.2236 24.0894C26.2236 24.3127 26.1349 24.5269 25.977 24.6848C25.8191 24.8427 25.6049 24.9314 25.3815 24.9314C25.1582 24.9314 24.944 24.8427 24.7861 24.6848C24.6282 24.5269 24.5395 24.3127 24.5395 24.0894C24.5395 23.866 24.6282 23.6519 24.7861 23.4939C24.944 23.336 25.1582 23.2473 25.3815 23.2473Z" fill="currentColor"/>
</svg>
