<svg width="380" height="40" viewBox="0 0 380 40" fill="none" xmlns="http://www.w3.org/2000/svg">
<path d="M50.0564 10.8496H45.0293V28.1065H65.0284V25.5919H50.0564V10.8496Z" fill="white"/>
<path d="M88.8006 13.366C88.3435 12.7952 87.6569 12.2223 86.8588 11.8812C86.0585 11.5379 85.2582 11.1946 84.3442 11.0809L83.2006 10.9672L82.0569 10.8535H77.1435C76.4569 10.8535 75.7725 10.8535 75.0859 10.9672C74.8563 10.9672 74.5152 10.9672 74.2856 11.0809C74.056 11.1946 73.7149 11.1946 73.3716 11.4242C72.4576 11.7675 71.6572 12.2245 71.0865 12.6815C70.7432 13.0248 70.2862 13.5955 69.9429 14.2821L69.7133 15.0825L69.5996 15.7691V28.1126H74.6289V20.6846H84.5716V28.1126H89.6009V15.3121C89.6009 15.0825 89.6009 14.855 89.4872 14.5117C89.3735 14.0547 89.1439 13.7114 88.8006 13.3681V13.366ZM84.5716 18.2793H74.5152V15.8784L74.6289 15.5351C74.6289 15.1918 74.7426 14.9644 74.8585 14.7348C74.9722 14.5052 75.0881 14.2778 75.2018 14.1641L75.6588 13.8208C76.0021 13.5912 76.4591 13.4775 77.1435 13.4775H82.0569L82.6276 13.5912C82.8572 13.5912 83.1984 13.7049 83.428 13.9345C83.6576 14.0482 83.885 14.2778 84.2283 14.7348C84.342 15.0781 84.4579 15.4214 84.5716 15.9921V18.2771V18.2793Z" fill="white"/>
<path d="M113.027 13.366C112.57 12.7952 111.883 12.2223 111.083 11.8812C110.282 11.5379 109.482 11.1946 108.568 11.0809L107.425 10.9672L106.51 10.8535H93.9395V28.1104H106.397C107.882 28.1104 109.025 27.9967 110.053 27.6534C110.853 27.3101 111.653 26.8531 112.338 26.3961C112.568 26.1665 112.909 25.8254 113.025 25.5958C113.254 25.3662 113.368 25.0251 113.482 24.7955L113.711 23.9952L113.825 23.3086V15.3077C113.825 15.0781 113.825 14.8507 113.711 14.5074C113.597 14.0504 113.368 13.7071 113.025 13.3638L113.027 13.366ZM109.027 23.3086L108.914 23.6519L108.8 24.1089C108.686 24.2226 108.686 24.4522 108.57 24.5659C108.457 24.7955 108.227 25.1366 107.884 25.3662C107.77 25.4799 107.54 25.5958 107.313 25.7095C107.083 25.8232 106.742 25.8232 106.513 25.8232H98.9709V13.366H106.513L107.083 13.4797C107.313 13.4797 107.654 13.5934 107.884 13.823C108.113 13.9367 108.341 14.1663 108.684 14.6233C108.798 14.9666 108.914 15.3099 109.027 15.8806V23.3086Z" fill="white"/>
<path d="M137.601 13.366C137.144 12.7952 136.457 12.2223 135.659 11.8812C134.859 11.5379 134.058 11.1946 133.144 11.0809L132.001 10.9672L130.973 10.8535H118.516V28.1104H130.973C132.458 28.1104 133.601 27.9967 134.629 27.6534C135.429 27.3101 136.23 26.8531 136.914 26.3961C137.144 26.1665 137.485 25.8254 137.601 25.5958C137.83 25.3662 137.944 25.0251 138.058 24.7955L138.287 23.9952L138.401 23.3086V15.3077C138.401 15.0781 138.401 14.8507 138.287 14.5074C138.174 14.0504 137.944 13.7071 137.601 13.3638V13.366ZM133.372 23.6519L133.258 24.1089C133.144 24.2226 133.144 24.4522 133.028 24.5659C132.915 24.7955 132.685 25.1366 132.342 25.3662C132.228 25.4799 131.998 25.5958 131.771 25.7095C131.541 25.8232 131.2 25.8232 130.971 25.8232H123.429V13.366H130.971L131.541 13.4797C131.771 13.4797 132.112 13.5934 132.342 13.823C132.571 13.9367 132.799 14.1663 133.142 14.6233C133.256 14.9666 133.372 15.3099 133.485 15.8806V23.3086L133.372 23.6519Z" fill="white"/>
<path d="M149.028 25.3647L148.228 24.5644L147.998 23.6504V20.7924H155.54V18.2778H147.998V15.8769C147.998 15.4199 148.112 14.9629 148.228 14.6196L148.685 14.0489L149.142 13.7056C149.372 13.5919 149.599 13.476 149.942 13.476L150.513 13.3623H162.97V10.8477H150.513C149.826 10.8477 149.028 10.9614 148.228 11.0773C147.885 11.0773 147.657 11.191 147.541 11.191C147.312 11.3047 147.084 11.3047 146.971 11.4206L145.713 11.8776C144.913 12.2209 144.229 12.7916 143.656 13.4782C143.426 13.8215 143.199 14.1648 143.085 14.6218C142.971 15.0788 142.855 15.4221 142.855 15.8791V23.3071L142.969 24.2211C142.969 24.4507 143.083 24.6781 143.199 24.7918L143.312 25.1351L143.883 25.9354L144.454 26.5061C144.911 26.9631 145.711 27.3064 146.739 27.7634C147.767 28.1067 149.024 28.2204 150.511 28.2204H162.968V25.7058H150.511C149.94 25.7058 149.483 25.5921 149.026 25.3625L149.028 25.3647Z" fill="white"/>
<path d="M186.743 18.0519C187.2 17.4812 187.429 16.6809 187.429 15.7669V15.1962C187.429 14.9666 187.429 14.7392 187.316 14.3959C187.202 13.9388 186.972 13.5955 186.629 13.2522C186.172 12.6815 185.485 12.1086 184.687 11.7675C183.889 11.4264 183.087 11.0809 182.173 10.9672L181.029 10.8535H174.972C174.285 10.8535 173.487 10.9672 172.687 11.0831C172.344 11.0831 172.116 11.1968 172 11.1968C171.771 11.3105 171.543 11.3105 171.43 11.4264L170.172 11.8834C169.372 12.2267 168.688 12.7974 168.115 13.484C167.885 13.8273 167.658 14.1706 167.544 14.6276C167.43 15.0846 167.314 15.4279 167.314 15.885V28.2285H172.344V20.8005H179.885L180.456 20.9142C180.686 20.9142 181.027 21.0279 181.257 21.2575C181.6 21.3712 181.827 21.7145 182.057 22.0578C182.171 22.4011 182.286 22.7444 182.4 23.3151V28.2285H187.429V23.3151C187.429 22.8581 187.429 22.4011 187.316 22.1715C187.316 21.9419 187.202 21.7145 187.086 21.4849C186.972 21.2553 186.857 21.1416 186.743 21.0279C186.629 20.7983 186.4 20.4572 186.056 20.2276C185.827 19.998 185.485 19.7706 185.028 19.541C185.599 19.1977 186.172 18.7407 186.743 18.0563V18.0519ZM182.171 17.1379C181.941 17.3675 181.714 17.5949 181.37 17.8245C181.027 17.9382 180.8 18.0541 180.456 18.1678L179.885 18.2815H172.344V15.8806H172.457C172.457 15.4236 172.571 14.9666 172.687 14.6233L173.144 14.0526L173.601 13.7093C173.831 13.5955 174.058 13.4797 174.401 13.4797L174.972 13.366H179.885L180.456 13.4797C180.686 13.4797 181.027 13.5934 181.257 13.823C181.486 13.9367 181.714 14.1663 182.057 14.6233C182.171 14.9666 182.286 15.3099 182.4 15.8806C182.4 16.3376 182.286 16.7946 182.171 17.1379Z" fill="white"/>
<path d="M17.4866 0L0 9.9426V29.9415L5.8296 33.2564V26.6288L5.88645 26.596L17.5435 33.2236L17.4866 33.2564V40L35.0869 29.9437V9.89231L17.4866 0.00218626V0ZM29.2573 19.8852L28.457 19.4282L17.4866 13.1919V6.62767L17.5435 6.59487L29.2573 13.2553V19.883V19.8852ZM11.657 16.6862L15.3306 18.6694L23.314 23.3772V29.8781L11.657 23.2504V16.6862Z" fill="white"/>
<path d="M220.238 8.41183L219.65 7.60309L218.033 8.77944L218.621 9.58817L220.238 8.41183ZM234.621 31.5882C234.946 32.0348 235.571 32.1336 236.018 31.8087C236.465 31.4839 236.563 30.8585 236.238 30.4118L234.621 31.5882ZM218.621 9.58817L234.621 31.5882L236.238 30.4118L220.238 8.41183L218.621 9.58817Z" fill="white"/>
<path d="M234.621 8.41183C234.946 7.96518 235.571 7.86643 236.018 8.19126C236.465 8.5161 236.563 9.14152 236.238 9.58817L234.621 8.41183ZM220.238 31.5882L219.65 32.3969L218.033 31.2206L218.621 30.4118L220.238 31.5882ZM236.238 9.58817L220.238 31.5882L218.621 30.4118L234.621 8.41183L236.238 9.58817Z" fill="white"/>
<g clip-path="url(#clip0_11825_27768)">
<path fill-rule="evenodd" clip-rule="evenodd" d="M267.43 29.7038H282.76V24.1484H267.43V29.7038Z" fill="white"/>
<path fill-rule="evenodd" clip-rule="evenodd" d="M268.281 14.8895H280.269V9.33398H268.281V14.8895Z" fill="white"/>
<path fill-rule="evenodd" clip-rule="evenodd" d="M270.77 25.6239H279.414V12.3184H270.77V25.6239Z" fill="white"/>
<path fill-rule="evenodd" clip-rule="evenodd" d="M287.856 17.3443L280.254 9.33398L278.047 17.3584L284.967 24.185H290.746L297.666 17.3584L295.404 9.33398L287.856 17.3443Z" fill="white"/>
<path fill-rule="evenodd" clip-rule="evenodd" d="M292.957 29.7039H308.287V24.1484H292.957V29.7039Z" fill="white"/>
<path fill-rule="evenodd" clip-rule="evenodd" d="M295.398 14.8895H307.432V9.33398H295.398V14.8895Z" fill="white"/>
<path fill-rule="evenodd" clip-rule="evenodd" d="M296.301 25.6239H304.945V12.3184H296.301V25.6239Z" fill="white"/>
<path fill-rule="evenodd" clip-rule="evenodd" d="M349.82 14.8894H366.294V9.33398H349.82V14.8894Z" fill="white"/>
<path fill-rule="evenodd" clip-rule="evenodd" d="M343.184 29.7035H358.514V24.1484H343.184V29.7035Z" fill="white"/>
<path fill-rule="evenodd" clip-rule="evenodd" d="M361.77 29.7034H379.43V24.1484H361.77V29.7034Z" fill="white"/>
<path fill-rule="evenodd" clip-rule="evenodd" d="M366.291 9.33398L361.128 14.5636L354.332 14.607L346.719 26.0472L354.355 26.1853L354.747 24.4602L356.031 22.5455L364.44 22.5435L366.512 26.1253L376.218 26.4137L366.291 9.33398ZM360.486 15.7508L362.23 18.7448L358.501 18.7585L360.486 15.7508Z" fill="white"/>
<path fill-rule="evenodd" clip-rule="evenodd" d="M332.629 24.1684H341.277V9.33398H332.629V24.1684Z" fill="white"/>
<path fill-rule="evenodd" clip-rule="evenodd" d="M312.273 9.33398V24.2205L320.918 29.7773H332.621V24.1682H320.921V9.33398H312.273Z" fill="white"/>
</g>
<defs>
<clipPath id="clip0_11825_27768">
<rect width="112" height="21.3333" fill="white" transform="translate(267.43 9.33398)"/>
</clipPath>
</defs>
</svg>
