<svg width="16" height="16" viewBox="0 0 16 16" fill="none" xmlns="http://www.w3.org/2000/svg">
<g clip-path="url(#clip0_11763_24009)">
<mask id="mask0_11763_24009" style="mask-type:luminance" maskUnits="userSpaceOnUse" x="0" y="0" width="16" height="16">
<path d="M8.00056 15.9602C12.3976 15.9602 15.9621 12.3956 15.9621 7.99863C15.9621 3.6016 12.3976 0.0371094 8.00056 0.0371094C3.60355 0.0371094 0.0390625 3.6016 0.0390625 7.99863C0.0390625 12.3956 3.60355 15.9602 8.00056 15.9602Z" fill="white"/>
</mask>
<g mask="url(#mask0_11763_24009)">
<path d="M16.7159 -0.716797H-0.714844V16.7139H16.7159V-0.716797Z" fill="url(#paint0_linear_11763_24009)"/>
</g>
<path d="M10.3026 9.71838L12.5551 8.41775C12.6744 8.34886 12.7482 8.22073 12.7482 8.08295V5.48196C12.7482 5.34445 12.6741 5.21604 12.5551 5.14713L10.3026 3.84649C10.1833 3.77757 10.0354 3.7779 9.91609 3.84649L7.66359 5.14713C7.54428 5.21604 7.47051 5.34445 7.47051 5.48196V10.1303L5.89095 11.0421L4.31139 10.1303V8.30625L5.89095 7.39438L6.93285 7.99578V6.77222L6.08404 6.28231C6.02553 6.2485 5.95856 6.23062 5.89062 6.23062C5.82268 6.23062 5.75571 6.2485 5.69753 6.28231L3.44505 7.58295C3.32574 7.65184 3.25195 7.77997 3.25195 7.91781V10.5188C3.25195 10.6562 3.32607 10.7847 3.44505 10.8536L5.69753 12.1542C5.81651 12.2228 5.96474 12.2228 6.08404 12.1542L8.33654 10.8539C8.45584 10.785 8.52962 10.6566 8.52962 10.5191V5.87076L8.55825 5.8545L10.1092 4.95891L11.6887 5.87076V7.69476L10.1092 8.60664L9.06892 8.00587V9.22949L9.91609 9.7187C10.0354 9.78733 10.1833 9.78733 10.3026 9.7187V9.71838Z" fill="white"/>
</g>
<defs>
<linearGradient id="paint0_linear_11763_24009" x1="-3.9003" y1="0.715826" x2="14.0941" y2="11.7276" gradientUnits="userSpaceOnUse">
<stop stop-color="#A229C5"/>
<stop offset="1" stop-color="#7B3FE4"/>
</linearGradient>
<clipPath id="clip0_11763_24009">
<rect width="16" height="16" fill="white"/>
</clipPath>
</defs>
</svg>
