<svg width="42" height="42" viewBox="0 0 42 42" fill="none" xmlns="http://www.w3.org/2000/svg">
<path d="M41 21C41 32.0457 32.0457 41 21 41C9.9543 41 1 32.0457 1 21C1 9.9543 9.9543 1 21 1C32.0457 1 41 9.9543 41 21Z" fill="#1F9898" fill-opacity="0.2"/>
<path d="M13.2945 26.7459C12.2674 26.7459 11.5305 26.4601 11.0839 25.8884C10.7043 25.4017 10.5123 24.705 10.5078 23.7985C10.5078 23.6377 10.5145 23.468 10.5279 23.2894L12.484 22.9411C12.4661 23.142 12.4572 23.3296 12.4572 23.5037C12.4572 24.5353 12.7675 25.0511 13.3883 25.0511C13.6607 25.0511 13.8662 24.964 14.0046 24.7899C14.1475 24.6157 14.2346 24.3902 14.2659 24.1133C14.2748 24.0285 14.2792 23.9481 14.2792 23.8722C14.2837 23.6623 14.2547 23.4636 14.1922 23.276C14.1118 23.0259 14.0024 22.816 13.8639 22.6463C13.7299 22.4722 13.5357 22.2645 13.2811 22.0234L12.1557 20.9449C11.7449 20.5519 11.4456 20.1478 11.2581 19.7324C11.1241 19.4288 11.0549 19.0648 11.0504 18.6406C11.0504 18.4887 11.0593 18.3302 11.0772 18.165C11.171 17.2718 11.5082 16.5819 12.0887 16.0951C12.6693 15.6039 13.4196 15.356 14.3395 15.3516C14.3529 15.3516 14.3686 15.3516 14.3864 15.3516C14.7973 15.3516 15.1523 15.4096 15.4515 15.5257C15.7642 15.6463 16.0075 15.8026 16.1817 15.9946C16.3603 16.1822 16.4988 16.4166 16.597 16.698C16.6998 16.9749 16.7645 17.2473 16.7913 17.5152C16.8092 17.6894 16.8159 17.8769 16.8114 18.0779C16.8114 18.1851 16.8092 18.2989 16.8047 18.4195L14.862 18.7344C14.8754 18.5066 14.8821 18.2967 14.8821 18.1047C14.8821 18.0154 14.8799 17.9261 14.8754 17.8367C14.8665 17.5777 14.7995 17.3678 14.6745 17.2071C14.5628 17.0642 14.3976 16.9927 14.1788 16.9927C14.1609 16.9927 14.1408 16.9927 14.1185 16.9927C13.855 17.0061 13.6429 17.1044 13.4821 17.2875C13.3213 17.4661 13.2275 17.6871 13.2007 17.9506C13.1918 18.0176 13.1873 18.0846 13.1873 18.1516C13.1873 18.3347 13.2164 18.5066 13.2744 18.6674C13.3503 18.8862 13.4374 19.0581 13.5357 19.1832C13.6339 19.3037 13.7813 19.46 13.9778 19.6521L15.0898 20.7171C15.3176 20.9404 15.5118 21.157 15.6726 21.3669C15.8334 21.5768 15.9807 21.8157 16.1147 22.0836C16.2532 22.3516 16.3492 22.6463 16.4028 22.9679C16.434 23.151 16.4497 23.3385 16.4497 23.5305C16.4497 23.6779 16.4407 23.8297 16.4229 23.986C16.338 24.7943 16.0075 25.4575 15.4314 25.9755C14.8553 26.4891 14.143 26.7459 13.2945 26.7459Z" fill="#1F9898"/>
<path d="M17.3205 26.5985L18.4861 15.4922H21.2862C21.6971 15.4922 22.061 15.5168 22.3781 15.5659C22.6997 15.615 23.0011 15.7044 23.2825 15.8339C23.5638 15.9634 23.7893 16.1353 23.959 16.3497C24.1332 16.5595 24.2583 16.8342 24.3342 17.1736C24.3788 17.3745 24.4012 17.5934 24.4012 17.83C24.4012 17.9997 24.39 18.1761 24.3677 18.3592C24.2114 19.6989 23.5884 20.4537 22.4987 20.6234C23.6375 20.8154 24.2069 21.5589 24.2069 22.854C24.2069 23.0103 24.198 23.1733 24.1801 23.343C24.0729 24.4282 23.7134 25.2431 23.1016 25.788C22.4942 26.3283 21.6658 26.5985 20.6163 26.5985H17.3205ZM19.7053 25.0377H20.3417C20.9178 25.0377 21.3309 24.9038 21.581 24.6358C21.8311 24.3634 21.9874 23.9235 22.0499 23.3162C22.0677 23.1599 22.0767 23.0125 22.0767 22.8741C22.0767 22.4498 21.9963 22.1305 21.8355 21.9162C21.6256 21.6348 21.2282 21.4942 20.6431 21.4942H20.0737L19.7053 25.0377ZM20.2345 19.9803H20.7905C21.3577 19.9803 21.7574 19.8575 21.9896 19.6119C22.2263 19.3618 22.3737 18.9554 22.4317 18.3927C22.4406 18.2989 22.4451 18.2096 22.4451 18.1248C22.4451 17.7407 22.3424 17.4683 22.137 17.3076C21.8869 17.1111 21.4671 17.0128 20.8776 17.0128H20.5493L20.2345 19.9803Z" fill="#1F9898"/>
<path d="M26.2032 26.5985L27.2013 17.1267H25.406L25.5802 15.4922H31.3411L31.1737 17.1267H29.4186L28.4205 26.5985H26.2032Z" fill="#1F9898"/>
<path d="M21 41.0807C32.0903 41.0807 41.0807 32.0903 41.0807 21C41.0807 9.90974 32.0903 0.9193 21 0.9193C9.90974 0.9193 0.9193 9.90974 0.9193 21C0.9193 32.0903 9.90974 41.0807 21 41.0807Z" stroke="#1F9898" stroke-width="0.161399"/>
</svg>
