<svg width="40" height="40" viewBox="0 0 40 40" fill="none" xmlns="http://www.w3.org/2000/svg">
<circle opacity="0.2" cx="20" cy="20" r="20" fill="currentColor"/>
<g clip-path="url(#clip0_11474_6236)">
<path d="M15.1891 23.125H14.2522C13.9064 23.125 13.5614 23.0911 13.2222 23.0238L11.4995 24.7465C11.4384 24.8078 11.3604 24.8496 11.2755 24.8666C11.1906 24.8836 11.1026 24.875 11.0225 24.8419C10.9425 24.8088 10.8741 24.7527 10.826 24.6807C10.7779 24.6087 10.7522 24.5241 10.7522 24.4375V21.7883C9.95897 21.0798 9.39971 20.147 9.1485 19.1135C8.89729 18.0799 8.96599 16.9945 9.3455 16.0009C9.72501 15.0073 10.3974 14.1525 11.2737 13.5496C12.1499 12.9468 13.1886 12.6243 14.2522 12.625H17.7522C18.7842 12.6254 19.7933 12.9297 20.6535 13.4999C21.5138 14.0701 22.1871 14.881 22.5894 15.8313C22.6305 15.9283 22.6684 16.0262 22.7033 16.125H21.2522C20.4477 16.1245 19.651 16.2826 18.9077 16.5902C18.1643 16.8978 17.4889 17.349 16.92 17.9179C16.3512 18.4867 15.9 19.1621 15.5924 19.9055C15.2848 20.6488 15.1267 21.4455 15.1272 22.25C15.1271 22.5428 15.1478 22.8352 15.1891 23.125ZM29.5894 20.2063C29.1881 19.2552 28.515 18.4437 27.6546 17.8734C26.7941 17.303 25.7845 16.9992 24.7522 17H21.2522C19.8598 17 18.5245 17.5531 17.5399 18.5377C16.5553 19.5223 16.0022 20.8576 16.0022 22.25C16.0022 23.6424 16.5553 24.9777 17.5399 25.9623C18.5245 26.9469 19.8598 27.5 21.2522 27.5H24.7522C25.098 27.5 25.443 27.4661 25.7822 27.3988L27.5049 29.1215C27.566 29.1828 27.644 29.2246 27.7289 29.2416C27.8138 29.2586 27.9018 29.25 27.9819 29.2169C28.0619 29.1838 28.1303 29.1277 28.1784 29.0557C28.2265 28.9837 28.2522 28.8991 28.2522 28.8125V26.1633C29.0677 25.4333 29.6349 24.4668 29.8746 23.3989C30.1143 22.331 30.0146 21.2149 29.5894 20.2063Z" fill="currentColor"/>
</g>
<defs>
<clipPath id="clip0_11474_6236">
<rect width="21" height="21" fill="white" transform="translate(9 10)"/>
</clipPath>
</defs>
</svg>
