<svg width="81" height="25" viewBox="0 0 81 25" fill="none" xmlns="http://www.w3.org/2000/svg">
<path d="M62.102 7.443V11.133H65.603V12.78H62.102V16.488H60.302V12.78H56.819V11.133H60.302V7.443H62.102ZM72.3429 16.335H74.9799V8.748C74.9799 8.454 74.9889 8.145 75.0069 7.821L73.1349 9.387C73.0569 9.453 72.9759 9.498 72.8919 9.522C72.8139 9.546 72.7359 9.558 72.6579 9.558C72.5379 9.558 72.4269 9.534 72.3249 9.486C72.2289 9.432 72.1569 9.372 72.1089 9.306L71.4069 8.343L75.3759 4.968H77.2029V16.335H79.5429V18H72.3429V16.335Z" fill="#B0B0B0"/>
<rect width="48" height="25" rx="6" fill="#B0B0B0"/>
<path d="M11.9786 18.1504C10.9304 18.1504 10.1785 17.8587 9.72273 17.2754C9.33536 16.7786 9.1394 16.0677 9.13484 15.1426C9.13484 14.9785 9.14168 14.8053 9.15535 14.623L11.1514 14.2676C11.1332 14.4727 11.1241 14.6641 11.1241 14.8418C11.1241 15.8945 11.4408 16.4209 12.0743 16.4209C12.3523 16.4209 12.5619 16.332 12.7032 16.1543C12.849 15.9766 12.9379 15.7464 12.9698 15.4639C12.9789 15.3773 12.9835 15.2952 12.9835 15.2178C12.988 15.0036 12.9584 14.8008 12.8946 14.6094C12.8126 14.3542 12.7009 14.14 12.5596 13.9668C12.4229 13.7891 12.2247 13.5771 11.9649 13.3311L10.8165 12.2305C10.3972 11.8294 10.0919 11.417 9.90047 10.9932C9.76375 10.6833 9.69311 10.3118 9.68855 9.87891C9.68855 9.72396 9.69767 9.56217 9.7159 9.39355C9.8116 8.4821 10.1557 7.77799 10.7481 7.28125C11.3406 6.77995 12.1062 6.52702 13.045 6.52246C13.0587 6.52246 13.0746 6.52246 13.0929 6.52246C13.5121 6.52246 13.8744 6.58171 14.1798 6.7002C14.4988 6.82324 14.7471 6.98275 14.9249 7.17871C15.1072 7.37012 15.2485 7.60938 15.3487 7.89648C15.4535 8.17904 15.5196 8.45703 15.547 8.73047C15.5652 8.9082 15.572 9.09961 15.5675 9.30469C15.5675 9.41406 15.5652 9.53027 15.5606 9.65332L13.5782 9.97461C13.5919 9.74219 13.5987 9.52799 13.5987 9.33203C13.5987 9.24089 13.5964 9.14974 13.5919 9.05859C13.5828 8.79427 13.5144 8.58008 13.3868 8.41602C13.2729 8.27018 13.1042 8.19727 12.8809 8.19727C12.8627 8.19727 12.8422 8.19727 12.8194 8.19727C12.5505 8.21094 12.3341 8.3112 12.17 8.49805C12.0059 8.68034 11.9102 8.90592 11.8829 9.1748C11.8738 9.24316 11.8692 9.31152 11.8692 9.37988C11.8692 9.56673 11.8988 9.74219 11.9581 9.90625C12.0356 10.1296 12.1244 10.305 12.2247 10.4326C12.3249 10.5557 12.4753 10.7152 12.6759 10.9111L13.8106 11.998C14.043 12.2259 14.2413 12.4469 14.4054 12.6611C14.5694 12.8753 14.7198 13.1191 14.8565 13.3926C14.9978 13.666 15.0958 13.9668 15.1505 14.2949C15.1824 14.4818 15.1983 14.6732 15.1983 14.8691C15.1983 15.0195 15.1892 15.1745 15.171 15.334C15.0844 16.1589 14.7471 16.8356 14.1593 17.3643C13.5714 17.8883 12.8445 18.1504 11.9786 18.1504ZM16.9007 18L16.5795 6.66602H18.4935L18.5755 13.6455L20.3597 6.66602H21.8705L22.2259 13.6318L23.7777 6.66602H25.6576L22.9642 18H21.0775L20.6947 10.7607L18.8216 18H16.9007ZM24.5983 18L28.0231 6.66602H30.484L31.5163 18H29.4176L29.2536 15.4707H27.4284L26.7379 18H24.5983ZM27.7975 14.0557H29.1784L28.9664 9.5166L27.7975 14.0557ZM32.3642 18L33.5536 6.66602H37.0468C38.8059 6.66602 39.6855 7.53418 39.6855 9.27051C39.6855 9.47103 39.6741 9.68522 39.6513 9.91309C39.5875 10.4919 39.4576 10.9886 39.2616 11.4033C39.0702 11.8135 38.8173 12.137 38.5029 12.374C38.193 12.6064 37.8466 12.7751 37.4638 12.8799C37.0855 12.9847 36.6571 13.0371 36.1786 13.0371H35.1532L34.6269 18H32.3642ZM35.3173 11.458H36.0419C36.566 11.458 36.9283 11.3441 37.1288 11.1162C37.3339 10.8838 37.4661 10.4736 37.5253 9.88574C37.5481 9.66243 37.5595 9.46419 37.5595 9.29102C37.5595 9.18164 37.5549 9.0791 37.5458 8.9834C37.523 8.74186 37.4205 8.56185 37.2382 8.44336C37.0559 8.32031 36.7688 8.25879 36.3769 8.25879H35.6523L35.3173 11.458Z" fill="white"/>
</svg>
