<svg width="40" height="40" viewBox="0 0 40 40" fill="none" xmlns="http://www.w3.org/2000/svg">
<circle opacity="0.2" cx="20" cy="20" r="20" fill="currentColor"/>
<path fill-rule="evenodd" clip-rule="evenodd" d="M20.1305 10.8536C20.6987 11.7652 22.6625 14.0087 28.0062 13.4457C28.1889 13.4268 28.3242 13.5969 28.2452 13.7503C27.765 14.6367 26.6196 17.0377 26.8518 19.3021C26.8541 19.3168 26.8563 19.3294 26.8608 19.3441C26.9713 19.6991 28.5068 25.1311 20.0516 29.5318C19.9794 29.5696 19.8892 29.5696 19.8193 29.5318C11.3641 25.1311 12.8996 19.6991 13.0101 19.3441C13.0146 19.3294 13.0168 19.3168 13.0191 19.3021C13.2513 17.0398 12.1037 14.6367 11.6257 13.7503C11.5445 13.5969 11.6798 13.4268 11.8624 13.4457C17.2061 14.0087 19.17 11.7652 19.7382 10.8536C19.8261 10.7129 20.0426 10.7129 20.1305 10.8536ZM21.1834 17.7581L20.4884 16.3515C20.3167 16.0048 19.8198 16.0048 19.653 16.3515L18.958 17.7581C18.8886 17.8968 18.7565 17.9925 18.6046 18.014L17.0511 18.2401C16.6681 18.2963 16.5145 18.7684 16.7919 19.0392L17.9162 20.1354C18.0268 20.2427 18.078 20.3979 18.0516 20.5498L17.7858 22.0967C17.7197 22.4797 18.1209 22.7702 18.4643 22.5903L19.8528 21.8606C19.9898 21.7896 20.1516 21.7896 20.2886 21.8606L21.6771 22.5903C22.0205 22.7702 22.4217 22.4797 22.3556 22.0967L22.0898 20.5498C22.0651 20.3979 22.1146 20.2427 22.2252 20.1354L23.3495 19.0392C23.6269 18.7684 23.475 18.2963 23.0903 18.2401L21.5367 18.014C21.3832 17.9925 21.2511 17.8968 21.1834 17.7581Z" fill="currentColor"/>
</svg>
