<svg width="40" height="41" viewBox="0 0 40 41" fill="none" xmlns="http://www.w3.org/2000/svg">
<circle opacity="0.2" cx="20" cy="20.668" r="20" fill="#7D74FF"/>
<path d="M19.974 11.4785C14.9224 11.4785 10.8285 15.5735 10.8285 20.624C10.8285 25.6745 14.9235 29.7695 19.974 29.7695C25.0245 29.7695 29.1195 25.6745 29.1195 20.624C29.1195 15.5735 25.0256 11.4785 19.974 11.4785ZM14.8238 17.6448L18.245 14.891C18.4552 14.722 18.7682 14.8715 18.7682 15.1413V16.9439H21.6358C22.6097 16.9439 24.8609 17.0793 25.2433 19.7747C25.2628 19.9112 25.0917 19.9903 24.9996 19.8873C24.4882 19.311 23.8816 18.8755 22.6921 18.8755H18.7682V20.6479C18.7682 20.9176 18.4552 21.0682 18.245 20.8981L14.8238 18.1453C14.7863 18.1153 14.756 18.0772 14.7352 18.0339C14.7144 17.9906 14.7036 17.9432 14.7036 17.8951C14.7036 17.847 14.7144 17.7996 14.7352 17.7563C14.756 17.713 14.7863 17.6749 14.8238 17.6448ZM25.1252 23.3453L21.7041 26.0992C21.4939 26.2682 21.1808 26.1187 21.1808 25.8489V24.0463H18.3132C17.3393 24.0463 15.0882 23.9108 14.7057 21.2155C14.6862 21.079 14.8574 20.9999 14.9495 21.1028C15.4608 21.6792 16.0675 22.1147 17.257 22.1147H21.1808V20.3402C21.1808 20.0704 21.4939 19.9198 21.7041 20.0899L25.1252 22.8438C25.1625 22.8741 25.1926 22.9123 25.2133 22.9557C25.2339 22.9991 25.2447 23.0465 25.2447 23.0946C25.2447 23.1426 25.2339 23.1901 25.2133 23.2334C25.1926 23.2768 25.1625 23.3151 25.1252 23.3453Z" fill="#7D74FF"/>
</svg>
