<svg width="24" height="24" viewBox="0 0 24 24" fill="none" xmlns="http://www.w3.org/2000/svg">
<path d="M7.539 22.4991C16.596 22.4991 21.5505 14.9946 21.5505 8.49809C21.5505 8.28809 21.5505 8.07509 21.5415 7.86509C22.5061 7.16682 23.3386 6.30231 24 5.31209C23.099 5.70936 22.1441 5.9712 21.1665 6.08909C22.1963 5.47354 22.9676 4.50504 23.337 3.36359C22.3695 3.93677 21.3105 4.33915 20.2065 4.55309C19.4643 3.76262 18.4821 3.23896 17.4121 3.06322C16.3421 2.88748 15.2441 3.06947 14.288 3.58099C13.3319 4.09252 12.5712 4.90503 12.1237 5.89268C11.6761 6.88032 11.5668 7.98799 11.8125 9.04409C9.85461 8.94591 7.93922 8.43729 6.19056 7.5512C4.4419 6.66511 2.89903 5.42135 1.662 3.90059C1.03401 4.98521 0.842361 6.26819 1.12597 7.48899C1.40958 8.70978 2.14718 9.77688 3.189 10.4736C2.40831 10.4471 1.64478 10.2374 0.96 9.86159V9.92909C0.961346 11.0653 1.35496 12.1662 2.07431 13.0457C2.79366 13.9252 3.79462 14.5294 4.908 14.7561C4.48539 14.8725 4.04884 14.9305 3.6105 14.9286C3.30148 14.9295 2.99307 14.9009 2.6895 14.8431C3.00418 15.8212 3.61691 16.6763 4.44187 17.2888C5.26683 17.9013 6.2627 18.2404 7.29 18.2586C5.54483 19.6293 3.3891 20.3727 1.17 20.3691C0.778981 20.3707 0.388235 20.3482 0 20.3016C2.25227 21.7375 4.86795 22.4999 7.539 22.4991Z" fill="#333333"/>
</svg>
