<svg width="40" height="40" viewBox="0 0 40 40" fill="none" xmlns="http://www.w3.org/2000/svg">
<rect width="40" height="40" rx="10.0888" fill="#33CCFF"/>
<path d="M30.4765 14.2894C29.8295 14.5684 29.1494 14.7627 28.4529 14.8675C28.7785 14.8115 29.2577 14.2241 29.4484 13.9864C29.7381 13.6277 29.959 13.2183 30.0997 12.7789C30.0997 12.7463 30.1322 12.6997 30.0997 12.6764C30.0833 12.6674 30.0649 12.6627 30.0462 12.6627C30.0275 12.6627 30.0091 12.6674 29.9927 12.6764C29.2363 13.0868 28.4314 13.4001 27.5969 13.6088C27.5678 13.6177 27.5369 13.6185 27.5074 13.6111C27.4778 13.6037 27.4509 13.5884 27.4294 13.5668C27.3645 13.4893 27.2945 13.4161 27.2201 13.3477C26.8797 13.0421 26.4935 12.792 26.0757 12.6065C25.5117 12.3746 24.9024 12.2741 24.294 12.3128C23.7036 12.3501 23.1272 12.5088 22.6007 12.7789C22.0821 13.0638 21.6264 13.4507 21.2609 13.9165C20.8764 14.3959 20.5988 14.9522 20.4468 15.5481C20.3214 16.1149 20.3072 16.7008 20.4049 17.273C20.4049 17.3709 20.4049 17.3849 20.3212 17.3709C17.0043 16.8814 14.2829 15.702 12.0593 13.1705C11.9616 13.0587 11.9104 13.0587 11.8313 13.1705C10.8637 14.6437 11.3336 16.9747 12.5431 18.1262C12.7059 18.28 12.8734 18.4292 13.0501 18.569C12.4956 18.5296 11.9546 18.379 11.4592 18.1262C11.3661 18.0656 11.3149 18.0982 11.3103 18.2101C11.2971 18.3652 11.2971 18.5211 11.3103 18.6763C11.4074 19.4196 11.6997 20.1239 12.1574 20.7169C12.6151 21.3099 13.2218 21.7705 13.9154 22.0515C14.0845 22.1241 14.2607 22.1787 14.4411 22.2147C13.9277 22.3159 13.4012 22.3317 12.8827 22.2613C12.771 22.238 12.7291 22.2986 12.771 22.4058C13.4549 24.2706 14.9388 24.8393 16.0274 25.1563C16.1763 25.1796 16.3251 25.1796 16.4926 25.2169C16.4926 25.2169 16.4926 25.2169 16.4647 25.2449C16.1437 25.8323 14.8458 26.2286 14.2503 26.4337C13.1635 26.8249 12.0047 26.9744 10.8544 26.8719C10.673 26.8439 10.6311 26.8486 10.5846 26.8719C10.5381 26.8952 10.5846 26.9465 10.6358 26.9931C10.8684 27.147 11.101 27.2822 11.3429 27.4127C12.063 27.8063 12.8243 28.119 13.613 28.3451C17.6975 29.4732 22.2936 28.6434 25.3593 25.5899C27.769 23.1937 28.6157 19.8884 28.6157 16.5784C28.6157 16.4525 28.7692 16.3779 28.8576 16.3127C29.4672 15.8366 30.0047 15.2745 30.4532 14.6437C30.5309 14.5497 30.5707 14.43 30.5649 14.3081C30.5649 14.2381 30.5649 14.2521 30.4765 14.2894Z" fill="white"/>
</svg>
