<svg width="24" height="24" viewBox="0 0 24 24" fill="none" xmlns="http://www.w3.org/2000/svg">
<path d="M18.3625 5.63747C14.8463 2.12113 9.15432 2.12056 5.63748 5.63747C2.1211 9.15381 2.12058 14.8457 5.63748 18.3625C9.15376 21.8789 14.8457 21.8794 18.3625 18.3625C21.8789 14.8462 21.8794 9.15434 18.3625 5.63747ZM17.9865 17.0799C17.566 16.704 17.1163 16.3713 16.6423 16.0846C16.9556 15.0023 17.1412 13.8114 17.1851 12.5734H19.8306C19.7109 14.2421 19.0698 15.8074 17.9865 17.0799ZM4.16943 12.5734H6.81485C6.85873 13.8114 7.04434 15.0023 7.35765 16.0846C6.88363 16.3713 6.43393 16.704 6.01352 17.0799C4.93019 15.8074 4.28907 14.2421 4.16943 12.5734ZM6.01356 6.92012C6.43397 7.29605 6.88367 7.62875 7.35768 7.91546C7.04438 8.9977 6.85876 10.1886 6.81489 11.4266H4.16943C4.28907 9.75797 4.93019 8.19265 6.01356 6.92012ZM11.4266 8.03398C10.4915 7.96709 9.58976 7.73676 8.75383 7.35679C9.24 6.10488 10.1362 4.60335 11.4266 4.23124V8.03398ZM11.4266 9.18293V11.4266H7.96216C8.00185 10.3794 8.15023 9.37382 8.397 8.45372C9.34696 8.869 10.3686 9.117 11.4266 9.18293ZM11.4266 12.5734V14.8171C10.3686 14.8831 9.34696 15.1311 8.397 15.5463C8.15023 14.6262 8.00185 13.6206 7.96216 12.5734H11.4266ZM11.4266 15.9661V19.7688C10.1363 19.3967 9.24007 17.8953 8.75383 16.6433C9.58976 16.2633 10.4915 16.033 11.4266 15.9661ZM12.5734 15.9661C13.5086 16.033 14.4103 16.2633 15.2462 16.6433C14.76 17.8952 13.8638 19.3967 12.5734 19.7688V15.9661ZM12.5734 14.8171V12.5734H16.0379C15.9982 13.6206 15.8498 14.6262 15.603 15.5463C14.6531 15.1311 13.6314 14.8831 12.5734 14.8171ZM12.5734 11.4266V9.18293C13.6314 9.117 14.6531 8.869 15.603 8.45372C15.8498 9.37382 15.9982 10.3794 16.0379 11.4266H12.5734ZM12.5734 8.03398V4.23127C13.8638 4.60338 14.76 6.10491 15.2462 7.35682C14.4103 7.73676 13.5086 7.96709 12.5734 8.03398ZM15.149 4.80375C15.8829 5.12517 16.5677 5.561 17.1816 6.10175C16.8894 6.35938 16.5811 6.59297 16.2591 6.80188C15.9732 6.09399 15.608 5.40605 15.149 4.80375ZM7.74085 6.80188C7.41891 6.59297 7.11063 6.35938 6.8184 6.10175C7.43226 5.561 8.11704 5.12517 8.85103 4.80375C8.39198 5.40612 8.02676 6.09406 7.74085 6.80188ZM7.74089 17.1982C8.02676 17.906 8.39205 18.594 8.85106 19.1963C8.11707 18.8749 7.43229 18.4391 6.81844 17.8983C7.11063 17.6407 7.41894 17.4071 7.74089 17.1982ZM16.2591 17.1982C16.5811 17.4071 16.8894 17.6407 17.1816 17.8983C16.5677 18.439 15.8829 18.8748 15.149 19.1963C15.608 18.594 15.9732 17.9061 16.2591 17.1982ZM17.1852 11.4266C17.1413 10.1887 16.9557 8.9977 16.6424 7.91549C17.1164 7.62878 17.566 7.29609 17.9865 6.92015C19.0698 8.19265 19.7109 9.75797 19.8306 11.4266H17.1852Z" fill="#E6EAEE"/>
</svg>
