<svg width="20" height="16" viewBox="0 0 20 16" fill="white" opacity="0.6" xmlns="http://www.w3.org/2000/svg">
<path fill-rule="evenodd" clip-rule="evenodd"  d="M12.8333 0.5C12.6351 0.849047 12.4584 1.20952 12.3042 1.57946C10.7896 1.34399 9.24678 1.34399 7.73217 1.57946C7.57802 1.20952 7.40134 0.849047 7.20308 0.5C5.77634 0.739642 4.38936 1.16881 3.08023 1.77573C0.739222 5.09683 -0.322443 9.12879 0.0854137 13.1493C1.61101 14.2768 3.32326 15.1366 5.14665 15.691C5.56184 15.1518 5.93239 14.5808 6.25473 13.9835C5.65983 13.7679 5.08804 13.495 4.54768 13.169C4.69589 13.072 4.83608 12.9637 4.96696 12.8451C6.54269 13.5912 8.2692 13.9787 10.0182 13.9787C11.7672 13.9787 13.4937 13.5912 15.0695 12.8451C15.2092 12.9629 15.349 13.0708 15.4887 13.169C14.9454 13.4925 14.3742 13.7683 13.7817 13.9933C14.0907 14.6042 14.4513 15.1885 14.8598 15.7401C16.6809 15.1876 18.3902 14.3275 19.9111 13.1984C20.3287 9.17712 19.2662 5.14187 16.9163 1.8248C15.6218 1.20532 14.2486 0.759729 12.8333 0.5ZM6.70395 10.853C6.2044 10.8178 5.73816 10.5936 5.40312 10.2277C5.06808 9.86175 4.89029 9.38243 4.90706 8.89037C4.88775 8.39766 5.06467 7.91697 5.40022 7.55047C5.73576 7.18397 6.20347 6.96056 6.70395 6.92771C7.20442 6.96056 7.67213 7.18397 8.00768 7.55047C8.34322 7.91697 8.52014 8.39766 8.50083 8.89037C8.52014 9.38308 8.34322 9.86377 8.00768 10.2303C7.67213 10.5968 7.20442 10.8202 6.70395 10.853ZM13.3325 10.853C12.8329 10.8178 12.3667 10.5936 12.0316 10.2277C11.6966 9.86175 11.5188 9.38243 11.5356 8.89037C11.5163 8.39766 11.6932 7.91697 12.0287 7.55047C12.3643 7.18397 12.832 6.96056 13.3325 6.92771C13.8339 6.95811 14.3031 7.1808 14.6391 7.54786C14.9752 7.91492 15.1512 8.39701 15.1294 8.89037C15.1512 9.38373 14.9752 9.86582 14.6391 10.2329C14.3031 10.5999 13.8339 10.8226 13.3325 10.853Z"/>
</svg>
