<svg width="60" height="60" viewBox="0 0 60 60" fill="none" xmlns="http://www.w3.org/2000/svg">
<circle cx="30" cy="30" r="30" fill="#CEEAEA"/>
<path d="M27.056 39C26.7319 38.9959 26.413 38.9267 26.1233 38.7976C25.8335 38.6685 25.5804 38.4828 25.3829 38.2546L18.438 30.227C18.0947 29.8281 17.9439 29.3245 18.0188 28.8269C18.0936 28.3294 18.3881 27.8786 18.8372 27.5737C19.2864 27.2689 19.8536 27.135 20.414 27.2014C20.9744 27.2679 21.4821 27.5293 21.8254 27.9282L27.1089 34.0479L38.169 21.7511C38.3407 21.5495 38.5561 21.3805 38.8026 21.254C39.049 21.1275 39.3215 21.0461 39.6039 21.0147C39.8864 20.9833 40.1731 21.0024 40.447 21.0709C40.721 21.1395 40.9768 21.2561 41.1991 21.4139C41.4215 21.5716 41.6061 21.7674 41.7419 21.9895C41.8777 22.2117 41.962 22.4557 41.9898 22.7072C42.0176 22.9588 41.9884 23.2127 41.9039 23.4541C41.8194 23.6954 41.6812 23.9193 41.4977 24.1125L28.7174 38.3015C28.5168 38.5206 28.2634 38.6971 27.9759 38.818C27.6884 38.9388 27.3741 39.001 27.056 39Z" fill="#FC4949"/>
</svg>
