<svg width="123" height="91" viewBox="0 0 123 91" fill="none" xmlns="http://www.w3.org/2000/svg">
<path d="M4.39736 1.39664C4.26064 0.81102 4.93483 0.252969 5.55836 0.435631L31.4404 8.01765C31.8611 8.1409 32.054 8.56083 31.8729 8.95929L28.8746 15.5571C28.6909 15.9613 28.1929 16.1895 27.7658 16.0653L7.16481 10.0747C6.66598 9.92964 6.30447 9.56514 6.19518 9.09706L4.39736 1.39664Z" fill="url(#paint0_linear_10289_25022)"/>
<path d="M7.43618 14.0304C7.29946 13.4448 7.97364 12.8868 8.59718 13.0694L34.4792 20.6514C34.8999 20.7747 35.0928 21.1946 34.9118 21.5931L31.9134 28.1909C31.7297 28.5951 31.2317 28.8233 30.8047 28.6991L10.2036 22.7085C9.7048 22.5634 9.34329 22.1989 9.234 21.7309L7.43618 14.0304Z" fill="url(#paint1_linear_10289_25022)"/>
<path d="M10.7965 26.6642C10.6598 26.0786 11.334 25.5205 11.9575 25.7032L37.8396 33.2852C38.2603 33.4085 38.4532 33.8284 38.2721 34.2269L35.2737 40.8247C35.0901 41.2288 34.5921 41.4571 34.165 41.3329L13.564 35.3423C13.0652 35.1972 12.7036 34.8327 12.5944 34.3646L10.7965 26.6642Z" fill="url(#paint2_linear_10289_25022)"/>
<path d="M118.603 1.39664C118.739 0.81102 118.065 0.252969 117.442 0.435631L91.5596 8.01765C91.1389 8.1409 90.946 8.56083 91.1271 8.95929L94.1254 15.5571C94.3091 15.9613 94.8071 16.1895 95.2342 16.0653L115.835 10.0747C116.334 9.92964 116.696 9.56514 116.805 9.09706L118.603 1.39664Z" fill="url(#paint3_linear_10289_25022)"/>
<path d="M115.564 14.0304C115.701 13.4448 115.026 12.8868 114.403 13.0694L88.5208 20.6514C88.1001 20.7747 87.9072 21.1946 88.0882 21.5931L91.0866 28.1909C91.2703 28.5951 91.7683 28.8233 92.1953 28.6991L112.796 22.7085C113.295 22.5634 113.657 22.1989 113.766 21.7309L115.564 14.0304Z" fill="url(#paint4_linear_10289_25022)"/>
<path d="M112.203 26.6642C112.34 26.0786 111.666 25.5205 111.042 25.7032L85.1604 33.2852C84.7397 33.4085 84.5468 33.8284 84.7279 34.2269L87.7263 40.8247C87.9099 41.2288 88.4079 41.4571 88.835 41.3329L109.436 35.3423C109.935 35.1972 110.296 34.8327 110.406 34.3646L112.203 26.6642Z" fill="url(#paint5_linear_10289_25022)"/>
<path d="M33.1452 1.98972C28.4768 1.98972 24.6924 5.77418 24.6924 10.4426V61.3933C24.6924 64.1737 26.0596 66.7762 28.3491 68.3538L56.4246 87.6989C59.3124 89.6887 63.1289 89.6887 66.0167 87.6989L94.0922 68.3538C96.3817 66.7762 97.749 64.1737 97.749 61.3933V10.4426C97.749 5.77419 93.9645 1.98972 89.2961 1.98972H33.1452Z" fill="url(#paint6_linear_10289_25022)" stroke="url(#paint7_linear_10289_25022)" stroke-width="2.4151"/>
<path d="M29.4017 11.6505C29.4017 9.14959 31.4291 7.1222 33.93 7.1222H88.8734C91.3743 7.1222 93.4017 9.14959 93.4017 11.6505V60.64C93.4017 62.1339 92.6649 63.5317 91.4324 64.3759L63.9607 83.1924C62.4183 84.2489 60.3852 84.2489 58.8428 83.1924L31.3711 64.3759C30.1386 63.5317 29.4017 62.1339 29.4017 60.64V11.6505Z" stroke="url(#paint8_linear_10289_25022)" stroke-width="0.603774"/>
<path fill-rule="evenodd" clip-rule="evenodd" d="M51.6281 30.2542L54.1621 31.678L54.1583 27.7979L57.6112 25.8506L57.6112 21.9668L61.0941 19.9853L61.0622 12.2539L55.6489 15.2925L51.628 17.5559L51.628 17.5577L50.6997 18.0795L50.6997 29.7306L51.6281 30.2542ZM61.0659 12.2576L61.0659 16.1376L64.5169 14.1976L61.0659 12.2576ZM67.9736 23.9105L64.5188 25.8506L64.5189 29.7398L61.0641 31.6798L61.0641 35.558L70.9624 29.9933L71.4246 29.7324L71.4246 18.0813L70.9623 18.3422L70.9623 18.344L70.9605 18.3422L67.9736 20.0213L67.9736 23.9105Z" fill="url(#paint9_linear_10289_25022)"/>
<path fill-rule="evenodd" clip-rule="evenodd" d="M68.0036 23.869L64.5489 25.809L61.3791 24.018L57.6412 21.9253L61.0941 19.9853L67.5414 23.61L68.0036 23.869ZM71.4584 18.0416L68.0036 19.9816L61.096 16.0979L64.547 14.1561L71.4584 18.0416ZM54.1883 27.7564L57.6412 25.8164L64.5489 29.7001L61.0941 31.6401L54.1883 27.7564Z" fill="url(#paint10_linear_10289_25022)"/>
<path d="M60.7296 65.1199C60.9467 64.7165 61.5253 64.7165 61.7424 65.1199L63.026 67.5057C63.1061 67.6547 63.2479 67.7608 63.4134 67.7958L66.0168 68.3461C66.4469 68.4371 66.62 68.9575 66.33 69.288L64.5039 71.369C64.3974 71.4903 64.3469 71.6509 64.3646 71.8113L64.6713 74.592C64.7208 75.0405 64.258 75.3686 63.8512 75.1735L61.4846 74.0388C61.3274 73.9635 61.1445 73.9635 60.9874 74.0388L58.6208 75.1735C58.2139 75.3686 57.7512 75.0405 57.8006 74.592L58.1074 71.8113C58.1251 71.6509 58.0745 71.4903 57.968 71.369L56.1419 69.288C55.8519 68.9575 56.025 68.4371 56.4552 68.3461L59.0585 67.7958C59.2241 67.7608 59.3658 67.6547 59.446 67.5057L60.7296 65.1199Z" fill="url(#paint11_linear_10289_25022)"/>
<path d="M45.0596 58.3855C45.2695 58.013 45.8059 58.013 46.0159 58.3855L47.3308 60.7183C47.4091 60.8573 47.544 60.9553 47.7004 60.9868L50.3254 61.5165C50.7445 61.6011 50.9103 62.1112 50.6209 62.426L48.8086 64.3974C48.7006 64.5149 48.6491 64.6735 48.6674 64.8319L48.9748 67.4921C49.0239 67.9169 48.5899 68.2322 48.2011 68.0542L45.7662 66.9398C45.6211 66.8734 45.4544 66.8734 45.3093 66.9398L42.8743 68.0542C42.4855 68.2322 42.0516 67.9169 42.1006 67.4921L42.4081 64.8319C42.4264 64.6735 42.3749 64.5149 42.2669 64.3974L40.4546 62.426C40.1652 62.1112 40.3309 61.6011 40.7501 61.5165L43.3751 60.9868C43.5315 60.9553 43.6664 60.8573 43.7447 60.7183L45.0596 58.3855Z" fill="url(#paint12_linear_10289_25022)"/>
<path d="M76.4558 58.3855C76.6658 58.013 77.2022 58.013 77.4121 58.3855L78.727 60.7183C78.8054 60.8573 78.9403 60.9553 79.0966 60.9868L81.7216 61.5165C82.1408 61.6011 82.3065 62.1112 82.0171 62.426L80.2048 64.3974C80.0968 64.5149 80.0453 64.6735 80.0636 64.8319L80.3711 67.4921C80.4202 67.9169 79.9862 68.2322 79.5974 68.0542L77.1624 66.9398C77.0174 66.8734 76.8506 66.8734 76.7055 66.9398L74.2706 68.0542C73.8818 68.2322 73.4478 67.9169 73.4969 67.4921L73.8043 64.8319C73.8226 64.6735 73.7711 64.5149 73.6632 64.3974L71.8508 62.426C71.5614 62.1112 71.7272 61.6011 72.1463 61.5165L74.7713 60.9868C74.9277 60.9553 75.0626 60.8573 75.1409 60.7183L76.4558 58.3855Z" fill="url(#paint13_linear_10289_25022)"/>
<path d="M10.0237 40.4717C9.63916 39.9429 10.0169 39.2012 10.6707 39.2012H114.729C115.383 39.2012 115.761 39.9429 115.376 40.4717L110.825 46.7307C110.621 47.0112 110.621 47.3912 110.825 47.6717L115.376 53.9307C115.761 54.4595 115.383 55.2012 114.729 55.2012H10.6707C10.0169 55.2012 9.63916 54.4595 10.0237 53.9307L14.5748 47.6717C14.7788 47.3912 14.7788 47.0112 14.5748 46.7307L10.0237 40.4717Z" fill="url(#paint14_linear_10289_25022)"/>
<path d="M18.1819 48.2328C17.9548 48.2328 17.7694 48.1536 17.6256 47.9953C17.4819 47.837 17.4194 47.6453 17.4381 47.4203C17.459 47.1995 17.5569 47.0109 17.7319 46.8547C17.9069 46.6984 18.1069 46.6203 18.3319 46.6203C18.5465 46.6203 18.7267 46.6984 18.8725 46.8547C19.0204 47.0109 19.084 47.1995 19.0631 47.4203C19.0506 47.5703 18.9996 47.7068 18.91 47.8297C18.8225 47.9526 18.7142 48.0505 18.585 48.1234C18.4558 48.1964 18.3215 48.2328 18.1819 48.2328ZM22.8819 50.2266H21.2194L24.4413 43.8266H26.5006L27.5975 50.2266H25.935L25.2319 45.4391H25.1819L22.8819 50.2266ZM23.0819 47.7078H26.5569L26.3569 48.8828H22.8819L23.0819 47.7078ZM34.4671 46.1453H32.9233C32.9316 45.9828 32.916 45.838 32.8764 45.7109C32.8368 45.5818 32.7743 45.4713 32.6889 45.3797C32.6035 45.2859 32.4973 45.2151 32.3702 45.1672C32.2431 45.1193 32.0952 45.0953 31.9264 45.0953C31.6035 45.0953 31.3108 45.1755 31.0483 45.3359C30.7858 45.4963 30.566 45.7276 30.3889 46.0297C30.2118 46.3318 30.0879 46.6943 30.017 47.1172C29.9525 47.5255 29.9535 47.8661 30.0202 48.1391C30.0889 48.412 30.216 48.6172 30.4014 48.7547C30.5868 48.8901 30.8223 48.9578 31.1077 48.9578C31.2931 48.9578 31.465 48.9359 31.6233 48.8922C31.7837 48.8464 31.9285 48.7807 32.0577 48.6953C32.1868 48.6099 32.2983 48.5068 32.392 48.3859C32.4879 48.263 32.5618 48.1266 32.6139 47.9766H34.1702C34.0931 48.2578 33.966 48.538 33.7889 48.8172C33.6139 49.0943 33.3931 49.3453 33.1264 49.5703C32.8598 49.7953 32.5504 49.9755 32.1983 50.1109C31.8462 50.2464 31.4545 50.3141 31.0233 50.3141C30.4337 50.3141 29.9254 50.1818 29.4983 49.9172C29.0733 49.6526 28.766 49.2693 28.5764 48.7672C28.3889 48.263 28.3535 47.6526 28.4702 46.9359C28.5848 46.2422 28.8108 45.6578 29.1483 45.1828C29.4879 44.7078 29.9004 44.3484 30.3858 44.1047C30.8733 43.8609 31.3931 43.7391 31.9452 43.7391C32.3452 43.7391 32.7046 43.7932 33.0233 43.9016C33.3441 44.0078 33.616 44.1641 33.8389 44.3703C34.0618 44.5745 34.2275 44.8255 34.3358 45.1234C34.4462 45.4213 34.49 45.762 34.4671 46.1453ZM41.1616 46.1453H39.6178C39.6262 45.9828 39.6105 45.838 39.571 45.7109C39.5314 45.5818 39.4689 45.4713 39.3835 45.3797C39.298 45.2859 39.1918 45.2151 39.0647 45.1672C38.9376 45.1193 38.7897 45.0953 38.621 45.0953C38.298 45.0953 38.0053 45.1755 37.7428 45.3359C37.4803 45.4963 37.2605 45.7276 37.0835 46.0297C36.9064 46.3318 36.7824 46.6943 36.7116 47.1172C36.647 47.5255 36.648 47.8661 36.7147 48.1391C36.7835 48.412 36.9105 48.6172 37.096 48.7547C37.2814 48.8901 37.5168 48.9578 37.8022 48.9578C37.9876 48.9578 38.1595 48.9359 38.3178 48.8922C38.4783 48.8464 38.623 48.7807 38.7522 48.6953C38.8814 48.6099 38.9928 48.5068 39.0866 48.3859C39.1824 48.263 39.2564 48.1266 39.3085 47.9766H40.8647C40.7876 48.2578 40.6606 48.538 40.4835 48.8172C40.3085 49.0943 40.0876 49.3453 39.821 49.5703C39.5543 49.7953 39.2449 49.9755 38.8928 50.1109C38.5408 50.2464 38.1491 50.3141 37.7178 50.3141C37.1283 50.3141 36.6199 50.1818 36.1928 49.9172C35.7678 49.6526 35.4605 49.2693 35.271 48.7672C35.0835 48.263 35.048 47.6526 35.1647 46.9359C35.2793 46.2422 35.5053 45.6578 35.8428 45.1828C36.1824 44.7078 36.5949 44.3484 37.0803 44.1047C37.5678 43.8609 38.0876 43.7391 38.6397 43.7391C39.0397 43.7391 39.3991 43.7932 39.7178 43.9016C40.0387 44.0078 40.3105 44.1641 40.5335 44.3703C40.7564 44.5745 40.922 44.8255 41.0303 45.1234C41.1408 45.4213 41.1845 45.762 41.1616 46.1453ZM46.3093 43.8266H47.853L47.1686 47.9547C47.0895 48.4318 46.9072 48.8474 46.6218 49.2016C46.3384 49.5536 45.977 49.8266 45.5374 50.0203C45.0978 50.212 44.6082 50.3078 44.0686 50.3078C43.527 50.3078 43.0697 50.212 42.6968 50.0203C42.3238 49.8266 42.054 49.5536 41.8874 49.2016C41.7207 48.8474 41.6759 48.4318 41.753 47.9547L42.4374 43.8266H43.9843L43.3186 47.8203C43.2832 48.0411 43.2999 48.238 43.3686 48.4109C43.4395 48.5818 43.554 48.7172 43.7124 48.8172C43.8707 48.9151 44.0645 48.9641 44.2936 48.9641C44.5249 48.9641 44.7363 48.9151 44.928 48.8172C45.1197 48.7172 45.278 48.5818 45.403 48.4109C45.528 48.238 45.6082 48.0411 45.6436 47.8203L46.3093 43.8266ZM48.8225 43.8266H50.7382L51.7069 47.7891H51.7819L54.0632 43.8266H55.9788L54.9163 50.2266H53.41L54.0632 46.2953H54.01L51.8288 50.1859H50.8694L49.9819 46.2734H49.9288L49.2663 50.2266H47.76L48.8225 43.8266ZM60.8155 43.8266H62.3593L61.6749 47.9547C61.5957 48.4318 61.4134 48.8474 61.128 49.2016C60.8447 49.5536 60.4832 49.8266 60.0436 50.0203C59.6041 50.212 59.1145 50.3078 58.5749 50.3078C58.0332 50.3078 57.5759 50.212 57.203 50.0203C56.8301 49.8266 56.5603 49.5536 56.3936 49.2016C56.227 48.8474 56.1822 48.4318 56.2593 47.9547L56.9436 43.8266H58.4905L57.8249 47.8203C57.7895 48.0411 57.8061 48.238 57.8749 48.4109C57.9457 48.5818 58.0603 48.7172 58.2186 48.8172C58.377 48.9151 58.5707 48.9641 58.7999 48.9641C59.0311 48.9641 59.2426 48.9151 59.4343 48.8172C59.6259 48.7172 59.7843 48.5818 59.9093 48.4109C60.0343 48.238 60.1145 48.0411 60.1499 47.8203L60.8155 43.8266ZM62.2663 50.2266L63.3288 43.8266H64.8757L64.0257 48.9703H66.6882L66.4757 50.2266H62.2663ZM68.7468 50.2266H67.0843L70.3062 43.8266H72.3655L73.4624 50.2266H71.7999L71.0968 45.4391H71.0468L68.7468 50.2266ZM68.9468 47.7078H72.4218L72.2218 48.8828H68.7468L68.9468 47.7078ZM73.9929 45.0828L74.2054 43.8266H79.6148L79.4023 45.0828H77.4616L76.6116 50.2266H75.0866L75.9366 45.0828H73.9929ZM85.5718 47.1266C85.4551 47.8161 85.226 48.3984 84.8843 48.8734C84.5447 49.3464 84.1312 49.7047 83.6437 49.9484C83.1583 50.1922 82.6364 50.3141 82.0781 50.3141C81.4885 50.3141 80.978 50.1828 80.5468 49.9203C80.1155 49.6578 79.802 49.2755 79.6062 48.7734C79.4124 48.2714 79.3749 47.662 79.4937 46.9453C79.6062 46.2557 79.8322 45.6724 80.1718 45.1953C80.5135 44.7182 80.9291 44.3568 81.4187 44.1109C81.9103 43.863 82.4374 43.7391 82.9999 43.7391C83.5853 43.7391 84.0926 43.8713 84.5218 44.1359C84.9531 44.4005 85.2656 44.7849 85.4593 45.2891C85.6531 45.7932 85.6906 46.4057 85.5718 47.1266ZM84.0249 46.9453C84.0895 46.5432 84.0895 46.2047 84.0249 45.9297C83.9624 45.6547 83.8395 45.4474 83.6562 45.3078C83.4728 45.1661 83.2343 45.0953 82.9406 45.0953C82.6156 45.0953 82.3218 45.1755 82.0593 45.3359C81.7989 45.4943 81.5812 45.7255 81.4062 46.0297C81.2312 46.3318 81.1093 46.6974 81.0405 47.1266C80.9697 47.5328 80.9676 47.8714 81.0343 48.1422C81.103 48.413 81.2312 48.6172 81.4187 48.7547C81.6062 48.8901 81.8447 48.9578 82.1343 48.9578C82.4572 48.9578 82.7478 48.8797 83.0062 48.7234C83.2645 48.5672 83.4801 48.3391 83.6531 48.0391C83.8281 47.7391 83.952 47.3745 84.0249 46.9453ZM92.5156 47.1266C92.3989 47.8161 92.1697 48.3984 91.8281 48.8734C91.4885 49.3464 91.0749 49.7047 90.5874 49.9484C90.102 50.1922 89.5801 50.3141 89.0218 50.3141C88.4322 50.3141 87.9218 50.1828 87.4906 49.9203C87.0593 49.6578 86.7458 49.2755 86.5499 48.7734C86.3562 48.2714 86.3187 47.662 86.4374 46.9453C86.5499 46.2557 86.776 45.6724 87.1156 45.1953C87.4572 44.7182 87.8729 44.3568 88.3624 44.1109C88.8541 43.863 89.3812 43.7391 89.9437 43.7391C90.5291 43.7391 91.0364 43.8713 91.4656 44.1359C91.8968 44.4005 92.2093 44.7849 92.4031 45.2891C92.5968 45.7932 92.6343 46.4057 92.5156 47.1266ZM90.9687 46.9453C91.0333 46.5432 91.0333 46.2047 90.9687 45.9297C90.9062 45.6547 90.7833 45.4474 90.5999 45.3078C90.4166 45.1661 90.1781 45.0953 89.8843 45.0953C89.5593 45.0953 89.2656 45.1755 89.0031 45.3359C88.7426 45.4943 88.5249 45.7255 88.3499 46.0297C88.1749 46.3318 88.0531 46.6974 87.9843 47.1266C87.9135 47.5328 87.9114 47.8714 87.9781 48.1422C88.0468 48.413 88.1749 48.6172 88.3624 48.7547C88.5499 48.8901 88.7885 48.9578 89.0781 48.9578C89.401 48.9578 89.6916 48.8797 89.9499 48.7234C90.2083 48.5672 90.4239 48.3391 90.5968 48.0391C90.7718 47.7391 90.8958 47.3745 90.9687 46.9453ZM92.9031 50.2266L93.9656 43.8266H96.6093C97.0885 43.8266 97.4885 43.913 97.8093 44.0859C98.1302 44.2568 98.3583 44.5026 98.4937 44.8234C98.6291 45.1422 98.6604 45.5203 98.5874 45.9578C98.5166 46.3995 98.3583 46.7755 98.1124 47.0859C97.8687 47.3943 97.5541 47.6297 97.1687 47.7922C96.7854 47.9547 96.3499 48.0359 95.8624 48.0359H94.1906L94.3968 46.8172H95.7812C96.0124 46.8172 96.2124 46.787 96.3812 46.7266C96.5499 46.6641 96.6843 46.5703 96.7843 46.4453C96.8864 46.3182 96.9541 46.1557 96.9874 45.9578C97.0187 45.7599 97.0041 45.5963 96.9437 45.4672C96.8854 45.3359 96.7822 45.238 96.6343 45.1734C96.4885 45.1068 96.301 45.0734 96.0718 45.0734H95.3093L94.4499 50.2266H92.9031ZM96.9906 47.3016L98.0999 50.2266H96.4124L95.3374 47.3016H96.9906ZM98.7984 50.2266L99.8609 43.8266H102.505C102.984 43.8266 103.384 43.913 103.705 44.0859C104.025 44.2568 104.254 44.5026 104.389 44.8234C104.524 45.1422 104.556 45.5203 104.483 45.9578C104.412 46.3995 104.254 46.7755 104.008 47.0859C103.764 47.3943 103.449 47.6297 103.064 47.7922C102.681 47.9547 102.245 48.0359 101.758 48.0359H100.086L100.292 46.8172H101.677C101.908 46.8172 102.108 46.787 102.277 46.7266C102.445 46.6641 102.58 46.5703 102.68 46.4453C102.782 46.3182 102.849 46.1557 102.883 45.9578C102.914 45.7599 102.899 45.5963 102.839 45.4672C102.781 45.3359 102.678 45.238 102.53 45.1734C102.384 45.1068 102.196 45.0734 101.967 45.0734H101.205L100.345 50.2266H98.7984ZM102.886 47.3016L103.995 50.2266H102.308L101.233 47.3016H102.886ZM107.841 48.2328C107.614 48.2328 107.428 48.1536 107.284 47.9953C107.141 47.837 107.078 47.6453 107.097 47.4203C107.118 47.1995 107.216 47.0109 107.391 46.8547C107.566 46.6984 107.766 46.6203 107.991 46.6203C108.205 46.6203 108.385 46.6984 108.531 46.8547C108.679 47.0109 108.743 47.1995 108.722 47.4203C108.709 47.5703 108.658 47.7068 108.569 47.8297C108.481 47.9526 108.373 48.0505 108.244 48.1234C108.115 48.1964 107.98 48.2328 107.841 48.2328Z" fill="white"/>
<path d="M42.8919 22.0526L41.8163 24.3168L43.2863 26.3472L41.0221 25.2717L38.9917 26.7416L40.0672 24.4775L38.5973 22.447L40.8614 23.5226L42.8919 22.0526Z" fill="white"/>
<path d="M79.7219 29.2987L78.6464 31.5629L80.1163 33.5933L77.8522 32.5178L75.8217 33.9877L76.8973 31.7236L75.4273 29.6931L77.6915 30.7687L79.7219 29.2987Z" fill="white"/>
<path d="M80.2843 12.4252L79.6319 13.7988L80.5236 15.0305L79.15 14.378L77.9183 15.2698L78.5708 13.8962L77.679 12.6645L79.0526 13.3169L80.2843 12.4252Z" fill="white"/>
<defs>
<linearGradient id="paint0_linear_10289_25022" x1="5.79676" y1="1.91627" x2="17.4138" y2="11.3045" gradientUnits="userSpaceOnUse">
<stop offset="0.03125" stop-color="#708FFE"/>
<stop offset="0.973958" stop-color="#37BBBB"/>
</linearGradient>
<linearGradient id="paint1_linear_10289_25022" x1="8.83558" y1="14.5501" x2="20.4526" y2="23.9383" gradientUnits="userSpaceOnUse">
<stop offset="0.03125" stop-color="#708FFE"/>
<stop offset="0.973958" stop-color="#37BBBB"/>
</linearGradient>
<linearGradient id="paint2_linear_10289_25022" x1="12.1959" y1="27.1838" x2="23.813" y2="36.5721" gradientUnits="userSpaceOnUse">
<stop offset="0.03125" stop-color="#708FFE"/>
<stop offset="0.973958" stop-color="#37BBBB"/>
</linearGradient>
<linearGradient id="paint3_linear_10289_25022" x1="117.203" y1="1.91627" x2="105.586" y2="11.3045" gradientUnits="userSpaceOnUse">
<stop offset="0.03125" stop-color="#708FFE"/>
<stop offset="0.973958" stop-color="#37BBBB"/>
</linearGradient>
<linearGradient id="paint4_linear_10289_25022" x1="114.164" y1="14.5501" x2="102.547" y2="23.9383" gradientUnits="userSpaceOnUse">
<stop offset="0.03125" stop-color="#708FFE"/>
<stop offset="0.973958" stop-color="#37BBBB"/>
</linearGradient>
<linearGradient id="paint5_linear_10289_25022" x1="110.804" y1="27.1838" x2="99.187" y2="36.5721" gradientUnits="userSpaceOnUse">
<stop offset="0.03125" stop-color="#708FFE"/>
<stop offset="0.973958" stop-color="#37BBBB"/>
</linearGradient>
<linearGradient id="paint6_linear_10289_25022" x1="61.2207" y1="3.19727" x2="61.2207" y2="89.5371" gradientUnits="userSpaceOnUse">
<stop stop-color="#232859"/>
<stop offset="1" stop-color="#232859"/>
</linearGradient>
<linearGradient id="paint7_linear_10289_25022" x1="27.6659" y1="18.477" x2="94.3922" y2="19.5243" gradientUnits="userSpaceOnUse">
<stop stop-color="#37BBBB"/>
<stop offset="1" stop-color="#708FFE"/>
</linearGradient>
<linearGradient id="paint8_linear_10289_25022" x1="30.7149" y1="20.711" x2="91.7379" y2="21.6745" gradientUnits="userSpaceOnUse">
<stop stop-color="#37BBBB"/>
<stop offset="1" stop-color="#708FFE"/>
</linearGradient>
<linearGradient id="paint9_linear_10289_25022" x1="51.2187" y1="16.3781" x2="70.826" y2="16.7131" gradientUnits="userSpaceOnUse">
<stop stop-color="#37BBBB"/>
<stop offset="1" stop-color="#708FFE"/>
</linearGradient>
<linearGradient id="paint10_linear_10289_25022" x1="51.2187" y1="16.3781" x2="70.826" y2="16.7131" gradientUnits="userSpaceOnUse">
<stop stop-color="#37BBBB"/>
<stop offset="1" stop-color="#708FFE"/>
</linearGradient>
<linearGradient id="paint11_linear_10289_25022" x1="54.7631" y1="63.1245" x2="68.2678" y2="64.5803" gradientUnits="userSpaceOnUse">
<stop offset="0.0985558" stop-color="#D8FF20"/>
<stop offset="1" stop-color="#99F7F4"/>
</linearGradient>
<linearGradient id="paint12_linear_10289_25022" x1="39.0648" y1="56.5308" x2="52.5544" y2="58.0543" gradientUnits="userSpaceOnUse">
<stop offset="0.0985558" stop-color="#D8FF20"/>
<stop offset="1" stop-color="#99F7F4"/>
</linearGradient>
<linearGradient id="paint13_linear_10289_25022" x1="70.4611" y1="56.5308" x2="83.9507" y2="58.0543" gradientUnits="userSpaceOnUse">
<stop offset="0.0985558" stop-color="#D8FF20"/>
<stop offset="1" stop-color="#99F7F4"/>
</linearGradient>
<linearGradient id="paint14_linear_10289_25022" x1="11.7799" y1="42.0327" x2="111.417" y2="54.8391" gradientUnits="userSpaceOnUse">
<stop stop-color="#37BBBB"/>
<stop offset="1" stop-color="#708FFE"/>
</linearGradient>
</defs>
</svg>
