<svg width="108" height="90" viewBox="0 0 108 90" fill="none" xmlns="http://www.w3.org/2000/svg">
<path d="M26.0456 1.39206C21.3772 1.39206 17.5927 5.17653 17.5927 9.8449V60.7956C17.5927 63.576 18.96 66.1786 21.2495 67.7561L49.325 87.1012C52.2128 89.091 56.0293 89.091 58.9171 87.1012L86.9926 67.7561C89.2821 66.1786 90.6494 63.576 90.6494 60.7956V9.8449C90.6494 5.17653 86.8649 1.39206 82.1965 1.39206H26.0456Z" fill="url(#paint0_linear_10289_25045)" stroke="url(#paint1_linear_10289_25045)" stroke-width="2.4151"/>
<path d="M22.0001 11.0529C22.0001 8.55194 24.0275 6.52454 26.5284 6.52454H81.4718C83.9727 6.52454 86.0001 8.55194 86.0001 11.0529V60.0423C86.0001 61.5363 85.2633 62.9341 84.0307 63.7783L56.5591 82.5948C55.0167 83.6512 52.9836 83.6512 51.4412 82.5948L23.9695 63.7783C22.737 62.9341 22.0001 61.5363 22.0001 60.0423V11.0529Z" stroke="url(#paint2_linear_10289_25045)" stroke-width="0.603774"/>
<path fill-rule="evenodd" clip-rule="evenodd" d="M44.3624 29.6565L46.8964 31.0803L46.8927 27.2003L50.3455 25.2529L50.3455 21.3692L53.8285 19.3876L53.7965 11.6562L48.3832 14.6949L44.3624 16.9582L44.3624 16.9601L43.4341 17.4818L43.4341 29.1329L44.3624 29.6565ZM53.8003 11.6599L53.8003 15.54L57.2513 13.5999L53.8003 11.6599ZM60.708 23.3129L57.2532 25.2529L57.2532 29.1421L53.7985 31.0821L53.7985 34.9603L63.6967 29.3956L64.159 29.1348L64.159 17.4836L63.6967 17.7445L63.6967 17.7464L63.6948 17.7445L60.708 19.4237L60.708 23.3129Z" fill="url(#paint3_linear_10289_25045)"/>
<path fill-rule="evenodd" clip-rule="evenodd" d="M60.738 23.2714L57.2832 25.2114L54.1135 23.4204L50.3756 21.3277L53.8285 19.3876L60.2757 23.0123L60.738 23.2714ZM64.1928 17.444L60.738 19.384L53.8303 15.5003L57.2813 13.5584L64.1928 17.444ZM46.9227 27.1587L50.3756 25.2187L57.2832 29.1024L53.8285 31.0424L46.9227 27.1587Z" fill="url(#paint4_linear_10289_25045)"/>
<path d="M53.215 64.4795C53.4222 64.0944 53.9746 64.0944 54.1817 64.4795L55.4941 66.9187C55.5706 67.061 55.7059 67.1623 55.864 67.1957L58.5229 67.7577C58.9335 67.8445 59.0987 68.3413 58.8219 68.6568L56.9587 70.78C56.8571 70.8958 56.8088 71.0491 56.8257 71.2022L57.1389 74.0411C57.1861 74.4692 56.7444 74.7824 56.356 74.5962L53.9357 73.4357C53.7857 73.3638 53.6111 73.3638 53.4611 73.4357L51.0408 74.5962C50.6524 74.7824 50.2106 74.4692 50.2579 74.0411L50.5711 71.2022C50.588 71.0491 50.5397 70.8958 50.438 70.78L48.5749 68.6568C48.298 68.3413 48.4633 67.8445 48.8739 67.7577L51.5328 67.1957C51.6908 67.1623 51.8261 67.061 51.9026 66.9187L53.215 64.4795Z" fill="url(#paint5_linear_10289_25045)"/>
<path d="M37.522 57.7878C37.7319 57.4153 38.2683 57.4153 38.4783 57.7878L39.7932 60.1207C39.8715 60.2596 40.0064 60.3576 40.1628 60.3892L42.7878 60.9188C43.2069 61.0034 43.3727 61.5136 43.0833 61.8283L41.271 63.7998C41.163 63.9172 41.1115 64.0758 41.1298 64.2343L41.4372 66.8945C41.4863 67.3192 41.0524 67.6345 40.6635 67.4566L38.2286 66.3421C38.0835 66.2758 37.9168 66.2758 37.7717 66.3421L35.3367 67.4566C34.9479 67.6345 34.514 67.3192 34.563 66.8945L34.8705 64.2343C34.8888 64.0758 34.8373 63.9172 34.7293 63.7998L32.917 61.8283C32.6276 61.5136 32.7933 61.0034 33.2125 60.9188L35.8375 60.3892C35.9939 60.3576 36.1288 60.2596 36.2071 60.1207L37.522 57.7878Z" fill="url(#paint6_linear_10289_25045)"/>
<path d="M68.9182 57.7878C69.1282 57.4153 69.6646 57.4153 69.8745 57.7878L71.1894 60.1207C71.2678 60.2596 71.4027 60.3576 71.559 60.3892L74.184 60.9188C74.6032 61.0034 74.7689 61.5136 74.4795 61.8283L72.6672 63.7998C72.5592 63.9172 72.5077 64.0758 72.526 64.2343L72.8335 66.8945C72.8826 67.3192 72.4486 67.6345 72.0598 67.4566L69.6248 66.3421C69.4798 66.2758 69.313 66.2758 69.168 66.3421L66.733 67.4566C66.3442 67.6345 65.9102 67.3192 65.9593 66.8945L66.2667 64.2343C66.285 64.0758 66.2335 63.9172 66.1256 63.7998L64.3132 61.8283C64.0238 61.5136 64.1896 61.0034 64.6087 60.9188L67.2337 60.3892C67.3901 60.3576 67.525 60.2596 67.6033 60.1207L68.9182 57.7878Z" fill="#515899"/>
<path d="M1.32395 39.0713C0.939455 38.5425 1.31719 37.8008 1.97098 37.8008H106.029C106.683 37.8008 107.061 38.5425 106.676 39.0713L102.125 45.3303C101.921 45.6108 101.921 45.9908 102.125 46.2713L106.676 52.5303C107.061 53.0591 106.683 53.8008 106.029 53.8008H1.97098C1.31719 53.8008 0.939455 53.0591 1.32395 52.5303L5.8751 46.2713C6.07906 45.9908 6.07906 45.6108 5.8751 45.3303L1.32395 39.0713Z" fill="url(#paint7_linear_10289_25045)"/>
<path d="M9.48217 46.8324C9.25508 46.8324 9.06967 46.7533 8.92592 46.5949C8.78217 46.4366 8.71967 46.2449 8.73842 46.0199C8.75925 45.7991 8.85717 45.6105 9.03217 45.4543C9.20717 45.298 9.40717 45.2199 9.63217 45.2199C9.84675 45.2199 10.027 45.298 10.1728 45.4543C10.3207 45.6105 10.3843 45.7991 10.3634 46.0199C10.3509 46.1699 10.2999 46.3064 10.2103 46.4293C10.1228 46.5522 10.0145 46.6501 9.88529 46.723C9.75613 46.796 9.62175 46.8324 9.48217 46.8324ZM14.1822 48.8262H12.5197L15.7416 42.4262H17.8009L18.8978 48.8262H17.2353L16.5322 44.0387H16.4822L14.1822 48.8262ZM14.3822 46.3074H17.8572L17.6572 47.4824H14.1822L14.3822 46.3074ZM25.7673 44.7449H24.2236C24.2319 44.5824 24.2163 44.4376 24.1767 44.3105C24.1371 44.1814 24.0746 44.071 23.9892 43.9793C23.9038 43.8855 23.7976 43.8147 23.6705 43.7668C23.5434 43.7189 23.3955 43.6949 23.2267 43.6949C22.9038 43.6949 22.6111 43.7751 22.3486 43.9355C22.0861 44.096 21.8663 44.3272 21.6892 44.6293C21.5121 44.9314 21.3882 45.2939 21.3173 45.7168C21.2528 46.1251 21.2538 46.4658 21.3205 46.7387C21.3892 47.0116 21.5163 47.2168 21.7017 47.3543C21.8871 47.4897 22.1225 47.5574 22.408 47.5574C22.5934 47.5574 22.7653 47.5355 22.9236 47.4918C23.084 47.446 23.2288 47.3803 23.358 47.2949C23.4871 47.2095 23.5986 47.1064 23.6923 46.9855C23.7882 46.8626 23.8621 46.7262 23.9142 46.5762H25.4705C25.3934 46.8574 25.2663 47.1376 25.0892 47.4168C24.9142 47.6939 24.6934 47.9449 24.4267 48.1699C24.1601 48.3949 23.8507 48.5751 23.4986 48.7105C23.1465 48.846 22.7548 48.9137 22.3236 48.9137C21.734 48.9137 21.2257 48.7814 20.7986 48.5168C20.3736 48.2522 20.0663 47.8689 19.8767 47.3668C19.6892 46.8626 19.6538 46.2522 19.7705 45.5355C19.885 44.8418 20.1111 44.2574 20.4486 43.7824C20.7882 43.3074 21.2007 42.948 21.6861 42.7043C22.1736 42.4605 22.6934 42.3387 23.2455 42.3387C23.6455 42.3387 24.0048 42.3928 24.3236 42.5012C24.6444 42.6074 24.9163 42.7637 25.1392 42.9699C25.3621 43.1741 25.5278 43.4251 25.6361 43.723C25.7465 44.021 25.7903 44.3616 25.7673 44.7449ZM32.4619 44.7449H30.9181C30.9265 44.5824 30.9108 44.4376 30.8713 44.3105C30.8317 44.1814 30.7692 44.071 30.6838 43.9793C30.5983 43.8855 30.4921 43.8147 30.365 43.7668C30.2379 43.7189 30.09 43.6949 29.9213 43.6949C29.5983 43.6949 29.3056 43.7751 29.0431 43.9355C28.7806 44.096 28.5608 44.3272 28.3838 44.6293C28.2067 44.9314 28.0827 45.2939 28.0119 45.7168C27.9473 46.1251 27.9483 46.4658 28.015 46.7387C28.0838 47.0116 28.2108 47.2168 28.3963 47.3543C28.5817 47.4897 28.8171 47.5574 29.1025 47.5574C29.2879 47.5574 29.4598 47.5355 29.6181 47.4918C29.7785 47.446 29.9233 47.3803 30.0525 47.2949C30.1817 47.2095 30.2931 47.1064 30.3869 46.9855C30.4827 46.8626 30.5567 46.7262 30.6088 46.5762H32.165C32.0879 46.8574 31.9608 47.1376 31.7838 47.4168C31.6088 47.6939 31.3879 47.9449 31.1213 48.1699C30.8546 48.3949 30.5452 48.5751 30.1931 48.7105C29.841 48.846 29.4494 48.9137 29.0181 48.9137C28.4285 48.9137 27.9202 48.7814 27.4931 48.5168C27.0681 48.2522 26.7608 47.8689 26.5713 47.3668C26.3838 46.8626 26.3483 46.2522 26.465 45.5355C26.5796 44.8418 26.8056 44.2574 27.1431 43.7824C27.4827 43.3074 27.8952 42.948 28.3806 42.7043C28.8681 42.4605 29.3879 42.3387 29.94 42.3387C30.34 42.3387 30.6994 42.3928 31.0181 42.5012C31.339 42.6074 31.6108 42.7637 31.8338 42.9699C32.0567 43.1741 32.2223 43.4251 32.3306 43.723C32.4411 44.021 32.4848 44.3616 32.4619 44.7449ZM37.6095 42.4262H39.1533L38.4689 46.5543C38.3898 47.0314 38.2075 47.447 37.922 47.8012C37.6387 48.1533 37.2773 48.4262 36.8377 48.6199C36.3981 48.8116 35.9085 48.9074 35.3689 48.9074C34.8273 48.9074 34.37 48.8116 33.997 48.6199C33.6241 48.4262 33.3543 48.1533 33.1877 47.8012C33.021 47.447 32.9762 47.0314 33.0533 46.5543L33.7377 42.4262H35.2845L34.6189 46.4199C34.5835 46.6408 34.6002 46.8376 34.6689 47.0105C34.7398 47.1814 34.8543 47.3168 35.0127 47.4168C35.171 47.5147 35.3648 47.5637 35.5939 47.5637C35.8252 47.5637 36.0366 47.5147 36.2283 47.4168C36.42 47.3168 36.5783 47.1814 36.7033 47.0105C36.8283 46.8376 36.9085 46.6408 36.9439 46.4199L37.6095 42.4262ZM40.1228 42.4262H42.0385L43.0072 46.3887H43.0822L45.3635 42.4262H47.2791L46.2166 48.8262H44.7103L45.3635 44.8949H45.3103L43.1291 48.7855H42.1697L41.2822 44.873H41.2291L40.5666 48.8262H39.0603L40.1228 42.4262ZM52.1158 42.4262H53.6596L52.9752 46.5543C52.896 47.0314 52.7137 47.447 52.4283 47.8012C52.145 48.1533 51.7835 48.4262 51.3439 48.6199C50.9044 48.8116 50.4148 48.9074 49.8752 48.9074C49.3335 48.9074 48.8762 48.8116 48.5033 48.6199C48.1304 48.4262 47.8606 48.1533 47.6939 47.8012C47.5273 47.447 47.4825 47.0314 47.5596 46.5543L48.2439 42.4262H49.7908L49.1252 46.4199C49.0898 46.6408 49.1064 46.8376 49.1752 47.0105C49.246 47.1814 49.3606 47.3168 49.5189 47.4168C49.6773 47.5147 49.871 47.5637 50.1002 47.5637C50.3314 47.5637 50.5429 47.5147 50.7346 47.4168C50.9262 47.3168 51.0846 47.1814 51.2096 47.0105C51.3346 46.8376 51.4148 46.6408 51.4502 46.4199L52.1158 42.4262ZM53.5666 48.8262L54.6291 42.4262H56.176L55.326 47.5699H57.9885L57.776 48.8262H53.5666ZM60.0471 48.8262H58.3846L61.6065 42.4262H63.6658L64.7627 48.8262H63.1002L62.3971 44.0387H62.3471L60.0471 48.8262ZM60.2471 46.3074H63.7221L63.5221 47.4824H60.0471L60.2471 46.3074ZM65.2932 43.6824L65.5057 42.4262H70.9151L70.7026 43.6824H68.7619L67.9119 48.8262H66.3869L67.2369 43.6824H65.2932ZM76.8721 45.7262C76.7554 46.4158 76.5263 46.998 76.1846 47.473C75.845 47.946 75.4315 48.3043 74.944 48.548C74.4586 48.7918 73.9367 48.9137 73.3783 48.9137C72.7888 48.9137 72.2783 48.7824 71.8471 48.5199C71.4158 48.2574 71.1023 47.8751 70.9065 47.373C70.7127 46.871 70.6752 46.2616 70.794 45.5449C70.9065 44.8553 71.1325 44.272 71.4721 43.7949C71.8138 43.3178 72.2294 42.9564 72.719 42.7105C73.2106 42.4626 73.7377 42.3387 74.3002 42.3387C74.8856 42.3387 75.3929 42.471 75.8221 42.7355C76.2533 43.0001 76.5658 43.3845 76.7596 43.8887C76.9533 44.3928 76.9908 45.0053 76.8721 45.7262ZM75.3252 45.5449C75.3898 45.1428 75.3898 44.8043 75.3252 44.5293C75.2627 44.2543 75.1398 44.047 74.9565 43.9074C74.7731 43.7657 74.5346 43.6949 74.2408 43.6949C73.9158 43.6949 73.6221 43.7751 73.3596 43.9355C73.0992 44.0939 72.8815 44.3251 72.7065 44.6293C72.5315 44.9314 72.4096 45.297 72.3408 45.7262C72.27 46.1324 72.2679 46.471 72.3346 46.7418C72.4033 47.0126 72.5315 47.2168 72.719 47.3543C72.9065 47.4897 73.145 47.5574 73.4346 47.5574C73.7575 47.5574 74.0481 47.4793 74.3065 47.323C74.5648 47.1668 74.7804 46.9387 74.9533 46.6387C75.1283 46.3387 75.2523 45.9741 75.3252 45.5449ZM83.8159 45.7262C83.6992 46.4158 83.47 46.998 83.1284 47.473C82.7888 47.946 82.3752 48.3043 81.8877 48.548C81.4023 48.7918 80.8804 48.9137 80.3221 48.9137C79.7325 48.9137 79.2221 48.7824 78.7909 48.5199C78.3596 48.2574 78.0461 47.8751 77.8502 47.373C77.6565 46.871 77.619 46.2616 77.7377 45.5449C77.8502 44.8553 78.0763 44.272 78.4159 43.7949C78.7575 43.3178 79.1731 42.9564 79.6627 42.7105C80.1544 42.4626 80.6815 42.3387 81.244 42.3387C81.8294 42.3387 82.3367 42.471 82.7659 42.7355C83.1971 43.0001 83.5096 43.3845 83.7034 43.8887C83.8971 44.3928 83.9346 45.0053 83.8159 45.7262ZM82.269 45.5449C82.3336 45.1428 82.3336 44.8043 82.269 44.5293C82.2065 44.2543 82.0836 44.047 81.9002 43.9074C81.7169 43.7657 81.4784 43.6949 81.1846 43.6949C80.8596 43.6949 80.5659 43.7751 80.3034 43.9355C80.0429 44.0939 79.8252 44.3251 79.6502 44.6293C79.4752 44.9314 79.3534 45.297 79.2846 45.7262C79.2138 46.1324 79.2117 46.471 79.2784 46.7418C79.3471 47.0126 79.4752 47.2168 79.6627 47.3543C79.8502 47.4897 80.0888 47.5574 80.3784 47.5574C80.7013 47.5574 80.9919 47.4793 81.2502 47.323C81.5086 47.1668 81.7242 46.9387 81.8971 46.6387C82.0721 46.3387 82.1961 45.9741 82.269 45.5449ZM84.2034 48.8262L85.2659 42.4262H87.9096C88.3888 42.4262 88.7888 42.5126 89.1096 42.6855C89.4304 42.8564 89.6586 43.1022 89.794 43.423C89.9294 43.7418 89.9607 44.1199 89.8877 44.5574C89.8169 44.9991 89.6586 45.3751 89.4127 45.6855C89.169 45.9939 88.8544 46.2293 88.469 46.3918C88.0857 46.5543 87.6502 46.6355 87.1627 46.6355H85.4909L85.6971 45.4168H87.0815C87.3127 45.4168 87.5127 45.3866 87.6815 45.3262C87.8502 45.2637 87.9846 45.1699 88.0846 45.0449C88.1867 44.9178 88.2544 44.7553 88.2877 44.5574C88.319 44.3595 88.3044 44.196 88.244 44.0668C88.1857 43.9355 88.0825 43.8376 87.9346 43.773C87.7888 43.7064 87.6013 43.673 87.3721 43.673H86.6096L85.7502 48.8262H84.2034ZM88.2909 45.9012L89.4002 48.8262H87.7127L86.6377 45.9012H88.2909ZM90.0987 48.8262L91.1612 42.4262H93.8049C94.2841 42.4262 94.6841 42.5126 95.0049 42.6855C95.3258 42.8564 95.5539 43.1022 95.6893 43.423C95.8247 43.7418 95.856 44.1199 95.7831 44.5574C95.7122 44.9991 95.5539 45.3751 95.3081 45.6855C95.0643 45.9939 94.7497 46.2293 94.3643 46.3918C93.981 46.5543 93.5456 46.6355 93.0581 46.6355H91.3862L91.5924 45.4168H92.9768C93.2081 45.4168 93.4081 45.3866 93.5768 45.3262C93.7456 45.2637 93.8799 45.1699 93.9799 45.0449C94.082 44.9178 94.1497 44.7553 94.1831 44.5574C94.2143 44.3595 94.1997 44.196 94.1393 44.0668C94.081 43.9355 93.9779 43.8376 93.8299 43.773C93.6841 43.7064 93.4966 43.673 93.2674 43.673H92.5049L91.6456 48.8262H90.0987ZM94.1862 45.9012L95.2956 48.8262H93.6081L92.5331 45.9012H94.1862ZM99.1409 46.8324C98.9138 46.8324 98.7284 46.7533 98.5846 46.5949C98.4409 46.4366 98.3784 46.2449 98.3971 46.0199C98.418 45.7991 98.5159 45.6105 98.6909 45.4543C98.8659 45.298 99.0659 45.2199 99.2909 45.2199C99.5055 45.2199 99.6857 45.298 99.8315 45.4543C99.9794 45.6105 100.043 45.7991 100.022 46.0199C100.01 46.1699 99.9586 46.3064 99.869 46.4293C99.7815 46.5522 99.6732 46.6501 99.544 46.723C99.4148 46.796 99.2805 46.8324 99.1409 46.8324Z" fill="white"/>
<path d="M35.792 21.455L34.7165 23.7192L36.1864 25.7496L33.9222 24.6741L31.8918 26.144L32.9673 23.8798L31.4974 21.8494L33.7616 22.9249L35.792 21.455Z" fill="white"/>
<path d="M72.6223 28.7011L71.5468 30.9653L73.0167 32.9957L70.7526 31.9202L68.7221 33.3901L69.7977 31.1259L68.3277 29.0955L70.5919 30.171L72.6223 28.7011Z" fill="white"/>
<path d="M73.1845 11.8275L72.532 13.2011L73.4237 14.4328L72.0502 13.7804L70.8185 14.6721L71.4709 13.2985L70.5792 12.0668L71.9527 12.7193L73.1845 11.8275Z" fill="white"/>
<defs>
<linearGradient id="paint0_linear_10289_25045" x1="54.121" y1="2.59961" x2="54.121" y2="88.9395" gradientUnits="userSpaceOnUse">
<stop stop-color="#232859"/>
<stop offset="1" stop-color="#232859"/>
</linearGradient>
<linearGradient id="paint1_linear_10289_25045" x1="20.5663" y1="17.8794" x2="87.2926" y2="18.9267" gradientUnits="userSpaceOnUse">
<stop stop-color="#37BBBB"/>
<stop offset="1" stop-color="#708FFE"/>
</linearGradient>
<linearGradient id="paint2_linear_10289_25045" x1="23.3133" y1="20.1133" x2="84.3363" y2="21.0769" gradientUnits="userSpaceOnUse">
<stop stop-color="#37BBBB"/>
<stop offset="1" stop-color="#708FFE"/>
</linearGradient>
<linearGradient id="paint3_linear_10289_25045" x1="43.9531" y1="15.7804" x2="63.5603" y2="16.1154" gradientUnits="userSpaceOnUse">
<stop stop-color="#37BBBB"/>
<stop offset="1" stop-color="#708FFE"/>
</linearGradient>
<linearGradient id="paint4_linear_10289_25045" x1="43.9531" y1="15.7804" x2="63.5603" y2="16.1154" gradientUnits="userSpaceOnUse">
<stop stop-color="#37BBBB"/>
<stop offset="1" stop-color="#708FFE"/>
</linearGradient>
<linearGradient id="paint5_linear_10289_25045" x1="47.2255" y1="62.5268" x2="60.7302" y2="63.9827" gradientUnits="userSpaceOnUse">
<stop offset="0.0985558" stop-color="#D8FF20"/>
<stop offset="1" stop-color="#99F7F4"/>
</linearGradient>
<linearGradient id="paint6_linear_10289_25045" x1="31.5273" y1="55.9332" x2="45.0168" y2="57.4566" gradientUnits="userSpaceOnUse">
<stop offset="0.0985558" stop-color="#D8FF20"/>
<stop offset="1" stop-color="#99F7F4"/>
</linearGradient>
<linearGradient id="paint7_linear_10289_25045" x1="3.08015" y1="40.6323" x2="102.718" y2="53.4387" gradientUnits="userSpaceOnUse">
<stop stop-color="#37BBBB"/>
<stop offset="1" stop-color="#708FFE"/>
</linearGradient>
</defs>
</svg>
