<svg width="96" height="90" viewBox="0 0 96 90" fill="none" xmlns="http://www.w3.org/2000/svg">
<path d="M19.9245 1.39206C15.2561 1.39206 11.4717 5.17653 11.4717 9.8449V60.7956C11.4717 63.576 12.8389 66.1786 15.1284 67.7561L43.2039 87.1012C46.0917 89.091 49.9082 89.091 52.796 87.1012L80.8715 67.7561C83.161 66.1786 84.5283 63.576 84.5283 60.7956V9.8449C84.5283 5.17653 80.7438 1.39206 76.0754 1.39206H19.9245Z" fill="url(#paint0_linear_10289_24934)" stroke="url(#paint1_linear_10289_24934)" stroke-width="2.4151"/>
<path d="M16.0001 11.0529C16.0001 8.55194 18.0275 6.52454 20.5284 6.52454H75.4718C77.9727 6.52454 80.0001 8.55194 80.0001 11.0529V60.0423C80.0001 61.5363 79.2633 62.9341 78.0307 63.7783L50.5591 82.5948C49.0167 83.6512 46.9836 83.6512 45.4412 82.5948L17.9695 63.7783C16.737 62.9341 16.0001 61.5363 16.0001 60.0423V11.0529Z" stroke="url(#paint2_linear_10289_24934)" stroke-width="0.603774"/>
<path fill-rule="evenodd" clip-rule="evenodd" d="M38.3624 29.6565L40.8964 31.0803L40.8927 27.2003L44.3455 25.2529L44.3455 21.3692L47.8285 19.3876L47.7965 11.6562L42.3832 14.6949L38.3624 16.9582L38.3624 16.9601L37.4341 17.4818L37.4341 29.1329L38.3624 29.6565ZM47.8003 11.6599L47.8003 15.54L51.2513 13.5999L47.8003 11.6599ZM54.708 23.3129L51.2532 25.2529L51.2532 29.1421L47.7985 31.0821L47.7985 34.9603L57.6967 29.3956L58.159 29.1348L58.159 17.4836L57.6967 17.7445L57.6967 17.7464L57.6948 17.7445L54.708 19.4237L54.708 23.3129Z" fill="url(#paint3_linear_10289_24934)"/>
<path fill-rule="evenodd" clip-rule="evenodd" d="M54.738 23.2714L51.2832 25.2114L48.1135 23.4204L44.3756 21.3277L47.8285 19.3876L54.2757 23.0123L54.738 23.2714ZM58.1928 17.444L54.738 19.384L47.8303 15.5003L51.2813 13.5584L58.1928 17.444ZM40.9227 27.1587L44.3756 25.2187L51.2832 29.1024L47.8285 31.0424L40.9227 27.1587Z" fill="url(#paint4_linear_10289_24934)"/>
<path d="M47.1918 64.5223C47.4088 64.1188 47.9875 64.1188 48.2045 64.5223L49.4881 66.908C49.5683 67.0571 49.71 67.1632 49.8756 67.1982L52.4789 67.7485C52.9091 67.8394 53.0822 68.3599 52.7922 68.6903L50.9661 70.7713C50.8596 70.8927 50.809 71.0532 50.8267 71.2137L51.1335 73.9943C51.183 74.4428 50.7202 74.771 50.3133 74.5759L47.9467 73.4412C47.7896 73.3658 47.6067 73.3658 47.4495 73.4412L45.083 74.5759C44.6761 74.771 44.2133 74.4428 44.2628 73.9943L44.5695 71.2137C44.5873 71.0532 44.5367 70.8927 44.4302 70.7713L42.6041 68.6903C42.3141 68.3599 42.4872 67.8394 42.9174 67.7485L45.5207 67.1982C45.6862 67.1632 45.828 67.0571 45.9082 66.908L47.1918 64.5223Z" fill="#515899"/>
<path d="M31.522 57.7878C31.7319 57.4153 32.2683 57.4153 32.4783 57.7878L33.7932 60.1207C33.8715 60.2596 34.0064 60.3576 34.1628 60.3892L36.7878 60.9188C37.2069 61.0034 37.3727 61.5136 37.0833 61.8283L35.271 63.7998C35.163 63.9172 35.1115 64.0758 35.1298 64.2343L35.4372 66.8945C35.4863 67.3192 35.0524 67.6345 34.6635 67.4566L32.2286 66.3421C32.0835 66.2758 31.9168 66.2758 31.7717 66.3421L29.3367 67.4566C28.9479 67.6345 28.514 67.3192 28.563 66.8945L28.8705 64.2343C28.8888 64.0758 28.8373 63.9172 28.7293 63.7998L26.917 61.8283C26.6276 61.5136 26.7933 61.0034 27.2125 60.9188L29.8375 60.3892C29.9939 60.3576 30.1288 60.2596 30.2071 60.1207L31.522 57.7878Z" fill="url(#paint5_linear_10289_24934)"/>
<path d="M62.9182 57.7878C63.1282 57.4153 63.6646 57.4153 63.8745 57.7878L65.1894 60.1207C65.2678 60.2596 65.4027 60.3576 65.559 60.3892L68.184 60.9188C68.6032 61.0034 68.7689 61.5136 68.4795 61.8283L66.6672 63.7998C66.5592 63.9172 66.5077 64.0758 66.526 64.2343L66.8335 66.8945C66.8826 67.3192 66.4486 67.6345 66.0598 67.4566L63.6248 66.3421C63.4798 66.2758 63.313 66.2758 63.168 66.3421L60.733 67.4566C60.3442 67.6345 59.9102 67.3192 59.9593 66.8945L60.2667 64.2343C60.285 64.0758 60.2335 63.9172 60.1256 63.7998L58.3132 61.8283C58.0238 61.5136 58.1896 61.0034 58.6087 60.9188L61.2337 60.3892C61.3901 60.3576 61.525 60.2596 61.6033 60.1207L62.9182 57.7878Z" fill="#515899"/>
<rect y="38.2227" width="96" height="16" rx="0.800001" fill="url(#paint6_linear_10289_24934)"/>
<path d="M5.82973 46.8324C5.60265 46.8324 5.41723 46.7533 5.27348 46.5949C5.12973 46.4366 5.06723 46.2449 5.08598 46.0199C5.10681 45.7991 5.20473 45.6105 5.37973 45.4543C5.55473 45.298 5.75473 45.2199 5.97973 45.2199C6.19432 45.2199 6.37452 45.298 6.52036 45.4543C6.66827 45.6105 6.73182 45.7991 6.71098 46.0199C6.69848 46.1699 6.64744 46.3064 6.55786 46.4293C6.47036 46.5522 6.36202 46.6501 6.23286 46.723C6.10369 46.796 5.96932 46.8324 5.82973 46.8324ZM10.5297 48.8262H8.86724L12.0891 42.4262H14.1485L15.2454 48.8262H13.5829L12.8797 44.0387H12.8297L10.5297 48.8262ZM10.7297 46.3074H14.2047L14.0047 47.4824H10.5297L10.7297 46.3074ZM22.1149 44.7449H20.5712C20.5795 44.5824 20.5639 44.4376 20.5243 44.3105C20.4847 44.1814 20.4222 44.071 20.3368 43.9793C20.2514 43.8855 20.1451 43.8147 20.018 43.7668C19.8909 43.7189 19.743 43.6949 19.5743 43.6949C19.2514 43.6949 18.9587 43.7751 18.6962 43.9355C18.4337 44.096 18.2139 44.3272 18.0368 44.6293C17.8597 44.9314 17.7357 45.2939 17.6649 45.7168C17.6003 46.1251 17.6014 46.4658 17.668 46.7387C17.7368 47.0116 17.8639 47.2168 18.0493 47.3543C18.2347 47.4897 18.4701 47.5574 18.7555 47.5574C18.9409 47.5574 19.1128 47.5355 19.2712 47.4918C19.4316 47.446 19.5764 47.3803 19.7055 47.2949C19.8347 47.2095 19.9462 47.1064 20.0399 46.9855C20.1357 46.8626 20.2097 46.7262 20.2618 46.5762H21.818C21.741 46.8574 21.6139 47.1376 21.4368 47.4168C21.2618 47.6939 21.041 47.9449 20.7743 48.1699C20.5076 48.3949 20.1982 48.5751 19.8462 48.7105C19.4941 48.846 19.1024 48.9137 18.6712 48.9137C18.0816 48.9137 17.5732 48.7814 17.1462 48.5168C16.7212 48.2522 16.4139 47.8689 16.2243 47.3668C16.0368 46.8626 16.0014 46.2522 16.118 45.5355C16.2326 44.8418 16.4587 44.2574 16.7962 43.7824C17.1357 43.3074 17.5482 42.948 18.0337 42.7043C18.5212 42.4605 19.0409 42.3387 19.593 42.3387C19.993 42.3387 20.3524 42.3928 20.6712 42.5012C20.992 42.6074 21.2639 42.7637 21.4868 42.9699C21.7097 43.1741 21.8753 43.4251 21.9837 43.723C22.0941 44.021 22.1378 44.3616 22.1149 44.7449ZM28.8095 44.7449H27.2657C27.274 44.5824 27.2584 44.4376 27.2188 44.3105C27.1792 44.1814 27.1167 44.071 27.0313 43.9793C26.9459 43.8855 26.8397 43.8147 26.7126 43.7668C26.5855 43.7189 26.4376 43.6949 26.2688 43.6949C25.9459 43.6949 25.6532 43.7751 25.3907 43.9355C25.1282 44.096 24.9084 44.3272 24.7313 44.6293C24.5542 44.9314 24.4303 45.2939 24.3594 45.7168C24.2949 46.1251 24.2959 46.4658 24.3626 46.7387C24.4313 47.0116 24.5584 47.2168 24.7438 47.3543C24.9292 47.4897 25.1647 47.5574 25.4501 47.5574C25.6355 47.5574 25.8074 47.5355 25.9657 47.4918C26.1261 47.446 26.2709 47.3803 26.4001 47.2949C26.5292 47.2095 26.6407 47.1064 26.7344 46.9855C26.8303 46.8626 26.9042 46.7262 26.9563 46.5762H28.5126C28.4355 46.8574 28.3084 47.1376 28.1313 47.4168C27.9563 47.6939 27.7355 47.9449 27.4688 48.1699C27.2022 48.3949 26.8928 48.5751 26.5407 48.7105C26.1886 48.846 25.7969 48.9137 25.3657 48.9137C24.7761 48.9137 24.2678 48.7814 23.8407 48.5168C23.4157 48.2522 23.1084 47.8689 22.9188 47.3668C22.7313 46.8626 22.6959 46.2522 22.8126 45.5355C22.9272 44.8418 23.1532 44.2574 23.4907 43.7824C23.8303 43.3074 24.2428 42.948 24.7282 42.7043C25.2157 42.4605 25.7355 42.3387 26.2876 42.3387C26.6876 42.3387 27.0469 42.3928 27.3657 42.5012C27.6865 42.6074 27.9584 42.7637 28.1813 42.9699C28.4042 43.1741 28.5699 43.4251 28.6782 43.723C28.7886 44.021 28.8324 44.3616 28.8095 44.7449ZM33.9571 42.4262H35.5009L34.8165 46.5543C34.7373 47.0314 34.555 47.447 34.2696 47.8012C33.9863 48.1533 33.6248 48.4262 33.1852 48.6199C32.7457 48.8116 32.2561 48.9074 31.7165 48.9074C31.1748 48.9074 30.7175 48.8116 30.3446 48.6199C29.9717 48.4262 29.7019 48.1533 29.5352 47.8012C29.3686 47.447 29.3238 47.0314 29.4009 46.5543L30.0852 42.4262H31.6321L30.9665 46.4199C30.9311 46.6408 30.9477 46.8376 31.0165 47.0105C31.0873 47.1814 31.2019 47.3168 31.3602 47.4168C31.5186 47.5147 31.7123 47.5637 31.9415 47.5637C32.1727 47.5637 32.3842 47.5147 32.5759 47.4168C32.7675 47.3168 32.9259 47.1814 33.0509 47.0105C33.1759 46.8376 33.2561 46.6408 33.2915 46.4199L33.9571 42.4262ZM36.4704 42.4262H38.386L39.3548 46.3887H39.4298L41.711 42.4262H43.6267L42.5642 48.8262H41.0579L41.711 44.8949H41.6579L39.4767 48.7855H38.5173L37.6298 44.873H37.5766L36.9141 48.8262H35.4079L36.4704 42.4262ZM48.4634 42.4262H50.0071L49.3228 46.5543C49.2436 47.0314 49.0613 47.447 48.7759 47.8012C48.4925 48.1533 48.1311 48.4262 47.6915 48.6199C47.2519 48.8116 46.7623 48.9074 46.2228 48.9074C45.6811 48.9074 45.2238 48.8116 44.8509 48.6199C44.478 48.4262 44.2082 48.1533 44.0415 47.8012C43.8748 47.447 43.83 47.0314 43.9071 46.5543L44.5915 42.4262H46.1384L45.4728 46.4199C45.4373 46.6408 45.454 46.8376 45.5228 47.0105C45.5936 47.1814 45.7082 47.3168 45.8665 47.4168C46.0248 47.5147 46.2186 47.5637 46.4478 47.5637C46.679 47.5637 46.8905 47.5147 47.0821 47.4168C47.2738 47.3168 47.4321 47.1814 47.5571 47.0105C47.6821 46.8376 47.7623 46.6408 47.7978 46.4199L48.4634 42.4262ZM49.9142 48.8262L50.9767 42.4262H52.5235L51.6735 47.5699H54.336L54.1235 48.8262H49.9142ZM56.3946 48.8262H54.7321L57.954 42.4262H60.0134L61.1103 48.8262H59.4478L58.7446 44.0387H58.6946L56.3946 48.8262ZM56.5946 46.3074H60.0696L59.8696 47.4824H56.3946L56.5946 46.3074ZM61.6407 43.6824L61.8532 42.4262H67.2626L67.0501 43.6824H65.1095L64.2595 48.8262H62.7345L63.5845 43.6824H61.6407ZM73.2197 45.7262C73.103 46.4158 72.8738 46.998 72.5322 47.473C72.1926 47.946 71.779 48.3043 71.2915 48.548C70.8061 48.7918 70.2842 48.9137 69.7259 48.9137C69.1363 48.9137 68.6259 48.7824 68.1947 48.5199C67.7634 48.2574 67.4499 47.8751 67.254 47.373C67.0603 46.871 67.0228 46.2616 67.1415 45.5449C67.254 44.8553 67.4801 44.272 67.8197 43.7949C68.1613 43.3178 68.5769 42.9564 69.0665 42.7105C69.5582 42.4626 70.0853 42.3387 70.6478 42.3387C71.2332 42.3387 71.7405 42.471 72.1697 42.7355C72.6009 43.0001 72.9134 43.3845 73.1072 43.8887C73.3009 44.3928 73.3384 45.0053 73.2197 45.7262ZM71.6728 45.5449C71.7374 45.1428 71.7374 44.8043 71.6728 44.5293C71.6103 44.2543 71.4874 44.047 71.304 43.9074C71.1207 43.7657 70.8822 43.6949 70.5884 43.6949C70.2634 43.6949 69.9697 43.7751 69.7072 43.9355C69.4467 44.0939 69.229 44.3251 69.054 44.6293C68.879 44.9314 68.7572 45.297 68.6884 45.7262C68.6176 46.1324 68.6155 46.471 68.6822 46.7418C68.7509 47.0126 68.879 47.2168 69.0665 47.3543C69.254 47.4897 69.4926 47.5574 69.7822 47.5574C70.1051 47.5574 70.3957 47.4793 70.654 47.323C70.9124 47.1668 71.128 46.9387 71.3009 46.6387C71.4759 46.3387 71.5999 45.9741 71.6728 45.5449ZM80.1634 45.7262C80.0468 46.4158 79.8176 46.998 79.4759 47.473C79.1363 47.946 78.7228 48.3043 78.2353 48.548C77.7499 48.7918 77.228 48.9137 76.6697 48.9137C76.0801 48.9137 75.5697 48.7824 75.1384 48.5199C74.7072 48.2574 74.3936 47.8751 74.1978 47.373C74.004 46.871 73.9665 46.2616 74.0853 45.5449C74.1978 44.8553 74.4238 44.272 74.7634 43.7949C75.1051 43.3178 75.5207 42.9564 76.0103 42.7105C76.502 42.4626 77.029 42.3387 77.5915 42.3387C78.177 42.3387 78.6843 42.471 79.1134 42.7355C79.5447 43.0001 79.8572 43.3845 80.0509 43.8887C80.2447 44.3928 80.2822 45.0053 80.1634 45.7262ZM78.6165 45.5449C78.6811 45.1428 78.6811 44.8043 78.6165 44.5293C78.554 44.2543 78.4311 44.047 78.2478 43.9074C78.0645 43.7657 77.8259 43.6949 77.5322 43.6949C77.2072 43.6949 76.9134 43.7751 76.6509 43.9355C76.3905 44.0939 76.1728 44.3251 75.9978 44.6293C75.8228 44.9314 75.7009 45.297 75.6322 45.7262C75.5613 46.1324 75.5593 46.471 75.6259 46.7418C75.6947 47.0126 75.8228 47.2168 76.0103 47.3543C76.1978 47.4897 76.4363 47.5574 76.7259 47.5574C77.0488 47.5574 77.3395 47.4793 77.5978 47.323C77.8561 47.1668 78.0718 46.9387 78.2447 46.6387C78.4197 46.3387 78.5436 45.9741 78.6165 45.5449ZM80.5509 48.8262L81.6134 42.4262H84.2572C84.7363 42.4262 85.1363 42.5126 85.4572 42.6855C85.778 42.8564 86.0061 43.1022 86.1416 43.423C86.277 43.7418 86.3082 44.1199 86.2353 44.5574C86.1645 44.9991 86.0061 45.3751 85.7603 45.6855C85.5166 45.9939 85.202 46.2293 84.8166 46.3918C84.4332 46.5543 83.9978 46.6355 83.5103 46.6355H81.8384L82.0447 45.4168H83.429C83.6603 45.4168 83.8603 45.3866 84.029 45.3262C84.1978 45.2637 84.3322 45.1699 84.4322 45.0449C84.5343 44.9178 84.602 44.7553 84.6353 44.5574C84.6666 44.3595 84.652 44.196 84.5916 44.0668C84.5332 43.9355 84.4301 43.8376 84.2822 43.773C84.1363 43.7064 83.9488 43.673 83.7197 43.673H82.9572L82.0978 48.8262H80.5509ZM84.6384 45.9012L85.7478 48.8262H84.0603L82.9853 45.9012H84.6384ZM89.5931 46.8324C89.366 46.8324 89.1806 46.7533 89.0369 46.5949C88.8931 46.4366 88.8306 46.2449 88.8494 46.0199C88.8702 45.7991 88.9681 45.6105 89.1431 45.4543C89.3181 45.298 89.5181 45.2199 89.7431 45.2199C89.9577 45.2199 90.1379 45.298 90.2837 45.4543C90.4317 45.6105 90.4952 45.7991 90.4744 46.0199C90.4619 46.1699 90.4108 46.3064 90.3212 46.4293C90.2337 46.5522 90.1254 46.6501 89.9962 46.723C89.8671 46.796 89.7327 46.8324 89.5931 46.8324Z" fill="white"/>
<defs>
<linearGradient id="paint0_linear_10289_24934" x1="48" y1="2.59961" x2="48" y2="88.9395" gradientUnits="userSpaceOnUse">
<stop stop-color="#232859"/>
<stop offset="1" stop-color="#232859"/>
</linearGradient>
<linearGradient id="paint1_linear_10289_24934" x1="14.4452" y1="17.8794" x2="81.1715" y2="18.9267" gradientUnits="userSpaceOnUse">
<stop stop-color="#37BBBB"/>
<stop offset="1" stop-color="#708FFE"/>
</linearGradient>
<linearGradient id="paint2_linear_10289_24934" x1="80.0002" y1="72.6009" x2="20.6722" y2="74.7038" gradientUnits="userSpaceOnUse">
<stop offset="0.0985558" stop-color="#52CFCA"/>
<stop offset="1" stop-color="#5DA3F5"/>
</linearGradient>
<linearGradient id="paint3_linear_10289_24934" x1="37.9531" y1="15.7804" x2="57.5603" y2="16.1154" gradientUnits="userSpaceOnUse">
<stop stop-color="#37BBBB"/>
<stop offset="1" stop-color="#708FFE"/>
</linearGradient>
<linearGradient id="paint4_linear_10289_24934" x1="37.9531" y1="15.7804" x2="57.5603" y2="16.1154" gradientUnits="userSpaceOnUse">
<stop stop-color="#37BBBB"/>
<stop offset="1" stop-color="#708FFE"/>
</linearGradient>
<linearGradient id="paint5_linear_10289_24934" x1="25.5273" y1="55.9332" x2="39.0168" y2="57.4566" gradientUnits="userSpaceOnUse">
<stop offset="0.0985558" stop-color="#D8FF20"/>
<stop offset="1" stop-color="#99F7F4"/>
</linearGradient>
<linearGradient id="paint6_linear_10289_24934" x1="2.4" y1="41.0542" x2="91.9157" y2="51.3576" gradientUnits="userSpaceOnUse">
<stop stop-color="#37BBBB"/>
<stop offset="1" stop-color="#708FFE"/>
</linearGradient>
</defs>
</svg>
