<svg width="96" height="90" viewBox="0 0 96 90" fill="none" xmlns="http://www.w3.org/2000/svg">
<path d="M19.9246 1.39206C15.2562 1.39206 11.4717 5.17653 11.4717 9.8449V60.7956C11.4717 63.576 12.839 66.1786 15.1285 67.7561L43.204 87.1012C46.0918 89.091 49.9083 89.091 52.7961 87.1012L80.8715 67.7561C83.161 66.1786 84.5283 63.576 84.5283 60.7956V9.8449C84.5283 5.17653 80.7439 1.39206 76.0755 1.39206H19.9246Z" fill="url(#paint0_linear_10753_23819)" stroke="url(#paint1_linear_10753_23819)" stroke-width="2.4151"/>
<path d="M16 11.0529C16 8.55194 18.0274 6.52454 20.5283 6.52454H75.4717C77.9726 6.52454 80 8.55194 80 11.0529V60.0423C80 61.5363 79.2632 62.9341 78.0306 63.7783L50.5589 82.5948C49.0165 83.6512 46.9835 83.6512 45.4411 82.5948L17.9694 63.7783C16.7369 62.9341 16 61.5363 16 60.0423V11.0529Z" stroke="url(#paint2_linear_10753_23819)" stroke-width="0.603774"/>
<path fill-rule="evenodd" clip-rule="evenodd" d="M38.3623 29.6565L40.8963 31.0803L40.8925 27.2003L44.3454 25.2529L44.3454 21.3692L47.8283 19.3876L47.7964 11.6562L42.3831 14.6949L38.3623 16.9582L38.3623 16.9601L37.434 17.4818L37.434 29.1329L38.3623 29.6565ZM47.8002 11.6599L47.8002 15.54L51.2512 13.5999L47.8002 11.6599ZM54.7079 23.3129L51.2531 25.2529L51.2531 29.1421L47.7983 31.0821L47.7983 34.9603L57.6966 29.3956L58.1589 29.1348L58.1589 17.4836L57.6966 17.7445L57.6966 17.7464L57.6947 17.7445L54.7079 19.4237L54.7079 23.3129Z" fill="url(#paint3_linear_10753_23819)"/>
<path fill-rule="evenodd" clip-rule="evenodd" d="M54.7379 23.2714L51.2831 25.2114L48.1134 23.4204L44.3754 21.3277L47.8283 19.3876L54.2756 23.0123L54.7379 23.2714ZM58.1927 17.444L54.7379 19.384L47.8302 15.5003L51.2812 13.5584L58.1927 17.444ZM40.9226 27.1587L44.3755 25.2187L51.2831 29.1024L47.8284 31.0424L40.9226 27.1587Z" fill="url(#paint4_linear_10753_23819)"/>
<path d="M47.1918 64.5223C47.4088 64.1188 47.9875 64.1188 48.2045 64.5223L49.4881 66.908C49.5683 67.0571 49.71 67.1632 49.8756 67.1982L52.4789 67.7485C52.9091 67.8394 53.0822 68.3599 52.7922 68.6903L50.9661 70.7713C50.8596 70.8927 50.809 71.0532 50.8267 71.2137L51.1335 73.9943C51.183 74.4428 50.7202 74.771 50.3133 74.5759L47.9467 73.4412C47.7896 73.3658 47.6067 73.3658 47.4495 73.4412L45.083 74.5759C44.6761 74.771 44.2133 74.4428 44.2628 73.9943L44.5695 71.2137C44.5873 71.0532 44.5367 70.8927 44.4302 70.7713L42.6041 68.6903C42.3141 68.3599 42.4872 67.8394 42.9174 67.7485L45.5207 67.1982C45.6862 67.1632 45.828 67.0571 45.9082 66.908L47.1918 64.5223Z" fill="#515899"/>
<path d="M31.5219 57.7878C31.7318 57.4153 32.2682 57.4153 32.4782 57.7878L33.7931 60.1207C33.8714 60.2596 34.0063 60.3576 34.1627 60.3892L36.7877 60.9188C37.2068 61.0034 37.3726 61.5136 37.0832 61.8283L35.2708 63.7998C35.1629 63.9172 35.1113 64.0758 35.1297 64.2343L35.4371 66.8945C35.4862 67.3192 35.0522 67.6345 34.6634 67.4566L32.2284 66.3421C32.0834 66.2758 31.9166 66.2758 31.7716 66.3421L29.3366 67.4566C28.9478 67.6345 28.5138 67.3192 28.5629 66.8945L28.8704 64.2343C28.8887 64.0758 28.8372 63.9172 28.7292 63.7998L26.9168 61.8283C26.6275 61.5136 26.7932 61.0034 27.2124 60.9188L29.8374 60.3892C29.9937 60.3576 30.1286 60.2596 30.207 60.1207L31.5219 57.7878Z" fill="url(#paint5_linear_10753_23819)"/>
<path d="M62.9181 57.7878C63.128 57.4153 63.6645 57.4153 63.8744 57.7878L65.1893 60.1207C65.2676 60.2596 65.4025 60.3576 65.5589 60.3892L68.1839 60.9188C68.603 61.0034 68.7688 61.5136 68.4794 61.8283L66.6671 63.7998C66.5591 63.9172 66.5076 64.0758 66.5259 64.2343L66.8333 66.8945C66.8824 67.3192 66.4485 67.6345 66.0597 67.4566L63.6247 66.3421C63.4796 66.2758 63.3129 66.2758 63.1678 66.3421L60.7328 67.4566C60.344 67.6345 59.9101 67.3192 59.9592 66.8945L60.2666 64.2343C60.2849 64.0758 60.2334 63.9172 60.1254 63.7998L58.3131 61.8283C58.0237 61.5136 58.1895 61.0034 58.6086 60.9188L61.2336 60.3892C61.39 60.3576 61.5249 60.2596 61.6032 60.1207L62.9181 57.7878Z" fill="#515899"/>
<rect y="38.2227" width="96" height="16" rx="0.800001" fill="url(#paint6_linear_10753_23819)"/>
<path d="M6.80037 46.6512C6.55264 46.6512 6.35037 46.5648 6.19355 46.3921C6.03673 46.2194 5.96855 46.0103 5.989 45.7648C6.01173 45.5239 6.11855 45.3182 6.30946 45.1478C6.50037 44.9773 6.71855 44.8921 6.964 44.8921C7.19809 44.8921 7.39468 44.9773 7.55378 45.1478C7.71514 45.3182 7.78446 45.5239 7.76173 45.7648C7.74809 45.9284 7.69241 46.0773 7.59468 46.2114C7.49923 46.3455 7.38105 46.4523 7.24014 46.5319C7.09923 46.6114 6.95264 46.6512 6.80037 46.6512ZM17.4879 44.3739H15.8038C15.8129 44.1966 15.7958 44.0387 15.7526 43.9C15.7095 43.7591 15.6413 43.6387 15.5481 43.5387C15.4549 43.4364 15.339 43.3591 15.2004 43.3068C15.0617 43.2546 14.9004 43.2284 14.7163 43.2284C14.364 43.2284 14.0447 43.3159 13.7583 43.4909C13.472 43.6659 13.2322 43.9182 13.039 44.2478C12.8458 44.5773 12.7106 44.9728 12.6333 45.4341C12.5629 45.8796 12.564 46.2512 12.6367 46.5489C12.7117 46.8466 12.8504 47.0705 13.0526 47.2205C13.2549 47.3682 13.5117 47.4421 13.8231 47.4421C14.0254 47.4421 14.2129 47.4182 14.3856 47.3705C14.5606 47.3205 14.7186 47.2489 14.8595 47.1557C15.0004 47.0625 15.122 46.95 15.2242 46.8182C15.3288 46.6841 15.4095 46.5353 15.4663 46.3716H17.164C17.0799 46.6784 16.9413 46.9841 16.7481 47.2887C16.5572 47.5909 16.3163 47.8648 16.0254 48.1103C15.7345 48.3557 15.397 48.5523 15.0129 48.7C14.6288 48.8478 14.2015 48.9216 13.7311 48.9216C13.0879 48.9216 12.5333 48.7773 12.0674 48.4887C11.6038 48.2 11.2686 47.7819 11.0617 47.2341C10.8572 46.6841 10.8186 46.0182 10.9458 45.2364C11.0708 44.4796 11.3174 43.8421 11.6856 43.3239C12.0561 42.8057 12.5061 42.4137 13.0356 42.1478C13.5674 41.8818 14.1345 41.7489 14.7367 41.7489C15.1731 41.7489 15.5651 41.808 15.9129 41.9262C16.2629 42.0421 16.5595 42.2125 16.8027 42.4375C17.0458 42.6603 17.2265 42.9341 17.3447 43.2591C17.4652 43.5841 17.5129 43.9557 17.4879 44.3739ZM24.8728 45.4443C24.7456 46.1966 24.4956 46.8319 24.1228 47.35C23.7524 47.8659 23.3012 48.2569 22.7694 48.5228C22.2399 48.7887 21.6706 48.9216 21.0615 48.9216C20.4183 48.9216 19.8615 48.7784 19.391 48.4921C18.9206 48.2057 18.5785 47.7887 18.3649 47.2409C18.1535 46.6932 18.1126 46.0284 18.2421 45.2466C18.3649 44.4943 18.6115 43.858 18.9819 43.3375C19.3546 42.8171 19.8081 42.4228 20.3421 42.1546C20.8785 41.8841 21.4535 41.7489 22.0671 41.7489C22.7058 41.7489 23.2592 41.8932 23.7274 42.1818C24.1978 42.4705 24.5387 42.8898 24.7501 43.4398C24.9615 43.9898 25.0024 44.658 24.8728 45.4443ZM23.1853 45.2466C23.2558 44.808 23.2558 44.4387 23.1853 44.1387C23.1171 43.8387 22.9831 43.6125 22.7831 43.4603C22.5831 43.3057 22.3228 43.2284 22.0024 43.2284C21.6478 43.2284 21.3274 43.3159 21.041 43.4909C20.7569 43.6637 20.5194 43.9159 20.3285 44.2478C20.1376 44.5773 20.0046 44.9762 19.9296 45.4443C19.8524 45.8875 19.8501 46.2569 19.9228 46.5523C19.9978 46.8478 20.1376 47.0705 20.3421 47.2205C20.5467 47.3682 20.8069 47.4421 21.1228 47.4421C21.4751 47.4421 21.7921 47.3569 22.074 47.1864C22.3558 47.0159 22.591 46.7671 22.7796 46.4398C22.9706 46.1125 23.1058 45.7148 23.1853 45.2466ZM25.2956 48.8262L26.4547 41.8443H28.1422L27.2149 47.4557H30.1194L29.8876 48.8262H25.2956ZM30.7612 48.8262L31.9203 41.8443H33.6078L32.6805 47.4557H35.5851L35.3532 48.8262H30.7612ZM36.2268 48.8262L37.3859 41.8443H42.2541L42.0223 43.2148H38.8416L38.6098 44.6466H41.5416L41.3098 46.0205H38.378L38.1461 47.4557H41.3268L41.095 48.8262H36.2268ZM49.2223 44.3739H47.5382C47.5473 44.1966 47.5302 44.0387 47.4871 43.9C47.4439 43.7591 47.3757 43.6387 47.2825 43.5387C47.1893 43.4364 47.0734 43.3591 46.9348 43.3068C46.7962 43.2546 46.6348 43.2284 46.4507 43.2284C46.0984 43.2284 45.7791 43.3159 45.4927 43.4909C45.2064 43.6659 44.9666 43.9182 44.7734 44.2478C44.5802 44.5773 44.445 44.9728 44.3677 45.4341C44.2973 45.8796 44.2984 46.2512 44.3712 46.5489C44.4462 46.8466 44.5848 47.0705 44.7871 47.2205C44.9893 47.3682 45.2462 47.4421 45.5575 47.4421C45.7598 47.4421 45.9473 47.4182 46.12 47.3705C46.295 47.3205 46.453 47.2489 46.5939 47.1557C46.7348 47.0625 46.8564 46.95 46.9587 46.8182C47.0632 46.6841 47.1439 46.5353 47.2007 46.3716H48.8984C48.8143 46.6784 48.6757 46.9841 48.4825 47.2887C48.2916 47.5909 48.0507 47.8648 47.7598 48.1103C47.4689 48.3557 47.1314 48.5523 46.7473 48.7C46.3632 48.8478 45.9359 48.9216 45.4655 48.9216C44.8223 48.9216 44.2677 48.7773 43.8018 48.4887C43.3382 48.2 43.003 47.7819 42.7961 47.2341C42.5916 46.6841 42.553 46.0182 42.6802 45.2364C42.8052 44.4796 43.0518 43.8421 43.42 43.3239C43.7905 42.8057 44.2405 42.4137 44.77 42.1478C45.3018 41.8818 45.8689 41.7489 46.4712 41.7489C46.9075 41.7489 47.2996 41.808 47.6473 41.9262C47.9973 42.0421 48.2939 42.2125 48.5371 42.4375C48.7802 42.6603 48.9609 42.9341 49.0791 43.2591C49.1996 43.5841 49.2473 43.9557 49.2223 44.3739ZM50.1538 43.2148L50.3856 41.8443H56.2868L56.055 43.2148H53.9379L53.0107 48.8262H51.347L52.2743 43.2148H50.1538ZM62.7854 45.4443C62.6581 46.1966 62.4081 46.8319 62.0354 47.35C61.6649 47.8659 61.2138 48.2569 60.682 48.5228C60.1524 48.7887 59.5831 48.9216 58.974 48.9216C58.3308 48.9216 57.774 48.7784 57.3036 48.4921C56.8331 48.2057 56.4911 47.7887 56.2774 47.2409C56.0661 46.6932 56.0251 46.0284 56.1547 45.2466C56.2774 44.4943 56.524 43.858 56.8945 43.3375C57.2672 42.8171 57.7206 42.4228 58.2547 42.1546C58.7911 41.8841 59.3661 41.7489 59.9797 41.7489C60.6183 41.7489 61.1717 41.8932 61.6399 42.1818C62.1104 42.4705 62.4513 42.8898 62.6627 43.4398C62.874 43.9898 62.9149 44.658 62.7854 45.4443ZM61.0979 45.2466C61.1683 44.808 61.1683 44.4387 61.0979 44.1387C61.0297 43.8387 60.8956 43.6125 60.6956 43.4603C60.4956 43.3057 60.2354 43.2284 59.9149 43.2284C59.5604 43.2284 59.2399 43.3159 58.9536 43.4909C58.6695 43.6637 58.432 43.9159 58.2411 44.2478C58.0501 44.5773 57.9172 44.9762 57.8422 45.4443C57.7649 45.8875 57.7626 46.2569 57.8354 46.5523C57.9104 46.8478 58.0501 47.0705 58.2547 47.2205C58.4592 47.3682 58.7195 47.4421 59.0354 47.4421C59.3876 47.4421 59.7047 47.3569 59.9865 47.1864C60.2683 47.0159 60.5036 46.7671 60.6922 46.4398C60.8831 46.1125 61.0183 45.7148 61.0979 45.2466ZM70.3604 45.4443C70.2331 46.1966 69.9831 46.8319 69.6104 47.35C69.2399 47.8659 68.7888 48.2569 68.257 48.5228C67.7274 48.7887 67.1581 48.9216 66.549 48.9216C65.9058 48.9216 65.349 48.7784 64.8786 48.4921C64.4081 48.2057 64.0661 47.7887 63.8524 47.2409C63.6411 46.6932 63.6002 46.0284 63.7297 45.2466C63.8524 44.4943 64.099 43.858 64.4695 43.3375C64.8422 42.8171 65.2956 42.4228 65.8297 42.1546C66.3661 41.8841 66.9411 41.7489 67.5547 41.7489C68.1933 41.7489 68.7468 41.8932 69.2149 42.1818C69.6854 42.4705 70.0263 42.8898 70.2377 43.4398C70.449 43.9898 70.4899 44.658 70.3604 45.4443ZM68.6729 45.2466C68.7433 44.808 68.7433 44.4387 68.6729 44.1387C68.6047 43.8387 68.4706 43.6125 68.2706 43.4603C68.0706 43.3057 67.8104 43.2284 67.4899 43.2284C67.1354 43.2284 66.8149 43.3159 66.5286 43.4909C66.2445 43.6637 66.007 43.9159 65.8161 44.2478C65.6252 44.5773 65.4922 44.9762 65.4172 45.4443C65.3399 45.8875 65.3377 46.2569 65.4104 46.5523C65.4854 46.8478 65.6252 47.0705 65.8297 47.2205C66.0342 47.3682 66.2945 47.4421 66.6104 47.4421C66.9627 47.4421 67.2797 47.3569 67.5615 47.1864C67.8433 47.0159 68.0786 46.7671 68.2672 46.4398C68.4581 46.1125 68.5933 45.7148 68.6729 45.2466ZM77.9354 45.4443C77.8081 46.1966 77.5581 46.8319 77.1854 47.35C76.8149 47.8659 76.3638 48.2569 75.832 48.5228C75.3024 48.7887 74.7331 48.9216 74.124 48.9216C73.4808 48.9216 72.924 48.7784 72.4536 48.4921C71.9831 48.2057 71.6411 47.7887 71.4274 47.2409C71.2161 46.6932 71.1752 46.0284 71.3047 45.2466C71.4274 44.4943 71.674 43.858 72.0445 43.3375C72.4172 42.8171 72.8706 42.4228 73.4047 42.1546C73.9411 41.8841 74.5161 41.7489 75.1297 41.7489C75.7683 41.7489 76.3218 41.8932 76.7899 42.1818C77.2604 42.4705 77.6013 42.8898 77.8127 43.4398C78.024 43.9898 78.0649 44.658 77.9354 45.4443ZM76.2479 45.2466C76.3184 44.808 76.3184 44.4387 76.2479 44.1387C76.1797 43.8387 76.0456 43.6125 75.8456 43.4603C75.6456 43.3057 75.3854 43.2284 75.0649 43.2284C74.7104 43.2284 74.3899 43.3159 74.1036 43.4909C73.8195 43.6637 73.582 43.9159 73.3911 44.2478C73.2002 44.5773 73.0672 44.9762 72.9922 45.4443C72.9149 45.8875 72.9127 46.2569 72.9854 46.5523C73.0604 46.8478 73.2002 47.0705 73.4047 47.2205C73.6093 47.3682 73.8695 47.4421 74.1854 47.4421C74.5377 47.4421 74.8547 47.3569 75.1365 47.1864C75.4183 47.0159 75.6536 46.7671 75.8422 46.4398C76.0331 46.1125 76.1684 45.7148 76.2479 45.2466ZM78.3581 48.8262L79.5172 41.8443H82.4013C82.924 41.8443 83.3604 41.9387 83.7104 42.1273C84.0604 42.3137 84.3093 42.5818 84.457 42.9318C84.6047 43.2796 84.6388 43.6921 84.5593 44.1693C84.482 44.6512 84.3093 45.0614 84.0411 45.4C83.7752 45.7364 83.432 45.9932 83.0115 46.1705C82.5934 46.3478 82.1184 46.4364 81.5865 46.4364H79.7627L79.9877 45.1068H81.4979C81.7502 45.1068 81.9684 45.0739 82.1525 45.008C82.3365 44.9398 82.4831 44.8375 82.5922 44.7012C82.7036 44.5625 82.7775 44.3853 82.8138 44.1693C82.8479 43.9534 82.832 43.775 82.7661 43.6341C82.7025 43.4909 82.59 43.3841 82.4286 43.3137C82.2695 43.2409 82.065 43.2046 81.815 43.2046H80.9831L80.0456 48.8262H78.3581ZM82.8172 45.6353L84.0275 48.8262H82.1865L81.0138 45.6353H82.8172ZM88.2223 46.6512C87.9746 46.6512 87.7723 46.5648 87.6155 46.3921C87.4587 46.2194 87.3905 46.0103 87.411 45.7648C87.4337 45.5239 87.5405 45.3182 87.7314 45.1478C87.9223 44.9773 88.1405 44.8921 88.386 44.8921C88.6201 44.8921 88.8167 44.9773 88.9758 45.1478C89.1371 45.3182 89.2064 45.5239 89.1837 45.7648C89.1701 45.9284 89.1144 46.0773 89.0167 46.2114C88.9212 46.3455 88.803 46.4523 88.6621 46.5319C88.5212 46.6114 88.3746 46.6512 88.2223 46.6512Z" fill="white"/>
<defs>
<linearGradient id="paint0_linear_10753_23819" x1="48" y1="2.59961" x2="48" y2="88.9395" gradientUnits="userSpaceOnUse">
<stop stop-color="#232859"/>
<stop offset="1" stop-color="#232859"/>
</linearGradient>
<linearGradient id="paint1_linear_10753_23819" x1="10.1336" y1="-4.59539" x2="89.3776" y2="2.7268" gradientUnits="userSpaceOnUse">
<stop offset="0.0985558" stop-color="#F9B787"/>
<stop offset="1" stop-color="#51DAD5"/>
</linearGradient>
<linearGradient id="paint2_linear_10753_23819" x1="13.3701" y1="-0.318253" x2="85.8337" y2="6.41749" gradientUnits="userSpaceOnUse">
<stop offset="0.0985558" stop-color="#F9B787"/>
<stop offset="1" stop-color="#51DAD5"/>
</linearGradient>
<linearGradient id="paint3_linear_10753_23819" x1="36.6859" y1="9.71424" x2="59.9361" y2="12.0532" gradientUnits="userSpaceOnUse">
<stop offset="0.0985558" stop-color="#F9B787"/>
<stop offset="1" stop-color="#51DAD5"/>
</linearGradient>
<linearGradient id="paint4_linear_10753_23819" x1="36.6859" y1="9.71424" x2="59.9361" y2="12.0532" gradientUnits="userSpaceOnUse">
<stop offset="0.0985558" stop-color="#F9B787"/>
<stop offset="1" stop-color="#51DAD5"/>
</linearGradient>
<linearGradient id="paint5_linear_10753_23819" x1="25.5271" y1="55.9332" x2="39.0167" y2="57.4566" gradientUnits="userSpaceOnUse">
<stop offset="0.0985558" stop-color="#D8FF20"/>
<stop offset="1" stop-color="#99F7F4"/>
</linearGradient>
<linearGradient id="paint6_linear_10753_23819" x1="-3.45946" y1="36.8893" x2="70.9744" y2="87.326" gradientUnits="userSpaceOnUse">
<stop offset="0.0985558" stop-color="#F9B787"/>
<stop offset="1" stop-color="#51DAD5"/>
</linearGradient>
</defs>
</svg>
