<svg width="123" height="91" viewBox="0 0 123 91" fill="none" xmlns="http://www.w3.org/2000/svg">
<path d="M4.39741 1.39664C4.26068 0.81102 4.93487 0.252969 5.55841 0.435631L31.4404 8.01765C31.8612 8.1409 32.0541 8.56083 31.873 8.95929L28.8746 15.5571C28.691 15.9613 28.193 16.1895 27.7659 16.0653L7.16486 10.0747C6.66603 9.92964 6.30451 9.56514 6.19523 9.09706L4.39741 1.39664Z" fill="url(#paint0_linear_10753_23829)"/>
<path d="M7.43623 14.0304C7.2995 13.4448 7.97369 12.8868 8.59723 13.0694L34.4793 20.6514C34.9 20.7747 35.0929 21.1946 34.9118 21.5931L31.9134 28.1909C31.7298 28.5951 31.2318 28.8233 30.8047 28.6991L10.2037 22.7085C9.70485 22.5634 9.34333 22.1989 9.23405 21.7309L7.43623 14.0304Z" fill="url(#paint1_linear_10753_23829)"/>
<path d="M10.7965 26.6642C10.6598 26.0786 11.334 25.5205 11.9575 25.7032L37.8396 33.2852C38.2603 33.4085 38.4532 33.8284 38.2721 34.2269L35.2738 40.8247C35.0901 41.2288 34.5921 41.4571 34.165 41.3329L13.564 35.3423C13.0652 35.1972 12.7037 34.8327 12.5944 34.3646L10.7965 26.6642Z" fill="url(#paint2_linear_10753_23829)"/>
<path d="M118.603 1.39664C118.739 0.81102 118.065 0.252969 117.442 0.435631L91.5596 8.01765C91.1388 8.1409 90.9459 8.56083 91.127 8.95929L94.1254 15.5571C94.309 15.9613 94.807 16.1895 95.2341 16.0653L115.835 10.0747C116.334 9.92964 116.695 9.56514 116.805 9.09706L118.603 1.39664Z" fill="url(#paint3_linear_10753_23829)"/>
<path d="M115.564 14.0304C115.7 13.4448 115.026 12.8868 114.403 13.0694L88.5207 20.6514C88.1 20.7747 87.9071 21.1946 88.0882 21.5931L91.0866 28.1909C91.2702 28.5951 91.7682 28.8233 92.1953 28.6991L112.796 22.7085C113.295 22.5634 113.657 22.1989 113.766 21.7309L115.564 14.0304Z" fill="url(#paint4_linear_10753_23829)"/>
<path d="M112.204 26.6642C112.34 26.0786 111.666 25.5205 111.043 25.7032L85.1605 33.2852C84.7397 33.4085 84.5469 33.8284 84.7279 34.2269L87.7263 40.8247C87.91 41.2288 88.408 41.4571 88.835 41.3329L109.436 35.3423C109.935 35.1972 110.296 34.8327 110.406 34.3646L112.204 26.6642Z" fill="url(#paint5_linear_10753_23829)"/>
<path d="M33.1453 1.98972C28.4769 1.98972 24.6925 5.77418 24.6925 10.4426V61.3933C24.6925 64.1737 26.0598 66.7762 28.3493 68.3538L56.4247 87.6989C59.3125 89.6887 63.129 89.6887 66.0168 87.6989L94.0923 68.3538C96.3818 66.7762 97.7491 64.1737 97.7491 61.3933V10.4426C97.7491 5.77419 93.9646 1.98972 89.2963 1.98972H33.1453Z" fill="url(#paint6_linear_10753_23829)" stroke="url(#paint7_linear_10753_23829)" stroke-width="2.4151"/>
<path d="M29.4019 11.6505C29.4019 9.14959 31.4293 7.1222 33.9302 7.1222H88.8736C91.3745 7.1222 93.4019 9.14959 93.4019 11.6505V60.64C93.4019 62.1339 92.665 63.5317 91.4325 64.3759L63.9608 83.1924C62.4184 84.2489 60.3853 84.2489 58.8429 83.1924L31.3712 64.3759C30.1387 63.5317 29.4019 62.1339 29.4019 60.64V11.6505Z" stroke="url(#paint8_linear_10753_23829)" stroke-width="0.603774"/>
<path fill-rule="evenodd" clip-rule="evenodd" d="M51.6283 30.2542L54.1623 31.678L54.1585 27.7979L57.6114 25.8506L57.6114 21.9668L61.0943 19.9853L61.0624 12.2539L55.6491 15.2925L51.6283 17.5559L51.6283 17.5577L50.7 18.0795L50.7 29.7306L51.6283 30.2542ZM61.0662 12.2576L61.0662 16.1376L64.5172 14.1976L61.0662 12.2576ZM67.9739 23.9105L64.5191 25.8506L64.5191 29.7398L61.0643 31.6798L61.0643 35.558L70.9626 29.9933L71.4249 29.7324L71.4249 18.0813L70.9626 18.3422L70.9626 18.344L70.9607 18.3422L67.9739 20.0213L67.9739 23.9105Z" fill="url(#paint9_linear_10753_23829)"/>
<path fill-rule="evenodd" clip-rule="evenodd" d="M68.0039 23.869L64.5491 25.809L61.3794 24.018L57.6414 21.9253L61.0943 19.9853L67.5416 23.61L68.0039 23.869ZM71.4587 18.0416L68.0039 19.9816L61.0962 16.0979L64.5472 14.1561L71.4587 18.0416ZM54.1886 27.7564L57.6414 25.8164L64.5491 29.7001L61.0943 31.6401L54.1886 27.7564Z" fill="url(#paint10_linear_10753_23829)"/>
<path d="M60.7295 65.1199C60.9465 64.7165 61.5252 64.7165 61.7422 65.1199L63.0258 67.5057C63.106 67.6547 63.2478 67.7608 63.4133 67.7958L66.0166 68.3461C66.4468 68.4371 66.6199 68.9575 66.3299 69.288L64.5038 71.369C64.3973 71.4903 64.3467 71.6509 64.3644 71.8113L64.6712 74.592C64.7207 75.0405 64.2579 75.3686 63.851 75.1735L61.4845 74.0388C61.3273 73.9635 61.1444 73.9635 60.9872 74.0388L58.6207 75.1735C58.2138 75.3686 57.751 75.0405 57.8005 74.592L58.1073 71.8113C58.125 71.6509 58.0744 71.4903 57.9679 71.369L56.1418 69.288C55.8518 68.9575 56.0249 68.4371 56.4551 68.3461L59.0584 67.7958C59.224 67.7608 59.3657 67.6547 59.4459 67.5057L60.7295 65.1199Z" fill="url(#paint11_linear_10753_23829)"/>
<path d="M45.0596 58.3855C45.2695 58.013 45.8059 58.013 46.0159 58.3855L47.3308 60.7183C47.4091 60.8573 47.544 60.9553 47.7004 60.9868L50.3254 61.5165C50.7445 61.6011 50.9103 62.1112 50.6209 62.426L48.8086 64.3974C48.7006 64.5149 48.6491 64.6735 48.6674 64.8319L48.9748 67.4921C49.0239 67.9169 48.5899 68.2322 48.2011 68.0542L45.7662 66.9398C45.6211 66.8734 45.4544 66.8734 45.3093 66.9398L42.8743 68.0542C42.4855 68.2322 42.0516 67.9169 42.1006 67.4921L42.4081 64.8319C42.4264 64.6735 42.3749 64.5149 42.2669 64.3974L40.4546 62.426C40.1652 62.1112 40.3309 61.6011 40.7501 61.5165L43.3751 60.9868C43.5315 60.9553 43.6664 60.8573 43.7447 60.7183L45.0596 58.3855Z" fill="url(#paint12_linear_10753_23829)"/>
<path d="M76.4558 58.3855C76.6658 58.013 77.2022 58.013 77.4121 58.3855L78.727 60.7183C78.8053 60.8573 78.9402 60.9553 79.0966 60.9868L81.7216 61.5165C82.1408 61.6011 82.3065 62.1112 82.0171 62.426L80.2048 64.3974C80.0968 64.5149 80.0453 64.6735 80.0636 64.8319L80.371 67.4921C80.4201 67.9169 79.9862 68.2322 79.5974 68.0542L77.1624 66.9398C77.0173 66.8734 76.8506 66.8734 76.7055 66.9398L74.2706 68.0542C73.8817 68.2322 73.4478 67.9169 73.4969 67.4921L73.8043 64.8319C73.8226 64.6735 73.7711 64.5149 73.6631 64.3974L71.8508 62.426C71.5614 62.1112 71.7272 61.6011 72.1463 61.5165L74.7713 60.9868C74.9277 60.9553 75.0626 60.8573 75.1409 60.7183L76.4558 58.3855Z" fill="url(#paint13_linear_10753_23829)"/>
<path d="M10.0238 40.4717C9.63928 39.9429 10.017 39.2012 10.6708 39.2012H114.729C115.383 39.2012 115.761 39.9429 115.376 40.4717L110.825 46.7307C110.621 47.0112 110.621 47.3912 110.825 47.6717L115.376 53.9307C115.761 54.4595 115.383 55.2012 114.729 55.2012H10.6708C10.017 55.2012 9.63928 54.4595 10.0238 53.9307L14.5749 47.6717C14.7789 47.3912 14.7789 47.0112 14.5749 46.7307L10.0238 40.4717Z" fill="url(#paint14_linear_10753_23829)"/>
<path d="M22.089 48.0506C21.8413 48.0506 21.639 47.9642 21.4822 47.7915C21.3253 47.6188 21.2572 47.4097 21.2776 47.1642C21.3003 46.9233 21.4072 46.7176 21.5981 46.5472C21.789 46.3767 22.0072 46.2915 22.2526 46.2915C22.4867 46.2915 22.6833 46.3767 22.8424 46.5472C23.0038 46.7176 23.0731 46.9233 23.0504 47.1642C23.0367 47.3279 22.981 47.4767 22.8833 47.6108C22.7879 47.7449 22.6697 47.8517 22.5288 47.9313C22.3878 48.0108 22.2413 48.0506 22.089 48.0506ZM32.7765 45.7733H31.0924C31.1015 45.596 31.0845 45.4381 31.0413 45.2994C30.9981 45.1585 30.9299 45.0381 30.8367 44.9381C30.7435 44.8358 30.6276 44.7585 30.489 44.7063C30.3504 44.654 30.189 44.6279 30.0049 44.6279C29.6526 44.6279 29.3333 44.7154 29.0469 44.8904C28.7606 45.0654 28.5208 45.3176 28.3276 45.6472C28.1344 45.9767 27.9992 46.3722 27.9219 46.8335C27.8515 47.279 27.8526 47.6506 27.9254 47.9483C28.0004 48.246 28.139 48.4699 28.3413 48.6199C28.5435 48.7676 28.8004 48.8415 29.1117 48.8415C29.314 48.8415 29.5015 48.8176 29.6742 48.7699C29.8492 48.7199 30.0072 48.6483 30.1481 48.5551C30.289 48.4619 30.4106 48.3494 30.5129 48.2176C30.6174 48.0835 30.6981 47.9347 30.7549 47.771H32.4526C32.3685 48.0779 32.2299 48.3835 32.0367 48.6881C31.8458 48.9904 31.6049 49.2642 31.314 49.5097C31.0231 49.7551 30.6856 49.9517 30.3015 50.0994C29.9174 50.2472 29.4901 50.321 29.0197 50.321C28.3765 50.321 27.8219 50.1767 27.356 49.8881C26.8924 49.5994 26.5572 49.1813 26.3504 48.6335C26.1458 48.0835 26.1072 47.4176 26.2344 46.6358C26.3594 45.879 26.606 45.2415 26.9742 44.7233C27.3447 44.2051 27.7947 43.8131 28.3242 43.5472C28.856 43.2813 29.4231 43.1483 30.0254 43.1483C30.4617 43.1483 30.8538 43.2074 31.2015 43.3256C31.5515 43.4415 31.8481 43.6119 32.0913 43.8369C32.3345 44.0597 32.5151 44.3335 32.6333 44.6585C32.7538 44.9835 32.8015 45.3551 32.7765 45.7733ZM40.1615 46.8438C40.0342 47.596 39.7842 48.2313 39.4115 48.7494C39.041 49.2654 38.5899 49.6563 38.058 49.9222C37.5285 50.1881 36.9592 50.321 36.3501 50.321C35.7069 50.321 35.1501 50.1779 34.6796 49.8915C34.2092 49.6051 33.8671 49.1881 33.6535 48.6404C33.4421 48.0926 33.4012 47.4279 33.5308 46.646C33.6535 45.8938 33.9001 45.2574 34.2705 44.7369C34.6433 44.2165 35.0967 43.8222 35.6308 43.554C36.1671 43.2835 36.7421 43.1483 37.3558 43.1483C37.9944 43.1483 38.5478 43.2926 39.016 43.5813C39.4865 43.8699 39.8274 44.2892 40.0387 44.8392C40.2501 45.3892 40.291 46.0574 40.1615 46.8438ZM38.4739 46.646C38.5444 46.2074 38.5444 45.8381 38.4739 45.5381C38.4058 45.2381 38.2717 45.0119 38.0717 44.8597C37.8717 44.7051 37.6114 44.6279 37.291 44.6279C36.9364 44.6279 36.616 44.7154 36.3296 44.8904C36.0455 45.0631 35.808 45.3154 35.6171 45.6472C35.4262 45.9767 35.2933 46.3756 35.2183 46.8438C35.141 47.2869 35.1387 47.6563 35.2114 47.9517C35.2864 48.2472 35.4262 48.4699 35.6308 48.6199C35.8353 48.7676 36.0955 48.8415 36.4114 48.8415C36.7637 48.8415 37.0808 48.7563 37.3626 48.5858C37.6444 48.4154 37.8796 48.1665 38.0683 47.8392C38.2592 47.5119 38.3944 47.1142 38.4739 46.646ZM40.5842 50.2256L41.7433 43.2438H43.4308L42.5035 48.8551H45.408L45.1762 50.2256H40.5842ZM46.0498 50.2256L47.2089 43.2438H48.8964L47.9691 48.8551H50.8737L50.6419 50.2256H46.0498ZM51.5154 50.2256L52.6745 43.2438H57.5427L57.3109 44.6142H54.1302L53.8984 46.046H56.8302L56.5984 47.4199H53.6666L53.4348 48.8551H56.6154L56.3836 50.2256H51.5154ZM64.5109 45.7733H62.8268C62.8359 45.596 62.8189 45.4381 62.7757 45.2994C62.7325 45.1585 62.6643 45.0381 62.5711 44.9381C62.478 44.8358 62.362 44.7585 62.2234 44.7063C62.0848 44.654 61.9234 44.6279 61.7393 44.6279C61.387 44.6279 61.0677 44.7154 60.7814 44.8904C60.495 45.0654 60.2552 45.3176 60.062 45.6472C59.8689 45.9767 59.7336 46.3722 59.6564 46.8335C59.5859 47.279 59.587 47.6506 59.6598 47.9483C59.7348 48.246 59.8734 48.4699 60.0757 48.6199C60.278 48.7676 60.5348 48.8415 60.8461 48.8415C61.0484 48.8415 61.2359 48.8176 61.4086 48.7699C61.5836 48.7199 61.7416 48.6483 61.8825 48.5551C62.0234 48.4619 62.145 48.3494 62.2473 48.2176C62.3518 48.0835 62.4325 47.9347 62.4893 47.771H64.187C64.103 48.0779 63.9643 48.3835 63.7711 48.6881C63.5802 48.9904 63.3393 49.2642 63.0484 49.5097C62.7575 49.7551 62.42 49.9517 62.0359 50.0994C61.6518 50.2472 61.2245 50.321 60.7541 50.321C60.1109 50.321 59.5564 50.1767 59.0905 49.8881C58.6268 49.5994 58.2916 49.1813 58.0848 48.6335C57.8802 48.0835 57.8416 47.4176 57.9689 46.6358C58.0939 45.879 58.3405 45.2415 58.7086 44.7233C59.0791 44.2051 59.5291 43.8131 60.0586 43.5472C60.5905 43.2813 61.1575 43.1483 61.7598 43.1483C62.1961 43.1483 62.5882 43.2074 62.9359 43.3256C63.2859 43.4415 63.5825 43.6119 63.8257 43.8369C64.0689 44.0597 64.2495 44.3335 64.3677 44.6585C64.4882 44.9835 64.5359 45.3551 64.5109 45.7733ZM65.4424 44.6142L65.6743 43.2438H71.5754L71.3436 44.6142H69.2265L68.2993 50.2256H66.6356L67.5629 44.6142H65.4424ZM78.074 46.8438C77.9467 47.596 77.6967 48.2313 77.324 48.7494C76.9535 49.2654 76.5024 49.6563 75.9706 49.9222C75.441 50.1881 74.8717 50.321 74.2626 50.321C73.6194 50.321 73.0626 50.1779 72.5922 49.8915C72.1217 49.6051 71.7797 49.1881 71.566 48.6404C71.3547 48.0926 71.3138 47.4279 71.4433 46.646C71.566 45.8938 71.8126 45.2574 72.1831 44.7369C72.5558 44.2165 73.0092 43.8222 73.5433 43.554C74.0797 43.2835 74.6547 43.1483 75.2683 43.1483C75.9069 43.1483 76.4604 43.2926 76.9285 43.5813C77.399 43.8699 77.7399 44.2892 77.9513 44.8392C78.1626 45.3892 78.2035 46.0574 78.074 46.8438ZM76.3865 46.646C76.4569 46.2074 76.4569 45.8381 76.3865 45.5381C76.3183 45.2381 76.1842 45.0119 75.9842 44.8597C75.7842 44.7051 75.524 44.6279 75.2035 44.6279C74.849 44.6279 74.5285 44.7154 74.2422 44.8904C73.9581 45.0631 73.7206 45.3154 73.5297 45.6472C73.3388 45.9767 73.2058 46.3756 73.1308 46.8438C73.0535 47.2869 73.0513 47.6563 73.124 47.9517C73.199 48.2472 73.3388 48.4699 73.5433 48.6199C73.7479 48.7676 74.0081 48.8415 74.324 48.8415C74.6763 48.8415 74.9933 48.7563 75.2751 48.5858C75.5569 48.4154 75.7922 48.1665 75.9808 47.8392C76.1717 47.5119 76.3069 47.1142 76.3865 46.646ZM85.649 46.8438C85.5217 47.596 85.2717 48.2313 84.899 48.7494C84.5286 49.2654 84.0774 49.6563 83.5456 49.9222C83.0161 50.1881 82.4467 50.321 81.8376 50.321C81.1945 50.321 80.6376 50.1779 80.1672 49.8915C79.6967 49.6051 79.3547 49.1881 79.141 48.6404C78.9297 48.0926 78.8888 47.4279 79.0183 46.646C79.141 45.8938 79.3876 45.2574 79.7581 44.7369C80.1308 44.2165 80.5842 43.8222 81.1183 43.554C81.6547 43.2835 82.2297 43.1483 82.8433 43.1483C83.482 43.1483 84.0354 43.2926 84.5036 43.5813C84.974 43.8699 85.3149 44.2892 85.5263 44.8392C85.7376 45.3892 85.7786 46.0574 85.649 46.8438ZM83.9615 46.646C84.032 46.2074 84.032 45.8381 83.9615 45.5381C83.8933 45.2381 83.7592 45.0119 83.5592 44.8597C83.3592 44.7051 83.099 44.6279 82.7786 44.6279C82.424 44.6279 82.1036 44.7154 81.8172 44.8904C81.5331 45.0631 81.2956 45.3154 81.1047 45.6472C80.9138 45.9767 80.7808 46.3756 80.7058 46.8438C80.6285 47.2869 80.6263 47.6563 80.699 47.9517C80.774 48.2472 80.9138 48.4699 81.1183 48.6199C81.3229 48.7676 81.5831 48.8415 81.899 48.8415C82.2513 48.8415 82.5683 48.7563 82.8501 48.5858C83.132 48.4154 83.3672 48.1665 83.5558 47.8392C83.7467 47.5119 83.882 47.1142 83.9615 46.646ZM93.224 46.8438C93.0967 47.596 92.8467 48.2313 92.474 48.7494C92.1036 49.2654 91.6524 49.6563 91.1206 49.9222C90.5911 50.1881 90.0217 50.321 89.4126 50.321C88.7695 50.321 88.2126 50.1779 87.7422 49.8915C87.2717 49.6051 86.9297 49.1881 86.7161 48.6404C86.5047 48.0926 86.4638 47.4279 86.5933 46.646C86.7161 45.8938 86.9626 45.2574 87.3331 44.7369C87.7058 44.2165 88.1592 43.8222 88.6933 43.554C89.2297 43.2835 89.8047 43.1483 90.4183 43.1483C91.057 43.1483 91.6104 43.2926 92.0786 43.5813C92.549 43.8699 92.8899 44.2892 93.1013 44.8392C93.3127 45.3892 93.3536 46.0574 93.224 46.8438ZM91.5365 46.646C91.607 46.2074 91.607 45.8381 91.5365 45.5381C91.4683 45.2381 91.3342 45.0119 91.1342 44.8597C90.9342 44.7051 90.674 44.6279 90.3536 44.6279C89.999 44.6279 89.6786 44.7154 89.3922 44.8904C89.1081 45.0631 88.8706 45.3154 88.6797 45.6472C88.4888 45.9767 88.3558 46.3756 88.2808 46.8438C88.2036 47.2869 88.2013 47.6563 88.274 47.9517C88.349 48.2472 88.4888 48.4699 88.6933 48.6199C88.8979 48.7676 89.1581 48.8415 89.474 48.8415C89.8263 48.8415 90.1433 48.7563 90.4252 48.5858C90.707 48.4154 90.9422 48.1665 91.1308 47.8392C91.3217 47.5119 91.457 47.1142 91.5365 46.646ZM93.6467 50.2256L94.8058 43.2438H97.6899C98.2127 43.2438 98.649 43.3381 98.999 43.5267C99.349 43.7131 99.5979 43.9813 99.7456 44.3313C99.8933 44.679 99.9274 45.0915 99.8479 45.5688C99.7706 46.0506 99.5979 46.4608 99.3297 46.7994C99.0638 47.1358 98.7206 47.3926 98.3002 47.5699C97.882 47.7472 97.407 47.8358 96.8752 47.8358H95.0513L95.2763 46.5063H96.7865C97.0388 46.5063 97.257 46.4733 97.4411 46.4074C97.6252 46.3392 97.7718 46.2369 97.8808 46.1006C97.9922 45.9619 98.0661 45.7847 98.1024 45.5688C98.1365 45.3529 98.1206 45.1744 98.0547 45.0335C97.9911 44.8904 97.8786 44.7835 97.7172 44.7131C97.5581 44.6404 97.3536 44.604 97.1036 44.604H96.2718L95.3343 50.2256H93.6467ZM98.1058 47.0347L99.3161 50.2256H97.4752L96.3024 47.0347H98.1058ZM103.511 48.0506C103.263 48.0506 103.061 47.9642 102.904 47.7915C102.747 47.6188 102.679 47.4097 102.7 47.1642C102.722 46.9233 102.829 46.7176 103.02 46.5472C103.211 46.3767 103.429 46.2915 103.675 46.2915C103.909 46.2915 104.105 46.3767 104.264 46.5472C104.426 46.7176 104.495 46.9233 104.472 47.1642C104.459 47.3279 104.403 47.4767 104.305 47.6108C104.21 47.7449 104.092 47.8517 103.951 47.9313C103.81 48.0108 103.663 48.0506 103.511 48.0506Z" fill="white"/>
<path d="M42.8919 22.0526L41.8163 24.3168L43.2863 26.3472L41.0221 25.2717L38.9917 26.7416L40.0672 24.4775L38.5973 22.447L40.8614 23.5226L42.8919 22.0526Z" fill="white"/>
<path d="M79.7221 29.2987L78.6465 31.5629L80.1165 33.5933L77.8523 32.5178L75.8219 33.9877L76.8974 31.7236L75.4275 29.6931L77.6916 30.7687L79.7221 29.2987Z" fill="white"/>
<path d="M80.2845 12.4252L79.632 13.7988L80.5237 15.0305L79.1502 14.378L77.9184 15.2698L78.5709 13.8962L77.6792 12.6645L79.0527 13.3169L80.2845 12.4252Z" fill="white"/>
<defs>
<linearGradient id="paint0_linear_10753_23829" x1="4.75232" y1="2.58022" x2="21.675" y2="19.8564" gradientUnits="userSpaceOnUse">
<stop stop-color="#51DAD5"/>
<stop offset="0.734375" stop-color="#F9B787"/>
</linearGradient>
<linearGradient id="paint1_linear_10753_23829" x1="7.79114" y1="15.214" x2="24.7138" y2="32.4902" gradientUnits="userSpaceOnUse">
<stop stop-color="#51DAD5"/>
<stop offset="0.734375" stop-color="#F9B787"/>
</linearGradient>
<linearGradient id="paint2_linear_10753_23829" x1="11.1515" y1="27.8478" x2="28.0741" y2="45.124" gradientUnits="userSpaceOnUse">
<stop stop-color="#51DAD5"/>
<stop offset="0.734375" stop-color="#F9B787"/>
</linearGradient>
<linearGradient id="paint3_linear_10753_23829" x1="118.248" y1="2.58022" x2="101.325" y2="19.8564" gradientUnits="userSpaceOnUse">
<stop stop-color="#51DAD5"/>
<stop offset="0.734375" stop-color="#F9B787"/>
</linearGradient>
<linearGradient id="paint4_linear_10753_23829" x1="115.209" y1="15.214" x2="98.2862" y2="32.4902" gradientUnits="userSpaceOnUse">
<stop stop-color="#51DAD5"/>
<stop offset="0.734375" stop-color="#F9B787"/>
</linearGradient>
<linearGradient id="paint5_linear_10753_23829" x1="111.849" y1="27.8478" x2="94.9259" y2="45.124" gradientUnits="userSpaceOnUse">
<stop stop-color="#51DAD5"/>
<stop offset="0.734375" stop-color="#F9B787"/>
</linearGradient>
<linearGradient id="paint6_linear_10753_23829" x1="61.2208" y1="3.19727" x2="61.2208" y2="89.5371" gradientUnits="userSpaceOnUse">
<stop stop-color="#232859"/>
<stop offset="1" stop-color="#232859"/>
</linearGradient>
<linearGradient id="paint7_linear_10753_23829" x1="23.3544" y1="-3.99773" x2="102.598" y2="3.32446" gradientUnits="userSpaceOnUse">
<stop offset="0.0985558" stop-color="#F9B787"/>
<stop offset="1" stop-color="#51DAD5"/>
</linearGradient>
<linearGradient id="paint8_linear_10753_23829" x1="26.7719" y1="0.279404" x2="99.2356" y2="7.01515" gradientUnits="userSpaceOnUse">
<stop offset="0.0985558" stop-color="#F9B787"/>
<stop offset="1" stop-color="#51DAD5"/>
</linearGradient>
<linearGradient id="paint9_linear_10753_23829" x1="49.9519" y1="10.3119" x2="73.202" y2="12.6508" gradientUnits="userSpaceOnUse">
<stop offset="0.0985558" stop-color="#F9B787"/>
<stop offset="1" stop-color="#51DAD5"/>
</linearGradient>
<linearGradient id="paint10_linear_10753_23829" x1="49.9519" y1="10.3119" x2="73.202" y2="12.6508" gradientUnits="userSpaceOnUse">
<stop offset="0.0985558" stop-color="#F9B787"/>
<stop offset="1" stop-color="#51DAD5"/>
</linearGradient>
<linearGradient id="paint11_linear_10753_23829" x1="54.763" y1="63.1245" x2="68.2677" y2="64.5803" gradientUnits="userSpaceOnUse">
<stop offset="0.0985558" stop-color="#D8FF20"/>
<stop offset="1" stop-color="#99F7F4"/>
</linearGradient>
<linearGradient id="paint12_linear_10753_23829" x1="39.0648" y1="56.5308" x2="52.5544" y2="58.0543" gradientUnits="userSpaceOnUse">
<stop offset="0.0985558" stop-color="#D8FF20"/>
<stop offset="1" stop-color="#99F7F4"/>
</linearGradient>
<linearGradient id="paint13_linear_10753_23829" x1="70.4611" y1="56.5308" x2="83.9507" y2="58.0543" gradientUnits="userSpaceOnUse">
<stop offset="0.0985558" stop-color="#D8FF20"/>
<stop offset="1" stop-color="#99F7F4"/>
</linearGradient>
<linearGradient id="paint14_linear_10753_23829" x1="5.23691" y1="37.8678" x2="82.3617" y2="96.225" gradientUnits="userSpaceOnUse">
<stop offset="0.0985558" stop-color="#F9B787"/>
<stop offset="1" stop-color="#51DAD5"/>
</linearGradient>
</defs>
</svg>
