<svg width="108" height="90" viewBox="0 0 108 90" fill="none" xmlns="http://www.w3.org/2000/svg">
<path d="M26.0455 1.39206C21.3771 1.39206 17.5927 5.17653 17.5927 9.8449V60.7956C17.5927 63.576 18.9599 66.1786 21.2494 67.7561L49.3249 87.1012C52.2127 89.091 56.0292 89.091 58.917 87.1012L86.9925 67.7561C89.282 66.1786 90.6493 63.576 90.6493 60.7956V9.8449C90.6493 5.17653 86.8648 1.39206 82.1964 1.39206H26.0455Z" fill="url(#paint0_linear_10753_23852)" stroke="url(#paint1_linear_10753_23852)" stroke-width="2.4151"/>
<path d="M22.0001 11.0529C22.0001 8.55194 24.0275 6.52454 26.5284 6.52454H81.4718C83.9727 6.52454 86.0001 8.55194 86.0001 11.0529V60.0423C86.0001 61.5363 85.2633 62.9341 84.0307 63.7783L56.5591 82.5948C55.0167 83.6512 52.9836 83.6512 51.4412 82.5948L23.9695 63.7783C22.737 62.9341 22.0001 61.5363 22.0001 60.0423V11.0529Z" stroke="url(#paint2_linear_10753_23852)" stroke-width="0.603774"/>
<path fill-rule="evenodd" clip-rule="evenodd" d="M44.3624 29.6565L46.8964 31.0803L46.8927 27.2003L50.3455 25.2529L50.3455 21.3692L53.8285 19.3876L53.7965 11.6562L48.3832 14.6949L44.3624 16.9582L44.3624 16.9601L43.4341 17.4818L43.4341 29.1329L44.3624 29.6565ZM53.8003 11.6599L53.8003 15.54L57.2513 13.5999L53.8003 11.6599ZM60.708 23.3129L57.2532 25.2529L57.2532 29.1421L53.7985 31.0821L53.7985 34.9603L63.6967 29.3956L64.159 29.1348L64.159 17.4836L63.6967 17.7445L63.6967 17.7464L63.6948 17.7445L60.708 19.4237L60.708 23.3129Z" fill="url(#paint3_linear_10753_23852)"/>
<path fill-rule="evenodd" clip-rule="evenodd" d="M60.738 23.2714L57.2832 25.2114L54.1135 23.4204L50.3756 21.3277L53.8285 19.3876L60.2757 23.0123L60.738 23.2714ZM64.1928 17.444L60.738 19.384L53.8303 15.5003L57.2813 13.5584L64.1928 17.444ZM46.9227 27.1587L50.3756 25.2187L57.2832 29.1024L53.8285 31.0424L46.9227 27.1587Z" fill="url(#paint4_linear_10753_23852)"/>
<path d="M53.2149 64.4795C53.4221 64.0944 53.9744 64.0944 54.1816 64.4795L55.494 66.9187C55.5705 67.061 55.7058 67.1623 55.8638 67.1957L58.5227 67.7577C58.9334 67.8445 59.0986 68.3413 58.8218 68.6568L56.9586 70.78C56.857 70.8958 56.8087 71.0491 56.8256 71.2022L57.1388 74.0411C57.186 74.4692 56.7443 74.7824 56.3559 74.5962L53.9356 73.4357C53.7855 73.3638 53.611 73.3638 53.4609 73.4357L51.0406 74.5962C50.6523 74.7824 50.2105 74.4692 50.2578 74.0411L50.5709 71.2022C50.5878 71.0491 50.5396 70.8958 50.4379 70.78L48.5747 68.6568C48.2979 68.3413 48.4632 67.8445 48.8738 67.7577L51.5327 67.1957C51.6907 67.1623 51.826 67.061 51.9025 66.9187L53.2149 64.4795Z" fill="url(#paint5_linear_10753_23852)"/>
<path d="M37.522 57.7878C37.7319 57.4153 38.2683 57.4153 38.4783 57.7878L39.7932 60.1207C39.8715 60.2596 40.0064 60.3576 40.1628 60.3892L42.7878 60.9188C43.2069 61.0034 43.3727 61.5136 43.0833 61.8283L41.271 63.7998C41.163 63.9172 41.1115 64.0758 41.1298 64.2343L41.4372 66.8945C41.4863 67.3192 41.0524 67.6345 40.6635 67.4566L38.2286 66.3421C38.0835 66.2758 37.9168 66.2758 37.7717 66.3421L35.3367 67.4566C34.9479 67.6345 34.514 67.3192 34.563 66.8945L34.8705 64.2343C34.8888 64.0758 34.8373 63.9172 34.7293 63.7998L32.917 61.8283C32.6276 61.5136 32.7933 61.0034 33.2125 60.9188L35.8375 60.3892C35.9939 60.3576 36.1288 60.2596 36.2071 60.1207L37.522 57.7878Z" fill="url(#paint6_linear_10753_23852)"/>
<path d="M68.9182 57.7878C69.1282 57.4153 69.6646 57.4153 69.8745 57.7878L71.1894 60.1207C71.2678 60.2596 71.4027 60.3576 71.559 60.3892L74.184 60.9188C74.6032 61.0034 74.7689 61.5136 74.4795 61.8283L72.6672 63.7998C72.5592 63.9172 72.5077 64.0758 72.526 64.2343L72.8335 66.8945C72.8826 67.3192 72.4486 67.6345 72.0598 67.4566L69.6248 66.3421C69.4798 66.2758 69.313 66.2758 69.168 66.3421L66.733 67.4566C66.3442 67.6345 65.9102 67.3192 65.9593 66.8945L66.2667 64.2343C66.285 64.0758 66.2335 63.9172 66.1256 63.7998L64.3132 61.8283C64.0238 61.5136 64.1896 61.0034 64.6087 60.9188L67.2337 60.3892C67.3901 60.3576 67.525 60.2596 67.6033 60.1207L68.9182 57.7878Z" fill="#515899"/>
<path d="M1.32395 39.0713C0.939455 38.5425 1.31719 37.8008 1.97098 37.8008H106.029C106.683 37.8008 107.061 38.5425 106.676 39.0713L102.125 45.3303C101.921 45.6108 101.921 45.9908 102.125 46.2713L106.676 52.5303C107.061 53.0591 106.683 53.8008 106.029 53.8008H1.97098C1.31719 53.8008 0.939455 53.0591 1.32395 52.5303L5.8751 46.2713C6.07906 45.9908 6.07906 45.6108 5.8751 45.3303L1.32395 39.0713Z" fill="url(#paint7_linear_10753_23852)"/>
<path d="M13.3891 46.6502C13.1414 46.6502 12.9391 46.5638 12.7823 46.3911C12.6255 46.2184 12.5573 46.0093 12.5777 45.7638C12.6005 45.5229 12.7073 45.3172 12.8982 45.1468C13.0891 44.9763 13.3073 44.8911 13.5527 44.8911C13.7868 44.8911 13.9834 44.9763 14.1425 45.1468C14.3039 45.3172 14.3732 45.5229 14.3505 45.7638C14.3368 45.9275 14.2812 46.0763 14.1834 46.2104C14.088 46.3445 13.9698 46.4513 13.8289 46.5309C13.688 46.6104 13.5414 46.6502 13.3891 46.6502ZM24.0766 44.3729H22.3925C22.4016 44.1956 22.3846 44.0377 22.3414 43.8991C22.2982 43.7581 22.23 43.6377 22.1368 43.5377C22.0437 43.4354 21.9278 43.3581 21.7891 43.3059C21.6505 43.2536 21.4891 43.2275 21.305 43.2275C20.9528 43.2275 20.6334 43.315 20.3471 43.49C20.0607 43.665 19.8209 43.9172 19.6278 44.2468C19.4346 44.5763 19.2993 44.9718 19.2221 45.4331C19.1516 45.8786 19.1528 46.2502 19.2255 46.5479C19.3005 46.8456 19.4391 47.0695 19.6414 47.2195C19.8437 47.3672 20.1005 47.4411 20.4118 47.4411C20.6141 47.4411 20.8016 47.4172 20.9743 47.3695C21.1493 47.3195 21.3073 47.2479 21.4482 47.1547C21.5891 47.0616 21.7107 46.9491 21.813 46.8172C21.9175 46.6831 21.9982 46.5343 22.055 46.3706H23.7528C23.6687 46.6775 23.53 46.9831 23.3369 47.2877C23.1459 47.59 22.905 47.8638 22.6141 48.1093C22.3232 48.3547 21.9857 48.5513 21.6016 48.6991C21.2175 48.8468 20.7903 48.9206 20.3198 48.9206C19.6766 48.9206 19.1221 48.7763 18.6562 48.4877C18.1925 48.1991 17.8573 47.7809 17.6505 47.2331C17.4459 46.6831 17.4073 46.0172 17.5346 45.2354C17.6596 44.4786 17.9062 43.8411 18.2743 43.3229C18.6448 42.8047 19.0948 42.4127 19.6243 42.1468C20.1562 41.8809 20.7232 41.7479 21.3255 41.7479C21.7618 41.7479 22.1539 41.807 22.5016 41.9252C22.8516 42.0411 23.1482 42.2116 23.3914 42.4366C23.6346 42.6593 23.8153 42.9331 23.9334 43.2581C24.0539 43.5831 24.1016 43.9547 24.0766 44.3729ZM31.4616 45.4434C31.3343 46.1956 31.0843 46.8309 30.7116 47.3491C30.3411 47.865 29.89 48.2559 29.3582 48.5218C28.8286 48.7877 28.2593 48.9206 27.6502 48.9206C27.007 48.9206 26.4502 48.7775 25.9798 48.4911C25.5093 48.2047 25.1673 47.7877 24.9536 47.24C24.7422 46.6922 24.7013 46.0275 24.8309 45.2456C24.9536 44.4934 25.2002 43.857 25.5707 43.3366C25.9434 42.8161 26.3968 42.4218 26.9309 42.1536C27.4673 41.8831 28.0423 41.7479 28.6559 41.7479C29.2945 41.7479 29.8479 41.8922 30.3161 42.1809C30.7866 42.4695 31.1275 42.8888 31.3388 43.4388C31.5502 43.9888 31.5911 44.657 31.4616 45.4434ZM29.7741 45.2456C29.8445 44.807 29.8445 44.4377 29.7741 44.1377C29.7059 43.8377 29.5718 43.6116 29.3718 43.4593C29.1718 43.3047 28.9116 43.2275 28.5911 43.2275C28.2366 43.2275 27.9161 43.315 27.6298 43.49C27.3457 43.6627 27.1082 43.915 26.9173 44.2468C26.7263 44.5763 26.5934 44.9752 26.5184 45.4434C26.4411 45.8866 26.4388 46.2559 26.5116 46.5513C26.5866 46.8468 26.7263 47.0695 26.9309 47.2195C27.1354 47.3672 27.3957 47.4411 27.7116 47.4411C28.0638 47.4411 28.3809 47.3559 28.6627 47.1854C28.9445 47.015 29.1798 46.7661 29.3684 46.4388C29.5593 46.1116 29.6945 45.7138 29.7741 45.2456ZM31.8843 48.8252L33.0434 41.8434H34.7309L33.8036 47.4547H36.7082L36.4764 48.8252H31.8843ZM37.3499 48.8252L38.509 41.8434H40.1965L39.2693 47.4547H42.1738L41.942 48.8252H37.3499ZM42.8156 48.8252L43.9747 41.8434H48.8428L48.611 43.2138H45.4303L45.1985 44.6456H48.1303L47.8985 46.0195H44.9667L44.7349 47.4547H47.9156L47.6838 48.8252H42.8156ZM55.811 44.3729H54.1269C54.136 44.1956 54.119 44.0377 54.0758 43.8991C54.0326 43.7581 53.9644 43.6377 53.8713 43.5377C53.7781 43.4354 53.6622 43.3581 53.5235 43.3059C53.3849 43.2536 53.2235 43.2275 53.0394 43.2275C52.6872 43.2275 52.3679 43.315 52.0815 43.49C51.7951 43.665 51.5554 43.9172 51.3622 44.2468C51.169 44.5763 51.0338 44.9718 50.9565 45.4331C50.886 45.8786 50.8872 46.2502 50.9599 46.5479C51.0349 46.8456 51.1735 47.0695 51.3758 47.2195C51.5781 47.3672 51.8349 47.4411 52.1463 47.4411C52.3485 47.4411 52.536 47.4172 52.7088 47.3695C52.8838 47.3195 53.0417 47.2479 53.1826 47.1547C53.3235 47.0616 53.4451 46.9491 53.5474 46.8172C53.6519 46.6831 53.7326 46.5343 53.7894 46.3706H55.4872C55.4031 46.6775 55.2644 46.9831 55.0713 47.2877C54.8804 47.59 54.6394 47.8638 54.3485 48.1093C54.0576 48.3547 53.7201 48.5513 53.336 48.6991C52.9519 48.8468 52.5247 48.9206 52.0542 48.9206C51.411 48.9206 50.8565 48.7763 50.3906 48.4877C49.9269 48.1991 49.5917 47.7809 49.3849 47.2331C49.1803 46.6831 49.1417 46.0172 49.269 45.2354C49.394 44.4786 49.6406 43.8411 50.0088 43.3229C50.3792 42.8047 50.8292 42.4127 51.3588 42.1468C51.8906 41.8809 52.4576 41.7479 53.0599 41.7479C53.4963 41.7479 53.8883 41.807 54.236 41.9252C54.586 42.0411 54.8826 42.2116 55.1258 42.4366C55.369 42.6593 55.5497 42.9331 55.6679 43.2581C55.7883 43.5831 55.836 43.9547 55.811 44.3729ZM56.7426 43.2138L56.9744 41.8434H62.8755L62.6437 43.2138H60.5267L59.5994 48.8252H57.9358L58.863 43.2138H56.7426ZM69.3741 45.4434C69.2468 46.1956 68.9968 46.8309 68.6241 47.3491C68.2537 47.865 67.8025 48.2559 67.2707 48.5218C66.7412 48.7877 66.1718 48.9206 65.5628 48.9206C64.9196 48.9206 64.3628 48.7775 63.8923 48.4911C63.4218 48.2047 63.0798 47.7877 62.8662 47.24C62.6548 46.6922 62.6139 46.0275 62.7434 45.2456C62.8662 44.4934 63.1128 43.857 63.4832 43.3366C63.8559 42.8161 64.3093 42.4218 64.8434 42.1536C65.3798 41.8831 65.9548 41.7479 66.5684 41.7479C67.2071 41.7479 67.7605 41.8922 68.2287 42.1809C68.6991 42.4695 69.04 42.8888 69.2514 43.4388C69.4628 43.9888 69.5037 44.657 69.3741 45.4434ZM67.6866 45.2456C67.7571 44.807 67.7571 44.4377 67.6866 44.1377C67.6184 43.8377 67.4843 43.6116 67.2843 43.4593C67.0843 43.3047 66.8241 43.2275 66.5037 43.2275C66.1491 43.2275 65.8287 43.315 65.5423 43.49C65.2582 43.6627 65.0207 43.915 64.8298 44.2468C64.6389 44.5763 64.5059 44.9752 64.4309 45.4434C64.3537 45.8866 64.3514 46.2559 64.4241 46.5513C64.4991 46.8468 64.6389 47.0695 64.8434 47.2195C65.048 47.3672 65.3082 47.4411 65.6241 47.4411C65.9764 47.4411 66.2934 47.3559 66.5753 47.1854C66.8571 47.015 67.0923 46.7661 67.2809 46.4388C67.4718 46.1116 67.6071 45.7138 67.6866 45.2456ZM76.9491 45.4434C76.8219 46.1956 76.5719 46.8309 76.1991 47.3491C75.8287 47.865 75.3775 48.2559 74.8457 48.5218C74.3162 48.7877 73.7469 48.9206 73.1378 48.9206C72.4946 48.9206 71.9378 48.7775 71.4673 48.4911C70.9969 48.2047 70.6548 47.7877 70.4412 47.24C70.2298 46.6922 70.1889 46.0275 70.3184 45.2456C70.4412 44.4934 70.6878 43.857 71.0582 43.3366C71.4309 42.8161 71.8844 42.4218 72.4184 42.1536C72.9548 41.8831 73.5298 41.7479 74.1434 41.7479C74.7821 41.7479 75.3355 41.8922 75.8037 42.1809C76.2741 42.4695 76.615 42.8888 76.8264 43.4388C77.0378 43.9888 77.0787 44.657 76.9491 45.4434ZM75.2616 45.2456C75.3321 44.807 75.3321 44.4377 75.2616 44.1377C75.1935 43.8377 75.0594 43.6116 74.8594 43.4593C74.6594 43.3047 74.3991 43.2275 74.0787 43.2275C73.7241 43.2275 73.4037 43.315 73.1173 43.49C72.8332 43.6627 72.5957 43.915 72.4048 44.2468C72.2139 44.5763 72.0809 44.9752 72.0059 45.4434C71.9287 45.8866 71.9264 46.2559 71.9991 46.5513C72.0741 46.8468 72.2139 47.0695 72.4184 47.2195C72.623 47.3672 72.8832 47.4411 73.1991 47.4411C73.5514 47.4411 73.8684 47.3559 74.1503 47.1854C74.4321 47.015 74.6673 46.7661 74.856 46.4388C75.0469 46.1116 75.1821 45.7138 75.2616 45.2456ZM84.5241 45.4434C84.3969 46.1956 84.1469 46.8309 83.7741 47.3491C83.4037 47.865 82.9526 48.2559 82.4207 48.5218C81.8912 48.7877 81.3219 48.9206 80.7128 48.9206C80.0696 48.9206 79.5128 48.7775 79.0423 48.4911C78.5719 48.2047 78.2298 47.7877 78.0162 47.24C77.8048 46.6922 77.7639 46.0275 77.8935 45.2456C78.0162 44.4934 78.2628 43.857 78.6332 43.3366C79.006 42.8161 79.4594 42.4218 79.9935 42.1536C80.5298 41.8831 81.1048 41.7479 81.7185 41.7479C82.3571 41.7479 82.9105 41.8922 83.3787 42.1809C83.8491 42.4695 84.1901 42.8888 84.4014 43.4388C84.6128 43.9888 84.6537 44.657 84.5241 45.4434ZM82.8366 45.2456C82.9071 44.807 82.9071 44.4377 82.8366 44.1377C82.7685 43.8377 82.6344 43.6116 82.4344 43.4593C82.2344 43.3047 81.9741 43.2275 81.6537 43.2275C81.2991 43.2275 80.9787 43.315 80.6923 43.49C80.4082 43.6627 80.1707 43.915 79.9798 44.2468C79.7889 44.5763 79.656 44.9752 79.581 45.4434C79.5037 45.8866 79.5014 46.2559 79.5741 46.5513C79.6491 46.8468 79.7889 47.0695 79.9935 47.2195C80.198 47.3672 80.4582 47.4411 80.7741 47.4411C81.1264 47.4411 81.4435 47.3559 81.7253 47.1854C82.0071 47.015 82.2423 46.7661 82.431 46.4388C82.6219 46.1116 82.7571 45.7138 82.8366 45.2456ZM84.9469 48.8252L86.106 41.8434H88.9901C89.5128 41.8434 89.9492 41.9377 90.2992 42.1263C90.6492 42.3127 90.898 42.5809 91.0457 42.9309C91.1935 43.2786 91.2276 43.6911 91.148 44.1684C91.0707 44.6502 90.898 45.0604 90.6298 45.3991C90.3639 45.7354 90.0207 45.9922 89.6003 46.1695C89.1821 46.3468 88.7071 46.4354 88.1753 46.4354H86.3514L86.5764 45.1059H88.0867C88.3389 45.1059 88.5571 45.0729 88.7412 45.007C88.9253 44.9388 89.0719 44.8366 89.181 44.7002C89.2923 44.5616 89.3662 44.3843 89.4026 44.1684C89.4367 43.9525 89.4207 43.7741 89.3548 43.6331C89.2912 43.49 89.1787 43.3831 89.0173 43.3127C88.8582 43.24 88.6537 43.2036 88.4037 43.2036H87.5719L86.6344 48.8252H84.9469ZM89.406 45.6343L90.6162 48.8252H88.7753L87.6026 45.6343H89.406ZM94.8111 46.6502C94.5634 46.6502 94.3611 46.5638 94.2043 46.3911C94.0475 46.2184 93.9793 46.0093 93.9997 45.7638C94.0225 45.5229 94.1293 45.3172 94.3202 45.1468C94.5111 44.9763 94.7293 44.8911 94.9747 44.8911C95.2088 44.8911 95.4054 44.9763 95.5645 45.1468C95.7259 45.3172 95.7952 45.5229 95.7725 45.7638C95.7588 45.9275 95.7031 46.0763 95.6054 46.2104C95.51 46.3445 95.3918 46.4513 95.2509 46.5309C95.11 46.6104 94.9634 46.6502 94.8111 46.6502Z" fill="white"/>
<path d="M35.792 21.455L34.7165 23.7192L36.1864 25.7496L33.9222 24.6741L31.8918 26.144L32.9673 23.8798L31.4974 21.8494L33.7616 22.9249L35.792 21.455Z" fill="white"/>
<path d="M72.6222 28.7011L71.5467 30.9653L73.0166 32.9957L70.7524 31.9202L68.722 33.3901L69.7975 31.1259L68.3276 29.0955L70.5918 30.171L72.6222 28.7011Z" fill="white"/>
<path d="M73.1846 11.8275L72.5321 13.2011L73.4239 14.4328L72.0503 13.7804L70.8186 14.6721L71.471 13.2985L70.5793 12.0668L71.9529 12.7193L73.1846 11.8275Z" fill="white"/>
<defs>
<linearGradient id="paint0_linear_10753_23852" x1="54.121" y1="2.59961" x2="54.121" y2="88.9395" gradientUnits="userSpaceOnUse">
<stop stop-color="#232859"/>
<stop offset="1" stop-color="#232859"/>
</linearGradient>
<linearGradient id="paint1_linear_10753_23852" x1="16.2546" y1="-4.59539" x2="95.4986" y2="2.7268" gradientUnits="userSpaceOnUse">
<stop offset="0.0985558" stop-color="#F9B787"/>
<stop offset="1" stop-color="#51DAD5"/>
</linearGradient>
<linearGradient id="paint2_linear_10753_23852" x1="19.3702" y1="-0.318253" x2="91.8338" y2="6.41749" gradientUnits="userSpaceOnUse">
<stop offset="0.0985558" stop-color="#F9B787"/>
<stop offset="1" stop-color="#51DAD5"/>
</linearGradient>
<linearGradient id="paint3_linear_10753_23852" x1="42.686" y1="9.71424" x2="65.9362" y2="12.0532" gradientUnits="userSpaceOnUse">
<stop offset="0.0985558" stop-color="#F9B787"/>
<stop offset="1" stop-color="#51DAD5"/>
</linearGradient>
<linearGradient id="paint4_linear_10753_23852" x1="42.686" y1="9.71424" x2="65.9362" y2="12.0532" gradientUnits="userSpaceOnUse">
<stop offset="0.0985558" stop-color="#F9B787"/>
<stop offset="1" stop-color="#51DAD5"/>
</linearGradient>
<linearGradient id="paint5_linear_10753_23852" x1="47.2254" y1="62.5268" x2="60.7301" y2="63.9827" gradientUnits="userSpaceOnUse">
<stop offset="0.0985558" stop-color="#D8FF20"/>
<stop offset="1" stop-color="#99F7F4"/>
</linearGradient>
<linearGradient id="paint6_linear_10753_23852" x1="31.5273" y1="55.9332" x2="45.0168" y2="57.4566" gradientUnits="userSpaceOnUse">
<stop offset="0.0985558" stop-color="#D8FF20"/>
<stop offset="1" stop-color="#99F7F4"/>
</linearGradient>
<linearGradient id="paint7_linear_10753_23852" x1="-3.46291" y1="36.4674" x2="73.6619" y2="94.8246" gradientUnits="userSpaceOnUse">
<stop offset="0.0985558" stop-color="#F9B787"/>
<stop offset="1" stop-color="#51DAD5"/>
</linearGradient>
</defs>
</svg>
