<svg width="123" height="91" viewBox="0 0 123 91" fill="none" xmlns="http://www.w3.org/2000/svg">
<path d="M4.39736 1.39664C4.26064 0.81102 4.93483 0.252969 5.55836 0.435631L31.4404 8.01765C31.8611 8.1409 32.054 8.56083 31.8729 8.95929L28.8746 15.5571C28.6909 15.9613 28.1929 16.1895 27.7658 16.0653L7.16481 10.0747C6.66598 9.92964 6.30447 9.56514 6.19518 9.09706L4.39736 1.39664Z" fill="url(#paint0_linear_10289_25074)"/>
<path d="M7.43618 14.0304C7.29946 13.4448 7.97364 12.8868 8.59718 13.0694L34.4792 20.6514C34.8999 20.7747 35.0928 21.1946 34.9118 21.5931L31.9134 28.1909C31.7297 28.5951 31.2317 28.8233 30.8047 28.6991L10.2036 22.7085C9.7048 22.5634 9.34329 22.1989 9.234 21.7309L7.43618 14.0304Z" fill="url(#paint1_linear_10289_25074)"/>
<path d="M10.7965 26.6642C10.6598 26.0786 11.334 25.5205 11.9575 25.7032L37.8396 33.2852C38.2603 33.4085 38.4532 33.8284 38.2721 34.2269L35.2737 40.8247C35.0901 41.2288 34.5921 41.4571 34.165 41.3329L13.564 35.3423C13.0652 35.1972 12.7036 34.8327 12.5944 34.3646L10.7965 26.6642Z" fill="url(#paint2_linear_10289_25074)"/>
<path d="M118.603 1.39664C118.739 0.81102 118.065 0.252969 117.442 0.435631L91.5596 8.01765C91.1389 8.1409 90.946 8.56083 91.1271 8.95929L94.1254 15.5571C94.3091 15.9613 94.8071 16.1895 95.2342 16.0653L115.835 10.0747C116.334 9.92964 116.696 9.56514 116.805 9.09706L118.603 1.39664Z" fill="url(#paint3_linear_10289_25074)"/>
<path d="M115.564 14.0304C115.701 13.4448 115.026 12.8868 114.403 13.0694L88.5208 20.6514C88.1001 20.7747 87.9072 21.1946 88.0882 21.5931L91.0866 28.1909C91.2703 28.5951 91.7683 28.8233 92.1953 28.6991L112.796 22.7085C113.295 22.5634 113.657 22.1989 113.766 21.7309L115.564 14.0304Z" fill="url(#paint4_linear_10289_25074)"/>
<path d="M112.203 26.6642C112.34 26.0786 111.666 25.5205 111.042 25.7032L85.1604 33.2852C84.7397 33.4085 84.5468 33.8284 84.7279 34.2269L87.7263 40.8247C87.9099 41.2288 88.4079 41.4571 88.835 41.3329L109.436 35.3423C109.935 35.1972 110.296 34.8327 110.406 34.3646L112.203 26.6642Z" fill="url(#paint5_linear_10289_25074)"/>
<path d="M33.1452 1.98972C28.4768 1.98972 24.6924 5.77418 24.6924 10.4426V61.3933C24.6924 64.1737 26.0596 66.7762 28.3491 68.3538L56.4246 87.6989C59.3124 89.6887 63.1289 89.6887 66.0167 87.6989L94.0922 68.3538C96.3817 66.7762 97.749 64.1737 97.749 61.3933V10.4426C97.749 5.77419 93.9645 1.98972 89.2961 1.98972H33.1452Z" fill="url(#paint6_linear_10289_25074)" stroke="url(#paint7_linear_10289_25074)" stroke-width="2.4151"/>
<path d="M29.4017 11.6505C29.4017 9.14959 31.4291 7.1222 33.93 7.1222H88.8734C91.3743 7.1222 93.4017 9.14959 93.4017 11.6505V60.64C93.4017 62.1339 92.6649 63.5317 91.4324 64.3759L63.9607 83.1924C62.4183 84.2489 60.3852 84.2489 58.8428 83.1924L31.3711 64.3759C30.1386 63.5317 29.4017 62.1339 29.4017 60.64V11.6505Z" stroke="url(#paint8_linear_10289_25074)" stroke-width="0.603774"/>
<path fill-rule="evenodd" clip-rule="evenodd" d="M51.6281 30.2542L54.1621 31.678L54.1583 27.7979L57.6112 25.8506L57.6112 21.9668L61.0941 19.9853L61.0622 12.2539L55.6489 15.2925L51.628 17.5559L51.628 17.5577L50.6997 18.0795L50.6997 29.7306L51.6281 30.2542ZM61.0659 12.2576L61.0659 16.1376L64.5169 14.1976L61.0659 12.2576ZM67.9736 23.9105L64.5188 25.8506L64.5189 29.7398L61.0641 31.6798L61.0641 35.558L70.9624 29.9933L71.4246 29.7324L71.4246 18.0813L70.9623 18.3422L70.9623 18.344L70.9605 18.3422L67.9736 20.0213L67.9736 23.9105Z" fill="url(#paint9_linear_10289_25074)"/>
<path fill-rule="evenodd" clip-rule="evenodd" d="M68.0036 23.869L64.5489 25.809L61.3791 24.018L57.6412 21.9253L61.0941 19.9853L67.5414 23.61L68.0036 23.869ZM71.4584 18.0416L68.0036 19.9816L61.096 16.0979L64.547 14.1561L71.4584 18.0416ZM54.1883 27.7564L57.6412 25.8164L64.5489 29.7001L61.0941 31.6401L54.1883 27.7564Z" fill="url(#paint10_linear_10289_25074)"/>
<path d="M60.7296 65.1199C60.9467 64.7165 61.5253 64.7165 61.7424 65.1199L63.026 67.5057C63.1061 67.6547 63.2479 67.7608 63.4134 67.7958L66.0168 68.3461C66.4469 68.4371 66.62 68.9575 66.33 69.288L64.5039 71.369C64.3974 71.4903 64.3469 71.6509 64.3646 71.8113L64.6713 74.592C64.7208 75.0405 64.258 75.3686 63.8512 75.1735L61.4846 74.0388C61.3274 73.9635 61.1445 73.9635 60.9874 74.0388L58.6208 75.1735C58.2139 75.3686 57.7512 75.0405 57.8006 74.592L58.1074 71.8113C58.1251 71.6509 58.0745 71.4903 57.968 71.369L56.1419 69.288C55.8519 68.9575 56.025 68.4371 56.4552 68.3461L59.0585 67.7958C59.2241 67.7608 59.3658 67.6547 59.446 67.5057L60.7296 65.1199Z" fill="url(#paint11_linear_10289_25074)"/>
<path d="M45.0596 58.3855C45.2695 58.013 45.8059 58.013 46.0159 58.3855L47.3308 60.7183C47.4091 60.8573 47.544 60.9553 47.7004 60.9868L50.3254 61.5165C50.7445 61.6011 50.9103 62.1112 50.6209 62.426L48.8086 64.3974C48.7006 64.5149 48.6491 64.6735 48.6674 64.8319L48.9748 67.4921C49.0239 67.9169 48.5899 68.2322 48.2011 68.0542L45.7662 66.9398C45.6211 66.8734 45.4544 66.8734 45.3093 66.9398L42.8743 68.0542C42.4855 68.2322 42.0516 67.9169 42.1006 67.4921L42.4081 64.8319C42.4264 64.6735 42.3749 64.5149 42.2669 64.3974L40.4546 62.426C40.1652 62.1112 40.3309 61.6011 40.7501 61.5165L43.3751 60.9868C43.5315 60.9553 43.6664 60.8573 43.7447 60.7183L45.0596 58.3855Z" fill="url(#paint12_linear_10289_25074)"/>
<path d="M76.4558 58.3855C76.6658 58.013 77.2022 58.013 77.4121 58.3855L78.727 60.7183C78.8054 60.8573 78.9403 60.9553 79.0966 60.9868L81.7216 61.5165C82.1408 61.6011 82.3065 62.1112 82.0171 62.426L80.2048 64.3974C80.0968 64.5149 80.0453 64.6735 80.0636 64.8319L80.3711 67.4921C80.4202 67.9169 79.9862 68.2322 79.5974 68.0542L77.1624 66.9398C77.0174 66.8734 76.8506 66.8734 76.7055 66.9398L74.2706 68.0542C73.8818 68.2322 73.4478 67.9169 73.4969 67.4921L73.8043 64.8319C73.8226 64.6735 73.7711 64.5149 73.6632 64.3974L71.8508 62.426C71.5614 62.1112 71.7272 61.6011 72.1463 61.5165L74.7713 60.9868C74.9277 60.9553 75.0626 60.8573 75.1409 60.7183L76.4558 58.3855Z" fill="url(#paint13_linear_10289_25074)"/>
<path d="M10.0237 40.4717C9.63916 39.9429 10.0169 39.2012 10.6707 39.2012H114.729C115.383 39.2012 115.761 39.9429 115.376 40.4717L110.825 46.7307C110.621 47.0112 110.621 47.3912 110.825 47.6717L115.376 53.9307C115.761 54.4595 115.383 55.2012 114.729 55.2012H10.6707C10.0169 55.2012 9.63916 54.4595 10.0237 53.9307L14.5748 47.6717C14.7788 47.3912 14.7788 47.0112 14.5748 46.7307L10.0237 40.4717Z" fill="url(#paint14_linear_10289_25074)"/>
<path d="M30.1513 48.0506C29.9036 48.0506 29.7013 47.9642 29.5445 47.7915C29.3877 47.6188 29.3195 47.4097 29.34 47.1642C29.3627 46.9233 29.4695 46.7176 29.6604 46.5472C29.8513 46.3767 30.0695 46.2915 30.315 46.2915C30.5491 46.2915 30.7456 46.3767 30.9047 46.5472C31.0661 46.7176 31.1354 46.9233 31.1127 47.1642C31.0991 47.3279 31.0434 47.4767 30.9456 47.6108C30.8502 47.7449 30.732 47.8517 30.5911 47.9313C30.4502 48.0108 30.3036 48.0506 30.1513 48.0506ZM36.3866 50.2256H33.7684L34.9275 43.2438H37.4672C38.1763 43.2438 38.7672 43.3881 39.24 43.6767C39.715 43.9631 40.0502 44.3744 40.2457 44.9108C40.4434 45.4449 40.4809 46.0813 40.3582 46.8199C40.24 47.5335 40.0025 48.1449 39.6457 48.654C39.2911 49.1631 38.8366 49.5529 38.282 49.8233C37.7275 50.0915 37.0957 50.2256 36.3866 50.2256ZM35.6911 48.7869H36.4922C36.8832 48.7869 37.2286 48.7165 37.5286 48.5756C37.8309 48.4324 38.0809 48.204 38.2786 47.8904C38.4763 47.5744 38.6172 47.1597 38.7013 46.646C38.7832 46.1551 38.7797 45.7676 38.6911 45.4835C38.6047 45.1972 38.4366 44.9926 38.1866 44.8699C37.9388 44.7449 37.615 44.6824 37.215 44.6824H36.3763L35.6911 48.7869ZM46.1638 43.2438H47.8479L47.1013 47.7472C47.015 48.2676 46.8161 48.721 46.5048 49.1074C46.1957 49.4915 45.8013 49.7892 45.3218 50.0006C44.8423 50.2097 44.3082 50.3142 43.7195 50.3142C43.1286 50.3142 42.6298 50.2097 42.2229 50.0006C41.8161 49.7892 41.5218 49.4915 41.34 49.1074C41.1582 48.721 41.1093 48.2676 41.1934 47.7472L41.94 43.2438H43.6275L42.9013 47.6006C42.8627 47.8415 42.8809 48.0563 42.9559 48.2449C43.0332 48.4313 43.1582 48.579 43.3309 48.6881C43.5036 48.7949 43.715 48.8483 43.965 48.8483C44.2173 48.8483 44.4479 48.7949 44.657 48.6881C44.8661 48.579 45.0388 48.4313 45.1752 48.2449C45.3116 48.0563 45.3991 47.8415 45.4377 47.6006L46.1638 43.2438ZM48.9056 43.2438H50.9954L52.0522 47.5665H52.134L54.6227 43.2438H56.7124L55.5533 50.2256H53.9102L54.6227 45.9369H54.5647L52.1852 50.1813H51.1386L50.1704 45.9131H50.1124L49.3897 50.2256H47.7465L48.9056 43.2438ZM56.6059 50.2256L57.765 43.2438H60.6491C61.1718 43.2438 61.607 43.3449 61.9548 43.5472C62.3025 43.7494 62.5491 44.0324 62.6945 44.396C62.84 44.7597 62.873 45.1813 62.7934 45.6608C62.7161 46.1449 62.5423 46.5665 62.2718 46.9256C62.0036 47.2847 61.6582 47.5631 61.2355 47.7608C60.8127 47.9585 60.332 48.0574 59.7934 48.0574H58.0173L58.2389 46.7279H59.7048C59.9616 46.7279 60.1832 46.6835 60.3695 46.5949C60.5582 46.5063 60.7093 46.3824 60.823 46.2233C60.9366 46.0642 61.0116 45.8767 61.048 45.6608C61.082 45.4449 61.0684 45.2585 61.007 45.1017C60.9457 44.9426 60.8355 44.8199 60.6764 44.7335C60.5195 44.6472 60.315 44.604 60.0627 44.604H59.2309L58.2934 50.2256H56.6059ZM70.0113 46.8438C69.884 47.596 69.634 48.2313 69.2613 48.7494C68.8909 49.2654 68.4397 49.6563 67.9079 49.9222C67.3784 50.1881 66.809 50.321 66.1999 50.321C65.5568 50.321 64.9999 50.1779 64.5295 49.8915C64.059 49.6051 63.717 49.1881 63.5034 48.6404C63.292 48.0926 63.2511 47.4279 63.3806 46.646C63.5034 45.8938 63.7499 45.2574 64.1204 44.7369C64.4931 44.2165 64.9465 43.8222 65.4806 43.554C66.017 43.2835 66.592 43.1483 67.2056 43.1483C67.8443 43.1483 68.3977 43.2926 68.8659 43.5813C69.3363 43.8699 69.6772 44.2892 69.8886 44.8392C70.1 45.3892 70.1409 46.0574 70.0113 46.8438ZM68.3238 46.646C68.3943 46.2074 68.3943 45.8381 68.3238 45.5381C68.2556 45.2381 68.1215 45.0119 67.9215 44.8597C67.7215 44.7051 67.4613 44.6279 67.1409 44.6279C66.7863 44.6279 66.4659 44.7154 66.1795 44.8904C65.8954 45.0631 65.6579 45.3154 65.467 45.6472C65.2761 45.9767 65.1431 46.3756 65.0681 46.8438C64.9909 47.2869 64.9886 47.6563 65.0613 47.9517C65.1363 48.2472 65.2761 48.4699 65.4806 48.6199C65.6852 48.7676 65.9454 48.8415 66.2613 48.8415C66.6136 48.8415 66.9306 48.7563 67.2125 48.5858C67.4943 48.4154 67.7295 48.1665 67.9181 47.8392C68.109 47.5119 68.2443 47.1142 68.3238 46.646ZM77.5863 46.8438C77.4591 47.596 77.2091 48.2313 76.8363 48.7494C76.4659 49.2654 76.0147 49.6563 75.4829 49.9222C74.9534 50.1881 74.384 50.321 73.775 50.321C73.1318 50.321 72.575 50.1779 72.1045 49.8915C71.634 49.6051 71.292 49.1881 71.0784 48.6404C70.867 48.0926 70.8261 47.4279 70.9556 46.646C71.0784 45.8938 71.325 45.2574 71.6954 44.7369C72.0681 44.2165 72.5215 43.8222 73.0556 43.554C73.592 43.2835 74.167 43.1483 74.7806 43.1483C75.4193 43.1483 75.9727 43.2926 76.4409 43.5813C76.9113 43.8699 77.2522 44.2892 77.4636 44.8392C77.675 45.3892 77.7159 46.0574 77.5863 46.8438ZM75.8988 46.646C75.9693 46.2074 75.9693 45.8381 75.8988 45.5381C75.8306 45.2381 75.6966 45.0119 75.4966 44.8597C75.2966 44.7051 75.0363 44.6279 74.7159 44.6279C74.3613 44.6279 74.0409 44.7154 73.7545 44.8904C73.4704 45.0631 73.2329 45.3154 73.042 45.6472C72.8511 45.9767 72.7181 46.3756 72.6431 46.8438C72.5659 47.2869 72.5636 47.6563 72.6363 47.9517C72.7113 48.2472 72.8511 48.4699 73.0556 48.6199C73.2602 48.7676 73.5204 48.8415 73.8363 48.8415C74.1886 48.8415 74.5056 48.7563 74.7875 48.5858C75.0693 48.4154 75.3045 48.1665 75.4931 47.8392C75.6841 47.5119 75.8193 47.1142 75.8988 46.646ZM85.1613 46.8438C85.0341 47.596 84.7841 48.2313 84.4113 48.7494C84.0409 49.2654 83.5897 49.6563 83.0579 49.9222C82.5284 50.1881 81.9591 50.321 81.35 50.321C80.7068 50.321 80.15 50.1779 79.6795 49.8915C79.2091 49.6051 78.867 49.1881 78.6534 48.6404C78.442 48.0926 78.4011 47.4279 78.5306 46.646C78.6534 45.8938 78.9 45.2574 79.2704 44.7369C79.6431 44.2165 80.0966 43.8222 80.6306 43.554C81.167 43.2835 81.742 43.1483 82.3556 43.1483C82.9943 43.1483 83.5477 43.2926 84.0159 43.5813C84.4863 43.8699 84.8272 44.2892 85.0386 44.8392C85.25 45.3892 85.2909 46.0574 85.1613 46.8438ZM83.4738 46.646C83.5443 46.2074 83.5443 45.8381 83.4738 45.5381C83.4057 45.2381 83.2716 45.0119 83.0716 44.8597C82.8716 44.7051 82.6113 44.6279 82.2909 44.6279C81.9363 44.6279 81.6159 44.7154 81.3295 44.8904C81.0454 45.0631 80.8079 45.3154 80.617 45.6472C80.4261 45.9767 80.2931 46.3756 80.2181 46.8438C80.1409 47.2869 80.1386 47.6563 80.2113 47.9517C80.2863 48.2472 80.4261 48.4699 80.6306 48.6199C80.8352 48.7676 81.0954 48.8415 81.4113 48.8415C81.7636 48.8415 82.0806 48.7563 82.3625 48.5858C82.6443 48.4154 82.8795 48.1665 83.0682 47.8392C83.2591 47.5119 83.3943 47.1142 83.4738 46.646ZM85.5841 50.2256L86.7432 43.2438H89.6273C90.15 43.2438 90.5863 43.3381 90.9363 43.5267C91.2863 43.7131 91.5352 43.9813 91.6829 44.3313C91.8307 44.679 91.8648 45.0915 91.7852 45.5688C91.7079 46.0506 91.5352 46.4608 91.267 46.7994C91.0011 47.1358 90.6579 47.3926 90.2375 47.5699C89.8193 47.7472 89.3443 47.8358 88.8125 47.8358H86.9886L87.2136 46.5063H88.7238C88.9761 46.5063 89.1943 46.4733 89.3784 46.4074C89.5625 46.3392 89.7091 46.2369 89.8182 46.1006C89.9295 45.9619 90.0034 45.7847 90.0398 45.5688C90.0738 45.3529 90.0579 45.1744 89.992 45.0335C89.9284 44.8904 89.8159 44.7835 89.6545 44.7131C89.4954 44.6404 89.2909 44.604 89.0409 44.604H88.2091L87.2716 50.2256H85.5841ZM90.0432 47.0347L91.2534 50.2256H89.4125L88.2398 47.0347H90.0432ZM95.4483 48.0506C95.2006 48.0506 94.9983 47.9642 94.8415 47.7915C94.6846 47.6188 94.6165 47.4097 94.6369 47.1642C94.6596 46.9233 94.7665 46.7176 94.9574 46.5472C95.1483 46.3767 95.3665 46.2915 95.6119 46.2915C95.846 46.2915 96.0426 46.3767 96.2017 46.5472C96.3631 46.7176 96.4324 46.9233 96.4096 47.1642C96.396 47.3279 96.3403 47.4767 96.2426 47.6108C96.1471 47.7449 96.029 47.8517 95.8881 47.9313C95.7471 48.0108 95.6006 48.0506 95.4483 48.0506Z" fill="white"/>
<path d="M42.8919 22.0526L41.8163 24.3168L43.2863 26.3472L41.0221 25.2717L38.9917 26.7416L40.0672 24.4775L38.5973 22.447L40.8614 23.5226L42.8919 22.0526Z" fill="white"/>
<path d="M79.7219 29.2987L78.6464 31.5629L80.1163 33.5933L77.8522 32.5178L75.8217 33.9877L76.8973 31.7236L75.4273 29.6931L77.6915 30.7687L79.7219 29.2987Z" fill="white"/>
<path d="M80.2843 12.4252L79.6319 13.7988L80.5236 15.0305L79.15 14.378L77.9183 15.2698L78.5708 13.8962L77.679 12.6645L79.0526 13.3169L80.2843 12.4252Z" fill="white"/>
<defs>
<linearGradient id="paint0_linear_10289_25074" x1="4.75227" y1="2.58022" x2="21.675" y2="19.8564" gradientUnits="userSpaceOnUse">
<stop stop-color="#51DAD5"/>
<stop offset="0.734375" stop-color="#F9B787"/>
</linearGradient>
<linearGradient id="paint1_linear_10289_25074" x1="7.79109" y1="15.214" x2="24.7138" y2="32.4902" gradientUnits="userSpaceOnUse">
<stop stop-color="#51DAD5"/>
<stop offset="0.734375" stop-color="#F9B787"/>
</linearGradient>
<linearGradient id="paint2_linear_10289_25074" x1="11.1514" y1="27.8478" x2="28.0741" y2="45.124" gradientUnits="userSpaceOnUse">
<stop stop-color="#51DAD5"/>
<stop offset="0.734375" stop-color="#F9B787"/>
</linearGradient>
<linearGradient id="paint3_linear_10289_25074" x1="118.248" y1="2.58022" x2="101.325" y2="19.8564" gradientUnits="userSpaceOnUse">
<stop stop-color="#51DAD5"/>
<stop offset="0.734375" stop-color="#F9B787"/>
</linearGradient>
<linearGradient id="paint4_linear_10289_25074" x1="115.209" y1="15.214" x2="98.2862" y2="32.4902" gradientUnits="userSpaceOnUse">
<stop stop-color="#51DAD5"/>
<stop offset="0.734375" stop-color="#F9B787"/>
</linearGradient>
<linearGradient id="paint5_linear_10289_25074" x1="111.849" y1="27.8478" x2="94.9259" y2="45.124" gradientUnits="userSpaceOnUse">
<stop stop-color="#51DAD5"/>
<stop offset="0.734375" stop-color="#F9B787"/>
</linearGradient>
<linearGradient id="paint6_linear_10289_25074" x1="61.2207" y1="3.19727" x2="61.2207" y2="89.5371" gradientUnits="userSpaceOnUse">
<stop stop-color="#232859"/>
<stop offset="1" stop-color="#232859"/>
</linearGradient>
<linearGradient id="paint7_linear_10289_25074" x1="23.3543" y1="-3.99773" x2="102.598" y2="3.32446" gradientUnits="userSpaceOnUse">
<stop offset="0.0985558" stop-color="#F9B787"/>
<stop offset="1" stop-color="#51DAD5"/>
</linearGradient>
<linearGradient id="paint8_linear_10289_25074" x1="26.7718" y1="0.279404" x2="99.2355" y2="7.01515" gradientUnits="userSpaceOnUse">
<stop offset="0.0985558" stop-color="#F9B787"/>
<stop offset="1" stop-color="#51DAD5"/>
</linearGradient>
<linearGradient id="paint9_linear_10289_25074" x1="49.9516" y1="10.3119" x2="73.2018" y2="12.6508" gradientUnits="userSpaceOnUse">
<stop offset="0.0985558" stop-color="#F9B787"/>
<stop offset="1" stop-color="#51DAD5"/>
</linearGradient>
<linearGradient id="paint10_linear_10289_25074" x1="49.9516" y1="10.3119" x2="73.2018" y2="12.6508" gradientUnits="userSpaceOnUse">
<stop offset="0.0985558" stop-color="#F9B787"/>
<stop offset="1" stop-color="#51DAD5"/>
</linearGradient>
<linearGradient id="paint11_linear_10289_25074" x1="54.7631" y1="63.1245" x2="68.2678" y2="64.5803" gradientUnits="userSpaceOnUse">
<stop offset="0.0985558" stop-color="#D8FF20"/>
<stop offset="1" stop-color="#99F7F4"/>
</linearGradient>
<linearGradient id="paint12_linear_10289_25074" x1="39.0648" y1="56.5308" x2="52.5544" y2="58.0543" gradientUnits="userSpaceOnUse">
<stop offset="0.0985558" stop-color="#D8FF20"/>
<stop offset="1" stop-color="#99F7F4"/>
</linearGradient>
<linearGradient id="paint13_linear_10289_25074" x1="70.4611" y1="56.5308" x2="83.9507" y2="58.0543" gradientUnits="userSpaceOnUse">
<stop offset="0.0985558" stop-color="#D8FF20"/>
<stop offset="1" stop-color="#99F7F4"/>
</linearGradient>
<linearGradient id="paint14_linear_10289_25074" x1="5.23679" y1="37.8678" x2="82.3616" y2="96.225" gradientUnits="userSpaceOnUse">
<stop offset="0.0985558" stop-color="#F9B787"/>
<stop offset="1" stop-color="#51DAD5"/>
</linearGradient>
</defs>
</svg>
