<svg width="96" height="90" viewBox="0 0 96 90" fill="none" xmlns="http://www.w3.org/2000/svg">
<path d="M19.9245 1.39206C15.2561 1.39206 11.4717 5.17653 11.4717 9.8449V60.7956C11.4717 63.576 12.8389 66.1786 15.1284 67.7561L43.2039 87.1012C46.0917 89.091 49.9082 89.091 52.796 87.1012L80.8715 67.7561C83.161 66.1786 84.5283 63.576 84.5283 60.7956V9.8449C84.5283 5.17653 80.7438 1.39206 76.0754 1.39206H19.9245Z" fill="url(#paint0_linear_10289_25064)" stroke="url(#paint1_linear_10289_25064)" stroke-width="2.4151"/>
<path d="M16.0001 11.0529C16.0001 8.55194 18.0275 6.52454 20.5284 6.52454H75.4718C77.9727 6.52454 80.0001 8.55194 80.0001 11.0529V60.0423C80.0001 61.5363 79.2633 62.9341 78.0307 63.7783L50.5591 82.5948C49.0167 83.6512 46.9836 83.6512 45.4412 82.5948L17.9695 63.7783C16.737 62.9341 16.0001 61.5363 16.0001 60.0423V11.0529Z" stroke="url(#paint2_linear_10289_25064)" stroke-width="0.603774"/>
<path fill-rule="evenodd" clip-rule="evenodd" d="M38.3624 29.6565L40.8964 31.0803L40.8927 27.2003L44.3455 25.2529L44.3455 21.3692L47.8285 19.3876L47.7965 11.6562L42.3832 14.6949L38.3624 16.9582L38.3624 16.9601L37.4341 17.4818L37.4341 29.1329L38.3624 29.6565ZM47.8003 11.6599L47.8003 15.54L51.2513 13.5999L47.8003 11.6599ZM54.708 23.3129L51.2532 25.2529L51.2532 29.1421L47.7985 31.0821L47.7985 34.9603L57.6967 29.3956L58.159 29.1348L58.159 17.4836L57.6967 17.7445L57.6967 17.7464L57.6948 17.7445L54.708 19.4237L54.708 23.3129Z" fill="url(#paint3_linear_10289_25064)"/>
<path fill-rule="evenodd" clip-rule="evenodd" d="M54.738 23.2714L51.2832 25.2114L48.1135 23.4204L44.3756 21.3277L47.8285 19.3876L54.2757 23.0123L54.738 23.2714ZM58.1928 17.444L54.738 19.384L47.8303 15.5003L51.2813 13.5584L58.1928 17.444ZM40.9227 27.1587L44.3756 25.2187L51.2832 29.1024L47.8285 31.0424L40.9227 27.1587Z" fill="url(#paint4_linear_10289_25064)"/>
<path d="M47.1918 64.5223C47.4088 64.1188 47.9875 64.1188 48.2045 64.5223L49.4881 66.908C49.5683 67.0571 49.71 67.1632 49.8756 67.1982L52.4789 67.7485C52.9091 67.8394 53.0822 68.3599 52.7922 68.6903L50.9661 70.7713C50.8596 70.8927 50.809 71.0532 50.8267 71.2137L51.1335 73.9943C51.183 74.4428 50.7202 74.771 50.3133 74.5759L47.9467 73.4412C47.7896 73.3658 47.6067 73.3658 47.4495 73.4412L45.083 74.5759C44.6761 74.771 44.2133 74.4428 44.2628 73.9943L44.5695 71.2137C44.5873 71.0532 44.5367 70.8927 44.4302 70.7713L42.6041 68.6903C42.3141 68.3599 42.4872 67.8394 42.9174 67.7485L45.5207 67.1982C45.6862 67.1632 45.828 67.0571 45.9082 66.908L47.1918 64.5223Z" fill="#515899"/>
<path d="M31.522 57.7878C31.7319 57.4153 32.2683 57.4153 32.4783 57.7878L33.7932 60.1207C33.8715 60.2596 34.0064 60.3576 34.1628 60.3892L36.7878 60.9188C37.2069 61.0034 37.3727 61.5136 37.0833 61.8283L35.271 63.7998C35.163 63.9172 35.1115 64.0758 35.1298 64.2343L35.4372 66.8945C35.4863 67.3192 35.0524 67.6345 34.6635 67.4566L32.2286 66.3421C32.0835 66.2758 31.9168 66.2758 31.7717 66.3421L29.3367 67.4566C28.9479 67.6345 28.514 67.3192 28.563 66.8945L28.8705 64.2343C28.8888 64.0758 28.8373 63.9172 28.7293 63.7998L26.917 61.8283C26.6276 61.5136 26.7933 61.0034 27.2125 60.9188L29.8375 60.3892C29.9939 60.3576 30.1288 60.2596 30.2071 60.1207L31.522 57.7878Z" fill="url(#paint5_linear_10289_25064)"/>
<path d="M62.9182 57.7878C63.1282 57.4153 63.6646 57.4153 63.8745 57.7878L65.1894 60.1207C65.2678 60.2596 65.4027 60.3576 65.559 60.3892L68.184 60.9188C68.6032 61.0034 68.7689 61.5136 68.4795 61.8283L66.6672 63.7998C66.5592 63.9172 66.5077 64.0758 66.526 64.2343L66.8335 66.8945C66.8826 67.3192 66.4486 67.6345 66.0598 67.4566L63.6248 66.3421C63.4798 66.2758 63.313 66.2758 63.168 66.3421L60.733 67.4566C60.3442 67.6345 59.9102 67.3192 59.9593 66.8945L60.2667 64.2343C60.285 64.0758 60.2335 63.9172 60.1256 63.7998L58.3132 61.8283C58.0238 61.5136 58.1896 61.0034 58.6087 60.9188L61.2337 60.3892C61.3901 60.3576 61.525 60.2596 61.6033 60.1207L62.9182 57.7878Z" fill="#515899"/>
<rect y="38.2227" width="96" height="16" rx="0.800001" fill="url(#paint6_linear_10289_25064)"/>
<path d="M14.8628 46.6512C14.615 46.6512 14.4128 46.5648 14.2559 46.3921C14.0991 46.2194 14.0309 46.0103 14.0514 45.7648C14.0741 45.5239 14.1809 45.3182 14.3718 45.1478C14.5628 44.9773 14.7809 44.8921 15.0264 44.8921C15.2605 44.8921 15.4571 44.9773 15.6162 45.1478C15.7775 45.3182 15.8468 45.5239 15.8241 45.7648C15.8105 45.9284 15.7548 46.0773 15.6571 46.2114C15.5616 46.3455 15.4434 46.4523 15.3025 46.5319C15.1616 46.6114 15.015 46.6512 14.8628 46.6512ZM21.098 48.8262H18.4798L19.6389 41.8443H22.1787C22.8878 41.8443 23.4787 41.9887 23.9514 42.2773C24.4264 42.5637 24.7616 42.975 24.9571 43.5114C25.1548 44.0455 25.1923 44.6818 25.0696 45.4205C24.9514 46.1341 24.7139 46.7455 24.3571 47.2546C24.0025 47.7637 23.548 48.1534 22.9934 48.4239C22.4389 48.6921 21.8071 48.8262 21.098 48.8262ZM20.4025 47.3875H21.2037C21.5946 47.3875 21.94 47.3171 22.24 47.1762C22.5423 47.033 22.7923 46.8046 22.99 46.4909C23.1878 46.175 23.3287 45.7603 23.4128 45.2466C23.4946 44.7557 23.4912 44.3682 23.4025 44.0841C23.3162 43.7978 23.148 43.5932 22.898 43.4705C22.6503 43.3455 22.3264 43.283 21.9264 43.283H21.0878L20.4025 47.3875ZM30.8753 41.8443H32.5594L31.8128 46.3478C31.7264 46.8682 31.5275 47.3216 31.2162 47.708C30.9071 48.0921 30.5128 48.3898 30.0332 48.6012C29.5537 48.8103 29.0196 48.9148 28.431 48.9148C27.84 48.9148 27.3412 48.8103 26.9344 48.6012C26.5275 48.3898 26.2332 48.0921 26.0514 47.708C25.8696 47.3216 25.8207 46.8682 25.9048 46.3478L26.6514 41.8443H28.3389L27.6128 46.2012C27.5741 46.4421 27.5923 46.6569 27.6673 46.8455C27.7446 47.0319 27.8696 47.1796 28.0423 47.2887C28.215 47.3955 28.4264 47.4489 28.6764 47.4489C28.9287 47.4489 29.1594 47.3955 29.3685 47.2887C29.5775 47.1796 29.7503 47.0319 29.8866 46.8455C30.023 46.6569 30.1105 46.4421 30.1491 46.2012L30.8753 41.8443ZM33.617 41.8443H35.7068L36.7636 46.1671H36.8454L39.3341 41.8443H41.4239L40.2648 48.8262H38.6216L39.3341 44.5375H39.2761L36.8966 48.7819H35.85L34.8818 44.5137H34.8239L34.1011 48.8262H32.4579L33.617 41.8443ZM41.3173 48.8262L42.4764 41.8443H45.3605C45.8832 41.8443 46.3185 41.9455 46.6662 42.1478C47.0139 42.35 47.2605 42.633 47.406 42.9966C47.5514 43.3603 47.5844 43.7818 47.5048 44.2614C47.4276 44.7455 47.2537 45.1671 46.9832 45.5262C46.7151 45.8853 46.3696 46.1637 45.9469 46.3614C45.5242 46.5591 45.0435 46.658 44.5048 46.658H42.7287L42.9503 45.3284H44.4162C44.673 45.3284 44.8946 45.2841 45.081 45.1955C45.2696 45.1068 45.4207 44.983 45.5344 44.8239C45.648 44.6648 45.723 44.4773 45.7594 44.2614C45.7935 44.0455 45.7798 43.8591 45.7185 43.7023C45.6571 43.5432 45.5469 43.4205 45.3878 43.3341C45.231 43.2478 45.0264 43.2046 44.7742 43.2046H43.9423L43.0048 48.8262H41.3173ZM54.7227 45.4443C54.5955 46.1966 54.3455 46.8319 53.9727 47.35C53.6023 47.8659 53.1512 48.2569 52.6193 48.5228C52.0898 48.7887 51.5205 48.9216 50.9114 48.9216C50.2682 48.9216 49.7114 48.7784 49.2409 48.4921C48.7705 48.2057 48.4284 47.7887 48.2148 47.2409C48.0034 46.6932 47.9625 46.0284 48.0921 45.2466C48.2148 44.4943 48.4614 43.858 48.8318 43.3375C49.2046 42.8171 49.658 42.4228 50.1921 42.1546C50.7284 41.8841 51.3034 41.7489 51.9171 41.7489C52.5557 41.7489 53.1091 41.8932 53.5773 42.1818C54.0477 42.4705 54.3887 42.8898 54.6 43.4398C54.8114 43.9898 54.8523 44.658 54.7227 45.4443ZM53.0352 45.2466C53.1057 44.808 53.1057 44.4387 53.0352 44.1387C52.9671 43.8387 52.833 43.6125 52.633 43.4603C52.433 43.3057 52.1727 43.2284 51.8523 43.2284C51.4977 43.2284 51.1773 43.3159 50.8909 43.4909C50.6068 43.6637 50.3693 43.9159 50.1784 44.2478C49.9875 44.5773 49.8546 44.9762 49.7796 45.4443C49.7023 45.8875 49.7 46.2569 49.7727 46.5523C49.8477 46.8478 49.9875 47.0705 50.1921 47.2205C50.3966 47.3682 50.6568 47.4421 50.9727 47.4421C51.325 47.4421 51.6421 47.3569 51.9239 47.1864C52.2057 47.0159 52.4409 46.7671 52.6296 46.4398C52.8205 46.1125 52.9557 45.7148 53.0352 45.2466ZM62.2978 45.4443C62.1705 46.1966 61.9205 46.8319 61.5478 47.35C61.1773 47.8659 60.7262 48.2569 60.1943 48.5228C59.6648 48.7887 59.0955 48.9216 58.4864 48.9216C57.8432 48.9216 57.2864 48.7784 56.8159 48.4921C56.3455 48.2057 56.0034 47.7887 55.7898 47.2409C55.5784 46.6932 55.5375 46.0284 55.6671 45.2466C55.7898 44.4943 56.0364 43.858 56.4068 43.3375C56.7796 42.8171 57.233 42.4228 57.7671 42.1546C58.3034 41.8841 58.8784 41.7489 59.4921 41.7489C60.1307 41.7489 60.6841 41.8932 61.1523 42.1818C61.6228 42.4705 61.9637 42.8898 62.175 43.4398C62.3864 43.9898 62.4273 44.658 62.2978 45.4443ZM60.6103 45.2466C60.6807 44.808 60.6807 44.4387 60.6103 44.1387C60.5421 43.8387 60.408 43.6125 60.208 43.4603C60.008 43.3057 59.7477 43.2284 59.4273 43.2284C59.0727 43.2284 58.7523 43.3159 58.4659 43.4909C58.1818 43.6637 57.9443 43.9159 57.7534 44.2478C57.5625 44.5773 57.4296 44.9762 57.3546 45.4443C57.2773 45.8875 57.275 46.2569 57.3477 46.5523C57.4227 46.8478 57.5625 47.0705 57.7671 47.2205C57.9716 47.3682 58.2318 47.4421 58.5477 47.4421C58.9 47.4421 59.2171 47.3569 59.4989 47.1864C59.7807 47.0159 60.0159 46.7671 60.2046 46.4398C60.3955 46.1125 60.5307 45.7148 60.6103 45.2466ZM69.8728 45.4443C69.7455 46.1966 69.4955 46.8319 69.1228 47.35C68.7523 47.8659 68.3012 48.2569 67.7693 48.5228C67.2398 48.7887 66.6705 48.9216 66.0614 48.9216C65.4182 48.9216 64.8614 48.7784 64.3909 48.4921C63.9205 48.2057 63.5784 47.7887 63.3648 47.2409C63.1534 46.6932 63.1125 46.0284 63.2421 45.2466C63.3648 44.4943 63.6114 43.858 63.9818 43.3375C64.3546 42.8171 64.808 42.4228 65.3421 42.1546C65.8784 41.8841 66.4534 41.7489 67.0671 41.7489C67.7057 41.7489 68.2591 41.8932 68.7273 42.1818C69.1978 42.4705 69.5387 42.8898 69.75 43.4398C69.9614 43.9898 70.0023 44.658 69.8728 45.4443ZM68.1853 45.2466C68.2557 44.808 68.2557 44.4387 68.1853 44.1387C68.1171 43.8387 67.983 43.6125 67.783 43.4603C67.583 43.3057 67.3228 43.2284 67.0023 43.2284C66.6478 43.2284 66.3273 43.3159 66.0409 43.4909C65.7568 43.6637 65.5193 43.9159 65.3284 44.2478C65.1375 44.5773 65.0046 44.9762 64.9296 45.4443C64.8523 45.8875 64.85 46.2569 64.9228 46.5523C64.9978 46.8478 65.1375 47.0705 65.3421 47.2205C65.5466 47.3682 65.8068 47.4421 66.1228 47.4421C66.475 47.4421 66.7921 47.3569 67.0739 47.1864C67.3557 47.0159 67.5909 46.7671 67.7796 46.4398C67.9705 46.1125 68.1057 45.7148 68.1853 45.2466ZM70.2955 48.8262L71.4546 41.8443H74.3387C74.8614 41.8443 75.2978 41.9387 75.6478 42.1273C75.9978 42.3137 76.2466 42.5818 76.3944 42.9318C76.5421 43.2796 76.5762 43.6921 76.4966 44.1693C76.4194 44.6512 76.2466 45.0614 75.9785 45.4C75.7125 45.7364 75.3694 45.9932 74.9489 46.1705C74.5307 46.3478 74.0557 46.4364 73.5239 46.4364H71.7L71.925 45.1068H73.4353C73.6875 45.1068 73.9057 45.0739 74.0898 45.008C74.2739 44.9398 74.4205 44.8375 74.5296 44.7012C74.641 44.5625 74.7148 44.3853 74.7512 44.1693C74.7853 43.9534 74.7694 43.775 74.7035 43.6341C74.6398 43.4909 74.5273 43.3841 74.366 43.3137C74.2069 43.2409 74.0023 43.2046 73.7523 43.2046H72.9205L71.983 48.8262H70.2955ZM74.7546 45.6353L75.9648 48.8262H74.1239L72.9512 45.6353H74.7546ZM80.1597 46.6512C79.912 46.6512 79.7097 46.5648 79.5529 46.3921C79.3961 46.2194 79.3279 46.0103 79.3483 45.7648C79.3711 45.5239 79.4779 45.3182 79.6688 45.1478C79.8597 44.9773 80.0779 44.8921 80.3233 44.8921C80.5574 44.8921 80.754 44.9773 80.9131 45.1478C81.0745 45.3182 81.1438 45.5239 81.1211 45.7648C81.1074 45.9284 81.0518 46.0773 80.954 46.2114C80.8586 46.3455 80.7404 46.4523 80.5995 46.5319C80.4586 46.6114 80.312 46.6512 80.1597 46.6512Z" fill="white"/>
<defs>
<linearGradient id="paint0_linear_10289_25064" x1="48" y1="2.59961" x2="48" y2="88.9395" gradientUnits="userSpaceOnUse">
<stop stop-color="#232859"/>
<stop offset="1" stop-color="#232859"/>
</linearGradient>
<linearGradient id="paint1_linear_10289_25064" x1="10.1336" y1="-4.59539" x2="89.3776" y2="2.7268" gradientUnits="userSpaceOnUse">
<stop offset="0.0985558" stop-color="#F9B787"/>
<stop offset="1" stop-color="#51DAD5"/>
</linearGradient>
<linearGradient id="paint2_linear_10289_25064" x1="13.3702" y1="-0.318253" x2="85.8338" y2="6.41749" gradientUnits="userSpaceOnUse">
<stop offset="0.0985558" stop-color="#F9B787"/>
<stop offset="1" stop-color="#51DAD5"/>
</linearGradient>
<linearGradient id="paint3_linear_10289_25064" x1="36.686" y1="9.71424" x2="59.9362" y2="12.0532" gradientUnits="userSpaceOnUse">
<stop offset="0.0985558" stop-color="#F9B787"/>
<stop offset="1" stop-color="#51DAD5"/>
</linearGradient>
<linearGradient id="paint4_linear_10289_25064" x1="36.686" y1="9.71424" x2="59.9362" y2="12.0532" gradientUnits="userSpaceOnUse">
<stop offset="0.0985558" stop-color="#F9B787"/>
<stop offset="1" stop-color="#51DAD5"/>
</linearGradient>
<linearGradient id="paint5_linear_10289_25064" x1="25.5273" y1="55.9332" x2="39.0168" y2="57.4566" gradientUnits="userSpaceOnUse">
<stop offset="0.0985558" stop-color="#D8FF20"/>
<stop offset="1" stop-color="#99F7F4"/>
</linearGradient>
<linearGradient id="paint6_linear_10289_25064" x1="-3.45946" y1="36.8893" x2="70.9744" y2="87.326" gradientUnits="userSpaceOnUse">
<stop offset="0.0985558" stop-color="#F9B787"/>
<stop offset="1" stop-color="#51DAD5"/>
</linearGradient>
</defs>
</svg>
