<svg width="108" height="90" viewBox="0 0 108 90" fill="none" xmlns="http://www.w3.org/2000/svg">
<path d="M26.0456 1.39206C21.3772 1.39206 17.5927 5.17653 17.5927 9.8449V60.7956C17.5927 63.576 18.96 66.1786 21.2495 67.7561L49.325 87.1012C52.2128 89.091 56.0293 89.091 58.9171 87.1012L86.9926 67.7561C89.2821 66.1786 90.6494 63.576 90.6494 60.7956V9.8449C90.6494 5.17653 86.8649 1.39206 82.1965 1.39206H26.0456Z" fill="url(#paint0_linear_10289_25097)" stroke="url(#paint1_linear_10289_25097)" stroke-width="2.4151"/>
<path d="M22.0001 11.0529C22.0001 8.55194 24.0275 6.52454 26.5284 6.52454H81.4718C83.9727 6.52454 86.0001 8.55194 86.0001 11.0529V60.0423C86.0001 61.5363 85.2633 62.9341 84.0307 63.7783L56.5591 82.5948C55.0167 83.6512 52.9836 83.6512 51.4412 82.5948L23.9695 63.7783C22.737 62.9341 22.0001 61.5363 22.0001 60.0423V11.0529Z" stroke="url(#paint2_linear_10289_25097)" stroke-width="0.603774"/>
<path fill-rule="evenodd" clip-rule="evenodd" d="M44.3624 29.6565L46.8964 31.0803L46.8927 27.2003L50.3455 25.2529L50.3455 21.3692L53.8285 19.3876L53.7965 11.6562L48.3832 14.6949L44.3624 16.9582L44.3624 16.9601L43.4341 17.4818L43.4341 29.1329L44.3624 29.6565ZM53.8003 11.6599L53.8003 15.54L57.2513 13.5999L53.8003 11.6599ZM60.708 23.3129L57.2532 25.2529L57.2532 29.1421L53.7985 31.0821L53.7985 34.9603L63.6967 29.3956L64.159 29.1348L64.159 17.4836L63.6967 17.7445L63.6967 17.7464L63.6948 17.7445L60.708 19.4237L60.708 23.3129Z" fill="url(#paint3_linear_10289_25097)"/>
<path fill-rule="evenodd" clip-rule="evenodd" d="M60.738 23.2714L57.2832 25.2114L54.1135 23.4204L50.3756 21.3277L53.8285 19.3876L60.2757 23.0123L60.738 23.2714ZM64.1928 17.444L60.738 19.384L53.8303 15.5003L57.2813 13.5584L64.1928 17.444ZM46.9227 27.1587L50.3756 25.2187L57.2832 29.1024L53.8285 31.0424L46.9227 27.1587Z" fill="url(#paint4_linear_10289_25097)"/>
<path d="M53.215 64.4795C53.4222 64.0944 53.9746 64.0944 54.1817 64.4795L55.4941 66.9187C55.5706 67.061 55.7059 67.1623 55.864 67.1957L58.5229 67.7577C58.9335 67.8445 59.0987 68.3413 58.8219 68.6568L56.9587 70.78C56.8571 70.8958 56.8088 71.0491 56.8257 71.2022L57.1389 74.0411C57.1861 74.4692 56.7444 74.7824 56.356 74.5962L53.9357 73.4357C53.7857 73.3638 53.6111 73.3638 53.4611 73.4357L51.0408 74.5962C50.6524 74.7824 50.2106 74.4692 50.2579 74.0411L50.5711 71.2022C50.588 71.0491 50.5397 70.8958 50.438 70.78L48.5749 68.6568C48.298 68.3413 48.4633 67.8445 48.8739 67.7577L51.5328 67.1957C51.6908 67.1623 51.8261 67.061 51.9026 66.9187L53.215 64.4795Z" fill="url(#paint5_linear_10289_25097)"/>
<path d="M37.522 57.7878C37.7319 57.4153 38.2683 57.4153 38.4783 57.7878L39.7932 60.1207C39.8715 60.2596 40.0064 60.3576 40.1628 60.3892L42.7878 60.9188C43.2069 61.0034 43.3727 61.5136 43.0833 61.8283L41.271 63.7998C41.163 63.9172 41.1115 64.0758 41.1298 64.2343L41.4372 66.8945C41.4863 67.3192 41.0524 67.6345 40.6635 67.4566L38.2286 66.3421C38.0835 66.2758 37.9168 66.2758 37.7717 66.3421L35.3367 67.4566C34.9479 67.6345 34.514 67.3192 34.563 66.8945L34.8705 64.2343C34.8888 64.0758 34.8373 63.9172 34.7293 63.7998L32.917 61.8283C32.6276 61.5136 32.7933 61.0034 33.2125 60.9188L35.8375 60.3892C35.9939 60.3576 36.1288 60.2596 36.2071 60.1207L37.522 57.7878Z" fill="url(#paint6_linear_10289_25097)"/>
<path d="M68.9182 57.7878C69.1282 57.4153 69.6646 57.4153 69.8745 57.7878L71.1894 60.1207C71.2678 60.2596 71.4027 60.3576 71.559 60.3892L74.184 60.9188C74.6032 61.0034 74.7689 61.5136 74.4795 61.8283L72.6672 63.7998C72.5592 63.9172 72.5077 64.0758 72.526 64.2343L72.8335 66.8945C72.8826 67.3192 72.4486 67.6345 72.0598 67.4566L69.6248 66.3421C69.4798 66.2758 69.313 66.2758 69.168 66.3421L66.733 67.4566C66.3442 67.6345 65.9102 67.3192 65.9593 66.8945L66.2667 64.2343C66.285 64.0758 66.2335 63.9172 66.1256 63.7998L64.3132 61.8283C64.0238 61.5136 64.1896 61.0034 64.6087 60.9188L67.2337 60.3892C67.3901 60.3576 67.525 60.2596 67.6033 60.1207L68.9182 57.7878Z" fill="#515899"/>
<path d="M1.32395 39.0713C0.939455 38.5425 1.31719 37.8008 1.97098 37.8008H106.029C106.683 37.8008 107.061 38.5425 106.676 39.0713L102.125 45.3303C101.921 45.6108 101.921 45.9908 102.125 46.2713L106.676 52.5303C107.061 53.0591 106.683 53.8008 106.029 53.8008H1.97098C1.31719 53.8008 0.939455 53.0591 1.32395 52.5303L5.8751 46.2713C6.07906 45.9908 6.07906 45.6108 5.8751 45.3303L1.32395 39.0713Z" fill="url(#paint7_linear_10289_25097)"/>
<path d="M21.4516 46.6502C21.2039 46.6502 21.0016 46.5638 20.8448 46.3911C20.688 46.2184 20.6198 46.0093 20.6403 45.7638C20.663 45.5229 20.7698 45.3172 20.9607 45.1468C21.1516 44.9763 21.3698 44.8911 21.6153 44.8911C21.8493 44.8911 22.0459 44.9763 22.205 45.1468C22.3664 45.3172 22.4357 45.5229 22.413 45.7638C22.3993 45.9275 22.3437 46.0763 22.2459 46.2104C22.1505 46.3445 22.0323 46.4513 21.8914 46.5309C21.7505 46.6104 21.6039 46.6502 21.4516 46.6502ZM27.6869 48.8252H25.0687L26.2278 41.8434H28.7675C29.4766 41.8434 30.0675 41.9877 30.5403 42.2763C31.0153 42.5627 31.3505 42.9741 31.5459 43.5104C31.7437 44.0445 31.7812 44.6809 31.6584 45.4195C31.5403 46.1331 31.3028 46.7445 30.9459 47.2536C30.5914 47.7627 30.1369 48.1525 29.5823 48.4229C29.0278 48.6911 28.3959 48.8252 27.6869 48.8252ZM26.9914 47.3866H27.7925C28.1834 47.3866 28.5289 47.3161 28.8289 47.1752C29.1312 47.032 29.3812 46.8036 29.5789 46.49C29.7766 46.1741 29.9175 45.7593 30.0016 45.2456C30.0834 44.7547 30.08 44.3672 29.9914 44.0831C29.905 43.7968 29.7369 43.5922 29.4869 43.4695C29.2391 43.3445 28.9153 43.282 28.5153 43.282H27.6766L26.9914 47.3866ZM37.4641 41.8434H39.1482L38.4016 46.3468C38.3153 46.8672 38.1164 47.3206 37.805 47.707C37.496 48.0911 37.1016 48.3888 36.6221 48.6002C36.1425 48.8093 35.6085 48.9138 35.0198 48.9138C34.4289 48.9138 33.93 48.8093 33.5232 48.6002C33.1164 48.3888 32.8221 48.0911 32.6403 47.707C32.4585 47.3206 32.4096 46.8672 32.4937 46.3468L33.2403 41.8434H34.9278L34.2016 46.2002C34.163 46.4411 34.1812 46.6559 34.2562 46.8445C34.3335 47.0309 34.4585 47.1786 34.6312 47.2877C34.8039 47.3945 35.0153 47.4479 35.2653 47.4479C35.5175 47.4479 35.7482 47.3945 35.9573 47.2877C36.1664 47.1786 36.3391 47.0309 36.4755 46.8445C36.6119 46.6559 36.6994 46.4411 36.738 46.2002L37.4641 41.8434ZM40.2059 41.8434H42.2957L43.3525 46.1661H43.4343L45.923 41.8434H48.0127L46.8536 48.8252H45.2105L45.923 44.5366H45.865L43.4855 48.7809H42.4389L41.4707 44.5127H41.4127L40.69 48.8252H39.0468L40.2059 41.8434ZM47.9062 48.8252L49.0653 41.8434H51.9494C52.4721 41.8434 52.9073 41.9445 53.2551 42.1468C53.6028 42.3491 53.8494 42.632 53.9948 42.9956C54.1403 43.3593 54.1732 43.7809 54.0937 44.2604C54.0164 44.7445 53.8426 45.1661 53.5721 45.5252C53.3039 45.8843 52.9585 46.1627 52.5357 46.3604C52.113 46.5581 51.6323 46.657 51.0937 46.657H49.3176L49.5392 45.3275H51.0051C51.2619 45.3275 51.4835 45.2831 51.6698 45.1945C51.8585 45.1059 52.0096 44.982 52.1232 44.8229C52.2369 44.6638 52.3119 44.4763 52.3482 44.2604C52.3823 44.0445 52.3687 43.8581 52.3073 43.7013C52.246 43.5422 52.1357 43.4195 51.9767 43.3331C51.8198 43.2468 51.6153 43.2036 51.363 43.2036H50.5312L49.5937 48.8252H47.9062ZM61.3116 45.4434C61.1843 46.1956 60.9343 46.8309 60.5616 47.3491C60.1912 47.865 59.74 48.2559 59.2082 48.5218C58.6787 48.7877 58.1093 48.9206 57.5002 48.9206C56.8571 48.9206 56.3002 48.7775 55.8298 48.4911C55.3593 48.2047 55.0173 47.7877 54.8036 47.24C54.5923 46.6922 54.5514 46.0275 54.6809 45.2456C54.8036 44.4934 55.0502 43.857 55.4207 43.3366C55.7934 42.8161 56.2468 42.4218 56.7809 42.1536C57.3173 41.8831 57.8923 41.7479 58.5059 41.7479C59.1446 41.7479 59.698 41.8922 60.1662 42.1809C60.6366 42.4695 60.9775 42.8888 61.1889 43.4388C61.4002 43.9888 61.4412 44.657 61.3116 45.4434ZM59.6241 45.2456C59.6946 44.807 59.6946 44.4377 59.6241 44.1377C59.5559 43.8377 59.4218 43.6116 59.2218 43.4593C59.0218 43.3047 58.7616 43.2275 58.4412 43.2275C58.0866 43.2275 57.7662 43.315 57.4798 43.49C57.1957 43.6627 56.9582 43.915 56.7673 44.2468C56.5764 44.5763 56.4434 44.9752 56.3684 45.4434C56.2912 45.8866 56.2889 46.2559 56.3616 46.5513C56.4366 46.8468 56.5764 47.0695 56.7809 47.2195C56.9855 47.3672 57.2457 47.4411 57.5616 47.4411C57.9139 47.4411 58.2309 47.3559 58.5127 47.1854C58.7946 47.015 59.0298 46.7661 59.2184 46.4388C59.4093 46.1116 59.5446 45.7138 59.6241 45.2456ZM68.8866 45.4434C68.7593 46.1956 68.5093 46.8309 68.1366 47.3491C67.7662 47.865 67.315 48.2559 66.7832 48.5218C66.2537 48.7877 65.6843 48.9206 65.0753 48.9206C64.4321 48.9206 63.8752 48.7775 63.4048 48.4911C62.9343 48.2047 62.5923 47.7877 62.3787 47.24C62.1673 46.6922 62.1264 46.0275 62.2559 45.2456C62.3787 44.4934 62.6252 43.857 62.9957 43.3366C63.3684 42.8161 63.8218 42.4218 64.3559 42.1536C64.8923 41.8831 65.4673 41.7479 66.0809 41.7479C66.7196 41.7479 67.273 41.8922 67.7412 42.1809C68.2116 42.4695 68.5525 42.8888 68.7639 43.4388C68.9753 43.9888 69.0162 44.657 68.8866 45.4434ZM67.1991 45.2456C67.2696 44.807 67.2696 44.4377 67.1991 44.1377C67.1309 43.8377 66.9968 43.6116 66.7968 43.4593C66.5968 43.3047 66.3366 43.2275 66.0162 43.2275C65.6616 43.2275 65.3412 43.315 65.0548 43.49C64.7707 43.6627 64.5332 43.915 64.3423 44.2468C64.1514 44.5763 64.0184 44.9752 63.9434 45.4434C63.8662 45.8866 63.8639 46.2559 63.9366 46.5513C64.0116 46.8468 64.1514 47.0695 64.3559 47.2195C64.5605 47.3672 64.8207 47.4411 65.1366 47.4411C65.4889 47.4411 65.8059 47.3559 66.0878 47.1854C66.3696 47.015 66.6048 46.7661 66.7934 46.4388C66.9843 46.1116 67.1196 45.7138 67.1991 45.2456ZM76.4616 45.4434C76.3344 46.1956 76.0844 46.8309 75.7116 47.3491C75.3412 47.865 74.89 48.2559 74.3582 48.5218C73.8287 48.7877 73.2594 48.9206 72.6503 48.9206C72.0071 48.9206 71.4503 48.7775 70.9798 48.4911C70.5093 48.2047 70.1673 47.7877 69.9537 47.24C69.7423 46.6922 69.7014 46.0275 69.8309 45.2456C69.9537 44.4934 70.2003 43.857 70.5707 43.3366C70.9434 42.8161 71.3968 42.4218 71.9309 42.1536C72.4673 41.8831 73.0423 41.7479 73.6559 41.7479C74.2946 41.7479 74.848 41.8922 75.3162 42.1809C75.7866 42.4695 76.1275 42.8888 76.3389 43.4388C76.5503 43.9888 76.5912 44.657 76.4616 45.4434ZM74.7741 45.2456C74.8446 44.807 74.8446 44.4377 74.7741 44.1377C74.7059 43.8377 74.5719 43.6116 74.3719 43.4593C74.1719 43.3047 73.9116 43.2275 73.5912 43.2275C73.2366 43.2275 72.9162 43.315 72.6298 43.49C72.3457 43.6627 72.1082 43.915 71.9173 44.2468C71.7264 44.5763 71.5934 44.9752 71.5184 45.4434C71.4412 45.8866 71.4389 46.2559 71.5116 46.5513C71.5866 46.8468 71.7264 47.0695 71.9309 47.2195C72.1355 47.3672 72.3957 47.4411 72.7116 47.4411C73.0639 47.4411 73.3809 47.3559 73.6628 47.1854C73.9446 47.015 74.1798 46.7661 74.3684 46.4388C74.5594 46.1116 74.6946 45.7138 74.7741 45.2456ZM76.8844 48.8252L78.0435 41.8434H80.9275C81.4503 41.8434 81.8866 41.9377 82.2366 42.1263C82.5866 42.3127 82.8355 42.5809 82.9832 42.9309C83.131 43.2786 83.165 43.6911 83.0855 44.1684C83.0082 44.6502 82.8355 45.0604 82.5673 45.3991C82.3014 45.7354 81.9582 45.9922 81.5378 46.1695C81.1196 46.3468 80.6446 46.4354 80.1128 46.4354H78.2889L78.5139 45.1059H80.0241C80.2764 45.1059 80.4946 45.0729 80.6787 45.007C80.8628 44.9388 81.0094 44.8366 81.1185 44.7002C81.2298 44.5616 81.3037 44.3843 81.34 44.1684C81.3741 43.9525 81.3582 43.7741 81.2923 43.6331C81.2287 43.49 81.1162 43.3831 80.9548 43.3127C80.7957 43.24 80.5912 43.2036 80.3412 43.2036H79.5094L78.5719 48.8252H76.8844ZM81.3435 45.6343L82.5537 48.8252H80.7128L79.54 45.6343H81.3435ZM86.7486 46.6502C86.5008 46.6502 86.2986 46.5638 86.1418 46.3911C85.9849 46.2184 85.9168 46.0093 85.9372 45.7638C85.9599 45.5229 86.0668 45.3172 86.2577 45.1468C86.4486 44.9763 86.6668 44.8911 86.9122 44.8911C87.1463 44.8911 87.3429 44.9763 87.502 45.1468C87.6633 45.3172 87.7327 45.5229 87.7099 45.7638C87.6963 45.9275 87.6406 46.0763 87.5429 46.2104C87.4474 46.3445 87.3293 46.4513 87.1883 46.5309C87.0474 46.6104 86.9008 46.6502 86.7486 46.6502Z" fill="white"/>
<path d="M35.792 21.455L34.7165 23.7192L36.1864 25.7496L33.9222 24.6741L31.8918 26.144L32.9673 23.8798L31.4974 21.8494L33.7616 22.9249L35.792 21.455Z" fill="white"/>
<path d="M72.6223 28.7011L71.5468 30.9653L73.0167 32.9957L70.7526 31.9202L68.7221 33.3901L69.7977 31.1259L68.3277 29.0955L70.5919 30.171L72.6223 28.7011Z" fill="white"/>
<path d="M73.1845 11.8275L72.532 13.2011L73.4237 14.4328L72.0502 13.7804L70.8185 14.6721L71.4709 13.2985L70.5792 12.0668L71.9527 12.7193L73.1845 11.8275Z" fill="white"/>
<defs>
<linearGradient id="paint0_linear_10289_25097" x1="54.121" y1="2.59961" x2="54.121" y2="88.9395" gradientUnits="userSpaceOnUse">
<stop stop-color="#232859"/>
<stop offset="1" stop-color="#232859"/>
</linearGradient>
<linearGradient id="paint1_linear_10289_25097" x1="16.2547" y1="-4.59539" x2="95.4987" y2="2.7268" gradientUnits="userSpaceOnUse">
<stop offset="0.0985558" stop-color="#F9B787"/>
<stop offset="1" stop-color="#51DAD5"/>
</linearGradient>
<linearGradient id="paint2_linear_10289_25097" x1="19.3702" y1="-0.318253" x2="91.8338" y2="6.41749" gradientUnits="userSpaceOnUse">
<stop offset="0.0985558" stop-color="#F9B787"/>
<stop offset="1" stop-color="#51DAD5"/>
</linearGradient>
<linearGradient id="paint3_linear_10289_25097" x1="42.686" y1="9.71424" x2="65.9362" y2="12.0532" gradientUnits="userSpaceOnUse">
<stop offset="0.0985558" stop-color="#F9B787"/>
<stop offset="1" stop-color="#51DAD5"/>
</linearGradient>
<linearGradient id="paint4_linear_10289_25097" x1="42.686" y1="9.71424" x2="65.9362" y2="12.0532" gradientUnits="userSpaceOnUse">
<stop offset="0.0985558" stop-color="#F9B787"/>
<stop offset="1" stop-color="#51DAD5"/>
</linearGradient>
<linearGradient id="paint5_linear_10289_25097" x1="47.2255" y1="62.5268" x2="60.7302" y2="63.9827" gradientUnits="userSpaceOnUse">
<stop offset="0.0985558" stop-color="#D8FF20"/>
<stop offset="1" stop-color="#99F7F4"/>
</linearGradient>
<linearGradient id="paint6_linear_10289_25097" x1="31.5273" y1="55.9332" x2="45.0168" y2="57.4566" gradientUnits="userSpaceOnUse">
<stop offset="0.0985558" stop-color="#D8FF20"/>
<stop offset="1" stop-color="#99F7F4"/>
</linearGradient>
<linearGradient id="paint7_linear_10289_25097" x1="-3.46291" y1="36.4674" x2="73.6619" y2="94.8246" gradientUnits="userSpaceOnUse">
<stop offset="0.0985558" stop-color="#F9B787"/>
<stop offset="1" stop-color="#51DAD5"/>
</linearGradient>
</defs>
</svg>
