<svg width="108" height="90" viewBox="0 0 108 90" fill="none" xmlns="http://www.w3.org/2000/svg">
<path d="M26.0455 1.39206C21.3771 1.39206 17.5927 5.17653 17.5927 9.8449V60.7956C17.5927 63.576 18.9599 66.1786 21.2494 67.7561L49.3249 87.1012C52.2127 89.091 56.0292 89.091 58.917 87.1012L86.9925 67.7561C89.282 66.1786 90.6493 63.576 90.6493 60.7956V9.8449C90.6493 5.17653 86.8648 1.39206 82.1964 1.39206H26.0455Z" fill="url(#paint0_linear_10753_23905)" stroke="url(#paint1_linear_10753_23905)" stroke-width="2.4151"/>
<path d="M22.0001 11.0529C22.0001 8.55194 24.0275 6.52454 26.5284 6.52454H81.4718C83.9727 6.52454 86.0001 8.55194 86.0001 11.0529V60.0423C86.0001 61.5363 85.2633 62.9341 84.0307 63.7783L56.5591 82.5948C55.0167 83.6512 52.9836 83.6512 51.4412 82.5948L23.9695 63.7783C22.737 62.9341 22.0001 61.5363 22.0001 60.0423V11.0529Z" stroke="url(#paint2_linear_10753_23905)" stroke-width="0.603774"/>
<path fill-rule="evenodd" clip-rule="evenodd" d="M44.3624 29.6565L46.8964 31.0803L46.8927 27.2003L50.3455 25.2529L50.3455 21.3692L53.8285 19.3876L53.7965 11.6562L48.3832 14.6949L44.3624 16.9582L44.3624 16.9601L43.4341 17.4818L43.4341 29.1329L44.3624 29.6565ZM53.8003 11.6599L53.8003 15.54L57.2513 13.5999L53.8003 11.6599ZM60.708 23.3129L57.2532 25.2529L57.2532 29.1421L53.7985 31.0821L53.7985 34.9603L63.6967 29.3956L64.159 29.1348L64.159 17.4836L63.6967 17.7445L63.6967 17.7464L63.6948 17.7445L60.708 19.4237L60.708 23.3129Z" fill="url(#paint3_linear_10753_23905)"/>
<path fill-rule="evenodd" clip-rule="evenodd" d="M60.738 23.2714L57.2832 25.2114L54.1135 23.4204L50.3756 21.3277L53.8285 19.3876L60.2757 23.0123L60.738 23.2714ZM64.1928 17.444L60.738 19.384L53.8303 15.5003L57.2813 13.5584L64.1928 17.444ZM46.9227 27.1587L50.3756 25.2187L57.2832 29.1024L53.8285 31.0424L46.9227 27.1587Z" fill="url(#paint4_linear_10753_23905)"/>
<path d="M53.2149 64.4795C53.4221 64.0944 53.9744 64.0944 54.1816 64.4795L55.494 66.9187C55.5705 67.061 55.7058 67.1623 55.8638 67.1957L58.5227 67.7577C58.9334 67.8445 59.0986 68.3413 58.8218 68.6568L56.9586 70.78C56.857 70.8958 56.8087 71.0491 56.8256 71.2022L57.1388 74.0411C57.186 74.4692 56.7443 74.7824 56.3559 74.5962L53.9356 73.4357C53.7855 73.3638 53.611 73.3638 53.4609 73.4357L51.0406 74.5962C50.6523 74.7824 50.2105 74.4692 50.2578 74.0411L50.5709 71.2022C50.5878 71.0491 50.5396 70.8958 50.4379 70.78L48.5747 68.6568C48.2979 68.3413 48.4632 67.8445 48.8738 67.7577L51.5327 67.1957C51.6907 67.1623 51.826 67.061 51.9025 66.9187L53.2149 64.4795Z" fill="url(#paint5_linear_10753_23905)"/>
<path d="M37.522 57.7878C37.7319 57.4153 38.2683 57.4153 38.4783 57.7878L39.7932 60.1207C39.8715 60.2596 40.0064 60.3576 40.1628 60.3892L42.7878 60.9188C43.2069 61.0034 43.3727 61.5136 43.0833 61.8283L41.271 63.7998C41.163 63.9172 41.1115 64.0758 41.1298 64.2343L41.4372 66.8945C41.4863 67.3192 41.0524 67.6345 40.6635 67.4566L38.2286 66.3421C38.0835 66.2758 37.9168 66.2758 37.7717 66.3421L35.3367 67.4566C34.9479 67.6345 34.514 67.3192 34.563 66.8945L34.8705 64.2343C34.8888 64.0758 34.8373 63.9172 34.7293 63.7998L32.917 61.8283C32.6276 61.5136 32.7933 61.0034 33.2125 60.9188L35.8375 60.3892C35.9939 60.3576 36.1288 60.2596 36.2071 60.1207L37.522 57.7878Z" fill="url(#paint6_linear_10753_23905)"/>
<path d="M68.9182 57.7878C69.1282 57.4153 69.6646 57.4153 69.8745 57.7878L71.1894 60.1207C71.2678 60.2596 71.4027 60.3576 71.559 60.3892L74.184 60.9188C74.6032 61.0034 74.7689 61.5136 74.4795 61.8283L72.6672 63.7998C72.5592 63.9172 72.5077 64.0758 72.526 64.2343L72.8335 66.8945C72.8826 67.3192 72.4486 67.6345 72.0598 67.4566L69.6248 66.3421C69.4798 66.2758 69.313 66.2758 69.168 66.3421L66.733 67.4566C66.3442 67.6345 65.9102 67.3192 65.9593 66.8945L66.2667 64.2343C66.285 64.0758 66.2335 63.9172 66.1256 63.7998L64.3132 61.8283C64.0238 61.5136 64.1896 61.0034 64.6087 60.9188L67.2337 60.3892C67.3901 60.3576 67.525 60.2596 67.6033 60.1207L68.9182 57.7878Z" fill="#515899"/>
<path d="M1.32395 39.0713C0.939455 38.5425 1.31719 37.8008 1.97098 37.8008H106.029C106.683 37.8008 107.061 38.5425 106.676 39.0713L102.125 45.3303C101.921 45.6108 101.921 45.9908 102.125 46.2713L106.676 52.5303C107.061 53.0591 106.683 53.8008 106.029 53.8008H1.97098C1.31719 53.8008 0.939455 53.0591 1.32395 52.5303L5.8751 46.2713C6.07906 45.9908 6.07906 45.6108 5.8751 45.3303L1.32395 39.0713Z" fill="url(#paint7_linear_10753_23905)"/>
<path d="M25.647 46.8324C25.4199 46.8324 25.2345 46.7533 25.0907 46.5949C24.947 46.4366 24.8845 46.2449 24.9032 46.0199C24.9241 45.7991 25.022 45.6105 25.197 45.4543C25.372 45.298 25.572 45.2199 25.797 45.2199C26.0116 45.2199 26.1918 45.298 26.3376 45.4543C26.4855 45.6105 26.5491 45.7991 26.5282 46.0199C26.5157 46.1699 26.4647 46.3064 26.3751 46.4293C26.2876 46.5522 26.1793 46.6501 26.0501 46.723C25.9209 46.796 25.7866 46.8324 25.647 46.8324ZM28.9626 48.8262L30.0251 42.4262H34.3939L34.1814 43.6824H31.3595L31.147 44.9949H33.6907L33.4782 46.2543H30.9345L30.5095 48.8262H28.9626ZM34.1103 48.8262L35.1728 42.4262H36.7196L35.8696 47.5699H38.5321L38.3196 48.8262H34.1103ZM41.7298 42.4262L40.6673 48.8262H39.1204L40.1829 42.4262H41.7298ZM41.6384 48.8262L42.7009 42.4262H45.3447C45.8238 42.4262 46.2228 42.5189 46.5415 42.7043C46.8603 42.8897 47.0863 43.1491 47.2197 43.4824C47.353 43.8157 47.3832 44.2022 47.3103 44.6418C47.2394 45.0855 47.0801 45.472 46.8322 45.8012C46.5863 46.1303 46.2697 46.3855 45.8822 46.5668C45.4947 46.748 45.054 46.8387 44.5603 46.8387H42.9322L43.1353 45.6199H44.479C44.7144 45.6199 44.9176 45.5793 45.0884 45.498C45.2613 45.4168 45.3999 45.3033 45.504 45.1574C45.6082 45.0116 45.6769 44.8397 45.7103 44.6418C45.7415 44.4439 45.729 44.273 45.6728 44.1293C45.6165 43.9835 45.5155 43.871 45.3697 43.7918C45.2259 43.7126 45.0384 43.673 44.8072 43.673H44.0447L43.1853 48.8262H41.6384ZM47.3704 48.8262L48.4329 42.4262H51.0767C51.5559 42.4262 51.9548 42.5189 52.2736 42.7043C52.5923 42.8897 52.8184 43.1491 52.9517 43.4824C53.085 43.8157 53.1152 44.2022 53.0423 44.6418C52.9715 45.0855 52.8121 45.472 52.5642 45.8012C52.3184 46.1303 52.0017 46.3855 51.6142 46.5668C51.2267 46.748 50.7861 46.8387 50.2923 46.8387H48.6642L48.8673 45.6199H50.2111C50.4465 45.6199 50.6496 45.5793 50.8204 45.498C50.9934 45.4168 51.1319 45.3033 51.2361 45.1574C51.3402 45.0116 51.409 44.8397 51.4423 44.6418C51.4736 44.4439 51.4611 44.273 51.4048 44.1293C51.3486 43.9835 51.2475 43.871 51.1017 43.7918C50.9579 43.7126 50.7704 43.673 50.5392 43.673H49.7767L48.9173 48.8262H47.3704ZM59.6587 45.7262C59.5421 46.4158 59.3129 46.998 58.9712 47.473C58.6317 47.946 58.2181 48.3043 57.7306 48.548C57.2452 48.7918 56.7233 48.9137 56.165 48.9137C55.5754 48.9137 55.065 48.7824 54.6337 48.5199C54.2025 48.2574 53.8889 47.8751 53.6931 47.373C53.4994 46.871 53.4619 46.2616 53.5806 45.5449C53.6931 44.8553 53.9191 44.272 54.2587 43.7949C54.6004 43.3178 55.016 42.9564 55.5056 42.7105C55.9973 42.4626 56.5244 42.3387 57.0869 42.3387C57.6723 42.3387 58.1796 42.471 58.6087 42.7355C59.04 43.0001 59.3525 43.3845 59.5462 43.8887C59.74 44.3928 59.7775 45.0053 59.6587 45.7262ZM58.1119 45.5449C58.1764 45.1428 58.1764 44.8043 58.1119 44.5293C58.0494 44.2543 57.9264 44.047 57.7431 43.9074C57.5598 43.7657 57.3212 43.6949 57.0275 43.6949C56.7025 43.6949 56.4087 43.7751 56.1462 43.9355C55.8858 44.0939 55.6681 44.3251 55.4931 44.6293C55.3181 44.9314 55.1962 45.297 55.1275 45.7262C55.0566 46.1324 55.0546 46.471 55.1212 46.7418C55.19 47.0126 55.3181 47.2168 55.5056 47.3543C55.6931 47.4897 55.9316 47.5574 56.2212 47.5574C56.5441 47.5574 56.8348 47.4793 57.0931 47.323C57.3514 47.1668 57.5671 46.9387 57.74 46.6387C57.915 46.3387 58.0389 45.9741 58.1119 45.5449ZM66.6025 45.7262C66.4858 46.4158 66.2567 46.998 65.915 47.473C65.5754 47.946 65.1619 48.3043 64.6744 48.548C64.1889 48.7918 63.6671 48.9137 63.1087 48.9137C62.5192 48.9137 62.0087 48.7824 61.5775 48.5199C61.1462 48.2574 60.8327 47.8751 60.6369 47.373C60.4431 46.871 60.4056 46.2616 60.5244 45.5449C60.6369 44.8553 60.8629 44.272 61.2025 43.7949C61.5442 43.3178 61.9598 42.9564 62.4494 42.7105C62.941 42.4626 63.4681 42.3387 64.0306 42.3387C64.616 42.3387 65.1233 42.471 65.5525 42.7355C65.9837 43.0001 66.2962 43.3845 66.49 43.8887C66.6837 44.3928 66.7212 45.0053 66.6025 45.7262ZM65.0556 45.5449C65.1202 45.1428 65.1202 44.8043 65.0556 44.5293C64.9931 44.2543 64.8702 44.047 64.6869 43.9074C64.5035 43.7657 64.265 43.6949 63.9712 43.6949C63.6462 43.6949 63.3525 43.7751 63.09 43.9355C62.8296 44.0939 62.6119 44.3251 62.4369 44.6293C62.2619 44.9314 62.14 45.297 62.0712 45.7262C62.0004 46.1324 61.9983 46.471 62.065 46.7418C62.1337 47.0126 62.2619 47.2168 62.4494 47.3543C62.6369 47.4897 62.8754 47.5574 63.165 47.5574C63.4879 47.5574 63.7785 47.4793 64.0369 47.323C64.2952 47.1668 64.5108 46.9387 64.6837 46.6387C64.8587 46.3387 64.9827 45.9741 65.0556 45.5449ZM73.5463 45.7262C73.4296 46.4158 73.2004 46.998 72.8587 47.473C72.5192 47.946 72.1056 48.3043 71.6181 48.548C71.1327 48.7918 70.6108 48.9137 70.0525 48.9137C69.4629 48.9137 68.9525 48.7824 68.5212 48.5199C68.09 48.2574 67.7765 47.8751 67.5806 47.373C67.3869 46.871 67.3494 46.2616 67.4681 45.5449C67.5806 44.8553 67.8067 44.272 68.1462 43.7949C68.4879 43.3178 68.9035 42.9564 69.3931 42.7105C69.8848 42.4626 70.4119 42.3387 70.9744 42.3387C71.5598 42.3387 72.0671 42.471 72.4962 42.7355C72.9275 43.0001 73.24 43.3845 73.4338 43.8887C73.6275 44.3928 73.665 45.0053 73.5463 45.7262ZM71.9994 45.5449C72.064 45.1428 72.064 44.8043 71.9994 44.5293C71.9369 44.2543 71.814 44.047 71.6306 43.9074C71.4473 43.7657 71.2087 43.6949 70.915 43.6949C70.59 43.6949 70.2962 43.7751 70.0337 43.9355C69.7733 44.0939 69.5556 44.3251 69.3806 44.6293C69.2056 44.9314 69.0837 45.297 69.015 45.7262C68.9442 46.1324 68.9421 46.471 69.0087 46.7418C69.0775 47.0126 69.2056 47.2168 69.3931 47.3543C69.5806 47.4897 69.8192 47.5574 70.1087 47.5574C70.4317 47.5574 70.7223 47.4793 70.9806 47.323C71.239 47.1668 71.4546 46.9387 71.6275 46.6387C71.8025 46.3387 71.9265 45.9741 71.9994 45.5449ZM73.9338 48.8262L74.9963 42.4262H77.64C78.1192 42.4262 78.5192 42.5126 78.84 42.6855C79.1608 42.8564 79.389 43.1022 79.5244 43.423C79.6598 43.7418 79.6911 44.1199 79.6181 44.5574C79.5473 44.9991 79.389 45.3751 79.1431 45.6855C78.8994 45.9939 78.5848 46.2293 78.1994 46.3918C77.8161 46.5543 77.3806 46.6355 76.8931 46.6355H75.2213L75.4275 45.4168H76.8119C77.0431 45.4168 77.2431 45.3866 77.4119 45.3262C77.5806 45.2637 77.715 45.1699 77.815 45.0449C77.9171 44.9178 77.9848 44.7553 78.0181 44.5574C78.0494 44.3595 78.0348 44.196 77.9744 44.0668C77.9161 43.9355 77.8129 43.8376 77.665 43.773C77.5192 43.7064 77.3317 43.673 77.1025 43.673H76.34L75.4806 48.8262H73.9338ZM78.0213 45.9012L79.1306 48.8262H77.4431L76.3681 45.9012H78.0213ZM82.976 46.8324C82.7489 46.8324 82.5635 46.7533 82.4197 46.5949C82.276 46.4366 82.2135 46.2449 82.2322 46.0199C82.253 45.7991 82.351 45.6105 82.526 45.4543C82.701 45.298 82.901 45.2199 83.126 45.2199C83.3405 45.2199 83.5207 45.298 83.6666 45.4543C83.8145 45.6105 83.878 45.7991 83.8572 46.0199C83.8447 46.1699 83.7937 46.3064 83.7041 46.4293C83.6166 46.5522 83.5082 46.6501 83.3791 46.723C83.2499 46.796 83.1155 46.8324 82.976 46.8324Z" fill="white"/>
<path d="M35.792 21.455L34.7165 23.7192L36.1864 25.7496L33.9222 24.6741L31.8918 26.144L32.9673 23.8798L31.4974 21.8494L33.7616 22.9249L35.792 21.455Z" fill="white"/>
<path d="M72.6222 28.7011L71.5467 30.9653L73.0166 32.9957L70.7524 31.9202L68.722 33.3901L69.7975 31.1259L68.3276 29.0955L70.5918 30.171L72.6222 28.7011Z" fill="white"/>
<path d="M73.1846 11.8275L72.5321 13.2011L73.4239 14.4328L72.0503 13.7804L70.8186 14.6721L71.471 13.2985L70.5793 12.0668L71.9529 12.7193L73.1846 11.8275Z" fill="white"/>
<defs>
<linearGradient id="paint0_linear_10753_23905" x1="54.121" y1="2.59961" x2="54.121" y2="88.9395" gradientUnits="userSpaceOnUse">
<stop stop-color="#232859"/>
<stop offset="1" stop-color="#232859"/>
</linearGradient>
<linearGradient id="paint1_linear_10753_23905" x1="20.5662" y1="17.8794" x2="87.2925" y2="18.9267" gradientUnits="userSpaceOnUse">
<stop stop-color="#37BBBB"/>
<stop offset="1" stop-color="#708FFE"/>
</linearGradient>
<linearGradient id="paint2_linear_10753_23905" x1="23.3133" y1="20.1133" x2="84.3363" y2="21.0769" gradientUnits="userSpaceOnUse">
<stop stop-color="#37BBBB"/>
<stop offset="1" stop-color="#708FFE"/>
</linearGradient>
<linearGradient id="paint3_linear_10753_23905" x1="43.9531" y1="15.7804" x2="63.5603" y2="16.1154" gradientUnits="userSpaceOnUse">
<stop stop-color="#37BBBB"/>
<stop offset="1" stop-color="#708FFE"/>
</linearGradient>
<linearGradient id="paint4_linear_10753_23905" x1="43.9531" y1="15.7804" x2="63.5603" y2="16.1154" gradientUnits="userSpaceOnUse">
<stop stop-color="#37BBBB"/>
<stop offset="1" stop-color="#708FFE"/>
</linearGradient>
<linearGradient id="paint5_linear_10753_23905" x1="47.2254" y1="62.5268" x2="60.7301" y2="63.9827" gradientUnits="userSpaceOnUse">
<stop offset="0.0985558" stop-color="#D8FF20"/>
<stop offset="1" stop-color="#99F7F4"/>
</linearGradient>
<linearGradient id="paint6_linear_10753_23905" x1="31.5273" y1="55.9332" x2="45.0168" y2="57.4566" gradientUnits="userSpaceOnUse">
<stop offset="0.0985558" stop-color="#D8FF20"/>
<stop offset="1" stop-color="#99F7F4"/>
</linearGradient>
<linearGradient id="paint7_linear_10753_23905" x1="3.08015" y1="40.6323" x2="102.718" y2="53.4387" gradientUnits="userSpaceOnUse">
<stop stop-color="#37BBBB"/>
<stop offset="1" stop-color="#708FFE"/>
</linearGradient>
</defs>
</svg>
