<svg width="123" height="91" viewBox="0 0 123 91" fill="none" xmlns="http://www.w3.org/2000/svg">
<path d="M4.39741 1.39664C4.26068 0.81102 4.93487 0.252969 5.55841 0.435631L31.4404 8.01765C31.8612 8.1409 32.0541 8.56083 31.873 8.95929L28.8746 15.5571C28.691 15.9613 28.193 16.1895 27.7659 16.0653L7.16486 10.0747C6.66603 9.92964 6.30451 9.56514 6.19523 9.09706L4.39741 1.39664Z" fill="url(#paint0_linear_10753_23882)"/>
<path d="M7.43623 14.0304C7.2995 13.4448 7.97369 12.8868 8.59723 13.0694L34.4793 20.6514C34.9 20.7747 35.0929 21.1946 34.9118 21.5931L31.9134 28.1909C31.7298 28.5951 31.2318 28.8233 30.8047 28.6991L10.2037 22.7085C9.70485 22.5634 9.34333 22.1989 9.23405 21.7309L7.43623 14.0304Z" fill="url(#paint1_linear_10753_23882)"/>
<path d="M10.7965 26.6642C10.6598 26.0786 11.334 25.5205 11.9575 25.7032L37.8396 33.2852C38.2603 33.4085 38.4532 33.8284 38.2721 34.2269L35.2738 40.8247C35.0901 41.2288 34.5921 41.4571 34.165 41.3329L13.564 35.3423C13.0652 35.1972 12.7037 34.8327 12.5944 34.3646L10.7965 26.6642Z" fill="url(#paint2_linear_10753_23882)"/>
<path d="M118.603 1.39664C118.739 0.81102 118.065 0.252969 117.442 0.435631L91.5596 8.01765C91.1388 8.1409 90.9459 8.56083 91.127 8.95929L94.1254 15.5571C94.309 15.9613 94.807 16.1895 95.2341 16.0653L115.835 10.0747C116.334 9.92964 116.695 9.56514 116.805 9.09706L118.603 1.39664Z" fill="url(#paint3_linear_10753_23882)"/>
<path d="M115.564 14.0304C115.7 13.4448 115.026 12.8868 114.403 13.0694L88.5207 20.6514C88.1 20.7747 87.9071 21.1946 88.0882 21.5931L91.0866 28.1909C91.2702 28.5951 91.7682 28.8233 92.1953 28.6991L112.796 22.7085C113.295 22.5634 113.657 22.1989 113.766 21.7309L115.564 14.0304Z" fill="url(#paint4_linear_10753_23882)"/>
<path d="M112.204 26.6642C112.34 26.0786 111.666 25.5205 111.043 25.7032L85.1605 33.2852C84.7397 33.4085 84.5469 33.8284 84.7279 34.2269L87.7263 40.8247C87.91 41.2288 88.408 41.4571 88.835 41.3329L109.436 35.3423C109.935 35.1972 110.296 34.8327 110.406 34.3646L112.204 26.6642Z" fill="url(#paint5_linear_10753_23882)"/>
<path d="M33.1453 1.98972C28.4769 1.98972 24.6925 5.77418 24.6925 10.4426V61.3933C24.6925 64.1737 26.0598 66.7762 28.3493 68.3538L56.4247 87.6989C59.3125 89.6887 63.129 89.6887 66.0168 87.6989L94.0923 68.3538C96.3818 66.7762 97.7491 64.1737 97.7491 61.3933V10.4426C97.7491 5.77419 93.9646 1.98972 89.2963 1.98972H33.1453Z" fill="url(#paint6_linear_10753_23882)" stroke="url(#paint7_linear_10753_23882)" stroke-width="2.4151"/>
<path d="M29.4019 11.6505C29.4019 9.14959 31.4293 7.1222 33.9302 7.1222H88.8736C91.3745 7.1222 93.4019 9.14959 93.4019 11.6505V60.64C93.4019 62.1339 92.665 63.5317 91.4325 64.3759L63.9608 83.1924C62.4184 84.2489 60.3853 84.2489 58.8429 83.1924L31.3712 64.3759C30.1387 63.5317 29.4019 62.1339 29.4019 60.64V11.6505Z" stroke="url(#paint8_linear_10753_23882)" stroke-width="0.603774"/>
<path fill-rule="evenodd" clip-rule="evenodd" d="M51.6283 30.2542L54.1623 31.678L54.1585 27.7979L57.6114 25.8506L57.6114 21.9668L61.0943 19.9853L61.0624 12.2539L55.6491 15.2925L51.6283 17.5559L51.6283 17.5577L50.7 18.0795L50.7 29.7306L51.6283 30.2542ZM61.0662 12.2576L61.0662 16.1376L64.5172 14.1976L61.0662 12.2576ZM67.9739 23.9105L64.5191 25.8506L64.5191 29.7398L61.0643 31.6798L61.0643 35.558L70.9626 29.9933L71.4249 29.7324L71.4249 18.0813L70.9626 18.3422L70.9626 18.344L70.9607 18.3422L67.9739 20.0213L67.9739 23.9105Z" fill="url(#paint9_linear_10753_23882)"/>
<path fill-rule="evenodd" clip-rule="evenodd" d="M68.0039 23.869L64.5491 25.809L61.3794 24.018L57.6414 21.9253L61.0943 19.9853L67.5416 23.61L68.0039 23.869ZM71.4587 18.0416L68.0039 19.9816L61.0962 16.0979L64.5472 14.1561L71.4587 18.0416ZM54.1886 27.7564L57.6414 25.8164L64.5491 29.7001L61.0943 31.6401L54.1886 27.7564Z" fill="url(#paint10_linear_10753_23882)"/>
<path d="M60.7295 65.1199C60.9465 64.7165 61.5252 64.7165 61.7422 65.1199L63.0258 67.5057C63.106 67.6547 63.2478 67.7608 63.4133 67.7958L66.0166 68.3461C66.4468 68.4371 66.6199 68.9575 66.3299 69.288L64.5038 71.369C64.3973 71.4903 64.3467 71.6509 64.3644 71.8113L64.6712 74.592C64.7207 75.0405 64.2579 75.3686 63.851 75.1735L61.4845 74.0388C61.3273 73.9635 61.1444 73.9635 60.9872 74.0388L58.6207 75.1735C58.2138 75.3686 57.751 75.0405 57.8005 74.592L58.1073 71.8113C58.125 71.6509 58.0744 71.4903 57.9679 71.369L56.1418 69.288C55.8518 68.9575 56.0249 68.4371 56.4551 68.3461L59.0584 67.7958C59.224 67.7608 59.3657 67.6547 59.4459 67.5057L60.7295 65.1199Z" fill="url(#paint11_linear_10753_23882)"/>
<path d="M45.0596 58.3855C45.2695 58.013 45.8059 58.013 46.0159 58.3855L47.3308 60.7183C47.4091 60.8573 47.544 60.9553 47.7004 60.9868L50.3254 61.5165C50.7445 61.6011 50.9103 62.1112 50.6209 62.426L48.8086 64.3974C48.7006 64.5149 48.6491 64.6735 48.6674 64.8319L48.9748 67.4921C49.0239 67.9169 48.5899 68.2322 48.2011 68.0542L45.7662 66.9398C45.6211 66.8734 45.4544 66.8734 45.3093 66.9398L42.8743 68.0542C42.4855 68.2322 42.0516 67.9169 42.1006 67.4921L42.4081 64.8319C42.4264 64.6735 42.3749 64.5149 42.2669 64.3974L40.4546 62.426C40.1652 62.1112 40.3309 61.6011 40.7501 61.5165L43.3751 60.9868C43.5315 60.9553 43.6664 60.8573 43.7447 60.7183L45.0596 58.3855Z" fill="url(#paint12_linear_10753_23882)"/>
<path d="M76.4558 58.3855C76.6658 58.013 77.2022 58.013 77.4121 58.3855L78.727 60.7183C78.8053 60.8573 78.9402 60.9553 79.0966 60.9868L81.7216 61.5165C82.1408 61.6011 82.3065 62.1112 82.0171 62.426L80.2048 64.3974C80.0968 64.5149 80.0453 64.6735 80.0636 64.8319L80.371 67.4921C80.4201 67.9169 79.9862 68.2322 79.5974 68.0542L77.1624 66.9398C77.0173 66.8734 76.8506 66.8734 76.7055 66.9398L74.2706 68.0542C73.8817 68.2322 73.4478 67.9169 73.4969 67.4921L73.8043 64.8319C73.8226 64.6735 73.7711 64.5149 73.6631 64.3974L71.8508 62.426C71.5614 62.1112 71.7272 61.6011 72.1463 61.5165L74.7713 60.9868C74.9277 60.9553 75.0626 60.8573 75.1409 60.7183L76.4558 58.3855Z" fill="url(#paint13_linear_10753_23882)"/>
<path d="M10.0238 40.4717C9.63928 39.9429 10.017 39.2012 10.6708 39.2012H114.729C115.383 39.2012 115.761 39.9429 115.376 40.4717L110.825 46.7307C110.621 47.0112 110.621 47.3912 110.825 47.6717L115.376 53.9307C115.761 54.4595 115.383 55.2012 114.729 55.2012H10.6708C10.017 55.2012 9.63928 54.4595 10.0238 53.9307L14.5749 47.6717C14.7789 47.3912 14.7789 47.0112 14.5749 46.7307L10.0238 40.4717Z" fill="url(#paint14_linear_10753_23882)"/>
<path d="M34.3469 48.2328C34.1198 48.2328 33.9344 48.1536 33.7906 47.9953C33.6469 47.837 33.5844 47.6453 33.6031 47.4203C33.6239 47.1995 33.7219 47.0109 33.8969 46.8547C34.0719 46.6984 34.2719 46.6203 34.4969 46.6203C34.7114 46.6203 34.8917 46.6984 35.0375 46.8547C35.1854 47.0109 35.2489 47.1995 35.2281 47.4203C35.2156 47.5703 35.1646 47.7068 35.075 47.8297C34.9875 47.9526 34.8792 48.0505 34.75 48.1234C34.6208 48.1964 34.4864 48.2328 34.3469 48.2328ZM37.6625 50.2266L38.725 43.8266H43.0937L42.8812 45.0828H40.0594L39.8469 46.3953H42.3906L42.1781 47.6547H39.6344L39.2094 50.2266H37.6625ZM42.8102 50.2266L43.8727 43.8266H45.4195L44.5695 48.9703H47.232L47.0195 50.2266H42.8102ZM50.4297 43.8266L49.3672 50.2266H47.8203L48.8828 43.8266H50.4297ZM50.3383 50.2266L51.4008 43.8266H54.0445C54.5237 43.8266 54.9227 43.9193 55.2414 44.1047C55.5602 44.2901 55.7862 44.5495 55.9195 44.8828C56.0529 45.2161 56.0831 45.6026 56.0102 46.0422C55.9393 46.4859 55.78 46.8724 55.532 47.2016C55.2862 47.5307 54.9695 47.7859 54.582 47.9672C54.1945 48.1484 53.7539 48.2391 53.2602 48.2391H51.632L51.8352 47.0203H53.1789C53.4143 47.0203 53.6175 46.9797 53.7883 46.8984C53.9612 46.8172 54.0998 46.7036 54.2039 46.5578C54.3081 46.412 54.3768 46.2401 54.4102 46.0422C54.4414 45.8443 54.4289 45.6734 54.3727 45.5297C54.3164 45.3838 54.2154 45.2713 54.0695 45.1922C53.9258 45.113 53.7383 45.0734 53.507 45.0734H52.7445L51.8852 50.2266H50.3383ZM56.0703 50.2266L57.1328 43.8266H59.7766C60.2557 43.8266 60.6547 43.9193 60.9735 44.1047C61.2922 44.2901 61.5183 44.5495 61.6516 44.8828C61.7849 45.2161 61.8151 45.6026 61.7422 46.0422C61.6714 46.4859 61.512 46.8724 61.2641 47.2016C61.0183 47.5307 60.7016 47.7859 60.3141 47.9672C59.9266 48.1484 59.486 48.2391 58.9922 48.2391H57.3641L57.5672 47.0203H58.911C59.1464 47.0203 59.3495 46.9797 59.5203 46.8984C59.6932 46.8172 59.8318 46.7036 59.936 46.5578C60.0401 46.412 60.1089 46.2401 60.1422 46.0422C60.1735 45.8443 60.161 45.6734 60.1047 45.5297C60.0485 45.3838 59.9474 45.2713 59.8016 45.1922C59.6578 45.113 59.4703 45.0734 59.2391 45.0734H58.4766L57.6172 50.2266H56.0703ZM68.3586 47.1266C68.242 47.8161 68.0128 48.3984 67.6711 48.8734C67.3315 49.3464 66.918 49.7047 66.4305 49.9484C65.9451 50.1922 65.4232 50.3141 64.8649 50.3141C64.2753 50.3141 63.7649 50.1828 63.3336 49.9203C62.9024 49.6578 62.5888 49.2755 62.393 48.7734C62.1992 48.2714 62.1617 47.662 62.2805 46.9453C62.393 46.2557 62.619 45.6724 62.9586 45.1953C63.3003 44.7182 63.7159 44.3568 64.2055 44.1109C64.6972 43.863 65.2242 43.7391 65.7867 43.7391C66.3722 43.7391 66.8795 43.8713 67.3086 44.1359C67.7399 44.4005 68.0524 44.7849 68.2461 45.2891C68.4399 45.7932 68.4774 46.4057 68.3586 47.1266ZM66.8117 46.9453C66.8763 46.5432 66.8763 46.2047 66.8117 45.9297C66.7492 45.6547 66.6263 45.4474 66.443 45.3078C66.2597 45.1661 66.0211 45.0953 65.7274 45.0953C65.4024 45.0953 65.1086 45.1755 64.8461 45.3359C64.5857 45.4943 64.368 45.7255 64.193 46.0297C64.018 46.3318 63.8961 46.6974 63.8274 47.1266C63.7565 47.5328 63.7545 47.8714 63.8211 48.1422C63.8899 48.413 64.018 48.6172 64.2055 48.7547C64.393 48.8901 64.6315 48.9578 64.9211 48.9578C65.244 48.9578 65.5347 48.8797 65.793 48.7234C66.0513 48.5672 66.267 48.3391 66.4399 48.0391C66.6149 47.7391 66.7388 47.3745 66.8117 46.9453ZM75.3024 47.1266C75.1857 47.8161 74.9566 48.3984 74.6149 48.8734C74.2753 49.3464 73.8618 49.7047 73.3743 49.9484C72.8888 50.1922 72.367 50.3141 71.8086 50.3141C71.219 50.3141 70.7086 50.1828 70.2774 49.9203C69.8461 49.6578 69.5326 49.2755 69.3368 48.7734C69.143 48.2714 69.1055 47.662 69.2243 46.9453C69.3368 46.2557 69.5628 45.6724 69.9024 45.1953C70.244 44.7182 70.6597 44.3568 71.1493 44.1109C71.6409 43.863 72.168 43.7391 72.7305 43.7391C73.3159 43.7391 73.8232 43.8713 74.2524 44.1359C74.6836 44.4005 74.9961 44.7849 75.1899 45.2891C75.3836 45.7932 75.4211 46.4057 75.3024 47.1266ZM73.7555 46.9453C73.8201 46.5432 73.8201 46.2047 73.7555 45.9297C73.693 45.6547 73.5701 45.4474 73.3868 45.3078C73.2034 45.1661 72.9649 45.0953 72.6711 45.0953C72.3461 45.0953 72.0524 45.1755 71.7899 45.3359C71.5295 45.4943 71.3118 45.7255 71.1368 46.0297C70.9618 46.3318 70.8399 46.6974 70.7711 47.1266C70.7003 47.5328 70.6982 47.8714 70.7649 48.1422C70.8336 48.413 70.9618 48.6172 71.1493 48.7547C71.3368 48.8901 71.5753 48.9578 71.8649 48.9578C72.1878 48.9578 72.4784 48.8797 72.7368 48.7234C72.9951 48.5672 73.2107 48.3391 73.3836 48.0391C73.5586 47.7391 73.6826 47.3745 73.7555 46.9453ZM82.2461 47.1266C82.1295 47.8161 81.9003 48.3984 81.5586 48.8734C81.2191 49.3464 80.8055 49.7047 80.318 49.9484C79.8326 50.1922 79.3107 50.3141 78.7524 50.3141C78.1628 50.3141 77.6524 50.1828 77.2211 49.9203C76.7899 49.6578 76.4763 49.2755 76.2805 48.7734C76.0868 48.2714 76.0493 47.662 76.168 46.9453C76.2805 46.2557 76.5065 45.6724 76.8461 45.1953C77.1878 44.7182 77.6034 44.3568 78.093 44.1109C78.5847 43.863 79.1118 43.7391 79.6743 43.7391C80.2597 43.7391 80.767 43.8713 81.1961 44.1359C81.6274 44.4005 81.9399 44.7849 82.1336 45.2891C82.3274 45.7932 82.3649 46.4057 82.2461 47.1266ZM80.6993 46.9453C80.7638 46.5432 80.7638 46.2047 80.6993 45.9297C80.6368 45.6547 80.5138 45.4474 80.3305 45.3078C80.1472 45.1661 79.9086 45.0953 79.6149 45.0953C79.2899 45.0953 78.9961 45.1755 78.7336 45.3359C78.4732 45.4943 78.2555 45.7255 78.0805 46.0297C77.9055 46.3318 77.7836 46.6974 77.7149 47.1266C77.6441 47.5328 77.642 47.8714 77.7086 48.1422C77.7774 48.413 77.9055 48.6172 78.093 48.7547C78.2805 48.8901 78.5191 48.9578 78.8086 48.9578C79.1316 48.9578 79.4222 48.8797 79.6805 48.7234C79.9388 48.5672 80.1545 48.3391 80.3274 48.0391C80.5024 47.7391 80.6263 47.3745 80.6993 46.9453ZM82.6336 50.2266L83.6961 43.8266H86.3399C86.8191 43.8266 87.2191 43.913 87.5399 44.0859C87.8607 44.2568 88.0889 44.5026 88.2243 44.8234C88.3597 45.1422 88.3909 45.5203 88.318 45.9578C88.2472 46.3995 88.0889 46.7755 87.843 47.0859C87.5993 47.3943 87.2847 47.6297 86.8993 47.7922C86.5159 47.9547 86.0805 48.0359 85.593 48.0359H83.9211L84.1274 46.8172H85.5118C85.743 46.8172 85.943 46.787 86.1118 46.7266C86.2805 46.6641 86.4149 46.5703 86.5149 46.4453C86.617 46.3182 86.6847 46.1557 86.718 45.9578C86.7493 45.7599 86.7347 45.5963 86.6743 45.4672C86.6159 45.3359 86.5128 45.238 86.3649 45.1734C86.2191 45.1068 86.0316 45.0734 85.8024 45.0734H85.0399L84.1805 50.2266H82.6336ZM86.7212 47.3016L87.8305 50.2266H86.143L85.068 47.3016H86.7212ZM91.6758 48.2328C91.4488 48.2328 91.2633 48.1536 91.1196 47.9953C90.9758 47.837 90.9133 47.6453 90.9321 47.4203C90.9529 47.1995 91.0508 47.0109 91.2258 46.8547C91.4008 46.6984 91.6008 46.6203 91.8258 46.6203C92.0404 46.6203 92.2206 46.6984 92.3665 46.8547C92.5144 47.0109 92.5779 47.1995 92.5571 47.4203C92.5446 47.5703 92.4936 47.7068 92.404 47.8297C92.3165 47.9526 92.2081 48.0505 92.079 48.1234C91.9498 48.1964 91.8154 48.2328 91.6758 48.2328Z" fill="white"/>
<path d="M42.8919 22.0526L41.8163 24.3168L43.2863 26.3472L41.0221 25.2717L38.9917 26.7416L40.0672 24.4775L38.5973 22.447L40.8614 23.5226L42.8919 22.0526Z" fill="white"/>
<path d="M79.7221 29.2987L78.6465 31.5629L80.1165 33.5933L77.8523 32.5178L75.8219 33.9877L76.8974 31.7236L75.4275 29.6931L77.6916 30.7687L79.7221 29.2987Z" fill="white"/>
<path d="M80.2845 12.4252L79.632 13.7988L80.5237 15.0305L79.1502 14.378L77.9184 15.2698L78.5709 13.8962L77.6792 12.6645L79.0527 13.3169L80.2845 12.4252Z" fill="white"/>
<defs>
<linearGradient id="paint0_linear_10753_23882" x1="5.79681" y1="1.91627" x2="17.4138" y2="11.3045" gradientUnits="userSpaceOnUse">
<stop offset="0.03125" stop-color="#708FFE"/>
<stop offset="0.973958" stop-color="#37BBBB"/>
</linearGradient>
<linearGradient id="paint1_linear_10753_23882" x1="8.83563" y1="14.5501" x2="20.4527" y2="23.9383" gradientUnits="userSpaceOnUse">
<stop offset="0.03125" stop-color="#708FFE"/>
<stop offset="0.973958" stop-color="#37BBBB"/>
</linearGradient>
<linearGradient id="paint2_linear_10753_23882" x1="12.1959" y1="27.1838" x2="23.813" y2="36.5721" gradientUnits="userSpaceOnUse">
<stop offset="0.03125" stop-color="#708FFE"/>
<stop offset="0.973958" stop-color="#37BBBB"/>
</linearGradient>
<linearGradient id="paint3_linear_10753_23882" x1="117.203" y1="1.91627" x2="105.586" y2="11.3045" gradientUnits="userSpaceOnUse">
<stop offset="0.03125" stop-color="#708FFE"/>
<stop offset="0.973958" stop-color="#37BBBB"/>
</linearGradient>
<linearGradient id="paint4_linear_10753_23882" x1="114.164" y1="14.5501" x2="102.547" y2="23.9383" gradientUnits="userSpaceOnUse">
<stop offset="0.03125" stop-color="#708FFE"/>
<stop offset="0.973958" stop-color="#37BBBB"/>
</linearGradient>
<linearGradient id="paint5_linear_10753_23882" x1="110.804" y1="27.1838" x2="99.1871" y2="36.5721" gradientUnits="userSpaceOnUse">
<stop offset="0.03125" stop-color="#708FFE"/>
<stop offset="0.973958" stop-color="#37BBBB"/>
</linearGradient>
<linearGradient id="paint6_linear_10753_23882" x1="61.2208" y1="3.19727" x2="61.2208" y2="89.5371" gradientUnits="userSpaceOnUse">
<stop stop-color="#232859"/>
<stop offset="1" stop-color="#232859"/>
</linearGradient>
<linearGradient id="paint7_linear_10753_23882" x1="27.6661" y1="18.477" x2="94.3923" y2="19.5243" gradientUnits="userSpaceOnUse">
<stop stop-color="#37BBBB"/>
<stop offset="1" stop-color="#708FFE"/>
</linearGradient>
<linearGradient id="paint8_linear_10753_23882" x1="30.7151" y1="20.711" x2="91.7381" y2="21.6745" gradientUnits="userSpaceOnUse">
<stop stop-color="#37BBBB"/>
<stop offset="1" stop-color="#708FFE"/>
</linearGradient>
<linearGradient id="paint9_linear_10753_23882" x1="51.2189" y1="16.3781" x2="70.8262" y2="16.7131" gradientUnits="userSpaceOnUse">
<stop stop-color="#37BBBB"/>
<stop offset="1" stop-color="#708FFE"/>
</linearGradient>
<linearGradient id="paint10_linear_10753_23882" x1="51.2189" y1="16.3781" x2="70.8262" y2="16.7131" gradientUnits="userSpaceOnUse">
<stop stop-color="#37BBBB"/>
<stop offset="1" stop-color="#708FFE"/>
</linearGradient>
<linearGradient id="paint11_linear_10753_23882" x1="54.763" y1="63.1245" x2="68.2677" y2="64.5803" gradientUnits="userSpaceOnUse">
<stop offset="0.0985558" stop-color="#D8FF20"/>
<stop offset="1" stop-color="#99F7F4"/>
</linearGradient>
<linearGradient id="paint12_linear_10753_23882" x1="39.0648" y1="56.5308" x2="52.5544" y2="58.0543" gradientUnits="userSpaceOnUse">
<stop offset="0.0985558" stop-color="#D8FF20"/>
<stop offset="1" stop-color="#99F7F4"/>
</linearGradient>
<linearGradient id="paint13_linear_10753_23882" x1="70.4611" y1="56.5308" x2="83.9507" y2="58.0543" gradientUnits="userSpaceOnUse">
<stop offset="0.0985558" stop-color="#D8FF20"/>
<stop offset="1" stop-color="#99F7F4"/>
</linearGradient>
<linearGradient id="paint14_linear_10753_23882" x1="11.78" y1="42.0327" x2="111.417" y2="54.8391" gradientUnits="userSpaceOnUse">
<stop stop-color="#37BBBB"/>
<stop offset="1" stop-color="#708FFE"/>
</linearGradient>
</defs>
</svg>
