<svg width="96" height="90" viewBox="0 0 96 90" fill="none" xmlns="http://www.w3.org/2000/svg">
<path d="M19.9246 1.39206C15.2562 1.39206 11.4717 5.17653 11.4717 9.8449V60.7956C11.4717 63.576 12.839 66.1786 15.1285 67.7561L43.204 87.1012C46.0918 89.091 49.9083 89.091 52.7961 87.1012L80.8715 67.7561C83.161 66.1786 84.5283 63.576 84.5283 60.7956V9.8449C84.5283 5.17653 80.7439 1.39206 76.0755 1.39206H19.9246Z" fill="url(#paint0_linear_10753_23872)" stroke="url(#paint1_linear_10753_23872)" stroke-width="2.4151"/>
<path d="M16 11.0529C16 8.55194 18.0274 6.52454 20.5283 6.52454H75.4717C77.9726 6.52454 80 8.55194 80 11.0529V60.0423C80 61.5363 79.2632 62.9341 78.0306 63.7783L50.5589 82.5948C49.0165 83.6512 46.9835 83.6512 45.4411 82.5948L17.9694 63.7783C16.7369 62.9341 16 61.5363 16 60.0423V11.0529Z" stroke="url(#paint2_linear_10753_23872)" stroke-width="0.603774"/>
<path fill-rule="evenodd" clip-rule="evenodd" d="M38.3623 29.6565L40.8963 31.0803L40.8925 27.2003L44.3454 25.2529L44.3454 21.3692L47.8283 19.3876L47.7964 11.6562L42.3831 14.6949L38.3623 16.9582L38.3623 16.9601L37.434 17.4818L37.434 29.1329L38.3623 29.6565ZM47.8002 11.6599L47.8002 15.54L51.2512 13.5999L47.8002 11.6599ZM54.7079 23.3129L51.2531 25.2529L51.2531 29.1421L47.7983 31.0821L47.7983 34.9603L57.6966 29.3956L58.1589 29.1348L58.1589 17.4836L57.6966 17.7445L57.6966 17.7464L57.6947 17.7445L54.7079 19.4237L54.7079 23.3129Z" fill="url(#paint3_linear_10753_23872)"/>
<path fill-rule="evenodd" clip-rule="evenodd" d="M54.7379 23.2714L51.2831 25.2114L48.1134 23.4204L44.3754 21.3277L47.8283 19.3876L54.2756 23.0123L54.7379 23.2714ZM58.1927 17.444L54.7379 19.384L47.8302 15.5003L51.2812 13.5584L58.1927 17.444ZM40.9226 27.1587L44.3755 25.2187L51.2831 29.1024L47.8284 31.0424L40.9226 27.1587Z" fill="url(#paint4_linear_10753_23872)"/>
<path d="M47.1918 64.5223C47.4088 64.1188 47.9875 64.1188 48.2045 64.5223L49.4881 66.908C49.5683 67.0571 49.71 67.1632 49.8756 67.1982L52.4789 67.7485C52.9091 67.8394 53.0822 68.3599 52.7922 68.6903L50.9661 70.7713C50.8596 70.8927 50.809 71.0532 50.8267 71.2137L51.1335 73.9943C51.183 74.4428 50.7202 74.771 50.3133 74.5759L47.9467 73.4412C47.7896 73.3658 47.6067 73.3658 47.4495 73.4412L45.083 74.5759C44.6761 74.771 44.2133 74.4428 44.2628 73.9943L44.5695 71.2137C44.5873 71.0532 44.5367 70.8927 44.4302 70.7713L42.6041 68.6903C42.3141 68.3599 42.4872 67.8394 42.9174 67.7485L45.5207 67.1982C45.6862 67.1632 45.828 67.0571 45.9082 66.908L47.1918 64.5223Z" fill="#515899"/>
<path d="M31.5219 57.7878C31.7318 57.4153 32.2682 57.4153 32.4782 57.7878L33.7931 60.1207C33.8714 60.2596 34.0063 60.3576 34.1627 60.3892L36.7877 60.9188C37.2068 61.0034 37.3726 61.5136 37.0832 61.8283L35.2708 63.7998C35.1629 63.9172 35.1113 64.0758 35.1297 64.2343L35.4371 66.8945C35.4862 67.3192 35.0522 67.6345 34.6634 67.4566L32.2284 66.3421C32.0834 66.2758 31.9166 66.2758 31.7716 66.3421L29.3366 67.4566C28.9478 67.6345 28.5138 67.3192 28.5629 66.8945L28.8704 64.2343C28.8887 64.0758 28.8372 63.9172 28.7292 63.7998L26.9168 61.8283C26.6275 61.5136 26.7932 61.0034 27.2124 60.9188L29.8374 60.3892C29.9937 60.3576 30.1286 60.2596 30.207 60.1207L31.5219 57.7878Z" fill="url(#paint5_linear_10753_23872)"/>
<path d="M62.9181 57.7878C63.128 57.4153 63.6645 57.4153 63.8744 57.7878L65.1893 60.1207C65.2676 60.2596 65.4025 60.3576 65.5589 60.3892L68.1839 60.9188C68.603 61.0034 68.7688 61.5136 68.4794 61.8283L66.6671 63.7998C66.5591 63.9172 66.5076 64.0758 66.5259 64.2343L66.8333 66.8945C66.8824 67.3192 66.4485 67.6345 66.0597 67.4566L63.6247 66.3421C63.4796 66.2758 63.3129 66.2758 63.1678 66.3421L60.7328 67.4566C60.344 67.6345 59.9101 67.3192 59.9592 66.8945L60.2666 64.2343C60.2849 64.0758 60.2334 63.9172 60.1254 63.7998L58.3131 61.8283C58.0237 61.5136 58.1895 61.0034 58.6086 60.9188L61.2336 60.3892C61.39 60.3576 61.5249 60.2596 61.6032 60.1207L62.9181 57.7878Z" fill="#515899"/>
<rect y="38.2227" width="96" height="16" rx="0.800001" fill="url(#paint6_linear_10753_23872)"/>
<path d="M19.0468 46.8324C18.8197 46.8324 18.6343 46.7533 18.4906 46.5949C18.3468 46.4366 18.2843 46.2449 18.3031 46.0199C18.3239 45.7991 18.4218 45.6105 18.5968 45.4543C18.7718 45.298 18.9718 45.2199 19.1968 45.2199C19.4114 45.2199 19.5916 45.298 19.7374 45.4543C19.8854 45.6105 19.9489 45.7991 19.9281 46.0199C19.9156 46.1699 19.8645 46.3064 19.7749 46.4293C19.6874 46.5522 19.5791 46.6501 19.4499 46.723C19.3208 46.796 19.1864 46.8324 19.0468 46.8324ZM22.3624 48.8262L23.4249 42.4262H27.7937L27.5812 43.6824H24.7593L24.5468 44.9949H27.0906L26.8781 46.2543H24.3343L23.9093 48.8262H22.3624ZM27.5101 48.8262L28.5726 42.4262H30.1195L29.2695 47.5699H31.932L31.7195 48.8262H27.5101ZM35.1296 42.4262L34.0671 48.8262H32.5203L33.5828 42.4262H35.1296ZM35.0382 48.8262L36.1007 42.4262H38.7445C39.2237 42.4262 39.6226 42.5189 39.9414 42.7043C40.2601 42.8897 40.4862 43.1491 40.6195 43.4824C40.7528 43.8157 40.783 44.2022 40.7101 44.6418C40.6393 45.0855 40.4799 45.472 40.232 45.8012C39.9862 46.1303 39.6695 46.3855 39.282 46.5668C38.8945 46.748 38.4539 46.8387 37.9601 46.8387H36.332L36.5351 45.6199H37.8789C38.1143 45.6199 38.3174 45.5793 38.4882 45.498C38.6612 45.4168 38.7997 45.3033 38.9039 45.1574C39.008 45.0116 39.0768 44.8397 39.1101 44.6418C39.1414 44.4439 39.1289 44.273 39.0726 44.1293C39.0164 43.9835 38.9153 43.871 38.7695 43.7918C38.6257 43.7126 38.4382 43.673 38.207 43.673H37.4445L36.5851 48.8262H35.0382ZM40.7703 48.8262L41.8328 42.4262H44.4765C44.9557 42.4262 45.3547 42.5189 45.6734 42.7043C45.9922 42.8897 46.2182 43.1491 46.3515 43.4824C46.4849 43.8157 46.5151 44.2022 46.4422 44.6418C46.3713 45.0855 46.212 45.472 45.964 45.8012C45.7182 46.1303 45.4015 46.3855 45.014 46.5668C44.6265 46.748 44.1859 46.8387 43.6922 46.8387H42.064L42.2672 45.6199H43.6109C43.8463 45.6199 44.0494 45.5793 44.2203 45.498C44.3932 45.4168 44.5317 45.3033 44.6359 45.1574C44.7401 45.0116 44.8088 44.8397 44.8422 44.6418C44.8734 44.4439 44.8609 44.273 44.8047 44.1293C44.7484 43.9835 44.6474 43.871 44.5015 43.7918C44.3578 43.7126 44.1703 43.673 43.939 43.673H43.1765L42.3172 48.8262H40.7703ZM53.0586 45.7262C52.9419 46.4158 52.7127 46.998 52.3711 47.473C52.0315 47.946 51.618 48.3043 51.1305 48.548C50.645 48.7918 50.1232 48.9137 49.5648 48.9137C48.9752 48.9137 48.4648 48.7824 48.0336 48.5199C47.6023 48.2574 47.2888 47.8751 47.0929 47.373C46.8992 46.871 46.8617 46.2616 46.9804 45.5449C47.0929 44.8553 47.319 44.272 47.6586 43.7949C48.0002 43.3178 48.4159 42.9564 48.9054 42.7105C49.3971 42.4626 49.9242 42.3387 50.4867 42.3387C51.0721 42.3387 51.5794 42.471 52.0086 42.7355C52.4398 43.0001 52.7523 43.3845 52.9461 43.8887C53.1398 44.3928 53.1773 45.0053 53.0586 45.7262ZM51.5117 45.5449C51.5763 45.1428 51.5763 44.8043 51.5117 44.5293C51.4492 44.2543 51.3263 44.047 51.143 43.9074C50.9596 43.7657 50.7211 43.6949 50.4273 43.6949C50.1023 43.6949 49.8086 43.7751 49.5461 43.9355C49.2857 44.0939 49.0679 44.3251 48.8929 44.6293C48.7179 44.9314 48.5961 45.297 48.5273 45.7262C48.4565 46.1324 48.4544 46.471 48.5211 46.7418C48.5898 47.0126 48.7179 47.2168 48.9054 47.3543C49.0929 47.4897 49.3315 47.5574 49.6211 47.5574C49.944 47.5574 50.2346 47.4793 50.4929 47.323C50.7513 47.1668 50.9669 46.9387 51.1398 46.6387C51.3148 46.3387 51.4388 45.9741 51.5117 45.5449ZM60.0023 45.7262C59.8857 46.4158 59.6565 46.998 59.3148 47.473C58.9753 47.946 58.5617 48.3043 58.0742 48.548C57.5888 48.7918 57.0669 48.9137 56.5086 48.9137C55.919 48.9137 55.4086 48.7824 54.9773 48.5199C54.5461 48.2574 54.2325 47.8751 54.0367 47.373C53.843 46.871 53.8055 46.2616 53.9242 45.5449C54.0367 44.8553 54.2627 44.272 54.6023 43.7949C54.944 43.3178 55.3596 42.9564 55.8492 42.7105C56.3409 42.4626 56.868 42.3387 57.4305 42.3387C58.0159 42.3387 58.5232 42.471 58.9523 42.7355C59.3836 43.0001 59.6961 43.3845 59.8898 43.8887C60.0836 44.3928 60.1211 45.0053 60.0023 45.7262ZM58.4555 45.5449C58.52 45.1428 58.52 44.8043 58.4555 44.5293C58.393 44.2543 58.27 44.047 58.0867 43.9074C57.9034 43.7657 57.6648 43.6949 57.3711 43.6949C57.0461 43.6949 56.7523 43.7751 56.4898 43.9355C56.2294 44.0939 56.0117 44.3251 55.8367 44.6293C55.6617 44.9314 55.5398 45.297 55.4711 45.7262C55.4002 46.1324 55.3982 46.471 55.4648 46.7418C55.5336 47.0126 55.6617 47.2168 55.8492 47.3543C56.0367 47.4897 56.2752 47.5574 56.5648 47.5574C56.8877 47.5574 57.1784 47.4793 57.4367 47.323C57.695 47.1668 57.9107 46.9387 58.0836 46.6387C58.2586 46.3387 58.3825 45.9741 58.4555 45.5449ZM66.9461 45.7262C66.8294 46.4158 66.6003 46.998 66.2586 47.473C65.919 47.946 65.5055 48.3043 65.018 48.548C64.5325 48.7918 64.0107 48.9137 63.4523 48.9137C62.8628 48.9137 62.3523 48.7824 61.9211 48.5199C61.4898 48.2574 61.1763 47.8751 60.9805 47.373C60.7867 46.871 60.7492 46.2616 60.868 45.5449C60.9805 44.8553 61.2065 44.272 61.5461 43.7949C61.8878 43.3178 62.3034 42.9564 62.793 42.7105C63.2846 42.4626 63.8117 42.3387 64.3742 42.3387C64.9596 42.3387 65.4669 42.471 65.8961 42.7355C66.3273 43.0001 66.6398 43.3845 66.8336 43.8887C67.0273 44.3928 67.0648 45.0053 66.9461 45.7262ZM65.3992 45.5449C65.4638 45.1428 65.4638 44.8043 65.3992 44.5293C65.3367 44.2543 65.2138 44.047 65.0305 43.9074C64.8471 43.7657 64.6086 43.6949 64.3148 43.6949C63.9898 43.6949 63.6961 43.7751 63.4336 43.9355C63.1732 44.0939 62.9555 44.3251 62.7805 44.6293C62.6055 44.9314 62.4836 45.297 62.4148 45.7262C62.344 46.1324 62.3419 46.471 62.4086 46.7418C62.4773 47.0126 62.6055 47.2168 62.793 47.3543C62.9805 47.4897 63.219 47.5574 63.5086 47.5574C63.8315 47.5574 64.1221 47.4793 64.3805 47.323C64.6388 47.1668 64.8544 46.9387 65.0273 46.6387C65.2023 46.3387 65.3263 45.9741 65.3992 45.5449ZM67.3336 48.8262L68.3961 42.4262H71.0399C71.519 42.4262 71.919 42.5126 72.2399 42.6855C72.5607 42.8564 72.7888 43.1022 72.9242 43.423C73.0596 43.7418 73.0909 44.1199 73.018 44.5574C72.9471 44.9991 72.7888 45.3751 72.543 45.6855C72.2992 45.9939 71.9846 46.2293 71.5992 46.3918C71.2159 46.5543 70.7805 46.6355 70.293 46.6355H68.6211L68.8273 45.4168H70.2117C70.443 45.4168 70.643 45.3866 70.8117 45.3262C70.9805 45.2637 71.1149 45.1699 71.2149 45.0449C71.3169 44.9178 71.3846 44.7553 71.418 44.5574C71.4492 44.3595 71.4346 44.196 71.3742 44.0668C71.3159 43.9355 71.2128 43.8376 71.0649 43.773C70.919 43.7064 70.7315 43.673 70.5024 43.673H69.7399L68.8805 48.8262H67.3336ZM71.4211 45.9012L72.5305 48.8262H70.843L69.768 45.9012H71.4211ZM76.3758 46.8324C76.1487 46.8324 75.9633 46.7533 75.8195 46.5949C75.6758 46.4366 75.6133 46.2449 75.632 46.0199C75.6529 45.7991 75.7508 45.6105 75.9258 45.4543C76.1008 45.298 76.3008 45.2199 76.5258 45.2199C76.7404 45.2199 76.9206 45.298 77.0664 45.4543C77.2143 45.6105 77.2779 45.7991 77.257 46.0199C77.2445 46.1699 77.1935 46.3064 77.1039 46.4293C77.0164 46.5522 76.9081 46.6501 76.7789 46.723C76.6498 46.796 76.5154 46.8324 76.3758 46.8324Z" fill="white"/>
<defs>
<linearGradient id="paint0_linear_10753_23872" x1="48" y1="2.59961" x2="48" y2="88.9395" gradientUnits="userSpaceOnUse">
<stop stop-color="#232859"/>
<stop offset="1" stop-color="#232859"/>
</linearGradient>
<linearGradient id="paint1_linear_10753_23872" x1="14.4453" y1="17.8794" x2="81.1716" y2="18.9267" gradientUnits="userSpaceOnUse">
<stop stop-color="#37BBBB"/>
<stop offset="1" stop-color="#708FFE"/>
</linearGradient>
<linearGradient id="paint2_linear_10753_23872" x1="80.0001" y1="72.6009" x2="20.6721" y2="74.7038" gradientUnits="userSpaceOnUse">
<stop offset="0.0985558" stop-color="#52CFCA"/>
<stop offset="1" stop-color="#5DA3F5"/>
</linearGradient>
<linearGradient id="paint3_linear_10753_23872" x1="37.9529" y1="15.7804" x2="57.5602" y2="16.1154" gradientUnits="userSpaceOnUse">
<stop stop-color="#37BBBB"/>
<stop offset="1" stop-color="#708FFE"/>
</linearGradient>
<linearGradient id="paint4_linear_10753_23872" x1="37.9529" y1="15.7804" x2="57.5602" y2="16.1154" gradientUnits="userSpaceOnUse">
<stop stop-color="#37BBBB"/>
<stop offset="1" stop-color="#708FFE"/>
</linearGradient>
<linearGradient id="paint5_linear_10753_23872" x1="25.5271" y1="55.9332" x2="39.0167" y2="57.4566" gradientUnits="userSpaceOnUse">
<stop offset="0.0985558" stop-color="#D8FF20"/>
<stop offset="1" stop-color="#99F7F4"/>
</linearGradient>
<linearGradient id="paint6_linear_10753_23872" x1="2.4" y1="41.0542" x2="91.9157" y2="51.3576" gradientUnits="userSpaceOnUse">
<stop stop-color="#37BBBB"/>
<stop offset="1" stop-color="#708FFE"/>
</linearGradient>
</defs>
</svg>
