<svg width="123" height="91" viewBox="0 0 123 91" fill="none" xmlns="http://www.w3.org/2000/svg">
<path d="M4.32046 1.62906C4.18373 1.04344 4.85792 0.485391 5.48146 0.668053L31.3635 8.25007C31.7842 8.37332 31.9771 8.79325 31.796 9.19171L28.7977 15.7896C28.614 16.1937 28.116 16.4219 27.6889 16.2978L7.08791 10.3071C6.58908 10.1621 6.22756 9.79756 6.11828 9.32948L4.32046 1.62906Z" fill="url(#paint0_linear_10289_24892)"/>
<path d="M7.35928 14.2628C7.22255 13.6772 7.89674 13.1192 8.52028 13.3018L34.4023 20.8839C34.823 21.0071 35.0159 21.427 34.8349 21.8255L31.8365 28.4234C31.6528 28.8275 31.1548 29.0557 30.7278 28.9315L10.1267 22.9409C9.6279 22.7959 9.26638 22.4314 9.1571 21.9633L7.35928 14.2628Z" fill="url(#paint1_linear_10289_24892)"/>
<path d="M10.7196 26.8966C10.5829 26.311 11.2571 25.753 11.8806 25.9356L37.7627 33.5177C38.1834 33.6409 38.3763 34.0608 38.1952 34.4593L35.1968 41.0571C35.0132 41.4613 34.5152 41.6895 34.0881 41.5653L13.4871 35.5747C12.9882 35.4296 12.6267 35.0651 12.5174 34.5971L10.7196 26.8966Z" fill="url(#paint2_linear_10289_24892)"/>
<path d="M118.526 1.62906C118.662 1.04344 117.988 0.485391 117.365 0.668053L91.4827 8.25007C91.062 8.37332 90.8691 8.79325 91.0502 9.19171L94.0485 15.7896C94.2322 16.1937 94.7302 16.4219 95.1573 16.2978L115.758 10.3071C116.257 10.1621 116.619 9.79756 116.728 9.32948L118.526 1.62906Z" fill="url(#paint3_linear_10289_24892)"/>
<path d="M115.487 14.2628C115.624 13.6772 114.949 13.1192 114.326 13.3018L88.4439 20.8839C88.0231 21.0071 87.8303 21.427 88.0113 21.8255L91.0097 28.4234C91.1934 28.8275 91.6914 29.0557 92.1184 28.9315L112.719 22.9409C113.218 22.7959 113.58 22.4314 113.689 21.9633L115.487 14.2628Z" fill="url(#paint4_linear_10289_24892)"/>
<path d="M112.127 26.8966C112.263 26.311 111.589 25.753 110.966 25.9356L85.0835 33.5177C84.6628 33.6409 84.4699 34.0608 84.651 34.4593L87.6494 41.0571C87.833 41.4613 88.331 41.6895 88.7581 41.5653L109.359 35.5747C109.858 35.4296 110.219 35.0651 110.329 34.5971L112.127 26.8966Z" fill="url(#paint5_linear_10289_24892)"/>
<path d="M33.0683 2.22214C28.3999 2.22214 24.6154 6.0066 24.6154 10.675V61.6257C24.6154 64.4061 25.9827 67.0086 28.2722 68.5862L56.3477 87.9313C59.2355 89.9211 63.052 89.9211 65.9398 87.9313L94.0153 68.5862C96.3048 67.0086 97.6721 64.4061 97.6721 61.6257V10.675C97.6721 6.00661 93.8876 2.22214 89.2192 2.22214H33.0683Z" fill="url(#paint6_linear_10289_24892)" stroke="url(#paint7_linear_10289_24892)" stroke-width="2.4151"/>
<path d="M29.3248 11.8829C29.3248 9.38201 31.3522 7.35462 33.8531 7.35462H88.7965C91.2974 7.35462 93.3248 9.38201 93.3248 11.8829V60.8724C93.3248 62.3663 92.588 63.7641 91.3555 64.6084L63.8838 83.4249C62.3414 84.4813 60.3083 84.4813 58.7659 83.4249L31.2942 64.6084C30.0617 63.7641 29.3248 62.3663 29.3248 60.8724V11.8829Z" stroke="url(#paint8_linear_10289_24892)" stroke-width="0.603774"/>
<path fill-rule="evenodd" clip-rule="evenodd" d="M51.5514 30.4866L54.0854 31.9104L54.0816 28.0303L57.5345 26.083L57.5345 22.1993L61.0174 20.2177L60.9855 12.4863L55.5722 15.525L51.5514 17.7883L51.5514 17.7901L50.6231 18.3119L50.6231 29.963L51.5514 30.4866ZM60.9893 12.49L60.9893 16.37L64.4403 14.43L60.9893 12.49ZM67.897 24.143L64.4422 26.083L64.4422 29.9722L60.9874 31.9122L60.9874 35.7904L70.8857 30.2257L71.348 29.9648L71.348 18.3137L70.8857 18.5746L70.8857 18.5764L70.8838 18.5746L67.897 20.2537L67.897 24.143Z" fill="url(#paint9_linear_10289_24892)"/>
<path fill-rule="evenodd" clip-rule="evenodd" d="M67.927 24.1014L64.4722 26.0414L61.3025 24.2505L57.5645 22.1577L61.0174 20.2177L67.4647 23.8424L67.927 24.1014ZM71.3818 18.274L67.927 20.214L61.0193 16.3303L64.4703 14.3885L71.3818 18.274ZM54.1116 27.9888L57.5645 26.0488L64.4722 29.9325L61.0174 31.8725L54.1116 27.9888Z" fill="url(#paint10_linear_10289_24892)"/>
<path d="M60.6524 65.3523C60.8695 64.9489 61.4482 64.9489 61.6652 65.3523L62.9488 67.7381C63.029 67.8871 63.1707 67.9933 63.3363 68.0283L65.9396 68.5786C66.3698 68.6695 66.5429 69.1899 66.2529 69.5204L64.4268 71.6014C64.3203 71.7228 64.2697 71.8833 64.2874 72.0438L64.5942 74.8244C64.6437 75.2729 64.1809 75.601 63.774 75.4059L61.4074 74.2712C61.2503 74.1959 61.0674 74.1959 60.9102 74.2712L58.5436 75.4059C58.1368 75.601 57.674 75.2729 57.7235 74.8244L58.0302 72.0438C58.0479 71.8833 57.9974 71.7228 57.8909 71.6014L56.0648 69.5204C55.7748 69.1899 55.9479 68.6695 56.3781 68.5786L58.9814 68.0283C59.1469 67.9933 59.2887 67.8871 59.3688 67.7381L60.6524 65.3523Z" fill="url(#paint11_linear_10289_24892)"/>
<path d="M44.9824 58.6179C45.1924 58.2454 45.7288 58.2454 45.9387 58.6179L47.2536 60.9507C47.332 61.0897 47.4669 61.1877 47.6232 61.2193L50.2482 61.7489C50.6674 61.8335 50.8331 62.3436 50.5438 62.6584L48.7314 64.6299C48.6234 64.7473 48.5719 64.9059 48.5902 65.0643L48.8977 67.7245C48.9468 68.1493 48.5128 68.4646 48.124 68.2867L45.689 67.1722C45.544 67.1058 45.3772 67.1058 45.2322 67.1722L42.7972 68.2867C42.4084 68.4646 41.9744 68.1493 42.0235 67.7245L42.3309 65.0643C42.3493 64.9059 42.2977 64.7473 42.1898 64.6299L40.3774 62.6584C40.088 62.3436 40.2538 61.8335 40.6729 61.7489L43.2979 61.2193C43.4543 61.1877 43.5892 61.0897 43.6675 60.9507L44.9824 58.6179Z" fill="url(#paint12_linear_10289_24892)"/>
<path d="M76.3787 58.6179C76.5886 58.2454 77.125 58.2454 77.335 58.6179L78.6499 60.9507C78.7282 61.0897 78.8631 61.1877 79.0195 61.2193L81.6445 61.7489C82.0636 61.8335 82.2294 62.3436 81.94 62.6584L80.1276 64.6299C80.0197 64.7473 79.9682 64.9059 79.9865 65.0643L80.2939 67.7245C80.343 68.1493 79.909 68.4646 79.5202 68.2867L77.0853 67.1722C76.9402 67.1058 76.7735 67.1058 76.6284 67.1722L74.1934 68.2867C73.8046 68.4646 73.3706 68.1493 73.4197 67.7245L73.7272 65.0643C73.7455 64.9059 73.694 64.7473 73.586 64.6299L71.7737 62.6584C71.4843 62.3436 71.65 61.8335 72.0692 61.7489L74.6942 61.2193C74.8505 61.1877 74.9854 61.0897 75.0638 60.9507L76.3787 58.6179Z" fill="url(#paint13_linear_10289_24892)"/>
<path d="M9.1467 40.7041C8.76221 40.1753 9.13994 39.4336 9.79374 39.4336H113.852C114.506 39.4336 114.884 40.1753 114.499 40.7041L109.948 46.9631C109.744 47.2436 109.744 47.6236 109.948 47.9041L114.499 54.1632C114.884 54.6919 114.506 55.4336 113.852 55.4336H9.79374C9.13994 55.4336 8.76221 54.6919 9.1467 54.1632L13.6979 47.9041C13.9018 47.6236 13.9018 47.2436 13.6979 46.9631L9.1467 40.7041Z" fill="url(#paint14_linear_10289_24892)"/>
<path d="M17.2384 48.2811C16.9907 48.2811 16.7884 48.1947 16.6316 48.022C16.4748 47.8492 16.4066 47.6401 16.4271 47.3947C16.4498 47.1538 16.5566 46.9481 16.7475 46.7776C16.9384 46.6072 17.1566 46.522 17.4021 46.522C17.6362 46.522 17.8327 46.6072 17.9918 46.7776C18.1532 46.9481 18.2225 47.1538 18.1998 47.3947C18.1862 47.5583 18.1305 47.7072 18.0327 47.8413C17.9373 47.9754 17.8191 48.0822 17.6782 48.1617C17.5373 48.2413 17.3907 48.2811 17.2384 48.2811ZM20.8555 50.4561L22.0146 43.4742H24.8987C25.4214 43.4742 25.8566 43.5754 26.2043 43.7776C26.5521 43.9799 26.7987 44.2629 26.9441 44.6265C27.0896 44.9901 27.1225 45.4117 27.043 45.8913C26.9657 46.3754 26.7918 46.797 26.5214 47.1561C26.2532 47.5151 25.9078 47.7936 25.485 47.9913C25.0623 48.189 24.5816 48.2879 24.043 48.2879H22.2668L22.4884 46.9583H23.9543C24.2112 46.9583 24.4327 46.914 24.6191 46.8254C24.8078 46.7367 24.9589 46.6129 25.0725 46.4538C25.1862 46.2947 25.2612 46.1072 25.2975 45.8913C25.3316 45.6754 25.318 45.489 25.2566 45.3322C25.1953 45.1731 25.085 45.0504 24.9259 44.964C24.7691 44.8776 24.5646 44.8345 24.3123 44.8345H23.4805L22.543 50.4561H20.8555ZM27.1086 50.4561L28.2677 43.4742H31.1518C31.6745 43.4742 32.1109 43.5685 32.4609 43.7572C32.8109 43.9435 33.0597 44.2117 33.2075 44.5617C33.3552 44.9095 33.3893 45.322 33.3097 45.7992C33.2325 46.281 33.0597 46.6913 32.7916 47.0299C32.5257 47.3663 32.1825 47.6231 31.762 47.8004C31.3438 47.9776 30.8688 48.0663 30.337 48.0663H28.5132L28.7382 46.7367H30.2484C30.5007 46.7367 30.7188 46.7038 30.9029 46.6379C31.087 46.5697 31.2336 46.4674 31.3427 46.331C31.4541 46.1924 31.5279 46.0151 31.5643 45.7992C31.5984 45.5833 31.5825 45.4049 31.5166 45.264C31.4529 45.1208 31.3404 45.014 31.1791 44.9435C31.02 44.8708 30.8154 44.8345 30.5654 44.8345H29.7336L28.7961 50.4561H27.1086ZM31.5677 47.2651L32.7779 50.4561H30.937L29.7643 47.2651H31.5677ZM40.6921 47.0742C40.5649 47.8265 40.3149 48.4617 39.9421 48.9799C39.5717 49.4958 39.1206 49.8867 38.5887 50.1526C38.0592 50.4186 37.4899 50.5515 36.8808 50.5515C36.2376 50.5515 35.6808 50.4083 35.2103 50.122C34.7399 49.8356 34.3978 49.4186 34.1842 48.8708C33.9728 48.3231 33.9319 47.6583 34.0615 46.8765C34.1842 46.1242 34.4308 45.4879 34.8012 44.9674C35.174 44.447 35.6274 44.0526 36.1615 43.7845C36.6978 43.514 37.2728 43.3788 37.8865 43.3788C38.5251 43.3788 39.0785 43.5231 39.5467 43.8117C40.0171 44.1004 40.3581 44.5197 40.5694 45.0697C40.7808 45.6197 40.8217 46.2879 40.6921 47.0742ZM39.0046 46.8765C39.0751 46.4379 39.0751 46.0685 39.0046 45.7685C38.9365 45.4685 38.8024 45.2424 38.6024 45.0901C38.4024 44.9356 38.1421 44.8583 37.8217 44.8583C37.4671 44.8583 37.1467 44.9458 36.8603 45.1208C36.5762 45.2935 36.3387 45.5458 36.1478 45.8776C35.9569 46.2072 35.824 46.606 35.749 47.0742C35.6717 47.5174 35.6694 47.8867 35.7421 48.1822C35.8171 48.4776 35.9569 48.7004 36.1615 48.8504C36.366 48.9981 36.6262 49.072 36.9421 49.072C37.2944 49.072 37.6115 48.9867 37.8933 48.8163C38.1751 48.6458 38.4103 48.397 38.599 48.0697C38.7899 47.7424 38.9251 47.3447 39.0046 46.8765ZM43.4467 43.4742L44.1592 48.5879H44.2171L46.6274 43.4742H48.516L45.0012 50.4561H42.7546L41.5581 43.4742H43.4467ZM50.9552 43.4742L49.7961 50.4561H48.1086L49.2677 43.4742H50.9552ZM53.4737 50.4561H50.8555L52.0146 43.4742H54.5544C55.2635 43.4742 55.8544 43.6185 56.3271 43.9072C56.8021 44.1935 57.1373 44.6049 57.3328 45.1413C57.5305 45.6754 57.568 46.3117 57.4453 47.0504C57.3271 47.764 57.0896 48.3754 56.7328 48.8845C56.3782 49.3936 55.9237 49.7833 55.3691 50.0538C54.8146 50.322 54.1828 50.4561 53.4737 50.4561ZM52.7782 49.0174H53.5794C53.9703 49.0174 54.3157 48.947 54.6157 48.8061C54.918 48.6629 55.168 48.4345 55.3657 48.1208C55.5635 47.8049 55.7044 47.3901 55.7885 46.8765C55.8703 46.3856 55.8669 45.9981 55.7782 45.714C55.6919 45.4276 55.5237 45.2231 55.2737 45.1004C55.026 44.9754 54.7021 44.9129 54.3021 44.9129H53.4635L52.7782 49.0174ZM65.0203 47.0742C64.893 47.8265 64.643 48.4617 64.2703 48.9799C63.8998 49.4958 63.4487 49.8867 62.9169 50.1526C62.3873 50.4186 61.818 50.5515 61.2089 50.5515C60.5658 50.5515 60.0089 50.4083 59.5385 50.122C59.068 49.8356 58.726 49.4186 58.5123 48.8708C58.301 48.3231 58.2601 47.6583 58.3896 46.8765C58.5123 46.1242 58.7589 45.4879 59.1294 44.9674C59.5021 44.447 59.9555 44.0526 60.4896 43.7845C61.026 43.514 61.601 43.3788 62.2146 43.3788C62.8533 43.3788 63.4067 43.5231 63.8748 43.8117C64.3453 44.1004 64.6862 44.5197 64.8976 45.0697C65.1089 45.6197 65.1498 46.2879 65.0203 47.0742ZM63.3328 46.8765C63.4033 46.4379 63.4033 46.0685 63.3328 45.7685C63.2646 45.4685 63.1305 45.2424 62.9305 45.0901C62.7305 44.9356 62.4703 44.8583 62.1498 44.8583C61.7953 44.8583 61.4748 44.9458 61.1885 45.1208C60.9044 45.2935 60.6669 45.5458 60.476 45.8776C60.2851 46.2072 60.1521 46.606 60.0771 47.0742C59.9998 47.5174 59.9976 47.8867 60.0703 48.1822C60.1453 48.4776 60.2851 48.7004 60.4896 48.8504C60.6942 48.9981 60.9544 49.072 61.2703 49.072C61.6226 49.072 61.9396 48.9867 62.2214 48.8163C62.5033 48.6458 62.7385 48.397 62.9271 48.0697C63.118 47.7424 63.2533 47.3447 63.3328 46.8765ZM72.5953 47.0742C72.468 47.8265 72.218 48.4617 71.8453 48.9799C71.4749 49.4958 71.0237 49.8867 70.4919 50.1526C69.9624 50.4186 69.393 50.5515 68.7839 50.5515C68.1408 50.5515 67.5839 50.4083 67.1135 50.122C66.643 49.8356 66.301 49.4186 66.0873 48.8708C65.876 48.3231 65.8351 47.6583 65.9646 46.8765C66.0873 46.1242 66.3339 45.4879 66.7044 44.9674C67.0771 44.447 67.5305 44.0526 68.0646 43.7845C68.601 43.514 69.176 43.3788 69.7896 43.3788C70.4283 43.3788 70.9817 43.5231 71.4499 43.8117C71.9203 44.1004 72.2612 44.5197 72.4726 45.0697C72.6839 45.6197 72.7249 46.2879 72.5953 47.0742ZM70.9078 46.8765C70.9783 46.4379 70.9783 46.0685 70.9078 45.7685C70.8396 45.4685 70.7055 45.2424 70.5055 45.0901C70.3055 44.9356 70.0453 44.8583 69.7249 44.8583C69.3703 44.8583 69.0499 44.9458 68.7635 45.1208C68.4794 45.2935 68.2419 45.5458 68.051 45.8776C67.8601 46.2072 67.7271 46.606 67.6521 47.0742C67.5748 47.5174 67.5726 47.8867 67.6453 48.1822C67.7203 48.4776 67.8601 48.7004 68.0646 48.8504C68.2692 48.9981 68.5294 49.072 68.8453 49.072C69.1976 49.072 69.5146 48.9867 69.7964 48.8163C70.0783 48.6458 70.3135 48.397 70.5021 48.0697C70.693 47.7424 70.8283 47.3447 70.9078 46.8765ZM80.1703 47.0742C80.043 47.8265 79.793 48.4617 79.4203 48.9799C79.0499 49.4958 78.5987 49.8867 78.0669 50.1526C77.5374 50.4186 76.968 50.5515 76.3589 50.5515C75.7158 50.5515 75.1589 50.4083 74.6885 50.122C74.218 49.8356 73.876 49.4186 73.6624 48.8708C73.451 48.3231 73.4101 47.6583 73.5396 46.8765C73.6624 46.1242 73.9089 45.4879 74.2794 44.9674C74.6521 44.447 75.1055 44.0526 75.6396 43.7845C76.176 43.514 76.751 43.3788 77.3646 43.3788C78.0033 43.3788 78.5567 43.5231 79.0249 43.8117C79.4953 44.1004 79.8362 44.5197 80.0476 45.0697C80.259 45.6197 80.2999 46.2879 80.1703 47.0742ZM78.4828 46.8765C78.5533 46.4379 78.5533 46.0685 78.4828 45.7685C78.4146 45.4685 78.2805 45.2424 78.0805 45.0901C77.8805 44.9356 77.6203 44.8583 77.2999 44.8583C76.9453 44.8583 76.6249 44.9458 76.3385 45.1208C76.0544 45.2935 75.8169 45.5458 75.626 45.8776C75.4351 46.2072 75.3021 46.606 75.2271 47.0742C75.1499 47.5174 75.1476 47.8867 75.2203 48.1822C75.2953 48.4776 75.4351 48.7004 75.6396 48.8504C75.8442 48.9981 76.1044 49.072 76.4203 49.072C76.7726 49.072 77.0896 48.9867 77.3715 48.8163C77.6533 48.6458 77.8885 48.397 78.0771 48.0697C78.268 47.7424 78.4033 47.3447 78.4828 46.8765ZM87.7453 47.0742C87.6181 47.8265 87.3681 48.4617 86.9953 48.9799C86.6249 49.4958 86.1737 49.8867 85.6419 50.1526C85.1124 50.4186 84.5431 50.5515 83.934 50.5515C83.2908 50.5515 82.734 50.4083 82.2635 50.122C81.7931 49.8356 81.451 49.4186 81.2374 48.8708C81.026 48.3231 80.9851 47.6583 81.1146 46.8765C81.2374 46.1242 81.484 45.4879 81.8544 44.9674C82.2271 44.447 82.6806 44.0526 83.2146 43.7845C83.751 43.514 84.326 43.3788 84.9396 43.3788C85.5783 43.3788 86.1317 43.5231 86.5999 43.8117C87.0703 44.1004 87.4112 44.5197 87.6226 45.0697C87.834 45.6197 87.8749 46.2879 87.7453 47.0742ZM86.0578 46.8765C86.1283 46.4379 86.1283 46.0685 86.0578 45.7685C85.9897 45.4685 85.8556 45.2424 85.6556 45.0901C85.4556 44.9356 85.1953 44.8583 84.8749 44.8583C84.5203 44.8583 84.1999 44.9458 83.9135 45.1208C83.6294 45.2935 83.3919 45.5458 83.201 45.8776C83.0101 46.2072 82.8771 46.606 82.8021 47.0742C82.7249 47.5174 82.7226 47.8867 82.7953 48.1822C82.8703 48.4776 83.0101 48.7004 83.2146 48.8504C83.4192 48.9981 83.6794 49.072 83.9953 49.072C84.3476 49.072 84.6646 48.9867 84.9465 48.8163C85.2283 48.6458 85.4635 48.397 85.6522 48.0697C85.8431 47.7424 85.9783 47.3447 86.0578 46.8765ZM95.3203 47.0742C95.1931 47.8265 94.9431 48.4617 94.5703 48.9799C94.1999 49.4958 93.7487 49.8867 93.2169 50.1526C92.6874 50.4186 92.1181 50.5515 91.509 50.5515C90.8658 50.5515 90.309 50.4083 89.8385 50.122C89.3681 49.8356 89.026 49.4186 88.8124 48.8708C88.601 48.3231 88.5601 47.6583 88.6896 46.8765C88.8124 46.1242 89.059 45.4879 89.4294 44.9674C89.8021 44.447 90.2556 44.0526 90.7896 43.7845C91.326 43.514 91.901 43.3788 92.5146 43.3788C93.1533 43.3788 93.7067 43.5231 94.1749 43.8117C94.6453 44.1004 94.9862 44.5197 95.1976 45.0697C95.409 45.6197 95.4499 46.2879 95.3203 47.0742ZM93.6328 46.8765C93.7033 46.4379 93.7033 46.0685 93.6328 45.7685C93.5646 45.4685 93.4306 45.2424 93.2306 45.0901C93.0306 44.9356 92.7703 44.8583 92.4499 44.8583C92.0953 44.8583 91.7749 44.9458 91.4885 45.1208C91.2044 45.2935 90.9669 45.5458 90.776 45.8776C90.5851 46.2072 90.4521 46.606 90.3771 47.0742C90.2999 47.5174 90.2976 47.8867 90.3703 48.1822C90.4453 48.4776 90.5851 48.7004 90.7896 48.8504C90.9942 48.9981 91.2544 49.072 91.5703 49.072C91.9226 49.072 92.2396 48.9867 92.5215 48.8163C92.8033 48.6458 93.0385 48.397 93.2271 48.0697C93.4181 47.7424 93.5533 47.3447 93.6328 46.8765ZM95.7431 50.4561L96.9022 43.4742H99.7862C100.309 43.4742 100.745 43.5685 101.095 43.7572C101.445 43.9435 101.694 44.2117 101.842 44.5617C101.99 44.9095 102.024 45.322 101.944 45.7992C101.867 46.281 101.694 46.6913 101.426 47.0299C101.16 47.3663 100.817 47.6231 100.396 47.8004C99.9783 47.9776 99.5033 48.0663 98.9715 48.0663H97.1476L97.3726 46.7367H98.8828C99.1351 46.7367 99.3533 46.7038 99.5374 46.6379C99.7215 46.5697 99.8681 46.4674 99.9772 46.331C100.089 46.1924 100.162 46.0151 100.199 45.7992C100.233 45.5833 100.217 45.4049 100.151 45.264C100.087 45.1208 99.9749 45.014 99.8135 44.9435C99.6544 44.8708 99.4499 44.8345 99.1999 44.8345H98.3681L97.4306 50.4561H95.7431ZM100.202 47.2651L101.412 50.4561H99.5715L98.3987 47.2651H100.202ZM105.607 48.2811C105.36 48.2811 105.157 48.1947 105 48.022C104.844 47.8492 104.775 47.6401 104.796 47.3947C104.819 47.1538 104.925 46.9481 105.116 46.7776C105.307 46.6072 105.525 46.522 105.771 46.522C106.005 46.522 106.202 46.6072 106.361 46.7776C106.522 46.9481 106.591 47.1538 106.569 47.3947C106.555 47.5583 106.499 47.7072 106.402 47.8413C106.306 47.9754 106.188 48.0822 106.047 48.1617C105.906 48.2413 105.76 48.2811 105.607 48.2811Z" fill="white"/>
<path d="M42.8147 22.2851L41.7392 24.5492L43.2091 26.5797L40.9449 25.5041L38.9145 26.9741L39.99 24.7099L38.5201 22.6795L40.7843 23.755L42.8147 22.2851Z" fill="white"/>
<path d="M79.6448 29.5312L78.5693 31.7953L80.0392 33.8258L77.775 32.7502L75.7446 34.2202L76.8201 31.956L75.3502 29.9256L77.6144 31.0011L79.6448 29.5312Z" fill="white"/>
<path d="M80.2074 12.6576L79.555 14.0312L80.4467 15.2629L79.0731 14.6105L77.8414 15.5022L78.4939 14.1286L77.6021 12.8969L78.9757 13.5493L80.2074 12.6576Z" fill="white"/>
<defs>
<linearGradient id="paint0_linear_10289_24892" x1="27.4231" y1="12.6325" x2="4.3695" y2="5.77383" gradientUnits="userSpaceOnUse">
<stop stop-color="#CF81FF"/>
<stop offset="1" stop-color="#7B74FF"/>
</linearGradient>
<linearGradient id="paint1_linear_10289_24892" x1="30.4619" y1="25.2662" x2="7.40832" y2="18.4076" gradientUnits="userSpaceOnUse">
<stop stop-color="#CF81FF"/>
<stop offset="1" stop-color="#7B74FF"/>
</linearGradient>
<linearGradient id="paint2_linear_10289_24892" x1="33.8223" y1="37.9" x2="10.7687" y2="31.0414" gradientUnits="userSpaceOnUse">
<stop stop-color="#CF81FF"/>
<stop offset="1" stop-color="#7B74FF"/>
</linearGradient>
<linearGradient id="paint3_linear_10289_24892" x1="95.4231" y1="12.6325" x2="118.477" y2="5.77383" gradientUnits="userSpaceOnUse">
<stop stop-color="#CF81FF"/>
<stop offset="1" stop-color="#7B74FF"/>
</linearGradient>
<linearGradient id="paint4_linear_10289_24892" x1="92.3843" y1="25.2662" x2="115.438" y2="18.4076" gradientUnits="userSpaceOnUse">
<stop stop-color="#CF81FF"/>
<stop offset="1" stop-color="#7B74FF"/>
</linearGradient>
<linearGradient id="paint5_linear_10289_24892" x1="89.0239" y1="37.9" x2="112.078" y2="31.0414" gradientUnits="userSpaceOnUse">
<stop stop-color="#CF81FF"/>
<stop offset="1" stop-color="#7B74FF"/>
</linearGradient>
<linearGradient id="paint6_linear_10289_24892" x1="61.1438" y1="3.42969" x2="61.1438" y2="89.7695" gradientUnits="userSpaceOnUse">
<stop stop-color="#232859"/>
<stop offset="1" stop-color="#232859"/>
</linearGradient>
<linearGradient id="paint7_linear_10289_24892" x1="92.6898" y1="78.4091" x2="27.2314" y2="77.5676" gradientUnits="userSpaceOnUse">
<stop stop-color="#7973FF"/>
<stop offset="1" stop-color="#B481FF"/>
</linearGradient>
<linearGradient id="paint8_linear_10289_24892" x1="90.1746" y1="75.2158" x2="30.3111" y2="74.4416" gradientUnits="userSpaceOnUse">
<stop stop-color="#7973FF"/>
<stop offset="1" stop-color="#B481FF"/>
</linearGradient>
<linearGradient id="paint9_linear_10289_24892" x1="70.2725" y1="32.7241" x2="51.0375" y2="32.4549" gradientUnits="userSpaceOnUse">
<stop stop-color="#7973FF"/>
<stop offset="1" stop-color="#B481FF"/>
</linearGradient>
<linearGradient id="paint10_linear_10289_24892" x1="70.2725" y1="32.7241" x2="51.0375" y2="32.4549" gradientUnits="userSpaceOnUse">
<stop stop-color="#7973FF"/>
<stop offset="1" stop-color="#B481FF"/>
</linearGradient>
<linearGradient id="paint11_linear_10289_24892" x1="54.6859" y1="63.3569" x2="68.1906" y2="64.8127" gradientUnits="userSpaceOnUse">
<stop offset="0.0985558" stop-color="#D8FF20"/>
<stop offset="1" stop-color="#99F7F4"/>
</linearGradient>
<linearGradient id="paint12_linear_10289_24892" x1="38.9877" y1="56.7632" x2="52.4773" y2="58.2867" gradientUnits="userSpaceOnUse">
<stop offset="0.0985558" stop-color="#D8FF20"/>
<stop offset="1" stop-color="#99F7F4"/>
</linearGradient>
<linearGradient id="paint13_linear_10289_24892" x1="70.3839" y1="56.7632" x2="83.8735" y2="58.2867" gradientUnits="userSpaceOnUse">
<stop offset="0.0985558" stop-color="#D8FF20"/>
<stop offset="1" stop-color="#99F7F4"/>
</linearGradient>
<linearGradient id="paint14_linear_10289_24892" x1="109.695" y1="53.3284" x2="11.4327" y2="42.984" gradientUnits="userSpaceOnUse">
<stop stop-color="#7973FF"/>
<stop offset="1" stop-color="#B481FF"/>
</linearGradient>
</defs>
</svg>
