<svg width="108" height="90" viewBox="0 0 108 90" fill="none" xmlns="http://www.w3.org/2000/svg">
<path d="M26.0452 1.39206C21.3768 1.39206 17.5924 5.17653 17.5924 9.8449V60.7956C17.5924 63.576 18.9597 66.1786 21.2492 67.7561L49.3246 87.1012C52.2124 89.091 56.0289 89.091 58.9167 87.1012L86.9922 67.7561C89.2817 66.1786 90.649 63.576 90.649 60.7956V9.8449C90.649 5.17653 86.8645 1.39206 82.1962 1.39206H26.0452Z" fill="#F2F3F4" stroke="#BCC0C7" stroke-width="2.4151"/>
<path d="M22.098 11.0529C22.098 8.60612 24.0815 6.62266 26.5282 6.62266H81.4716C83.9183 6.62266 85.9018 8.60612 85.9018 11.0529V60.0423C85.9018 61.5039 85.1809 62.8714 83.9751 63.6973L56.5034 82.5138C54.9944 83.5474 53.0054 83.5474 51.4964 82.5138L24.0247 63.6973C22.8189 62.8714 22.098 61.5039 22.098 60.0423V11.0529Z" stroke="#BCC0C7" stroke-width="0.800001"/>
<path fill-rule="evenodd" clip-rule="evenodd" d="M44.3622 29.6565L46.8962 31.0803L46.8924 27.2003L50.3453 25.2529L50.3453 21.3692L53.8282 19.3876L53.7963 11.6562L48.383 14.6949L44.3622 16.9582L44.3622 16.9601L43.4338 17.4818L43.4339 29.1329L44.3622 29.6565ZM53.8001 11.6599L53.8001 15.54L57.2511 13.5999L53.8001 11.6599ZM60.7078 23.3129L57.253 25.2529L57.253 29.1421L53.7982 31.0821L53.7982 34.9603L63.6965 29.3956L64.1588 29.1348L64.1587 17.4836L63.6965 17.7445L63.6965 17.7464L63.6946 17.7445L60.7077 19.4237L60.7078 23.3129Z" fill="#BCC0C7"/>
<path fill-rule="evenodd" clip-rule="evenodd" d="M60.7378 23.2714L57.283 25.2114L54.1133 23.4204L50.3753 21.3277L53.8282 19.3876L60.2755 23.0123L60.7378 23.2714ZM64.1925 17.444L60.7378 19.384L53.8301 15.5003L57.2811 13.5584L64.1925 17.444ZM46.9224 27.1587L50.3753 25.2187L57.283 29.1024L53.8282 31.0424L46.9224 27.1587Z" fill="#BCC0C7"/>
<path d="M53.2146 64.4785C53.4218 64.0934 53.9742 64.0934 54.1814 64.4785L55.4937 66.9177C55.5703 67.06 55.7056 67.1613 55.8636 67.1947L58.5225 67.7567C58.9331 67.8435 59.0984 68.3403 58.8215 68.6558L56.9584 70.779C56.8567 70.8949 56.8084 71.0481 56.8253 71.2013L57.1385 74.0401C57.1858 74.4682 56.744 74.7815 56.3556 74.5952L53.9353 73.4348C53.7853 73.3628 53.6107 73.3628 53.4607 73.4348L51.0404 74.5952C50.652 74.7815 50.2103 74.4682 50.2575 74.0401L50.5707 71.2013C50.5876 71.0481 50.5393 70.8949 50.4377 70.779L48.5745 68.6558C48.2977 68.3403 48.4629 67.8435 48.8735 67.7567L51.5324 67.1947C51.6905 67.1613 51.8258 67.06 51.9023 66.9177L53.2146 64.4785Z" fill="#BCC0C7"/>
<path d="M37.5217 57.7868C37.7317 57.4143 38.2681 57.4143 38.4781 57.7868L39.7929 60.1197C39.8713 60.2586 40.0062 60.3567 40.1625 60.3882L42.7875 60.9179C43.2067 61.0024 43.3724 61.5126 43.0831 61.8274L41.2707 63.7988C41.1628 63.9162 41.1112 64.0748 41.1295 64.2333L41.437 66.8935C41.4861 67.3183 41.0521 67.6336 40.6633 67.4556L38.2283 66.3412C38.0833 66.2748 37.9165 66.2748 37.7715 66.3412L35.3365 67.4556C34.9477 67.6336 34.5137 67.3183 34.5628 66.8935L34.8702 64.2333C34.8886 64.0748 34.837 63.9162 34.7291 63.7988L32.9167 61.8274C32.6273 61.5126 32.7931 61.0024 33.2122 60.9179L35.8372 60.3882C35.9936 60.3567 36.1285 60.2586 36.2068 60.1197L37.5217 57.7868Z" fill="#BCC0C7"/>
<path d="M68.918 57.7868C69.1279 57.4143 69.6643 57.4143 69.8743 57.7868L71.1892 60.1197C71.2675 60.2586 71.4024 60.3567 71.5588 60.3882L74.1838 60.9179C74.6029 61.0024 74.7687 61.5126 74.4793 61.8274L72.667 63.7988C72.559 63.9162 72.5075 64.0748 72.5258 64.2333L72.8332 66.8935C72.8823 67.3183 72.4483 67.6336 72.0595 67.4556L69.6246 66.3412C69.4795 66.2748 69.3128 66.2748 69.1677 66.3412L66.7327 67.4556C66.3439 67.6336 65.91 67.3183 65.959 66.8935L66.2665 64.2333C66.2848 64.0748 66.2333 63.9162 66.1253 63.7988L64.313 61.8274C64.0236 61.5126 64.1893 61.0024 64.6085 60.9179L67.2335 60.3882C67.3898 60.3567 67.5248 60.2586 67.6031 60.1197L68.918 57.7868Z" fill="#BCC0C7"/>
<path d="M1.38439 39.8878C0.981512 39.3614 1.35682 38.6016 2.01966 38.6016H105.98C106.643 38.6016 107.018 39.3614 106.615 39.8878L102.155 45.7153C101.935 46.0023 101.935 46.4009 102.155 46.6878L106.615 52.5154C107.018 53.0417 106.643 53.8016 105.98 53.8016H2.01966C1.35682 53.8016 0.981513 53.0417 1.38439 52.5154L5.84479 46.6878C6.06442 46.4009 6.06442 46.0023 5.84479 45.7153L1.38439 39.8878Z" fill="#D0D3D8"/>
<path d="M9.28298 47.6375C9.03369 47.6375 8.83015 47.5506 8.67234 47.3768C8.51454 47.203 8.44593 46.9925 8.46651 46.7456C8.48938 46.5031 8.59687 46.2962 8.78898 46.1246C8.98109 45.9531 9.20065 45.8673 9.44765 45.8673C9.68321 45.8673 9.88104 45.9531 10.0411 46.1246C10.2035 46.2962 10.2733 46.5031 10.2504 46.7456C10.2367 46.9102 10.1806 47.06 10.0823 47.195C9.98624 47.3299 9.86731 47.4374 9.72552 47.5174C9.58372 47.5975 9.43621 47.6375 9.28298 47.6375ZM12.9228 49.8262L14.0892 42.8004H16.9914C17.5174 42.8004 17.9554 42.9022 18.3053 43.1058C18.6552 43.3093 18.9033 43.594 19.0497 43.96C19.1961 44.3259 19.2292 44.7501 19.1492 45.2327C19.0714 45.7198 18.8965 46.1441 18.6243 46.5054C18.3545 46.8668 18.0068 47.1469 17.5814 47.3459C17.1561 47.5449 16.6724 47.6444 16.1303 47.6444H14.343L14.566 46.3064H16.0411C16.2996 46.3064 16.5226 46.2618 16.7101 46.1727C16.8999 46.0835 17.052 45.9588 17.1664 45.7987C17.2807 45.6386 17.3562 45.45 17.3928 45.2327C17.4271 45.0154 17.4134 44.8279 17.3516 44.6701C17.2899 44.51 17.1789 44.3865 17.0188 44.2996C16.861 44.2127 16.6552 44.1692 16.4013 44.1692H15.5643L14.6209 49.8262H12.9228ZM19.2152 49.8262L20.3816 42.8004H23.2839C23.8099 42.8004 24.249 42.8953 24.6012 43.0852C24.9534 43.2727 25.2038 43.5426 25.3525 43.8948C25.5011 44.2447 25.5354 44.6598 25.4554 45.1401C25.3776 45.6249 25.2038 46.0377 24.9339 46.3785C24.6664 46.717 24.321 46.9754 23.8979 47.1538C23.4771 47.3322 22.9991 47.4214 22.464 47.4214H20.6286L20.855 46.0835H22.3748C22.6286 46.0835 22.8482 46.0503 23.0334 45.984C23.2187 45.9154 23.3662 45.8124 23.476 45.6752C23.588 45.5357 23.6624 45.3573 23.699 45.1401C23.7333 44.9228 23.7172 44.7433 23.6509 44.6015C23.5869 44.4574 23.4737 44.3499 23.3113 44.279C23.1512 44.2058 22.9454 44.1692 22.6938 44.1692H21.8568L20.9134 49.8262H19.2152ZM23.7024 46.6152L24.9202 49.8262H23.0677L21.8876 46.6152H23.7024ZM32.8842 46.4231C32.7561 47.1801 32.5046 47.8193 32.1295 48.3407C31.7567 48.8599 31.3027 49.2533 30.7676 49.5209C30.2347 49.7884 29.6618 49.9222 29.0489 49.9222C28.4016 49.9222 27.8413 49.7781 27.3679 49.49C26.8945 49.2018 26.5503 48.7821 26.3353 48.231C26.1226 47.6798 26.0815 47.0108 26.2118 46.2241C26.3353 45.4671 26.5835 44.8267 26.9562 44.303C27.3313 43.7793 27.7876 43.3825 28.325 43.1126C28.8648 42.8405 29.4434 42.7044 30.0609 42.7044C30.7035 42.7044 31.2604 42.8496 31.7316 43.1401C32.205 43.4305 32.548 43.8525 32.7607 44.4059C32.9734 44.9594 33.0146 45.6318 32.8842 46.4231ZM31.1861 46.2241C31.257 45.7827 31.257 45.4111 31.1861 45.1092C31.1175 44.8073 30.9826 44.5797 30.7813 44.4265C30.58 44.271 30.3182 44.1932 29.9957 44.1932C29.6389 44.1932 29.3165 44.2813 29.0283 44.4574C28.7424 44.6312 28.5034 44.8851 28.3113 45.219C28.1192 45.5506 27.9854 45.952 27.9099 46.4231C27.8322 46.869 27.8299 47.2407 27.9031 47.538C27.9785 47.8353 28.1192 48.0594 28.325 48.2104C28.5309 48.359 28.7927 48.4334 29.1106 48.4334C29.4651 48.4334 29.7842 48.3476 30.0677 48.1761C30.3513 48.0046 30.588 47.7541 30.7779 47.4248C30.97 47.0955 31.1061 46.6952 31.1861 46.2241ZM35.6561 42.8004L36.3731 47.9462H36.4314L38.8568 42.8004H40.7573L37.2204 49.8262H34.9597L33.7556 42.8004H35.6561ZM43.2118 42.8004L42.0455 49.8262H40.3473L41.5137 42.8004H43.2118ZM45.7461 49.8262H43.1115L44.2779 42.8004H46.8336C47.5472 42.8004 48.1418 42.9457 48.6175 43.2361C49.0955 43.5243 49.4328 43.9382 49.6295 44.478C49.8285 45.0154 49.8662 45.6558 49.7427 46.3991C49.6238 47.1172 49.3848 47.7324 49.0257 48.2447C48.669 48.757 48.2116 49.1492 47.6535 49.4214C47.0955 49.6912 46.4597 49.8262 45.7461 49.8262ZM45.0463 48.3785H45.8525C46.2459 48.3785 46.5935 48.3076 46.8954 48.1658C47.1996 48.0217 47.4511 47.7919 47.6501 47.4763C47.8491 47.1584 47.9909 46.741 48.0755 46.2241C48.1578 45.7301 48.1544 45.3402 48.0652 45.0543C47.9783 44.7661 47.809 44.5603 47.5575 44.4368C47.3082 44.311 46.9823 44.2481 46.5798 44.2481H45.7359L45.0463 48.3785ZM57.3654 46.4231C57.2373 47.1801 56.9857 47.8193 56.6107 48.3407C56.2379 48.8599 55.7839 49.2533 55.2487 49.5209C54.7159 49.7884 54.143 49.9222 53.53 49.9222C52.8828 49.9222 52.3225 49.7781 51.8491 49.49C51.3757 49.2018 51.0315 48.7821 50.8165 48.231C50.6038 47.6798 50.5626 47.0108 50.693 46.2241C50.8165 45.4671 51.0646 44.8267 51.4374 44.303C51.8125 43.7793 52.2687 43.3825 52.8062 43.1126C53.3459 42.8405 53.9245 42.7044 54.542 42.7044C55.1847 42.7044 55.7416 42.8496 56.2127 43.1401C56.6861 43.4305 57.0292 43.8525 57.2419 44.4059C57.4546 44.9594 57.4957 45.6318 57.3654 46.4231ZM55.6673 46.2241C55.7382 45.7827 55.7382 45.4111 55.6673 45.1092C55.5986 44.8073 55.4637 44.5797 55.2625 44.4265C55.0612 44.271 54.7993 44.1932 54.4769 44.1932C54.1201 44.1932 53.7976 44.2813 53.5095 44.4574C53.2236 44.6312 52.9846 44.8851 52.7925 45.219C52.6004 45.5506 52.4666 45.952 52.3911 46.4231C52.3133 46.869 52.3111 47.2407 52.3842 47.538C52.4597 47.8353 52.6004 48.0594 52.8062 48.2104C53.012 48.359 53.2739 48.4334 53.5918 48.4334C53.9463 48.4334 54.2653 48.3476 54.5489 48.1761C54.8325 48.0046 55.0692 47.7541 55.259 47.4248C55.4511 47.0955 55.5872 46.6952 55.6673 46.2241ZM64.988 46.4231C64.86 47.1801 64.6084 47.8193 64.2333 48.3407C63.8605 48.8599 63.4065 49.2533 62.8714 49.5209C62.3385 49.7884 61.7656 49.9222 61.1527 49.9222C60.5055 49.9222 59.9451 49.7781 59.4717 49.49C58.9983 49.2018 58.6541 48.7821 58.4391 48.231C58.2264 47.6798 58.1853 47.0108 58.3156 46.2241C58.4391 45.4671 58.6873 44.8267 59.0601 44.303C59.4351 43.7793 59.8914 43.3825 60.4288 43.1126C60.9686 42.8405 61.5472 42.7044 62.1647 42.7044C62.8073 42.7044 63.3642 42.8496 63.8354 43.1401C64.3088 43.4305 64.6518 43.8525 64.8645 44.4059C65.0772 44.9594 65.1184 45.6318 64.988 46.4231ZM63.2899 46.2241C63.3608 45.7827 63.3608 45.4111 63.2899 45.1092C63.2213 44.8073 63.0864 44.5797 62.8851 44.4265C62.6838 44.271 62.422 44.1932 62.0995 44.1932C61.7427 44.1932 61.4203 44.2813 61.1321 44.4574C60.8462 44.6312 60.6072 44.8851 60.4151 45.219C60.223 45.5506 60.0892 45.952 60.0137 46.4231C59.936 46.869 59.9337 47.2407 60.0069 47.538C60.0824 47.8353 60.223 48.0594 60.4288 48.2104C60.6347 48.359 60.8965 48.4334 61.2144 48.4334C61.5689 48.4334 61.888 48.3476 62.1716 48.1761C62.4551 48.0046 62.6919 47.7541 62.8817 47.4248C63.0738 47.0955 63.2099 46.6952 63.2899 46.2241ZM72.6107 46.4231C72.4826 47.1801 72.231 47.8193 71.856 48.3407C71.4832 48.8599 71.0292 49.2533 70.494 49.5209C69.9612 49.7884 69.3883 49.9222 68.7753 49.9222C68.1281 49.9222 67.5678 49.7781 67.0944 49.49C66.621 49.2018 66.2768 48.7821 66.0618 48.231C65.8491 47.6798 65.8079 47.0108 65.9383 46.2241C66.0618 45.4671 66.3099 44.8267 66.6827 44.303C67.0578 43.7793 67.514 43.3825 68.0515 43.1126C68.5912 42.8405 69.1699 42.7044 69.7873 42.7044C70.43 42.7044 70.9869 42.8496 71.458 43.1401C71.9314 43.4305 72.2745 43.8525 72.4872 44.4059C72.6999 44.9594 72.741 45.6318 72.6107 46.4231ZM70.9126 46.2241C70.9835 45.7827 70.9835 45.4111 70.9126 45.1092C70.844 44.8073 70.709 44.5797 70.5078 44.4265C70.3065 44.271 70.0446 44.1932 69.7222 44.1932C69.3654 44.1932 69.0429 44.2813 68.7548 44.4574C68.4689 44.6312 68.2299 44.8851 68.0378 45.219C67.8457 45.5506 67.7119 45.952 67.6364 46.4231C67.5586 46.869 67.5564 47.2407 67.6295 47.538C67.705 47.8353 67.8457 48.0594 68.0515 48.2104C68.2573 48.359 68.5192 48.4334 68.8371 48.4334C69.1916 48.4334 69.5106 48.3476 69.7942 48.1761C70.0778 48.0046 70.3145 47.7541 70.5043 47.4248C70.6964 47.0955 70.8325 46.6952 70.9126 46.2241ZM80.2333 46.4231C80.1053 47.1801 79.8537 47.8193 79.4786 48.3407C79.1058 48.8599 78.6519 49.2533 78.1167 49.5209C77.5838 49.7884 77.0109 49.9222 76.398 49.9222C75.7508 49.9222 75.1904 49.7781 74.717 49.49C74.2436 49.2018 73.8994 48.7821 73.6844 48.231C73.4717 47.6798 73.4306 47.0108 73.5609 46.2241C73.6844 45.4671 73.9326 44.8267 74.3054 44.303C74.6804 43.7793 75.1367 43.3825 75.6742 43.1126C76.2139 42.8405 76.7925 42.7044 77.41 42.7044C78.0527 42.7044 78.6095 42.8496 79.0807 43.1401C79.5541 43.4305 79.8971 43.8525 80.1098 44.4059C80.3225 44.9594 80.3637 45.6318 80.2333 46.4231ZM78.5352 46.2241C78.6061 45.7827 78.6061 45.4111 78.5352 45.1092C78.4666 44.8073 78.3317 44.5797 78.1304 44.4265C77.9292 44.271 77.6673 44.1932 77.3448 44.1932C76.988 44.1932 76.6656 44.2813 76.3774 44.4574C76.0915 44.6312 75.8525 44.8851 75.6604 45.219C75.4683 45.5506 75.3345 45.952 75.2591 46.4231C75.1813 46.869 75.179 47.2407 75.2522 47.538C75.3277 47.8353 75.4683 48.0594 75.6742 48.2104C75.88 48.359 76.1418 48.4334 76.4597 48.4334C76.8142 48.4334 77.1333 48.3476 77.4169 48.1761C77.7005 48.0046 77.9372 47.7541 78.127 47.4248C78.3191 47.0955 78.4552 46.6952 78.5352 46.2241ZM87.856 46.4231C87.7279 47.1801 87.4763 47.8193 87.1013 48.3407C86.7285 48.8599 86.2745 49.2533 85.7393 49.5209C85.2065 49.7884 84.6336 49.9222 84.0206 49.9222C83.3734 49.9222 82.8131 49.7781 82.3397 49.49C81.8663 49.2018 81.5221 48.7821 81.3071 48.231C81.0944 47.6798 81.0532 47.0108 81.1836 46.2241C81.3071 45.4671 81.5552 44.8267 81.928 44.303C82.3031 43.7793 82.7593 43.3825 83.2968 43.1126C83.8365 42.8405 84.4152 42.7044 85.0327 42.7044C85.6753 42.7044 86.2322 42.8496 86.7033 43.1401C87.1767 43.4305 87.5198 43.8525 87.7325 44.4059C87.9452 44.9594 87.9863 45.6318 87.856 46.4231ZM86.1579 46.2241C86.2288 45.7827 86.2288 45.4111 86.1579 45.1092C86.0893 44.8073 85.9543 44.5797 85.7531 44.4265C85.5518 44.271 85.2899 44.1932 84.9675 44.1932C84.6107 44.1932 84.2882 44.2813 84.0001 44.4574C83.7142 44.6312 83.4752 44.8851 83.2831 45.219C83.091 45.5506 82.9572 45.952 82.8817 46.4231C82.8039 46.869 82.8017 47.2407 82.8748 47.538C82.9503 47.8353 83.091 48.0594 83.2968 48.2104C83.5026 48.359 83.7645 48.4334 84.0824 48.4334C84.4369 48.4334 84.7559 48.3476 85.0395 48.1761C85.3231 48.0046 85.5598 47.7541 85.7496 47.4248C85.9417 47.0955 86.0778 46.6952 86.1579 46.2241ZM88.2814 49.8262L89.4478 42.8004H92.35C92.876 42.8004 93.3151 42.8953 93.6673 43.0852C94.0195 43.2727 94.2699 43.5426 94.4186 43.8948C94.5673 44.2447 94.6016 44.6598 94.5215 45.1401C94.4438 45.6249 94.2699 46.0377 94.0001 46.3785C93.7325 46.717 93.3871 46.9754 92.9641 47.1538C92.5432 47.3322 92.0652 47.4214 91.5301 47.4214H89.6947L89.9212 46.0835H91.4409C91.6948 46.0835 91.9143 46.0503 92.0996 45.984C92.2848 45.9154 92.4323 45.8124 92.5421 45.6752C92.6542 45.5357 92.7285 45.3573 92.7651 45.1401C92.7994 44.9228 92.7834 44.7433 92.7171 44.6015C92.653 44.4574 92.5398 44.3499 92.3774 44.279C92.2173 44.2058 92.0115 44.1692 91.7599 44.1692H90.9229L89.9795 49.8262H88.2814ZM92.7685 46.6152L93.9863 49.8262H92.1339L90.9538 46.6152H92.7685ZM98.2076 47.6375C97.9583 47.6375 97.7548 47.5506 97.597 47.3768C97.4392 47.203 97.3706 46.9925 97.3912 46.7456C97.414 46.5031 97.5215 46.2962 97.7136 46.1246C97.9057 45.9531 98.1253 45.8673 98.3723 45.8673C98.6079 45.8673 98.8057 45.9531 98.9658 46.1246C99.1282 46.2962 99.1979 46.5031 99.175 46.7456C99.1613 46.9102 99.1053 47.06 99.0069 47.195C98.9109 47.3299 98.792 47.4374 98.6502 47.5174C98.5084 47.5975 98.3609 47.6375 98.2076 47.6375Z" fill="#A4A8AF"/>
<path d="M35.7918 21.455L34.7162 23.7192L36.1862 25.7496L33.922 24.6741L31.8916 26.144L32.9671 23.8798L31.4972 21.8494L33.7613 22.9249L35.7918 21.455Z" fill="#BCC0C7"/>
<path d="M72.622 28.7001L71.5464 30.9643L73.0164 32.9947L70.7522 31.9192L68.7218 33.3891L69.7973 31.1249L68.3274 29.0945L70.5915 30.17L72.622 28.7001Z" fill="#BCC0C7"/>
<path d="M73.1845 11.7826L72.532 13.1562L73.4237 14.3879L72.0502 13.7355L70.8185 14.6272L71.4709 13.2536L70.5792 12.0219L71.9527 12.6743L73.1845 11.7826Z" fill="#BCC0C7"/>
</svg>
