<svg width="97" height="91" viewBox="0 0 97 91" fill="none" xmlns="http://www.w3.org/2000/svg">
<path d="M20.8476 1.62253C16.1792 1.62253 12.3947 5.40699 12.3947 10.0754V61.0261C12.3947 63.8064 13.762 66.409 16.0515 67.9866L44.127 87.3317C47.0148 89.3215 50.8313 89.3215 53.7191 87.3317L81.7946 67.9866C84.0841 66.409 85.4514 63.8064 85.4514 61.0261V10.0754C85.4514 5.407 81.6669 1.62253 76.9985 1.62253H20.8476Z" fill="url(#paint0_linear_10289_24882)" stroke="url(#paint1_linear_10289_24882)" stroke-width="2.4151"/>
<path d="M16.9232 11.2833C16.9232 8.7824 18.9506 6.75501 21.4515 6.75501H76.3949C78.8958 6.75501 80.9232 8.7824 80.9232 11.2833V60.2727C80.9232 61.7667 80.1864 63.1645 78.9538 64.0087L51.4821 82.8252C49.9398 83.8817 47.9067 83.8817 46.3643 82.8252L18.8926 64.0087C17.6601 63.1645 16.9232 61.7667 16.9232 60.2727V11.2833Z" stroke="url(#paint2_linear_10289_24882)" stroke-width="0.603774"/>
<path fill-rule="evenodd" clip-rule="evenodd" d="M39.2855 29.887L41.8195 31.3108L41.8158 27.4307L45.2686 25.4834L45.2686 21.5997L48.7516 19.6181L48.7196 11.8867L43.3063 14.9253L39.2855 17.1887L39.2855 17.1905L38.3572 17.7123L38.3572 29.3634L39.2855 29.887ZM48.7234 11.8904L48.7234 15.7704L52.1744 13.8304L48.7234 11.8904ZM55.6311 23.5433L52.1763 25.4834L52.1763 29.3726L48.7215 31.3126L48.7216 35.1908L58.6198 29.6261L59.0821 29.3652L59.0821 17.7141L58.6198 17.975L58.6198 17.9768L58.6179 17.975L55.6311 19.6541L55.6311 23.5433Z" fill="url(#paint3_linear_10289_24882)"/>
<path fill-rule="evenodd" clip-rule="evenodd" d="M55.6611 23.5018L52.2063 25.4418L49.0366 23.6509L45.2987 21.5581L48.7516 19.6181L55.1988 23.2428L55.6611 23.5018ZM59.1159 17.6744L55.6611 19.6144L48.7534 15.7307L52.2044 13.7889L59.1159 17.6744ZM41.8458 27.3892L45.2987 25.4492L52.2063 29.3329L48.7516 31.2729L41.8458 27.3892Z" fill="url(#paint4_linear_10289_24882)"/>
<path d="M48.1146 64.7527C48.3317 64.3493 48.9103 64.3493 49.1274 64.7527L50.411 67.1385C50.4911 67.2875 50.6329 67.3937 50.7984 67.4287L53.4018 67.9789C53.8319 68.0699 54.0051 68.5903 53.7151 68.9208L51.8889 71.0018C51.7824 71.1232 51.7319 71.2837 51.7496 71.4441L52.0563 74.2248C52.1058 74.6733 51.643 75.0014 51.2362 74.8063L48.8696 73.6716C48.7124 73.5963 48.5296 73.5963 48.3724 73.6716L46.0058 74.8063C45.5989 75.0014 45.1362 74.6733 45.1856 74.2248L45.4924 71.4441C45.5101 71.2837 45.4595 71.1232 45.3531 71.0018L43.5269 68.9208C43.2369 68.5903 43.41 68.0699 43.8402 67.9789L46.4435 67.4287C46.6091 67.3937 46.7508 67.2875 46.831 67.1385L48.1146 64.7527Z" fill="#515899"/>
<path d="M32.4448 58.0183C32.6548 57.6458 33.1912 57.6458 33.4012 58.0183L34.716 60.3511C34.7944 60.4901 34.9293 60.5881 35.0856 60.6197L37.7106 61.1493C38.1298 61.2339 38.2955 61.744 38.0062 62.0588L36.1938 64.0302C36.0858 64.1477 36.0343 64.3063 36.0526 64.4647L36.3601 67.1249C36.4092 67.5497 35.9752 67.865 35.5864 67.687L33.1514 66.5726C33.0064 66.5062 32.8396 66.5062 32.6946 66.5726L30.2596 67.687C29.8708 67.865 29.4368 67.5497 29.4859 67.1249L29.7933 64.4647C29.8117 64.3063 29.7601 64.1477 29.6522 64.0302L27.8398 62.0588C27.5504 61.744 27.7162 61.2339 28.1353 61.1493L30.7603 60.6197C30.9167 60.5881 31.0516 60.4901 31.1299 60.3511L32.4448 58.0183Z" fill="url(#paint5_linear_10289_24882)"/>
<path d="M63.8411 58.0183C64.051 57.6458 64.5874 57.6458 64.7974 58.0183L66.1123 60.3511C66.1906 60.4901 66.3255 60.5881 66.4819 60.6197L69.1069 61.1493C69.526 61.2339 69.6918 61.744 69.4024 62.0588L67.59 64.0302C67.4821 64.1477 67.4306 64.3063 67.4489 64.4647L67.7563 67.1249C67.8054 67.5497 67.3714 67.865 66.9826 67.687L64.5477 66.5726C64.4026 66.5062 64.2359 66.5062 64.0908 66.5726L61.6558 67.687C61.267 67.865 60.833 67.5497 60.8821 67.1249L61.1896 64.4647C61.2079 64.3063 61.1564 64.1477 61.0484 64.0302L59.2361 62.0588C58.9467 61.744 59.1124 61.2339 59.5316 61.1493L62.1566 60.6197C62.3129 60.5881 62.4479 60.4901 62.5262 60.3511L63.8411 58.0183Z" fill="#515899"/>
<rect x="0.923096" y="38.4531" width="96" height="16" rx="0.800001" fill="url(#paint6_linear_10289_24882)"/>
<path d="M4.33878 47.0779C4.09105 47.0779 3.88878 46.9916 3.73196 46.8188C3.57514 46.6461 3.50696 46.437 3.52741 46.1916C3.55014 45.9507 3.65696 45.745 3.84787 45.5745C4.03878 45.4041 4.25696 45.3188 4.50241 45.3188C4.7365 45.3188 4.93309 45.4041 5.09219 45.5745C5.25355 45.745 5.32287 45.9507 5.30014 46.1916C5.2865 46.3552 5.23082 46.5041 5.13309 46.6382C5.03764 46.7722 4.91946 46.8791 4.77855 46.9586C4.63764 47.0382 4.49105 47.0779 4.33878 47.0779ZM7.95582 49.2529L9.11492 42.2711H11.999C12.5217 42.2711 12.957 42.3722 13.3047 42.5745C13.6524 42.7768 13.899 43.0597 14.0445 43.4234C14.1899 43.787 14.2229 44.2086 14.1433 44.6882C14.0661 45.1722 13.8922 45.5938 13.6217 45.9529C13.3536 46.312 13.0081 46.5904 12.5854 46.7882C12.1626 46.9859 11.682 47.0847 11.1433 47.0847H9.36719L9.58878 45.7552H11.0547C11.3115 45.7552 11.5331 45.7109 11.7195 45.6222C11.9081 45.5336 12.0592 45.4097 12.1729 45.2507C12.2865 45.0916 12.3615 44.9041 12.3979 44.6882C12.432 44.4722 12.4183 44.2859 12.357 44.1291C12.2956 43.97 12.1854 43.8472 12.0263 43.7609C11.8695 43.6745 11.6649 43.6313 11.4126 43.6313H10.5808L9.64333 49.2529H7.95582ZM14.209 49.2529L15.368 42.2711H18.2521C18.7749 42.2711 19.2112 42.3654 19.5612 42.5541C19.9112 42.7404 20.1601 43.0086 20.3078 43.3586C20.4556 43.7063 20.4896 44.1188 20.4101 44.5961C20.3328 45.0779 20.1601 45.4882 19.8919 45.8268C19.626 46.1632 19.2828 46.42 18.8624 46.5972C18.4442 46.7745 17.9692 46.8632 17.4374 46.8632H15.6135L15.8385 45.5336H17.3487C17.601 45.5336 17.8192 45.5007 18.0033 45.4347C18.1874 45.3666 18.334 45.2643 18.4431 45.1279C18.5544 44.9893 18.6283 44.812 18.6646 44.5961C18.6987 44.3802 18.6828 44.2018 18.6169 44.0609C18.5533 43.9177 18.4408 43.8109 18.2794 43.7404C18.1203 43.6677 17.9158 43.6313 17.6658 43.6313H16.834L15.8965 49.2529H14.209ZM18.6681 46.062L19.8783 49.2529H18.0374L16.8646 46.062H18.6681ZM27.7925 45.8711C27.6652 46.6234 27.4152 47.2586 27.0425 47.7768C26.672 48.2927 26.2209 48.6836 25.6891 48.9495C25.1595 49.2154 24.5902 49.3484 23.9811 49.3484C23.3379 49.3484 22.7811 49.2052 22.3107 48.9188C21.8402 48.6325 21.4982 48.2154 21.2845 47.6677C21.0732 47.12 21.0323 46.4552 21.1618 45.6734C21.2845 44.9211 21.5311 44.2847 21.9016 43.7643C22.2743 43.2438 22.7277 42.8495 23.2618 42.5813C23.7982 42.3109 24.3732 42.1757 24.9868 42.1757C25.6254 42.1757 26.1789 42.32 26.647 42.6086C27.1175 42.8972 27.4584 43.3166 27.6698 43.8666C27.8811 44.4166 27.922 45.0847 27.7925 45.8711ZM26.105 45.6734C26.1754 45.2347 26.1754 44.8654 26.105 44.5654C26.0368 44.2654 25.9027 44.0393 25.7027 43.887C25.5027 43.7325 25.2425 43.6552 24.922 43.6552C24.5675 43.6552 24.247 43.7427 23.9607 43.9177C23.6766 44.0904 23.4391 44.3427 23.2482 44.6745C23.0573 45.0041 22.9243 45.4029 22.8493 45.8711C22.772 46.3143 22.7698 46.6836 22.8425 46.9791C22.9175 47.2745 23.0573 47.4972 23.2618 47.6472C23.4664 47.795 23.7266 47.8688 24.0425 47.8688C24.3948 47.8688 24.7118 47.7836 24.9936 47.6132C25.2754 47.4427 25.5107 47.1938 25.6993 46.8666C25.8902 46.5393 26.0254 46.1416 26.105 45.6734ZM30.547 42.2711L31.2595 47.3847H31.3175L33.7277 42.2711H35.6164L32.1016 49.2529H29.855L28.6584 42.2711H30.547ZM38.0556 42.2711L36.8965 49.2529H35.209L36.3681 42.2711H38.0556ZM40.574 49.2529H37.9559L39.1149 42.2711H41.6547C42.3638 42.2711 42.9547 42.4154 43.4274 42.7041C43.9025 42.9904 44.2377 43.4018 44.4331 43.9382C44.6309 44.4722 44.6684 45.1086 44.5456 45.8472C44.4275 46.5609 44.1899 47.1722 43.8331 47.6813C43.4786 48.1904 43.024 48.5802 42.4695 48.8507C41.9149 49.1188 41.2831 49.2529 40.574 49.2529ZM39.8786 47.8143H40.6797C41.0706 47.8143 41.4161 47.7438 41.7161 47.6029C42.0184 47.4597 42.2684 47.2313 42.4661 46.9177C42.6638 46.6018 42.8047 46.187 42.8888 45.6734C42.9706 45.1825 42.9672 44.795 42.8786 44.5109C42.7922 44.2245 42.624 44.02 42.374 43.8972C42.1263 43.7722 41.8024 43.7097 41.4024 43.7097H40.5638L39.8786 47.8143ZM52.1206 45.8711C51.9934 46.6234 51.7434 47.2586 51.3706 47.7768C51.0002 48.2927 50.549 48.6836 50.0172 48.9495C49.4877 49.2154 48.9184 49.3484 48.3093 49.3484C47.6661 49.3484 47.1093 49.2052 46.6388 48.9188C46.1684 48.6325 45.8263 48.2154 45.6127 47.6677C45.4013 47.12 45.3604 46.4552 45.4899 45.6734C45.6127 44.9211 45.8593 44.2847 46.2297 43.7643C46.6025 43.2438 47.0559 42.8495 47.59 42.5813C48.1263 42.3109 48.7013 42.1757 49.315 42.1757C49.9536 42.1757 50.507 42.32 50.9752 42.6086C51.4456 42.8972 51.7865 43.3166 51.9979 43.8666C52.2093 44.4166 52.2502 45.0847 52.1206 45.8711ZM50.4331 45.6734C50.5036 45.2347 50.5036 44.8654 50.4331 44.5654C50.365 44.2654 50.2309 44.0393 50.0309 43.887C49.8309 43.7325 49.5706 43.6552 49.2502 43.6552C48.8956 43.6552 48.5752 43.7427 48.2888 43.9177C48.0047 44.0904 47.7672 44.3427 47.5763 44.6745C47.3854 45.0041 47.2525 45.4029 47.1775 45.8711C47.1002 46.3143 47.0979 46.6836 47.1706 46.9791C47.2456 47.2745 47.3854 47.4972 47.59 47.6472C47.7945 47.795 48.0547 47.8688 48.3706 47.8688C48.7229 47.8688 49.04 47.7836 49.3218 47.6132C49.6036 47.4427 49.8388 47.1938 50.0275 46.8666C50.2184 46.5393 50.3536 46.1416 50.4331 45.6734ZM59.6956 45.8711C59.5684 46.6234 59.3184 47.2586 58.9456 47.7768C58.5752 48.2927 58.1241 48.6836 57.5922 48.9495C57.0627 49.2154 56.4934 49.3484 55.8843 49.3484C55.2411 49.3484 54.6843 49.2052 54.2138 48.9188C53.7434 48.6325 53.4013 48.2154 53.1877 47.6677C52.9763 47.12 52.9354 46.4552 53.065 45.6734C53.1877 44.9211 53.4343 44.2847 53.8047 43.7643C54.1775 43.2438 54.6309 42.8495 55.165 42.5813C55.7013 42.3109 56.2763 42.1757 56.89 42.1757C57.5286 42.1757 58.082 42.32 58.5502 42.6086C59.0206 42.8972 59.3616 43.3166 59.5729 43.8666C59.7843 44.4166 59.8252 45.0847 59.6956 45.8711ZM58.0081 45.6734C58.0786 45.2347 58.0786 44.8654 58.0081 44.5654C57.94 44.2654 57.8059 44.0393 57.6059 43.887C57.4059 43.7325 57.1456 43.6552 56.8252 43.6552C56.4706 43.6552 56.1502 43.7427 55.8638 43.9177C55.5797 44.0904 55.3422 44.3427 55.1513 44.6745C54.9604 45.0041 54.8275 45.4029 54.7525 45.8711C54.6752 46.3143 54.6729 46.6836 54.7456 46.9791C54.8206 47.2745 54.9604 47.4972 55.165 47.6472C55.3695 47.795 55.6297 47.8688 55.9456 47.8688C56.2979 47.8688 56.615 47.7836 56.8968 47.6132C57.1786 47.4427 57.4138 47.1938 57.6025 46.8666C57.7934 46.5393 57.9286 46.1416 58.0081 45.6734ZM67.2707 45.8711C67.1434 46.6234 66.8934 47.2586 66.5207 47.7768C66.1502 48.2927 65.6991 48.6836 65.1672 48.9495C64.6377 49.2154 64.0684 49.3484 63.4593 49.3484C62.8161 49.3484 62.2593 49.2052 61.7888 48.9188C61.3184 48.6325 60.9763 48.2154 60.7627 47.6677C60.5513 47.12 60.5104 46.4552 60.64 45.6734C60.7627 44.9211 61.0093 44.2847 61.3797 43.7643C61.7525 43.2438 62.2059 42.8495 62.74 42.5813C63.2763 42.3109 63.8513 42.1757 64.465 42.1757C65.1036 42.1757 65.657 42.32 66.1252 42.6086C66.5957 42.8972 66.9366 43.3166 67.1479 43.8666C67.3593 44.4166 67.4002 45.0847 67.2707 45.8711ZM65.5832 45.6734C65.6536 45.2347 65.6536 44.8654 65.5832 44.5654C65.515 44.2654 65.3809 44.0393 65.1809 43.887C64.9809 43.7325 64.7207 43.6552 64.4002 43.6552C64.0457 43.6552 63.7252 43.7427 63.4388 43.9177C63.1547 44.0904 62.9172 44.3427 62.7263 44.6745C62.5354 45.0041 62.4025 45.4029 62.3275 45.8711C62.2502 46.3143 62.2479 46.6836 62.3206 46.9791C62.3956 47.2745 62.5354 47.4972 62.74 47.6472C62.9445 47.795 63.2047 47.8688 63.5207 47.8688C63.8729 47.8688 64.19 47.7836 64.4718 47.6132C64.7536 47.4427 64.9888 47.1938 65.1775 46.8666C65.3684 46.5393 65.5036 46.1416 65.5832 45.6734ZM74.8457 45.8711C74.7184 46.6234 74.4684 47.2586 74.0957 47.7768C73.7252 48.2927 73.2741 48.6836 72.7422 48.9495C72.2127 49.2154 71.6434 49.3484 71.0343 49.3484C70.3911 49.3484 69.8343 49.2052 69.3638 48.9188C68.8934 48.6325 68.5513 48.2154 68.3377 47.6677C68.1263 47.12 68.0854 46.4552 68.215 45.6734C68.3377 44.9211 68.5843 44.2847 68.9547 43.7643C69.3275 43.2438 69.7809 42.8495 70.315 42.5813C70.8513 42.3109 71.4263 42.1757 72.04 42.1757C72.6786 42.1757 73.232 42.32 73.7002 42.6086C74.1707 42.8972 74.5116 43.3166 74.7229 43.8666C74.9343 44.4166 74.9752 45.0847 74.8457 45.8711ZM73.1582 45.6734C73.2286 45.2347 73.2286 44.8654 73.1582 44.5654C73.09 44.2654 72.9559 44.0393 72.7559 43.887C72.5559 43.7325 72.2957 43.6552 71.9752 43.6552C71.6207 43.6552 71.3002 43.7427 71.0138 43.9177C70.7297 44.0904 70.4922 44.3427 70.3013 44.6745C70.1104 45.0041 69.9775 45.4029 69.9025 45.8711C69.8252 46.3143 69.8229 46.6836 69.8957 46.9791C69.9707 47.2745 70.1104 47.4972 70.315 47.6472C70.5195 47.795 70.7797 47.8688 71.0957 47.8688C71.4479 47.8688 71.765 47.7836 72.0468 47.6132C72.3286 47.4427 72.5638 47.1938 72.7525 46.8666C72.9434 46.5393 73.0786 46.1416 73.1582 45.6734ZM82.4207 45.8711C82.2934 46.6234 82.0434 47.2586 81.6707 47.7768C81.3002 48.2927 80.8491 48.6836 80.3173 48.9495C79.7877 49.2154 79.2184 49.3484 78.6093 49.3484C77.9661 49.3484 77.4093 49.2052 76.9388 48.9188C76.4684 48.6325 76.1263 48.2154 75.9127 47.6677C75.7013 47.12 75.6604 46.4552 75.79 45.6734C75.9127 44.9211 76.1593 44.2847 76.5297 43.7643C76.9025 43.2438 77.3559 42.8495 77.89 42.5813C78.4263 42.3109 79.0013 42.1757 79.615 42.1757C80.2536 42.1757 80.807 42.32 81.2752 42.6086C81.7457 42.8972 82.0866 43.3166 82.2979 43.8666C82.5093 44.4166 82.5502 45.0847 82.4207 45.8711ZM80.7332 45.6734C80.8036 45.2347 80.8036 44.8654 80.7332 44.5654C80.665 44.2654 80.5309 44.0393 80.3309 43.887C80.1309 43.7325 79.8707 43.6552 79.5502 43.6552C79.1957 43.6552 78.8752 43.7427 78.5888 43.9177C78.3048 44.0904 78.0673 44.3427 77.8763 44.6745C77.6854 45.0041 77.5525 45.4029 77.4775 45.8711C77.4002 46.3143 77.3979 46.6836 77.4707 46.9791C77.5457 47.2745 77.6854 47.4972 77.89 47.6472C78.0945 47.795 78.3548 47.8688 78.6707 47.8688C79.0229 47.8688 79.34 47.7836 79.6218 47.6132C79.9036 47.4427 80.1388 47.1938 80.3275 46.8666C80.5184 46.5393 80.6536 46.1416 80.7332 45.6734ZM82.8434 49.2529L84.0025 42.2711H86.8866C87.4093 42.2711 87.8457 42.3654 88.1957 42.5541C88.5457 42.7404 88.7945 43.0086 88.9423 43.3586C89.09 43.7063 89.1241 44.1188 89.0445 44.5961C88.9673 45.0779 88.7945 45.4882 88.5264 45.8268C88.2604 46.1632 87.9173 46.42 87.4968 46.5972C87.0786 46.7745 86.6036 46.8632 86.0718 46.8632H84.2479L84.4729 45.5336H85.9832C86.2354 45.5336 86.4536 45.5007 86.6377 45.4347C86.8218 45.3666 86.9684 45.2643 87.0775 45.1279C87.1889 44.9893 87.2627 44.812 87.2991 44.5961C87.3332 44.3802 87.3173 44.2018 87.2514 44.0609C87.1877 43.9177 87.0752 43.8109 86.9139 43.7404C86.7548 43.6677 86.5502 43.6313 86.3002 43.6313H85.4684L84.5309 49.2529H82.8434ZM87.3025 46.062L88.5127 49.2529H86.6718L85.4991 46.062H87.3025ZM92.7076 47.0779C92.4599 47.0779 92.2576 46.9916 92.1008 46.8188C91.944 46.6461 91.8758 46.437 91.8962 46.1916C91.919 45.9507 92.0258 45.745 92.2167 45.5745C92.4076 45.4041 92.6258 45.3188 92.8712 45.3188C93.1053 45.3188 93.3019 45.4041 93.461 45.5745C93.6224 45.745 93.6917 45.9507 93.669 46.1916C93.6553 46.3552 93.5997 46.5041 93.5019 46.6382C93.4065 46.7722 93.2883 46.8791 93.1474 46.9586C93.0065 47.0382 92.8599 47.0779 92.7076 47.0779Z" fill="white"/>
<defs>
<linearGradient id="paint0_linear_10289_24882" x1="48.923" y1="2.83008" x2="48.923" y2="89.1699" gradientUnits="userSpaceOnUse">
<stop stop-color="#232859"/>
<stop offset="1" stop-color="#232859"/>
</linearGradient>
<linearGradient id="paint1_linear_10289_24882" x1="80.4691" y1="77.8095" x2="15.0107" y2="76.9679" gradientUnits="userSpaceOnUse">
<stop stop-color="#7973FF"/>
<stop offset="1" stop-color="#B481FF"/>
</linearGradient>
<linearGradient id="paint2_linear_10289_24882" x1="77.773" y1="74.6162" x2="17.9095" y2="73.842" gradientUnits="userSpaceOnUse">
<stop stop-color="#7973FF"/>
<stop offset="1" stop-color="#B481FF"/>
</linearGradient>
<linearGradient id="paint3_linear_10289_24882" x1="58.0067" y1="32.1245" x2="38.7717" y2="31.8553" gradientUnits="userSpaceOnUse">
<stop stop-color="#7973FF"/>
<stop offset="1" stop-color="#B481FF"/>
</linearGradient>
<linearGradient id="paint4_linear_10289_24882" x1="58.0067" y1="32.1245" x2="38.7717" y2="31.8553" gradientUnits="userSpaceOnUse">
<stop stop-color="#7973FF"/>
<stop offset="1" stop-color="#B481FF"/>
</linearGradient>
<linearGradient id="paint5_linear_10289_24882" x1="26.4501" y1="56.1636" x2="39.9397" y2="57.6871" gradientUnits="userSpaceOnUse">
<stop offset="0.0985558" stop-color="#D8FF20"/>
<stop offset="1" stop-color="#99F7F4"/>
</linearGradient>
<linearGradient id="paint6_linear_10289_24882" x1="91.7933" y1="52.3479" x2="3.60611" y2="44.0341" gradientUnits="userSpaceOnUse">
<stop stop-color="#7973FF"/>
<stop offset="1" stop-color="#B481FF"/>
</linearGradient>
</defs>
</svg>
