<svg width="123" height="91" viewBox="0 0 123 91" fill="none" xmlns="http://www.w3.org/2000/svg">
<path d="M4.39748 1.39664C4.26076 0.81102 4.93495 0.252969 5.55849 0.435631L31.4405 8.01765C31.8613 8.1409 32.0541 8.56083 31.8731 8.95929L28.8747 15.5571C28.691 15.9613 28.193 16.1895 27.766 16.0653L7.16493 10.0747C6.66611 9.92964 6.30459 9.56514 6.19531 9.09706L4.39748 1.39664Z" fill="#BCC0C7"/>
<path d="M7.4363 14.0304C7.29958 13.4448 7.97377 12.8868 8.5973 13.0694L34.4793 20.6514C34.9001 20.7747 35.093 21.1946 34.9119 21.5931L31.9135 28.1909C31.7299 28.5951 31.2319 28.8233 30.8048 28.6991L10.2038 22.7085C9.70492 22.5634 9.34341 22.1989 9.23412 21.7309L7.4363 14.0304Z" fill="#BCC0C7"/>
<path d="M10.7967 26.6642C10.6599 26.0786 11.3341 25.5205 11.9577 25.7032L37.8397 33.2852C38.2604 33.4085 38.4533 33.8284 38.2722 34.2269L35.2739 40.8247C35.0902 41.2288 34.5922 41.4571 34.1651 41.3329L13.5641 35.3423C13.0653 35.1972 12.7038 34.8327 12.5945 34.3646L10.7967 26.6642Z" fill="#BCC0C7"/>
<path d="M118.603 1.39664C118.739 0.81102 118.065 0.252969 117.442 0.435631L91.5596 8.01765C91.1389 8.1409 90.946 8.56083 91.1271 8.95929L94.1254 15.5571C94.3091 15.9613 94.8071 16.1895 95.2342 16.0653L115.835 10.0747C116.334 9.92964 116.696 9.56514 116.805 9.09706L118.603 1.39664Z" fill="#BCC0C7"/>
<path d="M115.564 14.0304C115.701 13.4448 115.026 12.8868 114.403 13.0694L88.5208 20.6514C88.1001 20.7747 87.9072 21.1946 88.0882 21.5931L91.0866 28.1909C91.2703 28.5951 91.7683 28.8233 92.1953 28.6991L112.796 22.7085C113.295 22.5634 113.657 22.1989 113.766 21.7309L115.564 14.0304Z" fill="#BCC0C7"/>
<path d="M112.203 26.6642C112.34 26.0786 111.666 25.5205 111.042 25.7032L85.1604 33.2852C84.7397 33.4085 84.5468 33.8284 84.7279 34.2269L87.7263 40.8247C87.9099 41.2288 88.4079 41.4571 88.835 41.3329L109.436 35.3423C109.935 35.1972 110.296 34.8327 110.406 34.3646L112.203 26.6642Z" fill="#BCC0C7"/>
<path d="M33.1454 1.99069C28.4771 1.99069 24.6926 5.77516 24.6926 10.4435V61.3943C24.6926 64.1746 26.0599 66.7772 28.3494 68.3548L56.4248 87.6999C59.3126 89.6897 63.1292 89.6897 66.017 87.6999L94.0924 68.3548C96.3819 66.7772 97.7492 64.1746 97.7492 61.3943V10.4435C97.7492 5.77516 93.9648 1.99069 89.2964 1.99069H33.1454Z" fill="#F2F3F4" stroke="#BCC0C7" stroke-width="2.4151"/>
<path d="M29.5 11.6505C29.5 9.20378 31.4834 7.22031 33.9302 7.22031H88.8736C91.3203 7.22031 93.3037 9.20378 93.3037 11.6505V60.64C93.3037 62.1015 92.5829 63.4691 91.377 64.295L63.9053 83.1115C62.3964 84.1451 60.4074 84.1451 58.8984 83.1115L31.4267 64.295C30.2209 63.4691 29.5 62.1015 29.5 60.64V11.6505Z" stroke="#BCC0C7" stroke-width="0.800001"/>
<path fill-rule="evenodd" clip-rule="evenodd" d="M51.6284 30.2542L54.1624 31.678L54.1587 27.7979L57.6115 25.8506L57.6115 21.9668L61.0944 19.9853L61.0625 12.2539L55.6492 15.2925L51.6284 17.5559L51.6284 17.5577L50.7001 18.0795L50.7001 29.7306L51.6284 30.2542ZM61.0663 12.2576L61.0663 16.1376L64.5173 14.1976L61.0663 12.2576ZM67.974 23.9105L64.5192 25.8506L64.5192 29.7398L61.0644 31.6798L61.0644 35.558L70.9627 29.9933L71.425 29.7324L71.425 18.0813L70.9627 18.3422L70.9627 18.344L70.9608 18.3422L67.974 20.0213L67.974 23.9105Z" fill="#BCC0C7"/>
<path fill-rule="evenodd" clip-rule="evenodd" d="M68.004 23.869L64.5492 25.809L61.3795 24.018L57.6416 21.9253L61.0944 19.9853L67.5417 23.61L68.004 23.869ZM71.4588 18.0416L68.004 19.9816L61.0963 16.0979L64.5473 14.1561L71.4588 18.0416ZM54.1887 27.7564L57.6416 25.8164L64.5492 29.7001L61.0945 31.6401L54.1887 27.7564Z" fill="#BCC0C7"/>
<path d="M60.7295 65.1199C60.9465 64.7165 61.5252 64.7165 61.7422 65.1199L63.0258 67.5057C63.106 67.6547 63.2478 67.7608 63.4133 67.7958L66.0166 68.3461C66.4468 68.4371 66.6199 68.9575 66.3299 69.288L64.5038 71.369C64.3973 71.4903 64.3467 71.6509 64.3644 71.8113L64.6712 74.592C64.7207 75.0405 64.2579 75.3686 63.851 75.1735L61.4845 74.0388C61.3273 73.9635 61.1444 73.9635 60.9872 74.0388L58.6207 75.1735C58.2138 75.3686 57.751 75.0405 57.8005 74.592L58.1073 71.8113C58.125 71.6509 58.0744 71.4903 57.9679 71.369L56.1418 69.288C55.8518 68.9575 56.0249 68.4371 56.4551 68.3461L59.0584 67.7958C59.224 67.7608 59.3657 67.6547 59.4459 67.5057L60.7295 65.1199Z" fill="#BCC0C7"/>
<path d="M45.0596 58.3855C45.2695 58.013 45.8059 58.013 46.0159 58.3855L47.3308 60.7183C47.4091 60.8573 47.544 60.9553 47.7004 60.9868L50.3254 61.5165C50.7445 61.6011 50.9103 62.1112 50.6209 62.426L48.8086 64.3974C48.7006 64.5149 48.6491 64.6735 48.6674 64.8319L48.9748 67.4921C49.0239 67.9169 48.5899 68.2322 48.2011 68.0542L45.7662 66.9398C45.6211 66.8734 45.4544 66.8734 45.3093 66.9398L42.8743 68.0542C42.4855 68.2322 42.0516 67.9169 42.1006 67.4921L42.4081 64.8319C42.4264 64.6735 42.3749 64.5149 42.2669 64.3974L40.4546 62.426C40.1652 62.1112 40.3309 61.6011 40.7501 61.5165L43.3751 60.9868C43.5315 60.9553 43.6664 60.8573 43.7447 60.7183L45.0596 58.3855Z" fill="#BCC0C7"/>
<path d="M76.4558 58.3855C76.6658 58.013 77.2022 58.013 77.4121 58.3855L78.727 60.7183C78.8054 60.8573 78.9403 60.9553 79.0966 60.9868L81.7216 61.5165C82.1408 61.6011 82.3065 62.1112 82.0171 62.426L80.2048 64.3974C80.0968 64.5149 80.0453 64.6735 80.0636 64.8319L80.3711 67.4921C80.4202 67.9169 79.9862 68.2322 79.5974 68.0542L77.1624 66.9398C77.0174 66.8734 76.8506 66.8734 76.7055 66.9398L74.2706 68.0542C73.8818 68.2322 73.4478 67.9169 73.4969 67.4921L73.8043 64.8319C73.8226 64.6735 73.7711 64.5149 73.6632 64.3974L71.8508 62.426C71.5614 62.1112 71.7272 61.6011 72.1463 61.5165L74.7713 60.9868C74.9277 60.9553 75.0626 60.8573 75.1409 60.7183L76.4558 58.3855Z" fill="#BCC0C7"/>
<path d="M9.28454 40.4855C8.88166 39.9591 9.25696 39.1992 9.91981 39.1992H113.88C114.543 39.1992 114.918 39.9591 114.516 40.4855L110.055 46.313C109.836 46.6 109.836 46.9985 110.055 47.2855L114.516 53.113C114.918 53.6394 114.543 54.3993 113.88 54.3993H9.91981C9.25696 54.3993 8.88166 53.6394 9.28454 53.113L13.7449 47.2855C13.9646 46.9985 13.9646 46.6 13.7449 46.313L9.28454 40.4855Z" fill="#D0D3D8"/>
<path d="M16.9717 49.0359C16.7224 49.0359 16.5189 48.949 16.3611 48.7752C16.2033 48.6014 16.1346 48.391 16.1552 48.144C16.1781 47.9016 16.2856 47.6946 16.4777 47.5231C16.6698 47.3515 16.8894 47.2658 17.1364 47.2658C17.3719 47.2658 17.5698 47.3515 17.7298 47.5231C17.8922 47.6946 17.962 47.9016 17.9391 48.144C17.9254 48.3087 17.8694 48.4585 17.771 48.5934C17.675 48.7283 17.556 48.8358 17.4142 48.9159C17.2724 48.9959 17.1249 49.0359 16.9717 49.0359ZM20.6115 51.2246L21.7779 44.1989H24.6801C25.2061 44.1989 25.6441 44.3006 25.994 44.5042C26.3439 44.7077 26.5921 44.9925 26.7384 45.3584C26.8848 45.7243 26.918 46.1486 26.8379 46.6311C26.7602 47.1183 26.5852 47.5425 26.3131 47.9039C26.0432 48.2652 25.6956 48.5454 25.2702 48.7443C24.8448 48.9433 24.3611 49.0428 23.8191 49.0428H22.0317L22.2547 47.7049H23.7299C23.9883 47.7049 24.2113 47.6603 24.3988 47.5711C24.5886 47.4819 24.7407 47.3573 24.8551 47.1972C24.9694 47.0371 25.0449 46.8484 25.0815 46.6311C25.1158 46.4139 25.1021 46.2263 25.0403 46.0685C24.9786 45.9084 24.8677 45.7849 24.7076 45.698C24.5498 45.6111 24.3439 45.5677 24.0901 45.5677H23.253L22.3096 51.2246H20.6115ZM26.904 51.2246L28.0703 44.1989H30.9726C31.4986 44.1989 31.9377 44.2938 32.2899 44.4836C32.6421 44.6711 32.8925 44.941 33.0412 45.2932C33.1898 45.6431 33.2242 46.0582 33.1441 46.5385C33.0663 47.0233 32.8925 47.4362 32.6227 47.7769C32.3551 48.1154 32.0097 48.3738 31.5866 48.5522C31.1658 48.7306 30.6878 48.8198 30.1527 48.8198H28.3173L28.5438 47.4819H30.0635C30.3173 47.4819 30.5369 47.4487 30.7221 47.3824C30.9074 47.3138 31.0549 47.2109 31.1647 47.0737C31.2768 46.9342 31.3511 46.7558 31.3877 46.5385C31.422 46.3212 31.406 46.1417 31.3396 45.9999C31.2756 45.8558 31.1624 45.7483 31 45.6774C30.8399 45.6042 30.6341 45.5677 30.3825 45.5677H29.5455L28.6021 51.2246H26.904ZM31.3911 48.0136L32.6089 51.2246H30.7565L29.5763 48.0136H31.3911ZM40.5729 47.8215C40.4449 48.5785 40.1933 49.2177 39.8182 49.7392C39.4454 50.2583 38.9915 50.6517 38.4563 50.9193C37.9234 51.1869 37.3505 51.3207 36.7376 51.3207C36.0904 51.3207 35.53 51.1766 35.0566 50.8884C34.5832 50.6003 34.239 50.1806 34.024 49.6294C33.8113 49.0782 33.7702 48.4093 33.9005 47.6225C34.024 46.8655 34.2722 46.2252 34.645 45.7014C35.02 45.1777 35.4763 44.7809 36.0137 44.511C36.5535 44.2389 37.1321 44.1028 37.7496 44.1028C38.3923 44.1028 38.9491 44.248 39.4203 44.5385C39.8937 44.8289 40.2367 45.2509 40.4494 45.8044C40.6621 46.3578 40.7033 47.0302 40.5729 47.8215ZM38.8748 47.6225C38.9457 47.1812 38.9457 46.8095 38.8748 46.5076C38.8062 46.2057 38.6713 45.9782 38.47 45.8249C38.2688 45.6694 38.0069 45.5917 37.6844 45.5917C37.3276 45.5917 37.0052 45.6797 36.717 45.8558C36.4311 46.0296 36.1921 46.2835 36 46.6174C35.8079 46.949 35.6741 47.3504 35.5987 47.8215C35.5209 48.2675 35.5186 48.6391 35.5918 48.9364C35.6673 49.2338 35.8079 49.4579 36.0137 49.6088C36.2196 49.7575 36.4814 49.8318 36.7993 49.8318C37.1538 49.8318 37.4729 49.746 37.7565 49.5745C38.0401 49.403 38.2768 49.1526 38.4666 48.8232C38.6587 48.4939 38.7948 48.0937 38.8748 47.6225ZM43.3448 44.1989L44.0618 49.3447H44.1201L46.5455 44.1989H48.446L44.9091 51.2246H42.6484L41.4443 44.1989H43.3448ZM50.9006 44.1989L49.7342 51.2246H48.0361L49.2024 44.1989H50.9006ZM53.4349 51.2246H50.8002L51.9666 44.1989H54.5223C55.2359 44.1989 55.8305 44.3441 56.3062 44.6345C56.7842 44.9227 57.1216 45.3367 57.3182 45.8764C57.5172 46.4139 57.5549 47.0542 57.4314 47.7975C57.3125 48.5156 57.0735 49.1308 56.7145 49.6431C56.3577 50.1554 55.9003 50.5477 55.3422 50.8198C54.7842 51.0897 54.1484 51.2246 53.4349 51.2246ZM52.735 49.7769H53.5412C53.9346 49.7769 54.2822 49.706 54.5841 49.5642C54.8883 49.4201 55.1398 49.1903 55.3388 48.8747C55.5378 48.5568 55.6796 48.1394 55.7642 47.6225C55.8465 47.1285 55.8431 46.7386 55.7539 46.4527C55.667 46.1646 55.4978 45.9587 55.2462 45.8352C54.9969 45.7095 54.671 45.6466 54.2685 45.6466H53.4246L52.735 49.7769ZM65.0541 47.8215C64.926 48.5785 64.6744 49.2177 64.2994 49.7392C63.9266 50.2583 63.4726 50.6517 62.9375 50.9193C62.4046 51.1869 61.8317 51.3207 61.2188 51.3207C60.5715 51.3207 60.0112 51.1766 59.5378 50.8884C59.0644 50.6003 58.7202 50.1806 58.5052 49.6294C58.2925 49.0782 58.2513 48.4093 58.3817 47.6225C58.5052 46.8655 58.7533 46.2252 59.1261 45.7014C59.5012 45.1777 59.9575 44.7809 60.4949 44.511C61.0347 44.2389 61.6133 44.1028 62.2308 44.1028C62.8734 44.1028 63.4303 44.248 63.9014 44.5385C64.3748 44.8289 64.7179 45.2509 64.9306 45.8044C65.1433 46.3578 65.1845 47.0302 65.0541 47.8215ZM63.356 47.6225C63.4269 47.1812 63.4269 46.8095 63.356 46.5076C63.2874 46.2057 63.1524 45.9782 62.9512 45.8249C62.7499 45.6694 62.4881 45.5917 62.1656 45.5917C61.8088 45.5917 61.4863 45.6797 61.1982 45.8558C60.9123 46.0296 60.6733 46.2835 60.4812 46.6174C60.2891 46.949 60.1553 47.3504 60.0798 47.8215C60.0021 48.2675 59.9998 48.6391 60.073 48.9364C60.1484 49.2338 60.2891 49.4579 60.4949 49.6088C60.7007 49.7575 60.9626 49.8318 61.2805 49.8318C61.635 49.8318 61.954 49.746 62.2376 49.5745C62.5212 49.403 62.7579 49.1526 62.9477 48.8232C63.1399 48.4939 63.2759 48.0937 63.356 47.6225ZM72.6767 47.8215C72.5487 48.5785 72.2971 49.2177 71.922 49.7392C71.5492 50.2583 71.0953 50.6517 70.5601 50.9193C70.0272 51.1869 69.4543 51.3207 68.8414 51.3207C68.1942 51.3207 67.6339 51.1766 67.1604 50.8884C66.687 50.6003 66.3428 50.1806 66.1279 49.6294C65.9152 49.0782 65.874 48.4093 66.0044 47.6225C66.1279 46.8655 66.376 46.2252 66.7488 45.7014C67.1239 45.1777 67.5801 44.7809 68.1176 44.511C68.6573 44.2389 69.2359 44.1028 69.8534 44.1028C70.4961 44.1028 71.053 44.248 71.5241 44.5385C71.9975 44.8289 72.3406 45.2509 72.5532 45.8044C72.7659 46.3578 72.8071 47.0302 72.6767 47.8215ZM70.9786 47.6225C71.0495 47.1812 71.0495 46.8095 70.9786 46.5076C70.91 46.2057 70.7751 45.9782 70.5738 45.8249C70.3726 45.6694 70.1107 45.5917 69.7882 45.5917C69.4315 45.5917 69.109 45.6797 68.8208 45.8558C68.5349 46.0296 68.296 46.2835 68.1038 46.6174C67.9117 46.949 67.7779 47.3504 67.7025 47.8215C67.6247 48.2675 67.6224 48.6391 67.6956 48.9364C67.7711 49.2338 67.9117 49.4579 68.1176 49.6088C68.3234 49.7575 68.5853 49.8318 68.9032 49.8318C69.2576 49.8318 69.5767 49.746 69.8603 49.5745C70.1439 49.403 70.3806 49.1526 70.5704 48.8232C70.7625 48.4939 70.8986 48.0937 70.9786 47.6225ZM80.2994 47.8215C80.1713 48.5785 79.9198 49.2177 79.5447 49.7392C79.1719 50.2583 78.7179 50.6517 78.1828 50.9193C77.6499 51.1869 77.077 51.3207 76.4641 51.3207C75.8168 51.3207 75.2565 51.1766 74.7831 50.8884C74.3097 50.6003 73.9655 50.1806 73.7505 49.6294C73.5378 49.0782 73.4966 48.4093 73.627 47.6225C73.7505 46.8655 73.9986 46.2252 74.3714 45.7014C74.7465 45.1777 75.2028 44.7809 75.7402 44.511C76.28 44.2389 76.8586 44.1028 77.4761 44.1028C78.1187 44.1028 78.6756 44.248 79.1467 44.5385C79.6202 44.8289 79.9632 45.2509 80.1759 45.8044C80.3886 46.3578 80.4298 47.0302 80.2994 47.8215ZM78.6013 47.6225C78.6722 47.1812 78.6722 46.8095 78.6013 46.5076C78.5327 46.2057 78.3977 45.9782 78.1965 45.8249C77.9952 45.6694 77.7334 45.5917 77.4109 45.5917C77.0541 45.5917 76.7316 45.6797 76.4435 45.8558C76.1576 46.0296 75.9186 46.2835 75.7265 46.6174C75.5344 46.949 75.4006 47.3504 75.3251 47.8215C75.2474 48.2675 75.2451 48.6391 75.3183 48.9364C75.3937 49.2338 75.5344 49.4579 75.7402 49.6088C75.946 49.7575 76.2079 49.8318 76.5258 49.8318C76.8803 49.8318 77.1993 49.746 77.4829 49.5745C77.7665 49.403 78.0032 49.1526 78.1931 48.8232C78.3852 48.4939 78.5212 48.0937 78.6013 47.6225ZM87.9221 47.8215C87.794 48.5785 87.5424 49.2177 87.1673 49.7392C86.7946 50.2583 86.3406 50.6517 85.8054 50.9193C85.2725 51.1869 84.6996 51.3207 84.0867 51.3207C83.4395 51.3207 82.8792 51.1766 82.4058 50.8884C81.9323 50.6003 81.5881 50.1806 81.3732 49.6294C81.1605 49.0782 81.1193 48.4093 81.2497 47.6225C81.3732 46.8655 81.6213 46.2252 81.9941 45.7014C82.3692 45.1777 82.8254 44.7809 83.3629 44.511C83.9026 44.2389 84.4812 44.1028 85.0987 44.1028C85.7414 44.1028 86.2983 44.248 86.7694 44.5385C87.2428 44.8289 87.5859 45.2509 87.7986 45.8044C88.0112 46.3578 88.0524 47.0302 87.9221 47.8215ZM86.2239 47.6225C86.2948 47.1812 86.2948 46.8095 86.2239 46.5076C86.1553 46.2057 86.0204 45.9782 85.8191 45.8249C85.6179 45.6694 85.356 45.5917 85.0335 45.5917C84.6768 45.5917 84.3543 45.6797 84.0661 45.8558C83.7803 46.0296 83.5413 46.2835 83.3491 46.6174C83.157 46.949 83.0232 47.3504 82.9478 47.8215C82.87 48.2675 82.8677 48.6391 82.9409 48.9364C83.0164 49.2338 83.157 49.4579 83.3629 49.6088C83.5687 49.7575 83.8306 49.8318 84.1485 49.8318C84.503 49.8318 84.822 49.746 85.1056 49.5745C85.3892 49.403 85.6259 49.1526 85.8157 48.8232C86.0078 48.4939 86.1439 48.0937 86.2239 47.6225ZM95.5447 47.8215C95.4166 48.5785 95.1651 49.2177 94.79 49.7392C94.4172 50.2583 93.9632 50.6517 93.4281 50.9193C92.8952 51.1869 92.3223 51.3207 91.7094 51.3207C91.0621 51.3207 90.5018 51.1766 90.0284 50.8884C89.555 50.6003 89.2108 50.1806 88.9958 49.6294C88.7831 49.0782 88.742 48.4093 88.8723 47.6225C88.9958 46.8655 89.244 46.2252 89.6167 45.7014C89.9918 45.1777 90.4481 44.7809 90.9855 44.511C91.5253 44.2389 92.1039 44.1028 92.7214 44.1028C93.364 44.1028 93.9209 44.248 94.392 44.5385C94.8655 44.8289 95.2085 45.2509 95.4212 45.8044C95.6339 46.3578 95.6751 47.0302 95.5447 47.8215ZM93.8466 47.6225C93.9175 47.1812 93.9175 46.8095 93.8466 46.5076C93.778 46.2057 93.643 45.9782 93.4418 45.8249C93.2405 45.6694 92.9787 45.5917 92.6562 45.5917C92.2994 45.5917 91.9769 45.6797 91.6888 45.8558C91.4029 46.0296 91.1639 46.2835 90.9718 46.6174C90.7797 46.949 90.6459 47.3504 90.5704 47.8215C90.4927 48.2675 90.4904 48.6391 90.5636 48.9364C90.639 49.2338 90.7797 49.4579 90.9855 49.6088C91.1914 49.7575 91.4532 49.8318 91.7711 49.8318C92.1256 49.8318 92.4446 49.746 92.7282 49.5745C93.0118 49.403 93.2485 49.1526 93.4384 48.8232C93.6305 48.4939 93.7665 48.0937 93.8466 47.6225ZM95.9701 51.2246L97.1365 44.1989H100.039C100.565 44.1989 101.004 44.2938 101.356 44.4836C101.708 44.6711 101.959 44.941 102.107 45.2932C102.256 45.6431 102.29 46.0582 102.21 46.5385C102.132 47.0233 101.959 47.4362 101.689 47.7769C101.421 48.1154 101.076 48.3738 100.653 48.5522C100.232 48.7306 99.754 48.8198 99.2188 48.8198H97.3835L97.6099 47.4819H99.1296C99.3835 47.4819 99.603 47.4487 99.7883 47.3824C99.9735 47.3138 100.121 47.2109 100.231 47.0737C100.343 46.9342 100.417 46.7558 100.454 46.5385C100.488 46.3212 100.472 46.1417 100.406 45.9999C100.342 45.8558 100.229 45.7483 100.066 45.6774C99.9061 45.6042 99.7002 45.5677 99.4487 45.5677H98.6116L97.6682 51.2246H95.9701ZM100.457 48.0136L101.675 51.2246H99.8226L98.6425 48.0136H100.457ZM105.896 49.0359C105.647 49.0359 105.444 48.949 105.286 48.7752C105.128 48.6014 105.059 48.391 105.08 48.144C105.103 47.9016 105.21 47.6946 105.402 47.5231C105.594 47.3515 105.814 47.2658 106.061 47.2658C106.297 47.2658 106.494 47.3515 106.654 47.5231C106.817 47.6946 106.887 47.9016 106.864 48.144C106.85 48.3087 106.794 48.4585 106.696 48.5934C106.6 48.7283 106.481 48.8358 106.339 48.9159C106.197 48.9959 106.05 49.0359 105.896 49.0359Z" fill="#A4A8AF"/>
<path d="M42.8919 22.0536L41.8163 24.3178L43.2863 26.3482L41.0221 25.2727L38.9917 26.7426L40.0672 24.4784L38.5973 22.448L40.8614 23.5235L42.8919 22.0536Z" fill="#BCC0C7"/>
<path d="M79.7222 29.2987L78.6467 31.5629L80.1166 33.5933L77.8524 32.5178L75.822 33.9877L76.8975 31.7236L75.4276 29.6931L77.6918 30.7687L79.7222 29.2987Z" fill="#BCC0C7"/>
<path d="M80.2846 12.4252L79.6321 13.7988L80.5238 15.0305L79.1503 14.378L77.9186 15.2698L78.571 13.8962L77.6793 12.6645L79.0528 13.3169L80.2846 12.4252Z" fill="#BCC0C7"/>
</svg>
