<svg width="108" height="91" viewBox="0 0 108 91" fill="none" xmlns="http://www.w3.org/2000/svg">
<path d="M25.6454 1.79245C20.9771 1.79245 17.1926 5.57692 17.1926 10.2453V61.196C17.1926 63.9764 18.5599 66.579 20.8494 68.1565L48.9248 87.5016C51.8126 89.4914 55.6292 89.4914 58.517 87.5016L86.5924 68.1565C88.8819 66.579 90.2492 63.9764 90.2492 61.196V10.2453C90.2492 5.57692 86.4648 1.79245 81.7964 1.79245H25.6454Z" fill="url(#paint0_linear_10289_24915)" stroke="url(#paint1_linear_10289_24915)" stroke-width="2.4151"/>
<path d="M21.6 11.4532C21.6 8.95233 23.6274 6.92493 26.1283 6.92493H81.0717C83.5726 6.92493 85.6 8.95233 85.6 11.4532V60.4427C85.6 61.9366 84.8631 63.3345 83.6306 64.1787L56.1589 82.9952C54.6165 84.0516 52.5835 84.0516 51.0411 82.9952L23.5694 64.1787C22.3368 63.3345 21.6 61.9366 21.6 60.4427V11.4532Z" stroke="url(#paint2_linear_10289_24915)" stroke-width="0.603774"/>
<path fill-rule="evenodd" clip-rule="evenodd" d="M43.9623 30.0569L46.4963 31.4807L46.4925 27.6007L49.9454 25.6533L49.9454 21.7696L53.4283 19.788L53.3964 12.0566L47.9831 15.0953L43.9623 17.3586L43.9623 17.3605L43.0339 17.8822L43.034 29.5333L43.9623 30.0569ZM53.4002 12.0603L53.4002 15.9403L56.8512 14.0003L53.4002 12.0603ZM60.3079 23.7133L56.8531 25.6533L56.8531 29.5425L53.3983 31.4825L53.3983 35.3607L63.2966 29.796L63.7589 29.5352L63.7588 17.884L63.2966 18.1449L63.2966 18.1467L63.2947 18.1449L60.3078 19.8241L60.3079 23.7133Z" fill="url(#paint3_linear_10289_24915)"/>
<path fill-rule="evenodd" clip-rule="evenodd" d="M60.3379 23.6717L56.8831 25.6118L53.7134 23.8208L49.9754 21.7281L53.4283 19.788L59.8756 23.4127L60.3379 23.6717ZM63.7926 17.8443L60.3379 19.7844L53.4302 15.9007L56.8812 13.9588L63.7926 17.8443ZM46.5225 27.5591L49.9754 25.6191L56.8831 29.5028L53.4283 31.4428L46.5225 27.5591Z" fill="url(#paint4_linear_10289_24915)"/>
<path d="M52.8146 64.8799C53.0218 64.4948 53.5742 64.4948 53.7814 64.8799L55.0937 67.3191C55.1702 67.4614 55.3055 67.5627 55.4636 67.5961L58.1225 68.1581C58.5331 68.2449 58.6983 68.7417 58.4215 69.0572L56.5583 71.1804C56.4567 71.2962 56.4084 71.4494 56.4253 71.6026L56.7385 74.4415C56.7857 74.8696 56.344 75.1828 55.9556 74.9966L53.5353 73.8361C53.3853 73.7642 53.2107 73.7642 53.0607 73.8361L50.6404 74.9966C50.252 75.1828 49.8103 74.8696 49.8575 74.4415L50.1707 71.6026C50.1876 71.4494 50.1393 71.2962 50.0377 71.1804L48.1745 69.0572C47.8976 68.7417 48.0629 68.2449 48.4735 68.1581L51.1324 67.5961C51.2904 67.5627 51.4257 67.4614 51.5023 67.3191L52.8146 64.8799Z" fill="url(#paint5_linear_10289_24915)"/>
<path d="M37.1218 58.1882C37.3318 57.8157 37.8682 57.8157 38.0782 58.1882L39.393 60.521C39.4714 60.66 39.6063 60.758 39.7626 60.7896L42.3876 61.3192C42.8068 61.4038 42.9725 61.914 42.6832 62.2287L40.8708 64.2002C40.7629 64.3176 40.7113 64.4762 40.7296 64.6347L41.0371 67.2949C41.0862 67.7196 40.6522 68.0349 40.2634 67.857L37.8284 66.7425C37.6834 66.6761 37.5166 66.6761 37.3716 66.7425L34.9366 67.857C34.5478 68.0349 34.1138 67.7196 34.1629 67.2949L34.4703 64.6347C34.4887 64.4762 34.4371 64.3176 34.3292 64.2002L32.5168 62.2287C32.2274 61.914 32.3932 61.4038 32.8123 61.3192L35.4373 60.7896C35.5937 60.758 35.7286 60.66 35.8069 60.521L37.1218 58.1882Z" fill="url(#paint6_linear_10289_24915)"/>
<path d="M68.5181 58.1882C68.728 57.8157 69.2644 57.8157 69.4744 58.1882L70.7893 60.521C70.8676 60.66 71.0025 60.758 71.1589 60.7896L73.7839 61.3192C74.203 61.4038 74.3688 61.914 74.0794 62.2287L72.2671 64.2002C72.1591 64.3176 72.1076 64.4762 72.1259 64.6347L72.4333 67.2949C72.4824 67.7196 72.0484 68.0349 71.6596 67.857L69.2247 66.7425C69.0796 66.6761 68.9129 66.6761 68.7678 66.7425L66.3328 67.857C65.944 68.0349 65.5101 67.7196 65.5591 67.2949L65.8666 64.6347C65.8849 64.4762 65.8334 64.3176 65.7254 64.2002L63.9131 62.2287C63.6237 61.914 63.7894 61.4038 64.2086 61.3192L66.8336 60.7896C66.9899 60.758 67.1249 60.66 67.2032 60.521L68.5181 58.1882Z" fill="#515899"/>
<path d="M0.923804 40.2724C0.539309 39.7436 0.917041 39.002 1.57084 39.002H105.629C106.283 39.002 106.661 39.7436 106.276 40.2724L101.725 46.5315C101.521 46.812 101.521 47.192 101.725 47.4725L106.276 53.7315C106.661 54.2603 106.283 55.002 105.629 55.002H1.57084C0.91704 55.002 0.539308 54.2603 0.923803 53.7315L5.47496 47.4725C5.67891 47.192 5.67891 46.812 5.47496 46.5315L0.923804 40.2724Z" fill="url(#paint7_linear_10289_24915)"/>
<path d="M9.22695 47.0516C8.97922 47.0516 8.77695 46.9652 8.62013 46.7925C8.46331 46.6197 8.39513 46.4106 8.41558 46.1652C8.43831 45.9243 8.54513 45.7186 8.73604 45.5481C8.92695 45.3777 9.14513 45.2925 9.39058 45.2925C9.62468 45.2925 9.82127 45.3777 9.98036 45.5481C10.1417 45.7186 10.211 45.9243 10.1883 46.1652C10.1747 46.3288 10.119 46.4777 10.0213 46.6118C9.92581 46.7459 9.80763 46.8527 9.66672 46.9322C9.52581 47.0118 9.37922 47.0516 9.22695 47.0516ZM12.844 49.2266L14.0031 42.2447H16.8872C17.4099 42.2447 17.8451 42.3459 18.1929 42.5481C18.5406 42.7504 18.7872 43.0334 18.9326 43.397C19.0781 43.7606 19.1111 44.1822 19.0315 44.6618C18.9542 45.1459 18.7804 45.5675 18.5099 45.9266C18.2417 46.2856 17.8963 46.5641 17.4735 46.7618C17.0508 46.9595 16.5701 47.0584 16.0315 47.0584H14.2554L14.477 45.7288H15.9429C16.1997 45.7288 16.4213 45.6845 16.6076 45.5959C16.7963 45.5072 16.9474 45.3834 17.061 45.2243C17.1747 45.0652 17.2497 44.8777 17.286 44.6618C17.3201 44.4459 17.3065 44.2595 17.2451 44.1027C17.1838 43.9436 17.0735 43.8209 16.9145 43.7345C16.7576 43.6481 16.5531 43.605 16.3008 43.605H15.469L14.5315 49.2266H12.844ZM19.0971 49.2266L20.2562 42.2447H23.1403C23.663 42.2447 24.0994 42.3391 24.4494 42.5277C24.7994 42.7141 25.0483 42.9822 25.196 43.3322C25.3437 43.68 25.3778 44.0925 25.2983 44.5697C25.221 45.0516 25.0483 45.4618 24.7801 45.8004C24.5142 46.1368 24.171 46.3936 23.7505 46.5709C23.3324 46.7482 22.8574 46.8368 22.3255 46.8368H20.5017L20.7267 45.5072H22.2369C22.4892 45.5072 22.7074 45.4743 22.8915 45.4084C23.0755 45.3402 23.2221 45.2379 23.3312 45.1016C23.4426 44.9629 23.5165 44.7856 23.5528 44.5697C23.5869 44.3538 23.571 44.1754 23.5051 44.0345C23.4415 43.8913 23.329 43.7845 23.1676 43.7141C23.0085 43.6413 22.804 43.605 22.554 43.605H21.7221L20.7846 49.2266H19.0971ZM23.5562 46.0356L24.7665 49.2266H22.9255L21.7528 46.0356H23.5562ZM32.6807 45.8447C32.5534 46.597 32.3034 47.2322 31.9307 47.7504C31.5602 48.2663 31.1091 48.6572 30.5773 48.9232C30.0477 49.1891 29.4784 49.322 28.8693 49.322C28.2261 49.322 27.6693 49.1788 27.1988 48.8925C26.7284 48.6061 26.3863 48.1891 26.1727 47.6413C25.9613 47.0936 25.9204 46.4288 26.05 45.647C26.1727 44.8947 26.4193 44.2584 26.7898 43.7379C27.1625 43.2175 27.6159 42.8231 28.15 42.555C28.6863 42.2845 29.2613 42.1493 29.875 42.1493C30.5136 42.1493 31.067 42.2936 31.5352 42.5822C32.0057 42.8709 32.3466 43.2902 32.5579 43.8402C32.7693 44.3902 32.8102 45.0584 32.6807 45.8447ZM30.9932 45.647C31.0636 45.2084 31.0636 44.8391 30.9932 44.5391C30.925 44.2391 30.7909 44.0129 30.5909 43.8606C30.3909 43.7061 30.1307 43.6288 29.8102 43.6288C29.4557 43.6288 29.1352 43.7163 28.8488 43.8913C28.5648 44.0641 28.3273 44.3163 28.1363 44.6481C27.9454 44.9777 27.8125 45.3766 27.7375 45.8447C27.6602 46.2879 27.6579 46.6572 27.7307 46.9527C27.8057 47.2482 27.9454 47.4709 28.15 47.6209C28.3545 47.7686 28.6148 47.8425 28.9307 47.8425C29.2829 47.8425 29.6 47.7572 29.8818 47.5868C30.1636 47.4163 30.3988 47.1675 30.5875 46.8402C30.7784 46.5129 30.9136 46.1152 30.9932 45.647ZM35.4352 42.2447L36.1477 47.3584H36.2057L38.6159 42.2447H40.5045L36.9898 49.2266H34.7432L33.5466 42.2447H35.4352ZM42.9438 42.2447L41.7847 49.2266H40.0972L41.2562 42.2447H42.9438ZM45.4622 49.2266H42.844L44.0031 42.2447H46.5429C47.252 42.2447 47.8429 42.3891 48.3156 42.6777C48.7906 42.9641 49.1259 43.3754 49.3213 43.9118C49.519 44.4459 49.5565 45.0822 49.4338 45.8209C49.3156 46.5345 49.0781 47.1459 48.7213 47.655C48.3668 48.1641 47.9122 48.5538 47.3577 48.8243C46.8031 49.0925 46.1713 49.2266 45.4622 49.2266ZM44.7668 47.7879H45.5679C45.9588 47.7879 46.3043 47.7175 46.6043 47.5766C46.9065 47.4334 47.1565 47.205 47.3543 46.8913C47.552 46.5754 47.6929 46.1606 47.777 45.647C47.8588 45.1561 47.8554 44.7686 47.7668 44.4845C47.6804 44.1981 47.5122 43.9936 47.2622 43.8709C47.0145 43.7459 46.6906 43.6834 46.2906 43.6834H45.452L44.7668 47.7879ZM57.0088 45.8447C56.8816 46.597 56.6316 47.2322 56.2588 47.7504C55.8884 48.2663 55.4372 48.6572 54.9054 48.9232C54.3759 49.1891 53.8066 49.322 53.1975 49.322C52.5543 49.322 51.9975 49.1788 51.527 48.8925C51.0565 48.6061 50.7145 48.1891 50.5009 47.6413C50.2895 47.0936 50.2486 46.4288 50.3781 45.647C50.5009 44.8947 50.7475 44.2584 51.1179 43.7379C51.4906 43.2175 51.944 42.8231 52.4781 42.555C53.0145 42.2845 53.5895 42.1493 54.2031 42.1493C54.8418 42.1493 55.3952 42.2936 55.8634 42.5822C56.3338 42.8709 56.6747 43.2902 56.8861 43.8402C57.0975 44.3902 57.1384 45.0584 57.0088 45.8447ZM55.3213 45.647C55.3918 45.2084 55.3918 44.8391 55.3213 44.5391C55.2531 44.2391 55.1191 44.0129 54.9191 43.8606C54.7191 43.7061 54.4588 43.6288 54.1384 43.6288C53.7838 43.6288 53.4634 43.7163 53.177 43.8913C52.8929 44.0641 52.6554 44.3163 52.4645 44.6481C52.2736 44.9777 52.1406 45.3766 52.0656 45.8447C51.9884 46.2879 51.9861 46.6572 52.0588 46.9527C52.1338 47.2482 52.2736 47.4709 52.4781 47.6209C52.6827 47.7686 52.9429 47.8425 53.2588 47.8425C53.6111 47.8425 53.9281 47.7572 54.21 47.5868C54.4918 47.4163 54.727 47.1675 54.9156 46.8402C55.1066 46.5129 55.2418 46.1152 55.3213 45.647ZM64.5838 45.8447C64.4566 46.597 64.2066 47.2322 63.8338 47.7504C63.4634 48.2663 63.0122 48.6572 62.4804 48.9232C61.9509 49.1891 61.3816 49.322 60.7725 49.322C60.1293 49.322 59.5725 49.1788 59.102 48.8925C58.6316 48.6061 58.2895 48.1891 58.0759 47.6413C57.8645 47.0936 57.8236 46.4288 57.9531 45.647C58.0759 44.8947 58.3225 44.2584 58.6929 43.7379C59.0656 43.2175 59.5191 42.8231 60.0531 42.555C60.5895 42.2845 61.1645 42.1493 61.7782 42.1493C62.4168 42.1493 62.9702 42.2936 63.4384 42.5822C63.9088 42.8709 64.2497 43.2902 64.4611 43.8402C64.6725 44.3902 64.7134 45.0584 64.5838 45.8447ZM62.8963 45.647C62.9668 45.2084 62.9668 44.8391 62.8963 44.5391C62.8282 44.2391 62.6941 44.0129 62.4941 43.8606C62.2941 43.7061 62.0338 43.6288 61.7134 43.6288C61.3588 43.6288 61.0384 43.7163 60.752 43.8913C60.4679 44.0641 60.2304 44.3163 60.0395 44.6481C59.8486 44.9777 59.7156 45.3766 59.6406 45.8447C59.5634 46.2879 59.5611 46.6572 59.6338 46.9527C59.7088 47.2482 59.8486 47.4709 60.0531 47.6209C60.2577 47.7686 60.5179 47.8425 60.8338 47.8425C61.1861 47.8425 61.5031 47.7572 61.785 47.5868C62.0668 47.4163 62.302 47.1675 62.4907 46.8402C62.6816 46.5129 62.8168 46.1152 62.8963 45.647ZM72.1588 45.8447C72.0316 46.597 71.7816 47.2322 71.4088 47.7504C71.0384 48.2663 70.5873 48.6572 70.0554 48.9232C69.5259 49.1891 68.9566 49.322 68.3475 49.322C67.7043 49.322 67.1475 49.1788 66.677 48.8925C66.2066 48.6061 65.8645 48.1891 65.6509 47.6413C65.4395 47.0936 65.3986 46.4288 65.5282 45.647C65.6509 44.8947 65.8975 44.2584 66.2679 43.7379C66.6407 43.2175 67.0941 42.8231 67.6282 42.555C68.1645 42.2845 68.7395 42.1493 69.3532 42.1493C69.9918 42.1493 70.5452 42.2936 71.0134 42.5822C71.4838 42.8709 71.8248 43.2902 72.0361 43.8402C72.2475 44.3902 72.2884 45.0584 72.1588 45.8447ZM70.4713 45.647C70.5418 45.2084 70.5418 44.8391 70.4713 44.5391C70.4032 44.2391 70.2691 44.0129 70.0691 43.8606C69.8691 43.7061 69.6088 43.6288 69.2884 43.6288C68.9338 43.6288 68.6134 43.7163 68.327 43.8913C68.0429 44.0641 67.8054 44.3163 67.6145 44.6481C67.4236 44.9777 67.2907 45.3766 67.2157 45.8447C67.1384 46.2879 67.1361 46.6572 67.2088 46.9527C67.2838 47.2482 67.4236 47.4709 67.6282 47.6209C67.8327 47.7686 68.0929 47.8425 68.4088 47.8425C68.7611 47.8425 69.0782 47.7572 69.36 47.5868C69.6418 47.4163 69.877 47.1675 70.0657 46.8402C70.2566 46.5129 70.3918 46.1152 70.4713 45.647ZM79.7339 45.8447C79.6066 46.597 79.3566 47.2322 78.9839 47.7504C78.6134 48.2663 78.1623 48.6572 77.6304 48.9232C77.1009 49.1891 76.5316 49.322 75.9225 49.322C75.2793 49.322 74.7225 49.1788 74.252 48.8925C73.7816 48.6061 73.4395 48.1891 73.2259 47.6413C73.0145 47.0936 72.9736 46.4288 73.1032 45.647C73.2259 44.8947 73.4725 44.2584 73.8429 43.7379C74.2157 43.2175 74.6691 42.8231 75.2032 42.555C75.7395 42.2845 76.3145 42.1493 76.9282 42.1493C77.5668 42.1493 78.1202 42.2936 78.5884 42.5822C79.0589 42.8709 79.3998 43.2902 79.6111 43.8402C79.8225 44.3902 79.8634 45.0584 79.7339 45.8447ZM78.0464 45.647C78.1168 45.2084 78.1168 44.8391 78.0464 44.5391C77.9782 44.2391 77.8441 44.0129 77.6441 43.8606C77.4441 43.7061 77.1839 43.6288 76.8634 43.6288C76.5089 43.6288 76.1884 43.7163 75.902 43.8913C75.6179 44.0641 75.3804 44.3163 75.1895 44.6481C74.9986 44.9777 74.8657 45.3766 74.7907 45.8447C74.7134 46.2879 74.7111 46.6572 74.7839 46.9527C74.8589 47.2482 74.9986 47.4709 75.2032 47.6209C75.4077 47.7686 75.6679 47.8425 75.9839 47.8425C76.3361 47.8425 76.6532 47.7572 76.935 47.5868C77.2168 47.4163 77.452 47.1675 77.6407 46.8402C77.8316 46.5129 77.9668 46.1152 78.0464 45.647ZM87.3089 45.8447C87.1816 46.597 86.9316 47.2322 86.5589 47.7504C86.1884 48.2663 85.7373 48.6572 85.2054 48.9232C84.6759 49.1891 84.1066 49.322 83.4975 49.322C82.8543 49.322 82.2975 49.1788 81.827 48.8925C81.3566 48.6061 81.0145 48.1891 80.8009 47.6413C80.5895 47.0936 80.5486 46.4288 80.6782 45.647C80.8009 44.8947 81.0475 44.2584 81.4179 43.7379C81.7907 43.2175 82.2441 42.8231 82.7782 42.555C83.3145 42.2845 83.8895 42.1493 84.5032 42.1493C85.1418 42.1493 85.6952 42.2936 86.1634 42.5822C86.6339 42.8709 86.9748 43.2902 87.1861 43.8402C87.3975 44.3902 87.4384 45.0584 87.3089 45.8447ZM85.6214 45.647C85.6918 45.2084 85.6918 44.8391 85.6214 44.5391C85.5532 44.2391 85.4191 44.0129 85.2191 43.8606C85.0191 43.7061 84.7589 43.6288 84.4384 43.6288C84.0839 43.6288 83.7634 43.7163 83.477 43.8913C83.1929 44.0641 82.9554 44.3163 82.7645 44.6481C82.5736 44.9777 82.4407 45.3766 82.3657 45.8447C82.2884 46.2879 82.2861 46.6572 82.3589 46.9527C82.4339 47.2482 82.5736 47.4709 82.7782 47.6209C82.9827 47.7686 83.2429 47.8425 83.5589 47.8425C83.9111 47.8425 84.2282 47.7572 84.51 47.5868C84.7918 47.4163 85.027 47.1675 85.2157 46.8402C85.4066 46.5129 85.5418 46.1152 85.6214 45.647ZM87.7316 49.2266L88.8907 42.2447H91.7748C92.2975 42.2447 92.7339 42.3391 93.0839 42.5277C93.4339 42.7141 93.6827 42.9822 93.8305 43.3322C93.9782 43.68 94.0123 44.0925 93.9327 44.5697C93.8555 45.0516 93.6827 45.4618 93.4145 45.8004C93.1486 46.1368 92.8055 46.3936 92.385 46.5709C91.9668 46.7482 91.4918 46.8368 90.96 46.8368H89.1361L89.3611 45.5072H90.8714C91.1236 45.5072 91.3418 45.4743 91.5259 45.4084C91.71 45.3402 91.8566 45.2379 91.9657 45.1016C92.077 44.9629 92.1509 44.7856 92.1873 44.5697C92.2214 44.3538 92.2055 44.1754 92.1395 44.0345C92.0759 43.8913 91.9634 43.7845 91.802 43.7141C91.643 43.6413 91.4384 43.605 91.1884 43.605H90.3566L89.4191 49.2266H87.7316ZM92.1907 46.0356L93.4009 49.2266H91.56L90.3873 46.0356H92.1907ZM97.5958 47.0516C97.3481 47.0516 97.1458 46.9652 96.989 46.7925C96.8322 46.6197 96.764 46.4106 96.7844 46.1652C96.8072 45.9243 96.914 45.7186 97.1049 45.5481C97.2958 45.3777 97.514 45.2925 97.7594 45.2925C97.9935 45.2925 98.1901 45.3777 98.3492 45.5481C98.5106 45.7186 98.5799 45.9243 98.5572 46.1652C98.5435 46.3288 98.4878 46.4777 98.3901 46.6118C98.2947 46.7459 98.1765 46.8527 98.0356 46.9322C97.8947 47.0118 97.7481 47.0516 97.5958 47.0516Z" fill="white"/>
<path d="M35.3919 21.8554L34.3163 24.1196L35.7863 26.15L33.5221 25.0745L31.4917 26.5444L32.5672 24.2802L31.0973 22.2498L33.3614 23.3253L35.3919 21.8554Z" fill="white"/>
<path d="M72.2219 29.1015L71.1464 31.3657L72.6163 33.3961L70.3522 32.3206L68.3217 33.7905L69.3973 31.5263L67.9273 29.4959L70.1915 30.5714L72.2219 29.1015Z" fill="white"/>
<path d="M72.7846 12.2279L72.1321 13.6015L73.0238 14.8332L71.6503 14.1808L70.4186 15.0725L71.071 13.6989L70.1793 12.4672L71.5528 13.1197L72.7846 12.2279Z" fill="white"/>
<defs>
<linearGradient id="paint0_linear_10289_24915" x1="53.7209" y1="3" x2="53.7209" y2="89.3398" gradientUnits="userSpaceOnUse">
<stop stop-color="#232859"/>
<stop offset="1" stop-color="#232859"/>
</linearGradient>
<linearGradient id="paint1_linear_10289_24915" x1="53.7209" y1="3" x2="53.7209" y2="89.3398" gradientUnits="userSpaceOnUse">
<stop stop-color="#B381FF"/>
<stop offset="1" stop-color="#7B74FF"/>
</linearGradient>
<linearGradient id="paint2_linear_10289_24915" x1="82.4498" y1="74.7861" x2="22.5862" y2="74.0119" gradientUnits="userSpaceOnUse">
<stop stop-color="#7973FF"/>
<stop offset="1" stop-color="#B481FF"/>
</linearGradient>
<linearGradient id="paint3_linear_10289_24915" x1="62.6834" y1="32.2944" x2="43.4484" y2="32.0252" gradientUnits="userSpaceOnUse">
<stop stop-color="#7973FF"/>
<stop offset="1" stop-color="#B481FF"/>
</linearGradient>
<linearGradient id="paint4_linear_10289_24915" x1="62.6834" y1="32.2944" x2="43.4484" y2="32.0252" gradientUnits="userSpaceOnUse">
<stop stop-color="#7973FF"/>
<stop offset="1" stop-color="#B481FF"/>
</linearGradient>
<linearGradient id="paint5_linear_10289_24915" x1="46.8251" y1="62.9272" x2="60.3298" y2="64.383" gradientUnits="userSpaceOnUse">
<stop offset="0.0985558" stop-color="#D8FF20"/>
<stop offset="1" stop-color="#99F7F4"/>
</linearGradient>
<linearGradient id="paint6_linear_10289_24915" x1="31.1271" y1="56.3336" x2="44.6167" y2="57.857" gradientUnits="userSpaceOnUse">
<stop offset="0.0985558" stop-color="#D8FF20"/>
<stop offset="1" stop-color="#99F7F4"/>
</linearGradient>
<linearGradient id="paint7_linear_10289_24915" x1="101.472" y1="52.8967" x2="3.2098" y2="42.5524" gradientUnits="userSpaceOnUse">
<stop stop-color="#7973FF"/>
<stop offset="1" stop-color="#B481FF"/>
</linearGradient>
</defs>
</svg>
