<svg width="96" height="90" viewBox="0 0 96 90" fill="none" xmlns="http://www.w3.org/2000/svg">
<path d="M19.9245 1.39108C15.2561 1.39108 11.4717 5.17555 11.4717 9.84393V60.7947C11.4717 63.575 12.8389 66.1776 15.1284 67.7551L43.2039 87.1003C46.0917 89.0901 49.9082 89.0901 52.796 87.1003L80.8715 67.7551C83.161 66.1776 84.5283 63.575 84.5283 60.7947V9.84393C84.5283 5.17555 80.7438 1.39108 76.0754 1.39108H19.9245Z" fill="#F2F3F4" stroke="#BCC0C7" stroke-width="2.4151"/>
<path d="M15.9999 11.0519C15.9999 8.55096 18.0273 6.52357 20.5282 6.52357H75.4716C77.9725 6.52357 79.9999 8.55096 79.9999 11.0519V60.0413C79.9999 61.5353 79.263 62.9331 78.0305 63.7773L50.5588 82.5938C49.0164 83.6503 46.9834 83.6503 45.441 82.5938L17.9693 63.7773C16.7367 62.9331 15.9999 61.5353 15.9999 60.0413V11.0519Z" stroke="#C1C5C9" stroke-width="0.603774"/>
<path fill-rule="evenodd" clip-rule="evenodd" d="M38.3624 29.6555L40.8964 31.0793L40.8927 27.1993L44.3455 25.2519L44.3455 21.3682L47.8285 19.3867L47.7965 11.6553L42.3832 14.6939L38.3624 16.9573L38.3624 16.9591L37.4341 17.4808L37.4341 29.132L38.3624 29.6555ZM47.8003 11.6589L47.8003 15.539L51.2513 13.599L47.8003 11.6589ZM54.708 23.3119L51.2532 25.2519L51.2532 29.1411L47.7985 31.0812L47.7985 34.9593L57.6967 29.3947L58.159 29.1338L58.159 17.4827L57.6967 17.7435L57.6967 17.7454L57.6948 17.7435L54.708 19.4227L54.708 23.3119Z" fill="#BCC0C7"/>
<path fill-rule="evenodd" clip-rule="evenodd" d="M54.738 23.2704L51.2832 25.2104L48.1135 23.4194L44.3756 21.3267L47.8285 19.3867L54.2757 23.0113L54.738 23.2704ZM58.1928 17.443L54.738 19.383L47.8303 15.4993L51.2813 13.5574L58.1928 17.443ZM40.9227 27.1578L44.3756 25.2177L51.2832 29.1014L47.8285 31.0415L40.9227 27.1578Z" fill="#BCC0C7"/>
<path d="M47.1915 64.5203C47.4086 64.1169 47.9872 64.1169 48.2043 64.5203L49.4879 66.9061C49.568 67.0551 49.7098 67.1612 49.8753 67.1962L52.4787 67.7465C52.9088 67.8374 53.082 68.3579 52.792 68.6884L50.9658 70.7694C50.8593 70.8907 50.8088 71.0513 50.8265 71.2117L51.1332 73.9924C51.1827 74.4409 50.7199 74.769 50.3131 74.5739L47.9465 73.4392C47.7893 73.3638 47.6065 73.3638 47.4493 73.4392L45.0827 74.5739C44.6758 74.769 44.2131 74.4409 44.2625 73.9924L44.5693 71.2117C44.587 71.0513 44.5364 70.8907 44.43 70.7694L42.6038 68.6884C42.3138 68.3579 42.4869 67.8374 42.9171 67.7465L45.5204 67.1962C45.686 67.1612 45.8277 67.0551 45.9079 66.9061L47.1915 64.5203Z" fill="#BCC0C7"/>
<path d="M31.5217 57.7858C31.7317 57.4133 32.2681 57.4133 32.4781 57.7858L33.7929 60.1187C33.8713 60.2577 34.0062 60.3557 34.1625 60.3872L36.7875 60.9169C37.2067 61.0014 37.3724 61.5116 37.0831 61.8264L35.2707 63.7978C35.1628 63.9153 35.1112 64.0739 35.1295 64.2323L35.437 66.8925C35.4861 67.3173 35.0521 67.6326 34.6633 67.4546L32.2283 66.3402C32.0833 66.2738 31.9165 66.2738 31.7715 66.3402L29.3365 67.4546C28.9477 67.6326 28.5137 67.3173 28.5628 66.8925L28.8702 64.2323C28.8886 64.0739 28.837 63.9153 28.7291 63.7978L26.9167 61.8264C26.6273 61.5116 26.7931 61.0014 27.2122 60.9169L29.8372 60.3872C29.9936 60.3557 30.1285 60.2577 30.2068 60.1187L31.5217 57.7858Z" fill="#BCC0C7"/>
<path d="M62.918 57.7858C63.1279 57.4133 63.6643 57.4133 63.8743 57.7858L65.1892 60.1187C65.2675 60.2577 65.4024 60.3557 65.5588 60.3872L68.1838 60.9169C68.6029 61.0014 68.7687 61.5116 68.4793 61.8264L66.667 63.7978C66.559 63.9153 66.5075 64.0739 66.5258 64.2323L66.8332 66.8925C66.8823 67.3173 66.4483 67.6326 66.0595 67.4546L63.6246 66.3402C63.4795 66.2738 63.3128 66.2738 63.1677 66.3402L60.7327 67.4546C60.3439 67.6326 59.91 67.3173 59.959 66.8925L60.2665 64.2323C60.2848 64.0739 60.2333 63.9153 60.1253 63.7978L58.313 61.8264C58.0236 61.5116 58.1893 61.0014 58.6085 60.9169L61.2335 60.3872C61.3898 60.3557 61.5248 60.2577 61.6031 60.1187L62.918 57.7858Z" fill="#BCC0C7"/>
<rect y="38.2217" width="96" height="15.6982" rx="0.800001" fill="#D0D3D8"/>
<path d="M3.28298 47.6365C3.03369 47.6365 2.83015 47.5496 2.67234 47.3758C2.51454 47.202 2.44593 46.9916 2.46651 46.7446C2.48938 46.5021 2.59687 46.2952 2.78898 46.1236C2.98109 45.9521 3.20065 45.8664 3.44765 45.8664C3.68321 45.8664 3.88104 45.9521 4.04113 46.1236C4.20351 46.2952 4.27326 46.5021 4.25039 46.7446C4.23667 46.9092 4.18064 47.059 4.08229 47.194C3.98624 47.3289 3.86731 47.4364 3.72552 47.5164C3.58372 47.5965 3.43621 47.6365 3.28298 47.6365ZM6.92278 49.8252L8.08916 42.7995H10.9914C11.5174 42.7995 11.9554 42.9012 12.3053 43.1048C12.6552 43.3083 12.9033 43.5931 13.0497 43.959C13.1961 44.3249 13.2292 44.7491 13.1492 45.2317C13.0714 45.7188 12.8965 46.1431 12.6243 46.5044C12.3545 46.8658 12.0068 47.1459 11.5814 47.3449C11.1561 47.5439 10.6724 47.6434 10.1303 47.6434H8.34302L8.56601 46.3055H10.0411C10.2996 46.3055 10.5226 46.2609 10.7101 46.1717C10.8999 46.0825 11.052 45.9578 11.1664 45.7977C11.2807 45.6377 11.3562 45.449 11.3928 45.2317C11.4271 45.0144 11.4134 44.8269 11.3516 44.6691C11.2899 44.509 11.1789 44.3855 11.0188 44.2986C10.861 44.2117 10.6552 44.1682 10.4013 44.1682H9.56429L8.62089 49.8252H6.92278ZM13.2152 49.8252L14.3816 42.7995H17.2839C17.8099 42.7995 18.249 42.8944 18.6012 43.0842C18.9534 43.2717 19.2038 43.5416 19.3525 43.8938C19.5011 44.2437 19.5354 44.6588 19.4554 45.1391C19.3776 45.6239 19.2038 46.0367 18.9339 46.3775C18.6664 46.716 18.321 46.9744 17.8979 47.1528C17.4771 47.3312 16.9991 47.4204 16.464 47.4204H14.6286L14.855 46.0825H16.3748C16.6286 46.0825 16.8482 46.0493 17.0334 45.983C17.2187 45.9144 17.3662 45.8115 17.476 45.6742C17.588 45.5347 17.6624 45.3564 17.699 45.1391C17.7333 44.9218 17.7172 44.7423 17.6509 44.6005C17.5869 44.4564 17.4737 44.3489 17.3113 44.278C17.1512 44.2048 16.9454 44.1682 16.6938 44.1682H15.8568L14.9134 49.8252H13.2152ZM17.7024 46.6142L18.9202 49.8252H17.0677L15.8876 46.6142H17.7024ZM26.8842 46.4221C26.7561 47.1791 26.5046 47.8183 26.1295 48.3398C25.7567 48.8589 25.3027 49.2523 24.7676 49.5199C24.2347 49.7875 23.6618 49.9213 23.0489 49.9213C22.4016 49.9213 21.8413 49.7772 21.3679 49.489C20.8945 49.2008 20.5503 48.7812 20.3353 48.23C20.1226 47.6788 20.0815 47.0099 20.2118 46.2231C20.3353 45.4661 20.5835 44.8258 20.9562 44.302C21.3313 43.7783 21.7876 43.3815 22.325 43.1116C22.8648 42.8395 23.4434 42.7034 24.0609 42.7034C24.7035 42.7034 25.2604 42.8486 25.7316 43.1391C26.205 43.4295 26.548 43.8515 26.7607 44.4049C26.9734 44.9584 27.0146 45.6308 26.8842 46.4221ZM25.1861 46.2231C25.257 45.7817 25.257 45.4101 25.1861 45.1082C25.1175 44.8063 24.9826 44.5788 24.7813 44.4255C24.58 44.27 24.3182 44.1923 23.9957 44.1923C23.6389 44.1923 23.3165 44.2803 23.0283 44.4564C22.7424 44.6302 22.5034 44.8841 22.3113 45.218C22.1192 45.5496 21.9854 45.951 21.9099 46.4221C21.8322 46.8681 21.8299 47.2397 21.9031 47.537C21.9785 47.8343 22.1192 48.0585 22.325 48.2094C22.5309 48.3581 22.7927 48.4324 23.1106 48.4324C23.4651 48.4324 23.7842 48.3466 24.0677 48.1751C24.3513 48.0036 24.588 47.7532 24.7779 47.4238C24.97 47.0945 25.1061 46.6943 25.1861 46.2231ZM29.6561 42.7995L30.3731 47.9453H30.4314L32.8568 42.7995H34.7573L31.2204 49.8252H28.9597L27.7556 42.7995H29.6561ZM37.2118 42.7995L36.0455 49.8252H34.3473L35.5137 42.7995H37.2118ZM39.7461 49.8252H37.1115L38.2779 42.7995H40.8336C41.5472 42.7995 42.1418 42.9447 42.6175 43.2351C43.0955 43.5233 43.4328 43.9373 43.6295 44.477C43.8285 45.0144 43.8662 45.6548 43.7427 46.3981C43.6238 47.1162 43.3848 47.7314 43.0257 48.2437C42.669 48.756 42.2116 49.1482 41.6535 49.4204C41.0955 49.6903 40.4597 49.8252 39.7461 49.8252ZM39.0463 48.3775H39.8525C40.2459 48.3775 40.5935 48.3066 40.8954 48.1648C41.1996 48.0207 41.4511 47.7909 41.6501 47.4753C41.8491 47.1574 41.9909 46.74 42.0755 46.2231C42.1578 45.7291 42.1544 45.3392 42.0652 45.0533C41.9783 44.7652 41.809 44.5593 41.5575 44.4358C41.3082 44.31 40.9823 44.2471 40.5798 44.2471H39.7359L39.0463 48.3775ZM51.3654 46.4221C51.2373 47.1791 50.9857 47.8183 50.6107 48.3398C50.2379 48.8589 49.7839 49.2523 49.2487 49.5199C48.7159 49.7875 48.143 49.9213 47.53 49.9213C46.8828 49.9213 46.3225 49.7772 45.8491 49.489C45.3757 49.2008 45.0315 48.7812 44.8165 48.23C44.6038 47.6788 44.5626 47.0099 44.693 46.2231C44.8165 45.4661 45.0646 44.8258 45.4374 44.302C45.8125 43.7783 46.2687 43.3815 46.8062 43.1116C47.3459 42.8395 47.9245 42.7034 48.542 42.7034C49.1847 42.7034 49.7416 42.8486 50.2127 43.1391C50.6861 43.4295 51.0292 43.8515 51.2419 44.4049C51.4546 44.9584 51.4957 45.6308 51.3654 46.4221ZM49.6673 46.2231C49.7382 45.7817 49.7382 45.4101 49.6673 45.1082C49.5986 44.8063 49.4637 44.5788 49.2625 44.4255C49.0612 44.27 48.7993 44.1923 48.4769 44.1923C48.1201 44.1923 47.7976 44.2803 47.5095 44.4564C47.2236 44.6302 46.9846 44.8841 46.7925 45.218C46.6004 45.5496 46.4666 45.951 46.3911 46.4221C46.3133 46.8681 46.3111 47.2397 46.3842 47.537C46.4597 47.8343 46.6004 48.0585 46.8062 48.2094C47.012 48.3581 47.2739 48.4324 47.5918 48.4324C47.9463 48.4324 48.2653 48.3466 48.5489 48.1751C48.8325 48.0036 49.0692 47.7532 49.259 47.4238C49.4511 47.0945 49.5872 46.6943 49.6673 46.2231ZM58.988 46.4221C58.86 47.1791 58.6084 47.8183 58.2333 48.3398C57.8605 48.8589 57.4065 49.2523 56.8714 49.5199C56.3385 49.7875 55.7656 49.9213 55.1527 49.9213C54.5055 49.9213 53.9451 49.7772 53.4717 49.489C52.9983 49.2008 52.6541 48.7812 52.4391 48.23C52.2264 47.6788 52.1853 47.0099 52.3156 46.2231C52.4391 45.4661 52.6873 44.8258 53.0601 44.302C53.4351 43.7783 53.8914 43.3815 54.4288 43.1116C54.9686 42.8395 55.5472 42.7034 56.1647 42.7034C56.8073 42.7034 57.3642 42.8486 57.8354 43.1391C58.3088 43.4295 58.6518 43.8515 58.8645 44.4049C59.0772 44.9584 59.1184 45.6308 58.988 46.4221ZM57.2899 46.2231C57.3608 45.7817 57.3608 45.4101 57.2899 45.1082C57.2213 44.8063 57.0864 44.5788 56.8851 44.4255C56.6838 44.27 56.422 44.1923 56.0995 44.1923C55.7427 44.1923 55.4203 44.2803 55.1321 44.4564C54.8462 44.6302 54.6072 44.8841 54.4151 45.218C54.223 45.5496 54.0892 45.951 54.0137 46.4221C53.936 46.8681 53.9337 47.2397 54.0069 47.537C54.0824 47.8343 54.223 48.0585 54.4288 48.2094C54.6347 48.3581 54.8965 48.4324 55.2144 48.4324C55.5689 48.4324 55.888 48.3466 56.1716 48.1751C56.4551 48.0036 56.6919 47.7532 56.8817 47.4238C57.0738 47.0945 57.2099 46.6943 57.2899 46.2231ZM66.6107 46.4221C66.4826 47.1791 66.231 47.8183 65.856 48.3398C65.4832 48.8589 65.0292 49.2523 64.494 49.5199C63.9612 49.7875 63.3883 49.9213 62.7753 49.9213C62.1281 49.9213 61.5678 49.7772 61.0944 49.489C60.621 49.2008 60.2768 48.7812 60.0618 48.23C59.8491 47.6788 59.8079 47.0099 59.9383 46.2231C60.0618 45.4661 60.3099 44.8258 60.6827 44.302C61.0578 43.7783 61.514 43.3815 62.0515 43.1116C62.5912 42.8395 63.1699 42.7034 63.7873 42.7034C64.43 42.7034 64.9869 42.8486 65.458 43.1391C65.9314 43.4295 66.2745 43.8515 66.4872 44.4049C66.6999 44.9584 66.741 45.6308 66.6107 46.4221ZM64.9126 46.2231C64.9835 45.7817 64.9835 45.4101 64.9126 45.1082C64.844 44.8063 64.709 44.5788 64.5078 44.4255C64.3065 44.27 64.0446 44.1923 63.7222 44.1923C63.3654 44.1923 63.0429 44.2803 62.7548 44.4564C62.4689 44.6302 62.2299 44.8841 62.0378 45.218C61.8457 45.5496 61.7119 45.951 61.6364 46.4221C61.5586 46.8681 61.5564 47.2397 61.6295 47.537C61.705 47.8343 61.8457 48.0585 62.0515 48.2094C62.2573 48.3581 62.5192 48.4324 62.8371 48.4324C63.1916 48.4324 63.5106 48.3466 63.7942 48.1751C64.0778 48.0036 64.3145 47.7532 64.5043 47.4238C64.6964 47.0945 64.8325 46.6943 64.9126 46.2231ZM74.2333 46.4221C74.1053 47.1791 73.8537 47.8183 73.4786 48.3398C73.1058 48.8589 72.6519 49.2523 72.1167 49.5199C71.5838 49.7875 71.0109 49.9213 70.398 49.9213C69.7508 49.9213 69.1904 49.7772 68.717 49.489C68.2436 49.2008 67.8994 48.7812 67.6844 48.23C67.4717 47.6788 67.4306 47.0099 67.5609 46.2231C67.6844 45.4661 67.9326 44.8258 68.3054 44.302C68.6804 43.7783 69.1367 43.3815 69.6742 43.1116C70.2139 42.8395 70.7925 42.7034 71.41 42.7034C72.0527 42.7034 72.6095 42.8486 73.0807 43.1391C73.5541 43.4295 73.8971 43.8515 74.1098 44.4049C74.3225 44.9584 74.3637 45.6308 74.2333 46.4221ZM72.5352 46.2231C72.6061 45.7817 72.6061 45.4101 72.5352 45.1082C72.4666 44.8063 72.3317 44.5788 72.1304 44.4255C71.9292 44.27 71.6673 44.1923 71.3448 44.1923C70.988 44.1923 70.6656 44.2803 70.3774 44.4564C70.0915 44.6302 69.8525 44.8841 69.6604 45.218C69.4683 45.5496 69.3345 45.951 69.2591 46.4221C69.1813 46.8681 69.179 47.2397 69.2522 47.537C69.3277 47.8343 69.4683 48.0585 69.6742 48.2094C69.88 48.3581 70.1418 48.4324 70.4597 48.4324C70.8142 48.4324 71.1333 48.3466 71.4169 48.1751C71.7005 48.0036 71.9372 47.7532 72.127 47.4238C72.3191 47.0945 72.4552 46.6943 72.5352 46.2231ZM81.856 46.4221C81.7279 47.1791 81.4763 47.8183 81.1013 48.3398C80.7285 48.8589 80.2745 49.2523 79.7393 49.5199C79.2065 49.7875 78.6336 49.9213 78.0206 49.9213C77.3734 49.9213 76.8131 49.7772 76.3397 49.489C75.8663 49.2008 75.5221 48.7812 75.3071 48.23C75.0944 47.6788 75.0532 47.0099 75.1836 46.2231C75.3071 45.4661 75.5552 44.8258 75.928 44.302C76.3031 43.7783 76.7593 43.3815 77.2968 43.1116C77.8365 42.8395 78.4152 42.7034 79.0327 42.7034C79.6753 42.7034 80.2322 42.8486 80.7033 43.1391C81.1767 43.4295 81.5198 43.8515 81.7325 44.4049C81.9452 44.9584 81.9863 45.6308 81.856 46.4221ZM80.1579 46.2231C80.2288 45.7817 80.2288 45.4101 80.1579 45.1082C80.0893 44.8063 79.9543 44.5788 79.7531 44.4255C79.5518 44.27 79.2899 44.1923 78.9675 44.1923C78.6107 44.1923 78.2882 44.2803 78.0001 44.4564C77.7142 44.6302 77.4752 44.8841 77.2831 45.218C77.091 45.5496 76.9572 45.951 76.8817 46.4221C76.8039 46.8681 76.8017 47.2397 76.8748 47.537C76.9503 47.8343 77.091 48.0585 77.2968 48.2094C77.5026 48.3581 77.7645 48.4324 78.0824 48.4324C78.4369 48.4324 78.7559 48.3466 79.0395 48.1751C79.3231 48.0036 79.5598 47.7532 79.7496 47.4238C79.9417 47.0945 80.0778 46.6943 80.1579 46.2231ZM82.2814 49.8252L83.4478 42.7995H86.35C86.876 42.7995 87.3151 42.8944 87.6673 43.0842C88.0195 43.2717 88.2699 43.5416 88.4186 43.8938C88.5673 44.2437 88.6016 44.6588 88.5215 45.1391C88.4438 45.6239 88.2699 46.0367 88.0001 46.3775C87.7325 46.716 87.3871 46.9744 86.9641 47.1528C86.5432 47.3312 86.0652 47.4204 85.5301 47.4204H83.6947L83.9212 46.0825H85.4409C85.6948 46.0825 85.9143 46.0493 86.0996 45.983C86.2848 45.9144 86.4323 45.8115 86.5421 45.6742C86.6542 45.5347 86.7285 45.3564 86.7651 45.1391C86.7994 44.9218 86.7834 44.7423 86.7171 44.6005C86.653 44.4564 86.5398 44.3489 86.3774 44.278C86.2173 44.2048 86.0115 44.1682 85.7599 44.1682H84.9229L83.9795 49.8252H82.2814ZM86.7685 46.6142L87.9863 49.8252H86.1339L84.9538 46.6142H86.7685ZM92.2076 47.6365C91.9583 47.6365 91.7548 47.5496 91.597 47.3758C91.4392 47.202 91.3706 46.9916 91.3912 46.7446C91.414 46.5021 91.5215 46.2952 91.7136 46.1236C91.9057 45.9521 92.1253 45.8664 92.3723 45.8664C92.6079 45.8664 92.8057 45.9521 92.9658 46.1236C93.1282 46.2952 93.1979 46.5021 93.175 46.7446C93.1613 46.9092 93.1053 47.059 93.0069 47.194C92.9109 47.3289 92.792 47.4364 92.6502 47.5164C92.5084 47.5965 92.3609 47.6365 92.2076 47.6365Z" fill="#A4A8AF"/>
</svg>
