<svg width="108" height="90" viewBox="0 0 108 90" fill="none" xmlns="http://www.w3.org/2000/svg">
<path d="M26.0456 1.39206C21.3772 1.39206 17.5927 5.17653 17.5927 9.8449V60.7956C17.5927 63.576 18.96 66.1786 21.2495 67.7561L49.325 87.1012C52.2128 89.091 56.0293 89.091 58.9171 87.1012L86.9926 67.7561C89.2821 66.1786 90.6494 63.576 90.6494 60.7956V9.8449C90.6494 5.17653 86.8649 1.39206 82.1965 1.39206H26.0456Z" fill="url(#paint0_linear_10289_25350)" stroke="url(#paint1_linear_10289_25350)" stroke-width="2.4151"/>
<path d="M22.0001 11.0529C22.0001 8.55194 24.0275 6.52454 26.5284 6.52454H81.4718C83.9727 6.52454 86.0001 8.55194 86.0001 11.0529V60.0423C86.0001 61.5363 85.2633 62.9341 84.0307 63.7783L56.5591 82.5948C55.0167 83.6512 52.9836 83.6512 51.4412 82.5948L23.9695 63.7783C22.737 62.9341 22.0001 61.5363 22.0001 60.0423V11.0529Z" stroke="url(#paint2_linear_10289_25350)" stroke-width="0.603774"/>
<path fill-rule="evenodd" clip-rule="evenodd" d="M44.3624 29.6565L46.8964 31.0803L46.8927 27.2003L50.3455 25.2529L50.3455 21.3692L53.8285 19.3876L53.7965 11.6562L48.3832 14.6949L44.3624 16.9582L44.3624 16.9601L43.4341 17.4818L43.4341 29.1329L44.3624 29.6565ZM53.8003 11.6599L53.8003 15.54L57.2513 13.5999L53.8003 11.6599ZM60.708 23.3129L57.2532 25.2529L57.2532 29.1421L53.7985 31.0821L53.7985 34.9603L63.6967 29.3956L64.159 29.1348L64.159 17.4836L63.6967 17.7445L63.6967 17.7464L63.6948 17.7445L60.708 19.4237L60.708 23.3129Z" fill="url(#paint3_linear_10289_25350)"/>
<path fill-rule="evenodd" clip-rule="evenodd" d="M60.738 23.2714L57.2832 25.2114L54.1135 23.4204L50.3756 21.3277L53.8285 19.3876L60.2757 23.0123L60.738 23.2714ZM64.1928 17.444L60.738 19.384L53.8303 15.5003L57.2813 13.5584L64.1928 17.444ZM46.9227 27.1587L50.3756 25.2187L57.2832 29.1024L53.8285 31.0424L46.9227 27.1587Z" fill="url(#paint4_linear_10289_25350)"/>
<path d="M53.215 64.4795C53.4222 64.0944 53.9746 64.0944 54.1817 64.4795L55.4941 66.9187C55.5706 67.061 55.7059 67.1623 55.864 67.1957L58.5229 67.7577C58.9335 67.8445 59.0987 68.3413 58.8219 68.6568L56.9587 70.78C56.8571 70.8958 56.8088 71.0491 56.8257 71.2022L57.1389 74.0411C57.1861 74.4692 56.7444 74.7824 56.356 74.5962L53.9357 73.4357C53.7857 73.3638 53.6111 73.3638 53.4611 73.4357L51.0408 74.5962C50.6524 74.7824 50.2106 74.4692 50.2579 74.0411L50.5711 71.2022C50.588 71.0491 50.5397 70.8958 50.438 70.78L48.5749 68.6568C48.298 68.3413 48.4633 67.8445 48.8739 67.7577L51.5328 67.1957C51.6908 67.1623 51.8261 67.061 51.9026 66.9187L53.215 64.4795Z" fill="url(#paint5_linear_10289_25350)"/>
<path d="M37.522 57.7878C37.7319 57.4153 38.2683 57.4153 38.4783 57.7878L39.7932 60.1207C39.8715 60.2596 40.0064 60.3576 40.1628 60.3892L42.7878 60.9188C43.2069 61.0034 43.3727 61.5136 43.0833 61.8283L41.271 63.7998C41.163 63.9172 41.1115 64.0758 41.1298 64.2343L41.4372 66.8945C41.4863 67.3192 41.0524 67.6345 40.6635 67.4566L38.2286 66.3421C38.0835 66.2758 37.9168 66.2758 37.7717 66.3421L35.3367 67.4566C34.9479 67.6345 34.514 67.3192 34.563 66.8945L34.8705 64.2343C34.8888 64.0758 34.8373 63.9172 34.7293 63.7998L32.917 61.8283C32.6276 61.5136 32.7933 61.0034 33.2125 60.9188L35.8375 60.3892C35.9939 60.3576 36.1288 60.2596 36.2071 60.1207L37.522 57.7878Z" fill="url(#paint6_linear_10289_25350)"/>
<path d="M68.9182 57.7878C69.1282 57.4153 69.6646 57.4153 69.8745 57.7878L71.1894 60.1207C71.2678 60.2596 71.4027 60.3576 71.559 60.3892L74.184 60.9188C74.6032 61.0034 74.7689 61.5136 74.4795 61.8283L72.6672 63.7998C72.5592 63.9172 72.5077 64.0758 72.526 64.2343L72.8335 66.8945C72.8826 67.3192 72.4486 67.6345 72.0598 67.4566L69.6248 66.3421C69.4798 66.2758 69.313 66.2758 69.168 66.3421L66.733 67.4566C66.3442 67.6345 65.9102 67.3192 65.9593 66.8945L66.2667 64.2343C66.285 64.0758 66.2335 63.9172 66.1256 63.7998L64.3132 61.8283C64.0238 61.5136 64.1896 61.0034 64.6087 60.9188L67.2337 60.3892C67.3901 60.3576 67.525 60.2596 67.6033 60.1207L68.9182 57.7878Z" fill="#515899"/>
<path d="M1.32395 39.0713C0.939455 38.5425 1.31719 37.8008 1.97098 37.8008H106.029C106.683 37.8008 107.061 38.5425 106.676 39.0713L102.125 45.3303C101.921 45.6108 101.921 45.9908 102.125 46.2713L106.676 52.5303C107.061 53.0591 106.683 53.8008 106.029 53.8008H1.97098C1.31719 53.8008 0.939455 53.0591 1.32395 52.5303L5.8751 46.2713C6.07906 45.9908 6.07906 45.6108 5.8751 45.3303L1.32395 39.0713Z" fill="url(#paint7_linear_10289_25350)"/>
<path d="M19.0673 46.6502C18.8196 46.6502 18.6173 46.5638 18.4605 46.3911C18.3037 46.2184 18.2355 46.0093 18.256 45.7638C18.2787 45.5229 18.3855 45.3172 18.5764 45.1468C18.7673 44.9763 18.9855 44.8911 19.231 44.8911C19.4651 44.8911 19.6617 44.9763 19.8208 45.1468C19.9821 45.3172 20.0514 45.5229 20.0287 45.7638C20.0151 45.9275 19.9594 46.0763 19.8617 46.2104C19.7662 46.3445 19.648 46.4513 19.5071 46.5309C19.3662 46.6104 19.2196 46.6502 19.0673 46.6502ZM22.9333 43.0604V41.8434H28.6674V43.0604H26.5299V48.8252H25.0708V43.0604H22.9333ZM29.6117 48.8252V41.8434H32.3662C32.8935 41.8434 33.3435 41.9377 33.7162 42.1263C34.0912 42.3127 34.3765 42.5775 34.5719 42.9206C34.7696 43.2616 34.8685 43.6627 34.8685 44.1241C34.8685 44.5877 34.7685 44.9866 34.5685 45.3206C34.3685 45.6525 34.0787 45.907 33.6992 46.0843C33.3219 46.2616 32.8651 46.3502 32.3287 46.3502H30.4844V45.1638H32.0901C32.3719 45.1638 32.606 45.1252 32.7924 45.0479C32.9787 44.9706 33.1174 44.8547 33.2083 44.7002C33.3014 44.5456 33.348 44.3536 33.348 44.1241C33.348 43.8922 33.3014 43.6968 33.2083 43.5377C33.1174 43.3786 32.9776 43.2581 32.7889 43.1763C32.6026 43.0922 32.3674 43.0502 32.0833 43.0502H31.0878V48.8252H29.6117ZM33.3821 45.6479L35.1174 48.8252H33.4878L31.7901 45.6479H33.3821ZM37.1151 48.8252H35.5333L37.9435 41.8434H39.8458L42.2526 48.8252H40.6708L38.9219 43.4388H38.8674L37.1151 48.8252ZM37.0162 46.0809H40.7526V47.2331H37.0162V46.0809ZM45.5679 48.8252H43.0929V41.8434H45.5884C46.2907 41.8434 46.8952 41.9831 47.402 42.2627C47.9089 42.54 48.2986 42.9388 48.5714 43.4593C48.8464 43.9797 48.9839 44.6025 48.9839 45.3275C48.9839 46.0547 48.8464 46.6797 48.5714 47.2025C48.2986 47.7252 47.9066 48.1263 47.3952 48.4059C46.8861 48.6854 46.277 48.8252 45.5679 48.8252ZM44.5691 47.5604H45.5066C45.9429 47.5604 46.31 47.4831 46.6077 47.3286C46.9077 47.1718 47.1327 46.9297 47.2827 46.6025C47.435 46.2729 47.5111 45.8479 47.5111 45.3275C47.5111 44.8116 47.435 44.39 47.2827 44.0627C47.1327 43.7354 46.9089 43.4945 46.6111 43.34C46.3134 43.1854 45.9464 43.1081 45.51 43.1081H44.5691V47.5604ZM56.4932 45.3343C56.4932 46.0956 56.3489 46.7434 56.0603 47.2775C55.7739 47.8116 55.383 48.2195 54.8876 48.5013C54.3944 48.7809 53.8398 48.9206 53.2239 48.9206C52.6035 48.9206 52.0466 48.7797 51.5535 48.4979C51.0603 48.2161 50.6705 47.8081 50.3841 47.2741C50.0978 46.74 49.9546 46.0934 49.9546 45.3343C49.9546 44.5729 50.0978 43.9252 50.3841 43.3911C50.6705 42.857 51.0603 42.4502 51.5535 42.1706C52.0466 41.8888 52.6035 41.7479 53.2239 41.7479C53.8398 41.7479 54.3944 41.8888 54.8876 42.1706C55.383 42.4502 55.7739 42.857 56.0603 43.3911C56.3489 43.9252 56.4932 44.5729 56.4932 45.3343ZM54.9966 45.3343C54.9966 44.8411 54.9228 44.4252 54.7751 44.0866C54.6296 43.7479 54.4239 43.4911 54.158 43.3161C53.8921 43.1411 53.5807 43.0536 53.2239 43.0536C52.8671 43.0536 52.5557 43.1411 52.2898 43.3161C52.0239 43.4911 51.8171 43.7479 51.6694 44.0866C51.5239 44.4252 51.4512 44.8411 51.4512 45.3343C51.4512 45.8275 51.5239 46.2434 51.6694 46.582C51.8171 46.9206 52.0239 47.1775 52.2898 47.3525C52.5557 47.5275 52.8671 47.615 53.2239 47.615C53.5807 47.615 53.8921 47.5275 54.158 47.3525C54.4239 47.1775 54.6296 46.9206 54.7751 46.582C54.9228 46.2434 54.9966 45.8275 54.9966 45.3343ZM64.0026 45.3343C64.0026 46.0956 63.8583 46.7434 63.5697 47.2775C63.2833 47.8116 62.8924 48.2195 62.3969 48.5013C61.9038 48.7809 61.3492 48.9206 60.7333 48.9206C60.1128 48.9206 59.556 48.7797 59.0628 48.4979C58.5697 48.2161 58.1799 47.8081 57.8935 47.2741C57.6072 46.74 57.464 46.0934 57.464 45.3343C57.464 44.5729 57.6072 43.9252 57.8935 43.3911C58.1799 42.857 58.5697 42.4502 59.0628 42.1706C59.556 41.8888 60.1128 41.7479 60.7333 41.7479C61.3492 41.7479 61.9038 41.8888 62.3969 42.1706C62.8924 42.4502 63.2833 42.857 63.5697 43.3911C63.8583 43.9252 64.0026 44.5729 64.0026 45.3343ZM62.506 45.3343C62.506 44.8411 62.4322 44.4252 62.2844 44.0866C62.139 43.7479 61.9333 43.4911 61.6674 43.3161C61.4015 43.1411 61.0901 43.0536 60.7333 43.0536C60.3765 43.0536 60.0651 43.1411 59.7992 43.3161C59.5333 43.4911 59.3265 43.7479 59.1788 44.0866C59.0333 44.4252 58.9606 44.8411 58.9606 45.3343C58.9606 45.8275 59.0333 46.2434 59.1788 46.582C59.3265 46.9206 59.5333 47.1775 59.7992 47.3525C60.0651 47.5275 60.3765 47.615 60.7333 47.615C61.0901 47.615 61.4015 47.5275 61.6674 47.3525C61.9333 47.1775 62.139 46.9206 62.2844 46.582C62.4322 46.2434 62.506 45.8275 62.506 45.3343ZM71.512 45.3343C71.512 46.0956 71.3677 46.7434 71.0791 47.2775C70.7927 47.8116 70.4018 48.2195 69.9063 48.5013C69.4131 48.7809 68.8586 48.9206 68.2427 48.9206C67.6222 48.9206 67.0654 48.7797 66.5722 48.4979C66.079 48.2161 65.6893 47.8081 65.4029 47.2741C65.1165 46.74 64.9734 46.0934 64.9734 45.3343C64.9734 44.5729 65.1165 43.9252 65.4029 43.3911C65.6893 42.857 66.079 42.4502 66.5722 42.1706C67.0654 41.8888 67.6222 41.7479 68.2427 41.7479C68.8586 41.7479 69.4131 41.8888 69.9063 42.1706C70.4018 42.4502 70.7927 42.857 71.0791 43.3911C71.3677 43.9252 71.512 44.5729 71.512 45.3343ZM70.0154 45.3343C70.0154 44.8411 69.9416 44.4252 69.7938 44.0866C69.6484 43.7479 69.4427 43.4911 69.1768 43.3161C68.9109 43.1411 68.5995 43.0536 68.2427 43.0536C67.8859 43.0536 67.5745 43.1411 67.3086 43.3161C67.0427 43.4911 66.8359 43.7479 66.6881 44.0866C66.5427 44.4252 66.47 44.8411 66.47 45.3343C66.47 45.8275 66.5427 46.2434 66.6881 46.582C66.8359 46.9206 67.0427 47.1775 67.3086 47.3525C67.5745 47.5275 67.8859 47.615 68.2427 47.615C68.5995 47.615 68.9109 47.5275 69.1768 47.3525C69.4427 47.1775 69.6484 46.9206 69.7938 46.582C69.9416 46.2434 70.0154 45.8275 70.0154 45.3343ZM79.0214 45.3343C79.0214 46.0956 78.8771 46.7434 78.5884 47.2775C78.3021 47.8116 77.9112 48.2195 77.4157 48.5013C76.9225 48.7809 76.368 48.9206 75.7521 48.9206C75.1316 48.9206 74.5748 48.7797 74.0816 48.4979C73.5884 48.2161 73.1987 47.8081 72.9123 47.2741C72.6259 46.74 72.4827 46.0934 72.4827 45.3343C72.4827 44.5729 72.6259 43.9252 72.9123 43.3911C73.1987 42.857 73.5884 42.4502 74.0816 42.1706C74.5748 41.8888 75.1316 41.7479 75.7521 41.7479C76.368 41.7479 76.9225 41.8888 77.4157 42.1706C77.9112 42.4502 78.3021 42.857 78.5884 43.3911C78.8771 43.9252 79.0214 44.5729 79.0214 45.3343ZM77.5248 45.3343C77.5248 44.8411 77.4509 44.4252 77.3032 44.0866C77.1578 43.7479 76.9521 43.4911 76.6862 43.3161C76.4203 43.1411 76.1089 43.0536 75.7521 43.0536C75.3953 43.0536 75.0839 43.1411 74.818 43.3161C74.5521 43.4911 74.3453 43.7479 74.1975 44.0866C74.0521 44.4252 73.9793 44.8411 73.9793 45.3343C73.9793 45.8275 74.0521 46.2434 74.1975 46.582C74.3453 46.9206 74.5521 47.1775 74.818 47.3525C75.0839 47.5275 75.3953 47.615 75.7521 47.615C76.1089 47.615 76.4203 47.5275 76.6862 47.3525C76.9521 47.1775 77.1578 46.9206 77.3032 46.582C77.4509 46.2434 77.5248 45.8275 77.5248 45.3343ZM80.1149 48.8252V41.8434H82.8694C83.3967 41.8434 83.8467 41.9377 84.2194 42.1263C84.5944 42.3127 84.8796 42.5775 85.0751 42.9206C85.2728 43.2616 85.3717 43.6627 85.3717 44.1241C85.3717 44.5877 85.2717 44.9866 85.0717 45.3206C84.8717 45.6525 84.5819 45.907 84.2024 46.0843C83.8251 46.2616 83.3683 46.3502 82.8319 46.3502H80.9876V45.1638H82.5933C82.8751 45.1638 83.1092 45.1252 83.2955 45.0479C83.4819 44.9706 83.6205 44.8547 83.7115 44.7002C83.8046 44.5456 83.8512 44.3536 83.8512 44.1241C83.8512 43.8922 83.8046 43.6968 83.7115 43.5377C83.6205 43.3786 83.4808 43.2581 83.2921 43.1763C83.1058 43.0922 82.8705 43.0502 82.5865 43.0502H81.591V48.8252H80.1149ZM83.8853 45.6479L85.6205 48.8252H83.991L82.2933 45.6479H83.8853ZM89.333 46.6502C89.0853 46.6502 88.883 46.5638 88.7262 46.3911C88.5694 46.2184 88.5012 46.0093 88.5217 45.7638C88.5444 45.5229 88.6512 45.3172 88.8421 45.1468C89.033 44.9763 89.2512 44.8911 89.4967 44.8911C89.7308 44.8911 89.9274 44.9763 90.0865 45.1468C90.2478 45.3172 90.3171 45.5229 90.2944 45.7638C90.2808 45.9275 90.2251 46.0763 90.1274 46.2104C90.0319 46.3445 89.9137 46.4513 89.7728 46.5309C89.6319 46.6104 89.4853 46.6502 89.333 46.6502Z" fill="white"/>
<path d="M35.792 21.455L34.7165 23.7192L36.1864 25.7496L33.9222 24.6741L31.8918 26.144L32.9673 23.8798L31.4974 21.8494L33.7616 22.9249L35.792 21.455Z" fill="white"/>
<path d="M72.6223 28.7011L71.5468 30.9653L73.0167 32.9957L70.7526 31.9202L68.7221 33.3901L69.7977 31.1259L68.3277 29.0955L70.5919 30.171L72.6223 28.7011Z" fill="white"/>
<path d="M73.1845 11.8275L72.532 13.2011L73.4237 14.4328L72.0502 13.7804L70.8185 14.6721L71.4709 13.2985L70.5792 12.0668L71.9527 12.7193L73.1845 11.8275Z" fill="white"/>
<defs>
<linearGradient id="paint0_linear_10289_25350" x1="54.121" y1="2.59961" x2="54.121" y2="88.9395" gradientUnits="userSpaceOnUse">
<stop stop-color="#232859"/>
<stop offset="1" stop-color="#232859"/>
</linearGradient>
<linearGradient id="paint1_linear_10289_25350" x1="16.2547" y1="-4.59539" x2="95.4987" y2="2.7268" gradientUnits="userSpaceOnUse">
<stop offset="0.0985558" stop-color="#FBD489"/>
<stop offset="1" stop-color="#F887DF"/>
</linearGradient>
<linearGradient id="paint2_linear_10289_25350" x1="19.3702" y1="-0.318253" x2="91.8338" y2="6.41749" gradientUnits="userSpaceOnUse">
<stop offset="0.0985558" stop-color="#FBD489"/>
<stop offset="1" stop-color="#F887DF"/>
</linearGradient>
<linearGradient id="paint3_linear_10289_25350" x1="42.686" y1="9.71424" x2="65.9362" y2="12.0532" gradientUnits="userSpaceOnUse">
<stop offset="0.0985558" stop-color="#FBD489"/>
<stop offset="1" stop-color="#F887DF"/>
</linearGradient>
<linearGradient id="paint4_linear_10289_25350" x1="42.686" y1="9.71424" x2="65.9362" y2="12.0532" gradientUnits="userSpaceOnUse">
<stop offset="0.0985558" stop-color="#FBD489"/>
<stop offset="1" stop-color="#F887DF"/>
</linearGradient>
<linearGradient id="paint5_linear_10289_25350" x1="47.2255" y1="62.5268" x2="60.7302" y2="63.9827" gradientUnits="userSpaceOnUse">
<stop offset="0.0985558" stop-color="#D8FF20"/>
<stop offset="1" stop-color="#99F7F4"/>
</linearGradient>
<linearGradient id="paint6_linear_10289_25350" x1="31.5273" y1="55.9332" x2="45.0168" y2="57.4566" gradientUnits="userSpaceOnUse">
<stop offset="0.0985558" stop-color="#D8FF20"/>
<stop offset="1" stop-color="#99F7F4"/>
</linearGradient>
<linearGradient id="paint7_linear_10289_25350" x1="-3.46291" y1="36.4674" x2="73.6619" y2="94.8246" gradientUnits="userSpaceOnUse">
<stop offset="0.0985558" stop-color="#FBD489"/>
<stop offset="1" stop-color="#F887DF"/>
</linearGradient>
</defs>
</svg>
