<svg width="96" height="90" viewBox="0 0 96 90" fill="none" xmlns="http://www.w3.org/2000/svg">
<path d="M19.9245 1.39206C15.2561 1.39206 11.4717 5.17653 11.4717 9.8449V60.7956C11.4717 63.576 12.8389 66.1786 15.1284 67.7561L43.2039 87.1012C46.0917 89.091 49.9082 89.091 52.796 87.1012L80.8715 67.7561C83.161 66.1786 84.5283 63.576 84.5283 60.7956V9.8449C84.5283 5.17653 80.7438 1.39206 76.0754 1.39206H19.9245Z" fill="url(#paint0_linear_10289_25110)" stroke="url(#paint1_linear_10289_25110)" stroke-width="2.4151"/>
<path d="M16.0001 11.0529C16.0001 8.55194 18.0275 6.52454 20.5284 6.52454H75.4718C77.9727 6.52454 80.0001 8.55194 80.0001 11.0529V60.0423C80.0001 61.5363 79.2633 62.9341 78.0307 63.7783L50.5591 82.5948C49.0167 83.6512 46.9836 83.6512 45.4412 82.5948L17.9695 63.7783C16.737 62.9341 16.0001 61.5363 16.0001 60.0423V11.0529Z" stroke="url(#paint2_linear_10289_25110)" stroke-width="0.603774"/>
<path fill-rule="evenodd" clip-rule="evenodd" d="M38.3624 29.6565L40.8964 31.0803L40.8927 27.2003L44.3455 25.2529L44.3455 21.3692L47.8285 19.3876L47.7965 11.6562L42.3832 14.6949L38.3624 16.9582L38.3624 16.9601L37.4341 17.4818L37.4341 29.1329L38.3624 29.6565ZM47.8003 11.6599L47.8003 15.54L51.2513 13.5999L47.8003 11.6599ZM54.708 23.3129L51.2532 25.2529L51.2532 29.1421L47.7985 31.0821L47.7985 34.9603L57.6967 29.3956L58.159 29.1348L58.159 17.4836L57.6967 17.7445L57.6967 17.7464L57.6948 17.7445L54.708 19.4237L54.708 23.3129Z" fill="url(#paint3_linear_10289_25110)"/>
<path fill-rule="evenodd" clip-rule="evenodd" d="M54.738 23.2714L51.2832 25.2114L48.1135 23.4204L44.3756 21.3277L47.8285 19.3876L54.2757 23.0123L54.738 23.2714ZM58.1928 17.444L54.738 19.384L47.8303 15.5003L51.2813 13.5584L58.1928 17.444ZM40.9227 27.1587L44.3756 25.2187L51.2832 29.1024L47.8285 31.0424L40.9227 27.1587Z" fill="url(#paint4_linear_10289_25110)"/>
<path d="M47.1918 64.5223C47.4088 64.1188 47.9875 64.1188 48.2045 64.5223L49.4881 66.908C49.5683 67.0571 49.71 67.1632 49.8756 67.1982L52.4789 67.7485C52.9091 67.8394 53.0822 68.3599 52.7922 68.6903L50.9661 70.7713C50.8596 70.8927 50.809 71.0532 50.8267 71.2137L51.1335 73.9943C51.183 74.4428 50.7202 74.771 50.3133 74.5759L47.9467 73.4412C47.7896 73.3658 47.6067 73.3658 47.4495 73.4412L45.083 74.5759C44.6761 74.771 44.2133 74.4428 44.2628 73.9943L44.5695 71.2137C44.5873 71.0532 44.5367 70.8927 44.4302 70.7713L42.6041 68.6903C42.3141 68.3599 42.4872 67.8394 42.9174 67.7485L45.5207 67.1982C45.6862 67.1632 45.828 67.0571 45.9082 66.908L47.1918 64.5223Z" fill="#515899"/>
<path d="M31.522 57.7878C31.7319 57.4153 32.2683 57.4153 32.4783 57.7878L33.7932 60.1207C33.8715 60.2596 34.0064 60.3576 34.1628 60.3892L36.7878 60.9188C37.2069 61.0034 37.3727 61.5136 37.0833 61.8283L35.271 63.7998C35.163 63.9172 35.1115 64.0758 35.1298 64.2343L35.4372 66.8945C35.4863 67.3192 35.0524 67.6345 34.6635 67.4566L32.2286 66.3421C32.0835 66.2758 31.9168 66.2758 31.7717 66.3421L29.3367 67.4566C28.9479 67.6345 28.514 67.3192 28.563 66.8945L28.8705 64.2343C28.8888 64.0758 28.8373 63.9172 28.7293 63.7998L26.917 61.8283C26.6276 61.5136 26.7933 61.0034 27.2125 60.9188L29.8375 60.3892C29.9939 60.3576 30.1288 60.2596 30.2071 60.1207L31.522 57.7878Z" fill="url(#paint5_linear_10289_25110)"/>
<path d="M62.9182 57.7878C63.1282 57.4153 63.6646 57.4153 63.8745 57.7878L65.1894 60.1207C65.2678 60.2596 65.4027 60.3576 65.559 60.3892L68.184 60.9188C68.6032 61.0034 68.7689 61.5136 68.4795 61.8283L66.6672 63.7998C66.5592 63.9172 66.5077 64.0758 66.526 64.2343L66.8335 66.8945C66.8826 67.3192 66.4486 67.6345 66.0598 67.4566L63.6248 66.3421C63.4798 66.2758 63.313 66.2758 63.168 66.3421L60.733 67.4566C60.3442 67.6345 59.9102 67.3192 59.9593 66.8945L60.2667 64.2343C60.285 64.0758 60.2335 63.9172 60.1256 63.7998L58.3132 61.8283C58.0238 61.5136 58.1896 61.0034 58.6087 60.9188L61.2337 60.3892C61.3901 60.3576 61.525 60.2596 61.6033 60.1207L62.9182 57.7878Z" fill="#515899"/>
<rect y="38.2227" width="96" height="16" rx="0.800001" fill="url(#paint6_linear_10289_25110)"/>
<path d="M12.4785 46.6512C12.2307 46.6512 12.0285 46.5648 11.8717 46.3921C11.7148 46.2194 11.6467 46.0103 11.6671 45.7648C11.6898 45.5239 11.7967 45.3182 11.9876 45.1478C12.1785 44.9773 12.3967 44.8921 12.6421 44.8921C12.8762 44.8921 13.0728 44.9773 13.2319 45.1478C13.3932 45.3182 13.4626 45.5239 13.4398 45.7648C13.4262 45.9284 13.3705 46.0773 13.2728 46.2114C13.1773 46.3455 13.0592 46.4523 12.9182 46.5319C12.7773 46.6114 12.6307 46.6512 12.4785 46.6512ZM16.3444 43.0614V41.8443H22.0785V43.0614H19.941V48.8262H18.4819V43.0614H16.3444ZM23.0228 48.8262V41.8443H25.7774C26.3046 41.8443 26.7546 41.9387 27.1274 42.1273C27.5024 42.3137 27.7876 42.5784 27.983 42.9216C28.1808 43.2625 28.2796 43.6637 28.2796 44.125C28.2796 44.5887 28.1796 44.9875 27.9796 45.3216C27.7796 45.6534 27.4899 45.908 27.1103 46.0853C26.733 46.2625 26.2762 46.3512 25.7399 46.3512H23.8955V45.1648H25.5012C25.783 45.1648 26.0171 45.1262 26.2035 45.0489C26.3899 44.9716 26.5285 44.8557 26.6194 44.7012C26.7126 44.5466 26.7592 44.3546 26.7592 44.125C26.7592 43.8932 26.7126 43.6978 26.6194 43.5387C26.5285 43.3796 26.3887 43.2591 26.2001 43.1773C26.0137 43.0932 25.7785 43.0512 25.4944 43.0512H24.4989V48.8262H23.0228ZM26.7933 45.6489L28.5285 48.8262H26.8989L25.2012 45.6489H26.7933ZM30.5262 48.8262H28.9444L31.3546 41.8443H33.2569L35.6637 48.8262H34.0819L32.333 43.4398H32.2785L30.5262 48.8262ZM30.4274 46.0819H34.1637V47.2341H30.4274V46.0819ZM38.9791 48.8262H36.5041V41.8443H38.9995C39.7018 41.8443 40.3063 41.9841 40.8132 42.2637C41.32 42.5409 41.7098 42.9398 41.9825 43.4603C42.2575 43.9807 42.395 44.6034 42.395 45.3284C42.395 46.0557 42.2575 46.6807 41.9825 47.2034C41.7098 47.7262 41.3177 48.1273 40.8063 48.4069C40.2973 48.6864 39.6882 48.8262 38.9791 48.8262ZM37.9802 47.5614H38.9177C39.3541 47.5614 39.7211 47.4841 40.0188 47.3296C40.3188 47.1728 40.5438 46.9307 40.6939 46.6034C40.8461 46.2739 40.9223 45.8489 40.9223 45.3284C40.9223 44.8125 40.8461 44.3909 40.6939 44.0637C40.5438 43.7364 40.32 43.4955 40.0223 43.3409C39.7245 43.1864 39.3575 43.1091 38.9211 43.1091H37.9802V47.5614ZM49.9044 45.3353C49.9044 46.0966 49.7601 46.7444 49.4714 47.2784C49.1851 47.8125 48.7941 48.2205 48.2987 48.5023C47.8055 48.7819 47.251 48.9216 46.6351 48.9216C46.0146 48.9216 45.4578 48.7807 44.9646 48.4989C44.4714 48.2171 44.0816 47.8091 43.7953 47.275C43.5089 46.7409 43.3657 46.0944 43.3657 45.3353C43.3657 44.5739 43.5089 43.9262 43.7953 43.3921C44.0816 42.858 44.4714 42.4512 44.9646 42.1716C45.4578 41.8898 46.0146 41.7489 46.6351 41.7489C47.251 41.7489 47.8055 41.8898 48.2987 42.1716C48.7941 42.4512 49.1851 42.858 49.4714 43.3921C49.7601 43.9262 49.9044 44.5739 49.9044 45.3353ZM48.4078 45.3353C48.4078 44.8421 48.3339 44.4262 48.1862 44.0875C48.0407 43.7489 47.8351 43.4921 47.5691 43.3171C47.3032 43.1421 46.9919 43.0546 46.6351 43.0546C46.2782 43.0546 45.9669 43.1421 45.701 43.3171C45.435 43.4921 45.2282 43.7489 45.0805 44.0875C44.935 44.4262 44.8623 44.8421 44.8623 45.3353C44.8623 45.8284 44.935 46.2444 45.0805 46.583C45.2282 46.9216 45.435 47.1784 45.701 47.3534C45.9669 47.5284 46.2782 47.6159 46.6351 47.6159C46.9919 47.6159 47.3032 47.5284 47.5691 47.3534C47.8351 47.1784 48.0407 46.9216 48.1862 46.583C48.3339 46.2444 48.4078 45.8284 48.4078 45.3353ZM57.4138 45.3353C57.4138 46.0966 57.2694 46.7444 56.9808 47.2784C56.6944 47.8125 56.3035 48.2205 55.8081 48.5023C55.3149 48.7819 54.7603 48.9216 54.1444 48.9216C53.524 48.9216 52.9672 48.7807 52.474 48.4989C51.9808 48.2171 51.591 47.8091 51.3047 47.275C51.0183 46.7409 50.8751 46.0944 50.8751 45.3353C50.8751 44.5739 51.0183 43.9262 51.3047 43.3921C51.591 42.858 51.9808 42.4512 52.474 42.1716C52.9672 41.8898 53.524 41.7489 54.1444 41.7489C54.7603 41.7489 55.3149 41.8898 55.8081 42.1716C56.3035 42.4512 56.6944 42.858 56.9808 43.3921C57.2694 43.9262 57.4138 44.5739 57.4138 45.3353ZM55.9172 45.3353C55.9172 44.8421 55.8433 44.4262 55.6956 44.0875C55.5501 43.7489 55.3444 43.4921 55.0785 43.3171C54.8126 43.1421 54.5013 43.0546 54.1444 43.0546C53.7876 43.0546 53.4763 43.1421 53.2103 43.3171C52.9444 43.4921 52.7376 43.7489 52.5899 44.0875C52.4444 44.4262 52.3717 44.8421 52.3717 45.3353C52.3717 45.8284 52.4444 46.2444 52.5899 46.583C52.7376 46.9216 52.9444 47.1784 53.2103 47.3534C53.4763 47.5284 53.7876 47.6159 54.1444 47.6159C54.5013 47.6159 54.8126 47.5284 55.0785 47.3534C55.3444 47.1784 55.5501 46.9216 55.6956 46.583C55.8433 46.2444 55.9172 45.8284 55.9172 45.3353ZM64.9231 45.3353C64.9231 46.0966 64.7788 46.7444 64.4902 47.2784C64.2038 47.8125 63.8129 48.2205 63.3175 48.5023C62.8243 48.7819 62.2697 48.9216 61.6538 48.9216C61.0334 48.9216 60.4765 48.7807 59.9834 48.4989C59.4902 48.2171 59.1004 47.8091 58.814 47.275C58.5277 46.7409 58.3845 46.0944 58.3845 45.3353C58.3845 44.5739 58.5277 43.9262 58.814 43.3921C59.1004 42.858 59.4902 42.4512 59.9834 42.1716C60.4765 41.8898 61.0334 41.7489 61.6538 41.7489C62.2697 41.7489 62.8243 41.8898 63.3175 42.1716C63.8129 42.4512 64.2038 42.858 64.4902 43.3921C64.7788 43.9262 64.9231 44.5739 64.9231 45.3353ZM63.4265 45.3353C63.4265 44.8421 63.3527 44.4262 63.205 44.0875C63.0595 43.7489 62.8538 43.4921 62.5879 43.3171C62.322 43.1421 62.0106 43.0546 61.6538 43.0546C61.297 43.0546 60.9856 43.1421 60.7197 43.3171C60.4538 43.4921 60.247 43.7489 60.0993 44.0875C59.9538 44.4262 59.8811 44.8421 59.8811 45.3353C59.8811 45.8284 59.9538 46.2444 60.0993 46.583C60.247 46.9216 60.4538 47.1784 60.7197 47.3534C60.9856 47.5284 61.297 47.6159 61.6538 47.6159C62.0106 47.6159 62.322 47.5284 62.5879 47.3534C62.8538 47.1784 63.0595 46.9216 63.205 46.583C63.3527 46.2444 63.4265 45.8284 63.4265 45.3353ZM72.4325 45.3353C72.4325 46.0966 72.2882 46.7444 71.9996 47.2784C71.7132 47.8125 71.3223 48.2205 70.8268 48.5023C70.3337 48.7819 69.7791 48.9216 69.1632 48.9216C68.5427 48.9216 67.9859 48.7807 67.4927 48.4989C66.9996 48.2171 66.6098 47.8091 66.3234 47.275C66.0371 46.7409 65.8939 46.0944 65.8939 45.3353C65.8939 44.5739 66.0371 43.9262 66.3234 43.3921C66.6098 42.858 66.9996 42.4512 67.4927 42.1716C67.9859 41.8898 68.5427 41.7489 69.1632 41.7489C69.7791 41.7489 70.3337 41.8898 70.8268 42.1716C71.3223 42.4512 71.7132 42.858 71.9996 43.3921C72.2882 43.9262 72.4325 44.5739 72.4325 45.3353ZM70.9359 45.3353C70.9359 44.8421 70.8621 44.4262 70.7143 44.0875C70.5689 43.7489 70.3632 43.4921 70.0973 43.3171C69.8314 43.1421 69.52 43.0546 69.1632 43.0546C68.8064 43.0546 68.495 43.1421 68.2291 43.3171C67.9632 43.4921 67.7564 43.7489 67.6087 44.0875C67.4632 44.4262 67.3905 44.8421 67.3905 45.3353C67.3905 45.8284 67.4632 46.2444 67.6087 46.583C67.7564 46.9216 67.9632 47.1784 68.2291 47.3534C68.495 47.5284 68.8064 47.6159 69.1632 47.6159C69.52 47.6159 69.8314 47.5284 70.0973 47.3534C70.3632 47.1784 70.5689 46.9216 70.7143 46.583C70.8621 46.2444 70.9359 45.8284 70.9359 45.3353ZM73.526 48.8262V41.8443H76.2805C76.8078 41.8443 77.2578 41.9387 77.6305 42.1273C78.0055 42.3137 78.2908 42.5784 78.4862 42.9216C78.684 43.2625 78.7828 43.6637 78.7828 44.125C78.7828 44.5887 78.6828 44.9875 78.4828 45.3216C78.2828 45.6534 77.993 45.908 77.6135 46.0853C77.2362 46.2625 76.7794 46.3512 76.243 46.3512H74.3987V45.1648H76.0044C76.2862 45.1648 76.5203 45.1262 76.7067 45.0489C76.893 44.9716 77.0317 44.8557 77.1226 44.7012C77.2158 44.5466 77.2624 44.3546 77.2624 44.125C77.2624 43.8932 77.2158 43.6978 77.1226 43.5387C77.0317 43.3796 76.8919 43.2591 76.7033 43.1773C76.5169 43.0932 76.2817 43.0512 75.9976 43.0512H75.0021V48.8262H73.526ZM77.2965 45.6489L79.0317 48.8262H77.4021L75.7044 45.6489H77.2965ZM82.7442 46.6512C82.4965 46.6512 82.2942 46.5648 82.1374 46.3921C81.9805 46.2194 81.9124 46.0103 81.9328 45.7648C81.9555 45.5239 82.0624 45.3182 82.2533 45.1478C82.4442 44.9773 82.6624 44.8921 82.9078 44.8921C83.1419 44.8921 83.3385 44.9773 83.4976 45.1478C83.659 45.3182 83.7283 45.5239 83.7055 45.7648C83.6919 45.9284 83.6362 46.0773 83.5385 46.2114C83.443 46.3455 83.3249 46.4523 83.184 46.5319C83.043 46.6114 82.8965 46.6512 82.7442 46.6512Z" fill="white"/>
<defs>
<linearGradient id="paint0_linear_10289_25110" x1="48" y1="2.59961" x2="48" y2="88.9395" gradientUnits="userSpaceOnUse">
<stop stop-color="#232859"/>
<stop offset="1" stop-color="#232859"/>
</linearGradient>
<linearGradient id="paint1_linear_10289_25110" x1="10.1336" y1="-4.59539" x2="89.3776" y2="2.7268" gradientUnits="userSpaceOnUse">
<stop offset="0.0985558" stop-color="#FBD489"/>
<stop offset="1" stop-color="#F887DF"/>
</linearGradient>
<linearGradient id="paint2_linear_10289_25110" x1="13.3702" y1="-0.318253" x2="85.8338" y2="6.41749" gradientUnits="userSpaceOnUse">
<stop offset="0.0985558" stop-color="#FBD489"/>
<stop offset="1" stop-color="#F887DF"/>
</linearGradient>
<linearGradient id="paint3_linear_10289_25110" x1="36.686" y1="9.71424" x2="59.9362" y2="12.0532" gradientUnits="userSpaceOnUse">
<stop offset="0.0985558" stop-color="#FBD489"/>
<stop offset="1" stop-color="#F887DF"/>
</linearGradient>
<linearGradient id="paint4_linear_10289_25110" x1="36.686" y1="9.71424" x2="59.9362" y2="12.0532" gradientUnits="userSpaceOnUse">
<stop offset="0.0985558" stop-color="#FBD489"/>
<stop offset="1" stop-color="#F887DF"/>
</linearGradient>
<linearGradient id="paint5_linear_10289_25110" x1="25.5273" y1="55.9332" x2="39.0168" y2="57.4566" gradientUnits="userSpaceOnUse">
<stop offset="0.0985558" stop-color="#D8FF20"/>
<stop offset="1" stop-color="#99F7F4"/>
</linearGradient>
<linearGradient id="paint6_linear_10289_25110" x1="-3.45946" y1="36.8893" x2="70.9744" y2="87.326" gradientUnits="userSpaceOnUse">
<stop offset="0.0985558" stop-color="#FBD489"/>
<stop offset="1" stop-color="#F887DF"/>
</linearGradient>
</defs>
</svg>
