<svg width="123" height="91" viewBox="0 0 123 91" fill="none" xmlns="http://www.w3.org/2000/svg">
<path d="M4.39736 1.39664C4.26064 0.81102 4.93483 0.252969 5.55836 0.435631L31.4404 8.01765C31.8611 8.1409 32.054 8.56083 31.8729 8.95929L28.8746 15.5571C28.6909 15.9613 28.1929 16.1895 27.7658 16.0653L7.16481 10.0747C6.66598 9.92964 6.30447 9.56514 6.19518 9.09706L4.39736 1.39664Z" fill="url(#paint0_linear_10289_25153)"/>
<path d="M7.43618 14.0304C7.29946 13.4448 7.97364 12.8868 8.59718 13.0694L34.4792 20.6514C34.8999 20.7747 35.0928 21.1946 34.9118 21.5931L31.9134 28.1909C31.7297 28.5951 31.2317 28.8233 30.8047 28.6991L10.2036 22.7085C9.7048 22.5634 9.34329 22.1989 9.234 21.7309L7.43618 14.0304Z" fill="url(#paint1_linear_10289_25153)"/>
<path d="M10.7965 26.6642C10.6598 26.0786 11.334 25.5205 11.9575 25.7032L37.8396 33.2852C38.2603 33.4085 38.4532 33.8284 38.2721 34.2269L35.2737 40.8247C35.0901 41.2288 34.5921 41.4571 34.165 41.3329L13.564 35.3423C13.0652 35.1972 12.7036 34.8327 12.5944 34.3646L10.7965 26.6642Z" fill="url(#paint2_linear_10289_25153)"/>
<path d="M118.603 1.39664C118.739 0.81102 118.065 0.252969 117.442 0.435631L91.5596 8.01765C91.1389 8.1409 90.946 8.56083 91.1271 8.95929L94.1254 15.5571C94.3091 15.9613 94.8071 16.1895 95.2342 16.0653L115.835 10.0747C116.334 9.92964 116.696 9.56514 116.805 9.09706L118.603 1.39664Z" fill="url(#paint3_linear_10289_25153)"/>
<path d="M115.564 14.0304C115.701 13.4448 115.026 12.8868 114.403 13.0694L88.5208 20.6514C88.1001 20.7747 87.9072 21.1946 88.0882 21.5931L91.0866 28.1909C91.2703 28.5951 91.7683 28.8233 92.1953 28.6991L112.796 22.7085C113.295 22.5634 113.657 22.1989 113.766 21.7309L115.564 14.0304Z" fill="url(#paint4_linear_10289_25153)"/>
<path d="M112.203 26.6642C112.34 26.0786 111.666 25.5205 111.042 25.7032L85.1604 33.2852C84.7397 33.4085 84.5468 33.8284 84.7279 34.2269L87.7263 40.8247C87.9099 41.2288 88.4079 41.4571 88.835 41.3329L109.436 35.3423C109.935 35.1972 110.296 34.8327 110.406 34.3646L112.203 26.6642Z" fill="url(#paint5_linear_10289_25153)"/>
<path d="M33.1452 1.98972C28.4768 1.98972 24.6924 5.77418 24.6924 10.4426V61.3933C24.6924 64.1737 26.0596 66.7762 28.3491 68.3538L56.4246 87.6989C59.3124 89.6887 63.1289 89.6887 66.0167 87.6989L94.0922 68.3538C96.3817 66.7762 97.749 64.1737 97.749 61.3933V10.4426C97.749 5.77419 93.9645 1.98972 89.2961 1.98972H33.1452Z" fill="url(#paint6_linear_10289_25153)" stroke="url(#paint7_linear_10289_25153)" stroke-width="2.4151"/>
<path d="M29.4017 11.6505C29.4017 9.14959 31.4291 7.1222 33.93 7.1222H88.8734C91.3743 7.1222 93.4017 9.14959 93.4017 11.6505V60.64C93.4017 62.1339 92.6649 63.5317 91.4324 64.3759L63.9607 83.1924C62.4183 84.2489 60.3852 84.2489 58.8428 83.1924L31.3711 64.3759C30.1386 63.5317 29.4017 62.1339 29.4017 60.64V11.6505Z" stroke="url(#paint8_linear_10289_25153)" stroke-width="0.603774"/>
<path fill-rule="evenodd" clip-rule="evenodd" d="M51.6281 30.2542L54.1621 31.678L54.1583 27.7979L57.6112 25.8506L57.6112 21.9668L61.0941 19.9853L61.0622 12.2539L55.6489 15.2925L51.628 17.5559L51.628 17.5577L50.6997 18.0795L50.6997 29.7306L51.6281 30.2542ZM61.0659 12.2576L61.0659 16.1376L64.5169 14.1976L61.0659 12.2576ZM67.9736 23.9105L64.5188 25.8506L64.5189 29.7398L61.0641 31.6798L61.0641 35.558L70.9624 29.9933L71.4246 29.7324L71.4246 18.0813L70.9623 18.3422L70.9623 18.344L70.9605 18.3422L67.9736 20.0213L67.9736 23.9105Z" fill="url(#paint9_linear_10289_25153)"/>
<path fill-rule="evenodd" clip-rule="evenodd" d="M68.0036 23.869L64.5489 25.809L61.3791 24.018L57.6412 21.9253L61.0941 19.9853L67.5414 23.61L68.0036 23.869ZM71.4584 18.0416L68.0036 19.9816L61.096 16.0979L64.547 14.1561L71.4584 18.0416ZM54.1883 27.7564L57.6412 25.8164L64.5489 29.7001L61.0941 31.6401L54.1883 27.7564Z" fill="url(#paint10_linear_10289_25153)"/>
<path d="M60.7296 65.1199C60.9467 64.7165 61.5253 64.7165 61.7424 65.1199L63.026 67.5057C63.1061 67.6547 63.2479 67.7608 63.4134 67.7958L66.0168 68.3461C66.4469 68.4371 66.62 68.9575 66.33 69.288L64.5039 71.369C64.3974 71.4903 64.3469 71.6509 64.3646 71.8113L64.6713 74.592C64.7208 75.0405 64.258 75.3686 63.8512 75.1735L61.4846 74.0388C61.3274 73.9635 61.1445 73.9635 60.9874 74.0388L58.6208 75.1735C58.2139 75.3686 57.7512 75.0405 57.8006 74.592L58.1074 71.8113C58.1251 71.6509 58.0745 71.4903 57.968 71.369L56.1419 69.288C55.8519 68.9575 56.025 68.4371 56.4552 68.3461L59.0585 67.7958C59.2241 67.7608 59.3658 67.6547 59.446 67.5057L60.7296 65.1199Z" fill="url(#paint11_linear_10289_25153)"/>
<path d="M45.0596 58.3855C45.2695 58.013 45.8059 58.013 46.0159 58.3855L47.3308 60.7183C47.4091 60.8573 47.544 60.9553 47.7004 60.9868L50.3254 61.5165C50.7445 61.6011 50.9103 62.1112 50.6209 62.426L48.8086 64.3974C48.7006 64.5149 48.6491 64.6735 48.6674 64.8319L48.9748 67.4921C49.0239 67.9169 48.5899 68.2322 48.2011 68.0542L45.7662 66.9398C45.6211 66.8734 45.4544 66.8734 45.3093 66.9398L42.8743 68.0542C42.4855 68.2322 42.0516 67.9169 42.1006 67.4921L42.4081 64.8319C42.4264 64.6735 42.3749 64.5149 42.2669 64.3974L40.4546 62.426C40.1652 62.1112 40.3309 61.6011 40.7501 61.5165L43.3751 60.9868C43.5315 60.9553 43.6664 60.8573 43.7447 60.7183L45.0596 58.3855Z" fill="url(#paint12_linear_10289_25153)"/>
<path d="M76.4558 58.3855C76.6658 58.013 77.2022 58.013 77.4121 58.3855L78.727 60.7183C78.8054 60.8573 78.9403 60.9553 79.0966 60.9868L81.7216 61.5165C82.1408 61.6011 82.3065 62.1112 82.0171 62.426L80.2048 64.3974C80.0968 64.5149 80.0453 64.6735 80.0636 64.8319L80.3711 67.4921C80.4202 67.9169 79.9862 68.2322 79.5974 68.0542L77.1624 66.9398C77.0174 66.8734 76.8506 66.8734 76.7055 66.9398L74.2706 68.0542C73.8818 68.2322 73.4478 67.9169 73.4969 67.4921L73.8043 64.8319C73.8226 64.6735 73.7711 64.5149 73.6632 64.3974L71.8508 62.426C71.5614 62.1112 71.7272 61.6011 72.1463 61.5165L74.7713 60.9868C74.9277 60.9553 75.0626 60.8573 75.1409 60.7183L76.4558 58.3855Z" fill="url(#paint13_linear_10289_25153)"/>
<path d="M10.0237 40.4717C9.63916 39.9429 10.0169 39.2012 10.6707 39.2012H114.729C115.383 39.2012 115.761 39.9429 115.376 40.4717L110.825 46.7307C110.621 47.0112 110.621 47.3912 110.825 47.6717L115.376 53.9307C115.761 54.4595 115.383 55.2012 114.729 55.2012H10.6707C10.0169 55.2012 9.63916 54.4595 10.0237 53.9307L14.5748 47.6717C14.7788 47.3912 14.7788 47.0112 14.5748 46.7307L10.0237 40.4717Z" fill="url(#paint14_linear_10289_25153)"/>
<path d="M27.767 48.0506C27.5193 48.0506 27.317 47.9642 27.1602 47.7915C27.0034 47.6188 26.9352 47.4097 26.9557 47.1642C26.9784 46.9233 27.0852 46.7176 27.2761 46.5472C27.467 46.3767 27.6852 46.2915 27.9307 46.2915C28.1648 46.2915 28.3614 46.3767 28.5205 46.5472C28.6818 46.7176 28.7511 46.9233 28.7284 47.1642C28.7148 47.3279 28.6591 47.4767 28.5614 47.6108C28.4659 47.7449 28.3477 47.8517 28.2068 47.9313C28.0659 48.0108 27.9193 48.0506 27.767 48.0506ZM31.633 44.4608V43.2438H37.3671V44.4608H35.2296V50.2256H33.7705V44.4608H31.633ZM38.3114 50.2256V43.2438H41.0659C41.5932 43.2438 42.0432 43.3381 42.4159 43.5267C42.7909 43.7131 43.0762 43.9779 43.2716 44.321C43.4693 44.6619 43.5682 45.0631 43.5682 45.5244C43.5682 45.9881 43.4682 46.3869 43.2682 46.721C43.0682 47.0529 42.7784 47.3074 42.3989 47.4847C42.0216 47.6619 41.5648 47.7506 41.0284 47.7506H39.1841V46.5642H40.7898C41.0716 46.5642 41.3057 46.5256 41.4921 46.4483C41.6784 46.371 41.8171 46.2551 41.908 46.1006C42.0012 45.946 42.0477 45.754 42.0477 45.5244C42.0477 45.2926 42.0012 45.0972 41.908 44.9381C41.8171 44.779 41.6773 44.6585 41.4887 44.5767C41.3023 44.4926 41.0671 44.4506 40.783 44.4506H39.7875V50.2256H38.3114ZM42.0818 47.0483L43.8171 50.2256H42.1875L40.4898 47.0483H42.0818ZM45.8148 50.2256H44.233L46.6432 43.2438H48.5455L50.9523 50.2256H49.3705L47.6216 44.8392H47.5671L45.8148 50.2256ZM45.7159 47.4813H49.4523V48.6335H45.7159V47.4813ZM54.2676 50.2256H51.7926V43.2438H54.2881C54.9904 43.2438 55.5949 43.3835 56.1017 43.6631C56.6086 43.9404 56.9983 44.3392 57.2711 44.8597C57.5461 45.3801 57.6836 46.0029 57.6836 46.7279C57.6836 47.4551 57.5461 48.0801 57.2711 48.6029C56.9983 49.1256 56.6063 49.5267 56.0949 49.8063C55.5858 50.0858 54.9767 50.2256 54.2676 50.2256ZM53.2688 48.9608H54.2063C54.6426 48.9608 55.0097 48.8835 55.3074 48.729C55.6074 48.5722 55.8324 48.3301 55.9824 48.0029C56.1347 47.6733 56.2108 47.2483 56.2108 46.7279C56.2108 46.2119 56.1347 45.7904 55.9824 45.4631C55.8324 45.1358 55.6086 44.8949 55.3108 44.7404C55.0131 44.5858 54.6461 44.5085 54.2097 44.5085H53.2688V48.9608ZM65.1929 46.7347C65.1929 47.496 65.0486 48.1438 64.76 48.6779C64.4736 49.2119 64.0827 49.6199 63.5873 49.9017C63.0941 50.1813 62.5395 50.321 61.9236 50.321C61.3032 50.321 60.7464 50.1801 60.2532 49.8983C59.76 49.6165 59.3702 49.2085 59.0838 48.6744C58.7975 48.1404 58.6543 47.4938 58.6543 46.7347C58.6543 45.9733 58.7975 45.3256 59.0838 44.7915C59.3702 44.2574 59.76 43.8506 60.2532 43.571C60.7464 43.2892 61.3032 43.1483 61.9236 43.1483C62.5395 43.1483 63.0941 43.2892 63.5873 43.571C64.0827 43.8506 64.4736 44.2574 64.76 44.7915C65.0486 45.3256 65.1929 45.9733 65.1929 46.7347ZM63.6964 46.7347C63.6964 46.2415 63.6225 45.8256 63.4748 45.4869C63.3293 45.1483 63.1236 44.8915 62.8577 44.7165C62.5918 44.5415 62.2804 44.454 61.9236 44.454C61.5668 44.454 61.2554 44.5415 60.9895 44.7165C60.7236 44.8915 60.5168 45.1483 60.3691 45.4869C60.2236 45.8256 60.1509 46.2415 60.1509 46.7347C60.1509 47.2279 60.2236 47.6438 60.3691 47.9824C60.5168 48.321 60.7236 48.5779 60.9895 48.7529C61.2554 48.9279 61.5668 49.0154 61.9236 49.0154C62.2804 49.0154 62.5918 48.9279 62.8577 48.7529C63.1236 48.5779 63.3293 48.321 63.4748 47.9824C63.6225 47.6438 63.6964 47.2279 63.6964 46.7347ZM72.7023 46.7347C72.7023 47.496 72.558 48.1438 72.2694 48.6779C71.983 49.2119 71.5921 49.6199 71.0966 49.9017C70.6035 50.1813 70.0489 50.321 69.433 50.321C68.8126 50.321 68.2557 50.1801 67.7626 49.8983C67.2694 49.6165 66.8796 49.2085 66.5932 48.6744C66.3069 48.1404 66.1637 47.4938 66.1637 46.7347C66.1637 45.9733 66.3069 45.3256 66.5932 44.7915C66.8796 44.2574 67.2694 43.8506 67.7626 43.571C68.2557 43.2892 68.8126 43.1483 69.433 43.1483C70.0489 43.1483 70.6035 43.2892 71.0966 43.571C71.5921 43.8506 71.983 44.2574 72.2694 44.7915C72.558 45.3256 72.7023 45.9733 72.7023 46.7347ZM71.2057 46.7347C71.2057 46.2415 71.1319 45.8256 70.9841 45.4869C70.8387 45.1483 70.633 44.8915 70.3671 44.7165C70.1012 44.5415 69.7898 44.454 69.433 44.454C69.0762 44.454 68.7648 44.5415 68.4989 44.7165C68.233 44.8915 68.0262 45.1483 67.8785 45.4869C67.733 45.8256 67.6603 46.2415 67.6603 46.7347C67.6603 47.2279 67.733 47.6438 67.8785 47.9824C68.0262 48.321 68.233 48.5779 68.4989 48.7529C68.7648 48.9279 69.0762 49.0154 69.433 49.0154C69.7898 49.0154 70.1012 48.9279 70.3671 48.7529C70.633 48.5779 70.8387 48.321 70.9841 47.9824C71.1319 47.6438 71.2057 47.2279 71.2057 46.7347ZM80.2117 46.7347C80.2117 47.496 80.0674 48.1438 79.7788 48.6779C79.4924 49.2119 79.1015 49.6199 78.606 49.9017C78.1128 50.1813 77.5583 50.321 76.9424 50.321C76.3219 50.321 75.7651 50.1801 75.2719 49.8983C74.7788 49.6165 74.389 49.2085 74.1026 48.6744C73.8163 48.1404 73.6731 47.4938 73.6731 46.7347C73.6731 45.9733 73.8163 45.3256 74.1026 44.7915C74.389 44.2574 74.7788 43.8506 75.2719 43.571C75.7651 43.2892 76.3219 43.1483 76.9424 43.1483C77.5583 43.1483 78.1128 43.2892 78.606 43.571C79.1015 43.8506 79.4924 44.2574 79.7788 44.7915C80.0674 45.3256 80.2117 45.9733 80.2117 46.7347ZM78.7151 46.7347C78.7151 46.2415 78.6413 45.8256 78.4935 45.4869C78.3481 45.1483 78.1424 44.8915 77.8765 44.7165C77.6106 44.5415 77.2992 44.454 76.9424 44.454C76.5856 44.454 76.2742 44.5415 76.0083 44.7165C75.7424 44.8915 75.5356 45.1483 75.3878 45.4869C75.2424 45.8256 75.1697 46.2415 75.1697 46.7347C75.1697 47.2279 75.2424 47.6438 75.3878 47.9824C75.5356 48.321 75.7424 48.5779 76.0083 48.7529C76.2742 48.9279 76.5856 49.0154 76.9424 49.0154C77.2992 49.0154 77.6106 48.9279 77.8765 48.7529C78.1424 48.5779 78.3481 48.321 78.4935 47.9824C78.6413 47.6438 78.7151 47.2279 78.7151 46.7347ZM87.7211 46.7347C87.7211 47.496 87.5768 48.1438 87.2881 48.6779C87.0018 49.2119 86.6109 49.6199 86.1154 49.9017C85.6222 50.1813 85.0677 50.321 84.4518 50.321C83.8313 50.321 83.2745 50.1801 82.7813 49.8983C82.2881 49.6165 81.8984 49.2085 81.612 48.6744C81.3256 48.1404 81.1825 47.4938 81.1825 46.7347C81.1825 45.9733 81.3256 45.3256 81.612 44.7915C81.8984 44.2574 82.2881 43.8506 82.7813 43.571C83.2745 43.2892 83.8313 43.1483 84.4518 43.1483C85.0677 43.1483 85.6222 43.2892 86.1154 43.571C86.6109 43.8506 87.0018 44.2574 87.2881 44.7915C87.5768 45.3256 87.7211 45.9733 87.7211 46.7347ZM86.2245 46.7347C86.2245 46.2415 86.1506 45.8256 86.0029 45.4869C85.8575 45.1483 85.6518 44.8915 85.3859 44.7165C85.12 44.5415 84.8086 44.454 84.4518 44.454C84.095 44.454 83.7836 44.5415 83.5177 44.7165C83.2518 44.8915 83.045 45.1483 82.8972 45.4869C82.7518 45.8256 82.679 46.2415 82.679 46.7347C82.679 47.2279 82.7518 47.6438 82.8972 47.9824C83.045 48.321 83.2518 48.5779 83.5177 48.7529C83.7836 48.9279 84.095 49.0154 84.4518 49.0154C84.8086 49.0154 85.12 48.9279 85.3859 48.7529C85.6518 48.5779 85.8575 48.321 86.0029 47.9824C86.1506 47.6438 86.2245 47.2279 86.2245 46.7347ZM88.8146 50.2256V43.2438H91.5691C92.0964 43.2438 92.5464 43.3381 92.9191 43.5267C93.2941 43.7131 93.5793 43.9779 93.7748 44.321C93.9725 44.6619 94.0714 45.0631 94.0714 45.5244C94.0714 45.9881 93.9714 46.3869 93.7714 46.721C93.5714 47.0529 93.2816 47.3074 92.9021 47.4847C92.5248 47.6619 92.068 47.7506 91.5316 47.7506H89.6873V46.5642H91.293C91.5748 46.5642 91.8089 46.5256 91.9953 46.4483C92.1816 46.371 92.3203 46.2551 92.4112 46.1006C92.5043 45.946 92.5509 45.754 92.5509 45.5244C92.5509 45.2926 92.5043 45.0972 92.4112 44.9381C92.3203 44.779 92.1805 44.6585 91.9918 44.5767C91.8055 44.4926 91.5703 44.4506 91.2862 44.4506H90.2907V50.2256H88.8146ZM92.585 47.0483L94.3203 50.2256H92.6907L90.993 47.0483H92.585ZM98.0328 48.0506C97.785 48.0506 97.5828 47.9642 97.4259 47.7915C97.2691 47.6188 97.2009 47.4097 97.2214 47.1642C97.2441 46.9233 97.3509 46.7176 97.5418 46.5472C97.7328 46.3767 97.9509 46.2915 98.1964 46.2915C98.4305 46.2915 98.6271 46.3767 98.7862 46.5472C98.9475 46.7176 99.0168 46.9233 98.9941 47.1642C98.9805 47.3279 98.9248 47.4767 98.8271 47.6108C98.7316 47.7449 98.6134 47.8517 98.4725 47.9313C98.3316 48.0108 98.185 48.0506 98.0328 48.0506Z" fill="white"/>
<path d="M42.8919 22.0526L41.8163 24.3168L43.2863 26.3472L41.0221 25.2717L38.9917 26.7416L40.0672 24.4775L38.5973 22.447L40.8614 23.5226L42.8919 22.0526Z" fill="white"/>
<path d="M79.7219 29.2987L78.6464 31.5629L80.1163 33.5933L77.8522 32.5178L75.8217 33.9877L76.8973 31.7236L75.4273 29.6931L77.6915 30.7687L79.7219 29.2987Z" fill="white"/>
<path d="M80.2843 12.4252L79.6319 13.7988L80.5236 15.0305L79.15 14.378L77.9183 15.2698L78.5708 13.8962L77.679 12.6645L79.0526 13.3169L80.2843 12.4252Z" fill="white"/>
<defs>
<linearGradient id="paint0_linear_10289_25153" x1="3.36858" y1="-0.970039" x2="24.4004" y2="19.5512" gradientUnits="userSpaceOnUse">
<stop offset="0.0985558" stop-color="#FBD489"/>
<stop offset="1" stop-color="#F887DF"/>
</linearGradient>
<linearGradient id="paint1_linear_10289_25153" x1="6.40739" y1="11.6637" x2="27.4393" y2="32.185" gradientUnits="userSpaceOnUse">
<stop offset="0.0985558" stop-color="#FBD489"/>
<stop offset="1" stop-color="#F887DF"/>
</linearGradient>
<linearGradient id="paint2_linear_10289_25153" x1="9.76775" y1="24.2975" x2="30.7996" y2="44.8188" gradientUnits="userSpaceOnUse">
<stop offset="0.0985558" stop-color="#FBD489"/>
<stop offset="1" stop-color="#F887DF"/>
</linearGradient>
<linearGradient id="paint3_linear_10289_25153" x1="119.631" y1="-0.970039" x2="98.5996" y2="19.5512" gradientUnits="userSpaceOnUse">
<stop offset="0.0985558" stop-color="#FBD489"/>
<stop offset="1" stop-color="#F887DF"/>
</linearGradient>
<linearGradient id="paint4_linear_10289_25153" x1="116.593" y1="11.6637" x2="95.5607" y2="32.185" gradientUnits="userSpaceOnUse">
<stop offset="0.0985558" stop-color="#FBD489"/>
<stop offset="1" stop-color="#F887DF"/>
</linearGradient>
<linearGradient id="paint5_linear_10289_25153" x1="113.232" y1="24.2975" x2="92.2004" y2="44.8188" gradientUnits="userSpaceOnUse">
<stop offset="0.0985558" stop-color="#FBD489"/>
<stop offset="1" stop-color="#F887DF"/>
</linearGradient>
<linearGradient id="paint6_linear_10289_25153" x1="61.2207" y1="3.19727" x2="61.2207" y2="89.5371" gradientUnits="userSpaceOnUse">
<stop stop-color="#232859"/>
<stop offset="1" stop-color="#232859"/>
</linearGradient>
<linearGradient id="paint7_linear_10289_25153" x1="23.3543" y1="-3.99773" x2="102.598" y2="3.32446" gradientUnits="userSpaceOnUse">
<stop offset="0.0985558" stop-color="#FBD489"/>
<stop offset="1" stop-color="#F887DF"/>
</linearGradient>
<linearGradient id="paint8_linear_10289_25153" x1="26.7718" y1="0.279404" x2="99.2355" y2="7.01515" gradientUnits="userSpaceOnUse">
<stop offset="0.0985558" stop-color="#FBD489"/>
<stop offset="1" stop-color="#F887DF"/>
</linearGradient>
<linearGradient id="paint9_linear_10289_25153" x1="49.9516" y1="10.3119" x2="73.2018" y2="12.6508" gradientUnits="userSpaceOnUse">
<stop offset="0.0985558" stop-color="#FBD489"/>
<stop offset="1" stop-color="#F887DF"/>
</linearGradient>
<linearGradient id="paint10_linear_10289_25153" x1="49.9516" y1="10.3119" x2="73.2018" y2="12.6508" gradientUnits="userSpaceOnUse">
<stop offset="0.0985558" stop-color="#FBD489"/>
<stop offset="1" stop-color="#F887DF"/>
</linearGradient>
<linearGradient id="paint11_linear_10289_25153" x1="54.7631" y1="63.1245" x2="68.2678" y2="64.5803" gradientUnits="userSpaceOnUse">
<stop offset="0.0985558" stop-color="#D8FF20"/>
<stop offset="1" stop-color="#99F7F4"/>
</linearGradient>
<linearGradient id="paint12_linear_10289_25153" x1="39.0648" y1="56.5308" x2="52.5544" y2="58.0543" gradientUnits="userSpaceOnUse">
<stop offset="0.0985558" stop-color="#D8FF20"/>
<stop offset="1" stop-color="#99F7F4"/>
</linearGradient>
<linearGradient id="paint13_linear_10289_25153" x1="70.4611" y1="56.5308" x2="83.9507" y2="58.0543" gradientUnits="userSpaceOnUse">
<stop offset="0.0985558" stop-color="#D8FF20"/>
<stop offset="1" stop-color="#99F7F4"/>
</linearGradient>
<linearGradient id="paint14_linear_10289_25153" x1="5.23679" y1="37.8678" x2="82.3616" y2="96.225" gradientUnits="userSpaceOnUse">
<stop offset="0.0985558" stop-color="#FBD489"/>
<stop offset="1" stop-color="#F887DF"/>
</linearGradient>
</defs>
</svg>
