<svg width="123" height="91" viewBox="0 0 123 91" fill="none" xmlns="http://www.w3.org/2000/svg">
<path d="M4.39736 1.39664C4.26064 0.81102 4.93483 0.252969 5.55836 0.435631L31.4404 8.01765C31.8611 8.1409 32.054 8.56083 31.8729 8.95929L28.8746 15.5571C28.6909 15.9613 28.1929 16.1895 27.7658 16.0653L7.16481 10.0747C6.66598 9.92964 6.30447 9.56514 6.19518 9.09706L4.39736 1.39664Z" fill="url(#paint0_linear_10289_25176)"/>
<path d="M7.43618 14.0304C7.29946 13.4448 7.97364 12.8868 8.59718 13.0694L34.4792 20.6514C34.8999 20.7747 35.0928 21.1946 34.9118 21.5931L31.9134 28.1909C31.7297 28.5951 31.2317 28.8233 30.8047 28.6991L10.2036 22.7085C9.7048 22.5634 9.34329 22.1989 9.234 21.7309L7.43618 14.0304Z" fill="url(#paint1_linear_10289_25176)"/>
<path d="M10.7965 26.6642C10.6598 26.0786 11.334 25.5205 11.9575 25.7032L37.8396 33.2852C38.2603 33.4085 38.4532 33.8284 38.2721 34.2269L35.2737 40.8247C35.0901 41.2288 34.5921 41.4571 34.165 41.3329L13.564 35.3423C13.0652 35.1972 12.7036 34.8327 12.5944 34.3646L10.7965 26.6642Z" fill="url(#paint2_linear_10289_25176)"/>
<path d="M118.603 1.39664C118.739 0.81102 118.065 0.252969 117.442 0.435631L91.5596 8.01765C91.1389 8.1409 90.946 8.56083 91.1271 8.95929L94.1254 15.5571C94.3091 15.9613 94.8071 16.1895 95.2342 16.0653L115.835 10.0747C116.334 9.92964 116.696 9.56514 116.805 9.09706L118.603 1.39664Z" fill="url(#paint3_linear_10289_25176)"/>
<path d="M115.564 14.0304C115.701 13.4448 115.026 12.8868 114.403 13.0694L88.5208 20.6514C88.1001 20.7747 87.9072 21.1946 88.0882 21.5931L91.0866 28.1909C91.2703 28.5951 91.7683 28.8233 92.1953 28.6991L112.796 22.7085C113.295 22.5634 113.657 22.1989 113.766 21.7309L115.564 14.0304Z" fill="url(#paint4_linear_10289_25176)"/>
<path d="M112.203 26.6642C112.34 26.0786 111.666 25.5205 111.042 25.7032L85.1604 33.2852C84.7397 33.4085 84.5468 33.8284 84.7279 34.2269L87.7263 40.8247C87.9099 41.2288 88.4079 41.4571 88.835 41.3329L109.436 35.3423C109.935 35.1972 110.296 34.8327 110.406 34.3646L112.203 26.6642Z" fill="url(#paint5_linear_10289_25176)"/>
<path d="M33.1452 1.98972C28.4768 1.98972 24.6924 5.77418 24.6924 10.4426V61.3933C24.6924 64.1737 26.0596 66.7762 28.3491 68.3538L56.4246 87.6989C59.3124 89.6887 63.1289 89.6887 66.0167 87.6989L94.0922 68.3538C96.3817 66.7762 97.749 64.1737 97.749 61.3933V10.4426C97.749 5.77419 93.9645 1.98972 89.2961 1.98972H33.1452Z" fill="url(#paint6_linear_10289_25176)" stroke="url(#paint7_linear_10289_25176)" stroke-width="2.4151"/>
<path d="M29.4017 11.6505C29.4017 9.14959 31.4291 7.1222 33.93 7.1222H88.8734C91.3743 7.1222 93.4017 9.14959 93.4017 11.6505V60.64C93.4017 62.1339 92.6649 63.5317 91.4324 64.3759L63.9607 83.1924C62.4183 84.2489 60.3852 84.2489 58.8428 83.1924L31.3711 64.3759C30.1386 63.5317 29.4017 62.1339 29.4017 60.64V11.6505Z" stroke="url(#paint8_linear_10289_25176)" stroke-width="0.603774"/>
<path fill-rule="evenodd" clip-rule="evenodd" d="M51.6281 30.2542L54.1621 31.678L54.1583 27.7979L57.6112 25.8506L57.6112 21.9668L61.0941 19.9853L61.0622 12.2539L55.6489 15.2925L51.628 17.5559L51.628 17.5577L50.6997 18.0795L50.6997 29.7306L51.6281 30.2542ZM61.0659 12.2576L61.0659 16.1376L64.5169 14.1976L61.0659 12.2576ZM67.9736 23.9105L64.5188 25.8506L64.5189 29.7398L61.0641 31.6798L61.0641 35.558L70.9624 29.9933L71.4246 29.7324L71.4246 18.0813L70.9623 18.3422L70.9623 18.344L70.9605 18.3422L67.9736 20.0213L67.9736 23.9105Z" fill="url(#paint9_linear_10289_25176)"/>
<path fill-rule="evenodd" clip-rule="evenodd" d="M68.0036 23.869L64.5489 25.809L61.3791 24.018L57.6412 21.9253L61.0941 19.9853L67.5414 23.61L68.0036 23.869ZM71.4584 18.0416L68.0036 19.9816L61.096 16.0979L64.547 14.1561L71.4584 18.0416ZM54.1883 27.7564L57.6412 25.8164L64.5489 29.7001L61.0941 31.6401L54.1883 27.7564Z" fill="url(#paint10_linear_10289_25176)"/>
<path d="M60.7296 65.1199C60.9467 64.7165 61.5253 64.7165 61.7424 65.1199L63.026 67.5057C63.1061 67.6547 63.2479 67.7608 63.4134 67.7958L66.0168 68.3461C66.4469 68.4371 66.62 68.9575 66.33 69.288L64.5039 71.369C64.3974 71.4903 64.3469 71.6509 64.3646 71.8113L64.6713 74.592C64.7208 75.0405 64.258 75.3686 63.8512 75.1735L61.4846 74.0388C61.3274 73.9635 61.1445 73.9635 60.9874 74.0388L58.6208 75.1735C58.2139 75.3686 57.7512 75.0405 57.8006 74.592L58.1074 71.8113C58.1251 71.6509 58.0745 71.4903 57.968 71.369L56.1419 69.288C55.8519 68.9575 56.025 68.4371 56.4552 68.3461L59.0585 67.7958C59.2241 67.7608 59.3658 67.6547 59.446 67.5057L60.7296 65.1199Z" fill="url(#paint11_linear_10289_25176)"/>
<path d="M45.0596 58.3855C45.2695 58.013 45.8059 58.013 46.0159 58.3855L47.3308 60.7183C47.4091 60.8573 47.544 60.9553 47.7004 60.9868L50.3254 61.5165C50.7445 61.6011 50.9103 62.1112 50.6209 62.426L48.8086 64.3974C48.7006 64.5149 48.6491 64.6735 48.6674 64.8319L48.9748 67.4921C49.0239 67.9169 48.5899 68.2322 48.2011 68.0542L45.7662 66.9398C45.6211 66.8734 45.4544 66.8734 45.3093 66.9398L42.8743 68.0542C42.4855 68.2322 42.0516 67.9169 42.1006 67.4921L42.4081 64.8319C42.4264 64.6735 42.3749 64.5149 42.2669 64.3974L40.4546 62.426C40.1652 62.1112 40.3309 61.6011 40.7501 61.5165L43.3751 60.9868C43.5315 60.9553 43.6664 60.8573 43.7447 60.7183L45.0596 58.3855Z" fill="url(#paint12_linear_10289_25176)"/>
<path d="M76.4558 58.3855C76.6658 58.013 77.2022 58.013 77.4121 58.3855L78.727 60.7183C78.8054 60.8573 78.9403 60.9553 79.0966 60.9868L81.7216 61.5165C82.1408 61.6011 82.3065 62.1112 82.0171 62.426L80.2048 64.3974C80.0968 64.5149 80.0453 64.6735 80.0636 64.8319L80.3711 67.4921C80.4202 67.9169 79.9862 68.2322 79.5974 68.0542L77.1624 66.9398C77.0174 66.8734 76.8506 66.8734 76.7055 66.9398L74.2706 68.0542C73.8818 68.2322 73.4478 67.9169 73.4969 67.4921L73.8043 64.8319C73.8226 64.6735 73.7711 64.5149 73.6632 64.3974L71.8508 62.426C71.5614 62.1112 71.7272 61.6011 72.1463 61.5165L74.7713 60.9868C74.9277 60.9553 75.0626 60.8573 75.1409 60.7183L76.4558 58.3855Z" fill="url(#paint13_linear_10289_25176)"/>
<path d="M10.0571 40.4785C9.66239 39.951 10.0388 39.1992 10.6976 39.1992H112.302C112.961 39.1992 113.337 39.951 112.943 40.4785L108.572 46.3199C108.359 46.6041 108.359 46.9944 108.572 47.2785L112.943 53.12C113.337 53.6475 112.961 54.3993 112.302 54.3993H10.6976C10.0388 54.3993 9.66239 53.6475 10.0571 53.12L14.428 47.2785C14.6407 46.9944 14.6407 46.6041 14.428 46.3199L10.0571 40.4785Z" fill="url(#paint14_linear_10289_25176)"/>
<path d="M41.0707 49.035C40.8214 49.035 40.6179 48.948 40.4601 48.7742C40.3023 48.6004 40.2337 48.39 40.2543 48.143C40.2771 47.9006 40.3846 47.6936 40.5767 47.5221C40.7688 47.3506 40.9884 47.2648 41.2354 47.2648C41.471 47.2648 41.6688 47.3506 41.8289 47.5221C41.9913 47.6936 42.061 47.9006 42.0381 48.143C42.0244 48.3077 41.9684 48.4575 41.87 48.5924C41.774 48.7273 41.6551 48.8348 41.5133 48.9149C41.3715 48.9949 41.224 49.035 41.0707 49.035ZM46.81 51.2236L44.7997 44.1979H46.4224L47.5853 49.0795H47.6436L48.9267 44.1979H50.316L51.5956 49.0898H51.6574L52.8203 44.1979H54.443L52.4327 51.2236H50.985L49.6471 46.6301H49.5922L48.2577 51.2236H46.81ZM55.238 51.2236V44.1979H56.7234V47.0967H59.7388V44.1979H61.2208V51.2236H59.7388V48.3214H56.7234V51.2236H55.238ZM63.6565 51.2236H62.0648L64.4901 44.1979H66.4044L68.8263 51.2236H67.2346L65.4747 45.8034H65.4198L63.6565 51.2236ZM63.557 48.4621H67.3169V49.6216H63.557V48.4621ZM69.672 51.2236V44.1979H71.1574V49.9989H74.1694V51.2236H69.672ZM75.1531 51.2236V44.1979H79.8872V45.4226H76.6385V47.0967H79.6437V48.3214H76.6385V49.9989H79.901V51.2236H75.1531ZM81.9293 49.035C81.68 49.035 81.4764 48.948 81.3186 48.7742C81.1608 48.6004 81.0922 48.39 81.1128 48.143C81.1357 47.9006 81.2432 47.6936 81.4353 47.5221C81.6274 47.3506 81.8469 47.2648 82.0939 47.2648C82.3295 47.2648 82.5273 47.3506 82.6874 47.5221C82.8498 47.6936 82.9196 47.9006 82.8967 48.143C82.883 48.3077 82.8269 48.4575 82.7286 48.5924C82.6325 48.7273 82.5136 48.8348 82.3718 48.9149C82.23 48.9949 82.0825 49.035 81.9293 49.035Z" fill="white"/>
<path d="M42.8919 22.0526L41.8163 24.3168L43.2863 26.3472L41.0221 25.2717L38.9917 26.7416L40.0672 24.4775L38.5973 22.447L40.8614 23.5226L42.8919 22.0526Z" fill="white"/>
<path d="M79.7219 29.2987L78.6464 31.5629L80.1163 33.5933L77.8522 32.5178L75.8217 33.9877L76.8973 31.7236L75.4273 29.6931L77.6915 30.7687L79.7219 29.2987Z" fill="white"/>
<path d="M80.2843 12.4252L79.6319 13.7988L80.5236 15.0305L79.15 14.378L77.9183 15.2698L78.5708 13.8962L77.679 12.6645L79.0526 13.3169L80.2843 12.4252Z" fill="white"/>
<defs>
<linearGradient id="paint0_linear_10289_25176" x1="3.36858" y1="-0.970039" x2="24.4004" y2="19.5512" gradientUnits="userSpaceOnUse">
<stop offset="0.0985558" stop-color="#70EEFF"/>
<stop offset="1" stop-color="#6B83FF"/>
</linearGradient>
<linearGradient id="paint1_linear_10289_25176" x1="6.40739" y1="11.6637" x2="27.4393" y2="32.185" gradientUnits="userSpaceOnUse">
<stop offset="0.0985558" stop-color="#70EEFF"/>
<stop offset="1" stop-color="#6B83FF"/>
</linearGradient>
<linearGradient id="paint2_linear_10289_25176" x1="9.76775" y1="24.2975" x2="30.7996" y2="44.8188" gradientUnits="userSpaceOnUse">
<stop offset="0.0985558" stop-color="#70EEFF"/>
<stop offset="1" stop-color="#6B83FF"/>
</linearGradient>
<linearGradient id="paint3_linear_10289_25176" x1="119.631" y1="-0.970039" x2="98.5996" y2="19.5512" gradientUnits="userSpaceOnUse">
<stop offset="0.0985558" stop-color="#70EEFF"/>
<stop offset="1" stop-color="#6B83FF"/>
</linearGradient>
<linearGradient id="paint4_linear_10289_25176" x1="116.593" y1="11.6637" x2="95.5607" y2="32.185" gradientUnits="userSpaceOnUse">
<stop offset="0.0985558" stop-color="#70EEFF"/>
<stop offset="1" stop-color="#6B83FF"/>
</linearGradient>
<linearGradient id="paint5_linear_10289_25176" x1="113.232" y1="24.2975" x2="92.2004" y2="44.8188" gradientUnits="userSpaceOnUse">
<stop offset="0.0985558" stop-color="#70EEFF"/>
<stop offset="1" stop-color="#6B83FF"/>
</linearGradient>
<linearGradient id="paint6_linear_10289_25176" x1="61.2207" y1="3.19727" x2="61.2207" y2="89.5371" gradientUnits="userSpaceOnUse">
<stop stop-color="#232859"/>
<stop offset="1" stop-color="#232859"/>
</linearGradient>
<linearGradient id="paint7_linear_10289_25176" x1="23.3543" y1="-3.99773" x2="102.598" y2="3.32446" gradientUnits="userSpaceOnUse">
<stop offset="0.0985558" stop-color="#70EEFF"/>
<stop offset="1" stop-color="#6B83FF"/>
</linearGradient>
<linearGradient id="paint8_linear_10289_25176" x1="26.7718" y1="0.279404" x2="99.2355" y2="7.01515" gradientUnits="userSpaceOnUse">
<stop offset="0.0985558" stop-color="#70EEFF"/>
<stop offset="1" stop-color="#6B83FF"/>
</linearGradient>
<linearGradient id="paint9_linear_10289_25176" x1="49.9516" y1="10.3119" x2="73.2018" y2="12.6508" gradientUnits="userSpaceOnUse">
<stop offset="0.0985558" stop-color="#70EEFF"/>
<stop offset="1" stop-color="#6B83FF"/>
</linearGradient>
<linearGradient id="paint10_linear_10289_25176" x1="49.9516" y1="10.3119" x2="73.2018" y2="12.6508" gradientUnits="userSpaceOnUse">
<stop offset="0.0985558" stop-color="#70EEFF"/>
<stop offset="1" stop-color="#6B83FF"/>
</linearGradient>
<linearGradient id="paint11_linear_10289_25176" x1="54.7631" y1="63.1245" x2="68.2678" y2="64.5803" gradientUnits="userSpaceOnUse">
<stop offset="0.0985558" stop-color="#D8FF20"/>
<stop offset="1" stop-color="#99F7F4"/>
</linearGradient>
<linearGradient id="paint12_linear_10289_25176" x1="39.0648" y1="56.5308" x2="52.5544" y2="58.0543" gradientUnits="userSpaceOnUse">
<stop offset="0.0985558" stop-color="#D8FF20"/>
<stop offset="1" stop-color="#99F7F4"/>
</linearGradient>
<linearGradient id="paint13_linear_10289_25176" x1="70.4611" y1="56.5308" x2="83.9507" y2="58.0543" gradientUnits="userSpaceOnUse">
<stop offset="0.0985558" stop-color="#D8FF20"/>
<stop offset="1" stop-color="#99F7F4"/>
</linearGradient>
<linearGradient id="paint14_linear_10289_25176" x1="5.32328" y1="37.9325" x2="79.1365" y2="95.4073" gradientUnits="userSpaceOnUse">
<stop offset="0.0985558" stop-color="#70EEFF"/>
<stop offset="1" stop-color="#6B83FF"/>
</linearGradient>
</defs>
</svg>
