<svg width="96" height="90" viewBox="0 0 96 90" fill="none" xmlns="http://www.w3.org/2000/svg">
<path d="M19.9245 1.39206C15.2561 1.39206 11.4717 5.17653 11.4717 9.8449V60.7956C11.4717 63.576 12.8389 66.1786 15.1284 67.7561L43.2039 87.1012C46.0917 89.091 49.9082 89.091 52.796 87.1012L80.8715 67.7561C83.161 66.1786 84.5283 63.576 84.5283 60.7956V9.8449C84.5283 5.17653 80.7438 1.39206 76.0754 1.39206H19.9245Z" fill="url(#paint0_linear_10289_25120)" stroke="url(#paint1_linear_10289_25120)" stroke-width="2.4151"/>
<path d="M16.0001 11.0529C16.0001 8.55194 18.0275 6.52454 20.5284 6.52454H75.4718C77.9727 6.52454 80.0001 8.55194 80.0001 11.0529V60.0423C80.0001 61.5363 79.2633 62.9341 78.0307 63.7783L50.5591 82.5948C49.0167 83.6512 46.9836 83.6512 45.4412 82.5948L17.9695 63.7783C16.737 62.9341 16.0001 61.5363 16.0001 60.0423V11.0529Z" stroke="url(#paint2_linear_10289_25120)" stroke-width="0.603774"/>
<path fill-rule="evenodd" clip-rule="evenodd" d="M38.3624 29.6565L40.8964 31.0803L40.8927 27.2003L44.3455 25.2529L44.3455 21.3692L47.8285 19.3876L47.7965 11.6562L42.3832 14.6949L38.3624 16.9582L38.3624 16.9601L37.4341 17.4818L37.4341 29.1329L38.3624 29.6565ZM47.8003 11.6599L47.8003 15.54L51.2513 13.5999L47.8003 11.6599ZM54.708 23.3129L51.2532 25.2529L51.2532 29.1421L47.7985 31.0821L47.7985 34.9603L57.6967 29.3956L58.159 29.1348L58.159 17.4836L57.6967 17.7445L57.6967 17.7464L57.6948 17.7445L54.708 19.4237L54.708 23.3129Z" fill="url(#paint3_linear_10289_25120)"/>
<path fill-rule="evenodd" clip-rule="evenodd" d="M54.738 23.2714L51.2832 25.2114L48.1135 23.4204L44.3756 21.3277L47.8285 19.3876L54.2757 23.0123L54.738 23.2714ZM58.1928 17.444L54.738 19.384L47.8303 15.5003L51.2813 13.5584L58.1928 17.444ZM40.9227 27.1587L44.3756 25.2187L51.2832 29.1024L47.8285 31.0424L40.9227 27.1587Z" fill="url(#paint4_linear_10289_25120)"/>
<path d="M47.1918 64.5223C47.4088 64.1188 47.9875 64.1188 48.2045 64.5223L49.4881 66.908C49.5683 67.0571 49.71 67.1632 49.8756 67.1982L52.4789 67.7485C52.9091 67.8394 53.0822 68.3599 52.7922 68.6903L50.9661 70.7713C50.8596 70.8927 50.809 71.0532 50.8267 71.2137L51.1335 73.9943C51.183 74.4428 50.7202 74.771 50.3133 74.5759L47.9467 73.4412C47.7896 73.3658 47.6067 73.3658 47.4495 73.4412L45.083 74.5759C44.6761 74.771 44.2133 74.4428 44.2628 73.9943L44.5695 71.2137C44.5873 71.0532 44.5367 70.8927 44.4302 70.7713L42.6041 68.6903C42.3141 68.3599 42.4872 67.8394 42.9174 67.7485L45.5207 67.1982C45.6862 67.1632 45.828 67.0571 45.9082 66.908L47.1918 64.5223Z" fill="#515899"/>
<path d="M31.522 57.7878C31.7319 57.4153 32.2683 57.4153 32.4783 57.7878L33.7932 60.1207C33.8715 60.2596 34.0064 60.3576 34.1628 60.3892L36.7878 60.9188C37.2069 61.0034 37.3727 61.5136 37.0833 61.8283L35.271 63.7998C35.163 63.9172 35.1115 64.0758 35.1298 64.2343L35.4372 66.8945C35.4863 67.3192 35.0524 67.6345 34.6635 67.4566L32.2286 66.3421C32.0835 66.2758 31.9168 66.2758 31.7717 66.3421L29.3367 67.4566C28.9479 67.6345 28.514 67.3192 28.563 66.8945L28.8705 64.2343C28.8888 64.0758 28.8373 63.9172 28.7293 63.7998L26.917 61.8283C26.6276 61.5136 26.7933 61.0034 27.2125 60.9188L29.8375 60.3892C29.9939 60.3576 30.1288 60.2596 30.2071 60.1207L31.522 57.7878Z" fill="url(#paint5_linear_10289_25120)"/>
<path d="M62.9182 57.7878C63.1282 57.4153 63.6646 57.4153 63.8745 57.7878L65.1894 60.1207C65.2678 60.2596 65.4027 60.3576 65.559 60.3892L68.184 60.9188C68.6032 61.0034 68.7689 61.5136 68.4795 61.8283L66.6672 63.7998C66.5592 63.9172 66.5077 64.0758 66.526 64.2343L66.8335 66.8945C66.8826 67.3192 66.4486 67.6345 66.0598 67.4566L63.6248 66.3421C63.4798 66.2758 63.313 66.2758 63.168 66.3421L60.733 67.4566C60.3442 67.6345 59.9102 67.3192 59.9593 66.8945L60.2667 64.2343C60.285 64.0758 60.2335 63.9172 60.1256 63.7998L58.3132 61.8283C58.0238 61.5136 58.1896 61.0034 58.6087 60.9188L61.2337 60.3892C61.3901 60.3576 61.525 60.2596 61.6033 60.1207L62.9182 57.7878Z" fill="#515899"/>
<rect y="38.2227" width="96" height="16" rx="0.800001" fill="url(#paint6_linear_10289_25120)"/>
<path d="M26.6784 46.6512C26.4307 46.6512 26.2284 46.5648 26.0716 46.3921C25.9148 46.2194 25.8466 46.0103 25.867 45.7648C25.8898 45.5239 25.9966 45.3182 26.1875 45.1478C26.3784 44.9773 26.5966 44.8921 26.842 44.8921C27.0761 44.8921 27.2727 44.9773 27.4318 45.1478C27.5932 45.3182 27.6625 45.5239 27.6398 45.7648C27.6261 45.9284 27.5704 46.0773 27.4727 46.2114C27.3773 46.3455 27.2591 46.4523 27.1182 46.5319C26.9773 46.6114 26.8307 46.6512 26.6784 46.6512ZM32.3818 48.8262L30.3841 41.8443H31.9966L33.1523 46.6955H33.2102L34.4852 41.8443H35.8659L37.1375 46.7057H37.1989L38.3545 41.8443H39.967L37.9693 48.8262H36.5307L35.2011 44.2614H35.1466L33.8204 48.8262H32.3818ZM40.7571 48.8262V41.8443H42.2332V44.725H45.2298V41.8443H46.7026V48.8262H45.2298V45.9421H42.2332V48.8262H40.7571ZM49.123 48.8262H47.5412L49.9514 41.8443H51.8537L54.2605 48.8262H52.6787L50.9298 43.4398H50.8753L49.123 48.8262ZM49.0242 46.0819H52.7605V47.2341H49.0242V46.0819ZM55.1009 48.8262V41.8443H56.577V47.6091H59.5702V48.8262H55.1009ZM60.5478 48.8262V41.8443H65.2523V43.0614H62.0239V44.725H65.0103V45.9421H62.0239V47.6091H65.2659V48.8262H60.5478ZM69.3441 46.6512C69.0963 46.6512 68.8941 46.5648 68.7372 46.3921C68.5804 46.2194 68.5122 46.0103 68.5327 45.7648C68.5554 45.5239 68.6622 45.3182 68.8532 45.1478C69.0441 44.9773 69.2622 44.8921 69.5077 44.8921C69.7418 44.8921 69.9384 44.9773 70.0975 45.1478C70.2588 45.3182 70.3282 45.5239 70.3054 45.7648C70.2918 45.9284 70.2361 46.0773 70.1384 46.2114C70.0429 46.3455 69.9247 46.4523 69.7838 46.5319C69.6429 46.6114 69.4963 46.6512 69.3441 46.6512Z" fill="white"/>
<defs>
<linearGradient id="paint0_linear_10289_25120" x1="48" y1="2.59961" x2="48" y2="88.9395" gradientUnits="userSpaceOnUse">
<stop stop-color="#232859"/>
<stop offset="1" stop-color="#232859"/>
</linearGradient>
<linearGradient id="paint1_linear_10289_25120" x1="10.1336" y1="-4.59539" x2="89.3776" y2="2.7268" gradientUnits="userSpaceOnUse">
<stop offset="0.0985558" stop-color="#70EEFF"/>
<stop offset="1" stop-color="#6B83FF"/>
</linearGradient>
<linearGradient id="paint2_linear_10289_25120" x1="13.3702" y1="-0.318253" x2="85.8338" y2="6.41749" gradientUnits="userSpaceOnUse">
<stop offset="0.0985558" stop-color="#70EEFF"/>
<stop offset="1" stop-color="#6B83FF"/>
</linearGradient>
<linearGradient id="paint3_linear_10289_25120" x1="36.686" y1="9.71424" x2="59.9362" y2="12.0532" gradientUnits="userSpaceOnUse">
<stop offset="0.0985558" stop-color="#70EEFF"/>
<stop offset="1" stop-color="#6B83FF"/>
</linearGradient>
<linearGradient id="paint4_linear_10289_25120" x1="36.686" y1="9.71424" x2="59.9362" y2="12.0532" gradientUnits="userSpaceOnUse">
<stop offset="0.0985558" stop-color="#70EEFF"/>
<stop offset="1" stop-color="#6B83FF"/>
</linearGradient>
<linearGradient id="paint5_linear_10289_25120" x1="25.5273" y1="55.9332" x2="39.0168" y2="57.4566" gradientUnits="userSpaceOnUse">
<stop offset="0.0985558" stop-color="#D8FF20"/>
<stop offset="1" stop-color="#99F7F4"/>
</linearGradient>
<linearGradient id="paint6_linear_10289_25120" x1="-3.45946" y1="36.8893" x2="70.9744" y2="87.326" gradientUnits="userSpaceOnUse">
<stop offset="0.0985558" stop-color="#70EEFF"/>
<stop offset="1" stop-color="#6B83FF"/>
</linearGradient>
</defs>
</svg>
