<svg width="108" height="90" viewBox="0 0 108 90" fill="none" xmlns="http://www.w3.org/2000/svg">
<path d="M26.0456 1.39206C21.3772 1.39206 17.5927 5.17653 17.5927 9.8449V60.7956C17.5927 63.576 18.96 66.1786 21.2495 67.7561L49.325 87.1012C52.2128 89.091 56.0293 89.091 58.9171 87.1012L86.9926 67.7561C89.2821 66.1786 90.6494 63.576 90.6494 60.7956V9.8449C90.6494 5.17653 86.8649 1.39206 82.1965 1.39206H26.0456Z" fill="url(#paint0_linear_10289_25363)" stroke="url(#paint1_linear_10289_25363)" stroke-width="2.4151"/>
<path d="M22.0001 11.0529C22.0001 8.55194 24.0275 6.52454 26.5284 6.52454H81.4718C83.9727 6.52454 86.0001 8.55194 86.0001 11.0529V60.0423C86.0001 61.5363 85.2633 62.9341 84.0307 63.7783L56.5591 82.5948C55.0167 83.6512 52.9836 83.6512 51.4412 82.5948L23.9695 63.7783C22.737 62.9341 22.0001 61.5363 22.0001 60.0423V11.0529Z" stroke="url(#paint2_linear_10289_25363)" stroke-width="0.603774"/>
<path fill-rule="evenodd" clip-rule="evenodd" d="M44.3624 29.6565L46.8964 31.0803L46.8927 27.2003L50.3455 25.2529L50.3455 21.3692L53.8285 19.3876L53.7965 11.6562L48.3832 14.6949L44.3624 16.9582L44.3624 16.9601L43.4341 17.4818L43.4341 29.1329L44.3624 29.6565ZM53.8003 11.6599L53.8003 15.54L57.2513 13.5999L53.8003 11.6599ZM60.708 23.3129L57.2532 25.2529L57.2532 29.1421L53.7985 31.0821L53.7985 34.9603L63.6967 29.3956L64.159 29.1348L64.159 17.4836L63.6967 17.7445L63.6967 17.7464L63.6948 17.7445L60.708 19.4237L60.708 23.3129Z" fill="url(#paint3_linear_10289_25363)"/>
<path fill-rule="evenodd" clip-rule="evenodd" d="M60.738 23.2714L57.2832 25.2114L54.1135 23.4204L50.3756 21.3277L53.8285 19.3876L60.2757 23.0123L60.738 23.2714ZM64.1928 17.444L60.738 19.384L53.8303 15.5003L57.2813 13.5584L64.1928 17.444ZM46.9227 27.1587L50.3756 25.2187L57.2832 29.1024L53.8285 31.0424L46.9227 27.1587Z" fill="url(#paint4_linear_10289_25363)"/>
<path d="M53.215 64.4795C53.4222 64.0944 53.9746 64.0944 54.1817 64.4795L55.4941 66.9187C55.5706 67.061 55.7059 67.1623 55.864 67.1957L58.5229 67.7577C58.9335 67.8445 59.0987 68.3413 58.8219 68.6568L56.9587 70.78C56.8571 70.8958 56.8088 71.0491 56.8257 71.2022L57.1389 74.0411C57.1861 74.4692 56.7444 74.7824 56.356 74.5962L53.9357 73.4357C53.7857 73.3638 53.6111 73.3638 53.4611 73.4357L51.0408 74.5962C50.6524 74.7824 50.2106 74.4692 50.2579 74.0411L50.5711 71.2022C50.588 71.0491 50.5397 70.8958 50.438 70.78L48.5749 68.6568C48.298 68.3413 48.4633 67.8445 48.8739 67.7577L51.5328 67.1957C51.6908 67.1623 51.8261 67.061 51.9026 66.9187L53.215 64.4795Z" fill="url(#paint5_linear_10289_25363)"/>
<path d="M37.522 57.7878C37.7319 57.4153 38.2683 57.4153 38.4783 57.7878L39.7932 60.1207C39.8715 60.2596 40.0064 60.3576 40.1628 60.3892L42.7878 60.9188C43.2069 61.0034 43.3727 61.5136 43.0833 61.8283L41.271 63.7998C41.163 63.9172 41.1115 64.0758 41.1298 64.2343L41.4372 66.8945C41.4863 67.3192 41.0524 67.6345 40.6635 67.4566L38.2286 66.3421C38.0835 66.2758 37.9168 66.2758 37.7717 66.3421L35.3367 67.4566C34.9479 67.6345 34.514 67.3192 34.563 66.8945L34.8705 64.2343C34.8888 64.0758 34.8373 63.9172 34.7293 63.7998L32.917 61.8283C32.6276 61.5136 32.7933 61.0034 33.2125 60.9188L35.8375 60.3892C35.9939 60.3576 36.1288 60.2596 36.2071 60.1207L37.522 57.7878Z" fill="url(#paint6_linear_10289_25363)"/>
<path d="M68.9182 57.7878C69.1282 57.4153 69.6646 57.4153 69.8745 57.7878L71.1894 60.1207C71.2678 60.2596 71.4027 60.3576 71.559 60.3892L74.184 60.9188C74.6032 61.0034 74.7689 61.5136 74.4795 61.8283L72.6672 63.7998C72.5592 63.9172 72.5077 64.0758 72.526 64.2343L72.8335 66.8945C72.8826 67.3192 72.4486 67.6345 72.0598 67.4566L69.6248 66.3421C69.4798 66.2758 69.313 66.2758 69.168 66.3421L66.733 67.4566C66.3442 67.6345 65.9102 67.3192 65.9593 66.8945L66.2667 64.2343C66.285 64.0758 66.2335 63.9172 66.1256 63.7998L64.3132 61.8283C64.0238 61.5136 64.1896 61.0034 64.6087 60.9188L67.2337 60.3892C67.3901 60.3576 67.525 60.2596 67.6033 60.1207L68.9182 57.7878Z" fill="#515899"/>
<path d="M1.32395 39.0713C0.939455 38.5425 1.31719 37.8008 1.97098 37.8008H106.029C106.683 37.8008 107.061 38.5425 106.676 39.0713L102.125 45.3303C101.921 45.6108 101.921 45.9908 102.125 46.2713L106.676 52.5303C107.061 53.0591 106.683 53.8008 106.029 53.8008H1.97098C1.31719 53.8008 0.939455 53.0591 1.32395 52.5303L5.8751 46.2713C6.07906 45.9908 6.07906 45.6108 5.8751 45.3303L1.32395 39.0713Z" fill="url(#paint7_linear_10289_25363)"/>
<path d="M33.2673 46.6502C33.0195 46.6502 32.8173 46.5638 32.6604 46.3911C32.5036 46.2184 32.4354 46.0093 32.4559 45.7638C32.4786 45.5229 32.5854 45.3172 32.7763 45.1468C32.9673 44.9763 33.1854 44.8911 33.4309 44.8911C33.665 44.8911 33.8616 44.9763 34.0207 45.1468C34.182 45.3172 34.2514 45.5229 34.2286 45.7638C34.215 45.9275 34.1593 46.0763 34.0616 46.2104C33.9661 46.3445 33.8479 46.4513 33.707 46.5309C33.5661 46.6104 33.4195 46.6502 33.2673 46.6502ZM38.9707 48.8252L36.9729 41.8434H38.5854L39.7411 46.6945H39.7991L41.0741 41.8434H42.4548L43.7264 46.7047H43.7877L44.9434 41.8434H46.5559L44.5582 48.8252H43.1195L41.79 44.2604H41.7355L40.4093 48.8252H38.9707ZM47.346 48.8252V41.8434H48.8221V44.7241H51.8187V41.8434H53.2914V48.8252H51.8187V45.9411H48.8221V48.8252H47.346ZM55.7119 48.8252H54.1301L56.5403 41.8434H58.4426L60.8494 48.8252H59.2676L57.5187 43.4388H57.4642L55.7119 48.8252ZM55.613 46.0809H59.3494V47.2331H55.613V46.0809ZM61.6897 48.8252V41.8434H63.1659V47.6081H66.1591V48.8252H61.6897ZM67.1366 48.8252V41.8434H71.8412V43.0604H68.6128V44.7241H71.5991V45.9411H68.6128V47.6081H71.8548V48.8252H67.1366ZM75.9329 46.6502C75.6852 46.6502 75.4829 46.5638 75.3261 46.3911C75.1693 46.2184 75.1011 46.0093 75.1216 45.7638C75.1443 45.5229 75.2511 45.3172 75.442 45.1468C75.6329 44.9763 75.8511 44.8911 76.0966 44.8911C76.3307 44.8911 76.5273 44.9763 76.6863 45.1468C76.8477 45.3172 76.917 45.5229 76.8943 45.7638C76.8807 45.9275 76.825 46.0763 76.7273 46.2104C76.6318 46.3445 76.5136 46.4513 76.3727 46.5309C76.2318 46.6104 76.0852 46.6502 75.9329 46.6502Z" fill="white"/>
<path d="M35.792 21.455L34.7165 23.7192L36.1864 25.7496L33.9222 24.6741L31.8918 26.144L32.9673 23.8798L31.4974 21.8494L33.7616 22.9249L35.792 21.455Z" fill="white"/>
<path d="M72.6223 28.7011L71.5468 30.9653L73.0167 32.9957L70.7526 31.9202L68.7221 33.3901L69.7977 31.1259L68.3277 29.0955L70.5919 30.171L72.6223 28.7011Z" fill="white"/>
<path d="M73.1845 11.8275L72.532 13.2011L73.4237 14.4328L72.0502 13.7804L70.8185 14.6721L71.4709 13.2985L70.5792 12.0668L71.9527 12.7193L73.1845 11.8275Z" fill="white"/>
<defs>
<linearGradient id="paint0_linear_10289_25363" x1="54.121" y1="2.59961" x2="54.121" y2="88.9395" gradientUnits="userSpaceOnUse">
<stop stop-color="#232859"/>
<stop offset="1" stop-color="#232859"/>
</linearGradient>
<linearGradient id="paint1_linear_10289_25363" x1="16.2547" y1="-4.59539" x2="95.4987" y2="2.7268" gradientUnits="userSpaceOnUse">
<stop offset="0.0985558" stop-color="#70EEFF"/>
<stop offset="1" stop-color="#6B83FF"/>
</linearGradient>
<linearGradient id="paint2_linear_10289_25363" x1="19.3702" y1="-0.318253" x2="91.8338" y2="6.41749" gradientUnits="userSpaceOnUse">
<stop offset="0.0985558" stop-color="#70EEFF"/>
<stop offset="1" stop-color="#6B83FF"/>
</linearGradient>
<linearGradient id="paint3_linear_10289_25363" x1="42.686" y1="9.71424" x2="65.9362" y2="12.0532" gradientUnits="userSpaceOnUse">
<stop offset="0.0985558" stop-color="#70EEFF"/>
<stop offset="1" stop-color="#6B83FF"/>
</linearGradient>
<linearGradient id="paint4_linear_10289_25363" x1="42.686" y1="9.71424" x2="65.9362" y2="12.0532" gradientUnits="userSpaceOnUse">
<stop offset="0.0985558" stop-color="#70EEFF"/>
<stop offset="1" stop-color="#6B83FF"/>
</linearGradient>
<linearGradient id="paint5_linear_10289_25363" x1="47.2255" y1="62.5268" x2="60.7302" y2="63.9827" gradientUnits="userSpaceOnUse">
<stop offset="0.0985558" stop-color="#D8FF20"/>
<stop offset="1" stop-color="#99F7F4"/>
</linearGradient>
<linearGradient id="paint6_linear_10289_25363" x1="31.5273" y1="55.9332" x2="45.0168" y2="57.4566" gradientUnits="userSpaceOnUse">
<stop offset="0.0985558" stop-color="#D8FF20"/>
<stop offset="1" stop-color="#99F7F4"/>
</linearGradient>
<linearGradient id="paint7_linear_10289_25363" x1="-3.46291" y1="36.4674" x2="73.6619" y2="94.8246" gradientUnits="userSpaceOnUse">
<stop offset="0.0985558" stop-color="#70EEFF"/>
<stop offset="1" stop-color="#6B83FF"/>
</linearGradient>
</defs>
</svg>
