<svg width="20" height="20" viewBox="0 0 20 20" fill="none" xmlns="http://www.w3.org/2000/svg">
<path d="M7.49984 10.8332C7.96007 10.8332 8.33317 10.4601 8.33317 9.99984C8.33317 9.5396 7.96007 9.1665 7.49984 9.1665C7.0396 9.1665 6.6665 9.5396 6.6665 9.99984C6.6665 10.4601 7.0396 10.8332 7.49984 10.8332Z" stroke="#828282" stroke-width="0.75" stroke-linecap="round" stroke-linejoin="round"/>
<path d="M12.4998 10.8332C12.9601 10.8332 13.3332 10.4601 13.3332 9.99984C13.3332 9.5396 12.9601 9.1665 12.4998 9.1665C12.0396 9.1665 11.6665 9.5396 11.6665 9.99984C11.6665 10.4601 12.0396 10.8332 12.4998 10.8332Z" stroke="#828282" stroke-width="0.75" stroke-linecap="round" stroke-linejoin="round"/>
<path d="M6.25 6.25C9.16667 5.41667 10.8333 5.41667 13.75 6.25" stroke="#828282" stroke-linecap="round" stroke-linejoin="round"/>
<path d="M5.8335 13.75C8.75016 14.5833 11.2502 14.5833 14.1668 13.75" stroke="#828282" stroke-linecap="round" stroke-linejoin="round"/>
<path d="M12.9165 14.1668C12.9165 15.0002 14.1665 16.6668 14.5832 16.6668C15.8332 16.6668 16.944 15.2777 17.4998 14.1668C18.0557 12.7777 17.9165 9.306 16.2498 4.5835C15.0357 3.73766 13.7498 3.46683 12.4998 3.3335L11.6665 5.41683" stroke="#828282" stroke-linecap="round" stroke-linejoin="round"/>
<path d="M7.08343 14.1668C7.08343 15.0002 5.95343 16.6668 5.55676 16.6668C4.36593 16.6668 3.30843 15.2777 2.77926 14.1668C2.25009 12.7777 2.38259 9.306 3.96926 4.5835C5.12593 3.73766 6.28759 3.46683 7.50009 3.3335L8.33343 5.41683" stroke="#828282" stroke-linecap="round" stroke-linejoin="round"/>
</svg>
