<svg width="20" height="20" viewBox="0 0 20 20" fill="none" xmlns="http://www.w3.org/2000/svg">
<path d="M10 17.5C14.1421 17.5 17.5 14.1421 17.5 10C17.5 5.85786 14.1421 2.5 10 2.5C5.85786 2.5 2.5 5.85786 2.5 10C2.5 14.1421 5.85786 17.5 10 17.5Z" stroke="#828282" stroke-linecap="round" stroke-linejoin="round"/>
<path d="M10 14.1665V14.1748" stroke="#828282" stroke-width="1.3" stroke-linecap="round" stroke-linejoin="round"/>
<path d="M10.0002 11.25C9.98482 10.9795 10.0578 10.7113 10.2081 10.4858C10.3584 10.2604 10.5779 10.0899 10.8335 9.99998C11.1467 9.88019 11.4279 9.68934 11.6548 9.44244C11.8817 9.19554 12.0483 8.89933 12.1413 8.57713C12.2343 8.25494 12.2512 7.91555 12.1908 7.5857C12.1303 7.25584 11.9941 6.94452 11.7929 6.67624C11.5917 6.40796 11.331 6.19005 11.0312 6.03966C10.7315 5.88927 10.4009 5.81051 10.0656 5.80958C9.73025 5.80865 9.39927 5.88557 9.0987 6.0343C8.79813 6.18302 8.53619 6.39948 8.3335 6.66664" stroke="#828282" stroke-linecap="round" stroke-linejoin="round"/>
</svg>
