<svg width="20" height="20" viewBox="0 0 20 20" fill="none" xmlns="http://www.w3.org/2000/svg">
<path d="M2.5 11.6668C3.19167 12.2018 4.23083 12.5143 5.41667 12.5001C6.6025 12.5143 7.64167 12.2018 8.33333 11.6668C9.025 11.1318 10.0642 10.8193 11.25 10.8335C12.4358 10.8193 13.475 11.1318 14.1667 11.6668" stroke="#828282" stroke-linecap="round" stroke-linejoin="round"/>
<path d="M6.66678 2.5C6.40304 2.68931 6.18934 2.93998 6.04415 3.23035C5.89896 3.52073 5.82665 3.84209 5.83345 4.16667C5.82665 4.49125 5.89896 4.8126 6.04415 5.10298C6.18934 5.39336 6.40304 5.64402 6.66678 5.83333" stroke="#828282" stroke-linecap="round" stroke-linejoin="round"/>
<path d="M9.99979 2.5C9.73604 2.68931 9.52235 2.93998 9.37716 3.23035C9.23197 3.52073 9.15966 3.84209 9.16645 4.16667C9.15966 4.49125 9.23197 4.8126 9.37716 5.10298C9.52235 5.39336 9.73604 5.64402 9.99979 5.83333" stroke="#828282" stroke-linecap="round" stroke-linejoin="round"/>
<path d="M2.5 8.3335H14.1667V12.5002C14.1667 13.8262 13.6399 15.098 12.7022 16.0357C11.7645 16.9734 10.4928 17.5002 9.16667 17.5002H7.5C6.17392 17.5002 4.90215 16.9734 3.96447 16.0357C3.02678 15.098 2.5 13.8262 2.5 12.5002V8.3335Z" stroke="#828282" stroke-linecap="round" stroke-linejoin="round"/>
<path d="M13.9551 13.9385C14.3272 14.1094 14.7357 14.1862 15.1445 14.1622C15.5533 14.1382 15.9499 14.0142 16.2996 13.801C16.6492 13.5878 16.9411 13.292 17.1497 12.9396C17.3582 12.5871 17.477 12.1889 17.4955 11.7798C17.5141 11.3707 17.4319 10.9633 17.2561 10.5935C17.0803 10.2236 16.8164 9.90257 16.4875 9.6586C16.1586 9.41463 15.7748 9.25519 15.3698 9.1943C14.9649 9.1334 14.5512 9.17292 14.1651 9.30937" stroke="#828282" stroke-linecap="round" stroke-linejoin="round"/>
</svg>
