<svg width="177" height="230" viewBox="0 0 177 230" fill="none" xmlns="http://www.w3.org/2000/svg">
<g opacity="0.3">
<path d="M12.9024 1.36462C13.2436 1.36462 13.5848 1.02343 13.5848 0.682286C13.5848 0.341138 13.2436 0 12.9024 0C12.5613 0 12.2202 0.341138 12.2202 0.682286C12.2202 1.36458 12.5613 1.36462 12.9024 1.36462Z" fill="#333333"/>
<path d="M33.3768 1.36203C33.718 1.36203 33.718 1.02086 33.718 1.02086L33.3768 0.679688C33.0357 0.679688 33.0356 1.02086 33.0356 1.02086C33.0356 1.02086 33.0357 1.36203 33.3768 1.36203Z" fill="#333333"/>
<path d="M53.8374 1.02086C54.1786 1.02086 54.1786 1.02086 53.8374 1.02086C54.1786 0.679708 53.8374 0.679688 53.8374 0.679688C53.8374 0.679688 53.8374 0.679708 53.8374 1.02086Z" fill="#333333"/>
<path d="M12.8996 23.2005C13.923 23.2005 14.6053 22.5182 14.6053 21.4948C14.6053 20.4714 13.923 19.7891 12.8996 19.7891C11.8761 19.7891 11.1938 20.4714 11.1938 21.4948C11.1938 22.1771 11.8761 23.2005 12.8996 23.2005Z" fill="#333333"/>
<path d="M33.3738 22.8659C34.0561 22.8659 34.7384 22.1836 34.7384 21.5013C34.7384 20.819 34.0561 20.1367 33.3738 20.1367C32.6916 20.1367 32.0093 20.819 32.0093 21.5013C32.0093 22.1836 32.6916 22.8659 33.3738 22.8659Z" fill="#333333"/>
<path d="M53.8481 22.1836C54.4133 22.1836 54.8716 21.7254 54.8716 21.1601C54.8716 20.5949 54.4133 20.1367 53.8481 20.1367C53.2829 20.1367 52.8247 20.5949 52.8247 21.1601C52.8247 21.7254 53.2829 22.1836 53.8481 22.1836Z" fill="#333333"/>
<path d="M74.3092 21.8334C74.6503 21.8334 74.9915 21.4922 74.9915 21.151C74.9915 20.8099 74.6503 20.4688 74.3092 20.4688C73.968 20.4688 73.627 20.8099 73.627 21.151C73.627 21.8333 73.968 21.8334 74.3092 21.8334Z" fill="#333333"/>
<path d="M94.7754 21.4896C95.1165 21.4896 95.1165 21.4896 94.7754 21.4896C95.1165 21.1485 94.7754 21.1484 94.7754 21.1484C94.7754 21.1484 94.7754 21.1485 94.7754 21.4896Z" fill="#333333"/>
<path d="M12.9103 44.3568C14.4176 44.3568 15.6395 43.1349 15.6395 41.6276C15.6395 40.1203 14.4176 38.8984 12.9103 38.8984C11.403 38.8984 10.1812 40.1203 10.1812 41.6276C10.1812 43.1349 11.403 44.3568 12.9103 44.3568Z" fill="#333333"/>
<path d="M33.3714 44.0066C34.6903 44.0066 35.7595 42.9374 35.7595 41.6185C35.7595 40.2996 34.6903 39.2305 33.3714 39.2305C32.0525 39.2305 30.9834 40.2996 30.9834 41.6185C30.9834 42.9374 32.0525 44.0066 33.3714 44.0066Z" fill="#333333"/>
<path d="M53.8457 44.004C54.8692 44.004 55.8926 42.9805 55.8926 41.9571C55.8926 40.9336 54.8692 39.9102 53.8457 39.9102C52.8223 39.9102 51.7988 40.9336 51.7988 41.9571C51.7988 42.9805 52.8223 44.004 53.8457 44.004Z" fill="#333333"/>
<path d="M74.3063 43.3216C75.3298 43.3216 76.0121 42.6393 76.0121 41.6159C76.0121 40.5925 75.3298 39.9102 74.3063 39.9102C73.2829 39.9102 72.6006 40.5925 72.6006 41.6159C72.9417 42.6393 73.624 43.3216 74.3063 43.3216Z" fill="#333333"/>
<path d="M94.7861 42.6523C95.4684 42.6523 95.8096 42.3112 95.8096 41.6289C95.8096 40.9466 95.4684 40.6055 94.7861 40.6055C94.1038 40.6055 93.7627 40.9466 93.7627 41.6289C93.7627 42.3112 94.445 42.6523 94.7861 42.6523Z" fill="#333333"/>
<path d="M115.252 41.9674C115.441 41.9674 115.593 41.8147 115.593 41.6263C115.593 41.4379 115.441 41.2852 115.252 41.2852C115.064 41.2852 114.911 41.4379 114.911 41.6263C114.911 41.8147 115.064 41.9674 115.252 41.9674Z" fill="#333333"/>
<path d="M12.9079 66.1811C14.9548 66.1811 16.6606 64.4753 16.6606 62.4284C16.6606 60.3815 14.9548 58.6758 12.9079 58.6758C10.861 58.6758 9.15527 60.3815 9.15527 62.4284C9.15527 64.4753 10.861 66.1811 12.9079 66.1811Z" fill="#333333"/>
<path d="M33.3685 65.8425C35.4154 65.8425 36.78 64.1368 36.78 62.431C36.78 60.7253 35.0743 59.0195 33.3685 59.0195C31.3216 59.0195 29.957 60.7253 29.957 62.431C29.957 64.1368 31.3216 65.8425 33.3685 65.8425Z" fill="#333333"/>
<path d="M53.8428 65.5078C55.5485 65.5078 56.9131 64.1432 56.9131 62.4375C56.9131 60.7318 55.5485 59.3672 53.8428 59.3672C52.137 59.3672 50.7725 60.7318 50.7725 62.4375C50.7725 63.8021 52.137 65.5078 53.8428 65.5078Z" fill="#333333"/>
<path d="M74.3089 64.8229C75.6735 64.8229 76.697 63.7995 76.697 62.4349C76.697 61.0703 75.6735 60.0469 74.3089 60.0469C72.9443 60.0469 71.9209 61.0703 71.9209 62.4349C71.9209 63.7995 72.9443 64.8229 74.3089 64.8229Z" fill="#333333"/>
<path d="M94.7751 64.138C95.7985 64.138 96.4808 63.4557 96.4808 62.4323C96.4808 61.4089 95.7985 60.7266 94.7751 60.7266C93.7516 60.7266 93.0693 61.4089 93.0693 62.4323C93.0693 63.1146 93.7516 64.138 94.7751 64.138Z" fill="#333333"/>
<path d="M115.255 63.1211C115.937 63.1211 116.278 62.7799 116.278 62.0976C116.278 61.4153 115.937 61.0742 115.255 61.0742C114.573 61.0742 114.231 61.4153 114.231 62.0976C114.231 62.7799 114.914 63.1211 115.255 63.1211Z" fill="#333333"/>
<path d="M135.713 62.4271C136.054 62.4271 136.054 62.4271 135.713 62.4271C136.054 62.086 135.713 62.0859 135.713 62.0859C135.713 62.0859 135.713 62.086 135.713 62.4271Z" fill="#333333"/>
<path d="M12.905 87.3373C15.5427 87.3373 17.681 85.199 17.681 82.5612C17.681 79.9235 15.5427 77.7852 12.905 77.7852C10.2672 77.7852 8.12891 79.9235 8.12891 82.5612C8.12891 85.199 10.2672 87.3373 12.905 87.3373Z" fill="#333333"/>
<path d="M33.3792 87.3347C35.7673 87.3347 37.8142 85.2878 37.8142 82.8998C37.8142 80.5117 35.7673 78.4648 33.3792 78.4648C30.9912 78.4648 28.9443 80.5117 28.9443 82.8998C28.9443 85.2878 30.9912 87.3347 33.3792 87.3347Z" fill="#333333"/>
<path d="M53.8403 86.6524C56.2283 86.6524 57.9341 84.9467 57.9341 82.5586C57.9341 80.1706 56.2283 78.4648 53.8403 78.4648C51.4523 78.4648 49.7466 80.1706 49.7466 82.5586C49.7466 84.9467 51.7934 86.6524 53.8403 86.6524Z" fill="#333333"/>
<path d="M74.3065 85.9675C76.1906 85.9675 77.718 84.4401 77.718 82.556C77.718 80.6719 76.1906 79.1445 74.3065 79.1445C72.4224 79.1445 70.895 80.6719 70.895 82.556C70.895 84.4401 72.4224 85.9675 74.3065 85.9675Z" fill="#333333"/>
<path d="M94.7781 85.2917C96.1427 85.2917 97.1662 84.2682 97.1662 82.9037C97.1662 81.5391 96.1427 80.5156 94.7781 80.5156C93.4135 80.5156 92.3901 81.5391 92.3901 82.9037C92.3901 84.2682 93.4135 85.2917 94.7781 85.2917Z" fill="#333333"/>
<path d="M115.244 84.2591C116.186 84.2591 116.95 83.4955 116.95 82.5534C116.95 81.6113 116.186 80.8477 115.244 80.8477C114.302 80.8477 113.539 81.6113 113.539 82.5534C113.539 83.4955 114.302 84.2591 115.244 84.2591Z" fill="#333333"/>
<path d="M135.715 83.2396C136.092 83.2396 136.398 82.9341 136.398 82.5573C136.398 82.1805 136.092 81.875 135.715 81.875C135.339 81.875 135.033 82.1805 135.033 82.5573C135.033 82.9341 135.339 83.2396 135.715 83.2396Z" fill="#333333"/>
<path d="M12.9025 109.173C16.314 109.173 18.702 106.444 18.702 103.374C18.702 99.9622 15.9728 97.5742 12.9025 97.5742C9.491 97.5742 7.10303 100.303 7.10303 103.374C7.10303 106.444 9.83215 109.173 12.9025 109.173Z" fill="#333333"/>
<path d="M33.3768 108.823C36.4472 108.823 38.8352 106.435 38.8352 103.365C38.8352 100.294 36.4472 97.9062 33.3768 97.9062C30.3065 97.9062 27.9185 100.294 27.9185 103.365C27.9185 106.094 30.3065 108.823 33.3768 108.823Z" fill="#333333"/>
<path d="M53.8429 107.806C56.4807 107.806 58.619 105.668 58.619 103.03C58.619 100.392 56.4807 98.2539 53.8429 98.2539C51.2052 98.2539 49.0669 100.392 49.0669 103.03C49.0669 105.668 51.2052 107.806 53.8429 107.806Z" fill="#333333"/>
<path d="M74.309 107.121C76.6971 107.121 78.4029 105.415 78.4029 103.027C78.4029 100.639 76.6971 98.9336 74.309 98.9336C71.921 98.9336 70.2153 100.639 70.2153 103.027C70.2153 105.415 72.2622 107.121 74.309 107.121Z" fill="#333333"/>
<path d="M94.7808 106.445C96.4865 106.445 97.8511 105.081 97.8511 103.375C97.8511 101.669 96.4865 100.305 94.7808 100.305C93.075 100.305 91.7104 101.669 91.7104 103.375C91.7104 104.74 93.075 106.445 94.7808 106.445Z" fill="#333333"/>
<path d="M115.252 105.414C116.617 105.414 117.299 104.391 117.299 103.367C117.299 102.003 116.275 101.32 115.252 101.32C113.887 101.32 113.205 102.344 113.205 103.367C113.205 104.391 114.229 105.414 115.252 105.414Z" fill="#333333"/>
<path d="M135.724 104.059C136.289 104.059 136.747 103.6 136.747 103.035C136.747 102.47 136.289 102.012 135.724 102.012C135.158 102.012 134.7 102.47 134.7 103.035C134.7 103.6 135.158 104.059 135.724 104.059Z" fill="#333333"/>
<path d="M156.19 103.374C156.378 103.374 156.531 103.221 156.531 103.033C156.531 102.844 156.378 102.691 156.19 102.691C156.001 102.691 155.849 102.844 155.849 103.033C155.849 103.221 156.001 103.374 156.19 103.374Z" fill="#333333"/>
<path d="M12.9051 130.327C16.6578 130.327 19.3869 127.257 19.3869 123.845C19.3869 120.434 16.3166 117.363 12.9051 117.363C9.1525 117.363 6.42334 120.434 6.42334 123.845C6.42334 127.257 9.49365 130.327 12.9051 130.327Z" fill="#333333"/>
<path d="M33.3739 129.979C36.7854 129.979 39.8557 127.25 39.8557 123.497C39.8557 120.086 37.1265 117.016 33.3739 117.016C29.9624 117.016 26.8921 119.745 26.8921 123.497C27.2332 127.25 29.9624 129.979 33.3739 129.979Z" fill="#333333"/>
<path d="M53.8456 129.292C56.9159 129.292 59.304 126.904 59.304 123.833C59.304 120.763 56.9159 118.375 53.8456 118.375C50.7753 118.375 48.3872 120.763 48.3872 123.833C48.3872 126.563 50.7753 129.292 53.8456 129.292Z" fill="#333333"/>
<path d="M74.3172 128.272C76.7052 128.272 78.7522 126.225 78.7522 123.837C78.7522 121.449 76.7052 119.402 74.3172 119.402C71.9292 119.402 69.8823 121.449 69.8823 123.837C69.8823 126.225 71.9292 128.272 74.3172 128.272Z" fill="#333333"/>
<path d="M94.7834 127.255C96.8303 127.255 98.5361 125.549 98.5361 123.503C98.5361 121.456 96.8303 119.75 94.7834 119.75C92.7365 119.75 91.0308 121.456 91.0308 123.503C91.3719 125.549 92.7365 127.255 94.7834 127.255Z" fill="#333333"/>
<path d="M115.255 126.232C116.62 126.232 117.984 125.208 117.984 123.503C117.984 122.138 116.961 120.773 115.255 120.773C113.549 120.773 112.526 121.797 112.526 123.503C112.867 125.208 113.89 126.232 115.255 126.232Z" fill="#333333"/>
<path d="M135.713 125.201C136.737 125.201 137.419 124.518 137.419 123.495C137.419 122.471 136.737 121.789 135.713 121.789C134.69 121.789 134.007 122.471 134.007 123.495C134.348 124.518 135.031 125.201 135.713 125.201Z" fill="#333333"/>
<path d="M156.185 124.177C156.526 124.177 156.867 123.836 156.867 123.495C156.867 123.154 156.526 122.812 156.185 122.812C155.844 122.812 155.502 123.154 155.502 123.495C155.502 123.836 155.844 124.177 156.185 124.177Z" fill="#333333"/>
<path d="M12.9105 148.409C15.3598 148.409 17.3455 146.423 17.3455 143.974C17.3455 141.525 15.3598 139.539 12.9105 139.539C10.4611 139.539 8.47559 141.525 8.47559 143.974C8.47559 146.423 10.4611 148.409 12.9105 148.409Z" fill="#333333"/>
<path d="M33.3739 150.448C36.9537 150.448 39.8557 147.546 39.8557 143.966C39.8557 140.386 36.9537 137.484 33.3739 137.484C29.7941 137.484 26.8921 140.386 26.8921 143.966C26.8921 147.546 29.7941 150.448 33.3739 150.448Z" fill="#333333"/>
<path d="M53.8481 150.113C57.2395 150.113 59.9889 147.364 59.9889 143.973C59.9889 140.581 57.2395 137.832 53.8481 137.832C50.4567 137.832 47.7075 140.581 47.7075 143.973C47.7075 147.364 50.4567 150.113 53.8481 150.113Z" fill="#333333"/>
<path d="M74.3062 149.078C77.0354 149.078 79.4234 146.69 79.4234 143.961C79.4234 141.232 77.0354 138.844 74.3062 138.844C71.577 138.844 69.189 141.232 69.189 143.961C69.5301 147.031 71.577 149.078 74.3062 149.078Z" fill="#333333"/>
<path d="M94.7834 147.724C96.8559 147.724 98.5361 146.044 98.5361 143.971C98.5361 141.899 96.8559 140.219 94.7834 140.219C92.7109 140.219 91.0308 141.899 91.0308 143.971C91.0308 146.044 92.7109 147.724 94.7834 147.724Z" fill="#333333"/>
<path d="M115.255 147.037C116.961 147.037 117.984 145.672 117.984 144.307C117.984 142.602 116.62 141.578 115.255 141.578C113.549 141.578 112.526 142.943 112.526 144.307C112.526 145.672 113.89 147.037 115.255 147.037Z" fill="#333333"/>
<path d="M135.713 145.669C136.655 145.669 137.419 144.906 137.419 143.964C137.419 143.021 136.655 142.258 135.713 142.258C134.771 142.258 134.007 143.021 134.007 143.964C134.007 144.906 134.771 145.669 135.713 145.669Z" fill="#333333"/>
<path d="M156.185 144.646C156.561 144.646 156.867 144.34 156.867 143.964C156.867 143.587 156.561 143.281 156.185 143.281C155.808 143.281 155.502 143.587 155.502 143.964C155.502 144.34 155.808 144.646 156.185 144.646Z" fill="#333333"/>
<path d="M12.9048 167.852C14.6105 167.852 15.9751 166.487 15.9751 164.781C15.9751 163.076 14.6105 161.711 12.9048 161.711C11.199 161.711 9.83447 163.076 9.83447 164.781C9.83447 166.146 11.199 167.852 12.9048 167.852Z" fill="#333333"/>
<path d="M33.3794 170.582C36.7708 170.582 39.5201 167.833 39.5201 164.441C39.5201 161.05 36.7708 158.301 33.3794 158.301C29.988 158.301 27.2388 161.05 27.2388 164.441C27.2388 167.833 29.988 170.582 33.3794 170.582Z" fill="#333333"/>
<path d="M53.8481 170.914C57.2596 170.914 59.9889 168.185 59.9889 164.773C59.9889 161.362 57.2596 158.633 53.8481 158.633C50.4367 158.633 47.7075 161.362 47.7075 164.773C47.7075 167.844 50.4367 170.914 53.8481 170.914Z" fill="#333333"/>
<path d="M74.3062 169.547C77.1324 169.547 79.4234 167.256 79.4234 164.43C79.4234 161.604 77.1324 159.312 74.3062 159.312C71.48 159.312 69.189 161.604 69.189 164.43C69.189 167.256 71.48 169.547 74.3062 169.547Z" fill="#333333"/>
<path d="M94.7778 168.527C97.1658 168.527 98.8716 166.822 98.8716 164.434C98.8716 162.046 97.1658 160.34 94.7778 160.34C92.3898 160.34 90.6841 162.046 90.6841 164.434C90.6841 166.822 92.7309 168.527 94.7778 168.527Z" fill="#333333"/>
<path d="M115.25 167.508C116.945 167.508 118.32 166.133 118.32 164.438C118.32 162.742 116.945 161.367 115.25 161.367C113.554 161.367 112.179 162.742 112.179 164.438C112.179 166.133 113.554 167.508 115.25 167.508Z" fill="#333333"/>
<path d="M135.721 166.484C136.745 166.484 137.768 165.461 137.768 164.437C137.768 163.414 136.745 162.391 135.721 162.391C134.698 162.391 133.674 163.414 133.674 164.437C134.015 165.802 134.698 166.484 135.721 166.484Z" fill="#333333"/>
<path d="M156.185 165.462C156.526 165.462 156.867 165.121 156.867 164.78C156.867 164.439 156.526 164.098 156.185 164.098C155.844 164.098 155.502 164.439 155.502 164.78C155.502 165.121 155.844 165.462 156.185 165.462Z" fill="#333333"/>
<path d="M12.9105 189.346C15.2985 189.346 17.3455 187.299 17.3455 184.911C17.3455 182.523 15.2985 180.477 12.9105 180.477C10.5224 180.477 8.47559 182.523 8.47559 184.911C8.81673 187.299 10.5224 189.346 12.9105 189.346Z" fill="#333333"/>
<path d="M33.3739 191.386C36.7854 191.386 39.8557 188.656 39.8557 184.904C39.8557 181.492 37.1265 178.422 33.3739 178.422C29.6213 178.422 26.8921 181.151 26.8921 184.904C26.8921 188.656 29.9624 191.386 33.3739 191.386Z" fill="#333333"/>
<path d="M53.8481 191.051C57.2596 191.051 59.9889 188.322 59.9889 184.91C59.9889 181.499 57.2596 178.77 53.8481 178.77C50.4367 178.77 47.7075 181.499 47.7075 184.91C47.7075 188.322 50.4367 191.051 53.8481 191.051Z" fill="#333333"/>
<path d="M74.3062 190.016C77.0354 190.016 79.4234 187.628 79.4234 184.898C79.4234 182.169 77.0354 179.781 74.3062 179.781C71.577 179.781 69.189 182.169 69.189 184.898C69.5301 187.969 71.577 190.016 74.3062 190.016Z" fill="#333333"/>
<path d="M94.7778 188.996C96.8247 188.996 98.8716 187.29 98.8716 184.902C98.8716 182.855 97.1658 180.809 94.7778 180.809C92.7309 180.809 90.6841 182.514 90.6841 184.902C91.0252 187.29 92.7309 188.996 94.7778 188.996Z" fill="#333333"/>
<path d="M115.255 187.974C116.961 187.974 117.984 186.609 117.984 185.245C117.984 183.539 116.62 182.516 115.255 182.516C113.549 182.516 112.526 183.88 112.526 185.245C112.526 186.609 113.89 187.974 115.255 187.974Z" fill="#333333"/>
<path d="M135.713 186.607C136.655 186.607 137.419 185.843 137.419 184.901C137.419 183.959 136.655 183.195 135.713 183.195C134.771 183.195 134.007 183.959 134.007 184.901C134.007 185.843 134.771 186.607 135.713 186.607Z" fill="#333333"/>
<path d="M156.185 185.931C156.526 185.931 156.867 185.59 156.867 185.249C156.867 184.908 156.526 184.566 156.185 184.566C155.844 184.566 155.502 184.908 155.502 185.249C155.502 185.59 155.844 185.931 156.185 185.931Z" fill="#333333"/>
<path d="M12.9051 211.854C16.3166 211.854 19.3869 209.125 19.3869 205.372C19.3869 201.961 16.6578 198.891 12.9051 198.891C9.1525 198.891 6.42334 201.62 6.42334 205.372C6.42334 209.125 9.49365 211.854 12.9051 211.854Z" fill="#333333"/>
<path d="M33.3739 211.854C36.7854 211.854 39.8557 209.125 39.8557 205.372C39.8557 201.961 37.1265 198.891 33.3739 198.891C29.6213 198.891 26.8921 201.62 26.8921 205.372C26.8921 209.125 29.9624 211.854 33.3739 211.854Z" fill="#333333"/>
<path d="M53.8456 210.835C56.8602 210.835 59.304 208.391 59.304 205.376C59.304 202.362 56.8602 199.918 53.8456 199.918C50.831 199.918 48.3872 202.362 48.3872 205.376C48.3872 208.391 50.831 210.835 53.8456 210.835Z" fill="#333333"/>
<path d="M74.3117 210.15C76.9495 210.15 79.0878 208.011 79.0878 205.374C79.0878 202.736 76.9495 200.598 74.3117 200.598C71.6739 200.598 69.5356 202.736 69.5356 205.374C69.5356 208.011 71.6739 210.15 74.3117 210.15Z" fill="#333333"/>
<path d="M94.7834 209.13C96.8303 209.13 98.5361 207.424 98.5361 205.378C98.5361 203.331 96.8303 201.625 94.7834 201.625C92.7365 201.625 91.0308 203.331 91.0308 205.378C91.3719 207.424 92.7365 209.13 94.7834 209.13Z" fill="#333333"/>
<path d="M115.255 208.107C116.62 208.107 117.984 206.742 117.984 205.378C117.984 204.013 116.62 202.648 115.255 202.648C113.89 202.648 112.526 204.013 112.526 205.378C112.526 207.083 113.89 208.107 115.255 208.107Z" fill="#333333"/>
<path d="M135.713 207.076C136.737 207.076 137.419 206.393 137.419 205.37C137.419 204.346 136.737 203.664 135.713 203.664C134.69 203.664 134.007 204.346 134.007 205.37C134.348 206.393 135.031 207.076 135.713 207.076Z" fill="#333333"/>
<path d="M156.185 206.052C156.526 206.052 156.867 205.711 156.867 205.37C156.867 205.029 156.526 204.688 156.185 204.688C155.844 204.688 155.502 205.029 155.502 205.37C155.502 205.711 155.844 206.052 156.185 206.052Z" fill="#333333"/>
<path d="M12.9102 231.988C16.3216 231.988 19.0509 229.259 19.0509 225.848C19.0509 222.436 16.3216 219.707 12.9102 219.707C9.49868 219.707 6.76953 222.436 6.76953 225.848C6.76953 229.259 9.49868 231.988 12.9102 231.988Z" fill="#333333"/>
<path d="M33.3769 231.303C36.3914 231.303 38.8352 228.86 38.8352 225.845C38.8352 222.83 36.3914 220.387 33.3769 220.387C30.3623 220.387 27.9185 222.83 27.9185 225.845C27.9185 228.86 30.3623 231.303 33.3769 231.303Z" fill="#333333"/>
<path d="M53.8429 230.966C56.5721 230.966 58.619 228.919 58.619 226.19C58.619 223.461 56.5721 221.414 53.8429 221.414C51.1138 221.414 49.0669 223.461 49.0669 226.19C49.0669 228.578 51.1138 230.966 53.8429 230.966Z" fill="#333333"/>
<path d="M74.309 229.934C76.6971 229.934 78.4029 228.228 78.4029 225.84C78.4029 223.452 76.6971 221.746 74.309 221.746C71.921 221.746 70.2153 223.452 70.2153 225.84C70.2153 228.228 72.2622 229.934 74.309 229.934Z" fill="#333333"/>
<path d="M94.7808 229.258C96.4865 229.258 97.8511 227.893 97.8511 226.188C97.8511 224.482 96.4865 223.117 94.7808 223.117C93.075 223.117 91.7104 224.482 91.7104 226.188C91.7104 227.893 93.075 229.258 94.7808 229.258Z" fill="#333333"/>
<path d="M115.252 228.227C116.617 228.227 117.299 227.203 117.299 226.18C117.299 224.815 116.275 224.133 115.252 224.133C113.887 224.133 113.205 225.156 113.205 226.18C113.205 227.203 114.229 228.227 115.252 228.227Z" fill="#333333"/>
<path d="M135.719 227.206C136.401 227.206 137.083 226.523 137.083 225.841C137.083 225.159 136.401 224.477 135.719 224.477C135.036 224.477 134.354 225.159 134.354 225.841C134.695 226.523 135.036 227.206 135.719 227.206Z" fill="#333333"/>
<path d="M156.19 226.186C156.378 226.186 156.531 226.033 156.531 225.845C156.531 225.657 156.378 225.504 156.19 225.504C156.001 225.504 155.849 225.657 155.849 225.845C155.849 226.033 156.001 226.186 156.19 226.186Z" fill="#333333"/>
</g>
</svg>
