<svg width="177" height="220" viewBox="0 0 177 220" fill="none" xmlns="http://www.w3.org/2000/svg">
<g opacity="0.3">
<path d="M12.902 1.36462C13.2431 1.36462 13.5843 1.02343 13.5843 0.682286C13.5843 0.341138 13.2431 0 12.902 0C12.5608 0 12.2197 0.341138 12.2197 0.682286C12.2197 1.36458 12.5608 1.36462 12.902 1.36462Z" fill="#E6EAEE"/>
<path d="M33.3763 1.36203C33.7175 1.36203 33.7175 1.02086 33.7175 1.02086L33.3763 0.679688C33.0352 0.679688 33.0352 1.02086 33.0352 1.02086C33.0352 1.02086 33.0352 1.36203 33.3763 1.36203Z" fill="#E6EAEE"/>
<path d="M53.8379 1.02086C54.179 1.02086 54.179 1.02086 53.8379 1.02086C54.179 0.679708 53.8379 0.679688 53.8379 0.679688C53.8379 0.679688 53.8379 0.679708 53.8379 1.02086Z" fill="#E6EAEE"/>
<path d="M12.9001 23.2005C13.9235 23.2005 14.6058 22.5182 14.6058 21.4948C14.6058 20.4714 13.9235 19.7891 12.9001 19.7891C11.8766 19.7891 11.1943 20.4714 11.1943 21.4948C11.1943 22.1771 11.8766 23.2005 12.9001 23.2005Z" fill="#E6EAEE"/>
<path d="M33.3743 22.8659C34.0566 22.8659 34.7389 22.1836 34.7389 21.5013C34.7389 20.819 34.0566 20.1367 33.3743 20.1367C32.692 20.1367 32.0098 20.819 32.0098 21.5013C32.0098 22.1836 32.692 22.8659 33.3743 22.8659Z" fill="#E6EAEE"/>
<path d="M53.8476 22.1836C54.4129 22.1836 54.8711 21.7254 54.8711 21.1601C54.8711 20.5949 54.4129 20.1367 53.8476 20.1367C53.2824 20.1367 52.8242 20.5949 52.8242 21.1601C52.8242 21.7254 53.2824 22.1836 53.8476 22.1836Z" fill="#E6EAEE"/>
<path d="M74.3092 21.8334C74.6503 21.8334 74.9915 21.4922 74.9915 21.151C74.9915 20.8099 74.6503 20.4688 74.3092 20.4688C73.968 20.4688 73.627 20.8099 73.627 21.151C73.627 21.8333 73.968 21.8334 74.3092 21.8334Z" fill="#E6EAEE"/>
<path d="M94.7754 21.4896C95.1165 21.4896 95.1165 21.4896 94.7754 21.4896C95.1165 21.1485 94.7754 21.1484 94.7754 21.1484C94.7754 21.1484 94.7754 21.1485 94.7754 21.4896Z" fill="#E6EAEE"/>
<path d="M12.9108 44.3568C14.4181 44.3568 15.64 43.1349 15.64 41.6276C15.64 40.1203 14.4181 38.8984 12.9108 38.8984C11.4035 38.8984 10.1816 40.1203 10.1816 41.6276C10.1816 43.1349 11.4035 44.3568 12.9108 44.3568Z" fill="#E6EAEE"/>
<path d="M33.3714 44.0066C34.6903 44.0066 35.7595 42.9374 35.7595 41.6185C35.7595 40.2996 34.6903 39.2305 33.3714 39.2305C32.0525 39.2305 30.9834 40.2996 30.9834 41.6185C30.9834 42.9374 32.0525 44.0066 33.3714 44.0066Z" fill="#E6EAEE"/>
<path d="M53.8457 44.004C54.8692 44.004 55.8926 42.9805 55.8926 41.9571C55.8926 40.9336 54.8692 39.9102 53.8457 39.9102C52.8223 39.9102 51.7988 40.9336 51.7988 41.9571C51.7988 42.9805 52.8223 44.004 53.8457 44.004Z" fill="#E6EAEE"/>
<path d="M74.3063 43.3216C75.3298 43.3216 76.0121 42.6393 76.0121 41.6159C76.0121 40.5925 75.3298 39.9102 74.3063 39.9102C73.2829 39.9102 72.6006 40.5925 72.6006 41.6159C72.9417 42.6393 73.624 43.3216 74.3063 43.3216Z" fill="#E6EAEE"/>
<path d="M94.7861 42.6523C95.4684 42.6523 95.8096 42.3112 95.8096 41.6289C95.8096 40.9466 95.4684 40.6055 94.7861 40.6055C94.1038 40.6055 93.7627 40.9466 93.7627 41.6289C93.7627 42.3112 94.445 42.6523 94.7861 42.6523Z" fill="#E6EAEE"/>
<path d="M115.252 41.9674C115.441 41.9674 115.593 41.8147 115.593 41.6263C115.593 41.4379 115.441 41.2852 115.252 41.2852C115.064 41.2852 114.911 41.4379 114.911 41.6263C114.911 41.8147 115.064 41.9674 115.252 41.9674Z" fill="#E6EAEE"/>
<path d="M12.9079 66.1811C14.9548 66.1811 16.6606 64.4753 16.6606 62.4284C16.6606 60.3815 14.9548 58.6758 12.9079 58.6758C10.861 58.6758 9.15527 60.3815 9.15527 62.4284C9.15527 64.4753 10.861 66.1811 12.9079 66.1811Z" fill="#E6EAEE"/>
<path d="M33.3685 65.8425C35.4154 65.8425 36.78 64.1368 36.78 62.431C36.78 60.7253 35.0743 59.0195 33.3685 59.0195C31.3216 59.0195 29.957 60.7253 29.957 62.431C29.957 64.1368 31.3216 65.8425 33.3685 65.8425Z" fill="#E6EAEE"/>
<path d="M53.8428 65.5078C55.5485 65.5078 56.9131 64.1432 56.9131 62.4375C56.9131 60.7318 55.5485 59.3672 53.8428 59.3672C52.137 59.3672 50.7725 60.7318 50.7725 62.4375C50.7725 63.8021 52.137 65.5078 53.8428 65.5078Z" fill="#E6EAEE"/>
<path d="M74.3089 64.8229C75.6735 64.8229 76.697 63.7995 76.697 62.4349C76.697 61.0703 75.6735 60.0469 74.3089 60.0469C72.9443 60.0469 71.9209 61.0703 71.9209 62.4349C71.9209 63.7995 72.9443 64.8229 74.3089 64.8229Z" fill="#E6EAEE"/>
<path d="M94.7751 64.138C95.7985 64.138 96.4808 63.4557 96.4808 62.4323C96.4808 61.4089 95.7985 60.7266 94.7751 60.7266C93.7516 60.7266 93.0693 61.4089 93.0693 62.4323C93.0693 63.1146 93.7516 64.138 94.7751 64.138Z" fill="#E6EAEE"/>
<path d="M115.255 63.1211C115.937 63.1211 116.278 62.7799 116.278 62.0976C116.278 61.4153 115.937 61.0742 115.255 61.0742C114.573 61.0742 114.231 61.4153 114.231 62.0976C114.231 62.7799 114.914 63.1211 115.255 63.1211Z" fill="#E6EAEE"/>
<path d="M135.713 62.4271C136.054 62.4271 136.054 62.4271 135.713 62.4271C136.054 62.086 135.713 62.0859 135.713 62.0859C135.713 62.0859 135.713 62.086 135.713 62.4271Z" fill="#E6EAEE"/>
<path d="M12.905 87.3373C15.5427 87.3373 17.681 85.199 17.681 82.5612C17.681 79.9235 15.5427 77.7852 12.905 77.7852C10.2672 77.7852 8.12891 79.9235 8.12891 82.5612C8.12891 85.199 10.2672 87.3373 12.905 87.3373Z" fill="#E6EAEE"/>
<path d="M33.3792 87.3347C35.7673 87.3347 37.8142 85.2878 37.8142 82.8998C37.8142 80.5117 35.7673 78.4648 33.3792 78.4648C30.9912 78.4648 28.9443 80.5117 28.9443 82.8998C28.9443 85.2878 30.9912 87.3347 33.3792 87.3347Z" fill="#E6EAEE"/>
<path d="M53.8398 86.6524C56.2278 86.6524 57.9336 84.9467 57.9336 82.5586C57.9336 80.1706 56.2278 78.4648 53.8398 78.4648C51.4518 78.4648 49.7461 80.1706 49.7461 82.5586C49.7461 84.9467 51.7929 86.6524 53.8398 86.6524Z" fill="#E6EAEE"/>
<path d="M74.306 85.9675C76.1901 85.9675 77.7175 84.4401 77.7175 82.556C77.7175 80.6719 76.1901 79.1445 74.306 79.1445C72.4219 79.1445 70.8945 80.6719 70.8945 82.556C70.8945 84.4401 72.4219 85.9675 74.306 85.9675Z" fill="#E6EAEE"/>
<path d="M94.7786 85.2917C96.1432 85.2917 97.1667 84.2682 97.1667 82.9037C97.1667 81.5391 96.1432 80.5156 94.7786 80.5156C93.414 80.5156 92.3906 81.5391 92.3906 82.9037C92.3906 84.2682 93.414 85.2917 94.7786 85.2917Z" fill="#E6EAEE"/>
<path d="M115.245 84.2591C116.187 84.2591 116.951 83.4955 116.951 82.5534C116.951 81.6113 116.187 80.8477 115.245 80.8477C114.303 80.8477 113.539 81.6113 113.539 82.5534C113.539 83.4955 114.303 84.2591 115.245 84.2591Z" fill="#E6EAEE"/>
<path d="M135.715 83.2396C136.092 83.2396 136.398 82.9341 136.398 82.5573C136.398 82.1805 136.092 81.875 135.715 81.875C135.339 81.875 135.033 82.1805 135.033 82.5573C135.033 82.9341 135.339 83.2396 135.715 83.2396Z" fill="#E6EAEE"/>
<path d="M12.903 109.173C16.3145 109.173 18.7025 106.444 18.7025 103.374C18.7025 99.9622 15.9733 97.5742 12.903 97.5742C9.49149 97.5742 7.10352 100.303 7.10352 103.374C7.10352 106.444 9.83264 109.173 12.903 109.173Z" fill="#E6EAEE"/>
<path d="M33.3764 108.823C36.4467 108.823 38.8348 106.435 38.8348 103.365C38.8348 100.294 36.4467 97.9062 33.3764 97.9062C30.306 97.9062 27.918 100.294 27.918 103.365C27.918 106.094 30.306 108.823 33.3764 108.823Z" fill="#E6EAEE"/>
<path d="M53.8425 107.806C56.4802 107.806 58.6185 105.668 58.6185 103.03C58.6185 100.392 56.4802 98.2539 53.8425 98.2539C51.2047 98.2539 49.0664 100.392 49.0664 103.03C49.0664 105.668 51.2047 107.806 53.8425 107.806Z" fill="#E6EAEE"/>
<path d="M74.3086 107.121C76.6966 107.121 78.4024 105.415 78.4024 103.027C78.4024 100.639 76.6966 98.9336 74.3086 98.9336C71.9205 98.9336 70.2148 100.639 70.2148 103.027C70.2148 105.415 72.2617 107.121 74.3086 107.121Z" fill="#E6EAEE"/>
<path d="M94.7813 106.445C96.487 106.445 97.8516 105.081 97.8516 103.375C97.8516 101.669 96.487 100.305 94.7813 100.305C93.0755 100.305 91.7109 101.669 91.7109 103.375C91.7109 104.74 93.0755 106.445 94.7813 106.445Z" fill="#E6EAEE"/>
<path d="M115.252 105.414C116.617 105.414 117.299 104.391 117.299 103.367C117.299 102.003 116.275 101.32 115.252 101.32C113.887 101.32 113.205 102.344 113.205 103.367C113.205 104.391 114.229 105.414 115.252 105.414Z" fill="#E6EAEE"/>
<path d="M135.724 104.059C136.289 104.059 136.747 103.6 136.747 103.035C136.747 102.47 136.289 102.012 135.724 102.012C135.158 102.012 134.7 102.47 134.7 103.035C134.7 103.6 135.158 104.059 135.724 104.059Z" fill="#E6EAEE"/>
<path d="M156.19 103.374C156.378 103.374 156.531 103.221 156.531 103.033C156.531 102.844 156.378 102.691 156.19 102.691C156.001 102.691 155.849 102.844 155.849 103.033C155.849 103.221 156.001 103.374 156.19 103.374Z" fill="#E6EAEE"/>
<path d="M12.9056 130.327C16.6583 130.327 19.3874 127.257 19.3874 123.845C19.3874 120.434 16.3171 117.363 12.9056 117.363C9.15299 117.363 6.42383 120.434 6.42383 123.845C6.42383 127.257 9.49414 130.327 12.9056 130.327Z" fill="#E6EAEE"/>
<path d="M33.3744 129.979C36.7859 129.979 39.8562 127.25 39.8562 123.497C39.8562 120.086 37.127 117.016 33.3744 117.016C29.9629 117.016 26.8926 119.745 26.8926 123.497C27.2337 127.25 29.9629 129.979 33.3744 129.979Z" fill="#E6EAEE"/>
<path d="M53.8451 129.292C56.9154 129.292 59.3035 126.904 59.3035 123.833C59.3035 120.763 56.9154 118.375 53.8451 118.375C50.7748 118.375 48.3867 120.763 48.3867 123.833C48.3867 126.563 50.7748 129.292 53.8451 129.292Z" fill="#E6EAEE"/>
<path d="M74.3177 128.272C76.7057 128.272 78.7527 126.225 78.7527 123.837C78.7527 121.449 76.7057 119.402 74.3177 119.402C71.9297 119.402 69.8828 121.449 69.8828 123.837C69.8828 126.225 71.9297 128.272 74.3177 128.272Z" fill="#E6EAEE"/>
<path d="M94.7839 127.255C96.8308 127.255 98.5366 125.549 98.5366 123.503C98.5366 121.456 96.8308 119.75 94.7839 119.75C92.737 119.75 91.0312 121.456 91.0312 123.503C91.3724 125.549 92.737 127.255 94.7839 127.255Z" fill="#E6EAEE"/>
<path d="M115.255 126.232C116.619 126.232 117.984 125.208 117.984 123.503C117.984 122.138 116.96 120.773 115.255 120.773C113.549 120.773 112.525 121.797 112.525 123.503C112.867 125.208 113.89 126.232 115.255 126.232Z" fill="#E6EAEE"/>
<path d="M135.714 125.201C136.737 125.201 137.419 124.518 137.419 123.495C137.419 122.471 136.737 121.789 135.714 121.789C134.69 121.789 134.008 122.471 134.008 123.495C134.349 124.518 135.031 125.201 135.714 125.201Z" fill="#E6EAEE"/>
<path d="M156.184 124.177C156.525 124.177 156.867 123.836 156.867 123.495C156.867 123.154 156.525 122.812 156.184 122.812C155.843 122.812 155.502 123.154 155.502 123.495C155.502 123.836 155.843 124.177 156.184 124.177Z" fill="#E6EAEE"/>
<path d="M12.9105 148.409C15.3598 148.409 17.3455 146.423 17.3455 143.974C17.3455 141.525 15.3598 139.539 12.9105 139.539C10.4611 139.539 8.47559 141.525 8.47559 143.974C8.47559 146.423 10.4611 148.409 12.9105 148.409Z" fill="#E6EAEE"/>
<path d="M33.3744 150.448C36.9542 150.448 39.8562 147.546 39.8562 143.966C39.8562 140.386 36.9542 137.484 33.3744 137.484C29.7946 137.484 26.8926 140.386 26.8926 143.966C26.8926 147.546 29.7946 150.448 33.3744 150.448Z" fill="#E6EAEE"/>
<path d="M53.8477 150.113C57.2391 150.113 59.9884 147.364 59.9884 143.973C59.9884 140.581 57.2391 137.832 53.8477 137.832C50.4563 137.832 47.707 140.581 47.707 143.973C47.707 147.364 50.4563 150.113 53.8477 150.113Z" fill="#E6EAEE"/>
<path d="M74.3067 149.078C77.0359 149.078 79.4239 146.69 79.4239 143.961C79.4239 141.232 77.0359 138.844 74.3067 138.844C71.5775 138.844 69.1895 141.232 69.1895 143.961C69.5306 147.031 71.5775 149.078 74.3067 149.078Z" fill="#E6EAEE"/>
<path d="M94.7839 147.724C96.8564 147.724 98.5366 146.044 98.5366 143.971C98.5366 141.899 96.8564 140.219 94.7839 140.219C92.7114 140.219 91.0312 141.899 91.0312 143.971C91.0312 146.044 92.7114 147.724 94.7839 147.724Z" fill="#E6EAEE"/>
<path d="M115.255 147.037C116.96 147.037 117.984 145.672 117.984 144.307C117.984 142.602 116.619 141.578 115.255 141.578C113.549 141.578 112.525 142.943 112.525 144.307C112.525 145.672 113.89 147.037 115.255 147.037Z" fill="#E6EAEE"/>
<path d="M135.714 145.669C136.656 145.669 137.419 144.906 137.419 143.964C137.419 143.021 136.656 142.258 135.714 142.258C134.771 142.258 134.008 143.021 134.008 143.964C134.008 144.906 134.771 145.669 135.714 145.669Z" fill="#E6EAEE"/>
<path d="M156.184 144.646C156.561 144.646 156.867 144.34 156.867 143.964C156.867 143.587 156.561 143.281 156.184 143.281C155.807 143.281 155.502 143.587 155.502 143.964C155.502 144.34 155.807 144.646 156.184 144.646Z" fill="#E6EAEE"/>
<path d="M12.9043 167.852C14.61 167.852 15.9746 166.487 15.9746 164.781C15.9746 163.076 14.61 161.711 12.9043 161.711C11.1986 161.711 9.83398 163.076 9.83398 164.781C9.83398 166.146 11.1986 167.852 12.9043 167.852Z" fill="#E6EAEE"/>
<path d="M33.3789 170.582C36.7703 170.582 39.5196 167.833 39.5196 164.441C39.5196 161.05 36.7703 158.301 33.3789 158.301C29.9875 158.301 27.2383 161.05 27.2383 164.441C27.2383 167.833 29.9875 170.582 33.3789 170.582Z" fill="#E6EAEE"/>
<path d="M53.8477 170.914C57.2591 170.914 59.9884 168.185 59.9884 164.773C59.9884 161.362 57.2591 158.633 53.8477 158.633C50.4362 158.633 47.707 161.362 47.707 164.773C47.707 167.844 50.4362 170.914 53.8477 170.914Z" fill="#E6EAEE"/>
<path d="M74.3067 169.547C77.1328 169.547 79.4239 167.256 79.4239 164.43C79.4239 161.604 77.1328 159.312 74.3067 159.312C71.4805 159.312 69.1895 161.604 69.1895 164.43C69.1895 167.256 71.4805 169.547 74.3067 169.547Z" fill="#E6EAEE"/>
<path d="M94.7783 168.527C97.1663 168.527 98.8721 166.822 98.8721 164.434C98.8721 162.046 97.1663 160.34 94.7783 160.34C92.3902 160.34 90.6846 162.046 90.6846 164.434C90.6846 166.822 92.7314 168.527 94.7783 168.527Z" fill="#E6EAEE"/>
<path d="M115.25 167.508C116.946 167.508 118.32 166.133 118.32 164.438C118.32 162.742 116.946 161.367 115.25 161.367C113.554 161.367 112.18 162.742 112.18 164.438C112.18 166.133 113.554 167.508 115.25 167.508Z" fill="#E6EAEE"/>
<path d="M135.721 166.484C136.744 166.484 137.768 165.461 137.768 164.437C137.768 163.414 136.744 162.391 135.721 162.391C134.697 162.391 133.674 163.414 133.674 164.437C134.015 165.802 134.697 166.484 135.721 166.484Z" fill="#E6EAEE"/>
<path d="M156.184 165.462C156.525 165.462 156.867 165.121 156.867 164.78C156.867 164.439 156.525 164.098 156.184 164.098C155.843 164.098 155.502 164.439 155.502 164.78C155.502 165.121 155.843 165.462 156.184 165.462Z" fill="#E6EAEE"/>
<path d="M12.9105 189.346C15.2985 189.346 17.3455 187.299 17.3455 184.911C17.3455 182.523 15.2985 180.477 12.9105 180.477C10.5224 180.477 8.47559 182.523 8.47559 184.911C8.81673 187.299 10.5224 189.346 12.9105 189.346Z" fill="#E6EAEE"/>
<path d="M33.3744 191.386C36.7859 191.386 39.8562 188.656 39.8562 184.904C39.8562 181.492 37.127 178.422 33.3744 178.422C29.6217 178.422 26.8926 181.151 26.8926 184.904C26.8926 188.656 29.9629 191.386 33.3744 191.386Z" fill="#E6EAEE"/>
<path d="M53.8477 191.051C57.2591 191.051 59.9884 188.322 59.9884 184.91C59.9884 181.499 57.2591 178.77 53.8477 178.77C50.4362 178.77 47.707 181.499 47.707 184.91C47.707 188.322 50.4362 191.051 53.8477 191.051Z" fill="#E6EAEE"/>
<path d="M74.3067 190.016C77.0359 190.016 79.4239 187.628 79.4239 184.898C79.4239 182.169 77.0359 179.781 74.3067 179.781C71.5775 179.781 69.1895 182.169 69.1895 184.898C69.5306 187.969 71.5775 190.016 74.3067 190.016Z" fill="#E6EAEE"/>
<path d="M94.7783 188.996C96.8252 188.996 98.8721 187.29 98.8721 184.902C98.8721 182.855 97.1663 180.809 94.7783 180.809C92.7314 180.809 90.6846 182.514 90.6846 184.902C91.0257 187.29 92.7314 188.996 94.7783 188.996Z" fill="#E6EAEE"/>
<path d="M115.255 187.974C116.96 187.974 117.984 186.609 117.984 185.245C117.984 183.539 116.619 182.516 115.255 182.516C113.549 182.516 112.525 183.88 112.525 185.245C112.525 186.609 113.89 187.974 115.255 187.974Z" fill="#E6EAEE"/>
<path d="M135.714 186.607C136.656 186.607 137.419 185.843 137.419 184.901C137.419 183.959 136.656 183.195 135.714 183.195C134.771 183.195 134.008 183.959 134.008 184.901C134.008 185.843 134.771 186.607 135.714 186.607Z" fill="#E6EAEE"/>
<path d="M156.184 185.931C156.525 185.931 156.867 185.59 156.867 185.249C156.867 184.908 156.525 184.566 156.184 184.566C155.843 184.566 155.502 184.908 155.502 185.249C155.502 185.59 155.843 185.931 156.184 185.931Z" fill="#E6EAEE"/>
<path d="M12.9056 211.854C16.3171 211.854 19.3874 209.125 19.3874 205.372C19.3874 201.961 16.6583 198.891 12.9056 198.891C9.15299 198.891 6.42383 201.62 6.42383 205.372C6.42383 209.125 9.49414 211.854 12.9056 211.854Z" fill="#E6EAEE"/>
<path d="M33.3744 211.854C36.7859 211.854 39.8562 209.125 39.8562 205.372C39.8562 201.961 37.127 198.891 33.3744 198.891C29.6217 198.891 26.8926 201.62 26.8926 205.372C26.8926 209.125 29.9629 211.854 33.3744 211.854Z" fill="#E6EAEE"/>
<path d="M53.8451 210.835C56.8597 210.835 59.3035 208.391 59.3035 205.376C59.3035 202.362 56.8597 199.918 53.8451 199.918C50.8305 199.918 48.3867 202.362 48.3867 205.376C48.3867 208.391 50.8305 210.835 53.8451 210.835Z" fill="#E6EAEE"/>
<path d="M74.3112 210.15C76.949 210.15 79.0873 208.011 79.0873 205.374C79.0873 202.736 76.949 200.598 74.3112 200.598C71.6735 200.598 69.5352 202.736 69.5352 205.374C69.5352 208.011 71.6735 210.15 74.3112 210.15Z" fill="#E6EAEE"/>
<path d="M94.7839 209.13C96.8308 209.13 98.5366 207.424 98.5366 205.378C98.5366 203.331 96.8308 201.625 94.7839 201.625C92.737 201.625 91.0312 203.331 91.0312 205.378C91.3724 207.424 92.737 209.13 94.7839 209.13Z" fill="#E6EAEE"/>
<path d="M115.255 208.107C116.619 208.107 117.984 206.742 117.984 205.378C117.984 204.013 116.619 202.648 115.255 202.648C113.89 202.648 112.525 204.013 112.525 205.378C112.525 207.083 113.89 208.107 115.255 208.107Z" fill="#E6EAEE"/>
<path d="M135.714 207.076C136.737 207.076 137.419 206.393 137.419 205.37C137.419 204.346 136.737 203.664 135.714 203.664C134.69 203.664 134.008 204.346 134.008 205.37C134.349 206.393 135.031 207.076 135.714 207.076Z" fill="#E6EAEE"/>
<path d="M156.184 206.052C156.525 206.052 156.867 205.711 156.867 205.37C156.867 205.029 156.525 204.688 156.184 204.688C155.843 204.688 155.502 205.029 155.502 205.37C155.502 205.711 155.843 206.052 156.184 206.052Z" fill="#E6EAEE"/>
<path d="M12.9102 231.988C16.3216 231.988 19.0509 229.259 19.0509 225.848C19.0509 222.436 16.3216 219.707 12.9102 219.707C9.49868 219.707 6.76953 222.436 6.76953 225.848C6.76953 229.259 9.49868 231.988 12.9102 231.988Z" fill="#E6EAEE"/>
</g>
</svg>
