<svg width="176" height="220" viewBox="0 0 176 220" fill="none" xmlns="http://www.w3.org/2000/svg">
<g opacity="0.3">
<path d="M103.024 1.02086C103.366 1.02086 103.366 1.02086 103.024 1.02086C103.366 0.679708 103.024 0.679688 103.024 0.679688C103.024 0.679688 103.024 0.679708 103.024 1.02086Z" fill="#E6EAEE"/>
<path d="M123.501 1.02994C123.69 1.02994 123.842 0.877184 123.842 0.688773C123.842 0.500362 123.69 0.347656 123.501 0.347656C123.313 0.347656 123.16 0.500362 123.16 0.688773C123.16 0.877184 123.313 1.02994 123.501 1.02994Z" fill="#E6EAEE"/>
<path d="M143.964 1.36462C144.306 1.36462 144.647 1.02343 144.647 0.682286C144.647 0.341138 144.306 0 143.964 0C143.623 0 143.282 0.341138 143.282 0.682286C143.282 1.36458 143.623 1.36462 143.964 1.36462Z" fill="#E6EAEE"/>
<path d="M164.433 1.36462C164.81 1.36462 165.116 1.05911 165.116 0.682286C165.116 0.305464 164.81 0 164.433 0C164.056 0 163.751 0.305464 163.751 0.682286C163.751 1.05911 164.056 1.36462 164.433 1.36462Z" fill="#E6EAEE"/>
<path d="M82.5582 21.8334C82.8994 21.8334 83.2405 21.4922 83.2405 21.151C83.2405 20.8099 82.8994 20.4688 82.5582 20.4688C82.2171 20.4688 81.876 20.8099 81.876 21.151C81.876 21.8333 82.2171 21.8334 82.5582 21.8334Z" fill="#E6EAEE"/>
<path d="M103.035 22.5157C103.717 22.5157 104.059 22.1745 104.059 21.4922C104.059 20.8099 103.717 20.4688 103.035 20.4688C102.353 20.4688 102.012 20.8099 102.012 21.4922C102.012 21.8334 102.353 22.5157 103.035 22.5157Z" fill="#E6EAEE"/>
<path d="M123.498 22.8659C124.181 22.8659 124.863 22.1836 124.863 21.5013C124.863 20.819 124.181 20.1367 123.498 20.1367C122.816 20.1367 122.134 20.819 122.134 21.5013C122.134 22.1836 122.816 22.8659 123.498 22.8659Z" fill="#E6EAEE"/>
<path d="M143.962 23.2005C144.986 23.2005 145.668 22.5182 145.668 21.4948C145.668 20.4714 144.986 19.7891 143.962 19.7891C142.939 19.7891 142.256 20.4714 142.256 21.4948C142.256 22.1771 142.939 23.2005 143.962 23.2005Z" fill="#E6EAEE"/>
<path d="M164.431 22.8529C165.373 22.8529 166.137 22.0892 166.137 21.1471C166.137 20.2051 165.373 19.4414 164.431 19.4414C163.489 19.4414 162.725 20.2051 162.725 21.1471C162.725 22.0892 163.489 22.8529 164.431 22.8529Z" fill="#E6EAEE"/>
<path d="M41.6172 41.9584C41.9583 41.9584 41.9583 41.9584 41.6172 41.9584C41.9583 41.6172 41.6172 41.6172 41.6172 41.6172C41.6172 41.6172 41.6172 41.6172 41.6172 41.9584Z" fill="#E6EAEE"/>
<path d="M62.0976 42.6523C62.6629 42.6523 63.1211 42.1941 63.1211 41.6289C63.1211 41.0636 62.6629 40.6055 62.0976 40.6055C61.5324 40.6055 61.0742 41.0636 61.0742 41.6289C61.0742 42.1941 61.5324 42.6523 62.0976 42.6523Z" fill="#E6EAEE"/>
<path d="M82.5554 43.3216C83.5788 43.3216 84.2611 42.6393 84.2611 41.6159C84.2611 40.5925 83.5788 39.9102 82.5554 39.9102C81.5319 39.9102 80.8496 40.5925 80.8496 41.6159C81.1908 42.6393 81.8731 43.3216 82.5554 43.3216Z" fill="#E6EAEE"/>
<path d="M103.032 43.6719C104.163 43.6719 105.079 42.7554 105.079 41.625C105.079 40.4945 104.163 39.5781 103.032 39.5781C101.902 39.5781 100.985 40.4945 100.985 41.625C100.985 42.7554 101.902 43.6719 103.032 43.6719Z" fill="#E6EAEE"/>
<path d="M123.495 44.0066C124.814 44.0066 125.883 42.9374 125.883 41.6185C125.883 40.2996 124.814 39.2305 123.495 39.2305C122.177 39.2305 121.107 40.2996 121.107 41.6185C121.107 42.9374 122.177 44.0066 123.495 44.0066Z" fill="#E6EAEE"/>
<path d="M143.972 44.6889C145.678 44.6889 146.702 43.3243 146.702 41.9597C146.702 40.2539 145.337 39.2305 143.972 39.2305C142.267 39.2305 141.243 40.5951 141.243 41.9597C141.243 43.3243 142.608 44.6889 143.972 44.6889Z" fill="#E6EAEE"/>
<path d="M164.442 44.6889C166.147 44.6889 167.171 43.3243 167.171 41.9597C167.171 40.2539 165.806 39.2305 164.442 39.2305C162.736 39.2305 161.712 40.5951 161.712 41.9597C161.712 43.3243 163.077 44.6889 164.442 44.6889Z" fill="#E6EAEE"/>
<path d="M41.6279 63.1211C42.1931 63.1211 42.6514 62.6629 42.6514 62.0976C42.6514 61.5324 42.1931 61.0742 41.6279 61.0742C41.0627 61.0742 40.6045 61.5324 40.6045 62.0976C40.6045 62.6629 41.0627 63.1211 41.6279 63.1211Z" fill="#E6EAEE"/>
<path d="M62.0866 63.7904C63.11 63.7904 63.7923 63.1081 63.7923 62.0846C63.7923 61.0612 63.11 60.3789 62.0866 60.3789C61.0632 60.3789 60.3809 61.0612 60.3809 62.0846C60.3809 63.1081 61.0632 63.7904 62.0866 63.7904Z" fill="#E6EAEE"/>
<path d="M82.5579 64.8229C83.9225 64.8229 84.946 63.7995 84.946 62.4349C84.946 61.0703 83.9225 60.0469 82.5579 60.0469C81.1933 60.0469 80.1699 61.0703 80.1699 62.4349C80.1699 63.4583 81.1933 64.8229 82.5579 64.8229Z" fill="#E6EAEE"/>
<path d="M103.029 65.1602C104.735 65.1602 106.1 63.7956 106.1 62.0898C106.1 60.3841 104.735 59.0195 103.029 59.0195C101.324 59.0195 99.959 60.3841 99.959 62.0898C99.959 63.7956 101.324 65.1602 103.029 65.1602Z" fill="#E6EAEE"/>
<path d="M123.494 65.8425C125.54 65.8425 126.905 64.1368 126.905 62.431C126.905 60.7253 125.199 59.0195 123.494 59.0195C121.447 59.0195 120.082 60.7253 120.082 62.431C120.082 64.1368 121.788 65.8425 123.494 65.8425Z" fill="#E6EAEE"/>
<path d="M143.969 66.1811C146.016 66.1811 147.722 64.4753 147.722 62.4284C147.722 60.3815 146.016 58.6758 143.969 58.6758C141.923 58.6758 140.217 60.3815 140.217 62.4284C140.217 64.4753 141.923 66.1811 143.969 66.1811Z" fill="#E6EAEE"/>
<path d="M164.434 66.1837C166.48 66.1837 168.527 64.4779 168.527 62.0899C168.527 60.043 166.822 57.9961 164.434 57.9961C162.387 57.9961 160.34 59.7018 160.34 62.0899C160.681 64.4779 162.387 66.1837 164.434 66.1837Z" fill="#E6EAEE"/>
<path d="M21.151 83.2396C21.4921 83.2396 21.8333 82.8984 21.8333 82.5573C21.8333 82.2161 21.4921 81.875 21.151 81.875C20.8098 81.875 20.4688 82.2161 20.4688 82.5573C20.4688 83.2396 20.8098 83.2396 21.151 83.2396Z" fill="#E6EAEE"/>
<path d="M41.6179 84.2591C42.6413 84.2591 43.3236 83.5768 43.3236 82.5534C43.3236 81.53 42.6413 80.8477 41.6179 80.8477C40.5944 80.8477 39.9121 81.53 39.9121 82.5534C40.2533 83.5768 40.9356 84.2591 41.6179 84.2591Z" fill="#E6EAEE"/>
<path d="M62.0891 85.2917C63.4537 85.2917 64.4772 84.2682 64.4772 82.9037C64.4772 81.5391 63.4537 80.5156 62.0891 80.5156C60.7246 80.5156 59.7012 81.5391 59.7012 82.9037C59.7012 83.9271 60.7246 85.2917 62.0891 85.2917Z" fill="#E6EAEE"/>
<path d="M82.5605 85.9766C84.2663 85.9766 85.6309 84.612 85.6309 82.9063C85.6309 81.2005 84.2663 79.8359 82.5605 79.8359C80.8548 79.8359 79.4902 81.2005 79.4902 82.9063C79.4902 84.612 80.8548 85.9766 82.5605 85.9766Z" fill="#E6EAEE"/>
<path d="M103.027 86.6524C105.074 86.6524 107.121 84.9467 107.121 82.5586C107.121 80.5117 105.415 78.4648 103.027 78.4648C100.98 78.4648 98.9336 80.1706 98.9336 82.5586C99.2747 84.9467 100.98 86.6524 103.027 86.6524Z" fill="#E6EAEE"/>
<path d="M123.503 87.3347C125.891 87.3347 127.938 85.2878 127.938 82.8998C127.938 80.5117 125.891 78.4648 123.503 78.4648C121.115 78.4648 119.068 80.5117 119.068 82.8998C119.068 85.2878 121.115 87.3347 123.503 87.3347Z" fill="#E6EAEE"/>
<path d="M143.967 87.6849C146.697 87.6849 148.744 85.6381 148.744 82.9089C148.744 80.1797 146.697 78.1328 143.967 78.1328C141.238 78.1328 139.191 80.1797 139.191 82.9089C139.191 85.2969 141.238 87.6849 143.967 87.6849Z" fill="#E6EAEE"/>
<path d="M164.431 87.6719C167.16 87.6719 169.548 85.2839 169.548 82.5547C169.548 79.8255 167.16 77.4375 164.431 77.4375C161.702 77.4375 159.313 79.8255 159.313 82.5547C159.313 85.6251 161.702 87.6719 164.431 87.6719Z" fill="#E6EAEE"/>
<path d="M0.679688 103.365C1.02084 103.365 1.02084 103.365 0.679688 103.365C1.02084 103.023 0.679688 103.023 0.679688 103.023C0.679688 103.023 0.679688 103.023 0.679688 103.365Z" fill="#E6EAEE"/>
<path d="M21.1591 104.391C21.8414 104.391 22.1827 104.05 22.1827 103.367C22.1827 102.685 21.8414 102.344 21.1591 102.344C20.4768 102.344 20.1357 102.685 20.1357 103.367C20.1357 103.708 20.4768 104.391 21.1591 104.391Z" fill="#E6EAEE"/>
<path d="M41.625 105.078C42.7555 105.078 43.6719 104.162 43.6719 103.031C43.6719 101.901 42.7555 100.984 41.625 100.984C40.4946 100.984 39.5781 101.901 39.5781 103.031C39.5781 104.162 40.4946 105.078 41.625 105.078Z" fill="#E6EAEE"/>
<path d="M62.0918 106.102C63.7975 106.102 65.1621 104.737 65.1621 103.031C65.1621 101.326 63.7975 99.9609 62.0918 99.9609C60.3861 99.9609 59.0215 101.326 59.0215 103.031C59.0215 104.737 60.3861 106.102 62.0918 106.102Z" fill="#E6EAEE"/>
<path d="M82.5576 107.121C84.6045 107.121 86.6514 105.415 86.6514 103.027C86.6514 100.98 84.9456 98.9336 82.5576 98.9336C80.5107 98.9336 78.4639 100.639 78.4639 103.027C78.805 105.415 80.5107 107.121 82.5576 107.121Z" fill="#E6EAEE"/>
<path d="M103.03 107.806C105.759 107.806 107.806 105.759 107.806 103.03C107.806 100.301 105.759 98.2539 103.03 98.2539C100.301 98.2539 98.2539 100.301 98.2539 103.03C98.2539 105.759 100.301 107.806 103.03 107.806Z" fill="#E6EAEE"/>
<path d="M123.501 108.491C126.572 108.491 128.96 106.103 128.96 103.033C128.96 99.9622 126.572 97.5742 123.501 97.5742C120.431 97.5742 118.043 99.9622 118.043 103.033C118.043 106.103 120.431 108.491 123.501 108.491Z" fill="#E6EAEE"/>
<path d="M143.964 109.173C147.376 109.173 149.764 106.444 149.764 103.374C149.764 99.9622 147.035 97.5742 143.964 97.5742C140.553 97.5742 138.165 100.303 138.165 103.374C138.165 106.444 140.894 109.173 143.964 109.173Z" fill="#E6EAEE"/>
<path d="M164.441 109.176C167.853 109.176 170.582 106.447 170.582 103.035C170.582 99.6237 167.853 96.8945 164.441 96.8945C161.03 96.8945 158.301 99.6237 158.301 103.035C158.301 106.447 161.03 109.176 164.441 109.176Z" fill="#E6EAEE"/>
<path d="M0.687849 123.842C0.87626 123.842 1.02902 123.69 1.02902 123.501C1.02902 123.313 0.87626 123.16 0.687849 123.16C0.499438 123.16 0.34668 123.313 0.34668 123.501C0.34668 123.69 0.499438 123.842 0.687849 123.842Z" fill="#E6EAEE"/>
<path d="M21.1536 125.21C21.8359 125.21 22.5182 124.527 22.5182 123.845C22.5182 123.163 21.8359 122.48 21.1536 122.48C20.4713 122.48 19.7891 123.163 19.7891 123.845C19.7891 124.527 20.4713 125.21 21.1536 125.21Z" fill="#E6EAEE"/>
<path d="M41.6204 125.885C42.9393 125.885 44.0085 124.816 44.0085 123.497C44.0085 122.179 42.9393 121.109 41.6204 121.109C40.3015 121.109 39.2324 122.179 39.2324 123.497C39.2324 124.816 40.3015 125.885 41.6204 125.885Z" fill="#E6EAEE"/>
<path d="M62.0863 127.253C64.1332 127.253 65.4978 125.547 65.4978 123.841C65.4978 122.135 63.792 120.43 62.0863 120.43C60.0394 120.43 58.6748 122.135 58.6748 123.841C58.6748 125.547 60.3805 127.253 62.0863 127.253Z" fill="#E6EAEE"/>
<path d="M82.5657 128.272C84.9538 128.272 87.0007 126.225 87.0007 123.837C87.0007 121.449 84.9538 119.402 82.5657 119.402C80.1777 119.402 78.1309 121.449 78.1309 123.837C78.1309 126.225 80.1777 128.272 82.5657 128.272Z" fill="#E6EAEE"/>
<path d="M103.033 128.96C106.103 128.96 108.491 126.572 108.491 123.501C108.491 120.431 106.103 118.043 103.033 118.043C99.9623 118.043 97.5742 120.431 97.5742 123.501C97.5742 126.572 99.9623 128.96 103.033 128.96Z" fill="#E6EAEE"/>
<path d="M123.504 129.645C126.895 129.645 129.645 126.895 129.645 123.504C129.645 120.113 126.895 117.363 123.504 117.363C120.113 117.363 117.363 120.113 117.363 123.504C117.363 126.895 120.113 129.645 123.504 129.645Z" fill="#E6EAEE"/>
<path d="M143.967 130.327C147.72 130.327 150.449 127.257 150.449 123.845C150.449 120.434 147.379 117.363 143.967 117.363C140.215 117.363 137.485 120.434 137.485 123.845C137.485 127.257 140.556 130.327 143.967 130.327Z" fill="#E6EAEE"/>
<path d="M164.441 129.977C167.853 129.977 170.582 127.247 170.582 123.836C170.582 120.425 167.853 117.695 164.441 117.695C161.03 117.695 158.301 120.425 158.301 123.836C158.301 126.906 161.03 129.977 164.441 129.977Z" fill="#E6EAEE"/>
<path d="M0.682234 144.646C1.02338 144.646 1.36457 144.305 1.36457 143.964C1.36457 143.622 1.02338 143.281 0.682234 143.281C0.341086 143.281 0 143.622 0 143.964C0 144.646 0.341086 144.646 0.682234 144.646Z" fill="#E6EAEE"/>
<path d="M21.1491 146.013C22.1725 146.013 22.8548 145.331 22.8548 144.307C22.8548 143.284 22.1725 142.602 21.1491 142.602C20.1257 142.602 19.4434 143.284 19.4434 144.307C19.4434 144.99 20.1257 146.013 21.1491 146.013Z" fill="#E6EAEE"/>
<path d="M41.6276 147.037C43.3333 147.037 44.3568 145.672 44.3568 144.307C44.3568 142.602 42.9922 141.578 41.6276 141.578C39.9218 141.578 38.8984 142.943 38.8984 144.307C38.8984 145.672 40.263 147.037 41.6276 147.037Z" fill="#E6EAEE"/>
<path d="M62.0944 148.056C64.1413 148.056 65.8471 146.35 65.8471 144.303C65.8471 142.257 64.1413 140.551 62.0944 140.551C60.0476 140.551 58.3418 142.257 58.3418 144.303C58.3418 146.35 60.0476 148.056 62.0944 148.056Z" fill="#E6EAEE"/>
<path d="M82.5612 149.091C85.2904 149.091 87.3373 147.044 87.3373 144.315C87.3373 141.586 85.2904 139.539 82.5612 139.539C79.832 139.539 77.7852 141.586 77.7852 144.315C77.7852 146.703 79.832 149.091 82.5612 149.091Z" fill="#E6EAEE"/>
<path d="M103.027 150.111C106.438 150.111 108.827 147.382 108.827 144.311C108.827 140.9 106.097 138.512 103.027 138.512C99.6155 138.512 97.2275 141.241 97.2275 144.311C97.2275 147.382 99.9567 150.111 103.027 150.111Z" fill="#E6EAEE"/>
<path d="M123.498 150.796C127.251 150.796 129.98 147.725 129.98 144.314C129.98 140.902 126.91 137.832 123.498 137.832C119.746 137.832 117.017 140.902 117.017 144.314C117.017 147.725 120.087 150.796 123.498 150.796Z" fill="#E6EAEE"/>
<path d="M143.967 148.744C146.605 148.744 148.744 146.605 148.744 143.967C148.744 141.33 146.605 139.191 143.967 139.191C141.33 139.191 139.191 141.33 139.191 143.967C139.191 146.605 141.33 148.744 143.967 148.744Z" fill="#E6EAEE"/>
<path d="M164.431 147.374C166.137 147.374 167.842 146.009 167.842 143.962C167.842 142.257 166.478 140.551 164.431 140.551C162.725 140.551 161.02 141.915 161.02 143.962C161.02 146.009 162.725 147.374 164.431 147.374Z" fill="#E6EAEE"/>
<path d="M0.682234 165.115C1.05906 165.115 1.36457 164.809 1.36457 164.432C1.36457 164.055 1.05906 163.75 0.682234 163.75C0.305412 163.75 0 164.055 0 164.432C0 164.809 0.305412 165.115 0.682234 165.115Z" fill="#E6EAEE"/>
<path d="M21.1491 166.138C22.0912 166.138 22.8548 165.374 22.8548 164.432C22.8548 163.49 22.0912 162.727 21.1491 162.727C20.207 162.727 19.4434 163.49 19.4434 164.432C19.4434 165.374 20.207 166.138 21.1491 166.138Z" fill="#E6EAEE"/>
<path d="M41.6276 167.505C43.3333 167.505 44.3568 166.141 44.3568 164.776C44.3568 163.07 42.9922 162.047 41.6276 162.047C39.9218 162.047 38.8984 163.411 38.8984 164.776C38.8984 166.141 40.263 167.505 41.6276 167.505Z" fill="#E6EAEE"/>
<path d="M62.0888 168.527C64.1357 168.527 66.1827 166.822 66.1827 164.434C66.1827 162.387 64.4769 160.34 62.0888 160.34C60.0419 160.34 57.9951 162.046 57.9951 164.434C58.3363 166.822 60.0419 168.527 62.0888 168.527Z" fill="#E6EAEE"/>
<path d="M82.5547 169.547C85.2839 169.547 87.6719 167.159 87.6719 164.43C87.6719 161.701 85.2839 159.312 82.5547 159.312C79.8255 159.312 77.4375 161.701 77.4375 164.43C77.4375 167.5 79.8255 169.547 82.5547 169.547Z" fill="#E6EAEE"/>
<path d="M103.035 170.582C106.447 170.582 109.176 167.853 109.176 164.441C109.176 161.03 106.447 158.301 103.035 158.301C99.6237 158.301 96.8945 161.03 96.8945 164.441C96.8945 167.853 99.6237 170.582 103.035 170.582Z" fill="#E6EAEE"/>
<path d="M123.504 170.914C126.915 170.914 129.645 168.185 129.645 164.773C129.645 161.362 126.915 158.633 123.504 158.633C120.092 158.633 117.363 161.362 117.363 164.773C117.363 167.844 120.092 170.914 123.504 170.914Z" fill="#E6EAEE"/>
<path d="M143.962 167.842C145.668 167.842 147.374 166.478 147.374 164.431C147.374 162.725 146.009 161.02 143.962 161.02C142.257 161.02 140.551 162.384 140.551 164.431C140.551 166.478 142.257 167.842 143.962 167.842Z" fill="#E6EAEE"/>
<path d="M164.441 165.465C165.007 165.465 165.465 165.007 165.465 164.441C165.465 163.876 165.007 163.418 164.441 163.418C163.876 163.418 163.418 163.876 163.418 164.441C163.418 165.007 163.876 165.465 164.441 165.465Z" fill="#E6EAEE"/>
<path d="M0.682234 185.583C1.02338 185.583 1.36457 185.242 1.36457 184.901C1.36457 184.56 1.02338 184.219 0.682234 184.219C0.341086 184.219 0 184.56 0 184.901C0 185.583 0.341086 185.583 0.682234 185.583Z" fill="#E6EAEE"/>
<path d="M21.1491 186.951C22.1725 186.951 22.8548 186.268 22.8548 185.245C22.8548 184.221 22.1725 183.539 21.1491 183.539C20.1257 183.539 19.4434 184.221 19.4434 185.245C19.4434 185.927 20.1257 186.951 21.1491 186.951Z" fill="#E6EAEE"/>
<path d="M41.6276 187.638C43.1349 187.638 44.3568 186.416 44.3568 184.909C44.3568 183.402 43.1349 182.18 41.6276 182.18C40.1203 182.18 38.8984 183.402 38.8984 184.909C38.8984 186.416 40.1203 187.638 41.6276 187.638Z" fill="#E6EAEE"/>
<path d="M62.0944 188.994C64.1413 188.994 65.8471 187.288 65.8471 185.241C65.8471 183.194 64.1413 181.488 62.0944 181.488C60.0476 181.488 58.3418 183.194 58.3418 185.241C58.3418 187.288 60.0476 188.994 62.0944 188.994Z" fill="#E6EAEE"/>
<path d="M82.5602 189.681C85.198 189.681 87.3363 187.543 87.3363 184.905C87.3363 182.267 85.198 180.129 82.5602 180.129C79.9225 180.129 77.7842 182.267 77.7842 184.905C77.7842 187.543 79.9225 189.681 82.5602 189.681Z" fill="#E6EAEE"/>
<path d="M103.027 191.048C106.438 191.048 108.827 188.319 108.827 185.249C108.827 181.837 106.097 179.449 103.027 179.449C99.6155 179.449 97.2275 182.178 97.2275 185.249C97.2275 188.319 99.9567 191.048 103.027 191.048Z" fill="#E6EAEE"/>
<path d="M123.498 191.733C127.251 191.733 129.98 188.663 129.98 185.251C129.98 181.84 126.91 178.77 123.498 178.77C119.746 178.77 117.017 181.84 117.017 185.251C117.017 188.663 120.087 191.733 123.498 191.733Z" fill="#E6EAEE"/>
<path d="M143.972 189.346C146.421 189.346 148.407 187.361 148.407 184.911C148.407 182.462 146.421 180.477 143.972 180.477C141.523 180.477 139.537 182.462 139.537 184.911C139.537 187.361 141.523 189.346 143.972 189.346Z" fill="#E6EAEE"/>
<path d="M164.436 188.32C166.142 188.32 167.506 186.956 167.506 185.25C167.506 183.544 166.142 182.18 164.436 182.18C162.73 182.18 161.366 183.544 161.366 185.25C161.366 186.615 162.73 188.32 164.436 188.32Z" fill="#E6EAEE"/>
<path d="M0.687849 206.05C1.029 206.05 1.02902 205.708 1.02902 205.708L0.687849 205.367C0.346701 205.367 0.34668 205.708 0.34668 205.708C0.34668 205.708 0.346701 206.05 0.687849 206.05Z" fill="#E6EAEE"/>
<path d="M21.1536 207.085C21.8359 207.085 22.5182 206.402 22.5182 205.72C22.5182 205.038 21.8359 204.355 21.1536 204.355C20.4713 204.355 19.7891 205.038 19.7891 205.72C19.7891 206.402 20.4713 207.085 21.1536 207.085Z" fill="#E6EAEE"/>
<path d="M41.6204 207.76C42.9393 207.76 44.0085 206.691 44.0085 205.372C44.0085 204.054 42.9393 202.984 41.6204 202.984C40.3015 202.984 39.2324 204.054 39.2324 205.372C39.2324 206.691 40.3015 207.76 41.6204 207.76Z" fill="#E6EAEE"/>
<path d="M62.0863 209.128C64.1332 209.128 65.4978 207.422 65.4978 205.716C65.4978 204.01 63.792 202.305 62.0863 202.305C60.0394 202.305 58.6748 204.01 58.6748 205.716C58.6748 207.422 60.0394 209.128 62.0863 209.128Z" fill="#E6EAEE"/>
<path d="M82.5657 210.147C84.9538 210.147 87.0007 208.1 87.0007 205.712C87.0007 203.324 84.9538 201.277 82.5657 201.277C80.1777 201.277 78.1309 203.324 78.1309 205.712C78.1309 208.1 80.1777 210.147 82.5657 210.147Z" fill="#E6EAEE"/>
<path d="M103.033 211.167C106.103 211.167 108.491 208.779 108.491 205.708C108.491 202.638 106.103 200.25 103.033 200.25C99.9623 200.25 97.5742 202.638 97.5742 205.708C97.5742 208.438 99.9623 211.167 103.033 211.167Z" fill="#E6EAEE"/>
<path d="M123.498 211.854C126.91 211.854 129.98 209.125 129.98 205.372C129.98 201.961 127.251 198.891 123.498 198.891C120.087 198.891 117.017 201.62 117.017 205.372C117.358 209.125 120.087 211.854 123.498 211.854Z" fill="#E6EAEE"/>
<path d="M143.967 211.854C147.547 211.854 150.449 208.952 150.449 205.372C150.449 201.793 147.547 198.891 143.967 198.891C140.387 198.891 137.485 201.793 137.485 205.372C137.485 208.952 140.387 211.854 143.967 211.854Z" fill="#E6EAEE"/>
<path d="M164.441 211.52C167.833 211.52 170.582 208.77 170.582 205.379C170.582 201.988 167.833 199.238 164.441 199.238C161.05 199.238 158.301 201.988 158.301 205.379C158.301 208.77 161.05 211.52 164.441 211.52Z" fill="#E6EAEE"/>
<path d="M143.973 231.988C147.364 231.988 150.113 229.239 150.113 225.848C150.113 222.456 147.364 219.707 143.973 219.707C140.581 219.707 137.832 222.456 137.832 225.848C137.832 229.239 140.581 231.988 143.973 231.988Z" fill="#E6EAEE"/>
</g>
</svg>
