<svg width="1350" height="178" viewBox="0 0 1350 178" fill="none" xmlns="http://www.w3.org/2000/svg">
<g opacity="0.3">
<path d="M10.556 1.392C10.8965 1.392 11.237 1.04397 11.237 0.695975C11.237 0.347982 10.8965 0 10.556 0C10.2154 0 9.875 0.347982 9.875 0.695975C9.875 1.39196 10.2154 1.392 10.556 1.392Z" fill="#E6EAEE"/>
<path d="M30.9929 1.38914C31.3334 1.38914 31.3334 1.04113 31.3334 1.04113L30.9929 0.693115C30.6524 0.693115 30.6523 1.04113 30.6523 1.04113C30.6523 1.04113 30.6524 1.38914 30.9929 1.38914Z" fill="#E6EAEE"/>
<path d="M51.4141 1.04181C51.7552 1.04181 51.7552 1.04181 51.4141 1.04181C51.7552 0.693137 51.4141 0.693115 51.4141 0.693115C51.4141 0.693115 51.4141 0.693137 51.4141 1.04181Z" fill="#E6EAEE"/>
<path d="M10.5541 23.6662C11.5757 23.6662 12.2567 22.9702 12.2567 21.9262C12.2567 20.8823 11.5757 20.1863 10.5541 20.1863C9.53259 20.1863 8.85156 20.8823 8.85156 21.9262C8.85156 22.6222 9.53259 23.6662 10.5541 23.6662Z" fill="#E6EAEE"/>
<path d="M30.9909 23.3247C31.672 23.3247 32.353 22.6287 32.353 21.9327C32.353 21.2367 31.672 20.5408 30.9909 20.5408C30.3099 20.5408 29.6289 21.2367 29.6289 21.9327C29.6289 22.6287 30.3099 23.3247 30.9909 23.3247Z" fill="#E6EAEE"/>
<path d="M51.4277 22.6287C51.9919 22.6287 52.4493 22.1613 52.4493 21.5847C52.4493 21.0081 51.9919 20.5408 51.4277 20.5408C50.8636 20.5408 50.4062 21.0081 50.4062 21.5847C50.4062 22.1613 50.8636 22.6287 51.4277 22.6287Z" fill="#E6EAEE"/>
<path d="M71.8489 22.2716C72.1894 22.2716 72.53 21.9236 72.53 21.5756C72.53 21.2276 72.1894 20.8796 71.8489 20.8796C71.5084 20.8796 71.168 21.2276 71.168 21.5756C71.168 22.2716 71.5084 22.2716 71.8489 22.2716Z" fill="#E6EAEE"/>
<path d="M92.2773 21.9217C92.6185 21.9217 92.6185 21.9217 92.2773 21.9217C92.6185 21.573 92.2773 21.573 92.2773 21.573C92.2773 21.573 92.2773 21.573 92.2773 21.9217Z" fill="#E6EAEE"/>
<path d="M10.5639 45.2468C12.0684 45.2468 13.288 44.0004 13.288 42.4629C13.288 40.9253 12.0684 39.679 10.5639 39.679C9.05942 39.679 7.83984 40.9253 7.83984 42.4629C7.83984 44.0004 9.05942 45.2468 10.5639 45.2468Z" fill="#E6EAEE"/>
<path d="M30.989 44.8895C32.3054 44.8895 33.3726 43.7989 33.3726 42.4535C33.3726 41.1082 32.3054 40.0176 30.989 40.0176C29.6726 40.0176 28.6055 41.1082 28.6055 42.4535C28.6055 43.7989 29.6726 44.8895 30.989 44.8895Z" fill="#E6EAEE"/>
<path d="M51.4259 44.8869C52.4474 44.8869 53.469 43.8429 53.469 42.7989C53.469 41.7549 52.4474 40.7109 51.4259 40.7109C50.4044 40.7109 49.3828 41.7549 49.3828 42.7989C49.3828 43.8429 50.4044 44.8869 51.4259 44.8869Z" fill="#E6EAEE"/>
<path d="M71.8471 44.1909C72.8686 44.1909 73.5496 43.4949 73.5496 42.4509C73.5496 41.4069 72.8686 40.7109 71.8471 40.7109C70.8256 40.7109 70.1445 41.4069 70.1445 42.4509C70.485 43.4949 71.1661 44.1909 71.8471 44.1909Z" fill="#E6EAEE"/>
<path d="M92.2871 43.5081C92.9681 43.5081 93.3087 43.1601 93.3087 42.4641C93.3087 41.7681 92.9681 41.4202 92.2871 41.4202C91.6061 41.4202 91.2656 41.7681 91.2656 42.4641C91.2656 43.1601 91.9466 43.5081 92.2871 43.5081Z" fill="#E6EAEE"/>
<path d="M112.716 42.8093C112.904 42.8093 113.056 42.6534 113.056 42.4612C113.056 42.2691 112.904 42.1133 112.716 42.1133C112.527 42.1133 112.375 42.2691 112.375 42.4612C112.375 42.6534 112.527 42.8093 112.716 42.8093Z" fill="#E6EAEE"/>
<path d="M10.5621 67.5089C12.6051 67.5089 14.3077 65.7689 14.3077 63.681C14.3077 61.593 12.6051 59.853 10.5621 59.853C8.51898 59.853 6.81641 61.593 6.81641 63.681C6.81641 65.7689 8.51898 67.5089 10.5621 67.5089Z" fill="#E6EAEE"/>
<path d="M30.9832 67.1635C33.0263 67.1635 34.3884 65.4235 34.3884 63.6835C34.3884 61.9436 32.6858 60.2036 30.9832 60.2036C28.9402 60.2036 27.5781 61.9436 27.5781 63.6835C27.5781 65.4235 28.9402 67.1635 30.9832 67.1635Z" fill="#E6EAEE"/>
<path d="M51.4201 66.8222C53.1226 66.8222 54.4846 65.4302 54.4846 63.6903C54.4846 61.9503 53.1226 60.5583 51.4201 60.5583C49.7175 60.5583 48.3555 61.9503 48.3555 63.6903C48.3555 65.0822 49.7175 66.8222 51.4201 66.8222Z" fill="#E6EAEE"/>
<path d="M71.8484 66.1236C73.2104 66.1236 74.232 65.0796 74.232 63.6876C74.232 62.2957 73.2104 61.2517 71.8484 61.2517C70.4863 61.2517 69.4648 62.2957 69.4648 63.6876C69.4648 65.0796 70.4863 66.1236 71.8484 66.1236Z" fill="#E6EAEE"/>
<path d="M92.2768 65.4248C93.2983 65.4248 93.9793 64.7288 93.9793 63.6848C93.9793 62.6408 93.2983 61.9448 92.2768 61.9448C91.2552 61.9448 90.5742 62.6408 90.5742 63.6848C90.5742 64.3808 91.2552 65.4248 92.2768 65.4248Z" fill="#E6EAEE"/>
<path d="M112.717 64.3875C113.398 64.3875 113.738 64.0395 113.738 63.3435C113.738 62.6475 113.398 62.2996 112.717 62.2996C112.036 62.2996 111.695 62.6475 111.695 63.3435C111.695 64.0395 112.376 64.3875 112.717 64.3875Z" fill="#E6EAEE"/>
<path d="M133.141 63.6802C133.482 63.6802 133.482 63.6802 133.141 63.6802C133.482 63.3316 133.141 63.3315 133.141 63.3315C133.141 63.3315 133.141 63.3316 133.141 63.6802Z" fill="#E6EAEE"/>
<path d="M10.5601 89.0895C13.1929 89.0895 15.3272 86.9083 15.3272 84.2176C15.3272 81.5269 13.1929 79.3457 10.5601 79.3457C7.92728 79.3457 5.79297 81.5269 5.79297 84.2176C5.79297 86.9083 7.92728 89.0895 10.5601 89.0895Z" fill="#E6EAEE"/>
<path d="M30.9969 89.0869C33.3805 89.0869 35.4236 86.9989 35.4236 84.563C35.4236 82.127 33.3805 80.0391 30.9969 80.0391C28.6133 80.0391 26.5703 82.127 26.5703 84.563C26.5703 86.9989 28.6133 89.0869 30.9969 89.0869Z" fill="#E6EAEE"/>
<path d="M51.4181 88.3909C53.8017 88.3909 55.5043 86.6509 55.5043 84.215C55.5043 81.779 53.8017 80.0391 51.4181 80.0391C49.0345 80.0391 47.332 81.779 47.332 84.215C47.332 86.6509 49.375 88.3909 51.4181 88.3909Z" fill="#E6EAEE"/>
<path d="M71.8465 87.6923C73.7271 87.6923 75.2516 86.1343 75.2516 84.2123C75.2516 82.2904 73.7271 80.7324 71.8465 80.7324C69.9659 80.7324 68.4414 82.2904 68.4414 84.2123C68.4414 86.1343 69.9659 87.6923 71.8465 87.6923Z" fill="#E6EAEE"/>
<path d="M92.282 87.003C93.644 87.003 94.6656 85.959 94.6656 84.567C94.6656 83.1751 93.644 82.1311 92.282 82.1311C90.9199 82.1311 89.8984 83.1751 89.8984 84.567C89.8984 85.959 90.9199 87.003 92.282 87.003Z" fill="#E6EAEE"/>
<path d="M112.706 85.9497C113.647 85.9497 114.409 85.1706 114.409 84.2097C114.409 83.2487 113.647 82.4697 112.706 82.4697C111.766 82.4697 111.004 83.2487 111.004 84.2097C111.004 85.1706 111.766 85.9497 112.706 85.9497Z" fill="#E6EAEE"/>
<path d="M133.142 84.9096C133.518 84.9096 133.823 84.5979 133.823 84.2136C133.823 83.8292 133.518 83.5176 133.142 83.5176C132.766 83.5176 132.461 83.8292 132.461 84.2136C132.461 84.5979 132.766 84.9096 133.142 84.9096Z" fill="#E6EAEE"/>
<path d="M10.5582 111.364C13.9633 111.364 16.3469 108.58 16.3469 105.448C16.3469 101.968 13.6228 99.532 10.5582 99.532C7.15305 99.532 4.76953 102.316 4.76953 105.448C4.76953 108.58 7.49356 111.364 10.5582 111.364Z" fill="#E6EAEE"/>
<path d="M30.9951 111.006C34.0597 111.006 36.4433 108.57 36.4433 105.439C36.4433 102.307 34.0597 99.8706 30.9951 99.8706C27.9305 99.8706 25.5469 102.307 25.5469 105.439C25.5469 108.222 27.9305 111.006 30.9951 111.006Z" fill="#E6EAEE"/>
<path d="M51.4234 109.969C54.0562 109.969 56.1905 107.788 56.1905 105.097C56.1905 102.406 54.0562 100.225 51.4234 100.225C48.7906 100.225 46.6562 102.406 46.6562 105.097C46.6562 107.788 48.7906 109.969 51.4234 109.969Z" fill="#E6EAEE"/>
<path d="M71.8478 109.271C74.2314 109.271 75.934 107.531 75.934 105.095C75.934 102.659 74.2314 100.919 71.8478 100.919C69.4642 100.919 67.7617 102.659 67.7617 105.095C67.7617 107.531 69.8047 109.271 71.8478 109.271Z" fill="#E6EAEE"/>
<path d="M92.2833 108.581C93.9859 108.581 95.3479 107.189 95.3479 105.449C95.3479 103.709 93.9859 102.317 92.2833 102.317C90.5808 102.317 89.2188 103.709 89.2188 105.449C89.2188 106.841 90.5808 108.581 92.2833 108.581Z" fill="#E6EAEE"/>
<path d="M112.715 107.529C114.077 107.529 114.758 106.485 114.758 105.441C114.758 104.049 113.736 103.353 112.715 103.353C111.353 103.353 110.672 104.397 110.672 105.441C110.672 106.485 111.693 107.529 112.715 107.529Z" fill="#E6EAEE"/>
<path d="M133.15 106.146C133.715 106.146 134.172 105.679 134.172 105.102C134.172 104.526 133.715 104.058 133.15 104.058C132.586 104.058 132.129 104.526 132.129 105.102C132.129 105.679 132.586 106.146 133.15 106.146Z" fill="#E6EAEE"/>
<path d="M153.579 105.448C153.767 105.448 153.919 105.292 153.919 105.1C153.919 104.907 153.767 104.752 153.579 104.752C153.391 104.752 153.238 104.907 153.238 105.1C153.238 105.292 153.391 105.448 153.579 105.448Z" fill="#E6EAEE"/>
<path d="M10.5595 132.941C14.3052 132.941 17.0292 129.81 17.0292 126.33C17.0292 122.85 13.9647 119.718 10.5595 119.718C6.81391 119.718 4.08984 122.85 4.08984 126.33C4.08984 129.81 7.15443 132.941 10.5595 132.941Z" fill="#E6EAEE"/>
<path d="M30.9892 132.587C34.3943 132.587 37.4589 129.803 37.4589 125.975C37.4589 122.495 34.7349 119.363 30.9892 119.363C27.5841 119.363 24.5195 122.147 24.5195 125.975C24.86 129.803 27.5841 132.587 30.9892 132.587Z" fill="#E6EAEE"/>
<path d="M51.4248 131.886C54.4894 131.886 56.873 129.45 56.873 126.318C56.873 123.186 54.4894 120.75 51.4248 120.75C48.3602 120.75 45.9766 123.186 45.9766 126.318C45.9766 129.102 48.3602 131.886 51.4248 131.886Z" fill="#E6EAEE"/>
<path d="M71.8563 130.846C74.2399 130.846 76.283 128.758 76.283 126.322C76.283 123.886 74.2399 121.798 71.8563 121.798C69.4727 121.798 67.4297 123.886 67.4297 126.322C67.4297 128.758 69.4727 130.846 71.8563 130.846Z" fill="#E6EAEE"/>
<path d="M92.2847 129.808C94.3278 129.808 96.0304 128.068 96.0304 125.98C96.0304 123.893 94.3278 122.153 92.2847 122.153C90.2416 122.153 88.5391 123.893 88.5391 125.98C88.8796 128.068 90.2416 129.808 92.2847 129.808Z" fill="#E6EAEE"/>
<path d="M112.72 128.764C114.082 128.764 115.444 127.72 115.444 125.98C115.444 124.588 114.423 123.196 112.72 123.196C111.018 123.196 109.996 124.24 109.996 125.98C110.337 127.72 111.358 128.764 112.72 128.764Z" fill="#E6EAEE"/>
<path d="M133.14 127.712C134.162 127.712 134.843 127.016 134.843 125.972C134.843 124.928 134.162 124.232 133.14 124.232C132.119 124.232 131.438 124.928 131.438 125.972C131.778 127.016 132.459 127.712 133.14 127.712Z" fill="#E6EAEE"/>
<path d="M153.572 126.669C153.912 126.669 154.253 126.321 154.253 125.973C154.253 125.625 153.912 125.277 153.572 125.277C153.231 125.277 152.891 125.625 152.891 125.973C152.891 126.321 153.231 126.669 153.572 126.669Z" fill="#E6EAEE"/>
<path d="M10.5672 151.386C13.012 151.386 14.9939 149.361 14.9939 146.862C14.9939 144.364 13.012 142.339 10.5672 142.339C8.12246 142.339 6.14062 144.364 6.14062 146.862C6.14062 149.361 8.12246 151.386 10.5672 151.386Z" fill="#E6EAEE"/>
<path d="M30.9892 153.466C34.5624 153.466 37.4589 150.506 37.4589 146.855C37.4589 143.203 34.5624 140.243 30.9892 140.243C27.4161 140.243 24.5195 143.203 24.5195 146.855C24.5195 150.506 27.4161 153.466 30.9892 153.466Z" fill="#E6EAEE"/>
<path d="M51.426 153.125C54.8111 153.125 57.5553 150.321 57.5553 146.861C57.5553 143.402 54.8111 140.597 51.426 140.597C48.041 140.597 45.2969 143.402 45.2969 146.861C45.2969 150.321 48.041 153.125 51.426 153.125Z" fill="#E6EAEE"/>
<path d="M71.846 152.069C74.57 152.069 76.9536 149.633 76.9536 146.849C76.9536 144.065 74.57 141.629 71.846 141.629C69.1219 141.629 66.7383 144.065 66.7383 146.849C67.0788 149.981 69.1219 152.069 71.846 152.069Z" fill="#E6EAEE"/>
<path d="M92.2847 150.688C94.3534 150.688 96.0304 148.974 96.0304 146.86C96.0304 144.746 94.3534 143.032 92.2847 143.032C90.2161 143.032 88.5391 144.746 88.5391 146.86C88.5391 148.974 90.2161 150.688 92.2847 150.688Z" fill="#E6EAEE"/>
<path d="M112.72 149.987C114.423 149.987 115.444 148.595 115.444 147.203C115.444 145.463 114.082 144.419 112.72 144.419C111.018 144.419 109.996 145.811 109.996 147.203C109.996 148.595 111.358 149.987 112.72 149.987Z" fill="#E6EAEE"/>
<path d="M133.14 148.592C134.08 148.592 134.843 147.813 134.843 146.852C134.843 145.891 134.08 145.112 133.14 145.112C132.2 145.112 131.438 145.891 131.438 146.852C131.438 147.813 132.2 148.592 133.14 148.592Z" fill="#E6EAEE"/>
<path d="M153.572 147.548C153.948 147.548 154.253 147.236 154.253 146.852C154.253 146.468 153.948 146.156 153.572 146.156C153.195 146.156 152.891 146.468 152.891 146.852C152.891 147.236 153.195 147.548 153.572 147.548Z" fill="#E6EAEE"/>
<path d="M10.5607 171.219C12.2632 171.219 13.6253 169.827 13.6253 168.087C13.6253 166.347 12.2632 164.955 10.5607 164.955C8.85812 164.955 7.49609 166.347 7.49609 168.087C7.49609 169.479 8.85812 171.219 10.5607 171.219Z" fill="#E6EAEE"/>
<path d="M30.9964 174.005C34.3814 174.005 37.1256 171.2 37.1256 167.741C37.1256 164.281 34.3814 161.477 30.9964 161.477C27.6113 161.477 24.8672 164.281 24.8672 167.741C24.8672 171.2 27.6113 174.005 30.9964 174.005Z" fill="#E6EAEE"/>
<path d="M51.426 174.343C54.8312 174.343 57.5553 171.559 57.5553 168.079C57.5553 164.599 54.8312 161.815 51.426 161.815C48.0209 161.815 45.2969 164.599 45.2969 168.079C45.2969 171.211 48.0209 174.343 51.426 174.343Z" fill="#E6EAEE"/>
<path d="M71.846 172.949C74.6668 172.949 76.9536 170.612 76.9536 167.729C76.9536 164.846 74.6668 162.509 71.846 162.509C69.0251 162.509 66.7383 164.846 66.7383 167.729C66.7383 170.612 69.0251 172.949 71.846 172.949Z" fill="#E6EAEE"/>
<path d="M92.2814 171.908C94.665 171.908 96.3676 170.168 96.3676 167.733C96.3676 165.297 94.665 163.557 92.2814 163.557C89.8978 163.557 88.1953 165.297 88.1953 167.733C88.1953 170.168 90.2383 171.908 92.2814 171.908Z" fill="#E6EAEE"/>
<path d="M112.713 170.869C114.406 170.869 115.778 169.466 115.778 167.737C115.778 166.007 114.406 164.605 112.713 164.605C111.02 164.605 109.648 166.007 109.648 167.737C109.648 169.466 111.02 170.869 112.713 170.869Z" fill="#E6EAEE"/>
<path d="M133.145 169.825C134.166 169.825 135.188 168.781 135.188 167.737C135.188 166.693 134.166 165.649 133.145 165.649C132.123 165.649 131.102 166.693 131.102 167.737C131.442 169.129 132.123 169.825 133.145 169.825Z" fill="#E6EAEE"/>
<path d="M153.572 168.782C153.912 168.782 154.253 168.434 154.253 168.086C154.253 167.738 153.912 167.39 153.572 167.39C153.231 167.39 152.891 167.738 152.891 168.086C152.891 168.434 153.231 168.782 153.572 168.782Z" fill="#E6EAEE"/>
</g>
<g opacity="0.3">
<path d="M1278.83 1.04206C1279.17 1.04206 1279.17 1.04206 1278.83 1.04206C1279.17 0.693381 1278.83 0.693359 1278.83 0.693359C1278.83 0.693359 1278.83 0.693381 1278.83 1.04206Z" fill="#E6EAEE"/>
<path d="M1299.27 1.05047C1299.46 1.05047 1299.61 0.894644 1299.61 0.702453C1299.61 0.510262 1299.46 0.354492 1299.27 0.354492C1299.08 0.354492 1298.93 0.510262 1298.93 0.702453C1298.93 0.894644 1299.08 1.05047 1299.27 1.05047Z" fill="#E6EAEE"/>
<path d="M1319.7 1.392C1320.04 1.392 1320.38 1.04397 1320.38 0.695975C1320.38 0.347982 1320.04 0 1319.7 0C1319.36 0 1319.02 0.347982 1319.02 0.695975C1319.02 1.39196 1319.36 1.392 1319.7 1.392Z" fill="#E6EAEE"/>
<path d="M1340.13 1.392C1340.5 1.392 1340.81 1.08036 1340.81 0.695975C1340.81 0.311593 1340.5 0 1340.13 0C1339.75 0 1339.45 0.311593 1339.45 0.695975C1339.45 1.08036 1339.75 1.392 1340.13 1.392Z" fill="#E6EAEE"/>
<path d="M1258.4 22.2716C1258.74 22.2716 1259.08 21.9236 1259.08 21.5756C1259.08 21.2276 1258.74 20.8796 1258.4 20.8796C1258.06 20.8796 1257.72 21.2276 1257.72 21.5756C1257.72 22.2716 1258.06 22.2716 1258.4 22.2716Z" fill="#E6EAEE"/>
<path d="M1278.84 22.9679C1279.52 22.9679 1279.86 22.6199 1279.86 21.9239C1279.86 21.2279 1279.52 20.8799 1278.84 20.8799C1278.16 20.8799 1277.82 21.2279 1277.82 21.9239C1277.82 22.2719 1278.16 22.9679 1278.84 22.9679Z" fill="#E6EAEE"/>
<path d="M1299.27 23.3244C1299.95 23.3244 1300.63 22.6285 1300.63 21.9325C1300.63 21.2365 1299.95 20.5405 1299.27 20.5405C1298.59 20.5405 1297.91 21.2365 1297.91 21.9325C1297.91 22.6285 1298.59 23.3244 1299.27 23.3244Z" fill="#E6EAEE"/>
<path d="M1319.69 23.666C1320.72 23.666 1321.4 22.97 1321.4 21.926C1321.4 20.882 1320.72 20.186 1319.69 20.186C1318.67 20.186 1317.99 20.882 1317.99 21.926C1317.99 22.622 1318.67 23.666 1319.69 23.666Z" fill="#E6EAEE"/>
<path d="M1340.12 23.3115C1341.06 23.3115 1341.83 22.5325 1341.83 21.5715C1341.83 20.6106 1341.06 19.8315 1340.12 19.8315C1339.18 19.8315 1338.42 20.6106 1338.42 21.5715C1338.42 22.5325 1339.18 23.3115 1340.12 23.3115Z" fill="#E6EAEE"/>
<path d="M1217.54 42.8008C1217.88 42.8008 1217.88 42.8008 1217.54 42.8008C1217.88 42.4522 1217.54 42.4521 1217.54 42.4521C1217.54 42.4521 1217.54 42.4522 1217.54 42.8008Z" fill="#E6EAEE"/>
<path d="M1237.98 43.5081C1238.55 43.5081 1239 43.0407 1239 42.4641C1239 41.8875 1238.55 41.4202 1237.98 41.4202C1237.42 41.4202 1236.96 41.8875 1236.96 42.4641C1236.96 43.0407 1237.42 43.5081 1237.98 43.5081Z" fill="#E6EAEE"/>
<path d="M1258.4 44.1909C1259.42 44.1909 1260.1 43.4949 1260.1 42.4509C1260.1 41.4069 1259.42 40.7109 1258.4 40.7109C1257.38 40.7109 1256.7 41.4069 1256.7 42.4509C1257.04 43.4949 1257.72 44.1909 1258.4 44.1909Z" fill="#E6EAEE"/>
<path d="M1278.84 44.548C1279.97 44.548 1280.88 43.6131 1280.88 42.46C1280.88 41.3068 1279.97 40.3721 1278.84 40.3721C1277.71 40.3721 1276.8 41.3068 1276.8 42.46C1276.8 43.6131 1277.71 44.548 1278.84 44.548Z" fill="#E6EAEE"/>
<path d="M1299.27 44.8895C1300.58 44.8895 1301.65 43.7989 1301.65 42.4535C1301.65 41.1082 1300.58 40.0176 1299.27 40.0176C1297.95 40.0176 1296.88 41.1082 1296.88 42.4535C1296.88 43.7989 1297.95 44.8895 1299.27 44.8895Z" fill="#E6EAEE"/>
<path d="M1319.7 45.5855C1321.41 45.5855 1322.43 44.1935 1322.43 42.8015C1322.43 41.0616 1321.07 40.0176 1319.7 40.0176C1318 40.0176 1316.98 41.4096 1316.98 42.8015C1316.98 44.1935 1318.34 45.5855 1319.7 45.5855Z" fill="#E6EAEE"/>
<path d="M1340.13 45.5855C1341.84 45.5855 1342.86 44.1935 1342.86 42.8015C1342.86 41.0616 1341.5 40.0176 1340.13 40.0176C1338.43 40.0176 1337.41 41.4096 1337.41 42.8015C1337.41 44.1935 1338.77 45.5855 1340.13 45.5855Z" fill="#E6EAEE"/>
<path d="M1217.55 64.3877C1218.12 64.3877 1218.57 63.9203 1218.57 63.3437C1218.57 62.7672 1218.12 62.2998 1217.55 62.2998C1216.99 62.2998 1216.53 62.7672 1216.53 63.3437C1216.53 63.9203 1216.99 64.3877 1217.55 64.3877Z" fill="#E6EAEE"/>
<path d="M1237.97 65.0703C1238.99 65.0703 1239.67 64.3743 1239.67 63.3303C1239.67 62.2863 1238.99 61.5903 1237.97 61.5903C1236.95 61.5903 1236.27 62.2863 1236.27 63.3303C1236.27 64.3743 1236.95 65.0703 1237.97 65.0703Z" fill="#E6EAEE"/>
<path d="M1258.4 66.1233C1259.77 66.1233 1260.79 65.0794 1260.79 63.6874C1260.79 62.2954 1259.77 61.2515 1258.4 61.2515C1257.04 61.2515 1256.02 62.2954 1256.02 63.6874C1256.02 64.7314 1257.04 66.1233 1258.4 66.1233Z" fill="#E6EAEE"/>
<path d="M1278.84 66.4675C1280.54 66.4675 1281.9 65.0755 1281.9 63.3355C1281.9 61.5956 1280.54 60.2036 1278.84 60.2036C1277.14 60.2036 1275.77 61.5956 1275.77 63.3355C1275.77 65.0755 1277.14 66.4675 1278.84 66.4675Z" fill="#E6EAEE"/>
<path d="M1299.26 67.1635C1301.31 67.1635 1302.67 65.4235 1302.67 63.6835C1302.67 61.9436 1300.97 60.2036 1299.26 60.2036C1297.22 60.2036 1295.86 61.9436 1295.86 63.6835C1295.86 65.4235 1297.56 67.1635 1299.26 67.1635Z" fill="#E6EAEE"/>
<path d="M1319.7 67.5089C1321.74 67.5089 1323.44 65.7689 1323.44 63.681C1323.44 61.593 1321.74 59.853 1319.7 59.853C1317.66 59.853 1315.95 61.593 1315.95 63.681C1315.95 65.7689 1317.66 67.5089 1319.7 67.5089Z" fill="#E6EAEE"/>
<path d="M1340.13 67.5115C1342.17 67.5115 1344.21 65.7715 1344.21 63.3356C1344.21 61.2476 1342.51 59.1597 1340.13 59.1597C1338.08 59.1597 1336.04 60.8996 1336.04 63.3356C1336.38 65.7715 1338.08 67.5115 1340.13 67.5115Z" fill="#E6EAEE"/>
<path d="M1197.11 84.9096C1197.45 84.9096 1197.79 84.5615 1197.79 84.2136C1197.79 83.8656 1197.45 83.5176 1197.11 83.5176C1196.77 83.5176 1196.43 83.8656 1196.43 84.2136C1196.43 84.9095 1196.77 84.9096 1197.11 84.9096Z" fill="#E6EAEE"/>
<path d="M1217.54 85.9497C1218.56 85.9497 1219.24 85.2537 1219.24 84.2097C1219.24 83.1657 1218.56 82.4697 1217.54 82.4697C1216.52 82.4697 1215.84 83.1657 1215.84 84.2097C1216.18 85.2537 1216.86 85.9497 1217.54 85.9497Z" fill="#E6EAEE"/>
<path d="M1237.97 87.003C1239.34 87.003 1240.36 85.959 1240.36 84.567C1240.36 83.1751 1239.34 82.1311 1237.97 82.1311C1236.61 82.1311 1235.59 83.1751 1235.59 84.567C1235.59 85.611 1236.61 87.003 1237.97 87.003Z" fill="#E6EAEE"/>
<path d="M1258.41 87.7016C1260.11 87.7016 1261.47 86.3096 1261.47 84.5697C1261.47 82.8297 1260.11 81.4377 1258.41 81.4377C1256.71 81.4377 1255.34 82.8297 1255.34 84.5697C1255.34 86.3096 1256.71 87.7016 1258.41 87.7016Z" fill="#E6EAEE"/>
<path d="M1278.84 88.3909C1280.88 88.3909 1282.92 86.6509 1282.92 84.215C1282.92 82.127 1281.22 80.0391 1278.84 80.0391C1276.79 80.0391 1274.75 81.779 1274.75 84.215C1275.09 86.6509 1276.79 88.3909 1278.84 88.3909Z" fill="#E6EAEE"/>
<path d="M1299.27 89.0869C1301.66 89.0869 1303.7 86.9989 1303.7 84.563C1303.7 82.127 1301.66 80.0391 1299.27 80.0391C1296.89 80.0391 1294.85 82.127 1294.85 84.563C1294.85 86.9989 1296.89 89.0869 1299.27 89.0869Z" fill="#E6EAEE"/>
<path d="M1319.7 89.4442C1322.42 89.4442 1324.46 87.3563 1324.46 84.5723C1324.46 81.7884 1322.42 79.7004 1319.7 79.7004C1316.97 79.7004 1314.93 81.7884 1314.93 84.5723C1314.93 87.0083 1316.97 89.4442 1319.7 89.4442Z" fill="#E6EAEE"/>
<path d="M1340.12 89.431C1342.85 89.431 1345.23 86.995 1345.23 84.2111C1345.23 81.4272 1342.85 78.9912 1340.12 78.9912C1337.4 78.9912 1335.02 81.4272 1335.02 84.2111C1335.02 87.343 1337.4 89.431 1340.12 89.431Z" fill="#E6EAEE"/>
<path d="M1176.68 105.439C1177.02 105.439 1177.02 105.439 1176.68 105.439C1177.02 105.09 1176.68 105.09 1176.68 105.09C1176.68 105.09 1176.68 105.09 1176.68 105.439Z" fill="#E6EAEE"/>
<path d="M1197.12 106.485C1197.8 106.485 1198.14 106.137 1198.14 105.441C1198.14 104.745 1197.8 104.397 1197.12 104.397C1196.44 104.397 1196.1 104.745 1196.1 105.441C1196.1 105.789 1196.44 106.485 1197.12 106.485Z" fill="#E6EAEE"/>
<path d="M1217.55 107.186C1218.68 107.186 1219.59 106.252 1219.59 105.098C1219.59 103.945 1218.68 103.01 1217.55 103.01C1216.42 103.01 1215.5 103.945 1215.5 105.098C1215.5 106.252 1216.42 107.186 1217.55 107.186Z" fill="#E6EAEE"/>
<path d="M1237.97 108.23C1239.68 108.23 1241.04 106.838 1241.04 105.098C1241.04 103.358 1239.68 101.966 1237.97 101.966C1236.27 101.966 1234.91 103.358 1234.91 105.098C1234.91 106.838 1236.27 108.23 1237.97 108.23Z" fill="#E6EAEE"/>
<path d="M1258.4 109.271C1260.45 109.271 1262.49 107.531 1262.49 105.095C1262.49 103.007 1260.79 100.919 1258.4 100.919C1256.36 100.919 1254.32 102.659 1254.32 105.095C1254.66 107.531 1256.36 109.271 1258.4 109.271Z" fill="#E6EAEE"/>
<path d="M1278.84 109.969C1281.56 109.969 1283.6 107.881 1283.6 105.097C1283.6 102.313 1281.56 100.225 1278.84 100.225C1276.11 100.225 1274.07 102.313 1274.07 105.097C1274.07 107.881 1276.11 109.969 1278.84 109.969Z" fill="#E6EAEE"/>
<path d="M1299.27 110.668C1302.33 110.668 1304.72 108.232 1304.72 105.1C1304.72 101.968 1302.33 99.532 1299.27 99.532C1296.2 99.532 1293.82 101.968 1293.82 105.1C1293.82 108.232 1296.2 110.668 1299.27 110.668Z" fill="#E6EAEE"/>
<path d="M1319.69 111.364C1323.1 111.364 1325.48 108.58 1325.48 105.448C1325.48 101.968 1322.76 99.532 1319.69 99.532C1316.29 99.532 1313.91 102.316 1313.91 105.448C1313.91 108.58 1316.63 111.364 1319.69 111.364Z" fill="#E6EAEE"/>
<path d="M1340.14 111.366C1343.54 111.366 1346.27 108.582 1346.27 105.102C1346.27 101.622 1343.54 98.8384 1340.14 98.8384C1336.73 98.8384 1334.01 101.622 1334.01 105.102C1334.01 108.582 1336.73 111.366 1340.14 111.366Z" fill="#E6EAEE"/>
<path d="M1176.68 126.327C1176.87 126.327 1177.02 126.171 1177.02 125.979C1177.02 125.787 1176.87 125.631 1176.68 125.631C1176.5 125.631 1176.34 125.787 1176.34 125.979C1176.34 126.171 1176.5 126.327 1176.68 126.327Z" fill="#E6EAEE"/>
<path d="M1197.11 127.722C1197.79 127.722 1198.47 127.026 1198.47 126.33C1198.47 125.634 1197.79 124.938 1197.11 124.938C1196.43 124.938 1195.75 125.634 1195.75 126.33C1195.75 127.026 1196.43 127.722 1197.11 127.722Z" fill="#E6EAEE"/>
<path d="M1217.54 128.411C1218.86 128.411 1219.92 127.32 1219.92 125.975C1219.92 124.63 1218.86 123.539 1217.54 123.539C1216.22 123.539 1215.16 124.63 1215.16 125.975C1215.16 127.32 1216.22 128.411 1217.54 128.411Z" fill="#E6EAEE"/>
<path d="M1237.97 129.806C1240.01 129.806 1241.38 128.066 1241.38 126.326C1241.38 124.586 1239.67 122.846 1237.97 122.846C1235.93 122.846 1234.57 124.586 1234.57 126.326C1234.57 128.066 1236.27 129.806 1237.97 129.806Z" fill="#E6EAEE"/>
<path d="M1258.41 130.846C1260.79 130.846 1262.84 128.758 1262.84 126.322C1262.84 123.886 1260.79 121.798 1258.41 121.798C1256.03 121.798 1253.98 123.886 1253.98 126.322C1253.98 128.758 1256.03 130.846 1258.41 130.846Z" fill="#E6EAEE"/>
<path d="M1278.84 131.547C1281.9 131.547 1284.29 129.111 1284.29 125.979C1284.29 122.847 1281.9 120.411 1278.84 120.411C1275.77 120.411 1273.39 122.847 1273.39 125.979C1273.39 129.111 1275.77 131.547 1278.84 131.547Z" fill="#E6EAEE"/>
<path d="M1299.27 132.245C1302.66 132.245 1305.4 129.441 1305.4 125.982C1305.4 122.522 1302.66 119.718 1299.27 119.718C1295.89 119.718 1293.14 122.522 1293.14 125.982C1293.14 129.441 1295.89 132.245 1299.27 132.245Z" fill="#E6EAEE"/>
<path d="M1319.7 132.941C1323.44 132.941 1326.17 129.81 1326.17 126.33C1326.17 122.85 1323.1 119.718 1319.7 119.718C1315.95 119.718 1313.23 122.85 1313.23 126.33C1313.23 129.81 1316.29 132.941 1319.7 132.941Z" fill="#E6EAEE"/>
<path d="M1340.14 132.584C1343.54 132.584 1346.27 129.8 1346.27 126.321C1346.27 122.841 1343.54 120.057 1340.14 120.057C1336.73 120.057 1334.01 122.841 1334.01 126.321C1334.01 129.452 1336.73 132.584 1340.14 132.584Z" fill="#E6EAEE"/>
<path d="M1176.68 147.548C1177.02 147.548 1177.36 147.2 1177.36 146.852C1177.36 146.504 1177.02 146.156 1176.68 146.156C1176.34 146.156 1176 146.504 1176 146.852C1176 147.548 1176.34 147.548 1176.68 147.548Z" fill="#E6EAEE"/>
<path d="M1197.11 148.942C1198.13 148.942 1198.81 148.246 1198.81 147.202C1198.81 146.158 1198.13 145.462 1197.11 145.462C1196.09 145.462 1195.41 146.158 1195.41 147.202C1195.41 147.898 1196.09 148.942 1197.11 148.942Z" fill="#E6EAEE"/>
<path d="M1217.55 149.987C1219.25 149.987 1220.28 148.595 1220.28 147.203C1220.28 145.463 1218.91 144.419 1217.55 144.419C1215.85 144.419 1214.83 145.811 1214.83 147.203C1214.83 148.595 1216.19 149.987 1217.55 149.987Z" fill="#E6EAEE"/>
<path d="M1237.98 151.026C1240.02 151.026 1241.73 149.287 1241.73 147.199C1241.73 145.111 1240.02 143.371 1237.98 143.371C1235.94 143.371 1234.23 145.111 1234.23 147.199C1234.23 149.287 1235.94 151.026 1237.98 151.026Z" fill="#E6EAEE"/>
<path d="M1258.41 152.082C1261.13 152.082 1263.17 149.994 1263.17 147.211C1263.17 144.427 1261.13 142.339 1258.41 142.339C1255.68 142.339 1253.64 144.427 1253.64 147.211C1253.64 149.646 1255.68 152.082 1258.41 152.082Z" fill="#E6EAEE"/>
<path d="M1278.84 153.122C1282.24 153.122 1284.62 150.338 1284.62 147.206C1284.62 143.726 1281.9 141.291 1278.84 141.291C1275.43 141.291 1273.05 144.074 1273.05 147.206C1273.05 150.338 1275.77 153.122 1278.84 153.122Z" fill="#E6EAEE"/>
<path d="M1299.27 153.821C1303.01 153.821 1305.74 150.689 1305.74 147.209C1305.74 143.729 1302.67 140.597 1299.27 140.597C1295.52 140.597 1292.8 143.729 1292.8 147.209C1292.8 150.689 1295.86 153.821 1299.27 153.821Z" fill="#E6EAEE"/>
<path d="M1319.7 151.728C1322.33 151.728 1324.46 149.546 1324.46 146.856C1324.46 144.165 1322.33 141.984 1319.7 141.984C1317.06 141.984 1314.93 144.165 1314.93 146.856C1314.93 149.546 1317.06 151.728 1319.7 151.728Z" fill="#E6EAEE"/>
<path d="M1340.12 150.33C1341.83 150.33 1343.53 148.938 1343.53 146.851C1343.53 145.111 1342.17 143.371 1340.12 143.371C1338.42 143.371 1336.72 144.763 1336.72 146.851C1336.72 148.938 1338.42 150.33 1340.12 150.33Z" fill="#E6EAEE"/>
<path d="M1176.68 168.427C1177.06 168.427 1177.36 168.116 1177.36 167.731C1177.36 167.347 1177.06 167.035 1176.68 167.035C1176.3 167.035 1176 167.347 1176 167.731C1176 168.116 1176.3 168.427 1176.68 168.427Z" fill="#E6EAEE"/>
<path d="M1197.11 169.471C1198.05 169.471 1198.81 168.692 1198.81 167.731C1198.81 166.77 1198.05 165.991 1197.11 165.991C1196.17 165.991 1195.41 166.77 1195.41 167.731C1195.41 168.692 1196.17 169.471 1197.11 169.471Z" fill="#E6EAEE"/>
<path d="M1217.55 170.866C1219.25 170.866 1220.28 169.474 1220.28 168.082C1220.28 166.342 1218.91 165.298 1217.55 165.298C1215.85 165.298 1214.83 166.69 1214.83 168.082C1214.83 169.474 1216.19 170.866 1217.55 170.866Z" fill="#E6EAEE"/>
<path d="M1237.97 171.908C1240.02 171.908 1242.06 170.168 1242.06 167.733C1242.06 165.645 1240.36 163.557 1237.97 163.557C1235.93 163.557 1233.89 165.297 1233.89 167.733C1234.23 170.168 1235.93 171.908 1237.97 171.908Z" fill="#E6EAEE"/>
<path d="M1258.4 172.949C1261.12 172.949 1263.51 170.513 1263.51 167.729C1263.51 164.945 1261.12 162.509 1258.4 162.509C1255.68 162.509 1253.29 164.945 1253.29 167.729C1253.29 170.861 1255.68 172.949 1258.4 172.949Z" fill="#E6EAEE"/>
<path d="M1278.84 174.004C1282.25 174.004 1284.97 171.22 1284.97 167.74C1284.97 164.26 1282.25 161.477 1278.84 161.477C1275.43 161.477 1272.71 164.26 1272.71 167.74C1272.71 171.22 1275.43 174.004 1278.84 174.004Z" fill="#E6EAEE"/>
<path d="M1299.27 174.343C1302.68 174.343 1305.4 171.559 1305.4 168.079C1305.4 164.599 1302.68 161.815 1299.27 161.815C1295.87 161.815 1293.14 164.599 1293.14 168.079C1293.14 171.211 1295.87 174.343 1299.27 174.343Z" fill="#E6EAEE"/>
<path d="M1319.69 171.21C1321.4 171.21 1323.1 169.818 1323.1 167.73C1323.1 165.99 1321.74 164.25 1319.69 164.25C1317.99 164.25 1316.29 165.642 1316.29 167.73C1316.29 169.818 1317.99 171.21 1319.69 171.21Z" fill="#E6EAEE"/>
<path d="M1340.13 168.785C1340.7 168.785 1341.16 168.317 1341.16 167.741C1341.16 167.164 1340.7 166.697 1340.13 166.697C1339.57 166.697 1339.11 167.164 1339.11 167.741C1339.11 168.317 1339.57 168.785 1340.13 168.785Z" fill="#E6EAEE"/>
</g>
</svg>
