<svg width="24" height="24" viewBox="0 0 24 24" fill="none" xmlns="http://www.w3.org/2000/svg">
<circle cx="12" cy="12" r="12" fill="#F3BA2F"/>
<path d="M9.03148 10.7782L11.9962 7.81339L14.9624 10.7795L16.6875 9.0544L11.9962 4.36328L7.30655 9.05299L9.03154 10.778L9.03148 10.7782ZM4.36328 11.9963L6.08839 10.2709L7.81338 11.9959L6.08827 13.721L4.36328 11.9963ZM9.03148 13.2146L11.9962 16.1792L14.9624 13.2132L16.6883 14.9373L16.6875 14.9382L11.9962 19.6293L7.30655 14.9396L7.30411 14.9371L9.03166 13.2144L9.03148 13.2146ZM16.1791 11.997L17.9042 10.2719L19.6292 11.9969L17.9042 13.722L16.1791 11.997Z" fill="white"/>
<path d="M13.7431 11.9946H13.7439L11.9936 10.2441L10.6998 11.5375L10.5512 11.6862L10.2446 11.9928L10.2422 11.9952L10.2446 11.9977L11.9936 13.7469L13.744 11.9964L13.7449 11.9955L13.7433 11.9946" fill="white"/>
</svg>
