<svg width="52" height="52" viewBox="0 0 52 52" fill="none" xmlns="http://www.w3.org/2000/svg">
<rect width="52" height="52" rx="8" fill="#F7F7F7"/>
<path d="M32.5951 30.2371L27.9826 25.4784L32.6057 20.7812C32.7955 20.586 32.7955 20.2681 32.6057 20.0729L31.2908 18.7144C31.1994 18.6204 31.0764 18.5698 30.9463 18.5698C30.8162 18.5698 30.6932 18.624 30.6018 18.7144L25.9998 23.3972L21.3908 18.718C21.2994 18.624 21.1764 18.5734 21.0463 18.5734C20.9162 18.5734 20.7932 18.6276 20.7018 18.718L19.3904 20.0766C19.2006 20.2717 19.2006 20.5896 19.3904 20.7848L24.0135 25.482L19.4045 30.2371C19.3131 30.3311 19.2604 30.4575 19.2604 30.5912C19.2604 30.7249 19.3096 30.8514 19.4045 30.9453L20.7193 32.3039C20.8143 32.4015 20.9373 32.452 21.0639 32.452C21.1869 32.452 21.3135 32.4051 21.4084 32.3039L25.9998 27.5633L30.5947 32.3003C30.6896 32.3978 30.8127 32.4484 30.9393 32.4484C31.0623 32.4484 31.1889 32.4015 31.2838 32.3003L32.5986 30.9417C32.69 30.8478 32.7428 30.7213 32.7428 30.5876C32.7393 30.4575 32.6865 30.3311 32.5951 30.2371Z" fill="#828282"/>
</svg>
