<svg width="52" height="52" viewBox="0 0 52 52" fill="none" xmlns="http://www.w3.org/2000/svg">
<rect width="52" height="52" rx="8" fill="#F7F7F7"/>
<path d="M32.5932 30.2395L27.9807 25.4809L32.6037 20.7836C32.7936 20.5885 32.7936 20.2705 32.6037 20.0754L31.2889 18.7168C31.1975 18.6229 31.0744 18.5723 30.9443 18.5723C30.8143 18.5723 30.6912 18.6265 30.5998 18.7168L25.9979 23.3996L21.3889 18.7204C21.2975 18.6265 21.1744 18.5759 21.0443 18.5759C20.9143 18.5759 20.7912 18.6301 20.6998 18.7204L19.3885 20.079C19.1986 20.2741 19.1986 20.5921 19.3885 20.7872L24.0115 25.4845L19.4025 30.2395C19.3111 30.3335 19.2584 30.46 19.2584 30.5936C19.2584 30.7273 19.3076 30.8538 19.4025 30.9478L20.7174 32.3063C20.8123 32.4039 20.9354 32.4545 21.0619 32.4545C21.185 32.4545 21.3115 32.4075 21.4064 32.3063L25.9979 27.5657L30.5928 32.3027C30.6877 32.4003 30.8107 32.4509 30.9373 32.4509C31.0603 32.4509 31.1869 32.4039 31.2818 32.3027L32.5967 30.9441C32.6881 30.8502 32.7408 30.7237 32.7408 30.59C32.7373 30.46 32.6846 30.3335 32.5932 30.2395Z" fill="#828282"/>
</svg>
