<svg width="36" height="36" viewBox="0 0 36 36" fill="none" xmlns="http://www.w3.org/2000/svg">
<path d="M33.5 18C33.5 9.4402 26.5612 2.5 18 2.5C9.44017 2.5 2.5 9.44017 2.5 18C2.5 26.5605 9.44019 33.5 18 33.5C26.5612 33.5 33.5 26.5612 33.5 18Z" fill="#F5AC37" stroke="#F3F3F3"/>
<path d="M18.5518 19.0597H24.2515C24.373 19.0597 24.4304 19.0597 24.4392 18.9004C24.4858 18.3206 24.4858 17.7374 24.4392 17.1569C24.4392 17.0441 24.3832 16.9976 24.261 16.9976H12.9175C12.7771 16.9976 12.7393 17.0441 12.7393 17.1758V18.8444C12.7393 19.0597 12.7393 19.0597 12.9641 19.0597H18.5518ZM23.8026 15.0475C23.8188 15.0049 23.8188 14.9584 23.8026 14.9165C23.7075 14.7093 23.5947 14.5115 23.4638 14.3259C23.2667 14.0086 23.0345 13.7163 22.7699 13.4538C22.645 13.2951 22.5006 13.1527 22.3386 13.0319C21.5272 12.3414 20.5626 11.8526 19.5258 11.6069C19.0027 11.4895 18.4681 11.4335 17.9321 11.4382H12.8979C12.7575 11.4382 12.7386 11.4942 12.7386 11.6164V14.9442C12.7386 15.0846 12.7386 15.1224 12.9168 15.1224H23.7351C23.7351 15.1224 23.829 15.1035 23.8479 15.0475H23.802H23.8026ZM23.8026 21.0098C23.6433 20.9922 23.4827 20.9922 23.3234 21.0098H12.9269C12.7865 21.0098 12.7393 21.0098 12.7393 21.1974V24.451C12.7393 24.6008 12.7393 24.6386 12.9269 24.6386H17.7269C17.9564 24.6562 18.1859 24.64 18.4107 24.592C19.1073 24.5421 19.7924 24.3909 20.4458 24.1418C20.6834 24.0595 20.9129 23.9521 21.1296 23.8232H21.1951C22.3203 23.238 23.2343 22.3186 23.8107 21.19C23.8107 21.19 23.8762 21.0483 23.8026 21.0111V21.0098ZM10.8553 26.3255V26.2694V24.0851V23.3446V21.1414C10.8553 21.0192 10.8553 21.001 10.7055 21.001H8.67102C8.55829 21.001 8.51172 21.001 8.51172 20.8512V19.0698H10.6866C10.8081 19.0698 10.8553 19.0698 10.8553 18.9105V17.1481C10.8553 17.0353 10.8553 17.0077 10.7055 17.0077H8.67102C8.55829 17.0077 8.51172 17.0077 8.51172 16.8578V15.2081C8.51172 15.1048 8.51172 15.0772 8.66157 15.0772H10.6771C10.8175 15.0772 10.8553 15.0772 10.8553 14.899V9.84586C10.8553 9.696 10.8553 9.6582 11.043 9.6582H18.0739C18.5842 9.67845 19.0911 9.73448 19.5926 9.82695C20.6261 10.018 21.619 10.3872 22.5269 10.9144C23.129 11.2688 23.6832 11.6967 24.1766 12.1895C24.5479 12.5749 24.8827 12.9921 25.1797 13.4362C25.4746 13.8864 25.7197 14.3677 25.912 14.8706C25.9357 15.0016 26.0612 15.09 26.1922 15.0677H27.8702C28.0856 15.0677 28.0856 15.0677 28.095 15.2743V16.8119C28.095 16.9618 28.039 16.9996 27.8885 16.9996H26.5945C26.4635 16.9996 26.4257 16.9996 26.4352 17.1683C26.4865 17.7394 26.4865 18.3125 26.4352 18.8835C26.4352 19.0428 26.4352 19.0617 26.614 19.0617H28.0943C28.1598 19.1461 28.0943 19.2305 28.0943 19.3155C28.1038 19.4242 28.1038 19.5342 28.0943 19.6429V20.7776C28.0943 20.9369 28.0478 20.9841 27.9067 20.9841H26.1348C26.0113 20.9605 25.8911 21.0395 25.8628 21.1623C25.4409 22.2592 24.7659 23.2427 23.8938 24.0311C23.5752 24.318 23.2404 24.588 22.8907 24.8371C22.5154 25.0531 22.1502 25.2779 21.7655 25.4561C21.0574 25.7747 20.3149 26.0096 19.5528 26.1587C18.8292 26.2883 18.0955 26.3471 17.359 26.3369H10.8526V26.3275L10.8553 26.3255Z" fill="#FEFEFD"/>
</svg>
