<svg width="60" height="60" viewBox="0 0 60 60" fill="none" xmlns="http://www.w3.org/2000/svg">
<g clip-path="url(#clip0_9598_18580)">
<g clip-path="url(#clip1_9598_18580)">
<path d="M30 60C46.5685 60 60 46.5685 60 30C60 13.4315 46.5685 0 30 0C13.4315 0 0 13.4315 0 30C0 46.5685 13.4315 60 30 60Z" fill="#1F9898"/>
</g>
<path d="M30.3359 11C19.6741 11 11 19.6741 11 30.3359C11 40.9978 19.6741 49.6719 30.3359 49.6719C40.9978 49.6719 49.6719 40.9978 49.6719 30.3359C49.6719 19.6741 40.9978 11 30.3359 11ZM38.6253 29.9036L35.7293 32.8719L36.4163 37.0842C36.5247 37.7485 36.2441 38.4165 35.6938 38.8041C35.1465 39.1898 34.4231 39.2329 33.8309 38.9055L30.3359 36.9736L26.8408 38.9056C26.2518 39.2313 25.5283 39.1919 24.978 38.8043C24.4277 38.4166 24.147 37.7486 24.2554 37.0843L24.9425 32.872L22.0464 29.9037C21.5864 29.4322 21.4286 28.7429 21.6378 28.1182C21.8469 27.4933 22.3878 27.038 23.0391 26.9386L26.9704 26.3379L28.7446 22.5579C29.0342 21.9409 29.6544 21.5469 30.3359 21.5469C31.0175 21.5469 31.6375 21.9409 31.9272 22.5577L33.7014 26.3377L37.6327 26.9384C38.2841 27.0379 38.825 27.4933 39.0341 28.118C39.2432 28.7429 39.0854 29.4321 38.6253 29.9036Z" fill="white"/>
</g>
<defs>
<clipPath id="clip0_9598_18580">
<rect width="60" height="60" fill="white"/>
</clipPath>
<clipPath id="clip1_9598_18580">
<rect width="60" height="60" rx="30" fill="white"/>
</clipPath>
</defs>
</svg>
