<svg width="60" height="60" viewBox="0 0 60 60" fill="none" xmlns="http://www.w3.org/2000/svg">
<g clip-path="url(#clip0_9598_18818)">
<path d="M30 60C46.5685 60 60 46.5685 60 30C60 13.4315 46.5685 0 30 0C13.4315 0 0 13.4315 0 30C0 46.5685 13.4315 60 30 60Z" fill="#1F9898"/>
<path d="M34.2604 12.6969L30.8844 16.0729C27.2885 19.6687 27.2885 25.5195 30.8844 29.1154L35.1084 29.3285L34.6484 25.3514C33.1281 23.831 33.1281 21.3573 34.6484 19.837L38.0244 16.4609C39.5448 14.9406 42.0185 14.9406 43.5388 16.4609L46.9909 16.1841L47.3028 12.6969C43.7071 9.10104 37.8562 9.10104 34.2604 12.6969Z" fill="white"/>
<path d="M43.5392 21.9753L40.1632 25.3513C38.6428 26.8716 36.1691 26.8716 34.6488 25.3513L30.8848 29.1153C34.4806 32.7112 40.3314 32.7112 43.9273 29.1153L47.3033 25.7393C50.8992 22.1435 50.8992 16.2927 47.3033 12.6968L43.5393 16.4608C45.0595 17.9812 45.0595 20.4549 43.5392 21.9753Z" fill="white"/>
<path d="M16.0729 30.8849L12.6969 34.2609C9.10104 37.8567 9.10104 43.7076 12.6969 47.3034L16.223 46.49L16.4609 43.5394C14.9406 42.019 14.9406 39.5453 16.4609 38.0249L19.8369 34.6489C21.3573 33.1286 23.831 33.1286 25.3513 34.6489L28.6102 35.8271L29.1153 30.8848C25.5195 27.289 19.6687 27.289 16.0729 30.8849Z" fill="white"/>
<path d="M25.3517 40.1633L21.9757 43.5393C20.4553 45.0596 17.9816 45.0596 16.4613 43.5393L12.6973 47.3033C16.2931 50.8991 22.144 50.8991 25.7398 47.3033L29.1158 43.9273C32.7116 40.3315 32.7116 34.4806 29.1158 30.8848L25.3518 34.6488C26.872 36.1693 26.872 38.643 25.3517 40.1633Z" fill="white"/>
<rect x="34.7381" y="22.9269" width="3.9551" height="16.3896" rx="1.97755" transform="rotate(46.1099 34.7381 22.9269)" fill="white" stroke="#1F9898" stroke-width="1.43822"/>
</g>
<defs>
<clipPath id="clip0_9598_18818">
<rect width="60" height="60" fill="white"/>
</clipPath>
</defs>
</svg>
