<svg width="60" height="60" viewBox="0 0 60 60" fill="none" xmlns="http://www.w3.org/2000/svg">
<path d="M59.5 30C59.5 46.2924 46.2924 59.5 30 59.5C13.7076 59.5 0.5 46.2924 0.5 30C0.5 13.7076 13.7076 0.5 30 0.5C46.2924 0.5 59.5 13.7076 59.5 30Z" fill="white" fill-opacity="0.1" stroke="#D9D9D9"/>
<path d="M9.6 26.99C9.56667 27.0467 9.53167 27.0883 9.495 27.115C9.45833 27.1417 9.41167 27.155 9.355 27.155C9.295 27.155 9.22667 27.1283 9.15 27.075C9.07333 27.0183 8.97667 26.9567 8.86 26.89C8.74667 26.82 8.61 26.7583 8.45 26.705C8.29 26.6483 8.09833 26.62 7.875 26.62C7.665 26.62 7.48 26.6483 7.32 26.705C7.16333 26.7583 7.03167 26.8333 6.925 26.93C6.81833 27.0233 6.73667 27.135 6.68 27.265C6.62667 27.3917 6.6 27.53 6.6 27.68C6.6 27.8733 6.64833 28.0333 6.745 28.16C6.845 28.2867 6.975 28.395 7.135 28.485C7.295 28.575 7.47667 28.6533 7.68 28.72C7.88333 28.7867 8.09167 28.8567 8.305 28.93C8.51833 29 8.72667 29.0817 8.93 29.175C9.13333 29.2683 9.315 29.3867 9.475 29.53C9.635 29.67 9.76333 29.8433 9.86 30.05C9.96 30.2533 10.01 30.5033 10.01 30.8C10.01 31.1167 9.955 31.4133 9.845 31.69C9.73833 31.9667 9.58167 32.2083 9.375 32.415C9.16833 32.6217 8.91333 32.785 8.61 32.905C8.31 33.0217 7.96833 33.08 7.585 33.08C7.355 33.08 7.13167 33.0567 6.915 33.01C6.69833 32.9667 6.49333 32.905 6.3 32.825C6.10667 32.7417 5.925 32.6433 5.755 32.53C5.58833 32.4133 5.43833 32.2833 5.305 32.14L5.61 31.63C5.64 31.59 5.675 31.5567 5.715 31.53C5.75833 31.5033 5.80667 31.49 5.86 31.49C5.93 31.49 6.01 31.5267 6.1 31.6C6.19333 31.6733 6.30667 31.755 6.44 31.845C6.57667 31.9317 6.73833 32.0117 6.925 32.085C7.115 32.1583 7.345 32.195 7.615 32.195C7.835 32.195 8.03167 32.1667 8.205 32.11C8.37833 32.05 8.52333 31.9667 8.64 31.86C8.76 31.75 8.85167 31.6183 8.915 31.465C8.97833 31.3117 9.01 31.1417 9.01 30.955C9.01 30.745 8.96167 30.5733 8.865 30.44C8.76833 30.3067 8.64 30.195 8.48 30.105C8.32 30.015 8.13833 29.9383 7.935 29.875C7.73167 29.8117 7.52333 29.7467 7.31 29.68C7.09667 29.61 6.88833 29.53 6.685 29.44C6.48167 29.35 6.3 29.2333 6.14 29.09C5.98 28.9433 5.85167 28.7617 5.755 28.545C5.65833 28.325 5.61 28.055 5.61 27.735C5.61 27.4783 5.66 27.23 5.76 26.99C5.86 26.75 6.005 26.5383 6.195 26.355C6.38833 26.1683 6.625 26.02 6.905 25.91C7.185 25.7967 7.505 25.74 7.865 25.74C8.26833 25.74 8.63833 25.805 8.975 25.935C9.315 26.0617 9.61 26.245 9.86 26.485L9.6 26.99ZM13.8895 32.155C14.1595 32.155 14.3895 32.1233 14.5795 32.06C14.7728 31.9967 14.9295 31.91 15.0495 31.8C15.1728 31.69 15.2628 31.56 15.3195 31.41C15.3761 31.2567 15.4045 31.09 15.4045 30.91C15.4045 30.5533 15.2811 30.2733 15.0345 30.07C14.7878 29.8633 14.4061 29.76 13.8895 29.76H12.3895V32.155H13.8895ZM12.3895 26.655V29.005H13.6145C14.1378 29.005 14.5261 28.9 14.7795 28.69C15.0361 28.4767 15.1645 28.19 15.1645 27.83C15.1645 27.42 15.0428 27.1217 14.7995 26.935C14.5561 26.7483 14.1778 26.655 13.6645 26.655H12.3895ZM13.6645 25.82C14.1145 25.82 14.4995 25.8633 14.8195 25.95C15.1428 26.0367 15.4078 26.1617 15.6145 26.325C15.8211 26.4883 15.9728 26.6867 16.0695 26.92C16.1695 27.15 16.2195 27.4117 16.2195 27.705C16.2195 27.8783 16.1928 28.045 16.1395 28.205C16.0861 28.365 16.0045 28.515 15.8945 28.655C15.7845 28.7917 15.6461 28.915 15.4795 29.025C15.3128 29.135 15.1161 29.2267 14.8895 29.3C15.9328 29.5067 16.4545 30.0517 16.4545 30.935C16.4545 31.2417 16.3978 31.5217 16.2845 31.775C16.1711 32.025 16.0061 32.2417 15.7895 32.425C15.5728 32.6083 15.3061 32.75 14.9895 32.85C14.6728 32.95 14.3128 33 13.9095 33H11.3245V25.82H13.6645ZM22.5866 26.71H20.3066V33H19.2466V26.71H16.9566V25.82H22.5866V26.71ZM29.9559 32.105V33H25.8459V25.82H26.9109V32.105H29.9559ZM37.3699 29.41C37.3699 29.9467 37.2833 30.44 37.1099 30.89C36.9399 31.3367 36.6983 31.7233 36.3849 32.05C36.0716 32.3733 35.6966 32.625 35.2599 32.805C34.8233 32.985 34.3383 33.075 33.8049 33.075C33.2749 33.075 32.7899 32.985 32.3499 32.805C31.9133 32.625 31.5383 32.3733 31.2249 32.05C30.9149 31.7233 30.6733 31.3367 30.4999 30.89C30.3266 30.44 30.2399 29.9467 30.2399 29.41C30.2399 28.8767 30.3266 28.385 30.4999 27.935C30.6733 27.485 30.9149 27.0983 31.2249 26.775C31.5383 26.4483 31.9133 26.195 32.3499 26.015C32.7899 25.8317 33.2749 25.74 33.8049 25.74C34.3383 25.74 34.8233 25.8317 35.2599 26.015C35.6966 26.195 36.0716 26.4483 36.3849 26.775C36.6983 27.0983 36.9399 27.485 37.1099 27.935C37.2833 28.385 37.3699 28.8767 37.3699 29.41ZM36.2799 29.41C36.2799 28.9833 36.2216 28.6 36.1049 28.26C35.9883 27.92 35.8216 27.6317 35.6049 27.395C35.3916 27.1583 35.1316 26.9767 34.8249 26.85C34.5216 26.7233 34.1816 26.66 33.8049 26.66C33.4283 26.66 33.0866 26.7233 32.7799 26.85C32.4766 26.9767 32.2166 27.1583 31.9999 27.395C31.7833 27.6317 31.6166 27.92 31.4999 28.26C31.3833 28.6 31.3249 28.9833 31.3249 29.41C31.3249 29.84 31.3833 30.225 31.4999 30.565C31.6166 30.9017 31.7833 31.1883 31.9999 31.425C32.2166 31.6617 32.4766 31.8433 32.7799 31.97C33.0866 32.0933 33.4283 32.155 33.8049 32.155C34.1816 32.155 34.5216 32.0933 34.8249 31.97C35.1316 31.8433 35.3916 31.6617 35.6049 31.425C35.8216 31.1883 35.9883 30.9017 36.1049 30.565C36.2216 30.225 36.2799 29.84 36.2799 29.41ZM44.5673 29.505V32.305C44.2039 32.565 43.8173 32.76 43.4073 32.89C42.9973 33.0167 42.5506 33.08 42.0673 33.08C41.4873 33.08 40.9623 32.99 40.4923 32.81C40.0256 32.63 39.6273 32.3783 39.2973 32.055C38.9673 31.7317 38.7123 31.345 38.5323 30.895C38.3556 30.445 38.2673 29.95 38.2673 29.41C38.2673 28.8667 38.3523 28.37 38.5223 27.92C38.6956 27.4667 38.9423 27.08 39.2623 26.76C39.5823 26.4367 39.9689 26.1867 40.4223 26.01C40.8789 25.83 41.3906 25.74 41.9573 25.74C42.2439 25.74 42.5089 25.7617 42.7523 25.805C42.9989 25.8483 43.2273 25.91 43.4373 25.99C43.6473 26.07 43.8406 26.1667 44.0173 26.28C44.1973 26.39 44.3639 26.515 44.5173 26.655L44.2123 27.135C44.1656 27.2117 44.1039 27.26 44.0273 27.28C43.9506 27.3 43.8673 27.2817 43.7773 27.225C43.6906 27.175 43.5939 27.1167 43.4873 27.05C43.3839 26.9833 43.2589 26.9217 43.1123 26.865C42.9689 26.8083 42.8006 26.76 42.6073 26.72C42.4139 26.68 42.1856 26.66 41.9223 26.66C41.5289 26.66 41.1739 26.725 40.8573 26.855C40.5406 26.9817 40.2706 27.165 40.0473 27.405C39.8239 27.645 39.6523 27.935 39.5323 28.275C39.4123 28.6117 39.3523 28.99 39.3523 29.41C39.3523 29.85 39.4156 30.245 39.5423 30.595C39.6689 30.9417 39.8473 31.2367 40.0773 31.48C40.3106 31.72 40.5923 31.9033 40.9223 32.03C41.2556 32.1567 41.6273 32.22 42.0373 32.22C42.1973 32.22 42.3456 32.2117 42.4823 32.195C42.6223 32.175 42.7556 32.1483 42.8823 32.115C43.0089 32.0817 43.1306 32.04 43.2473 31.99C43.3673 31.94 43.4856 31.885 43.6023 31.825V30.32H42.5423C42.4756 30.32 42.4206 30.3 42.3773 30.26C42.3373 30.22 42.3173 30.17 42.3173 30.11V29.505H44.5673ZM52.6922 29.41C52.6922 29.9467 52.6055 30.44 52.4322 30.89C52.2622 31.3367 52.0205 31.7233 51.7072 32.05C51.3939 32.3733 51.0189 32.625 50.5822 32.805C50.1455 32.985 49.6605 33.075 49.1272 33.075C48.5972 33.075 48.1122 32.985 47.6722 32.805C47.2355 32.625 46.8605 32.3733 46.5472 32.05C46.2372 31.7233 45.9955 31.3367 45.8222 30.89C45.6489 30.44 45.5622 29.9467 45.5622 29.41C45.5622 28.8767 45.6489 28.385 45.8222 27.935C45.9955 27.485 46.2372 27.0983 46.5472 26.775C46.8605 26.4483 47.2355 26.195 47.6722 26.015C48.1122 25.8317 48.5972 25.74 49.1272 25.74C49.6605 25.74 50.1455 25.8317 50.5822 26.015C51.0189 26.195 51.3939 26.4483 51.7072 26.775C52.0205 27.0983 52.2622 27.485 52.4322 27.935C52.6055 28.385 52.6922 28.8767 52.6922 29.41ZM51.6022 29.41C51.6022 28.9833 51.5439 28.6 51.4272 28.26C51.3105 27.92 51.1439 27.6317 50.9272 27.395C50.7139 27.1583 50.4539 26.9767 50.1472 26.85C49.8439 26.7233 49.5039 26.66 49.1272 26.66C48.7505 26.66 48.4089 26.7233 48.1022 26.85C47.7989 26.9767 47.5389 27.1583 47.3222 27.395C47.1055 27.6317 46.9389 27.92 46.8222 28.26C46.7055 28.6 46.6472 28.9833 46.6472 29.41C46.6472 29.84 46.7055 30.225 46.8222 30.565C46.9389 30.9017 47.1055 31.1883 47.3222 31.425C47.5389 31.6617 47.7989 31.8433 48.1022 31.97C48.4089 32.0933 48.7505 32.155 49.1272 32.155C49.5039 32.155 49.8439 32.0933 50.1472 31.97C50.4539 31.8433 50.7139 31.6617 50.9272 31.425C51.1439 31.1883 51.3105 30.9017 51.4272 30.565C51.5439 30.225 51.6022 29.84 51.6022 29.41Z" fill="#6B6969"/>
</svg>
