<svg width="543" height="125" viewBox="0 0 543 125" fill="none" xmlns="http://www.w3.org/2000/svg">
<path opacity="0.4" fill-rule="evenodd" clip-rule="evenodd" d="M1.46662 81.4533C1.46662 77.035 5.04834 73.4533 9.46662 73.4533H13.5333C17.9516 73.4533 21.5333 77.035 21.5333 81.4533V98.5466C21.5333 102.965 17.9516 106.547 13.5333 106.547H9.46662C5.04835 106.547 1.46662 102.965 1.46662 98.5466V81.4533Z" fill="url(#paint0_linear_7624_12999)"/>
<path opacity="0.4" fill-rule="evenodd" clip-rule="evenodd" d="M26.4666 72.4526C26.4666 68.0343 30.0484 64.4526 34.4666 64.4526H38.5333C42.9516 64.4526 46.5333 68.0343 46.5333 72.4526V98.5473C46.5333 102.966 42.9516 106.547 38.5333 106.547H34.4666C30.0484 106.547 26.4666 102.966 26.4666 98.5473V72.4526Z" fill="url(#paint1_linear_7624_12999)"/>
<path opacity="0.4" fill-rule="evenodd" clip-rule="evenodd" d="M50.4666 81.4533C50.4666 77.035 54.0484 73.4533 58.4666 73.4533H62.5333C66.9516 73.4533 70.5333 77.035 70.5333 81.4533V98.5466C70.5333 102.965 66.9516 106.547 62.5333 106.547H58.4666C54.0484 106.547 50.4666 102.965 50.4666 98.5466V81.4533Z" fill="url(#paint2_linear_7624_12999)"/>
<path opacity="0.4" fill-rule="evenodd" clip-rule="evenodd" d="M75.4667 85.4545C75.4667 81.0363 79.0484 77.4545 83.4667 77.4545H87.5333C91.9516 77.4545 95.5333 81.0363 95.5333 85.4545V98.5454C95.5333 102.964 91.9516 106.545 87.5333 106.545H83.4667C79.0484 106.545 75.4667 102.964 75.4667 98.5454V85.4545Z" fill="url(#paint3_linear_7624_12999)"/>
<path opacity="0.4" fill-rule="evenodd" clip-rule="evenodd" d="M99.4666 81.4533C99.4666 77.035 103.048 73.4533 107.467 73.4533H111.533C115.952 73.4533 119.533 77.035 119.533 81.4533V98.5466C119.533 102.965 115.952 106.547 111.533 106.547H107.467C103.048 106.547 99.4666 102.965 99.4666 98.5466V81.4533Z" fill="url(#paint4_linear_7624_12999)"/>
<path opacity="0.4" fill-rule="evenodd" clip-rule="evenodd" d="M124.467 83.4571C124.467 79.0388 128.048 75.4571 132.467 75.4571H136.533C140.952 75.4571 144.533 79.0388 144.533 83.4571V98.5429C144.533 102.961 140.952 106.543 136.533 106.543H132.467C128.048 106.543 124.467 102.961 124.467 98.5428V83.4571Z" fill="url(#paint5_linear_7624_12999)"/>
<path opacity="0.4" fill-rule="evenodd" clip-rule="evenodd" d="M149.467 40.4545C149.467 36.0362 153.048 32.4545 157.467 32.4545H161.533C165.952 32.4545 169.533 36.0362 169.533 40.4545V98.5454C169.533 102.964 165.952 106.545 161.533 106.545H157.467C153.048 106.545 149.467 102.964 149.467 98.5454V40.4545Z" fill="url(#paint6_linear_7624_12999)"/>
<path opacity="0.4" fill-rule="evenodd" clip-rule="evenodd" d="M173.467 82.452C173.467 78.0337 177.048 74.452 181.467 74.452H185.533C189.952 74.452 193.533 78.0337 193.533 82.452V98.5479C193.533 102.966 189.952 106.548 185.533 106.548H181.467C177.048 106.548 173.467 102.966 173.467 98.5479V82.452Z" fill="url(#paint7_linear_7624_12999)"/>
<path opacity="0.4" fill-rule="evenodd" clip-rule="evenodd" d="M198.467 77.4578C198.467 73.0395 202.048 69.4578 206.467 69.4578H210.533C214.952 69.4578 218.533 73.0395 218.533 77.4578V98.5422C218.533 102.96 214.952 106.542 210.533 106.542H206.467C202.048 106.542 198.467 102.96 198.467 98.5422V77.4578Z" fill="url(#paint8_linear_7624_12999)"/>
<path opacity="0.4" fill-rule="evenodd" clip-rule="evenodd" d="M223.467 65.4504C223.467 61.0321 227.048 57.4504 231.467 57.4504H235.533C239.952 57.4504 243.533 61.0321 243.533 65.4504V98.5495C243.533 102.968 239.952 106.55 235.533 106.55H231.467C227.048 106.55 223.467 102.968 223.467 98.5495V65.4504Z" fill="url(#paint9_linear_7624_12999)"/>
<path opacity="0.4" fill-rule="evenodd" clip-rule="evenodd" d="M247.467 85.4545C247.467 81.0363 251.048 77.4545 255.467 77.4545H259.533C263.952 77.4545 267.533 81.0363 267.533 85.4545V98.5454C267.533 102.964 263.952 106.545 259.533 106.545H255.467C251.048 106.545 247.467 102.964 247.467 98.5454V85.4545Z" fill="url(#paint10_linear_7624_12999)"/>
<path fill-rule="evenodd" clip-rule="evenodd" d="M272 72C272 69.7909 273.791 68 276 68H288C290.209 68 292 69.7909 292 72V102C292 104.209 290.209 106 288 106H276C273.791 106 272 104.209 272 102V72Z" fill="url(#paint11_linear_7624_12999)"/>
<path opacity="0.4" fill-rule="evenodd" clip-rule="evenodd" d="M295.467 83.4571C295.467 79.0388 299.048 75.4571 303.467 75.4571H307.533C311.952 75.4571 315.533 79.0388 315.533 83.4571V98.5429C315.533 102.961 311.952 106.543 307.533 106.543H303.467C299.048 106.543 295.467 102.961 295.467 98.5428V83.4571Z" fill="url(#paint12_linear_7624_12999)"/>
<path opacity="0.4" fill-rule="evenodd" clip-rule="evenodd" d="M320.467 77.4524C320.467 73.0341 324.048 69.4524 328.467 69.4524H332.533C336.952 69.4524 340.533 73.0341 340.533 77.4524V98.5476C340.533 102.966 336.952 106.548 332.533 106.548H328.467C324.048 106.548 320.467 102.966 320.467 98.5476V77.4524Z" fill="url(#paint13_linear_7624_12999)"/>
<path opacity="0.4" fill-rule="evenodd" clip-rule="evenodd" d="M345.467 60.4583C345.467 56.04 349.048 52.4583 353.467 52.4583H357.533C361.952 52.4583 365.533 56.04 365.533 60.4583V98.5416C365.533 102.96 361.952 106.542 357.533 106.542H353.467C349.048 106.542 345.467 102.96 345.467 98.5416V60.4583Z" fill="url(#paint14_linear_7624_12999)"/>
<path opacity="0.4" fill-rule="evenodd" clip-rule="evenodd" d="M369.467 86.4603C369.467 82.042 373.048 78.4603 377.467 78.4603H381.533C385.952 78.4603 389.533 82.042 389.533 86.4603V98.5397C389.533 102.958 385.952 106.54 381.533 106.54H377.467C373.048 106.54 369.467 102.958 369.467 98.5397V86.4603Z" fill="url(#paint15_linear_7624_12999)"/>
<path opacity="0.4" fill-rule="evenodd" clip-rule="evenodd" d="M394.467 80.4605C394.467 76.0422 398.048 72.4605 402.467 72.4605H406.533C410.952 72.4605 414.533 76.0422 414.533 80.4605V98.5395C414.533 102.958 410.952 106.539 406.533 106.539H402.467C398.048 106.539 394.467 102.958 394.467 98.5395V80.4605Z" fill="url(#paint16_linear_7624_12999)"/>
<path opacity="0.4" fill-rule="evenodd" clip-rule="evenodd" d="M420.467 50.4545C420.467 46.0362 424.048 42.4545 428.467 42.4545H432.533C436.952 42.4545 440.533 46.0362 440.533 50.4545V98.5455C440.533 102.964 436.952 106.545 432.533 106.545H428.467C424.048 106.545 420.467 102.964 420.467 98.5455V50.4545Z" fill="url(#paint17_linear_7624_12999)"/>
<path opacity="0.4" fill-rule="evenodd" clip-rule="evenodd" d="M445.467 83.4571C445.467 79.0388 449.048 75.4571 453.467 75.4571H457.533C461.952 75.4571 465.533 79.0388 465.533 83.4571V98.5429C465.533 102.961 461.952 106.543 457.533 106.543H453.467C449.048 106.543 445.467 102.961 445.467 98.5428V83.4571Z" fill="url(#paint18_linear_7624_12999)"/>
<path opacity="0.4" fill-rule="evenodd" clip-rule="evenodd" d="M471.467 72.4574C471.467 68.0392 475.048 64.4574 479.467 64.4574H483.533C487.952 64.4574 491.533 68.0392 491.533 72.4574V98.5425C491.533 102.961 487.952 106.543 483.533 106.543H479.467C475.048 106.543 471.467 102.961 471.467 98.5425V72.4574Z" fill="url(#paint19_linear_7624_12999)"/>
<path opacity="0.4" fill-rule="evenodd" clip-rule="evenodd" d="M496.467 77.4578C496.467 73.0395 500.048 69.4578 504.467 69.4578H508.533C512.952 69.4578 516.533 73.0395 516.533 77.4578V98.5422C516.533 102.96 512.952 106.542 508.533 106.542H504.467C500.048 106.542 496.467 102.96 496.467 98.5422V77.4578Z" fill="url(#paint20_linear_7624_12999)"/>
<path opacity="0.4" fill-rule="evenodd" clip-rule="evenodd" d="M522.467 77.4578C522.467 73.0395 526.048 69.4578 530.467 69.4578H534.533C538.952 69.4578 542.533 73.0395 542.533 77.4578V98.5422C542.533 102.96 538.952 106.542 534.533 106.542H530.467C526.048 106.542 522.467 102.96 522.467 98.5422V77.4578Z" fill="url(#paint21_linear_7624_12999)"/>
<path fill-rule="evenodd" clip-rule="evenodd" d="M1 72.3482C1 72.3482 3.98832 68.5815 24.0508 56.528C24.0508 56.528 30.0269 49.3713 45.8204 62.178C45.8204 62.178 72.286 81.0117 112.411 40.331C112.411 40.331 127.351 29.031 136.315 73.855C136.315 73.855 144.853 90.0518 157.231 58.4114C157.231 58.4114 164.915 26.7709 204.613 57.2814C204.613 57.2814 223.395 71.5949 241.75 34.681C241.75 34.681 250.288 15.094 270.777 32.0443C270.777 32.0443 285.29 46.3579 301.938 14.3408C301.938 14.3408 333.099 -29.3534 346.331 54.2681C346.331 54.2681 354.868 113.782 428.716 23.7575C428.716 23.7575 453.047 -22.5732 474.817 16.9774C474.817 16.9774 477.143 57.2812 513 40.331" fill="black" fill-opacity="0.01"/>
<path d="M1 72.3482C1 72.3482 3.98832 68.5815 24.0508 56.528C24.0508 56.528 30.0269 49.3713 45.8204 62.178C45.8204 62.178 72.286 81.0117 112.411 40.331C112.411 40.331 127.351 29.031 136.315 73.855C136.315 73.855 144.853 90.0518 157.231 58.4114C157.231 58.4114 164.915 26.7709 204.613 57.2814C204.613 57.2814 223.395 71.5949 241.75 34.681C241.75 34.681 250.288 15.094 270.777 32.0443C270.777 32.0443 285.29 46.3579 301.938 14.3408C301.938 14.3408 333.099 -29.3534 346.331 54.2681C346.331 54.2681 354.868 113.782 428.716 23.7575C428.716 23.7575 453.047 -22.5732 474.817 16.9774C474.817 16.9774 477.143 57.2812 513 40.331" stroke="url(#paint22_linear_7624_12999)" stroke-width="1.13302" stroke-linecap="round"/>
<circle cx="282" cy="34" r="4" fill="white"/>
<circle cx="282" cy="34" r="2" fill="#1F9898"/>
<line x1="282.25" y1="38" x2="282.25" y2="68" stroke="#333333" stroke-width="0.5" stroke-dasharray="1 1"/>
<path d="M270.327 114.402V123H269.307V116.682C269.307 116.598 269.309 116.508 269.313 116.412C269.321 116.316 269.329 116.218 269.337 116.118L266.385 121.494C266.293 121.674 266.153 121.764 265.965 121.764H265.797C265.609 121.764 265.469 121.674 265.377 121.494L262.365 116.094C262.389 116.306 262.401 116.502 262.401 116.682V123H261.381V114.402H262.239C262.343 114.402 262.423 114.412 262.479 114.432C262.535 114.452 262.589 114.508 262.641 114.6L265.611 119.892C265.659 119.988 265.705 120.088 265.749 120.192C265.797 120.296 265.841 120.402 265.881 120.51C265.921 120.402 265.963 120.296 266.007 120.192C266.051 120.084 266.099 119.982 266.151 119.886L269.067 114.6C269.115 114.508 269.167 114.452 269.223 114.432C269.283 114.412 269.365 114.402 269.469 114.402H270.327ZM277.092 119.808L275.742 116.31C275.702 116.206 275.66 116.086 275.616 115.95C275.572 115.81 275.53 115.662 275.49 115.506C275.406 115.83 275.32 116.1 275.232 116.316L273.882 119.808H277.092ZM279.516 123H278.616C278.512 123 278.428 122.974 278.364 122.922C278.3 122.87 278.252 122.804 278.22 122.724L277.416 120.648H273.558L272.754 122.724C272.73 122.796 272.684 122.86 272.616 122.916C272.548 122.972 272.464 123 272.364 123H271.464L274.902 114.402H276.078L279.516 123ZM283.031 119.574V123H281.867V119.574L278.717 114.402H279.737C279.841 114.402 279.923 114.428 279.983 114.48C280.043 114.528 280.095 114.592 280.139 114.672L282.107 118.014C282.179 118.154 282.245 118.286 282.305 118.41C282.365 118.53 282.417 118.652 282.461 118.776C282.505 118.652 282.555 118.53 282.611 118.41C282.667 118.286 282.729 118.154 282.797 118.014L284.759 114.672C284.795 114.604 284.845 114.542 284.909 114.486C284.973 114.43 285.055 114.402 285.155 114.402H286.181L283.031 119.574ZM294.717 121.986C294.833 121.986 294.925 122.02 294.993 122.088C295.061 122.156 295.095 122.244 295.095 122.352V123H289.359V122.634C289.359 122.558 289.375 122.48 289.407 122.4C289.439 122.32 289.489 122.246 289.557 122.178L292.311 119.412C292.539 119.18 292.747 118.958 292.935 118.746C293.123 118.53 293.283 118.314 293.415 118.098C293.547 117.882 293.649 117.664 293.721 117.444C293.793 117.22 293.829 116.982 293.829 116.73C293.829 116.478 293.789 116.258 293.709 116.07C293.629 115.878 293.519 115.72 293.379 115.596C293.243 115.472 293.081 115.38 292.893 115.32C292.705 115.256 292.503 115.224 292.287 115.224C292.067 115.224 291.865 115.256 291.681 115.32C291.497 115.384 291.333 115.474 291.189 115.59C291.049 115.702 290.931 115.836 290.835 115.992C290.739 116.148 290.671 116.32 290.631 116.508C290.583 116.648 290.517 116.742 290.433 116.79C290.353 116.834 290.239 116.846 290.091 116.826L289.533 116.73C289.589 116.338 289.697 115.992 289.857 115.692C290.021 115.388 290.225 115.134 290.469 114.93C290.717 114.726 290.999 114.572 291.315 114.468C291.631 114.36 291.973 114.306 292.341 114.306C292.705 114.306 293.045 114.36 293.361 114.468C293.677 114.576 293.951 114.734 294.183 114.942C294.415 115.146 294.597 115.396 294.729 115.692C294.861 115.988 294.927 116.324 294.927 116.7C294.927 117.02 294.879 117.318 294.783 117.594C294.687 117.866 294.557 118.126 294.393 118.374C294.229 118.622 294.039 118.864 293.823 119.1C293.611 119.336 293.385 119.574 293.145 119.814L290.877 122.13C291.037 122.086 291.199 122.052 291.363 122.028C291.527 122 291.685 121.986 291.837 121.986H294.717ZM297.454 116.928C297.454 117.2 297.492 117.444 297.568 117.66C297.648 117.872 297.76 118.052 297.904 118.2C298.052 118.348 298.23 118.46 298.438 118.536C298.65 118.612 298.886 118.65 299.146 118.65C299.434 118.65 299.688 118.604 299.908 118.512C300.132 118.416 300.32 118.29 300.472 118.134C300.624 117.978 300.74 117.798 300.82 117.594C300.9 117.39 300.94 117.178 300.94 116.958C300.94 116.69 300.896 116.448 300.808 116.232C300.724 116.012 300.606 115.826 300.454 115.674C300.302 115.522 300.12 115.406 299.908 115.326C299.7 115.242 299.47 115.2 299.218 115.2C298.954 115.2 298.714 115.244 298.498 115.332C298.282 115.416 298.096 115.534 297.94 115.686C297.784 115.838 297.664 116.02 297.58 116.232C297.496 116.444 297.454 116.676 297.454 116.928ZM299.95 119.574C300.038 119.458 300.12 119.348 300.196 119.244C300.272 119.14 300.344 119.036 300.412 118.932C300.192 119.108 299.944 119.242 299.668 119.334C299.392 119.426 299.1 119.472 298.792 119.472C298.468 119.472 298.16 119.418 297.868 119.31C297.58 119.202 297.326 119.044 297.106 118.836C296.886 118.624 296.71 118.366 296.578 118.062C296.45 117.754 296.386 117.402 296.386 117.006C296.386 116.63 296.456 116.278 296.596 115.95C296.736 115.622 296.932 115.336 297.184 115.092C297.436 114.848 297.736 114.656 298.084 114.516C298.432 114.376 298.814 114.306 299.23 114.306C299.642 114.306 300.016 114.374 300.352 114.51C300.688 114.646 300.976 114.836 301.216 115.08C301.456 115.324 301.64 115.616 301.768 115.956C301.9 116.296 301.966 116.672 301.966 117.084C301.966 117.332 301.942 117.568 301.894 117.792C301.85 118.012 301.784 118.23 301.696 118.446C301.612 118.658 301.508 118.87 301.384 119.082C301.26 119.29 301.12 119.504 300.964 119.724L298.87 122.748C298.818 122.824 298.744 122.886 298.648 122.934C298.552 122.978 298.442 123 298.318 123H297.334L299.95 119.574Z" fill="#1F9797"/>
<defs>
<linearGradient id="paint0_linear_7624_12999" x1="0.243244" y1="70.1667" x2="23.8867" y2="71.8159" gradientUnits="userSpaceOnUse">
<stop offset="0.0985558" stop-color="#D8FF20"/>
<stop offset="1" stop-color="#99F7F4"/>
</linearGradient>
<linearGradient id="paint1_linear_7624_12999" x1="25.2432" y1="60.4167" x2="48.9296" y2="61.7231" gradientUnits="userSpaceOnUse">
<stop offset="0.0985558" stop-color="#D8FF20"/>
<stop offset="1" stop-color="#99F7F4"/>
</linearGradient>
<linearGradient id="paint2_linear_7624_12999" x1="49.2432" y1="70.1667" x2="72.8867" y2="71.8159" gradientUnits="userSpaceOnUse">
<stop offset="0.0985558" stop-color="#D8FF20"/>
<stop offset="1" stop-color="#99F7F4"/>
</linearGradient>
<linearGradient id="paint3_linear_7624_12999" x1="74.2432" y1="74.5" x2="97.8541" y2="76.3665" gradientUnits="userSpaceOnUse">
<stop offset="0.0985558" stop-color="#D8FF20"/>
<stop offset="1" stop-color="#99F7F4"/>
</linearGradient>
<linearGradient id="paint4_linear_7624_12999" x1="98.2432" y1="70.1667" x2="121.887" y2="71.8159" gradientUnits="userSpaceOnUse">
<stop offset="0.0985558" stop-color="#D8FF20"/>
<stop offset="1" stop-color="#99F7F4"/>
</linearGradient>
<linearGradient id="paint5_linear_7624_12999" x1="123.243" y1="72.3333" x2="146.872" y2="74.0845" gradientUnits="userSpaceOnUse">
<stop offset="0.0985558" stop-color="#D8FF20"/>
<stop offset="1" stop-color="#99F7F4"/>
</linearGradient>
<linearGradient id="paint6_linear_7624_12999" x1="148.243" y1="25.75" x2="171.978" y2="26.5005" gradientUnits="userSpaceOnUse">
<stop offset="0.0985558" stop-color="#D8FF20"/>
<stop offset="1" stop-color="#99F7F4"/>
</linearGradient>
<linearGradient id="paint7_linear_7624_12999" x1="172.243" y1="71.25" x2="195.88" y2="72.9487" gradientUnits="userSpaceOnUse">
<stop offset="0.0985558" stop-color="#D8FF20"/>
<stop offset="1" stop-color="#99F7F4"/>
</linearGradient>
<linearGradient id="paint8_linear_7624_12999" x1="197.243" y1="65.8333" x2="220.91" y2="67.3104" gradientUnits="userSpaceOnUse">
<stop offset="0.0985558" stop-color="#D8FF20"/>
<stop offset="1" stop-color="#99F7F4"/>
</linearGradient>
<linearGradient id="paint9_linear_7624_12999" x1="222.243" y1="52.8333" x2="245.948" y2="53.9577" gradientUnits="userSpaceOnUse">
<stop offset="0.0985558" stop-color="#D8FF20"/>
<stop offset="1" stop-color="#99F7F4"/>
</linearGradient>
<linearGradient id="paint10_linear_7624_12999" x1="246.243" y1="74.5" x2="269.854" y2="76.3665" gradientUnits="userSpaceOnUse">
<stop offset="0.0985558" stop-color="#D8FF20"/>
<stop offset="1" stop-color="#99F7F4"/>
</linearGradient>
<linearGradient id="paint11_linear_7624_12999" x1="271.821" y1="59.5593" x2="292.76" y2="110.461" gradientUnits="userSpaceOnUse">
<stop offset="0.0985558" stop-color="#D8FF20"/>
<stop offset="0.880511" stop-color="#99F7F4"/>
</linearGradient>
<linearGradient id="paint12_linear_7624_12999" x1="294.243" y1="72.3333" x2="317.872" y2="74.0845" gradientUnits="userSpaceOnUse">
<stop offset="0.0985558" stop-color="#D8FF20"/>
<stop offset="1" stop-color="#99F7F4"/>
</linearGradient>
<linearGradient id="paint13_linear_7624_12999" x1="319.243" y1="65.8333" x2="342.91" y2="67.3104" gradientUnits="userSpaceOnUse">
<stop offset="0.0985558" stop-color="#D8FF20"/>
<stop offset="1" stop-color="#99F7F4"/>
</linearGradient>
<linearGradient id="paint14_linear_7624_12999" x1="344.243" y1="47.4167" x2="367.958" y2="48.4392" gradientUnits="userSpaceOnUse">
<stop offset="0.0985558" stop-color="#D8FF20"/>
<stop offset="1" stop-color="#99F7F4"/>
</linearGradient>
<linearGradient id="paint15_linear_7624_12999" x1="368.243" y1="75.5833" x2="391.844" y2="77.5134" gradientUnits="userSpaceOnUse">
<stop offset="0.0985558" stop-color="#D8FF20"/>
<stop offset="1" stop-color="#99F7F4"/>
</linearGradient>
<linearGradient id="paint16_linear_7624_12999" x1="393.243" y1="69.0833" x2="416.893" y2="70.6859" gradientUnits="userSpaceOnUse">
<stop offset="0.0985558" stop-color="#D8FF20"/>
<stop offset="1" stop-color="#99F7F4"/>
</linearGradient>
<linearGradient id="paint17_linear_7624_12999" x1="419.243" y1="36.5833" x2="442.97" y2="37.449" gradientUnits="userSpaceOnUse">
<stop offset="0.0985558" stop-color="#D8FF20"/>
<stop offset="1" stop-color="#99F7F4"/>
</linearGradient>
<linearGradient id="paint18_linear_7624_12999" x1="444.243" y1="72.3333" x2="467.872" y2="74.0845" gradientUnits="userSpaceOnUse">
<stop offset="0.0985558" stop-color="#D8FF20"/>
<stop offset="1" stop-color="#99F7F4"/>
</linearGradient>
<linearGradient id="paint19_linear_7624_12999" x1="470.243" y1="60.4167" x2="493.93" y2="61.7231" gradientUnits="userSpaceOnUse">
<stop offset="0.0985558" stop-color="#D8FF20"/>
<stop offset="1" stop-color="#99F7F4"/>
</linearGradient>
<linearGradient id="paint20_linear_7624_12999" x1="495.243" y1="65.8333" x2="518.91" y2="67.3104" gradientUnits="userSpaceOnUse">
<stop offset="0.0985558" stop-color="#D8FF20"/>
<stop offset="1" stop-color="#99F7F4"/>
</linearGradient>
<linearGradient id="paint21_linear_7624_12999" x1="521.243" y1="65.8333" x2="544.91" y2="67.3104" gradientUnits="userSpaceOnUse">
<stop offset="0.0985558" stop-color="#D8FF20"/>
<stop offset="1" stop-color="#99F7F4"/>
</linearGradient>
<linearGradient id="paint22_linear_7624_12999" x1="513" y1="78.4889" x2="1" y2="78.4889" gradientUnits="userSpaceOnUse">
<stop stop-color="#B6FFF1"/>
<stop offset="0.526042" stop-color="#1F9898"/>
<stop offset="1" stop-color="#B6FFF1"/>
</linearGradient>
</defs>
</svg>
