<svg width="11" height="12" viewBox="0 0 11 12" fill="currentColor" xmlns="http://www.w3.org/2000/svg">
<path d="M0.441907 10.499C0.164431 10.8065 0.189359 11.2801 0.497585 11.5568C0.805811 11.8336 1.28062 11.8086 1.55809 11.501L0.441907 10.499ZM10.4584 1.3085C10.4367 0.895377 10.0833 0.578141 9.66915 0.599939L2.92013 0.955149C2.50597 0.976947 2.18786 1.32952 2.2096 1.74265C2.23135 2.15578 2.58471 2.47301 2.99887 2.45122L8.998 2.13547L9.31296 8.11974C9.33471 8.53287 9.68807 8.85011 10.1022 8.82831C10.5164 8.80651 10.8345 8.45394 10.8127 8.04081L10.4584 1.3085ZM1.55809 11.501L10.2666 1.849L9.15043 0.846941L0.441907 10.499L1.55809 11.501Z" />
</svg>
