<svg width="188" height="41" viewBox="0 0 188 41" fill="white" xmlns="http://www.w3.org/2000/svg">
    <path d="M50.0342 26.2464V11.4142H45.0355V28.7184H65.0304V26.2464H50.0342Z" />
    <path d="M82.012 11.4142H77.0604C76.353 11.4142 75.6771 11.4609 75.0326 11.5542C74.7654 11.5542 74.506 11.5853 74.2545 11.6474C74.003 11.7096 73.6965 11.8185 73.3349 11.9739C72.4389 12.3004 71.6687 12.7358 71.0242 13.2799C70.6312 13.6686 70.2382 14.2128 69.8453 14.9124L69.6095 15.7053L69.5152 16.3816V28.7184H74.5139V21.3023H84.5113V28.7184H89.51V16.3816L89.4865 15.8219C89.4865 15.5887 89.4314 15.3322 89.3214 15.0523C89.2271 14.6481 89.007 14.2827 88.6612 13.9562C88.1739 13.3343 87.5451 12.8446 86.7749 12.487C86.0204 12.1139 85.1715 11.834 84.2284 11.6474L83.073 11.4842L82.012 11.4142ZM74.5139 18.8303V16.3816L74.6082 15.9852C74.6082 15.6898 74.6711 15.4255 74.7968 15.1922C74.8911 14.959 75.0012 14.7802 75.1269 14.6559L75.5985 14.2827C75.9443 14.0184 76.4316 13.8863 77.0604 13.8863H82.012L82.5307 14.0029C82.8136 14.034 83.0966 14.1428 83.3795 14.3294C83.5682 14.4071 83.8354 14.6559 84.1812 15.0756C84.3227 15.371 84.4327 15.8064 84.5113 16.3816V18.8303H74.5139Z"/>
    <path d="M106.492 11.4142H93.9948V28.7184H106.492C107.922 28.7184 109.148 28.5474 110.17 28.2054C111.019 27.8789 111.789 27.4436 112.481 26.8994C112.764 26.6351 112.999 26.3786 113.188 26.1298C113.377 25.881 113.518 25.609 113.612 25.3136L113.895 24.4973L113.99 23.7977V16.3816L113.966 15.8219C113.966 15.5887 113.911 15.3322 113.801 15.0523C113.707 14.6481 113.487 14.2827 113.141 13.9562C112.654 13.3343 112.025 12.8446 111.255 12.487C110.5 12.1139 109.651 11.834 108.708 11.6474L107.553 11.4842L106.492 11.4142ZM108.991 23.7977L108.897 24.1708L108.826 24.6139C108.763 24.7694 108.677 24.9093 108.567 25.0337C108.472 25.3136 108.252 25.5779 107.906 25.8266C107.781 25.9355 107.592 26.0365 107.34 26.1298C107.089 26.2075 106.806 26.2464 106.492 26.2464H98.9935V13.8863H106.492L107.01 14.0029C107.293 14.034 107.576 14.1428 107.859 14.3294C108.048 14.4071 108.315 14.6559 108.661 15.0756C108.802 15.371 108.912 15.8064 108.991 16.3816V23.7977Z"/>
    <path d="M130.971 11.4142H118.474V28.7184H130.971C132.402 28.7184 133.628 28.5474 134.65 28.2054C135.498 27.8789 136.269 27.4436 136.96 26.8994C137.243 26.6351 137.479 26.3786 137.668 26.1298C137.856 25.881 137.998 25.609 138.092 25.3136L138.375 24.4973L138.469 23.7977V16.3816L138.446 15.8219C138.446 15.5887 138.391 15.3322 138.281 15.0523C138.186 14.6481 137.966 14.2827 137.62 13.9562C137.133 13.3343 136.504 12.8446 135.734 12.487C134.98 12.1139 134.131 11.834 133.188 11.6474L132.032 11.4842L130.971 11.4142ZM133.471 23.7977L133.376 24.1708L133.306 24.6139C133.243 24.7694 133.156 24.9093 133.046 25.0337C132.952 25.3136 132.732 25.5779 132.386 25.8266C132.26 25.9355 132.072 26.0365 131.82 26.1298C131.569 26.2075 131.286 26.2464 130.971 26.2464H123.473V13.8863H130.971L131.49 14.0029C131.773 14.034 132.056 14.1428 132.339 14.3294C132.527 14.4071 132.795 14.6559 133.141 15.0756C133.282 15.371 133.392 15.8064 133.471 16.3816V23.7977Z"/>
    <path d="M150.499 11.4142C149.792 11.4142 149.022 11.492 148.189 11.6474C147.843 11.6941 147.607 11.733 147.481 11.7641C147.245 11.8573 147.073 11.9195 146.962 11.9506L145.736 12.417C144.966 12.7902 144.29 13.311 143.709 13.9795C143.457 14.2905 143.268 14.6559 143.143 15.0756C143.017 15.4954 142.954 15.9307 142.954 16.3816V23.7977L143.025 24.6606C143.072 24.8627 143.143 25.0648 143.237 25.2669L143.379 25.6167L143.897 26.3863L144.51 26.946C144.982 27.3658 145.736 27.7856 146.774 28.2054C147.811 28.5474 149.053 28.7184 150.499 28.7184H162.949V26.2464H150.499C149.933 26.2464 149.446 26.122 149.037 25.8733L148.283 25.0337L148.047 24.1708C148.047 24.062 148.031 23.992 148 23.9609L147.953 23.7977V21.3023H155.451V18.8303H147.953V16.3816C147.953 15.8841 148.047 15.4799 148.236 15.1689L148.66 14.6325L149.085 14.2827C149.273 14.1428 149.54 14.0495 149.886 14.0029L150.499 13.8863H162.949V11.4142H150.499Z"/>
    <path d="M179.931 11.4142H174.979C174.272 11.4142 173.501 11.492 172.668 11.6474C172.322 11.6941 172.087 11.733 171.961 11.7641C171.725 11.8573 171.552 11.9195 171.442 11.9506L170.216 12.417C169.446 12.7902 168.77 13.311 168.188 13.9795C167.937 14.2905 167.748 14.6559 167.622 15.0756C167.497 15.4954 167.434 15.9307 167.434 16.3816V28.7184H172.432V21.3023H179.931L180.449 21.3956C180.701 21.4423 180.968 21.5433 181.251 21.6988C181.55 21.8387 181.833 22.103 182.1 22.4917C182.241 22.7871 182.351 23.2224 182.43 23.7977V28.7184H187.429V23.7977C187.429 23.2846 187.389 22.9115 187.311 22.6783C187.264 22.414 187.193 22.1963 187.098 22.0253C187.02 21.8387 186.91 21.6755 186.768 21.5356C186.627 21.2868 186.391 21.0147 186.061 20.7193C185.872 20.5328 185.542 20.3151 185.071 20.0663C185.684 19.7554 186.25 19.2734 186.768 18.6204C187.209 17.9985 187.429 17.2523 187.429 16.3816L187.405 15.8219C187.405 15.5887 187.35 15.3322 187.24 15.0523C187.146 14.6481 186.926 14.2827 186.58 13.9562C186.092 13.3343 185.464 12.8446 184.693 12.487C183.939 12.1139 183.09 11.834 182.147 11.6474L180.992 11.4842L179.931 11.4142ZM172.432 16.3816C172.432 15.8841 172.527 15.4799 172.715 15.1689L173.14 14.6325L173.564 14.2827C173.753 14.1428 174.02 14.0495 174.366 14.0029L174.979 13.8863H179.931L180.449 14.0029C180.732 14.034 181.015 14.1428 181.298 14.3294C181.487 14.4071 181.754 14.6559 182.1 15.0756C182.241 15.371 182.351 15.8064 182.43 16.3816C182.43 16.8947 182.336 17.33 182.147 17.6876C181.974 17.9519 181.715 18.1929 181.369 18.4105C181.07 18.566 180.764 18.6826 180.449 18.7604L179.931 18.8303H172.432V16.3816Z"
          />
    <path fill-rule="evenodd" clip-rule="evenodd"
          d="M1.56859 31.3963L5.85034 33.8402L5.84396 27.1803L11.6784 23.8378V17.1717L17.5096 20.5016V0.5L8.36263 5.71561L1.56859 9.60051V9.60367L0 10.4992V30.4976L1.56859 31.3963ZM17.5159 0.506307V7.16614L23.3471 3.83622L17.5159 0.506307ZM29.1879 20.5079L23.3503 23.8378V30.5134L17.5127 33.8433V40.5L34.238 30.9486L35.0191 30.5008V10.5024L34.238 10.9501V10.9533L34.2348 10.9501L29.1879 13.8323V20.5079Z"/>
    <path fill-rule="evenodd" clip-rule="evenodd"
          d="M29.2386 20.4366L23.4011 23.7665L11.7291 17.1004L17.5635 13.7705L28.4575 19.992L29.2386 20.4366ZM35.0762 10.4342L29.2386 13.7642L17.5667 7.09802L23.3979 3.76494L35.0762 10.4342ZM5.89469 27.1091L11.7291 23.7791L23.4011 30.4453L17.5635 33.7752L5.89469 27.1091Z"
          />
</svg>
