<svg width="23" height="24" viewBox="0 0 23 24" fill="none" xmlns="http://www.w3.org/2000/svg">
<path d="M18.9459 7.61869L18.9555 7.60911L15.3905 4.04411L14.3747 5.05994L16.3968 7.08202C15.4959 7.42702 14.8538 8.28952 14.8538 9.31494C14.8538 10.6374 15.9272 11.7108 17.2497 11.7108C17.5947 11.7108 17.9109 11.6341 18.208 11.5095V18.4191C18.208 18.9462 17.7768 19.3774 17.2497 19.3774C16.7226 19.3774 16.2913 18.9462 16.2913 18.4191V14.1066C16.2913 13.0524 15.4288 12.1899 14.3747 12.1899H13.4163V5.48161C13.4163 4.42744 12.5538 3.56494 11.4997 3.56494H5.74967C4.69551 3.56494 3.83301 4.42744 3.83301 5.48161V20.8149H13.4163V13.6274H14.8538V18.4191C14.8538 19.7416 15.9272 20.8149 17.2497 20.8149C18.5722 20.8149 19.6455 19.7416 19.6455 18.4191V9.31494C19.6455 8.65369 19.3772 8.04994 18.9459 7.61869ZM17.2497 10.2733C16.7226 10.2733 16.2913 9.84202 16.2913 9.31494C16.2913 8.78786 16.7226 8.35661 17.2497 8.35661C17.7768 8.35661 18.208 8.78786 18.208 9.31494C18.208 9.84202 17.7768 10.2733 17.2497 10.2733ZM7.66634 17.9399V13.6274H5.74967L9.58301 6.43994V11.2316H11.4997L7.66634 17.9399Z" fill="#333333"/>
</svg>
