<svg width="22" height="24" viewBox="0 0 22 24" fill="none" xmlns="http://www.w3.org/2000/svg">
<path d="M11.001 11.9997C14.2677 11.9997 16.8343 9.43301 16.8343 6.16634C16.8343 2.89967 14.2677 0.333008 11.001 0.333008C7.73435 0.333008 5.16768 2.89967 5.16768 6.16634C5.16768 9.43301 7.73435 11.9997 11.001 11.9997ZM21.851 22.2663C20.3343 16.3163 14.2677 12.583 8.31768 14.0997C4.35101 15.1497 1.20101 18.183 0.151015 22.2663C0.034348 22.8497 0.384348 23.5497 1.08435 23.6663C1.20101 23.6663 1.31768 23.6663 1.31768 23.6663H20.6843C21.3843 23.6663 21.851 23.1997 21.851 22.4997C21.851 22.383 21.851 22.2663 21.851 22.2663Z" fill="#333333"/>
</svg>
