<svg width="18" height="18" viewBox="0 0 18 18" fill="none" xmlns="http://www.w3.org/2000/svg">
<path d="M8.16406 4.52311H9.83073V6.18978H8.16406V4.52311ZM8.16406 7.85645H9.83073V12.8564H8.16406V7.85645ZM8.9974 0.356445C4.3974 0.356445 0.664062 4.08978 0.664062 8.68978C0.664062 13.2898 4.3974 17.0231 8.9974 17.0231C13.5974 17.0231 17.3307 13.2898 17.3307 8.68978C17.3307 4.08978 13.5974 0.356445 8.9974 0.356445ZM8.9974 15.3564C5.3224 15.3564 2.33073 12.3648 2.33073 8.68978C2.33073 5.01478 5.3224 2.02311 8.9974 2.02311C12.6724 2.02311 15.6641 5.01478 15.6641 8.68978C15.6641 12.3648 12.6724 15.3564 8.9974 15.3564Z" fill="#333333"/>
</svg>
