<svg width="225" height="48" viewBox="0 0 225 48" fill="none" xmlns="http://www.w3.org/2000/svg">
<path d="M60.041 30.8957V13.0971H54.0426V33.8621H78.0364V30.8957H60.041Z" fill="white"/>
<path d="M98.4142 13.0971H92.4724C91.6235 13.0971 90.8124 13.1531 90.039 13.265C89.7184 13.265 89.4071 13.3023 89.1053 13.3769C88.8035 13.4516 88.4357 13.5822 88.0018 13.7687C86.9267 14.1605 86.0023 14.6829 85.229 15.3359C84.7574 15.8023 84.2858 16.4553 83.8142 17.2949L83.5313 18.2464L83.4181 19.0579V33.8621H89.4166V24.9628H101.413V33.8621H107.412V19.0579L107.384 18.3863C107.384 18.1064 107.318 17.7986 107.186 17.4628C107.072 16.9777 106.808 16.5393 106.393 16.1475C105.809 15.4012 105.054 14.8135 104.13 14.3844C103.224 13.9366 102.206 13.6008 101.074 13.3769L99.6875 13.181L98.4142 13.0971ZM89.4166 21.9964V19.0579L89.5297 18.5822C89.5297 18.2277 89.6052 17.9105 89.7561 17.6307C89.8693 17.3508 90.0013 17.1363 90.1522 16.987L90.7181 16.5393C91.1331 16.2221 91.7178 16.0635 92.4724 16.0635H98.4142L99.0367 16.2034C99.3763 16.2408 99.7158 16.3714 100.055 16.5952C100.282 16.6885 100.602 16.987 101.017 17.4908C101.187 17.8452 101.319 18.3676 101.413 19.0579V21.9964H89.4166Z" fill="white"/>
<path d="M127.79 13.0971H112.794V33.8621H127.79C129.506 33.8621 130.978 33.6569 132.204 33.2464C133.222 32.8547 134.147 32.3323 134.977 31.6793C135.316 31.3621 135.599 31.0543 135.825 30.7558C136.052 30.4573 136.222 30.1308 136.335 29.7763L136.674 28.7968L136.787 27.9572V19.0579L136.759 18.3863C136.759 18.1064 136.693 17.7986 136.561 17.4628C136.448 16.9777 136.184 16.5393 135.769 16.1475C135.184 15.4012 134.43 14.8135 133.505 14.3844C132.6 13.9366 131.581 13.6008 130.449 13.3769L129.063 13.181L127.79 13.0971ZM130.789 27.9572L130.676 28.405L130.591 28.9367C130.516 29.1233 130.412 29.2912 130.28 29.4405C130.167 29.7763 129.902 30.0934 129.487 30.392C129.337 30.5226 129.11 30.6438 128.808 30.7558C128.507 30.849 128.167 30.8957 127.79 30.8957H118.792V16.0635H127.79L128.412 16.2034C128.752 16.2408 129.091 16.3714 129.431 16.5952C129.657 16.6885 129.978 16.987 130.393 17.4908C130.563 17.8452 130.695 18.3676 130.789 19.0579V27.9572Z" fill="white"/>
<path d="M157.165 13.0971H142.169V33.8621H157.165C158.882 33.8621 160.353 33.6569 161.579 33.2464C162.598 32.8547 163.522 32.3323 164.352 31.6793C164.692 31.3621 164.975 31.0543 165.201 30.7558C165.427 30.4573 165.597 30.1308 165.71 29.7763L166.05 28.7968L166.163 27.9572V19.0579L166.135 18.3863C166.135 18.1064 166.069 17.7986 165.937 17.4628C165.823 16.9777 165.559 16.5393 165.144 16.1475C164.56 15.4012 163.805 14.8135 162.881 14.3844C161.975 13.9366 160.957 13.6008 159.825 13.3769L158.439 13.181L157.165 13.0971ZM160.165 27.9572L160.051 28.405L159.966 28.9367C159.891 29.1233 159.787 29.2912 159.655 29.4405C159.542 29.7763 159.278 30.0934 158.863 30.392C158.712 30.5226 158.486 30.6438 158.184 30.7558C157.882 30.849 157.543 30.8957 157.165 30.8957H148.168V16.0635H157.165L157.788 16.2034C158.127 16.2408 158.467 16.3714 158.806 16.5952C159.033 16.6885 159.353 16.987 159.768 17.4908C159.938 17.8452 160.07 18.3676 160.165 19.0579V27.9572Z" fill="white"/>
<path d="M180.599 13.0971C179.75 13.0971 178.826 13.1904 177.826 13.3769C177.411 13.4329 177.128 13.4795 176.977 13.5169C176.694 13.6288 176.487 13.7034 176.355 13.7407L174.883 14.3004C173.959 14.7482 173.148 15.3732 172.45 16.1755C172.148 16.5486 171.922 16.987 171.771 17.4908C171.62 17.9945 171.545 18.5169 171.545 19.0579V27.9572L171.63 28.9927C171.686 29.2352 171.771 29.4778 171.884 29.7203L172.054 30.1401L172.676 31.0636L173.412 31.7352C173.978 32.239 174.883 32.7427 176.128 33.2464C177.373 33.6569 178.864 33.8621 180.599 33.8621H195.539V30.8957H180.599C179.92 30.8957 179.335 30.7464 178.845 30.4479L177.939 29.4405L177.656 28.405C177.656 28.2744 177.637 28.1905 177.6 28.1531L177.543 27.9572V24.9628H186.541V21.9964H177.543V19.0579C177.543 18.4609 177.656 17.9758 177.883 17.6027L178.392 16.959L178.901 16.5393C179.128 16.3714 179.448 16.2594 179.863 16.2034L180.599 16.0635H195.539V13.0971H180.599Z" fill="white"/>
<path d="M215.916 13.0971H209.975C209.126 13.0971 208.201 13.1904 207.202 13.3769C206.787 13.4329 206.504 13.4795 206.353 13.5169C206.07 13.6288 205.862 13.7034 205.73 13.7407L204.259 14.3004C203.335 14.7482 202.524 15.3732 201.826 16.1755C201.524 16.5486 201.298 16.987 201.147 17.4908C200.996 17.9945 200.92 18.5169 200.92 19.0579V33.8621H206.919V24.9628H215.916L216.539 25.0748C216.841 25.1307 217.161 25.252 217.501 25.4386C217.859 25.6065 218.199 25.9236 218.52 26.3901C218.689 26.7445 218.821 27.2669 218.916 27.9572V33.8621H224.914V27.9572C224.914 27.3416 224.867 26.8938 224.773 26.6139C224.716 26.2968 224.631 26.0356 224.518 25.8304C224.424 25.6065 224.292 25.4106 224.122 25.2427C223.952 24.9442 223.669 24.6177 223.273 24.2632C223.047 24.0393 222.65 23.7781 222.085 23.4796C222.82 23.1065 223.499 22.5281 224.122 21.7445C224.65 20.9982 224.914 20.1027 224.914 19.0579L224.886 18.3863C224.886 18.1064 224.82 17.7986 224.688 17.4628C224.575 16.9777 224.31 16.5393 223.895 16.1475C223.311 15.4012 222.556 14.8135 221.632 14.3844C220.726 13.9366 219.708 13.6008 218.576 13.3769L217.19 13.181L215.916 13.0971ZM206.919 19.0579C206.919 18.4609 207.032 17.9758 207.258 17.6027L207.768 16.959L208.277 16.5393C208.503 16.3714 208.824 16.2594 209.239 16.2034L209.975 16.0635H215.916L216.539 16.2034C216.878 16.2408 217.218 16.3714 217.557 16.5952C217.784 16.6885 218.105 16.987 218.52 17.4908C218.689 17.8452 218.821 18.3676 218.916 19.0579C218.916 19.6736 218.802 20.196 218.576 20.6251C218.369 20.9423 218.057 21.2315 217.642 21.4927C217.284 21.6792 216.916 21.8191 216.539 21.9124L215.916 21.9964H206.919V19.0579Z" fill="white"/>
<path fill-rule="evenodd" clip-rule="evenodd" d="M1.88231 37.0756L7.0204 40.0082L7.01274 32.0164L14.014 28.0054V20.006L21.0114 24.0019V0L10.0351 6.25873L1.88231 10.9206V10.9244L0 11.9991V35.9972L1.88231 37.0756ZM21.0191 0.00756846V7.99937L28.0165 4.00347L21.0191 0.00756846ZM35.0255 24.0095L28.0204 28.0054V36.0161L21.0153 40.012V48L41.0856 36.5383L42.0229 36.0009V12.0028L41.0856 12.5402V12.544L41.0817 12.5402L35.0255 15.9987V24.0095Z" fill="white"/>
<path fill-rule="evenodd" clip-rule="evenodd" d="M35.0863 23.9239L28.0812 27.9198L14.0749 19.9205L21.0762 15.9246L34.149 23.3904L35.0863 23.9239ZM42.0914 11.9211L35.0863 15.917L21.08 7.91762L28.0774 3.91793L42.0914 11.9211ZM7.07362 31.9309L14.0749 27.935L28.0812 35.9343L21.0762 39.9302L7.07362 31.9309Z" fill="white"/>
</svg>
