<svg width="164" height="35" viewBox="0 0 164 35" fill="#232859" xmlns="http://www.w3.org/2000/svg">
<path d="M43.78 22.5281V9.54996H39.4061V24.6911H56.9016V22.5281H43.78Z" />
<path d="M71.7605 9.54996H67.4278C66.8089 9.54996 66.2175 9.59077 65.6535 9.67239C65.4197 9.67239 65.1928 9.6996 64.9727 9.75402C64.7526 9.80843 64.4844 9.90366 64.1681 10.0397C63.3841 10.3254 62.7101 10.7063 62.1462 11.1824C61.8023 11.5225 61.4585 11.9987 61.1146 12.6108L60.9083 13.3046L60.8258 13.8964V24.6911H65.1996V18.2021H73.9474V24.6911H78.3213V13.8964L78.3006 13.4067C78.3006 13.2026 78.2525 12.9781 78.1562 12.7333C78.0737 12.3796 77.8811 12.0599 77.5785 11.7742C77.1522 11.23 76.602 10.8015 75.928 10.4886C75.2678 10.1621 74.5251 9.91726 73.6998 9.75402L72.6889 9.61117L71.7605 9.54996ZM65.1996 16.039V13.8964L65.2822 13.5495C65.2822 13.291 65.3372 13.0598 65.4472 12.8557C65.5297 12.6517 65.626 12.4952 65.7361 12.3864L66.1487 12.0599C66.4513 11.8286 66.8777 11.713 67.4278 11.713H71.7605L72.2144 11.815C72.4619 11.8422 72.7095 11.9374 72.9571 12.1007C73.1221 12.1687 73.356 12.3864 73.6586 12.7537C73.7823 13.0122 73.8786 13.3931 73.9474 13.8964V16.039H65.1996Z" />
<path d="M93.1801 9.54996H82.2455V24.6911H93.1801C94.4318 24.6911 95.5046 24.5415 96.3987 24.2422C97.1414 23.9565 97.8153 23.5756 98.4205 23.0995C98.6681 22.8682 98.8744 22.6437 99.0395 22.4261C99.2045 22.2084 99.3283 21.9703 99.4109 21.7119L99.6584 20.9977L99.741 20.3855V13.8964L99.7203 13.4067C99.7203 13.2026 99.6722 12.9781 99.5759 12.7333C99.4934 12.3796 99.3008 12.0599 98.9982 11.7742C98.5718 11.23 98.0217 10.8015 97.3477 10.4886C96.6875 10.1621 95.9448 9.91726 95.1195 9.75402L94.1086 9.61117L93.1801 9.54996ZM95.3671 20.3855L95.2846 20.712L95.2227 21.0997C95.1676 21.2357 95.092 21.3582 94.9957 21.467C94.9132 21.7119 94.7206 21.9431 94.418 22.1608C94.308 22.256 94.1429 22.3445 93.9229 22.4261C93.7028 22.4941 93.4552 22.5281 93.1801 22.5281H86.6193V11.713H93.1801L93.634 11.815C93.8816 11.8422 94.1292 11.9374 94.3768 12.1007C94.5418 12.1687 94.7756 12.3864 95.0782 12.7537C95.202 13.0122 95.2983 13.3931 95.3671 13.8964V20.3855Z" />
<path d="M114.6 9.54996H103.665V24.6911H114.6C115.851 24.6911 116.924 24.5415 117.818 24.2422C118.561 23.9565 119.235 23.5756 119.84 23.0995C120.088 22.8682 120.294 22.6437 120.459 22.4261C120.624 22.2084 120.748 21.9703 120.831 21.7119L121.078 20.9977L121.161 20.3855V13.8964L121.14 13.4067C121.14 13.2026 121.092 12.9781 120.996 12.7333C120.913 12.3796 120.721 12.0599 120.418 11.7742C119.992 11.23 119.441 10.8015 118.767 10.4886C118.107 10.1621 117.364 9.91726 116.539 9.75402L115.528 9.61117L114.6 9.54996ZM116.787 20.3855L116.704 20.712L116.642 21.0997C116.587 21.2357 116.512 21.3582 116.415 21.467C116.333 21.7119 116.14 21.9431 115.838 22.1608C115.728 22.256 115.563 22.3445 115.343 22.4261C115.122 22.4941 114.875 22.5281 114.6 22.5281H108.039V11.713H114.6L115.054 11.815C115.301 11.8422 115.549 11.9374 115.796 12.1007C115.962 12.1687 116.195 12.3864 116.498 12.7537C116.622 13.0122 116.718 13.3931 116.787 13.8964V20.3855Z" />
<path d="M131.687 9.54996C131.068 9.54996 130.394 9.61798 129.665 9.75402C129.362 9.79483 129.156 9.82884 129.046 9.85604C128.84 9.93767 128.688 9.99209 128.592 10.0193L127.519 10.4274C126.845 10.7539 126.254 11.2096 125.745 11.7946C125.525 12.0667 125.36 12.3864 125.25 12.7537C125.14 13.121 125.085 13.5019 125.085 13.8964V20.3855L125.147 21.1405C125.188 21.3174 125.25 21.4942 125.332 21.6711L125.456 21.9771L125.91 22.6505L126.446 23.1403C126.859 23.5076 127.519 23.8749 128.427 24.2422C129.335 24.5415 130.422 24.6911 131.687 24.6911H142.58V22.5281H131.687C131.192 22.5281 130.765 22.4193 130.408 22.2016L129.748 21.467L129.541 20.712C129.541 20.6168 129.527 20.5555 129.5 20.5283L129.459 20.3855V18.2021H136.02V16.039H129.459V13.8964C129.459 13.4611 129.541 13.1074 129.706 12.8353L130.078 12.366L130.449 12.0599C130.614 11.9374 130.848 11.8558 131.15 11.815L131.687 11.713H142.58V9.54996H131.687Z" />
<path d="M157.439 9.54996H153.107C152.488 9.54996 151.814 9.61798 151.085 9.75402C150.782 9.79483 150.576 9.82884 150.466 9.85604C150.259 9.93767 150.108 9.99209 150.012 10.0193L148.939 10.4274C148.265 10.7539 147.674 11.2096 147.165 11.7946C146.945 12.0667 146.78 12.3864 146.67 12.7537C146.56 13.121 146.505 13.5019 146.505 13.8964V24.6911H150.878V18.2021H157.439L157.893 18.2837C158.113 18.3245 158.347 18.4129 158.595 18.549C158.856 18.6714 159.103 18.9027 159.337 19.2428C159.461 19.5012 159.557 19.8821 159.626 20.3855V24.6911H164V20.3855C164 19.9366 163.966 19.6101 163.897 19.406C163.856 19.1747 163.794 18.9843 163.711 18.8346C163.642 18.6714 163.546 18.5285 163.422 18.4061C163.299 18.1885 163.092 17.9504 162.803 17.6919C162.638 17.5287 162.349 17.3382 161.937 17.1205C162.473 16.8485 162.968 16.4267 163.422 15.8554C163.807 15.3112 164 14.6582 164 13.8964L163.979 13.4067C163.979 13.2026 163.931 12.9781 163.835 12.7333C163.752 12.3796 163.56 12.0599 163.257 11.7742C162.831 11.23 162.281 10.8015 161.607 10.4886C160.947 10.1621 160.204 9.91726 159.379 9.75402L158.368 9.61117L157.439 9.54996ZM150.878 13.8964C150.878 13.4611 150.961 13.1074 151.126 12.8353L151.497 12.366L151.869 12.0599C152.034 11.9374 152.268 11.8558 152.57 11.815L153.107 11.713H157.439L157.893 11.815C158.141 11.8422 158.388 11.9374 158.636 12.1007C158.801 12.1687 159.035 12.3864 159.337 12.7537C159.461 13.0122 159.557 13.3931 159.626 13.8964C159.626 14.3453 159.544 14.7263 159.379 15.0391C159.227 15.2704 159 15.4813 158.698 15.6717C158.436 15.8078 158.168 15.9098 157.893 15.9778L157.439 16.039H150.878V13.8964Z" />
<path fill-rule="evenodd" clip-rule="evenodd" d="M1.37252 27.0343L5.11904 29.1726L5.11346 23.3453L10.2186 20.4206V14.5877L15.3209 17.5014V0L7.3173 4.56366L1.37252 7.96295V7.96571L0 8.74931V26.2479L1.37252 27.0343ZM15.3264 0.00551867V5.83287L20.4287 2.9192L15.3264 0.00551867ZM25.5394 17.5069L20.4315 20.4206V26.2617L15.3237 29.1754V35L29.9583 26.6425L30.6417 26.2507V8.75207L29.9583 9.14387V9.14663L29.9555 9.14387L25.5394 11.6657V17.5069Z" />
<path fill-rule="evenodd" clip-rule="evenodd" d="M25.5838 17.4445L20.4759 20.3582L10.2629 14.5253L15.368 11.6117L24.9003 17.0555L25.5838 17.4445ZM30.6917 8.69246L25.5838 11.6061L15.3708 5.77326L20.4731 2.85682L30.6917 8.69246ZM5.15785 23.2829L10.2629 20.3692L20.4759 26.2021L15.368 29.1158L5.15785 23.2829Z" />
</svg>
