<svg width="34" height="40" viewBox="0 0 34 40" fill="none" xmlns="http://www.w3.org/2000/svg">
<path fill-rule="evenodd" clip-rule="evenodd" d="M1.52046 30.8963L5.67083 33.3402L5.66465 26.6803L11.32 23.3378V16.6717L16.9723 20.0016V0L8.10605 5.21561L1.52046 9.10051V9.10367L0 9.99921V29.9976L1.52046 30.8963ZM16.9785 0.00630705V6.66614L22.6308 3.33622L16.9785 0.00630705ZM28.2924 20.0079L22.6339 23.3378V30.0134L16.9754 33.3433V40L33.1875 30.4486L33.9446 30.0008V10.0024L33.1875 10.4501V10.4533L33.1844 10.4501L28.2924 13.3323V20.0079Z" fill="#232859"/>
<path fill-rule="evenodd" clip-rule="evenodd" d="M28.3415 19.9366L22.6831 23.2665L11.3692 16.6004L17.0246 13.2705L27.5844 19.492L28.3415 19.9366ZM34 9.93424L28.3415 13.2642L17.0277 6.59802L22.68 3.26494L34 9.93424ZM5.71383 26.6091L11.3692 23.2791L22.6831 29.9453L17.0246 33.2752L5.71383 26.6091Z" fill="#232859"/>
</svg>
