<svg width="40" height="40" viewBox="0 0 40 40" fill="none" xmlns="http://www.w3.org/2000/svg">
<path fill-rule="evenodd" clip-rule="evenodd" d="M20 40C31.0457 40 40 31.0457 40 20C40 8.9543 31.0457 0 20 0C8.9543 0 0 8.9543 0 20C0 31.0457 8.9543 40 20 40Z" fill="#484D50"/>
<path d="M19.9983 8.88867C16.9349 8.88867 14.4427 11.3809 14.4427 14.4442V17.7776H13.3316C12.7422 17.7776 12.177 18.0117 11.7602 18.4284C11.3435 18.8452 11.1094 19.4104 11.1094 19.9998V28.8887C11.1094 29.478 11.3435 30.0433 11.7602 30.46C12.177 30.8768 12.7422 31.1109 13.3316 31.1109H26.6649C27.2543 31.1109 27.8195 30.8768 28.2363 30.46C28.653 30.0433 28.8872 29.478 28.8872 28.8887V19.9998C28.8872 19.4104 28.653 18.8452 28.2363 18.4284C27.8195 18.0117 27.2543 17.7776 26.6649 17.7776H25.5538V14.4442C25.5538 11.3809 23.0616 8.88867 19.9983 8.88867ZM16.6649 14.4442C16.6649 12.6064 18.1605 11.1109 19.9983 11.1109C21.836 11.1109 23.3316 12.6064 23.3316 14.4442V17.7776H16.6649V14.4442ZM21.1094 26.3587V28.8887H18.8872V26.3587C18.4987 26.1362 18.1868 25.8013 17.9925 25.398C17.7983 24.9947 17.7308 24.5419 17.799 24.0995C17.8672 23.6571 18.0679 23.2458 18.3747 22.9197C18.6814 22.5937 19.0797 22.3682 19.5172 22.2731C19.8421 22.2013 20.179 22.2033 20.503 22.279C20.827 22.3547 21.1299 22.5022 21.3894 22.7105C21.6488 22.9189 21.8582 23.1828 22.002 23.4829C22.1459 23.783 22.2205 24.1115 22.2205 24.4442C22.2198 24.8328 22.1168 25.2144 21.9217 25.5505C21.7267 25.8866 21.4465 26.1653 21.1094 26.3587Z" fill="url(#paint0_linear_12011_28735)"/>
<defs>
<linearGradient id="paint0_linear_12011_28735" x1="11.1094" y1="23.3331" x2="28.8872" y2="23.3331" gradientUnits="userSpaceOnUse">
<stop stop-color="#D6FF29"/>
<stop offset="1" stop-color="#9CF8EC"/>
</linearGradient>
</defs>
</svg>
