<svg width="19" height="25" viewBox="0 0 19 25" fill="none" xmlns="http://www.w3.org/2000/svg">
<path d="M2.63281 0.635742C1.39062 0.635742 0.382812 1.64355 0.382812 2.88574V22.3857C0.382812 23.6279 1.39062 24.6357 2.63281 24.6357H7.13281V20.8857C7.13281 19.6436 8.14062 18.6357 9.38281 18.6357C10.625 18.6357 11.6328 19.6436 11.6328 20.8857V24.6357H16.1328C17.375 24.6357 18.3828 23.6279 18.3828 22.3857V2.88574C18.3828 1.64355 17.375 0.635742 16.1328 0.635742H2.63281ZM3.38281 11.8857C3.38281 11.4732 3.72031 11.1357 4.13281 11.1357H5.63281C6.04531 11.1357 6.38281 11.4732 6.38281 11.8857V13.3857C6.38281 13.7982 6.04531 14.1357 5.63281 14.1357H4.13281C3.72031 14.1357 3.38281 13.7982 3.38281 13.3857V11.8857ZM8.63281 11.1357H10.1328C10.5453 11.1357 10.8828 11.4732 10.8828 11.8857V13.3857C10.8828 13.7982 10.5453 14.1357 10.1328 14.1357H8.63281C8.22031 14.1357 7.88281 13.7982 7.88281 13.3857V11.8857C7.88281 11.4732 8.22031 11.1357 8.63281 11.1357ZM12.3828 11.8857C12.3828 11.4732 12.7203 11.1357 13.1328 11.1357H14.6328C15.0453 11.1357 15.3828 11.4732 15.3828 11.8857V13.3857C15.3828 13.7982 15.0453 14.1357 14.6328 14.1357H13.1328C12.7203 14.1357 12.3828 13.7982 12.3828 13.3857V11.8857ZM4.13281 5.13574H5.63281C6.04531 5.13574 6.38281 5.47324 6.38281 5.88574V7.38574C6.38281 7.79824 6.04531 8.13574 5.63281 8.13574H4.13281C3.72031 8.13574 3.38281 7.79824 3.38281 7.38574V5.88574C3.38281 5.47324 3.72031 5.13574 4.13281 5.13574ZM7.88281 5.88574C7.88281 5.47324 8.22031 5.13574 8.63281 5.13574H10.1328C10.5453 5.13574 10.8828 5.47324 10.8828 5.88574V7.38574C10.8828 7.79824 10.5453 8.13574 10.1328 8.13574H8.63281C8.22031 8.13574 7.88281 7.79824 7.88281 7.38574V5.88574ZM13.1328 5.13574H14.6328C15.0453 5.13574 15.3828 5.47324 15.3828 5.88574V7.38574C15.3828 7.79824 15.0453 8.13574 14.6328 8.13574H13.1328C12.7203 8.13574 12.3828 7.79824 12.3828 7.38574V5.88574C12.3828 5.47324 12.7203 5.13574 13.1328 5.13574Z" fill="#878D92"/>
</svg>
