<svg width="15" height="16" viewBox="0 0 15 16" fill="none" xmlns="http://www.w3.org/2000/svg">
<path d="M7.50047 15.5849C3.4163 15.5849 0.105469 12.2741 0.105469 8.18992C0.105469 4.10576 3.4163 0.794922 7.50047 0.794922C11.5846 0.794922 14.8955 4.10576 14.8955 8.18992C14.8955 12.2741 11.5846 15.5849 7.50047 15.5849ZM7.50047 1.85139C3.99983 1.85139 1.16193 4.68928 1.16193 8.18992C1.16193 11.6906 3.99983 14.5285 7.50047 14.5285C11.0011 14.5285 13.8391 11.6905 13.8391 8.18992C13.8391 4.68928 11.0011 1.85139 7.50047 1.85139ZM9.39112 8.03811C9.23506 8.19655 8.95473 8.46345 8.55048 8.8389C8.43887 8.94455 8.34911 9.03746 8.2817 9.11778C8.21447 9.1976 8.16415 9.27095 8.13134 9.33751C8.09939 9.40138 8.07385 9.46826 8.0551 9.53717C8.03716 9.60373 8.01005 9.7206 7.97375 9.88797C7.91136 10.2426 7.71569 10.4201 7.38708 10.4201C7.21631 10.4201 7.07224 10.3618 6.9557 10.2461C6.83917 10.1303 6.78069 9.95758 6.78069 9.7291C6.78069 9.4424 6.82327 9.19454 6.90887 8.98467C6.99446 8.77481 7.10785 8.59061 7.24904 8.43183C7.39031 8.27348 7.58105 8.08495 7.821 7.86658C8.03121 7.67533 8.18336 7.53134 8.27686 7.43419C8.37041 7.33732 8.45005 7.22793 8.5135 7.10915C8.57759 6.98981 8.60963 6.86018 8.60963 6.72036C8.60963 6.44742 8.5118 6.21716 8.31638 6.02948C8.12088 5.84214 7.86843 5.74813 7.55972 5.74813C7.19804 5.74813 6.93182 5.84282 6.76105 6.03194C6.59029 6.22141 6.44553 6.50029 6.32721 6.86868C6.21561 7.25433 6.00362 7.44685 5.69124 7.44685C5.50705 7.44685 5.35175 7.37962 5.22536 7.24481C5.09888 7.11025 5.03547 6.96414 5.03547 6.8074C5.03547 6.48312 5.13585 6.15494 5.3362 5.8225C5.53654 5.48973 5.8292 5.21433 6.21374 4.99605C6.59819 4.77768 7.04691 4.66854 7.55955 4.66854C8.03588 4.66854 8.45689 4.75975 8.82179 4.94216C9.18653 5.12457 9.46822 5.37285 9.6672 5.68693C9.86611 6.00066 9.96555 6.34194 9.96555 6.71024C9.96555 7.00009 9.90877 7.25433 9.79538 7.47269C9.68199 7.69097 9.5471 7.87933 9.39112 8.03811ZM7.44131 10.8855C7.64837 10.8855 7.8227 10.9591 7.96389 11.1057C8.10507 11.2526 8.17579 11.4333 8.17579 11.6481C8.17579 11.8868 8.10184 12.0745 7.95403 12.211C7.80613 12.3474 7.63537 12.4156 7.44131 12.4156C7.24088 12.4156 7.06586 12.3484 6.91626 12.2136C6.76658 12.0787 6.69195 11.8902 6.69195 11.6481C6.69195 11.4334 6.76411 11.2526 6.90887 11.1057C7.05362 10.9591 7.2311 10.8855 7.44131 10.8855Z" fill="#828282"/>
</svg>
