<svg width="80" height="89" viewBox="0 0 80 89" fill="none" xmlns="http://www.w3.org/2000/svg">
<path d="M44.0031 47.0002C57.0698 47.0002 67.3364 36.7335 67.3364 23.6668C67.3364 10.6002 57.0698 0.333496 44.0031 0.333496C30.9364 0.333496 20.6698 10.6002 20.6698 23.6668C20.6698 36.7335 30.9364 47.0002 44.0031 47.0002ZM87.4031 88.0668C81.3364 64.2668 57.0698 49.3335 33.2698 55.4002C17.4031 59.6002 4.80308 71.7335 0.603082 88.0668C0.136415 90.4002 1.53642 93.2002 4.33642 93.6668C4.80308 93.6668 5.26975 93.6668 5.26975 93.6668H82.7364C85.5364 93.6668 87.4031 91.8002 87.4031 89.0002C87.4031 88.5335 87.4031 88.0668 87.4031 88.0668Z" fill="#1F9898" fill-opacity="0.3"/>
</svg>
