<svg width="64" height="98" viewBox="0 0 64 98" fill="none" xmlns="http://www.w3.org/2000/svg">
<path d="M10.5 0C4.70312 0 0 4.70312 0 10.5V101.5C0 107.297 4.70312 112 10.5 112H31.5V94.5C31.5 88.7031 36.2031 84 42 84C47.7969 84 52.5 88.7031 52.5 94.5V112H73.5C79.2969 112 84 107.297 84 101.5V10.5C84 4.70312 79.2969 0 73.5 0H10.5ZM14 52.5C14 50.575 15.575 49 17.5 49H24.5C26.425 49 28 50.575 28 52.5V59.5C28 61.425 26.425 63 24.5 63H17.5C15.575 63 14 61.425 14 59.5V52.5ZM38.5 49H45.5C47.425 49 49 50.575 49 52.5V59.5C49 61.425 47.425 63 45.5 63H38.5C36.575 63 35 61.425 35 59.5V52.5C35 50.575 36.575 49 38.5 49ZM56 52.5C56 50.575 57.575 49 59.5 49H66.5C68.425 49 70 50.575 70 52.5V59.5C70 61.425 68.425 63 66.5 63H59.5C57.575 63 56 61.425 56 59.5V52.5ZM17.5 21H24.5C26.425 21 28 22.575 28 24.5V31.5C28 33.425 26.425 35 24.5 35H17.5C15.575 35 14 33.425 14 31.5V24.5C14 22.575 15.575 21 17.5 21ZM35 24.5C35 22.575 36.575 21 38.5 21H45.5C47.425 21 49 22.575 49 24.5V31.5C49 33.425 47.425 35 45.5 35H38.5C36.575 35 35 33.425 35 31.5V24.5ZM59.5 21H66.5C68.425 21 70 22.575 70 24.5V31.5C70 33.425 68.425 35 66.5 35H59.5C57.575 35 56 33.425 56 31.5V24.5C56 22.575 57.575 21 59.5 21Z" fill="#BCE0E0"/>
</svg>
