<svg width="20" height="20" viewBox="0 0 20 20" fill="none" xmlns="http://www.w3.org/2000/svg">
<path d="M18.2999 10.7C17.9999 10.3 17.9999 9.8 18.2999 9.4L19.5999 8C19.8999 7.7 19.8999 7.2 19.6999 6.8L17.6999 3.3C17.4999 2.9 17.0999 2.7 16.5999 2.8L14.6999 3.2C14.1999 3.3 13.6999 3 13.5999 2.5L12.9999 0.7C12.7999 0.3 12.3999 0 11.9999 0H7.99985C7.59985 0 7.19985 0.3 7.09985 0.7L6.39985 2.5C6.29985 3 5.79985 3.3 5.29985 3.2L3.39985 2.8C2.99985 2.7 2.59985 2.9 2.29985 3.3L0.299853 6.8C0.0998526 7.1 0.199853 7.6 0.499853 7.9L1.79985 9.3C2.09985 9.7 2.09985 10.2 1.79985 10.6L0.499853 12C0.199853 12.3 0.199853 12.8 0.399853 13.2L2.39985 16.7C2.59985 17.1 2.99985 17.3 3.49985 17.2L5.39985 16.8C5.89985 16.7 6.39985 17 6.49985 17.5L7.09985 19.3C7.19985 19.7 7.59985 20 7.99985 20H11.9999C12.3999 20 12.7999 19.7 12.8999 19.3L13.4999 17.5C13.6999 17 14.1999 16.7 14.5999 16.8L16.4999 17.2C16.8999 17.3 17.3999 17.1 17.5999 16.7L19.5999 13.2C19.7999 12.8 19.7999 12.4 19.4999 12L18.2999 10.7ZM9.99985 13C8.29985 13 6.99985 11.7 6.99985 10C6.99985 8.3 8.29985 7 9.99985 7C11.6999 7 12.9999 8.3 12.9999 10C12.9999 11.7 11.6999 13 9.99985 13Z" fill="#828282"/>
</svg>
