<svg width="32" height="32" viewBox="0 0 32 32" fill="none" xmlns="http://www.w3.org/2000/svg">
<path d="M19.2 14.4C18.7467 14.4 18.3669 14.5531 18.0608 14.8592C17.7536 15.1664 17.6 15.5467 17.6 16V21.04L16.16 19.64C15.84 19.3467 15.4667 19.2 15.04 19.2C14.6133 19.2 14.24 19.36 13.92 19.68C13.6267 19.9733 13.48 20.3467 13.48 20.8C13.48 21.2533 13.6267 21.6267 13.92 21.92L18.08 26.08C18.3733 26.3733 18.7467 26.52 19.2 26.52C19.6533 26.52 20.0267 26.3733 20.32 26.08L24.52 21.88C24.8133 21.5867 24.96 21.2267 24.96 20.8C24.96 20.3733 24.8 20 24.48 19.68C24.1867 19.3867 23.8133 19.2331 23.36 19.2192C22.9067 19.2064 22.5333 19.36 22.24 19.68L20.8 21.04V15.96C20.8 15.5067 20.6469 15.1333 20.3408 14.84C20.0336 14.5467 19.6533 14.4 19.2 14.4ZM12.8 17.6C13.2533 17.6 13.6336 17.4464 13.9408 17.1392C14.2469 16.8331 14.4 16.4533 14.4 16V10.96L15.84 12.36C16.16 12.6533 16.5333 12.8 16.96 12.8C17.3867 12.8 17.76 12.64 18.08 12.32C18.3733 12.0267 18.52 11.6533 18.52 11.2C18.52 10.7467 18.3733 10.3733 18.08 10.08L13.92 5.92C13.6267 5.62667 13.2533 5.48 12.8 5.48C12.3467 5.48 11.9733 5.62667 11.68 5.92L7.48 10.12C7.18667 10.4133 7.04 10.7733 7.04 11.2C7.04 11.6267 7.2 12 7.52 12.32C7.81333 12.6133 8.18667 12.7669 8.64 12.7808C9.09333 12.7936 9.46667 12.64 9.76 12.32L11.2 10.96V16.04C11.2 16.4933 11.3536 16.8667 11.6608 17.16C11.9669 17.4533 12.3467 17.6 12.8 17.6ZM16 32C13.7867 32 11.7067 31.5797 9.76 30.7392C7.81333 29.8997 6.12 28.76 4.68 27.32C3.24 25.88 2.10027 24.1867 1.2608 22.24C0.420267 20.2933 0 18.2133 0 16C0 13.7867 0.420267 11.7067 1.2608 9.76C2.10027 7.81333 3.24 6.12 4.68 4.68C6.12 3.24 7.81333 2.09973 9.76 1.2592C11.7067 0.419733 13.7867 0 16 0C18.2133 0 20.2933 0.419733 22.24 1.2592C24.1867 2.09973 25.88 3.24 27.32 4.68C28.76 6.12 29.8997 7.81333 30.7392 9.76C31.5797 11.7067 32 13.7867 32 16C32 18.2133 31.5797 20.2933 30.7392 22.24C29.8997 24.1867 28.76 25.88 27.32 27.32C25.88 28.76 24.1867 29.8997 22.24 30.7392C20.2933 31.5797 18.2133 32 16 32Z" fill="url(#paint0_linear_7080_8769)"/>
<defs>
<linearGradient id="paint0_linear_7080_8769" x1="10.1333" y1="36.2667" x2="22.4" y2="1.6" gradientUnits="userSpaceOnUse">
<stop stop-color="#CAF400"/>
<stop offset="1" stop-color="#00E4DD"/>
</linearGradient>
</defs>
</svg>
