<svg width="140" height="140" viewBox="0 0 140 140" fill="none" xmlns="http://www.w3.org/2000/svg">
<circle cx="70" cy="70" r="70" fill="#F6F6F6"/>
<path d="M62.9012 57.3031L62.2105 59.375H57.25C54.9059 59.375 53 61.2809 53 63.625V80.625C53 82.9691 54.9059 84.875 57.25 84.875H82.75C85.0941 84.875 87 82.9691 87 80.625V63.625C87 61.2809 85.0941 59.375 82.75 59.375H77.7895L77.0988 57.3031C76.6672 56.0016 75.452 55.125 74.0773 55.125H65.9227C64.548 55.125 63.3328 56.0016 62.9012 57.3031ZM70 78.5C66.4805 78.5 63.625 75.6445 63.625 72.125C63.625 68.6055 66.4805 65.75 70 65.75C73.5195 65.75 76.375 68.6055 76.375 72.125C76.375 75.6445 73.5195 78.5 70 78.5Z" fill="#C7CFCF"/>
</svg>
