<svg width="60" height="60" viewBox="0 0 60 60" fill="none" xmlns="http://www.w3.org/2000/svg">
<path d="M30 60C46.5685 60 60 46.5685 60 30C60 13.4315 46.5685 0 30 0C13.4315 0 0 13.4315 0 30C0 46.5685 13.4315 60 30 60Z" fill="#1F9898" fill-opacity="0.1"/>
<path d="M34.9999 24.9999C34.5375 23.7957 33.7815 22.7261 32.8006 21.8884C31.8197 21.0507 30.6449 20.4714 29.3831 20.2033C28.1214 19.9351 26.8126 19.9866 25.5758 20.353C24.3389 20.7193 23.2133 21.389 22.3012 22.3012C21.389 23.2133 20.7193 24.3389 20.353 25.5758C19.9866 26.8126 19.9351 28.1214 20.2033 29.3831C20.4714 30.6449 21.0507 31.8197 21.8884 32.8006C22.7261 33.7815 23.7957 34.5375 24.9999 34.9999C25.4623 36.2041 26.2183 37.2737 27.1992 38.1114C28.1801 38.9491 29.3549 39.5284 30.6166 39.7965C31.8784 40.0647 33.1872 40.0132 34.424 39.6468C35.6608 39.2804 36.7865 38.6107 37.6986 37.6986C38.6107 36.7865 39.2804 35.6608 39.6468 34.424C40.0132 33.1872 40.0647 31.8784 39.7965 30.6166C39.5284 29.3549 38.9491 28.1801 38.1114 27.1992C37.2737 26.2183 36.2041 25.4623 34.9999 24.9999ZM33.3999 26.5999C33.4721 26.9756 33.5089 27.3573 33.5099 27.7399C33.5078 28.1912 33.4541 28.6408 33.3499 29.0799L30.9099 26.6599C31.349 26.5557 31.7986 26.502 32.2499 26.4999C32.6325 26.5008 33.0142 26.5377 33.3899 26.6099L33.3999 26.5999ZM32.4599 30.9999C32.0612 31.5673 31.5673 32.0612 30.9999 32.4599L27.5399 28.9999C27.9385 28.4325 28.4325 27.9385 28.9999 27.5399L32.4599 30.9999ZM24.4599 32.4599C23.7671 31.9807 23.1881 31.355 22.7637 30.6273C22.3394 29.8996 22.0802 29.0875 22.0044 28.2485C21.9285 27.4095 22.038 26.5641 22.325 25.7721C22.612 24.9801 23.0695 24.2608 23.6652 23.6652C24.2608 23.0695 24.9801 22.612 25.7721 22.325C26.5641 22.038 27.4095 21.9285 28.2485 22.0044C29.0875 22.0802 29.8996 22.3394 30.6273 22.7637C31.355 23.1881 31.9807 23.7671 32.4599 24.4599H32.2099C30.1553 24.4731 28.1898 25.3006 26.7444 26.761C25.2991 28.2213 24.4919 30.1953 24.4999 32.2499C24.4999 32.3299 24.5099 32.4199 24.5099 32.4999L24.4599 32.4599ZM26.5599 33.3499C26.4877 32.9742 26.4508 32.5925 26.4499 32.2099C26.452 31.7586 26.5057 31.309 26.6099 30.8699L29.0399 33.2999C28.6008 33.4041 28.1512 33.4578 27.6999 33.4599C27.3352 33.4691 26.9704 33.4457 26.6099 33.3899L26.5599 33.3499ZM32.2499 37.9999C31.3139 37.9981 30.3925 37.7687 29.5649 37.3314C28.7374 36.8942 28.0287 36.2621 27.4999 35.4899H27.7499C29.8028 35.4873 31.771 34.6713 33.2235 33.2206C34.6761 31.7699 35.4946 29.8028 35.4999 27.7499C35.4999 27.6699 35.4999 27.5799 35.4999 27.4999C36.5157 28.1929 37.2826 29.1932 37.688 30.3542C38.0935 31.5151 38.116 32.7754 37.7524 33.9501C37.3888 35.1248 36.6582 36.152 35.6679 36.8809C34.6775 37.6098 33.4796 38.002 32.2499 37.9999Z" fill="#1F9898"/>
</svg>
