<svg width="60" height="60" viewBox="0 0 60 60" fill="none" xmlns="http://www.w3.org/2000/svg">
<path d="M30 60C46.5685 60 60 46.5685 60 30C60 13.4315 46.5685 0 30 0C13.4315 0 0 13.4315 0 30C0 46.5685 13.4315 60 30 60Z" fill="#1F9898" fill-opacity="0.1"/>
<path d="M28.46 23.9999L29 23.4099V26.9999C29 27.2651 29.1054 27.5195 29.2929 27.707C29.4804 27.8945 29.7348 27.9999 30 27.9999C30.2652 27.9999 30.5196 27.8945 30.7071 27.707C30.8946 27.5195 31 27.2651 31 26.9999V23.4099L31.54 23.9599C31.6308 24.0624 31.7416 24.1452 31.8657 24.2031C31.9898 24.2611 32.1244 24.2929 32.2613 24.2966C32.3982 24.3004 32.5344 24.276 32.6615 24.2249C32.7885 24.1739 32.9038 24.0973 33 23.9999C33.0937 23.9069 33.1681 23.7963 33.2189 23.6745C33.2697 23.5526 33.2958 23.4219 33.2958 23.2899C33.2958 23.1579 33.2697 23.0272 33.2189 22.9053C33.1681 22.7835 33.0937 22.6729 33 22.5799L30.71 20.2899C30.6149 20.1989 30.5028 20.1275 30.38 20.0799C30.1365 19.9799 29.8635 19.9799 29.62 20.0799C29.4972 20.1275 29.3851 20.1989 29.29 20.2899L27 22.5399C26.8064 22.7335 26.6976 22.9961 26.6976 23.2699C26.6976 23.5437 26.8064 23.8063 27 23.9999C27.1936 24.1935 27.4562 24.3023 27.73 24.3023C28.0038 24.3023 28.2664 24.1935 28.46 23.9999V23.9999ZM30 29.9999C29.4067 29.9999 28.8266 30.1758 28.3333 30.5055C27.8399 30.8351 27.4554 31.3037 27.2284 31.8518C27.0013 32.4 26.9419 33.0032 27.0576 33.5852C27.1734 34.1671 27.4591 34.7017 27.8787 35.1212C28.2982 35.5408 28.8328 35.8265 29.4147 35.9423C29.9967 36.058 30.5999 35.9986 31.1481 35.7715C31.6962 35.5445 32.1648 35.16 32.4944 34.6666C32.8241 34.1733 33 33.5932 33 32.9999C33 32.2042 32.6839 31.4412 32.1213 30.8786C31.5587 30.316 30.7956 29.9999 30 29.9999ZM30 33.9999C29.8022 33.9999 29.6089 33.9412 29.4444 33.8314C29.28 33.7215 29.1518 33.5653 29.0761 33.3826C29.0004 33.1999 28.9806 32.9988 29.0192 32.8048C29.0578 32.6108 29.153 32.4326 29.2929 32.2928C29.4327 32.1529 29.6109 32.0577 29.8049 32.0191C29.9989 31.9805 30.2 32.0003 30.3827 32.076C30.5654 32.1517 30.7216 32.2799 30.8315 32.4443C30.9414 32.6088 31 32.8021 31 32.9999C31 33.2651 30.8946 33.5195 30.7071 33.707C30.5196 33.8945 30.2652 33.9999 30 33.9999ZM23 32.9999C23 33.1977 23.0586 33.391 23.1685 33.5555C23.2784 33.7199 23.4346 33.8481 23.6173 33.9238C23.8 33.9995 24.0011 34.0193 24.1951 33.9807C24.3891 33.9421 24.5673 33.8469 24.7071 33.707C24.847 33.5672 24.9422 33.389 24.9808 33.195C25.0194 33.001 24.9996 32.7999 24.9239 32.6172C24.8482 32.4345 24.72 32.2783 24.5556 32.1684C24.3911 32.0585 24.1978 31.9999 24 31.9999C23.7348 31.9999 23.4804 32.1053 23.2929 32.2928C23.1054 32.4803 23 32.7347 23 32.9999ZM37 32.9999C37 32.8021 36.9414 32.6088 36.8315 32.4443C36.7216 32.2799 36.5654 32.1517 36.3827 32.076C36.2 32.0003 35.9989 31.9805 35.8049 32.0191C35.6109 32.0577 35.4327 32.1529 35.2929 32.2928C35.153 32.4326 35.0578 32.6108 35.0192 32.8048C34.9806 32.9988 35.0004 33.1999 35.0761 33.3826C35.1518 33.5653 35.28 33.7215 35.4444 33.8314C35.6089 33.9412 35.8022 33.9999 36 33.9999C36.2652 33.9999 36.5196 33.8945 36.7071 33.707C36.8946 33.5195 37 33.2651 37 32.9999ZM38 25.9999H34C33.7348 25.9999 33.4804 26.1053 33.2929 26.2928C33.1054 26.4803 33 26.7347 33 26.9999C33 27.2651 33.1054 27.5195 33.2929 27.707C33.4804 27.8945 33.7348 27.9999 34 27.9999H38C38.2652 27.9999 38.5196 28.1053 38.7071 28.2928C38.8946 28.4803 39 28.7347 39 28.9999V36.9999C39 37.2651 38.8946 37.5195 38.7071 37.707C38.5196 37.8945 38.2652 37.9999 38 37.9999H22C21.7348 37.9999 21.4804 37.8945 21.2929 37.707C21.1054 37.5195 21 37.2651 21 36.9999V28.9999C21 28.7347 21.1054 28.4803 21.2929 28.2928C21.4804 28.1053 21.7348 27.9999 22 27.9999H26C26.2652 27.9999 26.5196 27.8945 26.7071 27.707C26.8946 27.5195 27 27.2651 27 26.9999C27 26.7347 26.8946 26.4803 26.7071 26.2928C26.5196 26.1053 26.2652 25.9999 26 25.9999H22C21.2044 25.9999 20.4413 26.316 19.8787 26.8786C19.3161 27.4412 19 28.2042 19 28.9999V36.9999C19 37.7955 19.3161 38.5586 19.8787 39.1212C20.4413 39.6838 21.2044 39.9999 22 39.9999H38C38.7956 39.9999 39.5587 39.6838 40.1213 39.1212C40.6839 38.5586 41 37.7955 41 36.9999V28.9999C41 28.2042 40.6839 27.4412 40.1213 26.8786C39.5587 26.316 38.7956 25.9999 38 25.9999Z" fill="#1F9898"/>
</svg>
